G75*
%MOIN*%
%OFA0B0*%
%FSLAX24Y24*%
%IPPOS*%
%LPD*%
%AMOC8*
5,1,8,0,0,1.08239X$1,22.5*
%
%ADD10C,0.0000*%
%ADD11R,0.0674X0.0674*%
%ADD12C,0.0674*%
%ADD13C,0.0680*%
%ADD14OC8,0.0680*%
%ADD15C,0.0595*%
%ADD16C,0.0477*%
D10*
X001875Y000160D02*
X001875Y013906D01*
X007995Y013906D01*
X007995Y000160D01*
X001875Y000160D01*
X003359Y012965D02*
X003359Y013280D01*
X003360Y013280D02*
X003361Y013297D01*
X003366Y013314D01*
X003373Y013329D01*
X003383Y013343D01*
X003395Y013355D01*
X003409Y013365D01*
X003424Y013372D01*
X003441Y013377D01*
X003458Y013378D01*
X003475Y013377D01*
X003492Y013372D01*
X003507Y013365D01*
X003521Y013355D01*
X003533Y013343D01*
X003543Y013329D01*
X003550Y013314D01*
X003555Y013297D01*
X003556Y013280D01*
X003556Y012965D01*
X003458Y012867D02*
X003441Y012868D01*
X003424Y012873D01*
X003409Y012880D01*
X003395Y012890D01*
X003383Y012902D01*
X003373Y012916D01*
X003366Y012931D01*
X003361Y012948D01*
X003360Y012965D01*
X003458Y012867D02*
X003475Y012868D01*
X003492Y012873D01*
X003507Y012880D01*
X003521Y012890D01*
X003533Y012902D01*
X003543Y012916D01*
X003550Y012931D01*
X003555Y012948D01*
X003556Y012965D01*
X006194Y012965D02*
X006194Y013280D01*
X006195Y013297D01*
X006200Y013314D01*
X006207Y013329D01*
X006217Y013343D01*
X006229Y013355D01*
X006243Y013365D01*
X006258Y013372D01*
X006275Y013377D01*
X006292Y013378D01*
X006309Y013377D01*
X006326Y013372D01*
X006341Y013365D01*
X006355Y013355D01*
X006367Y013343D01*
X006377Y013329D01*
X006384Y013314D01*
X006389Y013297D01*
X006390Y013280D01*
X006391Y013280D02*
X006391Y012965D01*
X006292Y012867D02*
X006275Y012868D01*
X006258Y012873D01*
X006243Y012880D01*
X006229Y012890D01*
X006217Y012902D01*
X006207Y012916D01*
X006200Y012931D01*
X006195Y012948D01*
X006194Y012965D01*
X006292Y012867D02*
X006309Y012868D01*
X006326Y012873D01*
X006341Y012880D01*
X006355Y012890D01*
X006367Y012902D01*
X006377Y012916D01*
X006384Y012931D01*
X006389Y012948D01*
X006390Y012965D01*
D11*
X003375Y003473D03*
D12*
X003375Y002473D03*
X004375Y002473D03*
X004375Y003473D03*
X005375Y003473D03*
X005375Y002473D03*
X006375Y002473D03*
X006375Y003473D03*
D13*
X005375Y001230D02*
X005375Y000590D01*
X004375Y000590D02*
X004375Y001230D01*
X003375Y001230D02*
X003375Y000590D01*
X002375Y000590D02*
X002375Y001230D01*
D14*
X007375Y000910D03*
D15*
X005830Y012178D03*
X003920Y012178D03*
D16*
X003458Y012904D02*
X003458Y013341D01*
X006292Y013341D02*
X006292Y012904D01*
M02*
