G75*
%MOIN*%
%OFA0B0*%
%FSLAX24Y24*%
%IPPOS*%
%LPD*%
%AMOC8*
5,1,8,0,0,1.08239X$1,22.5*
%
%ADD10C,0.0000*%
%ADD11C,0.0030*%
%ADD12C,0.0020*%
%ADD13R,0.0320X0.0080*%
%ADD14R,0.0240X0.0080*%
%ADD15R,0.0560X0.0080*%
%ADD16R,0.0640X0.0080*%
%ADD17R,0.0800X0.0080*%
%ADD18R,0.0720X0.0080*%
%ADD19R,0.0480X0.0080*%
%ADD20R,0.0400X0.0080*%
%ADD21R,0.0160X0.0080*%
%ADD22R,0.0080X0.0080*%
%ADD23R,0.0880X0.0080*%
%ADD24R,0.1040X0.0080*%
%ADD25R,0.1120X0.0080*%
%ADD26R,0.1360X0.0080*%
%ADD27R,0.1600X0.0080*%
%ADD28R,0.1840X0.0080*%
%ADD29R,0.4240X0.0080*%
%ADD30R,0.3840X0.0080*%
%ADD31R,0.3680X0.0080*%
%ADD32R,0.3600X0.0080*%
%ADD33R,0.3360X0.0080*%
%ADD34R,0.3120X0.0080*%
%ADD35R,0.2880X0.0080*%
%ADD36R,0.2080X0.0080*%
%ADD37R,0.2000X0.0080*%
%ADD38R,0.1200X0.0080*%
D10*
X000180Y002796D02*
X000180Y030360D01*
X006300Y030360D01*
X006400Y030360D02*
X012521Y030360D01*
X012621Y030360D02*
X018741Y030360D01*
X018841Y030360D02*
X024961Y030360D01*
X025062Y030360D02*
X031182Y030360D01*
X031282Y030360D02*
X037402Y030360D01*
X037402Y002796D01*
X031282Y002796D01*
X031182Y002796D02*
X025062Y002796D01*
X024961Y002796D02*
X018841Y002796D01*
X018741Y002796D02*
X012621Y002796D01*
X012521Y002796D02*
X006400Y002796D01*
X006300Y002796D02*
X000180Y002796D01*
X001664Y015601D02*
X001664Y015916D01*
X001665Y015916D02*
X001666Y015933D01*
X001671Y015950D01*
X001678Y015965D01*
X001688Y015979D01*
X001700Y015991D01*
X001714Y016001D01*
X001729Y016008D01*
X001746Y016013D01*
X001763Y016014D01*
X001780Y016013D01*
X001797Y016008D01*
X001812Y016001D01*
X001826Y015991D01*
X001838Y015979D01*
X001848Y015965D01*
X001855Y015950D01*
X001860Y015933D01*
X001861Y015916D01*
X001861Y015601D01*
X001763Y015503D02*
X001746Y015504D01*
X001729Y015509D01*
X001714Y015516D01*
X001700Y015526D01*
X001688Y015538D01*
X001678Y015552D01*
X001671Y015567D01*
X001666Y015584D01*
X001665Y015601D01*
X001763Y015503D02*
X001780Y015504D01*
X001797Y015509D01*
X001812Y015516D01*
X001826Y015526D01*
X001838Y015538D01*
X001848Y015552D01*
X001855Y015567D01*
X001860Y015584D01*
X001861Y015601D01*
X004499Y015601D02*
X004499Y015916D01*
X004500Y015933D01*
X004505Y015950D01*
X004512Y015965D01*
X004522Y015979D01*
X004534Y015991D01*
X004548Y016001D01*
X004563Y016008D01*
X004580Y016013D01*
X004597Y016014D01*
X004614Y016013D01*
X004631Y016008D01*
X004646Y016001D01*
X004660Y015991D01*
X004672Y015979D01*
X004682Y015965D01*
X004689Y015950D01*
X004694Y015933D01*
X004695Y015916D01*
X004696Y015916D02*
X004696Y015601D01*
X004597Y015503D02*
X004580Y015504D01*
X004563Y015509D01*
X004548Y015516D01*
X004534Y015526D01*
X004522Y015538D01*
X004512Y015552D01*
X004505Y015567D01*
X004500Y015584D01*
X004499Y015601D01*
X004597Y015503D02*
X004614Y015504D01*
X004631Y015509D01*
X004646Y015516D01*
X004660Y015526D01*
X004672Y015538D01*
X004682Y015552D01*
X004689Y015567D01*
X004694Y015584D01*
X004695Y015601D01*
X007885Y015601D02*
X007885Y015916D01*
X007886Y015933D01*
X007891Y015950D01*
X007898Y015965D01*
X007908Y015979D01*
X007920Y015991D01*
X007934Y016001D01*
X007949Y016008D01*
X007966Y016013D01*
X007983Y016014D01*
X008000Y016013D01*
X008017Y016008D01*
X008032Y016001D01*
X008046Y015991D01*
X008058Y015979D01*
X008068Y015965D01*
X008075Y015950D01*
X008080Y015933D01*
X008081Y015916D01*
X008082Y015916D02*
X008082Y015601D01*
X007983Y015503D02*
X007966Y015504D01*
X007949Y015509D01*
X007934Y015516D01*
X007920Y015526D01*
X007908Y015538D01*
X007898Y015552D01*
X007891Y015567D01*
X007886Y015584D01*
X007885Y015601D01*
X007983Y015503D02*
X008000Y015504D01*
X008017Y015509D01*
X008032Y015516D01*
X008046Y015526D01*
X008058Y015538D01*
X008068Y015552D01*
X008075Y015567D01*
X008080Y015584D01*
X008081Y015601D01*
X010719Y015601D02*
X010719Y015916D01*
X010720Y015916D02*
X010721Y015933D01*
X010726Y015950D01*
X010733Y015965D01*
X010743Y015979D01*
X010755Y015991D01*
X010769Y016001D01*
X010784Y016008D01*
X010801Y016013D01*
X010818Y016014D01*
X010835Y016013D01*
X010852Y016008D01*
X010867Y016001D01*
X010881Y015991D01*
X010893Y015979D01*
X010903Y015965D01*
X010910Y015950D01*
X010915Y015933D01*
X010916Y015916D01*
X010916Y015601D01*
X010818Y015503D02*
X010801Y015504D01*
X010784Y015509D01*
X010769Y015516D01*
X010755Y015526D01*
X010743Y015538D01*
X010733Y015552D01*
X010726Y015567D01*
X010721Y015584D01*
X010720Y015601D01*
X010818Y015503D02*
X010835Y015504D01*
X010852Y015509D01*
X010867Y015516D01*
X010881Y015526D01*
X010893Y015538D01*
X010903Y015552D01*
X010910Y015567D01*
X010915Y015584D01*
X010916Y015601D01*
X014105Y015601D02*
X014105Y015916D01*
X014106Y015916D02*
X014107Y015933D01*
X014112Y015950D01*
X014119Y015965D01*
X014129Y015979D01*
X014141Y015991D01*
X014155Y016001D01*
X014170Y016008D01*
X014187Y016013D01*
X014204Y016014D01*
X014221Y016013D01*
X014238Y016008D01*
X014253Y016001D01*
X014267Y015991D01*
X014279Y015979D01*
X014289Y015965D01*
X014296Y015950D01*
X014301Y015933D01*
X014302Y015916D01*
X014302Y015601D01*
X014204Y015503D02*
X014187Y015504D01*
X014170Y015509D01*
X014155Y015516D01*
X014141Y015526D01*
X014129Y015538D01*
X014119Y015552D01*
X014112Y015567D01*
X014107Y015584D01*
X014106Y015601D01*
X014204Y015503D02*
X014221Y015504D01*
X014238Y015509D01*
X014253Y015516D01*
X014267Y015526D01*
X014279Y015538D01*
X014289Y015552D01*
X014296Y015567D01*
X014301Y015584D01*
X014302Y015601D01*
X016940Y015601D02*
X016940Y015916D01*
X016941Y015933D01*
X016946Y015950D01*
X016953Y015965D01*
X016963Y015979D01*
X016975Y015991D01*
X016989Y016001D01*
X017004Y016008D01*
X017021Y016013D01*
X017038Y016014D01*
X017055Y016013D01*
X017072Y016008D01*
X017087Y016001D01*
X017101Y015991D01*
X017113Y015979D01*
X017123Y015965D01*
X017130Y015950D01*
X017135Y015933D01*
X017136Y015916D01*
X017137Y015916D02*
X017137Y015601D01*
X017038Y015503D02*
X017021Y015504D01*
X017004Y015509D01*
X016989Y015516D01*
X016975Y015526D01*
X016963Y015538D01*
X016953Y015552D01*
X016946Y015567D01*
X016941Y015584D01*
X016940Y015601D01*
X017038Y015503D02*
X017055Y015504D01*
X017072Y015509D01*
X017087Y015516D01*
X017101Y015526D01*
X017113Y015538D01*
X017123Y015552D01*
X017130Y015567D01*
X017135Y015584D01*
X017136Y015601D01*
X020326Y015601D02*
X020326Y015916D01*
X020327Y015933D01*
X020332Y015950D01*
X020339Y015965D01*
X020349Y015979D01*
X020361Y015991D01*
X020375Y016001D01*
X020390Y016008D01*
X020407Y016013D01*
X020424Y016014D01*
X020441Y016013D01*
X020458Y016008D01*
X020473Y016001D01*
X020487Y015991D01*
X020499Y015979D01*
X020509Y015965D01*
X020516Y015950D01*
X020521Y015933D01*
X020522Y015916D01*
X020523Y015916D02*
X020523Y015601D01*
X020424Y015503D02*
X020407Y015504D01*
X020390Y015509D01*
X020375Y015516D01*
X020361Y015526D01*
X020349Y015538D01*
X020339Y015552D01*
X020332Y015567D01*
X020327Y015584D01*
X020326Y015601D01*
X020424Y015503D02*
X020441Y015504D01*
X020458Y015509D01*
X020473Y015516D01*
X020487Y015526D01*
X020499Y015538D01*
X020509Y015552D01*
X020516Y015567D01*
X020521Y015584D01*
X020522Y015601D01*
X023160Y015601D02*
X023160Y015916D01*
X023161Y015916D02*
X023162Y015933D01*
X023167Y015950D01*
X023174Y015965D01*
X023184Y015979D01*
X023196Y015991D01*
X023210Y016001D01*
X023225Y016008D01*
X023242Y016013D01*
X023259Y016014D01*
X023276Y016013D01*
X023293Y016008D01*
X023308Y016001D01*
X023322Y015991D01*
X023334Y015979D01*
X023344Y015965D01*
X023351Y015950D01*
X023356Y015933D01*
X023357Y015916D01*
X023357Y015601D01*
X023259Y015503D02*
X023242Y015504D01*
X023225Y015509D01*
X023210Y015516D01*
X023196Y015526D01*
X023184Y015538D01*
X023174Y015552D01*
X023167Y015567D01*
X023162Y015584D01*
X023161Y015601D01*
X023259Y015503D02*
X023276Y015504D01*
X023293Y015509D01*
X023308Y015516D01*
X023322Y015526D01*
X023334Y015538D01*
X023344Y015552D01*
X023351Y015567D01*
X023356Y015584D01*
X023357Y015601D01*
X026546Y015601D02*
X026546Y015916D01*
X026547Y015916D02*
X026548Y015933D01*
X026553Y015950D01*
X026560Y015965D01*
X026570Y015979D01*
X026582Y015991D01*
X026596Y016001D01*
X026611Y016008D01*
X026628Y016013D01*
X026645Y016014D01*
X026662Y016013D01*
X026679Y016008D01*
X026694Y016001D01*
X026708Y015991D01*
X026720Y015979D01*
X026730Y015965D01*
X026737Y015950D01*
X026742Y015933D01*
X026743Y015916D01*
X026743Y015601D01*
X026645Y015503D02*
X026628Y015504D01*
X026611Y015509D01*
X026596Y015516D01*
X026582Y015526D01*
X026570Y015538D01*
X026560Y015552D01*
X026553Y015567D01*
X026548Y015584D01*
X026547Y015601D01*
X026645Y015503D02*
X026662Y015504D01*
X026679Y015509D01*
X026694Y015516D01*
X026708Y015526D01*
X026720Y015538D01*
X026730Y015552D01*
X026737Y015567D01*
X026742Y015584D01*
X026743Y015601D01*
X029381Y015601D02*
X029381Y015916D01*
X029382Y015933D01*
X029387Y015950D01*
X029394Y015965D01*
X029404Y015979D01*
X029416Y015991D01*
X029430Y016001D01*
X029445Y016008D01*
X029462Y016013D01*
X029479Y016014D01*
X029496Y016013D01*
X029513Y016008D01*
X029528Y016001D01*
X029542Y015991D01*
X029554Y015979D01*
X029564Y015965D01*
X029571Y015950D01*
X029576Y015933D01*
X029577Y015916D01*
X029578Y015916D02*
X029578Y015601D01*
X029479Y015503D02*
X029462Y015504D01*
X029445Y015509D01*
X029430Y015516D01*
X029416Y015526D01*
X029404Y015538D01*
X029394Y015552D01*
X029387Y015567D01*
X029382Y015584D01*
X029381Y015601D01*
X029479Y015503D02*
X029496Y015504D01*
X029513Y015509D01*
X029528Y015516D01*
X029542Y015526D01*
X029554Y015538D01*
X029564Y015552D01*
X029571Y015567D01*
X029576Y015584D01*
X029577Y015601D01*
X032767Y015601D02*
X032767Y015916D01*
X032768Y015933D01*
X032773Y015950D01*
X032780Y015965D01*
X032790Y015979D01*
X032802Y015991D01*
X032816Y016001D01*
X032831Y016008D01*
X032848Y016013D01*
X032865Y016014D01*
X032882Y016013D01*
X032899Y016008D01*
X032914Y016001D01*
X032928Y015991D01*
X032940Y015979D01*
X032950Y015965D01*
X032957Y015950D01*
X032962Y015933D01*
X032963Y015916D01*
X032963Y015601D01*
X032865Y015503D02*
X032848Y015504D01*
X032831Y015509D01*
X032816Y015516D01*
X032802Y015526D01*
X032790Y015538D01*
X032780Y015552D01*
X032773Y015567D01*
X032768Y015584D01*
X032767Y015601D01*
X032865Y015503D02*
X032882Y015504D01*
X032899Y015509D01*
X032914Y015516D01*
X032928Y015526D01*
X032940Y015538D01*
X032950Y015552D01*
X032957Y015567D01*
X032962Y015584D01*
X032963Y015601D01*
X035601Y015601D02*
X035601Y015916D01*
X035602Y015916D02*
X035603Y015933D01*
X035608Y015950D01*
X035615Y015965D01*
X035625Y015979D01*
X035637Y015991D01*
X035651Y016001D01*
X035666Y016008D01*
X035683Y016013D01*
X035700Y016014D01*
X035717Y016013D01*
X035734Y016008D01*
X035749Y016001D01*
X035763Y015991D01*
X035775Y015979D01*
X035785Y015965D01*
X035792Y015950D01*
X035797Y015933D01*
X035798Y015916D01*
X035798Y015601D01*
X035700Y015503D02*
X035683Y015504D01*
X035666Y015509D01*
X035651Y015516D01*
X035637Y015526D01*
X035625Y015538D01*
X035615Y015552D01*
X035608Y015567D01*
X035603Y015584D01*
X035602Y015601D01*
X035700Y015503D02*
X035717Y015504D01*
X035734Y015509D01*
X035749Y015516D01*
X035763Y015526D01*
X035775Y015538D01*
X035785Y015552D01*
X035792Y015567D01*
X035797Y015584D01*
X035798Y015601D01*
X035798Y029420D02*
X035798Y029735D01*
X035700Y029833D02*
X035683Y029832D01*
X035666Y029827D01*
X035651Y029820D01*
X035637Y029810D01*
X035625Y029798D01*
X035615Y029784D01*
X035608Y029769D01*
X035603Y029752D01*
X035602Y029735D01*
X035601Y029735D02*
X035601Y029420D01*
X035602Y029420D02*
X035603Y029403D01*
X035608Y029386D01*
X035615Y029371D01*
X035625Y029357D01*
X035637Y029345D01*
X035651Y029335D01*
X035666Y029328D01*
X035683Y029323D01*
X035700Y029322D01*
X035717Y029323D01*
X035734Y029328D01*
X035749Y029335D01*
X035763Y029345D01*
X035775Y029357D01*
X035785Y029371D01*
X035792Y029386D01*
X035797Y029403D01*
X035798Y029420D01*
X035798Y029735D02*
X035797Y029752D01*
X035792Y029769D01*
X035785Y029784D01*
X035775Y029798D01*
X035763Y029810D01*
X035749Y029820D01*
X035734Y029827D01*
X035717Y029832D01*
X035700Y029833D01*
X032963Y029735D02*
X032963Y029420D01*
X032865Y029322D02*
X032848Y029323D01*
X032831Y029328D01*
X032816Y029335D01*
X032802Y029345D01*
X032790Y029357D01*
X032780Y029371D01*
X032773Y029386D01*
X032768Y029403D01*
X032767Y029420D01*
X032767Y029735D01*
X032768Y029752D01*
X032773Y029769D01*
X032780Y029784D01*
X032790Y029798D01*
X032802Y029810D01*
X032816Y029820D01*
X032831Y029827D01*
X032848Y029832D01*
X032865Y029833D01*
X032882Y029832D01*
X032899Y029827D01*
X032914Y029820D01*
X032928Y029810D01*
X032940Y029798D01*
X032950Y029784D01*
X032957Y029769D01*
X032962Y029752D01*
X032963Y029735D01*
X032963Y029420D02*
X032962Y029403D01*
X032957Y029386D01*
X032950Y029371D01*
X032940Y029357D01*
X032928Y029345D01*
X032914Y029335D01*
X032899Y029328D01*
X032882Y029323D01*
X032865Y029322D01*
X029578Y029420D02*
X029578Y029735D01*
X029479Y029833D02*
X029462Y029832D01*
X029445Y029827D01*
X029430Y029820D01*
X029416Y029810D01*
X029404Y029798D01*
X029394Y029784D01*
X029387Y029769D01*
X029382Y029752D01*
X029381Y029735D01*
X029381Y029420D01*
X029382Y029403D01*
X029387Y029386D01*
X029394Y029371D01*
X029404Y029357D01*
X029416Y029345D01*
X029430Y029335D01*
X029445Y029328D01*
X029462Y029323D01*
X029479Y029322D01*
X029496Y029323D01*
X029513Y029328D01*
X029528Y029335D01*
X029542Y029345D01*
X029554Y029357D01*
X029564Y029371D01*
X029571Y029386D01*
X029576Y029403D01*
X029577Y029420D01*
X029577Y029735D02*
X029576Y029752D01*
X029571Y029769D01*
X029564Y029784D01*
X029554Y029798D01*
X029542Y029810D01*
X029528Y029820D01*
X029513Y029827D01*
X029496Y029832D01*
X029479Y029833D01*
X026743Y029735D02*
X026743Y029420D01*
X026645Y029322D02*
X026628Y029323D01*
X026611Y029328D01*
X026596Y029335D01*
X026582Y029345D01*
X026570Y029357D01*
X026560Y029371D01*
X026553Y029386D01*
X026548Y029403D01*
X026547Y029420D01*
X026546Y029420D02*
X026546Y029735D01*
X026547Y029735D02*
X026548Y029752D01*
X026553Y029769D01*
X026560Y029784D01*
X026570Y029798D01*
X026582Y029810D01*
X026596Y029820D01*
X026611Y029827D01*
X026628Y029832D01*
X026645Y029833D01*
X026662Y029832D01*
X026679Y029827D01*
X026694Y029820D01*
X026708Y029810D01*
X026720Y029798D01*
X026730Y029784D01*
X026737Y029769D01*
X026742Y029752D01*
X026743Y029735D01*
X026743Y029420D02*
X026742Y029403D01*
X026737Y029386D01*
X026730Y029371D01*
X026720Y029357D01*
X026708Y029345D01*
X026694Y029335D01*
X026679Y029328D01*
X026662Y029323D01*
X026645Y029322D01*
X023357Y029420D02*
X023357Y029735D01*
X023259Y029833D02*
X023242Y029832D01*
X023225Y029827D01*
X023210Y029820D01*
X023196Y029810D01*
X023184Y029798D01*
X023174Y029784D01*
X023167Y029769D01*
X023162Y029752D01*
X023161Y029735D01*
X023160Y029735D02*
X023160Y029420D01*
X023161Y029420D02*
X023162Y029403D01*
X023167Y029386D01*
X023174Y029371D01*
X023184Y029357D01*
X023196Y029345D01*
X023210Y029335D01*
X023225Y029328D01*
X023242Y029323D01*
X023259Y029322D01*
X023276Y029323D01*
X023293Y029328D01*
X023308Y029335D01*
X023322Y029345D01*
X023334Y029357D01*
X023344Y029371D01*
X023351Y029386D01*
X023356Y029403D01*
X023357Y029420D01*
X023357Y029735D02*
X023356Y029752D01*
X023351Y029769D01*
X023344Y029784D01*
X023334Y029798D01*
X023322Y029810D01*
X023308Y029820D01*
X023293Y029827D01*
X023276Y029832D01*
X023259Y029833D01*
X020523Y029735D02*
X020523Y029420D01*
X020424Y029322D02*
X020407Y029323D01*
X020390Y029328D01*
X020375Y029335D01*
X020361Y029345D01*
X020349Y029357D01*
X020339Y029371D01*
X020332Y029386D01*
X020327Y029403D01*
X020326Y029420D01*
X020326Y029735D01*
X020327Y029752D01*
X020332Y029769D01*
X020339Y029784D01*
X020349Y029798D01*
X020361Y029810D01*
X020375Y029820D01*
X020390Y029827D01*
X020407Y029832D01*
X020424Y029833D01*
X020441Y029832D01*
X020458Y029827D01*
X020473Y029820D01*
X020487Y029810D01*
X020499Y029798D01*
X020509Y029784D01*
X020516Y029769D01*
X020521Y029752D01*
X020522Y029735D01*
X020522Y029420D02*
X020521Y029403D01*
X020516Y029386D01*
X020509Y029371D01*
X020499Y029357D01*
X020487Y029345D01*
X020473Y029335D01*
X020458Y029328D01*
X020441Y029323D01*
X020424Y029322D01*
X017137Y029420D02*
X017137Y029735D01*
X017038Y029833D02*
X017021Y029832D01*
X017004Y029827D01*
X016989Y029820D01*
X016975Y029810D01*
X016963Y029798D01*
X016953Y029784D01*
X016946Y029769D01*
X016941Y029752D01*
X016940Y029735D01*
X016940Y029420D01*
X016941Y029403D01*
X016946Y029386D01*
X016953Y029371D01*
X016963Y029357D01*
X016975Y029345D01*
X016989Y029335D01*
X017004Y029328D01*
X017021Y029323D01*
X017038Y029322D01*
X017055Y029323D01*
X017072Y029328D01*
X017087Y029335D01*
X017101Y029345D01*
X017113Y029357D01*
X017123Y029371D01*
X017130Y029386D01*
X017135Y029403D01*
X017136Y029420D01*
X017136Y029735D02*
X017135Y029752D01*
X017130Y029769D01*
X017123Y029784D01*
X017113Y029798D01*
X017101Y029810D01*
X017087Y029820D01*
X017072Y029827D01*
X017055Y029832D01*
X017038Y029833D01*
X014302Y029735D02*
X014302Y029420D01*
X014204Y029322D02*
X014187Y029323D01*
X014170Y029328D01*
X014155Y029335D01*
X014141Y029345D01*
X014129Y029357D01*
X014119Y029371D01*
X014112Y029386D01*
X014107Y029403D01*
X014106Y029420D01*
X014105Y029420D02*
X014105Y029735D01*
X014106Y029735D02*
X014107Y029752D01*
X014112Y029769D01*
X014119Y029784D01*
X014129Y029798D01*
X014141Y029810D01*
X014155Y029820D01*
X014170Y029827D01*
X014187Y029832D01*
X014204Y029833D01*
X014221Y029832D01*
X014238Y029827D01*
X014253Y029820D01*
X014267Y029810D01*
X014279Y029798D01*
X014289Y029784D01*
X014296Y029769D01*
X014301Y029752D01*
X014302Y029735D01*
X014302Y029420D02*
X014301Y029403D01*
X014296Y029386D01*
X014289Y029371D01*
X014279Y029357D01*
X014267Y029345D01*
X014253Y029335D01*
X014238Y029328D01*
X014221Y029323D01*
X014204Y029322D01*
X010916Y029420D02*
X010916Y029735D01*
X010818Y029833D02*
X010801Y029832D01*
X010784Y029827D01*
X010769Y029820D01*
X010755Y029810D01*
X010743Y029798D01*
X010733Y029784D01*
X010726Y029769D01*
X010721Y029752D01*
X010720Y029735D01*
X010719Y029735D02*
X010719Y029420D01*
X010720Y029420D02*
X010721Y029403D01*
X010726Y029386D01*
X010733Y029371D01*
X010743Y029357D01*
X010755Y029345D01*
X010769Y029335D01*
X010784Y029328D01*
X010801Y029323D01*
X010818Y029322D01*
X010835Y029323D01*
X010852Y029328D01*
X010867Y029335D01*
X010881Y029345D01*
X010893Y029357D01*
X010903Y029371D01*
X010910Y029386D01*
X010915Y029403D01*
X010916Y029420D01*
X010916Y029735D02*
X010915Y029752D01*
X010910Y029769D01*
X010903Y029784D01*
X010893Y029798D01*
X010881Y029810D01*
X010867Y029820D01*
X010852Y029827D01*
X010835Y029832D01*
X010818Y029833D01*
X008082Y029735D02*
X008082Y029420D01*
X007983Y029322D02*
X007966Y029323D01*
X007949Y029328D01*
X007934Y029335D01*
X007920Y029345D01*
X007908Y029357D01*
X007898Y029371D01*
X007891Y029386D01*
X007886Y029403D01*
X007885Y029420D01*
X007885Y029735D01*
X007886Y029752D01*
X007891Y029769D01*
X007898Y029784D01*
X007908Y029798D01*
X007920Y029810D01*
X007934Y029820D01*
X007949Y029827D01*
X007966Y029832D01*
X007983Y029833D01*
X008000Y029832D01*
X008017Y029827D01*
X008032Y029820D01*
X008046Y029810D01*
X008058Y029798D01*
X008068Y029784D01*
X008075Y029769D01*
X008080Y029752D01*
X008081Y029735D01*
X008081Y029420D02*
X008080Y029403D01*
X008075Y029386D01*
X008068Y029371D01*
X008058Y029357D01*
X008046Y029345D01*
X008032Y029335D01*
X008017Y029328D01*
X008000Y029323D01*
X007983Y029322D01*
X004696Y029420D02*
X004696Y029735D01*
X004597Y029833D02*
X004580Y029832D01*
X004563Y029827D01*
X004548Y029820D01*
X004534Y029810D01*
X004522Y029798D01*
X004512Y029784D01*
X004505Y029769D01*
X004500Y029752D01*
X004499Y029735D01*
X004499Y029420D01*
X004500Y029403D01*
X004505Y029386D01*
X004512Y029371D01*
X004522Y029357D01*
X004534Y029345D01*
X004548Y029335D01*
X004563Y029328D01*
X004580Y029323D01*
X004597Y029322D01*
X004614Y029323D01*
X004631Y029328D01*
X004646Y029335D01*
X004660Y029345D01*
X004672Y029357D01*
X004682Y029371D01*
X004689Y029386D01*
X004694Y029403D01*
X004695Y029420D01*
X004695Y029735D02*
X004694Y029752D01*
X004689Y029769D01*
X004682Y029784D01*
X004672Y029798D01*
X004660Y029810D01*
X004646Y029820D01*
X004631Y029827D01*
X004614Y029832D01*
X004597Y029833D01*
X001861Y029735D02*
X001861Y029420D01*
X001763Y029322D02*
X001746Y029323D01*
X001729Y029328D01*
X001714Y029335D01*
X001700Y029345D01*
X001688Y029357D01*
X001678Y029371D01*
X001671Y029386D01*
X001666Y029403D01*
X001665Y029420D01*
X001664Y029420D02*
X001664Y029735D01*
X001665Y029735D02*
X001666Y029752D01*
X001671Y029769D01*
X001678Y029784D01*
X001688Y029798D01*
X001700Y029810D01*
X001714Y029820D01*
X001729Y029827D01*
X001746Y029832D01*
X001763Y029833D01*
X001780Y029832D01*
X001797Y029827D01*
X001812Y029820D01*
X001826Y029810D01*
X001838Y029798D01*
X001848Y029784D01*
X001855Y029769D01*
X001860Y029752D01*
X001861Y029735D01*
X001861Y029420D02*
X001860Y029403D01*
X001855Y029386D01*
X001848Y029371D01*
X001838Y029357D01*
X001826Y029345D01*
X001812Y029335D01*
X001797Y029328D01*
X001780Y029323D01*
X001763Y029322D01*
D11*
X002272Y023059D02*
X002272Y022688D01*
X002394Y022688D02*
X002394Y022874D01*
X002455Y022935D01*
X002641Y022935D01*
X002641Y022688D01*
X002763Y022688D02*
X002886Y022688D01*
X002824Y022688D02*
X002824Y022935D01*
X002886Y022935D01*
X003008Y022874D02*
X003008Y022750D01*
X003069Y022688D01*
X003254Y022688D01*
X003376Y022688D02*
X003561Y022688D01*
X003623Y022750D01*
X003623Y022874D01*
X003561Y022935D01*
X003376Y022935D01*
X003254Y022935D02*
X003069Y022935D01*
X003008Y022874D01*
X003254Y022935D02*
X003254Y022565D01*
X003745Y022688D02*
X003868Y022688D01*
X003807Y022688D02*
X003807Y022935D01*
X003868Y022935D01*
X003990Y022935D02*
X004052Y022935D01*
X004175Y022812D01*
X004175Y022935D02*
X004175Y022688D01*
X004297Y022688D02*
X004359Y022750D01*
X004359Y022997D01*
X004421Y022935D02*
X004297Y022935D01*
X004542Y022935D02*
X004727Y022935D01*
X004789Y022874D01*
X004789Y022750D01*
X004727Y022688D01*
X004542Y022688D01*
X004911Y022812D02*
X004911Y022874D01*
X004972Y022935D01*
X005096Y022935D01*
X005157Y022874D01*
X005157Y022750D01*
X005096Y022688D01*
X004972Y022688D01*
X004911Y022812D02*
X005157Y022812D01*
X005280Y022688D02*
X005403Y022688D01*
X005341Y022688D02*
X005341Y023059D01*
X005403Y023059D01*
X005586Y022935D02*
X005524Y022874D01*
X005524Y022812D01*
X005771Y022812D01*
X005771Y022750D02*
X005771Y022874D01*
X005710Y022935D01*
X005586Y022935D01*
X005586Y022688D02*
X005710Y022688D01*
X005771Y022750D01*
X003807Y023059D02*
X003807Y023121D01*
X002824Y023121D02*
X002824Y023059D01*
X002272Y022812D02*
X002087Y022935D01*
X002272Y022812D02*
X002087Y022688D01*
X008308Y022688D02*
X008493Y022812D01*
X008308Y022935D01*
X008493Y023059D02*
X008493Y022688D01*
X008614Y022688D02*
X008614Y022874D01*
X008676Y022935D01*
X008861Y022935D01*
X008861Y022688D01*
X008983Y022688D02*
X009107Y022688D01*
X009045Y022688D02*
X009045Y022935D01*
X009107Y022935D01*
X009228Y022874D02*
X009228Y022750D01*
X009290Y022688D01*
X009475Y022688D01*
X009596Y022688D02*
X009782Y022688D01*
X009843Y022750D01*
X009843Y022874D01*
X009782Y022935D01*
X009596Y022935D01*
X009475Y022935D02*
X009475Y022565D01*
X009475Y022935D02*
X009290Y022935D01*
X009228Y022874D01*
X009045Y023059D02*
X009045Y023121D01*
X010027Y023121D02*
X010027Y023059D01*
X010027Y022935D02*
X010027Y022688D01*
X010089Y022688D02*
X009965Y022688D01*
X010027Y022935D02*
X010089Y022935D01*
X010211Y022935D02*
X010272Y022935D01*
X010396Y022812D01*
X010396Y022935D02*
X010396Y022688D01*
X010518Y022688D02*
X010580Y022750D01*
X010580Y022997D01*
X010641Y022935D02*
X010518Y022935D01*
X010763Y022935D02*
X010948Y022935D01*
X011010Y022874D01*
X011010Y022750D01*
X010948Y022688D01*
X010763Y022688D01*
X011131Y022812D02*
X011131Y022874D01*
X011193Y022935D01*
X011316Y022935D01*
X011378Y022874D01*
X011378Y022750D01*
X011316Y022688D01*
X011193Y022688D01*
X011131Y022812D02*
X011378Y022812D01*
X011500Y022688D02*
X011623Y022688D01*
X011562Y022688D02*
X011562Y023059D01*
X011623Y023059D01*
X011807Y022935D02*
X011745Y022874D01*
X011745Y022812D01*
X011992Y022812D01*
X011992Y022750D02*
X011992Y022874D01*
X011930Y022935D01*
X011807Y022935D01*
X011807Y022688D02*
X011930Y022688D01*
X011992Y022750D01*
X014528Y022688D02*
X014713Y022812D01*
X014528Y022935D01*
X014713Y023059D02*
X014713Y022688D01*
X014835Y022688D02*
X014835Y022874D01*
X014896Y022935D01*
X015082Y022935D01*
X015082Y022688D01*
X015204Y022688D02*
X015327Y022688D01*
X015265Y022688D02*
X015265Y022935D01*
X015327Y022935D01*
X015449Y022874D02*
X015449Y022750D01*
X015510Y022688D01*
X015695Y022688D01*
X015817Y022688D02*
X016002Y022688D01*
X016064Y022750D01*
X016064Y022874D01*
X016002Y022935D01*
X015817Y022935D01*
X015695Y022935D02*
X015510Y022935D01*
X015449Y022874D01*
X015695Y022935D02*
X015695Y022565D01*
X016186Y022688D02*
X016309Y022688D01*
X016248Y022688D02*
X016248Y022935D01*
X016309Y022935D01*
X016431Y022935D02*
X016493Y022935D01*
X016616Y022812D01*
X016616Y022935D02*
X016616Y022688D01*
X016738Y022688D02*
X016800Y022750D01*
X016800Y022997D01*
X016862Y022935D02*
X016738Y022935D01*
X016983Y022935D02*
X017168Y022935D01*
X017230Y022874D01*
X017230Y022750D01*
X017168Y022688D01*
X016983Y022688D01*
X017352Y022812D02*
X017352Y022874D01*
X017413Y022935D01*
X017537Y022935D01*
X017598Y022874D01*
X017598Y022750D01*
X017537Y022688D01*
X017413Y022688D01*
X017352Y022812D02*
X017598Y022812D01*
X017720Y022688D02*
X017844Y022688D01*
X017782Y022688D02*
X017782Y023059D01*
X017844Y023059D01*
X018027Y022935D02*
X017965Y022874D01*
X017965Y022812D01*
X018212Y022812D01*
X018212Y022750D02*
X018212Y022874D01*
X018151Y022935D01*
X018027Y022935D01*
X018027Y022688D02*
X018151Y022688D01*
X018212Y022750D01*
X016248Y023059D02*
X016248Y023121D01*
X015265Y023121D02*
X015265Y023059D01*
X020749Y022935D02*
X020934Y022812D01*
X020749Y022688D01*
X020934Y022688D02*
X020934Y023059D01*
X021117Y022935D02*
X021055Y022874D01*
X021055Y022688D01*
X021302Y022688D02*
X021302Y022935D01*
X021117Y022935D01*
X021486Y022935D02*
X021486Y022688D01*
X021548Y022688D02*
X021424Y022688D01*
X021669Y022750D02*
X021731Y022688D01*
X021916Y022688D01*
X022037Y022688D02*
X022222Y022688D01*
X022284Y022750D01*
X022284Y022874D01*
X022222Y022935D01*
X022037Y022935D01*
X021916Y022935D02*
X021731Y022935D01*
X021669Y022874D01*
X021669Y022750D01*
X021548Y022935D02*
X021486Y022935D01*
X021486Y023059D02*
X021486Y023121D01*
X021916Y022935D02*
X021916Y022565D01*
X022406Y022688D02*
X022530Y022688D01*
X022468Y022688D02*
X022468Y022935D01*
X022530Y022935D01*
X022652Y022935D02*
X022713Y022935D01*
X022837Y022812D01*
X022837Y022935D02*
X022837Y022688D01*
X022959Y022688D02*
X023021Y022750D01*
X023021Y022997D01*
X023082Y022935D02*
X022959Y022935D01*
X023204Y022935D02*
X023389Y022935D01*
X023451Y022874D01*
X023451Y022750D01*
X023389Y022688D01*
X023204Y022688D01*
X023572Y022812D02*
X023572Y022874D01*
X023634Y022935D01*
X023757Y022935D01*
X023819Y022874D01*
X023819Y022750D01*
X023757Y022688D01*
X023634Y022688D01*
X023572Y022812D02*
X023819Y022812D01*
X023941Y022688D02*
X024064Y022688D01*
X024003Y022688D02*
X024003Y023059D01*
X024064Y023059D01*
X024248Y022935D02*
X024186Y022874D01*
X024186Y022812D01*
X024433Y022812D01*
X024433Y022750D02*
X024433Y022874D01*
X024371Y022935D01*
X024248Y022935D01*
X024248Y022688D02*
X024371Y022688D01*
X024433Y022750D01*
X022468Y023059D02*
X022468Y023121D01*
X026969Y022935D02*
X027154Y022812D01*
X026969Y022688D01*
X027154Y022688D02*
X027154Y023059D01*
X027337Y022935D02*
X027276Y022874D01*
X027276Y022688D01*
X027523Y022688D02*
X027523Y022935D01*
X027337Y022935D01*
X027706Y022935D02*
X027706Y022688D01*
X027645Y022688D02*
X027768Y022688D01*
X027889Y022750D02*
X027951Y022688D01*
X028136Y022688D01*
X028258Y022688D02*
X028443Y022688D01*
X028505Y022750D01*
X028505Y022874D01*
X028443Y022935D01*
X028258Y022935D01*
X028136Y022935D02*
X027951Y022935D01*
X027889Y022874D01*
X027889Y022750D01*
X027768Y022935D02*
X027706Y022935D01*
X027706Y023059D02*
X027706Y023121D01*
X028136Y022935D02*
X028136Y022565D01*
X028627Y022688D02*
X028750Y022688D01*
X028689Y022688D02*
X028689Y022935D01*
X028750Y022935D01*
X028872Y022935D02*
X028934Y022935D01*
X029057Y022812D01*
X029057Y022935D02*
X029057Y022688D01*
X029179Y022688D02*
X029241Y022750D01*
X029241Y022997D01*
X029303Y022935D02*
X029179Y022935D01*
X029424Y022935D02*
X029609Y022935D01*
X029671Y022874D01*
X029671Y022750D01*
X029609Y022688D01*
X029424Y022688D01*
X029792Y022812D02*
X029792Y022874D01*
X029854Y022935D01*
X029978Y022935D01*
X030039Y022874D01*
X030039Y022750D01*
X029978Y022688D01*
X029854Y022688D01*
X029792Y022812D02*
X030039Y022812D01*
X030161Y022688D02*
X030285Y022688D01*
X030223Y022688D02*
X030223Y023059D01*
X030285Y023059D01*
X030468Y022935D02*
X030406Y022874D01*
X030406Y022812D01*
X030653Y022812D01*
X030653Y022750D02*
X030653Y022874D01*
X030591Y022935D01*
X030468Y022935D01*
X030468Y022688D02*
X030591Y022688D01*
X030653Y022750D01*
X028689Y023059D02*
X028689Y023121D01*
X033190Y022935D02*
X033375Y022812D01*
X033190Y022688D01*
X033375Y022688D02*
X033375Y023059D01*
X033558Y022935D02*
X033496Y022874D01*
X033496Y022688D01*
X033743Y022688D02*
X033743Y022935D01*
X033558Y022935D01*
X033927Y022935D02*
X033927Y022688D01*
X033989Y022688D02*
X033865Y022688D01*
X034110Y022750D02*
X034110Y022874D01*
X034172Y022935D01*
X034357Y022935D01*
X034357Y022565D01*
X034357Y022688D02*
X034172Y022688D01*
X034110Y022750D01*
X033989Y022935D02*
X033927Y022935D01*
X033927Y023059D02*
X033927Y023121D01*
X034478Y022935D02*
X034663Y022935D01*
X034725Y022874D01*
X034725Y022750D01*
X034663Y022688D01*
X034478Y022688D01*
X034847Y022688D02*
X034971Y022688D01*
X034909Y022688D02*
X034909Y022935D01*
X034971Y022935D01*
X035092Y022935D02*
X035154Y022935D01*
X035278Y022812D01*
X035278Y022935D02*
X035278Y022688D01*
X035400Y022688D02*
X035461Y022750D01*
X035461Y022997D01*
X035400Y022935D02*
X035523Y022935D01*
X035645Y022935D02*
X035830Y022935D01*
X035891Y022874D01*
X035891Y022750D01*
X035830Y022688D01*
X035645Y022688D01*
X036013Y022812D02*
X036260Y022812D01*
X036260Y022750D02*
X036260Y022874D01*
X036198Y022935D01*
X036075Y022935D01*
X036013Y022874D01*
X036013Y022812D01*
X036075Y022688D02*
X036198Y022688D01*
X036260Y022750D01*
X036382Y022688D02*
X036505Y022688D01*
X036444Y022688D02*
X036444Y023059D01*
X036505Y023059D01*
X036689Y022935D02*
X036627Y022874D01*
X036627Y022812D01*
X036874Y022812D01*
X036874Y022750D02*
X036874Y022874D01*
X036812Y022935D01*
X036689Y022935D01*
X036689Y022688D02*
X036812Y022688D01*
X036874Y022750D01*
X034909Y023059D02*
X034909Y023121D01*
X034909Y009302D02*
X034909Y009240D01*
X034909Y009116D02*
X034909Y008870D01*
X034971Y008870D02*
X034847Y008870D01*
X034725Y008931D02*
X034663Y008870D01*
X034478Y008870D01*
X034357Y008870D02*
X034172Y008870D01*
X034110Y008931D01*
X034110Y009055D01*
X034172Y009116D01*
X034357Y009116D01*
X034357Y008746D01*
X033989Y008870D02*
X033865Y008870D01*
X033927Y008870D02*
X033927Y009116D01*
X033989Y009116D01*
X033927Y009240D02*
X033927Y009302D01*
X033743Y009116D02*
X033558Y009116D01*
X033496Y009055D01*
X033496Y008870D01*
X033375Y008870D02*
X033375Y009240D01*
X033190Y009116D02*
X033375Y008993D01*
X033190Y008870D01*
X033743Y008870D02*
X033743Y009116D01*
X034478Y009116D02*
X034663Y009116D01*
X034725Y009055D01*
X034725Y008931D01*
X034909Y009116D02*
X034971Y009116D01*
X035092Y009116D02*
X035154Y009116D01*
X035278Y008993D01*
X035278Y008870D02*
X035278Y009116D01*
X035400Y009116D02*
X035523Y009116D01*
X035461Y009178D02*
X035461Y008931D01*
X035400Y008870D01*
X035645Y008870D02*
X035830Y008870D01*
X035891Y008931D01*
X035891Y009055D01*
X035830Y009116D01*
X035645Y009116D01*
X036013Y009055D02*
X036013Y008993D01*
X036260Y008993D01*
X036260Y008931D02*
X036260Y009055D01*
X036198Y009116D01*
X036075Y009116D01*
X036013Y009055D01*
X036075Y008870D02*
X036198Y008870D01*
X036260Y008931D01*
X036382Y008870D02*
X036505Y008870D01*
X036444Y008870D02*
X036444Y009240D01*
X036505Y009240D01*
X036689Y009116D02*
X036627Y009055D01*
X036627Y008993D01*
X036874Y008993D01*
X036874Y008931D02*
X036874Y009055D01*
X036812Y009116D01*
X036689Y009116D01*
X036689Y008870D02*
X036812Y008870D01*
X036874Y008931D01*
X030653Y008931D02*
X030591Y008870D01*
X030468Y008870D01*
X030406Y008993D02*
X030653Y008993D01*
X030653Y008931D02*
X030653Y009055D01*
X030591Y009116D01*
X030468Y009116D01*
X030406Y009055D01*
X030406Y008993D01*
X030285Y008870D02*
X030161Y008870D01*
X030223Y008870D02*
X030223Y009240D01*
X030285Y009240D01*
X030039Y009055D02*
X029978Y009116D01*
X029854Y009116D01*
X029792Y009055D01*
X029792Y008993D01*
X030039Y008993D01*
X030039Y008931D02*
X030039Y009055D01*
X030039Y008931D02*
X029978Y008870D01*
X029854Y008870D01*
X029671Y008931D02*
X029609Y008870D01*
X029424Y008870D01*
X029241Y008931D02*
X029179Y008870D01*
X029241Y008931D02*
X029241Y009178D01*
X029303Y009116D02*
X029179Y009116D01*
X029057Y009116D02*
X029057Y008870D01*
X029057Y008993D02*
X028934Y009116D01*
X028872Y009116D01*
X028750Y009116D02*
X028689Y009116D01*
X028689Y008870D01*
X028750Y008870D02*
X028627Y008870D01*
X028505Y008931D02*
X028443Y008870D01*
X028258Y008870D01*
X028136Y008870D02*
X027951Y008870D01*
X027889Y008931D01*
X027889Y009055D01*
X027951Y009116D01*
X028136Y009116D01*
X028136Y008746D01*
X027768Y008870D02*
X027645Y008870D01*
X027706Y008870D02*
X027706Y009116D01*
X027768Y009116D01*
X027706Y009240D02*
X027706Y009302D01*
X027523Y009116D02*
X027337Y009116D01*
X027276Y009055D01*
X027276Y008870D01*
X027154Y008870D02*
X027154Y009240D01*
X026969Y009116D02*
X027154Y008993D01*
X026969Y008870D01*
X027523Y008870D02*
X027523Y009116D01*
X028258Y009116D02*
X028443Y009116D01*
X028505Y009055D01*
X028505Y008931D01*
X028689Y009240D02*
X028689Y009302D01*
X029424Y009116D02*
X029609Y009116D01*
X029671Y009055D01*
X029671Y008931D01*
X024433Y008931D02*
X024371Y008870D01*
X024248Y008870D01*
X024186Y008993D02*
X024433Y008993D01*
X024433Y008931D02*
X024433Y009055D01*
X024371Y009116D01*
X024248Y009116D01*
X024186Y009055D01*
X024186Y008993D01*
X024064Y008870D02*
X023941Y008870D01*
X024003Y008870D02*
X024003Y009240D01*
X024064Y009240D01*
X023819Y009055D02*
X023757Y009116D01*
X023634Y009116D01*
X023572Y009055D01*
X023572Y008993D01*
X023819Y008993D01*
X023819Y008931D02*
X023819Y009055D01*
X023819Y008931D02*
X023757Y008870D01*
X023634Y008870D01*
X023451Y008931D02*
X023389Y008870D01*
X023204Y008870D01*
X023021Y008931D02*
X022959Y008870D01*
X023021Y008931D02*
X023021Y009178D01*
X023082Y009116D02*
X022959Y009116D01*
X022837Y009116D02*
X022837Y008870D01*
X022837Y008993D02*
X022713Y009116D01*
X022652Y009116D01*
X022530Y009116D02*
X022468Y009116D01*
X022468Y008870D01*
X022530Y008870D02*
X022406Y008870D01*
X022284Y008931D02*
X022222Y008870D01*
X022037Y008870D01*
X021916Y008870D02*
X021731Y008870D01*
X021669Y008931D01*
X021669Y009055D01*
X021731Y009116D01*
X021916Y009116D01*
X021916Y008746D01*
X021548Y008870D02*
X021424Y008870D01*
X021486Y008870D02*
X021486Y009116D01*
X021548Y009116D01*
X021486Y009240D02*
X021486Y009302D01*
X021302Y009116D02*
X021117Y009116D01*
X021055Y009055D01*
X021055Y008870D01*
X020934Y008870D02*
X020934Y009240D01*
X020749Y009116D02*
X020934Y008993D01*
X020749Y008870D01*
X021302Y008870D02*
X021302Y009116D01*
X022037Y009116D02*
X022222Y009116D01*
X022284Y009055D01*
X022284Y008931D01*
X022468Y009240D02*
X022468Y009302D01*
X023204Y009116D02*
X023389Y009116D01*
X023451Y009055D01*
X023451Y008931D01*
X018212Y008931D02*
X018212Y009055D01*
X018151Y009116D01*
X018027Y009116D01*
X017965Y009055D01*
X017965Y008993D01*
X018212Y008993D01*
X018212Y008931D02*
X018151Y008870D01*
X018027Y008870D01*
X017844Y008870D02*
X017720Y008870D01*
X017782Y008870D02*
X017782Y009240D01*
X017844Y009240D01*
X017598Y009055D02*
X017537Y009116D01*
X017413Y009116D01*
X017352Y009055D01*
X017352Y008993D01*
X017598Y008993D01*
X017598Y008931D02*
X017598Y009055D01*
X017598Y008931D02*
X017537Y008870D01*
X017413Y008870D01*
X017230Y008931D02*
X017168Y008870D01*
X016983Y008870D01*
X016800Y008931D02*
X016738Y008870D01*
X016800Y008931D02*
X016800Y009178D01*
X016862Y009116D02*
X016738Y009116D01*
X016616Y009116D02*
X016616Y008870D01*
X016616Y008993D02*
X016493Y009116D01*
X016431Y009116D01*
X016309Y009116D02*
X016248Y009116D01*
X016248Y008870D01*
X016309Y008870D02*
X016186Y008870D01*
X016064Y008931D02*
X016002Y008870D01*
X015817Y008870D01*
X015695Y008870D02*
X015510Y008870D01*
X015449Y008931D01*
X015449Y009055D01*
X015510Y009116D01*
X015695Y009116D01*
X015695Y008746D01*
X015327Y008870D02*
X015204Y008870D01*
X015265Y008870D02*
X015265Y009116D01*
X015327Y009116D01*
X015265Y009240D02*
X015265Y009302D01*
X015082Y009116D02*
X014896Y009116D01*
X014835Y009055D01*
X014835Y008870D01*
X014713Y008870D02*
X014713Y009240D01*
X014528Y009116D02*
X014713Y008993D01*
X014528Y008870D01*
X015082Y008870D02*
X015082Y009116D01*
X015817Y009116D02*
X016002Y009116D01*
X016064Y009055D01*
X016064Y008931D01*
X016248Y009240D02*
X016248Y009302D01*
X016983Y009116D02*
X017168Y009116D01*
X017230Y009055D01*
X017230Y008931D01*
X011992Y008931D02*
X011930Y008870D01*
X011807Y008870D01*
X011745Y008993D02*
X011992Y008993D01*
X011992Y008931D02*
X011992Y009055D01*
X011930Y009116D01*
X011807Y009116D01*
X011745Y009055D01*
X011745Y008993D01*
X011623Y008870D02*
X011500Y008870D01*
X011562Y008870D02*
X011562Y009240D01*
X011623Y009240D01*
X011378Y009055D02*
X011316Y009116D01*
X011193Y009116D01*
X011131Y009055D01*
X011131Y008993D01*
X011378Y008993D01*
X011378Y008931D02*
X011378Y009055D01*
X011378Y008931D02*
X011316Y008870D01*
X011193Y008870D01*
X011010Y008931D02*
X010948Y008870D01*
X010763Y008870D01*
X010580Y008931D02*
X010518Y008870D01*
X010580Y008931D02*
X010580Y009178D01*
X010641Y009116D02*
X010518Y009116D01*
X010396Y009116D02*
X010396Y008870D01*
X010396Y008993D02*
X010272Y009116D01*
X010211Y009116D01*
X010089Y009116D02*
X010027Y009116D01*
X010027Y008870D01*
X010089Y008870D02*
X009965Y008870D01*
X009843Y008931D02*
X009782Y008870D01*
X009596Y008870D01*
X009475Y008870D02*
X009290Y008870D01*
X009228Y008931D01*
X009228Y009055D01*
X009290Y009116D01*
X009475Y009116D01*
X009475Y008746D01*
X009107Y008870D02*
X008983Y008870D01*
X009045Y008870D02*
X009045Y009116D01*
X009107Y009116D01*
X009045Y009240D02*
X009045Y009302D01*
X008861Y009116D02*
X008676Y009116D01*
X008614Y009055D01*
X008614Y008870D01*
X008493Y008870D02*
X008493Y009240D01*
X008308Y009116D02*
X008493Y008993D01*
X008308Y008870D01*
X008861Y008870D02*
X008861Y009116D01*
X009596Y009116D02*
X009782Y009116D01*
X009843Y009055D01*
X009843Y008931D01*
X010027Y009240D02*
X010027Y009302D01*
X010763Y009116D02*
X010948Y009116D01*
X011010Y009055D01*
X011010Y008931D01*
X005771Y008931D02*
X005710Y008870D01*
X005586Y008870D01*
X005524Y008993D02*
X005771Y008993D01*
X005771Y008931D02*
X005771Y009055D01*
X005710Y009116D01*
X005586Y009116D01*
X005524Y009055D01*
X005524Y008993D01*
X005403Y008870D02*
X005280Y008870D01*
X005341Y008870D02*
X005341Y009240D01*
X005403Y009240D01*
X005157Y009055D02*
X005096Y009116D01*
X004972Y009116D01*
X004911Y009055D01*
X004911Y008993D01*
X005157Y008993D01*
X005157Y008931D02*
X005157Y009055D01*
X005157Y008931D02*
X005096Y008870D01*
X004972Y008870D01*
X004789Y008931D02*
X004727Y008870D01*
X004542Y008870D01*
X004359Y008931D02*
X004297Y008870D01*
X004359Y008931D02*
X004359Y009178D01*
X004421Y009116D02*
X004297Y009116D01*
X004175Y009116D02*
X004175Y008870D01*
X004175Y008993D02*
X004052Y009116D01*
X003990Y009116D01*
X003868Y009116D02*
X003807Y009116D01*
X003807Y008870D01*
X003868Y008870D02*
X003745Y008870D01*
X003623Y008931D02*
X003561Y008870D01*
X003376Y008870D01*
X003254Y008870D02*
X003069Y008870D01*
X003008Y008931D01*
X003008Y009055D01*
X003069Y009116D01*
X003254Y009116D01*
X003254Y008746D01*
X002886Y008870D02*
X002763Y008870D01*
X002824Y008870D02*
X002824Y009116D01*
X002886Y009116D01*
X002824Y009240D02*
X002824Y009302D01*
X002641Y009116D02*
X002455Y009116D01*
X002394Y009055D01*
X002394Y008870D01*
X002272Y008870D02*
X002272Y009240D01*
X002087Y009116D02*
X002272Y008993D01*
X002087Y008870D01*
X002641Y008870D02*
X002641Y009116D01*
X003376Y009116D02*
X003561Y009116D01*
X003623Y009055D01*
X003623Y008931D01*
X003807Y009240D02*
X003807Y009302D01*
X004542Y009116D02*
X004727Y009116D01*
X004789Y009055D01*
X004789Y008931D01*
D12*
X006910Y008992D02*
X006910Y008806D01*
X007191Y008806D01*
X007191Y008992D01*
X007144Y009082D02*
X007097Y009082D01*
X007051Y009128D01*
X007051Y009222D01*
X007004Y009269D01*
X006957Y009269D01*
X006910Y009222D01*
X006910Y009128D01*
X006957Y009082D01*
X007144Y009082D02*
X007191Y009128D01*
X007191Y009222D01*
X007144Y009269D01*
X007191Y009358D02*
X007191Y009498D01*
X007144Y009545D01*
X007051Y009545D01*
X007004Y009498D01*
X007004Y009358D01*
X006910Y009358D02*
X007191Y009358D01*
X007051Y009634D02*
X007097Y009681D01*
X007097Y009821D01*
X007097Y009910D02*
X006957Y009910D01*
X006910Y009957D01*
X006910Y010097D01*
X007097Y010097D01*
X007097Y010187D02*
X007097Y010233D01*
X006910Y010233D01*
X006910Y010187D02*
X006910Y010280D01*
X006910Y010371D02*
X007097Y010371D01*
X007097Y010511D01*
X007051Y010558D01*
X006910Y010558D01*
X006957Y010647D02*
X006910Y010694D01*
X006910Y010787D01*
X006957Y010834D01*
X007051Y010834D01*
X007097Y010787D01*
X007097Y010694D01*
X007051Y010647D01*
X006957Y010647D01*
X007051Y010923D02*
X007051Y011110D01*
X007144Y011200D02*
X006957Y011200D01*
X007144Y011386D01*
X006957Y011386D01*
X006910Y011340D01*
X006910Y011246D01*
X006957Y011200D01*
X007144Y011200D02*
X007191Y011246D01*
X007191Y011340D01*
X007144Y011386D01*
X007097Y011476D02*
X007191Y011569D01*
X006910Y011569D01*
X006910Y011476D02*
X006910Y011663D01*
X007191Y010233D02*
X007237Y010233D01*
X007191Y009821D02*
X006910Y009821D01*
X006910Y009681D01*
X006957Y009634D01*
X007051Y009634D01*
X007051Y008899D02*
X007051Y008806D01*
X000970Y008806D02*
X000690Y008806D01*
X000690Y008992D01*
X000737Y009082D02*
X000690Y009128D01*
X000690Y009222D01*
X000737Y009269D01*
X000783Y009269D01*
X000830Y009222D01*
X000830Y009128D01*
X000877Y009082D01*
X000924Y009082D01*
X000970Y009128D01*
X000970Y009222D01*
X000924Y009269D01*
X000970Y009358D02*
X000970Y009498D01*
X000924Y009545D01*
X000830Y009545D01*
X000783Y009498D01*
X000783Y009358D01*
X000690Y009358D02*
X000970Y009358D01*
X000830Y009634D02*
X000737Y009634D01*
X000690Y009681D01*
X000690Y009821D01*
X000970Y009821D01*
X000877Y009821D02*
X000877Y009681D01*
X000830Y009634D01*
X000877Y009910D02*
X000737Y009910D01*
X000690Y009957D01*
X000690Y010097D01*
X000877Y010097D01*
X000877Y010187D02*
X000877Y010233D01*
X000690Y010233D01*
X000690Y010187D02*
X000690Y010280D01*
X000690Y010371D02*
X000877Y010371D01*
X000877Y010511D01*
X000830Y010558D01*
X000690Y010558D01*
X000737Y010647D02*
X000690Y010694D01*
X000690Y010787D01*
X000737Y010834D01*
X000830Y010834D01*
X000877Y010787D01*
X000877Y010694D01*
X000830Y010647D01*
X000737Y010647D01*
X000830Y010923D02*
X000830Y011110D01*
X000737Y011200D02*
X000924Y011386D01*
X000737Y011386D01*
X000690Y011340D01*
X000690Y011246D01*
X000737Y011200D01*
X000924Y011200D01*
X000970Y011246D01*
X000970Y011340D01*
X000924Y011386D01*
X000877Y011476D02*
X000970Y011569D01*
X000690Y011569D01*
X000690Y011476D02*
X000690Y011663D01*
X000970Y010233D02*
X001017Y010233D01*
X000970Y008992D02*
X000970Y008806D01*
X000830Y008806D02*
X000830Y008899D01*
X013131Y008806D02*
X013131Y008992D01*
X013178Y009082D02*
X013131Y009128D01*
X013131Y009222D01*
X013178Y009269D01*
X013224Y009269D01*
X013271Y009222D01*
X013271Y009128D01*
X013318Y009082D01*
X013364Y009082D01*
X013411Y009128D01*
X013411Y009222D01*
X013364Y009269D01*
X013411Y009358D02*
X013411Y009498D01*
X013364Y009545D01*
X013271Y009545D01*
X013224Y009498D01*
X013224Y009358D01*
X013131Y009358D02*
X013411Y009358D01*
X013271Y009634D02*
X013318Y009681D01*
X013318Y009821D01*
X013318Y009910D02*
X013178Y009910D01*
X013131Y009957D01*
X013131Y010097D01*
X013318Y010097D01*
X013318Y010187D02*
X013318Y010233D01*
X013131Y010233D01*
X013131Y010187D02*
X013131Y010280D01*
X013131Y010371D02*
X013318Y010371D01*
X013318Y010511D01*
X013271Y010558D01*
X013131Y010558D01*
X013178Y010647D02*
X013131Y010694D01*
X013131Y010787D01*
X013178Y010834D01*
X013271Y010834D01*
X013318Y010787D01*
X013318Y010694D01*
X013271Y010647D01*
X013178Y010647D01*
X013271Y010923D02*
X013271Y011110D01*
X013178Y011200D02*
X013364Y011386D01*
X013178Y011386D01*
X013131Y011340D01*
X013131Y011246D01*
X013178Y011200D01*
X013364Y011200D01*
X013411Y011246D01*
X013411Y011340D01*
X013364Y011386D01*
X013318Y011476D02*
X013411Y011569D01*
X013131Y011569D01*
X013131Y011476D02*
X013131Y011663D01*
X013411Y010233D02*
X013458Y010233D01*
X013411Y009821D02*
X013131Y009821D01*
X013131Y009681D01*
X013178Y009634D01*
X013271Y009634D01*
X013411Y008992D02*
X013411Y008806D01*
X013131Y008806D01*
X013271Y008806D02*
X013271Y008899D01*
X019351Y008806D02*
X019351Y008992D01*
X019398Y009082D02*
X019351Y009128D01*
X019351Y009222D01*
X019398Y009269D01*
X019445Y009269D01*
X019492Y009222D01*
X019492Y009128D01*
X019538Y009082D01*
X019585Y009082D01*
X019632Y009128D01*
X019632Y009222D01*
X019585Y009269D01*
X019632Y009358D02*
X019632Y009498D01*
X019585Y009545D01*
X019492Y009545D01*
X019445Y009498D01*
X019445Y009358D01*
X019351Y009358D02*
X019632Y009358D01*
X019492Y009634D02*
X019398Y009634D01*
X019351Y009681D01*
X019351Y009821D01*
X019632Y009821D01*
X019538Y009821D02*
X019538Y009681D01*
X019492Y009634D01*
X019538Y009910D02*
X019398Y009910D01*
X019351Y009957D01*
X019351Y010097D01*
X019538Y010097D01*
X019538Y010187D02*
X019538Y010233D01*
X019351Y010233D01*
X019351Y010187D02*
X019351Y010280D01*
X019351Y010371D02*
X019538Y010371D01*
X019538Y010511D01*
X019492Y010558D01*
X019351Y010558D01*
X019398Y010647D02*
X019351Y010694D01*
X019351Y010787D01*
X019398Y010834D01*
X019492Y010834D01*
X019538Y010787D01*
X019538Y010694D01*
X019492Y010647D01*
X019398Y010647D01*
X019492Y010923D02*
X019492Y011110D01*
X019585Y011200D02*
X019632Y011246D01*
X019632Y011340D01*
X019585Y011386D01*
X019398Y011200D01*
X019351Y011246D01*
X019351Y011340D01*
X019398Y011386D01*
X019585Y011386D01*
X019538Y011476D02*
X019632Y011569D01*
X019351Y011569D01*
X019351Y011476D02*
X019351Y011663D01*
X019398Y011200D02*
X019585Y011200D01*
X019632Y010233D02*
X019678Y010233D01*
X019632Y008992D02*
X019632Y008806D01*
X019351Y008806D01*
X019492Y008806D02*
X019492Y008899D01*
X025572Y008806D02*
X025572Y008992D01*
X025619Y009082D02*
X025572Y009128D01*
X025572Y009222D01*
X025619Y009269D01*
X025665Y009269D01*
X025712Y009222D01*
X025712Y009128D01*
X025759Y009082D01*
X025805Y009082D01*
X025852Y009128D01*
X025852Y009222D01*
X025805Y009269D01*
X025852Y009358D02*
X025852Y009498D01*
X025805Y009545D01*
X025712Y009545D01*
X025665Y009498D01*
X025665Y009358D01*
X025572Y009358D02*
X025852Y009358D01*
X025712Y009634D02*
X025759Y009681D01*
X025759Y009821D01*
X025759Y009910D02*
X025619Y009910D01*
X025572Y009957D01*
X025572Y010097D01*
X025759Y010097D01*
X025759Y010187D02*
X025759Y010233D01*
X025572Y010233D01*
X025572Y010187D02*
X025572Y010280D01*
X025572Y010371D02*
X025759Y010371D01*
X025759Y010511D01*
X025712Y010558D01*
X025572Y010558D01*
X025619Y010647D02*
X025572Y010694D01*
X025572Y010787D01*
X025619Y010834D01*
X025712Y010834D01*
X025759Y010787D01*
X025759Y010694D01*
X025712Y010647D01*
X025619Y010647D01*
X025712Y010923D02*
X025712Y011110D01*
X025619Y011200D02*
X025805Y011386D01*
X025619Y011386D01*
X025572Y011340D01*
X025572Y011246D01*
X025619Y011200D01*
X025805Y011200D01*
X025852Y011246D01*
X025852Y011340D01*
X025805Y011386D01*
X025759Y011476D02*
X025852Y011569D01*
X025572Y011569D01*
X025572Y011476D02*
X025572Y011663D01*
X025852Y010233D02*
X025899Y010233D01*
X025852Y009821D02*
X025572Y009821D01*
X025572Y009681D01*
X025619Y009634D01*
X025712Y009634D01*
X025852Y008992D02*
X025852Y008806D01*
X025572Y008806D01*
X025712Y008806D02*
X025712Y008899D01*
X031792Y008806D02*
X031792Y008992D01*
X031839Y009082D02*
X031792Y009128D01*
X031792Y009222D01*
X031839Y009269D01*
X031886Y009269D01*
X031932Y009222D01*
X031932Y009128D01*
X031979Y009082D01*
X032026Y009082D01*
X032073Y009128D01*
X032073Y009222D01*
X032026Y009269D01*
X032073Y009358D02*
X031792Y009358D01*
X031886Y009358D02*
X031886Y009498D01*
X031932Y009545D01*
X032026Y009545D01*
X032073Y009498D01*
X032073Y009358D01*
X031932Y009634D02*
X031979Y009681D01*
X031979Y009821D01*
X031979Y009910D02*
X031839Y009910D01*
X031792Y009957D01*
X031792Y010097D01*
X031979Y010097D01*
X031979Y010187D02*
X031979Y010233D01*
X031792Y010233D01*
X031792Y010187D02*
X031792Y010280D01*
X031792Y010371D02*
X031979Y010371D01*
X031979Y010511D01*
X031932Y010558D01*
X031792Y010558D01*
X031839Y010647D02*
X031792Y010694D01*
X031792Y010787D01*
X031839Y010834D01*
X031932Y010834D01*
X031979Y010787D01*
X031979Y010694D01*
X031932Y010647D01*
X031839Y010647D01*
X031932Y010923D02*
X031932Y011110D01*
X031839Y011200D02*
X032026Y011386D01*
X031839Y011386D01*
X031792Y011340D01*
X031792Y011246D01*
X031839Y011200D01*
X032026Y011200D01*
X032073Y011246D01*
X032073Y011340D01*
X032026Y011386D01*
X031979Y011476D02*
X032073Y011569D01*
X031792Y011569D01*
X031792Y011476D02*
X031792Y011663D01*
X032073Y010233D02*
X032119Y010233D01*
X032073Y009821D02*
X031792Y009821D01*
X031792Y009681D01*
X031839Y009634D01*
X031932Y009634D01*
X032073Y008992D02*
X032073Y008806D01*
X031792Y008806D01*
X031932Y008806D02*
X031932Y008899D01*
X031932Y022624D02*
X031932Y022718D01*
X031792Y022624D02*
X031792Y022811D01*
X031839Y022901D02*
X031792Y022947D01*
X031792Y023041D01*
X031839Y023087D01*
X031886Y023087D01*
X031932Y023041D01*
X031932Y022947D01*
X031979Y022901D01*
X032026Y022901D01*
X032073Y022947D01*
X032073Y023041D01*
X032026Y023087D01*
X032073Y023177D02*
X031792Y023177D01*
X031886Y023177D02*
X031886Y023317D01*
X031932Y023364D01*
X032026Y023364D01*
X032073Y023317D01*
X032073Y023177D01*
X031932Y023453D02*
X031979Y023500D01*
X031979Y023640D01*
X031979Y023729D02*
X031839Y023729D01*
X031792Y023776D01*
X031792Y023916D01*
X031979Y023916D01*
X031979Y024006D02*
X031979Y024052D01*
X031792Y024052D01*
X031792Y024006D02*
X031792Y024099D01*
X031792Y024190D02*
X031979Y024190D01*
X031979Y024330D01*
X031932Y024377D01*
X031792Y024377D01*
X031839Y024466D02*
X031792Y024513D01*
X031792Y024606D01*
X031839Y024653D01*
X031932Y024653D01*
X031979Y024606D01*
X031979Y024513D01*
X031932Y024466D01*
X031839Y024466D01*
X031932Y024742D02*
X031932Y024929D01*
X031839Y025018D02*
X032026Y025205D01*
X031839Y025205D01*
X031792Y025159D01*
X031792Y025065D01*
X031839Y025018D01*
X032026Y025018D01*
X032073Y025065D01*
X032073Y025159D01*
X032026Y025205D01*
X031979Y025295D02*
X032073Y025388D01*
X031792Y025388D01*
X031792Y025295D02*
X031792Y025482D01*
X032073Y024052D02*
X032119Y024052D01*
X032073Y023640D02*
X031792Y023640D01*
X031792Y023500D01*
X031839Y023453D01*
X031932Y023453D01*
X032073Y022811D02*
X032073Y022624D01*
X031792Y022624D01*
X025852Y022624D02*
X025572Y022624D01*
X025572Y022811D01*
X025619Y022901D02*
X025572Y022947D01*
X025572Y023041D01*
X025619Y023087D01*
X025665Y023087D01*
X025712Y023041D01*
X025712Y022947D01*
X025759Y022901D01*
X025805Y022901D01*
X025852Y022947D01*
X025852Y023041D01*
X025805Y023087D01*
X025852Y023177D02*
X025572Y023177D01*
X025665Y023177D02*
X025665Y023317D01*
X025712Y023364D01*
X025805Y023364D01*
X025852Y023317D01*
X025852Y023177D01*
X025712Y023453D02*
X025759Y023500D01*
X025759Y023640D01*
X025759Y023729D02*
X025619Y023729D01*
X025572Y023776D01*
X025572Y023916D01*
X025759Y023916D01*
X025759Y024006D02*
X025759Y024052D01*
X025572Y024052D01*
X025572Y024006D02*
X025572Y024099D01*
X025572Y024190D02*
X025759Y024190D01*
X025759Y024330D01*
X025712Y024377D01*
X025572Y024377D01*
X025619Y024466D02*
X025572Y024513D01*
X025572Y024606D01*
X025619Y024653D01*
X025712Y024653D01*
X025759Y024606D01*
X025759Y024513D01*
X025712Y024466D01*
X025619Y024466D01*
X025852Y024052D02*
X025899Y024052D01*
X025852Y023640D02*
X025572Y023640D01*
X025572Y023500D01*
X025619Y023453D01*
X025712Y023453D01*
X025852Y022811D02*
X025852Y022624D01*
X025712Y022624D02*
X025712Y022718D01*
X019632Y022811D02*
X019632Y022624D01*
X019351Y022624D01*
X019351Y022811D01*
X019398Y022901D02*
X019351Y022947D01*
X019351Y023041D01*
X019398Y023087D01*
X019445Y023087D01*
X019492Y023041D01*
X019492Y022947D01*
X019538Y022901D01*
X019585Y022901D01*
X019632Y022947D01*
X019632Y023041D01*
X019585Y023087D01*
X019632Y023177D02*
X019351Y023177D01*
X019445Y023177D02*
X019445Y023317D01*
X019492Y023364D01*
X019585Y023364D01*
X019632Y023317D01*
X019632Y023177D01*
X019492Y023453D02*
X019538Y023500D01*
X019538Y023640D01*
X019538Y023729D02*
X019398Y023729D01*
X019351Y023776D01*
X019351Y023916D01*
X019538Y023916D01*
X019538Y024006D02*
X019538Y024052D01*
X019351Y024052D01*
X019351Y024006D02*
X019351Y024099D01*
X019351Y024190D02*
X019538Y024190D01*
X019538Y024330D01*
X019492Y024377D01*
X019351Y024377D01*
X019398Y024466D02*
X019351Y024513D01*
X019351Y024606D01*
X019398Y024653D01*
X019492Y024653D01*
X019538Y024606D01*
X019538Y024513D01*
X019492Y024466D01*
X019398Y024466D01*
X019492Y024742D02*
X019492Y024929D01*
X019585Y025018D02*
X019632Y025065D01*
X019632Y025159D01*
X019585Y025205D01*
X019398Y025018D01*
X019351Y025065D01*
X019351Y025159D01*
X019398Y025205D01*
X019585Y025205D01*
X019538Y025295D02*
X019632Y025388D01*
X019351Y025388D01*
X019351Y025295D02*
X019351Y025482D01*
X019398Y025018D02*
X019585Y025018D01*
X019632Y024052D02*
X019678Y024052D01*
X019632Y023640D02*
X019351Y023640D01*
X019351Y023500D01*
X019398Y023453D01*
X019492Y023453D01*
X019492Y022718D02*
X019492Y022624D01*
X013411Y022624D02*
X013131Y022624D01*
X013131Y022811D01*
X013178Y022901D02*
X013131Y022947D01*
X013131Y023041D01*
X013178Y023087D01*
X013224Y023087D01*
X013271Y023041D01*
X013271Y022947D01*
X013318Y022901D01*
X013364Y022901D01*
X013411Y022947D01*
X013411Y023041D01*
X013364Y023087D01*
X013411Y023177D02*
X013411Y023317D01*
X013364Y023364D01*
X013271Y023364D01*
X013224Y023317D01*
X013224Y023177D01*
X013131Y023177D02*
X013411Y023177D01*
X013271Y023453D02*
X013318Y023500D01*
X013318Y023640D01*
X013318Y023729D02*
X013178Y023729D01*
X013131Y023776D01*
X013131Y023916D01*
X013318Y023916D01*
X013318Y024006D02*
X013318Y024052D01*
X013131Y024052D01*
X013131Y024006D02*
X013131Y024099D01*
X013131Y024190D02*
X013318Y024190D01*
X013318Y024330D01*
X013271Y024377D01*
X013131Y024377D01*
X013178Y024466D02*
X013131Y024513D01*
X013131Y024606D01*
X013178Y024653D01*
X013271Y024653D01*
X013318Y024606D01*
X013318Y024513D01*
X013271Y024466D01*
X013178Y024466D01*
X013271Y024742D02*
X013271Y024929D01*
X013178Y025018D02*
X013364Y025205D01*
X013178Y025205D01*
X013131Y025159D01*
X013131Y025065D01*
X013178Y025018D01*
X013364Y025018D01*
X013411Y025065D01*
X013411Y025159D01*
X013364Y025205D01*
X013318Y025295D02*
X013411Y025388D01*
X013131Y025388D01*
X013131Y025295D02*
X013131Y025482D01*
X013411Y024052D02*
X013458Y024052D01*
X013411Y023640D02*
X013131Y023640D01*
X013131Y023500D01*
X013178Y023453D01*
X013271Y023453D01*
X013411Y022811D02*
X013411Y022624D01*
X013271Y022624D02*
X013271Y022718D01*
X007191Y022811D02*
X007191Y022624D01*
X006910Y022624D01*
X006910Y022811D01*
X006957Y022901D02*
X006910Y022947D01*
X006910Y023041D01*
X006957Y023087D01*
X007004Y023087D01*
X007051Y023041D01*
X007051Y022947D01*
X007097Y022901D01*
X007144Y022901D01*
X007191Y022947D01*
X007191Y023041D01*
X007144Y023087D01*
X007191Y023177D02*
X006910Y023177D01*
X007004Y023177D02*
X007004Y023317D01*
X007051Y023364D01*
X007144Y023364D01*
X007191Y023317D01*
X007191Y023177D01*
X007051Y023453D02*
X007097Y023500D01*
X007097Y023640D01*
X007097Y023729D02*
X006957Y023729D01*
X006910Y023776D01*
X006910Y023916D01*
X007097Y023916D01*
X007097Y024006D02*
X007097Y024052D01*
X006910Y024052D01*
X006910Y024006D02*
X006910Y024099D01*
X006910Y024190D02*
X007097Y024190D01*
X007097Y024330D01*
X007051Y024377D01*
X006910Y024377D01*
X006957Y024466D02*
X006910Y024513D01*
X006910Y024606D01*
X006957Y024653D01*
X007051Y024653D01*
X007097Y024606D01*
X007097Y024513D01*
X007051Y024466D01*
X006957Y024466D01*
X007051Y024742D02*
X007051Y024929D01*
X007144Y025018D02*
X006957Y025018D01*
X007144Y025205D01*
X006957Y025205D01*
X006910Y025159D01*
X006910Y025065D01*
X006957Y025018D01*
X007144Y025018D02*
X007191Y025065D01*
X007191Y025159D01*
X007144Y025205D01*
X007097Y025295D02*
X007191Y025388D01*
X006910Y025388D01*
X006910Y025295D02*
X006910Y025482D01*
X007191Y024052D02*
X007237Y024052D01*
X007191Y023640D02*
X006910Y023640D01*
X006910Y023500D01*
X006957Y023453D01*
X007051Y023453D01*
X007051Y022718D02*
X007051Y022624D01*
X000970Y022624D02*
X000690Y022624D01*
X000690Y022811D01*
X000737Y022901D02*
X000690Y022947D01*
X000690Y023041D01*
X000737Y023087D01*
X000783Y023087D01*
X000830Y023041D01*
X000830Y022947D01*
X000877Y022901D01*
X000924Y022901D01*
X000970Y022947D01*
X000970Y023041D01*
X000924Y023087D01*
X000970Y023177D02*
X000690Y023177D01*
X000783Y023177D02*
X000783Y023317D01*
X000830Y023364D01*
X000924Y023364D01*
X000970Y023317D01*
X000970Y023177D01*
X000830Y023453D02*
X000877Y023500D01*
X000877Y023640D01*
X000877Y023729D02*
X000737Y023729D01*
X000690Y023776D01*
X000690Y023916D01*
X000877Y023916D01*
X000877Y024006D02*
X000877Y024052D01*
X000690Y024052D01*
X000690Y024006D02*
X000690Y024099D01*
X000690Y024190D02*
X000877Y024190D01*
X000877Y024330D01*
X000830Y024377D01*
X000690Y024377D01*
X000737Y024466D02*
X000690Y024513D01*
X000690Y024606D01*
X000737Y024653D01*
X000830Y024653D01*
X000877Y024606D01*
X000877Y024513D01*
X000830Y024466D01*
X000737Y024466D01*
X000830Y024742D02*
X000830Y024929D01*
X000737Y025018D02*
X000924Y025018D01*
X000970Y025065D01*
X000970Y025159D01*
X000924Y025205D01*
X000737Y025018D01*
X000690Y025065D01*
X000690Y025159D01*
X000737Y025205D01*
X000924Y025205D01*
X000877Y025295D02*
X000970Y025388D01*
X000690Y025388D01*
X000690Y025295D02*
X000690Y025482D01*
X000970Y024052D02*
X001017Y024052D01*
X000970Y023640D02*
X000690Y023640D01*
X000690Y023500D01*
X000737Y023453D01*
X000830Y023453D01*
X000970Y022811D02*
X000970Y022624D01*
X000830Y022624D02*
X000830Y022718D01*
D13*
X004920Y023494D03*
X005160Y023334D03*
X003800Y026134D03*
X003800Y026214D03*
X003240Y026294D03*
X003240Y028054D03*
X009460Y028054D03*
X009460Y026294D03*
X010020Y026214D03*
X010020Y026134D03*
X011140Y023494D03*
X011380Y023334D03*
X015681Y026294D03*
X016241Y026214D03*
X016241Y026134D03*
X015681Y028054D03*
X017361Y023494D03*
X017601Y023334D03*
X021901Y026294D03*
X022461Y026214D03*
X022461Y026134D03*
X021901Y028054D03*
X023581Y023494D03*
X023821Y023334D03*
X028122Y026294D03*
X028682Y026214D03*
X028682Y026134D03*
X028122Y028054D03*
X029802Y023494D03*
X030042Y023334D03*
X034342Y026294D03*
X034902Y026214D03*
X034902Y026134D03*
X034342Y028054D03*
X036022Y023494D03*
X036262Y023334D03*
X034342Y014236D03*
X034342Y012476D03*
X034902Y012396D03*
X034902Y012316D03*
X036022Y009676D03*
X036262Y009516D03*
X030042Y009516D03*
X029802Y009676D03*
X028682Y012316D03*
X028682Y012396D03*
X028122Y012476D03*
X028122Y014236D03*
X023821Y009516D03*
X023581Y009676D03*
X022461Y012316D03*
X022461Y012396D03*
X021901Y012476D03*
X021901Y014236D03*
X016241Y012396D03*
X016241Y012316D03*
X015681Y012476D03*
X015681Y014236D03*
X017361Y009676D03*
X017601Y009516D03*
X011380Y009516D03*
X011140Y009676D03*
X010020Y012316D03*
X010020Y012396D03*
X009460Y012476D03*
X009460Y014236D03*
X003800Y012396D03*
X003800Y012316D03*
X003240Y012476D03*
X003240Y014236D03*
X004920Y009676D03*
X005160Y009516D03*
D14*
X004960Y009596D03*
X004240Y011516D03*
X004240Y011596D03*
X004160Y011916D03*
X004160Y011996D03*
X004160Y012076D03*
X003760Y012476D03*
X003200Y012796D03*
X002480Y012396D03*
X001760Y013196D03*
X001040Y013276D03*
X001760Y014156D03*
X007260Y013276D03*
X007980Y013196D03*
X008700Y012396D03*
X009420Y012796D03*
X009980Y012476D03*
X010380Y012076D03*
X010380Y011996D03*
X010380Y011916D03*
X010460Y011596D03*
X010460Y011516D03*
X011180Y009596D03*
X014921Y012396D03*
X015641Y012796D03*
X016201Y012476D03*
X016601Y012076D03*
X016601Y011996D03*
X016601Y011916D03*
X016681Y011596D03*
X016681Y011516D03*
X017401Y009596D03*
X021141Y012396D03*
X021861Y012796D03*
X022421Y012476D03*
X022821Y012076D03*
X022821Y011996D03*
X022821Y011916D03*
X022901Y011596D03*
X022901Y011516D03*
X023621Y009596D03*
X027362Y012396D03*
X028082Y012796D03*
X028642Y012476D03*
X029042Y012076D03*
X029042Y011996D03*
X029042Y011916D03*
X029122Y011596D03*
X029122Y011516D03*
X029842Y009596D03*
X033582Y012396D03*
X034302Y012796D03*
X034862Y012476D03*
X035262Y012076D03*
X035262Y011996D03*
X035262Y011916D03*
X035342Y011596D03*
X035342Y011516D03*
X036062Y009596D03*
X032862Y013196D03*
X032142Y013276D03*
X032862Y014156D03*
X026642Y014156D03*
X026642Y013196D03*
X025922Y013276D03*
X020421Y013196D03*
X019701Y013276D03*
X020421Y014156D03*
X014201Y014156D03*
X014201Y013196D03*
X013481Y013276D03*
X007980Y014156D03*
X004960Y023414D03*
X004240Y025334D03*
X004240Y025414D03*
X004160Y025734D03*
X004160Y025814D03*
X004160Y025894D03*
X003760Y026294D03*
X003200Y026614D03*
X002480Y026214D03*
X001760Y027014D03*
X001040Y027094D03*
X001760Y027974D03*
X007260Y027094D03*
X007980Y027014D03*
X007980Y027974D03*
X009420Y026614D03*
X009980Y026294D03*
X010380Y025894D03*
X010380Y025814D03*
X010380Y025734D03*
X010460Y025414D03*
X010460Y025334D03*
X008700Y026214D03*
X011180Y023414D03*
X014921Y026214D03*
X015641Y026614D03*
X016201Y026294D03*
X016601Y025894D03*
X016601Y025814D03*
X016601Y025734D03*
X016681Y025414D03*
X016681Y025334D03*
X017401Y023414D03*
X021141Y026214D03*
X021861Y026614D03*
X022421Y026294D03*
X022821Y025894D03*
X022821Y025814D03*
X022821Y025734D03*
X022901Y025414D03*
X022901Y025334D03*
X023621Y023414D03*
X027362Y026214D03*
X028082Y026614D03*
X028642Y026294D03*
X029042Y025894D03*
X029042Y025814D03*
X029042Y025734D03*
X029122Y025414D03*
X029122Y025334D03*
X029842Y023414D03*
X033582Y026214D03*
X034302Y026614D03*
X034862Y026294D03*
X035262Y025894D03*
X035262Y025814D03*
X035262Y025734D03*
X035342Y025414D03*
X035342Y025334D03*
X036062Y023414D03*
X032862Y027014D03*
X032142Y027094D03*
X032862Y027974D03*
X026642Y027974D03*
X026642Y027014D03*
X025922Y027094D03*
X020421Y027014D03*
X019701Y027094D03*
X020421Y027974D03*
X014201Y027974D03*
X014201Y027014D03*
X013481Y027094D03*
D15*
X014841Y026614D03*
X014841Y026294D03*
X017241Y024294D03*
X017321Y024374D03*
X017481Y024694D03*
X017481Y024774D03*
X017481Y024854D03*
X017561Y024934D03*
X017641Y025174D03*
X017241Y023574D03*
X021061Y026294D03*
X021061Y026614D03*
X023701Y024854D03*
X023701Y024774D03*
X023701Y024694D03*
X023781Y024934D03*
X023861Y025174D03*
X023541Y024374D03*
X023461Y024294D03*
X023461Y023574D03*
X027282Y026294D03*
X027282Y026614D03*
X030082Y025174D03*
X030002Y024934D03*
X029922Y024854D03*
X029922Y024774D03*
X029922Y024694D03*
X029762Y024374D03*
X029682Y024294D03*
X029682Y023574D03*
X033502Y026294D03*
X033502Y026614D03*
X036302Y025174D03*
X036222Y024934D03*
X036142Y024854D03*
X036142Y024774D03*
X036142Y024694D03*
X035982Y024374D03*
X035902Y024294D03*
X035902Y023574D03*
X033502Y012796D03*
X033502Y012476D03*
X035902Y010476D03*
X035982Y010556D03*
X036142Y010876D03*
X036142Y010956D03*
X036142Y011036D03*
X036222Y011116D03*
X036302Y011356D03*
X035902Y009756D03*
X030082Y011356D03*
X030002Y011116D03*
X029922Y011036D03*
X029922Y010956D03*
X029922Y010876D03*
X029762Y010556D03*
X029682Y010476D03*
X029682Y009756D03*
X027282Y012476D03*
X027282Y012796D03*
X023861Y011356D03*
X023781Y011116D03*
X023701Y011036D03*
X023701Y010956D03*
X023701Y010876D03*
X023541Y010556D03*
X023461Y010476D03*
X023461Y009756D03*
X021061Y012476D03*
X021061Y012796D03*
X017641Y011356D03*
X017561Y011116D03*
X017481Y011036D03*
X017481Y010956D03*
X017481Y010876D03*
X017321Y010556D03*
X017241Y010476D03*
X017241Y009756D03*
X014841Y012476D03*
X014841Y012796D03*
X011420Y011356D03*
X011340Y011116D03*
X011260Y011036D03*
X011260Y010956D03*
X011260Y010876D03*
X011100Y010556D03*
X011020Y010476D03*
X011020Y009756D03*
X008620Y012476D03*
X008620Y012796D03*
X005200Y011356D03*
X005120Y011116D03*
X005040Y011036D03*
X005040Y010956D03*
X005040Y010876D03*
X004880Y010556D03*
X004800Y010476D03*
X004800Y009756D03*
X002400Y012476D03*
X002400Y012796D03*
X004800Y023574D03*
X004800Y024294D03*
X004880Y024374D03*
X005040Y024694D03*
X005040Y024774D03*
X005040Y024854D03*
X005120Y024934D03*
X005200Y025174D03*
X002400Y026294D03*
X002400Y026614D03*
X008620Y026614D03*
X008620Y026294D03*
X011020Y024294D03*
X011100Y024374D03*
X011260Y024694D03*
X011260Y024774D03*
X011260Y024854D03*
X011340Y024934D03*
X011420Y025174D03*
X011020Y023574D03*
D16*
X010980Y023654D03*
X010900Y023734D03*
X010980Y024134D03*
X010980Y024214D03*
X011300Y025014D03*
X011380Y025094D03*
X011460Y025254D03*
X011380Y025574D03*
X011380Y025894D03*
X011300Y025974D03*
X011300Y026054D03*
X008660Y026374D03*
X008660Y026454D03*
X008660Y026534D03*
X005160Y025894D03*
X005080Y025974D03*
X005080Y026054D03*
X005160Y025574D03*
X005240Y025254D03*
X005160Y025094D03*
X005080Y025014D03*
X004760Y024214D03*
X004760Y024134D03*
X004680Y023734D03*
X004760Y023654D03*
X002440Y026374D03*
X002440Y026454D03*
X002440Y026534D03*
X014881Y026534D03*
X014881Y026454D03*
X014881Y026374D03*
X017521Y026054D03*
X017521Y025974D03*
X017601Y025894D03*
X017601Y025574D03*
X017681Y025254D03*
X017601Y025094D03*
X017521Y025014D03*
X017201Y024214D03*
X017201Y024134D03*
X017121Y023734D03*
X017201Y023654D03*
X021101Y026374D03*
X021101Y026454D03*
X021101Y026534D03*
X023741Y026054D03*
X023741Y025974D03*
X023821Y025894D03*
X023821Y025574D03*
X023901Y025254D03*
X023821Y025094D03*
X023741Y025014D03*
X023421Y024214D03*
X023421Y024134D03*
X023341Y023734D03*
X023421Y023654D03*
X027322Y026374D03*
X027322Y026454D03*
X027322Y026534D03*
X029962Y026054D03*
X029962Y025974D03*
X030042Y025894D03*
X030042Y025574D03*
X030122Y025254D03*
X030042Y025094D03*
X029962Y025014D03*
X029642Y024214D03*
X029642Y024134D03*
X029562Y023734D03*
X029642Y023654D03*
X033542Y026374D03*
X033542Y026454D03*
X033542Y026534D03*
X036182Y026054D03*
X036182Y025974D03*
X036262Y025894D03*
X036262Y025574D03*
X036342Y025254D03*
X036262Y025094D03*
X036182Y025014D03*
X035862Y024214D03*
X035862Y024134D03*
X035782Y023734D03*
X035862Y023654D03*
X033542Y012716D03*
X033542Y012636D03*
X033542Y012556D03*
X036182Y012236D03*
X036182Y012156D03*
X036262Y012076D03*
X036262Y011756D03*
X036342Y011436D03*
X036262Y011276D03*
X036182Y011196D03*
X035862Y010396D03*
X035862Y010316D03*
X035782Y009916D03*
X035862Y009836D03*
X030122Y011436D03*
X030042Y011276D03*
X029962Y011196D03*
X030042Y011756D03*
X030042Y012076D03*
X029962Y012156D03*
X029962Y012236D03*
X029642Y010396D03*
X029642Y010316D03*
X029562Y009916D03*
X029642Y009836D03*
X027322Y012556D03*
X027322Y012636D03*
X027322Y012716D03*
X023821Y012076D03*
X023741Y012156D03*
X023741Y012236D03*
X023821Y011756D03*
X023901Y011436D03*
X023821Y011276D03*
X023741Y011196D03*
X023421Y010396D03*
X023421Y010316D03*
X023341Y009916D03*
X023421Y009836D03*
X021101Y012556D03*
X021101Y012636D03*
X021101Y012716D03*
X017601Y012076D03*
X017521Y012156D03*
X017521Y012236D03*
X017601Y011756D03*
X017681Y011436D03*
X017601Y011276D03*
X017521Y011196D03*
X017201Y010396D03*
X017201Y010316D03*
X017121Y009916D03*
X017201Y009836D03*
X014881Y012556D03*
X014881Y012636D03*
X014881Y012716D03*
X011380Y012076D03*
X011300Y012156D03*
X011300Y012236D03*
X011380Y011756D03*
X011460Y011436D03*
X011380Y011276D03*
X011300Y011196D03*
X010980Y010396D03*
X010980Y010316D03*
X010900Y009916D03*
X010980Y009836D03*
X008660Y012556D03*
X008660Y012636D03*
X008660Y012716D03*
X005160Y012076D03*
X005080Y012156D03*
X005080Y012236D03*
X005160Y011756D03*
X005240Y011436D03*
X005160Y011276D03*
X005080Y011196D03*
X004760Y010396D03*
X004760Y010316D03*
X004680Y009916D03*
X004760Y009836D03*
X002440Y012556D03*
X002440Y012636D03*
X002440Y012716D03*
D17*
X004920Y012636D03*
X004920Y012556D03*
X004920Y012476D03*
X005160Y011996D03*
X004760Y009996D03*
X010980Y009996D03*
X011380Y011996D03*
X011140Y012476D03*
X011140Y012556D03*
X011140Y012636D03*
X017361Y012636D03*
X017361Y012556D03*
X017361Y012476D03*
X017601Y011996D03*
X017201Y009996D03*
X023421Y009996D03*
X023821Y011996D03*
X023581Y012476D03*
X023581Y012556D03*
X023581Y012636D03*
X029642Y009996D03*
X030042Y011996D03*
X029802Y012476D03*
X029802Y012556D03*
X029802Y012636D03*
X036022Y012636D03*
X036022Y012556D03*
X036022Y012476D03*
X036262Y011996D03*
X035862Y009996D03*
X035862Y023814D03*
X036262Y025814D03*
X036022Y026294D03*
X036022Y026374D03*
X036022Y026454D03*
X030042Y025814D03*
X029802Y026294D03*
X029802Y026374D03*
X029802Y026454D03*
X029642Y023814D03*
X023821Y025814D03*
X023581Y026294D03*
X023581Y026374D03*
X023581Y026454D03*
X023421Y023814D03*
X017601Y025814D03*
X017361Y026294D03*
X017361Y026374D03*
X017361Y026454D03*
X017201Y023814D03*
X011380Y025814D03*
X011140Y026294D03*
X011140Y026374D03*
X011140Y026454D03*
X010980Y023814D03*
X005160Y025814D03*
X004920Y026294D03*
X004920Y026374D03*
X004920Y026454D03*
X004760Y023814D03*
D18*
X004720Y023894D03*
X004720Y023974D03*
X004720Y024054D03*
X005200Y025334D03*
X005200Y025414D03*
X005200Y025494D03*
X005200Y025654D03*
X005200Y025734D03*
X005040Y026134D03*
X004960Y026214D03*
X010940Y024054D03*
X010940Y023974D03*
X010940Y023894D03*
X011420Y025334D03*
X011420Y025414D03*
X011420Y025494D03*
X011420Y025654D03*
X011420Y025734D03*
X011260Y026134D03*
X011180Y026214D03*
X017401Y026214D03*
X017481Y026134D03*
X017641Y025734D03*
X017641Y025654D03*
X017641Y025494D03*
X017641Y025414D03*
X017641Y025334D03*
X017161Y024054D03*
X017161Y023974D03*
X017161Y023894D03*
X023381Y023894D03*
X023381Y023974D03*
X023381Y024054D03*
X023861Y025334D03*
X023861Y025414D03*
X023861Y025494D03*
X023861Y025654D03*
X023861Y025734D03*
X023701Y026134D03*
X023621Y026214D03*
X029602Y024054D03*
X029602Y023974D03*
X029602Y023894D03*
X030082Y025334D03*
X030082Y025414D03*
X030082Y025494D03*
X030082Y025654D03*
X030082Y025734D03*
X029922Y026134D03*
X029842Y026214D03*
X035822Y024054D03*
X035822Y023974D03*
X035822Y023894D03*
X036302Y025334D03*
X036302Y025414D03*
X036302Y025494D03*
X036302Y025654D03*
X036302Y025734D03*
X036142Y026134D03*
X036062Y026214D03*
X036062Y012396D03*
X036142Y012316D03*
X036302Y011916D03*
X036302Y011836D03*
X036302Y011676D03*
X036302Y011596D03*
X036302Y011516D03*
X035822Y010236D03*
X035822Y010156D03*
X035822Y010076D03*
X030082Y011516D03*
X030082Y011596D03*
X030082Y011676D03*
X030082Y011836D03*
X030082Y011916D03*
X029922Y012316D03*
X029842Y012396D03*
X029602Y010236D03*
X029602Y010156D03*
X029602Y010076D03*
X023861Y011516D03*
X023861Y011596D03*
X023861Y011676D03*
X023861Y011836D03*
X023861Y011916D03*
X023701Y012316D03*
X023621Y012396D03*
X023381Y010236D03*
X023381Y010156D03*
X023381Y010076D03*
X017641Y011516D03*
X017641Y011596D03*
X017641Y011676D03*
X017641Y011836D03*
X017641Y011916D03*
X017481Y012316D03*
X017401Y012396D03*
X017161Y010236D03*
X017161Y010156D03*
X017161Y010076D03*
X011420Y011516D03*
X011420Y011596D03*
X011420Y011676D03*
X011420Y011836D03*
X011420Y011916D03*
X011260Y012316D03*
X011180Y012396D03*
X010940Y010236D03*
X010940Y010156D03*
X010940Y010076D03*
X005200Y011516D03*
X005200Y011596D03*
X005200Y011676D03*
X005200Y011836D03*
X005200Y011916D03*
X005040Y012316D03*
X004960Y012396D03*
X004720Y010236D03*
X004720Y010156D03*
X004720Y010076D03*
D19*
X004920Y010636D03*
X003240Y012636D03*
X002440Y012876D03*
X008660Y012876D03*
X009460Y012636D03*
X011140Y010636D03*
X014881Y012876D03*
X015681Y012636D03*
X017361Y010636D03*
X021101Y012876D03*
X021901Y012636D03*
X023581Y010636D03*
X027322Y012876D03*
X028122Y012636D03*
X029802Y010636D03*
X033542Y012876D03*
X034342Y012636D03*
X036022Y010636D03*
X036022Y024454D03*
X034342Y026454D03*
X033542Y026694D03*
X029802Y024454D03*
X028122Y026454D03*
X027322Y026694D03*
X023581Y024454D03*
X021901Y026454D03*
X021101Y026694D03*
X017361Y024454D03*
X015681Y026454D03*
X014881Y026694D03*
X011140Y024454D03*
X009460Y026454D03*
X008660Y026694D03*
X004920Y024454D03*
X003240Y026454D03*
X002440Y026694D03*
D20*
X003200Y026534D03*
X003280Y026374D03*
X001760Y027094D03*
X004960Y024614D03*
X004960Y024534D03*
X007980Y027094D03*
X009420Y026534D03*
X009500Y026374D03*
X011180Y024614D03*
X011180Y024534D03*
X014201Y027094D03*
X015641Y026534D03*
X015721Y026374D03*
X017401Y024614D03*
X017401Y024534D03*
X020421Y027094D03*
X021861Y026534D03*
X021941Y026374D03*
X023621Y024614D03*
X023621Y024534D03*
X026642Y027094D03*
X028082Y026534D03*
X028162Y026374D03*
X029842Y024614D03*
X029842Y024534D03*
X032862Y027094D03*
X034302Y026534D03*
X034382Y026374D03*
X036062Y024614D03*
X036062Y024534D03*
X032862Y013276D03*
X034302Y012716D03*
X034382Y012556D03*
X036062Y010796D03*
X036062Y010716D03*
X029842Y010716D03*
X029842Y010796D03*
X028162Y012556D03*
X028082Y012716D03*
X026642Y013276D03*
X023621Y010796D03*
X023621Y010716D03*
X021941Y012556D03*
X021861Y012716D03*
X020421Y013276D03*
X017401Y010796D03*
X017401Y010716D03*
X015721Y012556D03*
X015641Y012716D03*
X014201Y013276D03*
X011180Y010796D03*
X011180Y010716D03*
X009500Y012556D03*
X009420Y012716D03*
X007980Y013276D03*
X004960Y010796D03*
X004960Y010716D03*
X003280Y012556D03*
X003200Y012716D03*
X001760Y013276D03*
D21*
X002440Y012956D03*
X003800Y012236D03*
X004280Y011676D03*
X005080Y013516D03*
X007220Y012956D03*
X008660Y012956D03*
X008340Y014156D03*
X008980Y014236D03*
X010020Y012236D03*
X010500Y011676D03*
X011300Y013516D03*
X013441Y012956D03*
X014881Y012956D03*
X014561Y014156D03*
X015201Y014236D03*
X016241Y012236D03*
X016721Y011676D03*
X017521Y013516D03*
X019661Y012956D03*
X021101Y012956D03*
X022461Y012236D03*
X022941Y011676D03*
X023741Y013516D03*
X021421Y014236D03*
X020781Y014156D03*
X025882Y012956D03*
X027322Y012956D03*
X028682Y012236D03*
X029162Y011676D03*
X029962Y013516D03*
X032102Y012956D03*
X033542Y012956D03*
X033222Y014156D03*
X033862Y014236D03*
X034902Y012236D03*
X035382Y011676D03*
X036182Y013516D03*
X027642Y014236D03*
X027002Y014156D03*
X029162Y025494D03*
X028682Y026054D03*
X027322Y026774D03*
X027002Y027974D03*
X027642Y028054D03*
X025882Y026774D03*
X023741Y027334D03*
X022461Y026054D03*
X022941Y025494D03*
X021101Y026774D03*
X020781Y027974D03*
X021421Y028054D03*
X019661Y026774D03*
X017521Y027334D03*
X016241Y026054D03*
X016721Y025494D03*
X014881Y026774D03*
X014561Y027974D03*
X015201Y028054D03*
X013441Y026774D03*
X011300Y027334D03*
X010020Y026054D03*
X010500Y025494D03*
X008660Y026774D03*
X007220Y026774D03*
X008340Y027974D03*
X008980Y028054D03*
X005080Y027334D03*
X003800Y026054D03*
X004280Y025494D03*
X002440Y026774D03*
X002120Y027974D03*
X002760Y028054D03*
X001000Y026774D03*
X002760Y014236D03*
X002120Y014156D03*
X001000Y012956D03*
X029962Y027334D03*
X032102Y026774D03*
X033542Y026774D03*
X033222Y027974D03*
X033862Y028054D03*
X034902Y026054D03*
X035382Y025494D03*
X036182Y027334D03*
D22*
X036382Y026854D03*
X035422Y026614D03*
X035262Y025654D03*
X033262Y027174D03*
X032062Y027014D03*
X032062Y026934D03*
X032062Y026854D03*
X030162Y026854D03*
X029202Y026614D03*
X029042Y025654D03*
X027042Y027174D03*
X025842Y027014D03*
X025842Y026934D03*
X025842Y026854D03*
X023941Y026854D03*
X022981Y026614D03*
X022821Y025654D03*
X020821Y027174D03*
X019621Y027014D03*
X019621Y026934D03*
X019621Y026854D03*
X017721Y026854D03*
X016761Y026614D03*
X016601Y025654D03*
X014601Y027174D03*
X013401Y027014D03*
X013401Y026934D03*
X013401Y026854D03*
X011500Y026854D03*
X010540Y026614D03*
X010380Y025654D03*
X008380Y027174D03*
X007180Y027014D03*
X007180Y026934D03*
X007180Y026854D03*
X005280Y026854D03*
X004320Y026614D03*
X004160Y025654D03*
X002160Y027174D03*
X000960Y027014D03*
X000960Y026934D03*
X000960Y026854D03*
X002160Y013356D03*
X000960Y013196D03*
X000960Y013116D03*
X000960Y013036D03*
X004320Y012796D03*
X004160Y011836D03*
X005280Y013036D03*
X007180Y013036D03*
X007180Y013116D03*
X007180Y013196D03*
X008380Y013356D03*
X010540Y012796D03*
X010380Y011836D03*
X011500Y013036D03*
X013401Y013036D03*
X013401Y013116D03*
X013401Y013196D03*
X014601Y013356D03*
X016601Y011836D03*
X016761Y012796D03*
X017721Y013036D03*
X019621Y013036D03*
X019621Y013116D03*
X019621Y013196D03*
X020821Y013356D03*
X022821Y011836D03*
X022981Y012796D03*
X023941Y013036D03*
X025842Y013036D03*
X025842Y013116D03*
X025842Y013196D03*
X027042Y013356D03*
X029202Y012796D03*
X029042Y011836D03*
X030162Y013036D03*
X032062Y013036D03*
X032062Y013116D03*
X032062Y013196D03*
X033262Y013356D03*
X035422Y012796D03*
X036382Y013036D03*
X035262Y011836D03*
D23*
X035982Y012716D03*
X035982Y012796D03*
X029762Y012796D03*
X029762Y012716D03*
X023541Y012716D03*
X023541Y012796D03*
X017321Y012796D03*
X017321Y012716D03*
X011100Y012716D03*
X011100Y012796D03*
X004880Y012796D03*
X004880Y012716D03*
X004880Y026534D03*
X004880Y026614D03*
X011100Y026614D03*
X011100Y026534D03*
X017321Y026534D03*
X017321Y026614D03*
X023541Y026614D03*
X023541Y026534D03*
X029762Y026534D03*
X029762Y026614D03*
X035982Y026614D03*
X035982Y026534D03*
D24*
X035902Y026694D03*
X035742Y026854D03*
X029682Y026694D03*
X029522Y026854D03*
X023461Y026694D03*
X023301Y026854D03*
X017241Y026694D03*
X017081Y026854D03*
X011020Y026694D03*
X010860Y026854D03*
X004800Y026694D03*
X004640Y026854D03*
X004640Y013036D03*
X004800Y012876D03*
X010860Y013036D03*
X011020Y012876D03*
X017081Y013036D03*
X017241Y012876D03*
X023301Y013036D03*
X023461Y012876D03*
X029522Y013036D03*
X029682Y012876D03*
X035742Y013036D03*
X035902Y012876D03*
D25*
X035862Y012956D03*
X035702Y013116D03*
X032582Y013356D03*
X029642Y012956D03*
X029482Y013116D03*
X026362Y013356D03*
X023421Y012956D03*
X023261Y013116D03*
X020141Y013356D03*
X017201Y012956D03*
X017041Y013116D03*
X013921Y013356D03*
X010980Y012956D03*
X010820Y013116D03*
X007700Y013356D03*
X004760Y012956D03*
X004600Y013116D03*
X001480Y013356D03*
X004760Y026774D03*
X004600Y026934D03*
X007700Y027174D03*
X010820Y026934D03*
X010980Y026774D03*
X013921Y027174D03*
X017041Y026934D03*
X017201Y026774D03*
X020141Y027174D03*
X023261Y026934D03*
X023421Y026774D03*
X026362Y027174D03*
X029482Y026934D03*
X029642Y026774D03*
X032582Y027174D03*
X035702Y026934D03*
X035862Y026774D03*
X001480Y027174D03*
D26*
X004400Y027014D03*
X010620Y027014D03*
X016841Y027014D03*
X023061Y027014D03*
X029282Y027014D03*
X035502Y027014D03*
X035502Y013196D03*
X029282Y013196D03*
X023061Y013196D03*
X016841Y013196D03*
X010620Y013196D03*
X004400Y013196D03*
D27*
X004360Y013276D03*
X010580Y013276D03*
X016801Y013276D03*
X023021Y013276D03*
X029242Y013276D03*
X035462Y013276D03*
X035462Y027094D03*
X029242Y027094D03*
X023021Y027094D03*
X016801Y027094D03*
X010580Y027094D03*
X004360Y027094D03*
D28*
X004160Y027174D03*
X010380Y027174D03*
X016601Y027174D03*
X022821Y027174D03*
X029042Y027174D03*
X035262Y027174D03*
X035262Y013356D03*
X029042Y013356D03*
X022821Y013356D03*
X016601Y013356D03*
X010380Y013356D03*
X004160Y013356D03*
D29*
X003040Y013436D03*
X009260Y013436D03*
X015481Y013436D03*
X021701Y013436D03*
X027922Y013436D03*
X034142Y013436D03*
X034142Y027254D03*
X027922Y027254D03*
X021701Y027254D03*
X015481Y027254D03*
X009260Y027254D03*
X003040Y027254D03*
D30*
X002840Y027334D03*
X009060Y027334D03*
X015281Y027334D03*
X021501Y027334D03*
X027722Y027334D03*
X033942Y027334D03*
X033942Y013516D03*
X027722Y013516D03*
X021501Y013516D03*
X015281Y013516D03*
X009060Y013516D03*
X002840Y013516D03*
D31*
X002840Y013596D03*
X009060Y013596D03*
X015281Y013596D03*
X021501Y013596D03*
X027722Y013596D03*
X033942Y013596D03*
X033942Y027414D03*
X027722Y027414D03*
X021501Y027414D03*
X015281Y027414D03*
X009060Y027414D03*
X002840Y027414D03*
D32*
X002880Y027494D03*
X009100Y027494D03*
X015321Y027494D03*
X021541Y027494D03*
X027762Y027494D03*
X033982Y027494D03*
X033982Y013676D03*
X027762Y013676D03*
X021541Y013676D03*
X015321Y013676D03*
X009100Y013676D03*
X002880Y013676D03*
D33*
X002920Y013756D03*
X009140Y013756D03*
X015361Y013756D03*
X021581Y013756D03*
X027802Y013756D03*
X034022Y013756D03*
X034022Y027574D03*
X027802Y027574D03*
X021581Y027574D03*
X015361Y027574D03*
X009140Y027574D03*
X002920Y027574D03*
D34*
X002800Y027654D03*
X009020Y027654D03*
X015241Y027654D03*
X021461Y027654D03*
X027682Y027654D03*
X033902Y027654D03*
X033902Y013836D03*
X027682Y013836D03*
X021461Y013836D03*
X015241Y013836D03*
X009020Y013836D03*
X002800Y013836D03*
D35*
X002760Y013916D03*
X008980Y013916D03*
X015201Y013916D03*
X021421Y013916D03*
X027642Y013916D03*
X033862Y013916D03*
X033862Y027734D03*
X027642Y027734D03*
X021421Y027734D03*
X015201Y027734D03*
X008980Y027734D03*
X002760Y027734D03*
D36*
X002840Y027814D03*
X009060Y027814D03*
X015281Y027814D03*
X021501Y027814D03*
X027722Y027814D03*
X033942Y027814D03*
X033942Y013996D03*
X027722Y013996D03*
X021501Y013996D03*
X015281Y013996D03*
X009060Y013996D03*
X002840Y013996D03*
D37*
X002720Y014076D03*
X008940Y014076D03*
X015161Y014076D03*
X021381Y014076D03*
X027602Y014076D03*
X033822Y014076D03*
X033822Y027894D03*
X027602Y027894D03*
X021381Y027894D03*
X015161Y027894D03*
X008940Y027894D03*
X002720Y027894D03*
D38*
X002960Y027974D03*
X009180Y027974D03*
X015401Y027974D03*
X021621Y027974D03*
X027842Y027974D03*
X034062Y027974D03*
X034062Y014156D03*
X027842Y014156D03*
X021621Y014156D03*
X015401Y014156D03*
X009180Y014156D03*
X002960Y014156D03*
M02*
