G75*
%MOIN*%
%OFA0B0*%
%FSLAX24Y24*%
%IPPOS*%
%LPD*%
%AMOC8*
5,1,8,0,0,1.08239X$1,22.5*
%
%ADD10C,0.0030*%
%ADD11C,0.0050*%
%ADD12R,0.0320X0.0080*%
%ADD13R,0.0240X0.0080*%
%ADD14R,0.0560X0.0080*%
%ADD15R,0.0640X0.0080*%
%ADD16R,0.0800X0.0080*%
%ADD17R,0.0720X0.0080*%
%ADD18R,0.0480X0.0080*%
%ADD19R,0.0400X0.0080*%
%ADD20R,0.0160X0.0080*%
%ADD21R,0.0080X0.0080*%
%ADD22R,0.0880X0.0080*%
%ADD23R,0.1040X0.0080*%
%ADD24R,0.1120X0.0080*%
%ADD25R,0.1360X0.0080*%
%ADD26R,0.1600X0.0080*%
%ADD27R,0.1840X0.0080*%
%ADD28R,0.4240X0.0080*%
%ADD29R,0.3840X0.0080*%
%ADD30R,0.3680X0.0080*%
%ADD31R,0.3600X0.0080*%
%ADD32R,0.3360X0.0080*%
%ADD33R,0.3120X0.0080*%
%ADD34R,0.2880X0.0080*%
%ADD35R,0.2080X0.0080*%
%ADD36R,0.2000X0.0080*%
%ADD37R,0.1200X0.0080*%
%ADD38C,0.0040*%
D10*
X002571Y003763D02*
X002756Y003887D01*
X002571Y004010D01*
X002756Y004134D02*
X002756Y003763D01*
X002878Y003763D02*
X002878Y003949D01*
X002939Y004010D01*
X003125Y004010D01*
X003125Y003763D01*
X003247Y003763D02*
X003370Y003763D01*
X003308Y003763D02*
X003308Y004010D01*
X003370Y004010D01*
X003492Y003949D02*
X003492Y003825D01*
X003553Y003763D01*
X003738Y003763D01*
X003738Y003640D02*
X003738Y004010D01*
X003553Y004010D01*
X003492Y003949D01*
X003308Y004134D02*
X003308Y004195D01*
X003860Y004010D02*
X004045Y004010D01*
X004107Y003949D01*
X004107Y003825D01*
X004045Y003763D01*
X003860Y003763D01*
X004229Y003763D02*
X004352Y003763D01*
X004291Y003763D02*
X004291Y004010D01*
X004352Y004010D01*
X004291Y004134D02*
X004291Y004195D01*
X004474Y004010D02*
X004536Y004010D01*
X004659Y003887D01*
X004659Y004010D02*
X004659Y003763D01*
X004781Y003763D02*
X004843Y003825D01*
X004843Y004072D01*
X004905Y004010D02*
X004781Y004010D01*
X005026Y004010D02*
X005211Y004010D01*
X005273Y003949D01*
X005273Y003825D01*
X005211Y003763D01*
X005026Y003763D01*
X005395Y003887D02*
X005641Y003887D01*
X005641Y003949D02*
X005580Y004010D01*
X005456Y004010D01*
X005395Y003949D01*
X005395Y003887D01*
X005456Y003763D02*
X005580Y003763D01*
X005641Y003825D01*
X005641Y003949D01*
X005764Y003763D02*
X005887Y003763D01*
X005825Y003763D02*
X005825Y004134D01*
X005887Y004134D01*
X006070Y004010D02*
X006008Y003949D01*
X006008Y003887D01*
X006255Y003887D01*
X006255Y003949D02*
X006194Y004010D01*
X006070Y004010D01*
X006070Y003763D02*
X006194Y003763D01*
X006255Y003825D01*
X006255Y003949D01*
D11*
X006072Y012163D02*
X005711Y012163D01*
X005528Y012253D02*
X005438Y012163D01*
X005258Y012163D01*
X005168Y012253D01*
X005168Y012344D01*
X005258Y012434D01*
X005438Y012434D01*
X005528Y012524D01*
X005528Y012614D01*
X005438Y012704D01*
X005258Y012704D01*
X005168Y012614D01*
X004985Y012704D02*
X004985Y012163D01*
X004985Y012344D02*
X004714Y012344D01*
X004624Y012434D01*
X004624Y012614D01*
X004714Y012704D01*
X004985Y012704D01*
X004441Y012434D02*
X004441Y012253D01*
X004351Y012163D01*
X004080Y012163D01*
X004080Y012704D01*
X004080Y012524D02*
X004351Y012524D01*
X004441Y012434D01*
X003897Y012524D02*
X003897Y012253D01*
X003807Y012163D01*
X003536Y012163D01*
X003536Y012524D01*
X003353Y012524D02*
X003263Y012524D01*
X003263Y012163D01*
X003353Y012163D02*
X003173Y012163D01*
X002991Y012163D02*
X002991Y012524D01*
X002720Y012524D01*
X002630Y012434D01*
X002630Y012163D01*
X002447Y012253D02*
X002357Y012163D01*
X002176Y012163D01*
X002086Y012253D01*
X002086Y012434D01*
X002176Y012524D01*
X002357Y012524D01*
X002447Y012434D01*
X002447Y012253D01*
X001903Y012434D02*
X001542Y012434D01*
X001359Y012704D02*
X001179Y012524D01*
X000999Y012704D01*
X000999Y012163D01*
X000816Y012163D02*
X000455Y012163D01*
X000635Y012163D02*
X000635Y012704D01*
X000816Y012524D01*
X001359Y012704D02*
X001359Y012163D01*
X003263Y012704D02*
X003263Y012794D01*
X005711Y012704D02*
X006072Y012704D01*
X006072Y012163D01*
X006072Y012434D02*
X005892Y012434D01*
D12*
X004130Y009494D03*
X004130Y009414D03*
X003570Y009574D03*
X003570Y011334D03*
X005250Y006774D03*
X005490Y006614D03*
D13*
X005290Y006694D03*
X004570Y008614D03*
X004570Y008694D03*
X004490Y009014D03*
X004490Y009094D03*
X004490Y009174D03*
X004090Y009574D03*
X003530Y009894D03*
X002810Y009494D03*
X002090Y010294D03*
X002090Y011254D03*
X001370Y010374D03*
D14*
X002730Y009894D03*
X002730Y009574D03*
X005130Y007574D03*
X005210Y007654D03*
X005370Y007974D03*
X005370Y008054D03*
X005370Y008134D03*
X005450Y008214D03*
X005530Y008454D03*
X005130Y006854D03*
D15*
X005090Y006934D03*
X005010Y007014D03*
X005090Y007414D03*
X005090Y007494D03*
X005410Y008294D03*
X005490Y008374D03*
X005570Y008534D03*
X005490Y008854D03*
X005490Y009174D03*
X005410Y009254D03*
X005410Y009334D03*
X002770Y009654D03*
X002770Y009734D03*
X002770Y009814D03*
D16*
X005090Y007094D03*
X005490Y009094D03*
X005250Y009574D03*
X005250Y009654D03*
X005250Y009734D03*
D17*
X005290Y009494D03*
X005370Y009414D03*
X005530Y009014D03*
X005530Y008934D03*
X005530Y008774D03*
X005530Y008694D03*
X005530Y008614D03*
X005050Y007334D03*
X005050Y007254D03*
X005050Y007174D03*
D18*
X005250Y007734D03*
X003570Y009734D03*
X002770Y009974D03*
D19*
X002090Y010374D03*
X003530Y009814D03*
X003610Y009654D03*
X005290Y007894D03*
X005290Y007814D03*
D20*
X004610Y008774D03*
X004130Y009334D03*
X003090Y011334D03*
X002770Y010054D03*
X002450Y011254D03*
X001330Y010054D03*
X005410Y010614D03*
D21*
X005610Y010134D03*
X004650Y009894D03*
X004490Y008934D03*
X002490Y010454D03*
X001290Y010294D03*
X001290Y010214D03*
X001290Y010134D03*
D22*
X005210Y009894D03*
X005210Y009814D03*
D23*
X005130Y009974D03*
X004970Y010134D03*
D24*
X004930Y010214D03*
X005090Y010054D03*
X001810Y010454D03*
D25*
X004730Y010294D03*
D26*
X004690Y010374D03*
D27*
X004490Y010454D03*
D28*
X003370Y010534D03*
D29*
X003170Y010614D03*
D30*
X003170Y010694D03*
D31*
X003210Y010774D03*
D32*
X003250Y010854D03*
D33*
X003130Y010934D03*
D34*
X003090Y011014D03*
D35*
X003170Y011094D03*
D36*
X003050Y011174D03*
D37*
X003290Y011254D03*
D38*
X001546Y006052D02*
X001316Y005898D01*
X001546Y006052D02*
X001316Y006205D01*
X001546Y006359D02*
X001546Y005898D01*
X001699Y005898D02*
X001699Y006129D01*
X001776Y006205D01*
X002006Y006205D01*
X002006Y005898D01*
X002160Y005898D02*
X002313Y005898D01*
X002236Y005898D02*
X002236Y006205D01*
X002313Y006205D01*
X002236Y006359D02*
X002236Y006435D01*
X002467Y006129D02*
X002467Y005975D01*
X002543Y005898D01*
X002774Y005898D01*
X002774Y005745D02*
X002774Y006205D01*
X002543Y006205D01*
X002467Y006129D01*
X002927Y006205D02*
X003157Y006205D01*
X003234Y006129D01*
X003234Y005975D01*
X003157Y005898D01*
X002927Y005898D01*
X003387Y005898D02*
X003541Y005898D01*
X003464Y005898D02*
X003464Y006205D01*
X003541Y006205D01*
X003464Y006359D02*
X003464Y006435D01*
X003694Y006205D02*
X003771Y006205D01*
X003925Y006052D01*
X003925Y006205D02*
X003925Y005898D01*
X004078Y005898D02*
X004155Y005975D01*
X004155Y006282D01*
X004231Y006205D02*
X004078Y006205D01*
X004385Y006205D02*
X004615Y006205D01*
X004692Y006129D01*
X004692Y005975D01*
X004615Y005898D01*
X004385Y005898D01*
X004845Y006052D02*
X005152Y006052D01*
X005152Y005975D02*
X005152Y006129D01*
X005076Y006205D01*
X004922Y006205D01*
X004845Y006129D01*
X004845Y006052D01*
X004922Y005898D02*
X005076Y005898D01*
X005152Y005975D01*
X005306Y005898D02*
X005459Y005898D01*
X005382Y005898D02*
X005382Y006359D01*
X005459Y006359D01*
X005689Y006205D02*
X005613Y006129D01*
X005613Y006052D01*
X005920Y006052D01*
X005920Y005975D02*
X005920Y006129D01*
X005843Y006205D01*
X005689Y006205D01*
X005689Y005898D02*
X005843Y005898D01*
X005920Y005975D01*
M02*
