G75*
%MOIN*%
%OFA0B0*%
%FSLAX24Y24*%
%IPPOS*%
%LPD*%
%AMOC8*
5,1,8,0,0,1.08239X$1,22.5*
%
%ADD10C,0.0000*%
%ADD11R,0.0674X0.0674*%
%ADD12C,0.0674*%
%ADD13C,0.0680*%
%ADD14OC8,0.0680*%
%ADD15C,0.0595*%
%ADD16C,0.0477*%
D10*
X000180Y002796D02*
X000180Y030360D01*
X006300Y030360D01*
X006400Y030360D02*
X012521Y030360D01*
X012621Y030360D02*
X018741Y030360D01*
X018841Y030360D02*
X024961Y030360D01*
X025062Y030360D02*
X031182Y030360D01*
X031282Y030360D02*
X037402Y030360D01*
X037402Y002796D01*
X031282Y002796D01*
X031182Y002796D02*
X025062Y002796D01*
X024961Y002796D02*
X018841Y002796D01*
X018741Y002796D02*
X012621Y002796D01*
X012521Y002796D02*
X006400Y002796D01*
X006300Y002796D02*
X000180Y002796D01*
X001664Y015601D02*
X001664Y015916D01*
X001665Y015916D02*
X001666Y015933D01*
X001671Y015950D01*
X001678Y015965D01*
X001688Y015979D01*
X001700Y015991D01*
X001714Y016001D01*
X001729Y016008D01*
X001746Y016013D01*
X001763Y016014D01*
X001780Y016013D01*
X001797Y016008D01*
X001812Y016001D01*
X001826Y015991D01*
X001838Y015979D01*
X001848Y015965D01*
X001855Y015950D01*
X001860Y015933D01*
X001861Y015916D01*
X001861Y015601D01*
X001763Y015503D02*
X001746Y015504D01*
X001729Y015509D01*
X001714Y015516D01*
X001700Y015526D01*
X001688Y015538D01*
X001678Y015552D01*
X001671Y015567D01*
X001666Y015584D01*
X001665Y015601D01*
X001763Y015503D02*
X001780Y015504D01*
X001797Y015509D01*
X001812Y015516D01*
X001826Y015526D01*
X001838Y015538D01*
X001848Y015552D01*
X001855Y015567D01*
X001860Y015584D01*
X001861Y015601D01*
X004499Y015601D02*
X004499Y015916D01*
X004500Y015933D01*
X004505Y015950D01*
X004512Y015965D01*
X004522Y015979D01*
X004534Y015991D01*
X004548Y016001D01*
X004563Y016008D01*
X004580Y016013D01*
X004597Y016014D01*
X004614Y016013D01*
X004631Y016008D01*
X004646Y016001D01*
X004660Y015991D01*
X004672Y015979D01*
X004682Y015965D01*
X004689Y015950D01*
X004694Y015933D01*
X004695Y015916D01*
X004696Y015916D02*
X004696Y015601D01*
X004597Y015503D02*
X004580Y015504D01*
X004563Y015509D01*
X004548Y015516D01*
X004534Y015526D01*
X004522Y015538D01*
X004512Y015552D01*
X004505Y015567D01*
X004500Y015584D01*
X004499Y015601D01*
X004597Y015503D02*
X004614Y015504D01*
X004631Y015509D01*
X004646Y015516D01*
X004660Y015526D01*
X004672Y015538D01*
X004682Y015552D01*
X004689Y015567D01*
X004694Y015584D01*
X004695Y015601D01*
X007885Y015601D02*
X007885Y015916D01*
X007886Y015933D01*
X007891Y015950D01*
X007898Y015965D01*
X007908Y015979D01*
X007920Y015991D01*
X007934Y016001D01*
X007949Y016008D01*
X007966Y016013D01*
X007983Y016014D01*
X008000Y016013D01*
X008017Y016008D01*
X008032Y016001D01*
X008046Y015991D01*
X008058Y015979D01*
X008068Y015965D01*
X008075Y015950D01*
X008080Y015933D01*
X008081Y015916D01*
X008082Y015916D02*
X008082Y015601D01*
X007983Y015503D02*
X007966Y015504D01*
X007949Y015509D01*
X007934Y015516D01*
X007920Y015526D01*
X007908Y015538D01*
X007898Y015552D01*
X007891Y015567D01*
X007886Y015584D01*
X007885Y015601D01*
X007983Y015503D02*
X008000Y015504D01*
X008017Y015509D01*
X008032Y015516D01*
X008046Y015526D01*
X008058Y015538D01*
X008068Y015552D01*
X008075Y015567D01*
X008080Y015584D01*
X008081Y015601D01*
X010719Y015601D02*
X010719Y015916D01*
X010720Y015916D02*
X010721Y015933D01*
X010726Y015950D01*
X010733Y015965D01*
X010743Y015979D01*
X010755Y015991D01*
X010769Y016001D01*
X010784Y016008D01*
X010801Y016013D01*
X010818Y016014D01*
X010835Y016013D01*
X010852Y016008D01*
X010867Y016001D01*
X010881Y015991D01*
X010893Y015979D01*
X010903Y015965D01*
X010910Y015950D01*
X010915Y015933D01*
X010916Y015916D01*
X010916Y015601D01*
X010818Y015503D02*
X010801Y015504D01*
X010784Y015509D01*
X010769Y015516D01*
X010755Y015526D01*
X010743Y015538D01*
X010733Y015552D01*
X010726Y015567D01*
X010721Y015584D01*
X010720Y015601D01*
X010818Y015503D02*
X010835Y015504D01*
X010852Y015509D01*
X010867Y015516D01*
X010881Y015526D01*
X010893Y015538D01*
X010903Y015552D01*
X010910Y015567D01*
X010915Y015584D01*
X010916Y015601D01*
X014105Y015601D02*
X014105Y015916D01*
X014106Y015916D02*
X014107Y015933D01*
X014112Y015950D01*
X014119Y015965D01*
X014129Y015979D01*
X014141Y015991D01*
X014155Y016001D01*
X014170Y016008D01*
X014187Y016013D01*
X014204Y016014D01*
X014221Y016013D01*
X014238Y016008D01*
X014253Y016001D01*
X014267Y015991D01*
X014279Y015979D01*
X014289Y015965D01*
X014296Y015950D01*
X014301Y015933D01*
X014302Y015916D01*
X014302Y015601D01*
X014204Y015503D02*
X014187Y015504D01*
X014170Y015509D01*
X014155Y015516D01*
X014141Y015526D01*
X014129Y015538D01*
X014119Y015552D01*
X014112Y015567D01*
X014107Y015584D01*
X014106Y015601D01*
X014204Y015503D02*
X014221Y015504D01*
X014238Y015509D01*
X014253Y015516D01*
X014267Y015526D01*
X014279Y015538D01*
X014289Y015552D01*
X014296Y015567D01*
X014301Y015584D01*
X014302Y015601D01*
X016940Y015601D02*
X016940Y015916D01*
X016941Y015933D01*
X016946Y015950D01*
X016953Y015965D01*
X016963Y015979D01*
X016975Y015991D01*
X016989Y016001D01*
X017004Y016008D01*
X017021Y016013D01*
X017038Y016014D01*
X017055Y016013D01*
X017072Y016008D01*
X017087Y016001D01*
X017101Y015991D01*
X017113Y015979D01*
X017123Y015965D01*
X017130Y015950D01*
X017135Y015933D01*
X017136Y015916D01*
X017137Y015916D02*
X017137Y015601D01*
X017038Y015503D02*
X017021Y015504D01*
X017004Y015509D01*
X016989Y015516D01*
X016975Y015526D01*
X016963Y015538D01*
X016953Y015552D01*
X016946Y015567D01*
X016941Y015584D01*
X016940Y015601D01*
X017038Y015503D02*
X017055Y015504D01*
X017072Y015509D01*
X017087Y015516D01*
X017101Y015526D01*
X017113Y015538D01*
X017123Y015552D01*
X017130Y015567D01*
X017135Y015584D01*
X017136Y015601D01*
X020326Y015601D02*
X020326Y015916D01*
X020327Y015933D01*
X020332Y015950D01*
X020339Y015965D01*
X020349Y015979D01*
X020361Y015991D01*
X020375Y016001D01*
X020390Y016008D01*
X020407Y016013D01*
X020424Y016014D01*
X020441Y016013D01*
X020458Y016008D01*
X020473Y016001D01*
X020487Y015991D01*
X020499Y015979D01*
X020509Y015965D01*
X020516Y015950D01*
X020521Y015933D01*
X020522Y015916D01*
X020523Y015916D02*
X020523Y015601D01*
X020424Y015503D02*
X020407Y015504D01*
X020390Y015509D01*
X020375Y015516D01*
X020361Y015526D01*
X020349Y015538D01*
X020339Y015552D01*
X020332Y015567D01*
X020327Y015584D01*
X020326Y015601D01*
X020424Y015503D02*
X020441Y015504D01*
X020458Y015509D01*
X020473Y015516D01*
X020487Y015526D01*
X020499Y015538D01*
X020509Y015552D01*
X020516Y015567D01*
X020521Y015584D01*
X020522Y015601D01*
X023160Y015601D02*
X023160Y015916D01*
X023161Y015916D02*
X023162Y015933D01*
X023167Y015950D01*
X023174Y015965D01*
X023184Y015979D01*
X023196Y015991D01*
X023210Y016001D01*
X023225Y016008D01*
X023242Y016013D01*
X023259Y016014D01*
X023276Y016013D01*
X023293Y016008D01*
X023308Y016001D01*
X023322Y015991D01*
X023334Y015979D01*
X023344Y015965D01*
X023351Y015950D01*
X023356Y015933D01*
X023357Y015916D01*
X023357Y015601D01*
X023259Y015503D02*
X023242Y015504D01*
X023225Y015509D01*
X023210Y015516D01*
X023196Y015526D01*
X023184Y015538D01*
X023174Y015552D01*
X023167Y015567D01*
X023162Y015584D01*
X023161Y015601D01*
X023259Y015503D02*
X023276Y015504D01*
X023293Y015509D01*
X023308Y015516D01*
X023322Y015526D01*
X023334Y015538D01*
X023344Y015552D01*
X023351Y015567D01*
X023356Y015584D01*
X023357Y015601D01*
X026546Y015601D02*
X026546Y015916D01*
X026547Y015916D02*
X026548Y015933D01*
X026553Y015950D01*
X026560Y015965D01*
X026570Y015979D01*
X026582Y015991D01*
X026596Y016001D01*
X026611Y016008D01*
X026628Y016013D01*
X026645Y016014D01*
X026662Y016013D01*
X026679Y016008D01*
X026694Y016001D01*
X026708Y015991D01*
X026720Y015979D01*
X026730Y015965D01*
X026737Y015950D01*
X026742Y015933D01*
X026743Y015916D01*
X026743Y015601D01*
X026645Y015503D02*
X026628Y015504D01*
X026611Y015509D01*
X026596Y015516D01*
X026582Y015526D01*
X026570Y015538D01*
X026560Y015552D01*
X026553Y015567D01*
X026548Y015584D01*
X026547Y015601D01*
X026645Y015503D02*
X026662Y015504D01*
X026679Y015509D01*
X026694Y015516D01*
X026708Y015526D01*
X026720Y015538D01*
X026730Y015552D01*
X026737Y015567D01*
X026742Y015584D01*
X026743Y015601D01*
X029381Y015601D02*
X029381Y015916D01*
X029382Y015933D01*
X029387Y015950D01*
X029394Y015965D01*
X029404Y015979D01*
X029416Y015991D01*
X029430Y016001D01*
X029445Y016008D01*
X029462Y016013D01*
X029479Y016014D01*
X029496Y016013D01*
X029513Y016008D01*
X029528Y016001D01*
X029542Y015991D01*
X029554Y015979D01*
X029564Y015965D01*
X029571Y015950D01*
X029576Y015933D01*
X029577Y015916D01*
X029578Y015916D02*
X029578Y015601D01*
X029479Y015503D02*
X029462Y015504D01*
X029445Y015509D01*
X029430Y015516D01*
X029416Y015526D01*
X029404Y015538D01*
X029394Y015552D01*
X029387Y015567D01*
X029382Y015584D01*
X029381Y015601D01*
X029479Y015503D02*
X029496Y015504D01*
X029513Y015509D01*
X029528Y015516D01*
X029542Y015526D01*
X029554Y015538D01*
X029564Y015552D01*
X029571Y015567D01*
X029576Y015584D01*
X029577Y015601D01*
X032767Y015601D02*
X032767Y015916D01*
X032768Y015933D01*
X032773Y015950D01*
X032780Y015965D01*
X032790Y015979D01*
X032802Y015991D01*
X032816Y016001D01*
X032831Y016008D01*
X032848Y016013D01*
X032865Y016014D01*
X032882Y016013D01*
X032899Y016008D01*
X032914Y016001D01*
X032928Y015991D01*
X032940Y015979D01*
X032950Y015965D01*
X032957Y015950D01*
X032962Y015933D01*
X032963Y015916D01*
X032963Y015601D01*
X032865Y015503D02*
X032848Y015504D01*
X032831Y015509D01*
X032816Y015516D01*
X032802Y015526D01*
X032790Y015538D01*
X032780Y015552D01*
X032773Y015567D01*
X032768Y015584D01*
X032767Y015601D01*
X032865Y015503D02*
X032882Y015504D01*
X032899Y015509D01*
X032914Y015516D01*
X032928Y015526D01*
X032940Y015538D01*
X032950Y015552D01*
X032957Y015567D01*
X032962Y015584D01*
X032963Y015601D01*
X035601Y015601D02*
X035601Y015916D01*
X035602Y015916D02*
X035603Y015933D01*
X035608Y015950D01*
X035615Y015965D01*
X035625Y015979D01*
X035637Y015991D01*
X035651Y016001D01*
X035666Y016008D01*
X035683Y016013D01*
X035700Y016014D01*
X035717Y016013D01*
X035734Y016008D01*
X035749Y016001D01*
X035763Y015991D01*
X035775Y015979D01*
X035785Y015965D01*
X035792Y015950D01*
X035797Y015933D01*
X035798Y015916D01*
X035798Y015601D01*
X035700Y015503D02*
X035683Y015504D01*
X035666Y015509D01*
X035651Y015516D01*
X035637Y015526D01*
X035625Y015538D01*
X035615Y015552D01*
X035608Y015567D01*
X035603Y015584D01*
X035602Y015601D01*
X035700Y015503D02*
X035717Y015504D01*
X035734Y015509D01*
X035749Y015516D01*
X035763Y015526D01*
X035775Y015538D01*
X035785Y015552D01*
X035792Y015567D01*
X035797Y015584D01*
X035798Y015601D01*
X035798Y029420D02*
X035798Y029735D01*
X035700Y029833D02*
X035683Y029832D01*
X035666Y029827D01*
X035651Y029820D01*
X035637Y029810D01*
X035625Y029798D01*
X035615Y029784D01*
X035608Y029769D01*
X035603Y029752D01*
X035602Y029735D01*
X035601Y029735D02*
X035601Y029420D01*
X035602Y029420D02*
X035603Y029403D01*
X035608Y029386D01*
X035615Y029371D01*
X035625Y029357D01*
X035637Y029345D01*
X035651Y029335D01*
X035666Y029328D01*
X035683Y029323D01*
X035700Y029322D01*
X035717Y029323D01*
X035734Y029328D01*
X035749Y029335D01*
X035763Y029345D01*
X035775Y029357D01*
X035785Y029371D01*
X035792Y029386D01*
X035797Y029403D01*
X035798Y029420D01*
X035798Y029735D02*
X035797Y029752D01*
X035792Y029769D01*
X035785Y029784D01*
X035775Y029798D01*
X035763Y029810D01*
X035749Y029820D01*
X035734Y029827D01*
X035717Y029832D01*
X035700Y029833D01*
X032963Y029735D02*
X032963Y029420D01*
X032865Y029322D02*
X032848Y029323D01*
X032831Y029328D01*
X032816Y029335D01*
X032802Y029345D01*
X032790Y029357D01*
X032780Y029371D01*
X032773Y029386D01*
X032768Y029403D01*
X032767Y029420D01*
X032767Y029735D01*
X032768Y029752D01*
X032773Y029769D01*
X032780Y029784D01*
X032790Y029798D01*
X032802Y029810D01*
X032816Y029820D01*
X032831Y029827D01*
X032848Y029832D01*
X032865Y029833D01*
X032882Y029832D01*
X032899Y029827D01*
X032914Y029820D01*
X032928Y029810D01*
X032940Y029798D01*
X032950Y029784D01*
X032957Y029769D01*
X032962Y029752D01*
X032963Y029735D01*
X032963Y029420D02*
X032962Y029403D01*
X032957Y029386D01*
X032950Y029371D01*
X032940Y029357D01*
X032928Y029345D01*
X032914Y029335D01*
X032899Y029328D01*
X032882Y029323D01*
X032865Y029322D01*
X029578Y029420D02*
X029578Y029735D01*
X029479Y029833D02*
X029462Y029832D01*
X029445Y029827D01*
X029430Y029820D01*
X029416Y029810D01*
X029404Y029798D01*
X029394Y029784D01*
X029387Y029769D01*
X029382Y029752D01*
X029381Y029735D01*
X029381Y029420D01*
X029382Y029403D01*
X029387Y029386D01*
X029394Y029371D01*
X029404Y029357D01*
X029416Y029345D01*
X029430Y029335D01*
X029445Y029328D01*
X029462Y029323D01*
X029479Y029322D01*
X029496Y029323D01*
X029513Y029328D01*
X029528Y029335D01*
X029542Y029345D01*
X029554Y029357D01*
X029564Y029371D01*
X029571Y029386D01*
X029576Y029403D01*
X029577Y029420D01*
X029577Y029735D02*
X029576Y029752D01*
X029571Y029769D01*
X029564Y029784D01*
X029554Y029798D01*
X029542Y029810D01*
X029528Y029820D01*
X029513Y029827D01*
X029496Y029832D01*
X029479Y029833D01*
X026743Y029735D02*
X026743Y029420D01*
X026645Y029322D02*
X026628Y029323D01*
X026611Y029328D01*
X026596Y029335D01*
X026582Y029345D01*
X026570Y029357D01*
X026560Y029371D01*
X026553Y029386D01*
X026548Y029403D01*
X026547Y029420D01*
X026546Y029420D02*
X026546Y029735D01*
X026547Y029735D02*
X026548Y029752D01*
X026553Y029769D01*
X026560Y029784D01*
X026570Y029798D01*
X026582Y029810D01*
X026596Y029820D01*
X026611Y029827D01*
X026628Y029832D01*
X026645Y029833D01*
X026662Y029832D01*
X026679Y029827D01*
X026694Y029820D01*
X026708Y029810D01*
X026720Y029798D01*
X026730Y029784D01*
X026737Y029769D01*
X026742Y029752D01*
X026743Y029735D01*
X026743Y029420D02*
X026742Y029403D01*
X026737Y029386D01*
X026730Y029371D01*
X026720Y029357D01*
X026708Y029345D01*
X026694Y029335D01*
X026679Y029328D01*
X026662Y029323D01*
X026645Y029322D01*
X023357Y029420D02*
X023357Y029735D01*
X023259Y029833D02*
X023242Y029832D01*
X023225Y029827D01*
X023210Y029820D01*
X023196Y029810D01*
X023184Y029798D01*
X023174Y029784D01*
X023167Y029769D01*
X023162Y029752D01*
X023161Y029735D01*
X023160Y029735D02*
X023160Y029420D01*
X023161Y029420D02*
X023162Y029403D01*
X023167Y029386D01*
X023174Y029371D01*
X023184Y029357D01*
X023196Y029345D01*
X023210Y029335D01*
X023225Y029328D01*
X023242Y029323D01*
X023259Y029322D01*
X023276Y029323D01*
X023293Y029328D01*
X023308Y029335D01*
X023322Y029345D01*
X023334Y029357D01*
X023344Y029371D01*
X023351Y029386D01*
X023356Y029403D01*
X023357Y029420D01*
X023357Y029735D02*
X023356Y029752D01*
X023351Y029769D01*
X023344Y029784D01*
X023334Y029798D01*
X023322Y029810D01*
X023308Y029820D01*
X023293Y029827D01*
X023276Y029832D01*
X023259Y029833D01*
X020523Y029735D02*
X020523Y029420D01*
X020424Y029322D02*
X020407Y029323D01*
X020390Y029328D01*
X020375Y029335D01*
X020361Y029345D01*
X020349Y029357D01*
X020339Y029371D01*
X020332Y029386D01*
X020327Y029403D01*
X020326Y029420D01*
X020326Y029735D01*
X020327Y029752D01*
X020332Y029769D01*
X020339Y029784D01*
X020349Y029798D01*
X020361Y029810D01*
X020375Y029820D01*
X020390Y029827D01*
X020407Y029832D01*
X020424Y029833D01*
X020441Y029832D01*
X020458Y029827D01*
X020473Y029820D01*
X020487Y029810D01*
X020499Y029798D01*
X020509Y029784D01*
X020516Y029769D01*
X020521Y029752D01*
X020522Y029735D01*
X020522Y029420D02*
X020521Y029403D01*
X020516Y029386D01*
X020509Y029371D01*
X020499Y029357D01*
X020487Y029345D01*
X020473Y029335D01*
X020458Y029328D01*
X020441Y029323D01*
X020424Y029322D01*
X017137Y029420D02*
X017137Y029735D01*
X017038Y029833D02*
X017021Y029832D01*
X017004Y029827D01*
X016989Y029820D01*
X016975Y029810D01*
X016963Y029798D01*
X016953Y029784D01*
X016946Y029769D01*
X016941Y029752D01*
X016940Y029735D01*
X016940Y029420D01*
X016941Y029403D01*
X016946Y029386D01*
X016953Y029371D01*
X016963Y029357D01*
X016975Y029345D01*
X016989Y029335D01*
X017004Y029328D01*
X017021Y029323D01*
X017038Y029322D01*
X017055Y029323D01*
X017072Y029328D01*
X017087Y029335D01*
X017101Y029345D01*
X017113Y029357D01*
X017123Y029371D01*
X017130Y029386D01*
X017135Y029403D01*
X017136Y029420D01*
X017136Y029735D02*
X017135Y029752D01*
X017130Y029769D01*
X017123Y029784D01*
X017113Y029798D01*
X017101Y029810D01*
X017087Y029820D01*
X017072Y029827D01*
X017055Y029832D01*
X017038Y029833D01*
X014302Y029735D02*
X014302Y029420D01*
X014204Y029322D02*
X014187Y029323D01*
X014170Y029328D01*
X014155Y029335D01*
X014141Y029345D01*
X014129Y029357D01*
X014119Y029371D01*
X014112Y029386D01*
X014107Y029403D01*
X014106Y029420D01*
X014105Y029420D02*
X014105Y029735D01*
X014106Y029735D02*
X014107Y029752D01*
X014112Y029769D01*
X014119Y029784D01*
X014129Y029798D01*
X014141Y029810D01*
X014155Y029820D01*
X014170Y029827D01*
X014187Y029832D01*
X014204Y029833D01*
X014221Y029832D01*
X014238Y029827D01*
X014253Y029820D01*
X014267Y029810D01*
X014279Y029798D01*
X014289Y029784D01*
X014296Y029769D01*
X014301Y029752D01*
X014302Y029735D01*
X014302Y029420D02*
X014301Y029403D01*
X014296Y029386D01*
X014289Y029371D01*
X014279Y029357D01*
X014267Y029345D01*
X014253Y029335D01*
X014238Y029328D01*
X014221Y029323D01*
X014204Y029322D01*
X010916Y029420D02*
X010916Y029735D01*
X010818Y029833D02*
X010801Y029832D01*
X010784Y029827D01*
X010769Y029820D01*
X010755Y029810D01*
X010743Y029798D01*
X010733Y029784D01*
X010726Y029769D01*
X010721Y029752D01*
X010720Y029735D01*
X010719Y029735D02*
X010719Y029420D01*
X010720Y029420D02*
X010721Y029403D01*
X010726Y029386D01*
X010733Y029371D01*
X010743Y029357D01*
X010755Y029345D01*
X010769Y029335D01*
X010784Y029328D01*
X010801Y029323D01*
X010818Y029322D01*
X010835Y029323D01*
X010852Y029328D01*
X010867Y029335D01*
X010881Y029345D01*
X010893Y029357D01*
X010903Y029371D01*
X010910Y029386D01*
X010915Y029403D01*
X010916Y029420D01*
X010916Y029735D02*
X010915Y029752D01*
X010910Y029769D01*
X010903Y029784D01*
X010893Y029798D01*
X010881Y029810D01*
X010867Y029820D01*
X010852Y029827D01*
X010835Y029832D01*
X010818Y029833D01*
X008082Y029735D02*
X008082Y029420D01*
X007983Y029322D02*
X007966Y029323D01*
X007949Y029328D01*
X007934Y029335D01*
X007920Y029345D01*
X007908Y029357D01*
X007898Y029371D01*
X007891Y029386D01*
X007886Y029403D01*
X007885Y029420D01*
X007885Y029735D01*
X007886Y029752D01*
X007891Y029769D01*
X007898Y029784D01*
X007908Y029798D01*
X007920Y029810D01*
X007934Y029820D01*
X007949Y029827D01*
X007966Y029832D01*
X007983Y029833D01*
X008000Y029832D01*
X008017Y029827D01*
X008032Y029820D01*
X008046Y029810D01*
X008058Y029798D01*
X008068Y029784D01*
X008075Y029769D01*
X008080Y029752D01*
X008081Y029735D01*
X008081Y029420D02*
X008080Y029403D01*
X008075Y029386D01*
X008068Y029371D01*
X008058Y029357D01*
X008046Y029345D01*
X008032Y029335D01*
X008017Y029328D01*
X008000Y029323D01*
X007983Y029322D01*
X004696Y029420D02*
X004696Y029735D01*
X004597Y029833D02*
X004580Y029832D01*
X004563Y029827D01*
X004548Y029820D01*
X004534Y029810D01*
X004522Y029798D01*
X004512Y029784D01*
X004505Y029769D01*
X004500Y029752D01*
X004499Y029735D01*
X004499Y029420D01*
X004500Y029403D01*
X004505Y029386D01*
X004512Y029371D01*
X004522Y029357D01*
X004534Y029345D01*
X004548Y029335D01*
X004563Y029328D01*
X004580Y029323D01*
X004597Y029322D01*
X004614Y029323D01*
X004631Y029328D01*
X004646Y029335D01*
X004660Y029345D01*
X004672Y029357D01*
X004682Y029371D01*
X004689Y029386D01*
X004694Y029403D01*
X004695Y029420D01*
X004695Y029735D02*
X004694Y029752D01*
X004689Y029769D01*
X004682Y029784D01*
X004672Y029798D01*
X004660Y029810D01*
X004646Y029820D01*
X004631Y029827D01*
X004614Y029832D01*
X004597Y029833D01*
X001861Y029735D02*
X001861Y029420D01*
X001763Y029322D02*
X001746Y029323D01*
X001729Y029328D01*
X001714Y029335D01*
X001700Y029345D01*
X001688Y029357D01*
X001678Y029371D01*
X001671Y029386D01*
X001666Y029403D01*
X001665Y029420D01*
X001664Y029420D02*
X001664Y029735D01*
X001665Y029735D02*
X001666Y029752D01*
X001671Y029769D01*
X001678Y029784D01*
X001688Y029798D01*
X001700Y029810D01*
X001714Y029820D01*
X001729Y029827D01*
X001746Y029832D01*
X001763Y029833D01*
X001780Y029832D01*
X001797Y029827D01*
X001812Y029820D01*
X001826Y029810D01*
X001838Y029798D01*
X001848Y029784D01*
X001855Y029769D01*
X001860Y029752D01*
X001861Y029735D01*
X001861Y029420D02*
X001860Y029403D01*
X001855Y029386D01*
X001848Y029371D01*
X001838Y029357D01*
X001826Y029345D01*
X001812Y029335D01*
X001797Y029328D01*
X001780Y029323D01*
X001763Y029322D01*
D11*
X001680Y019927D03*
X007900Y019927D03*
X014121Y019927D03*
X020341Y019927D03*
X026562Y019927D03*
X032782Y019927D03*
X032782Y006108D03*
X026562Y006108D03*
X020341Y006108D03*
X014121Y006108D03*
X007900Y006108D03*
X001680Y006108D03*
D12*
X002680Y006108D03*
X002680Y005108D03*
X001680Y005108D03*
X003680Y005108D03*
X004680Y005108D03*
X004680Y006108D03*
X003680Y006108D03*
X007900Y005108D03*
X008900Y005108D03*
X008900Y006108D03*
X009900Y006108D03*
X010900Y006108D03*
X010900Y005108D03*
X009900Y005108D03*
X014121Y005108D03*
X015121Y005108D03*
X016121Y005108D03*
X017121Y005108D03*
X017121Y006108D03*
X016121Y006108D03*
X015121Y006108D03*
X020341Y005108D03*
X021341Y005108D03*
X021341Y006108D03*
X022341Y006108D03*
X023341Y006108D03*
X023341Y005108D03*
X022341Y005108D03*
X026562Y005108D03*
X027562Y005108D03*
X028562Y005108D03*
X029562Y005108D03*
X029562Y006108D03*
X028562Y006108D03*
X027562Y006108D03*
X032782Y005108D03*
X033782Y005108D03*
X034782Y005108D03*
X034782Y006108D03*
X033782Y006108D03*
X035782Y006108D03*
X035782Y005108D03*
X035782Y018927D03*
X034782Y018927D03*
X033782Y018927D03*
X032782Y018927D03*
X033782Y019927D03*
X034782Y019927D03*
X035782Y019927D03*
X029562Y019927D03*
X028562Y019927D03*
X028562Y018927D03*
X029562Y018927D03*
X027562Y018927D03*
X026562Y018927D03*
X027562Y019927D03*
X023341Y019927D03*
X022341Y019927D03*
X021341Y019927D03*
X021341Y018927D03*
X020341Y018927D03*
X022341Y018927D03*
X023341Y018927D03*
X017121Y018927D03*
X017121Y019927D03*
X016121Y019927D03*
X015121Y019927D03*
X015121Y018927D03*
X016121Y018927D03*
X014121Y018927D03*
X010900Y018927D03*
X009900Y018927D03*
X008900Y018927D03*
X007900Y018927D03*
X008900Y019927D03*
X009900Y019927D03*
X010900Y019927D03*
X004680Y019927D03*
X003680Y019927D03*
X002680Y019927D03*
X002680Y018927D03*
X001680Y018927D03*
X003680Y018927D03*
X004680Y018927D03*
D13*
X003680Y017684D02*
X003680Y017044D01*
X002680Y017044D02*
X002680Y017684D01*
X001680Y017684D02*
X001680Y017044D01*
X000680Y017044D02*
X000680Y017684D01*
X006900Y017684D02*
X006900Y017044D01*
X007900Y017044D02*
X007900Y017684D01*
X008900Y017684D02*
X008900Y017044D01*
X009900Y017044D02*
X009900Y017684D01*
X013121Y017684D02*
X013121Y017044D01*
X014121Y017044D02*
X014121Y017684D01*
X015121Y017684D02*
X015121Y017044D01*
X016121Y017044D02*
X016121Y017684D01*
X019341Y017684D02*
X019341Y017044D01*
X020341Y017044D02*
X020341Y017684D01*
X021341Y017684D02*
X021341Y017044D01*
X022341Y017044D02*
X022341Y017684D01*
X025562Y017684D02*
X025562Y017044D01*
X026562Y017044D02*
X026562Y017684D01*
X027562Y017684D02*
X027562Y017044D01*
X028562Y017044D02*
X028562Y017684D01*
X031782Y017684D02*
X031782Y017044D01*
X032782Y017044D02*
X032782Y017684D01*
X033782Y017684D02*
X033782Y017044D01*
X034782Y017044D02*
X034782Y017684D01*
X034782Y003866D02*
X034782Y003226D01*
X033782Y003226D02*
X033782Y003866D01*
X032782Y003866D02*
X032782Y003226D01*
X031782Y003226D02*
X031782Y003866D01*
X028562Y003866D02*
X028562Y003226D01*
X027562Y003226D02*
X027562Y003866D01*
X026562Y003866D02*
X026562Y003226D01*
X025562Y003226D02*
X025562Y003866D01*
X022341Y003866D02*
X022341Y003226D01*
X021341Y003226D02*
X021341Y003866D01*
X020341Y003866D02*
X020341Y003226D01*
X019341Y003226D02*
X019341Y003866D01*
X016121Y003866D02*
X016121Y003226D01*
X015121Y003226D02*
X015121Y003866D01*
X014121Y003866D02*
X014121Y003226D01*
X013121Y003226D02*
X013121Y003866D01*
X009900Y003866D02*
X009900Y003226D01*
X008900Y003226D02*
X008900Y003866D01*
X007900Y003866D02*
X007900Y003226D01*
X006900Y003226D02*
X006900Y003866D01*
X003680Y003866D02*
X003680Y003226D01*
X002680Y003226D02*
X002680Y003866D01*
X001680Y003866D02*
X001680Y003226D01*
X000680Y003226D02*
X000680Y003866D01*
D14*
X005680Y003546D03*
X011900Y003546D03*
X018121Y003546D03*
X024341Y003546D03*
X030562Y003546D03*
X036782Y003546D03*
X036782Y017364D03*
X030562Y017364D03*
X024341Y017364D03*
X018121Y017364D03*
X011900Y017364D03*
X005680Y017364D03*
D15*
X004135Y014813D03*
X002225Y014813D03*
X008446Y014813D03*
X010355Y014813D03*
X014666Y014813D03*
X016576Y014813D03*
X020887Y014813D03*
X022796Y014813D03*
X027107Y014813D03*
X029017Y014813D03*
X033328Y014813D03*
X035237Y014813D03*
X035237Y028632D03*
X033328Y028632D03*
X029017Y028632D03*
X027107Y028632D03*
X022796Y028632D03*
X020887Y028632D03*
X016576Y028632D03*
X014666Y028632D03*
X010355Y028632D03*
X008446Y028632D03*
X004135Y028632D03*
X002225Y028632D03*
D16*
X001763Y029359D02*
X001763Y029795D01*
X004597Y029795D02*
X004597Y029359D01*
X007983Y029359D02*
X007983Y029795D01*
X010818Y029795D02*
X010818Y029359D01*
X014204Y029359D02*
X014204Y029795D01*
X017038Y029795D02*
X017038Y029359D01*
X020424Y029359D02*
X020424Y029795D01*
X023259Y029795D02*
X023259Y029359D01*
X026645Y029359D02*
X026645Y029795D01*
X029479Y029795D02*
X029479Y029359D01*
X032865Y029359D02*
X032865Y029795D01*
X035700Y029795D02*
X035700Y029359D01*
X035700Y015977D02*
X035700Y015540D01*
X032865Y015540D02*
X032865Y015977D01*
X029479Y015977D02*
X029479Y015540D01*
X026645Y015540D02*
X026645Y015977D01*
X023259Y015977D02*
X023259Y015540D01*
X020424Y015540D02*
X020424Y015977D01*
X017038Y015977D02*
X017038Y015540D01*
X014204Y015540D02*
X014204Y015977D01*
X010818Y015977D02*
X010818Y015540D01*
X007983Y015540D02*
X007983Y015977D01*
X004597Y015977D02*
X004597Y015540D01*
X001763Y015540D02*
X001763Y015977D01*
M02*
