G75*
%MOIN*%
%OFA0B0*%
%FSLAX24Y24*%
%IPPOS*%
%LPD*%
%AMOC8*
5,1,8,0,0,1.08239X$1,22.5*
%
%ADD10C,0.0000*%
%ADD11C,0.0030*%
%ADD12C,0.0020*%
%ADD13R,0.0200X0.0050*%
%ADD14R,0.0400X0.0050*%
%ADD15R,0.0250X0.0050*%
%ADD16R,0.0350X0.0050*%
%ADD17R,0.0050X0.0050*%
%ADD18R,0.0300X0.0050*%
%ADD19R,0.0150X0.0050*%
%ADD20R,0.0600X0.0050*%
%ADD21R,0.0650X0.0050*%
%ADD22R,0.0950X0.0050*%
%ADD23R,0.0900X0.0050*%
%ADD24R,0.0850X0.0050*%
%ADD25R,0.1050X0.0050*%
%ADD26R,0.0500X0.0050*%
%ADD27R,0.0450X0.0050*%
%ADD28R,0.0100X0.0050*%
%ADD29R,0.0700X0.0050*%
%ADD30R,0.0750X0.0050*%
%ADD31R,0.0550X0.0050*%
%ADD32R,0.0800X0.0050*%
%ADD33R,0.1000X0.0050*%
%ADD34R,0.1100X0.0050*%
%ADD35R,0.1150X0.0050*%
%ADD36R,0.1200X0.0050*%
%ADD37R,0.1250X0.0050*%
%ADD38R,0.1350X0.0050*%
%ADD39R,0.1400X0.0050*%
%ADD40R,0.1450X0.0050*%
%ADD41R,0.1500X0.0050*%
%ADD42R,0.1750X0.0050*%
%ADD43R,0.1600X0.0050*%
%ADD44R,0.1800X0.0050*%
%ADD45R,0.1650X0.0050*%
%ADD46R,0.1900X0.0050*%
%ADD47R,0.2000X0.0050*%
%ADD48R,0.2450X0.0050*%
%ADD49R,0.2550X0.0050*%
%ADD50R,0.1950X0.0050*%
%ADD51R,0.2250X0.0050*%
%ADD52R,0.2700X0.0050*%
%ADD53R,0.1550X0.0050*%
%ADD54R,0.2650X0.0050*%
%ADD55R,0.6250X0.0050*%
%ADD56R,0.6000X0.0050*%
%ADD57R,0.6200X0.0050*%
%ADD58R,0.6100X0.0050*%
%ADD59R,0.6050X0.0050*%
%ADD60R,0.5950X0.0050*%
%ADD61R,0.5850X0.0050*%
%ADD62R,0.5350X0.0050*%
%ADD63R,0.2350X0.0050*%
%ADD64R,0.3150X0.0050*%
%ADD65R,0.2300X0.0050*%
%ADD66R,0.3100X0.0050*%
%ADD67R,0.5200X0.0050*%
%ADD68R,0.4900X0.0050*%
%ADD69R,0.4850X0.0050*%
%ADD70R,0.4750X0.0050*%
%ADD71R,0.4400X0.0050*%
%ADD72R,0.3500X0.0050*%
%ADD73R,0.3450X0.0050*%
%ADD74R,0.3400X0.0050*%
%ADD75R,0.3350X0.0050*%
%ADD76R,0.2900X0.0050*%
%ADD77R,0.1850X0.0050*%
D10*
X001875Y000160D02*
X001875Y013906D01*
X007995Y013906D01*
X007995Y000160D01*
X001875Y000160D01*
X003359Y012965D02*
X003359Y013280D01*
X003360Y013280D02*
X003361Y013297D01*
X003366Y013314D01*
X003373Y013329D01*
X003383Y013343D01*
X003395Y013355D01*
X003409Y013365D01*
X003424Y013372D01*
X003441Y013377D01*
X003458Y013378D01*
X003475Y013377D01*
X003492Y013372D01*
X003507Y013365D01*
X003521Y013355D01*
X003533Y013343D01*
X003543Y013329D01*
X003550Y013314D01*
X003555Y013297D01*
X003556Y013280D01*
X003556Y012965D01*
X003458Y012867D02*
X003441Y012868D01*
X003424Y012873D01*
X003409Y012880D01*
X003395Y012890D01*
X003383Y012902D01*
X003373Y012916D01*
X003366Y012931D01*
X003361Y012948D01*
X003360Y012965D01*
X003458Y012867D02*
X003475Y012868D01*
X003492Y012873D01*
X003507Y012880D01*
X003521Y012890D01*
X003533Y012902D01*
X003543Y012916D01*
X003550Y012931D01*
X003555Y012948D01*
X003556Y012965D01*
X006194Y012965D02*
X006194Y013280D01*
X006195Y013297D01*
X006200Y013314D01*
X006207Y013329D01*
X006217Y013343D01*
X006229Y013355D01*
X006243Y013365D01*
X006258Y013372D01*
X006275Y013377D01*
X006292Y013378D01*
X006309Y013377D01*
X006326Y013372D01*
X006341Y013365D01*
X006355Y013355D01*
X006367Y013343D01*
X006377Y013329D01*
X006384Y013314D01*
X006389Y013297D01*
X006390Y013280D01*
X006391Y013280D02*
X006391Y012965D01*
X006292Y012867D02*
X006275Y012868D01*
X006258Y012873D01*
X006243Y012880D01*
X006229Y012890D01*
X006217Y012902D01*
X006207Y012916D01*
X006200Y012931D01*
X006195Y012948D01*
X006194Y012965D01*
X006292Y012867D02*
X006309Y012868D01*
X006326Y012873D01*
X006341Y012880D01*
X006355Y012890D01*
X006367Y012902D01*
X006377Y012916D01*
X006384Y012931D01*
X006389Y012948D01*
X006390Y012965D01*
D11*
X003764Y007520D02*
X003764Y007458D01*
X003764Y007334D02*
X003764Y007088D01*
X003825Y007088D02*
X003702Y007088D01*
X003580Y007149D02*
X003580Y007273D01*
X003518Y007334D01*
X003333Y007334D01*
X003333Y007088D02*
X003518Y007088D01*
X003580Y007149D01*
X003764Y007334D02*
X003825Y007334D01*
X003947Y007334D02*
X004009Y007334D01*
X004132Y007211D01*
X004132Y007088D02*
X004132Y007334D01*
X004254Y007334D02*
X004378Y007334D01*
X004316Y007396D02*
X004316Y007149D01*
X004254Y007088D01*
X004499Y007088D02*
X004685Y007088D01*
X004746Y007149D01*
X004746Y007273D01*
X004685Y007334D01*
X004499Y007334D01*
X004868Y007273D02*
X004868Y007211D01*
X005115Y007211D01*
X005115Y007273D02*
X005053Y007334D01*
X004929Y007334D01*
X004868Y007273D01*
X004929Y007088D02*
X005053Y007088D01*
X005115Y007149D01*
X005115Y007273D01*
X005237Y007088D02*
X005360Y007088D01*
X005298Y007088D02*
X005298Y007458D01*
X005360Y007458D01*
X005543Y007334D02*
X005482Y007273D01*
X005482Y007211D01*
X005728Y007211D01*
X005728Y007273D02*
X005667Y007334D01*
X005543Y007334D01*
X005543Y007088D02*
X005667Y007088D01*
X005728Y007149D01*
X005728Y007273D01*
X003212Y007334D02*
X003212Y006964D01*
X003212Y007088D02*
X003026Y007088D01*
X002965Y007149D01*
X002965Y007273D01*
X003026Y007334D01*
X003212Y007334D01*
X002843Y007334D02*
X002782Y007334D01*
X002782Y007088D01*
X002843Y007088D02*
X002720Y007088D01*
X002598Y007088D02*
X002598Y007334D01*
X002413Y007334D01*
X002351Y007273D01*
X002351Y007088D01*
X002229Y007088D02*
X002229Y007458D01*
X002044Y007334D02*
X002229Y007211D01*
X002044Y007088D01*
X002782Y007458D02*
X002782Y007520D01*
D12*
X002792Y006825D02*
X002792Y006545D01*
X002885Y006545D02*
X002698Y006545D01*
X002609Y006685D02*
X002422Y006685D01*
X002333Y006732D02*
X002192Y006732D01*
X002146Y006685D01*
X002146Y006592D01*
X002192Y006545D01*
X002333Y006545D01*
X002333Y006452D02*
X002333Y006732D01*
X002056Y006685D02*
X001870Y006685D01*
X001780Y006732D02*
X001687Y006545D01*
X001593Y006732D01*
X001504Y006732D02*
X001410Y006825D01*
X001410Y006545D01*
X001317Y006545D02*
X001504Y006545D01*
X002792Y006825D02*
X002885Y006732D01*
X002974Y006779D02*
X002974Y006592D01*
X003021Y006545D01*
X003115Y006545D01*
X003161Y006592D01*
X002974Y006779D01*
X003021Y006825D01*
X003115Y006825D01*
X003161Y006779D01*
X003161Y006592D01*
X003251Y006592D02*
X003251Y006685D01*
X003297Y006732D01*
X003438Y006732D01*
X003438Y006452D01*
X003438Y006545D02*
X003297Y006545D01*
X003251Y006592D01*
X003527Y006592D02*
X003574Y006638D01*
X003667Y006638D01*
X003714Y006685D01*
X003667Y006732D01*
X003527Y006732D01*
X003527Y006592D02*
X003574Y006545D01*
X003714Y006545D01*
X003803Y006638D02*
X003990Y006638D01*
X003990Y006592D02*
X003990Y006685D01*
X003943Y006732D01*
X003850Y006732D01*
X003803Y006685D01*
X003803Y006638D01*
X003850Y006545D02*
X003943Y006545D01*
X003990Y006592D01*
D13*
X004950Y009060D03*
X004950Y009110D03*
X005450Y008510D03*
X005650Y008110D03*
X007000Y010460D03*
X007050Y011210D03*
X006150Y011510D03*
X004900Y010760D03*
X003250Y011060D03*
X002800Y010160D03*
X002550Y010210D03*
X002350Y009510D03*
X002200Y011010D03*
X001550Y012160D03*
X003200Y012310D03*
X006950Y005410D03*
X006950Y004860D03*
X007300Y004510D03*
X007300Y006860D03*
X007300Y007060D03*
D14*
X007250Y004560D03*
X005450Y008660D03*
X004900Y009210D03*
X004850Y009360D03*
X007150Y010060D03*
X001450Y010810D03*
X000500Y011110D03*
X000350Y011060D03*
X000350Y011010D03*
X000300Y010960D03*
D15*
X000275Y010810D03*
X001475Y012210D03*
X002125Y012210D03*
X002925Y011110D03*
X004875Y009460D03*
X005475Y008810D03*
X005525Y008710D03*
X005625Y008060D03*
X005625Y007960D03*
X006875Y010560D03*
X006925Y011110D03*
X006175Y005060D03*
X006175Y005010D03*
X006825Y004760D03*
X006925Y004710D03*
X007025Y004660D03*
X007125Y004610D03*
D16*
X006725Y004810D03*
X007575Y008110D03*
X007575Y008160D03*
X006725Y010960D03*
X006775Y011010D03*
X005475Y008610D03*
X004875Y009410D03*
X003925Y009960D03*
X003325Y011110D03*
X002625Y009360D03*
X001475Y010760D03*
X000775Y011010D03*
X000275Y010910D03*
D17*
X000225Y010410D03*
X001225Y011960D03*
X001425Y011960D03*
X001775Y010860D03*
X002175Y010960D03*
X002725Y010210D03*
X003675Y009960D03*
X004125Y009460D03*
X004875Y010710D03*
X004025Y010960D03*
X005325Y008710D03*
X006025Y011660D03*
X007275Y010410D03*
X007725Y008410D03*
X007275Y006810D03*
X007025Y006260D03*
X007025Y005310D03*
X007025Y004810D03*
X002075Y012260D03*
X001375Y010710D03*
D18*
X001650Y012110D03*
X002600Y011110D03*
X002500Y010160D03*
X003900Y010010D03*
X004900Y009160D03*
X005450Y008760D03*
X005450Y008560D03*
X005650Y008010D03*
X006800Y011060D03*
X007000Y011160D03*
X007600Y008060D03*
X006650Y004860D03*
X000300Y010860D03*
D19*
X000275Y011210D03*
X003125Y012410D03*
X003125Y012460D03*
X003175Y012360D03*
X004025Y011010D03*
X004225Y010910D03*
X003925Y009460D03*
X005325Y011910D03*
X005775Y011710D03*
X007725Y008460D03*
X007275Y007010D03*
X007325Y006960D03*
X007325Y006910D03*
X007025Y006360D03*
X006875Y005460D03*
X007025Y005360D03*
X006275Y004910D03*
X006225Y004960D03*
X005625Y007910D03*
D20*
X006600Y006360D03*
X006600Y006310D03*
X006800Y006710D03*
X006850Y006810D03*
X006850Y006860D03*
X006850Y006910D03*
X006850Y007060D03*
X006750Y004960D03*
X006750Y004910D03*
X007000Y010110D03*
X006900Y010210D03*
X004050Y012260D03*
X004000Y012310D03*
X002600Y010110D03*
X002600Y009410D03*
D21*
X003925Y009760D03*
X003925Y009810D03*
X003975Y009710D03*
X003975Y009660D03*
X006675Y005060D03*
X006725Y005010D03*
X006775Y006460D03*
X006775Y006510D03*
X006775Y006560D03*
X006775Y006610D03*
X006775Y006660D03*
X006975Y010160D03*
D22*
X006875Y009410D03*
X007025Y009010D03*
X007075Y008960D03*
X007075Y008910D03*
X007125Y008810D03*
X007125Y008760D03*
X007175Y008360D03*
X007175Y008310D03*
X007225Y008210D03*
X007075Y007360D03*
X006425Y005860D03*
X006375Y005210D03*
X006425Y005160D03*
X006475Y005110D03*
X006425Y010060D03*
X002625Y009860D03*
X002625Y009810D03*
X002625Y009760D03*
X002625Y009710D03*
X001425Y010910D03*
D23*
X002650Y009910D03*
X002650Y009660D03*
X006200Y010110D03*
X007100Y008860D03*
X007150Y008460D03*
X007150Y008410D03*
X007150Y007960D03*
X007150Y007910D03*
X007100Y007210D03*
X006450Y006010D03*
X006450Y005960D03*
X006450Y005910D03*
X006350Y005310D03*
X006350Y005260D03*
D24*
X006325Y005360D03*
X006325Y005410D03*
X006325Y005460D03*
X006475Y006060D03*
X006975Y007110D03*
X007125Y007510D03*
X007175Y007810D03*
X007175Y007860D03*
X006125Y010160D03*
X002625Y010010D03*
X002625Y009960D03*
X002625Y009610D03*
X002625Y009560D03*
X002375Y012160D03*
D25*
X006375Y005660D03*
X006375Y005610D03*
X006375Y005560D03*
X006375Y005510D03*
X007225Y008010D03*
X007225Y008510D03*
X007225Y008560D03*
X007175Y008610D03*
X007175Y008660D03*
X007125Y008710D03*
X006975Y009160D03*
D26*
X006150Y005760D03*
X006150Y005710D03*
X003900Y009910D03*
X003950Y012360D03*
X002750Y012310D03*
D27*
X003925Y012410D03*
X003975Y009510D03*
X004875Y009310D03*
X004875Y009260D03*
X006175Y005810D03*
X006675Y005810D03*
X006675Y005760D03*
X006675Y005710D03*
X001425Y010860D03*
X001375Y011910D03*
D28*
X000250Y010360D03*
X000250Y010310D03*
X000200Y010460D03*
X000200Y010510D03*
X000200Y010560D03*
X000200Y010610D03*
X000200Y010660D03*
X000200Y010710D03*
X000200Y010760D03*
X000200Y011110D03*
X002550Y011060D03*
X002550Y009310D03*
X002700Y009310D03*
X003800Y010060D03*
X003950Y009410D03*
X004850Y009510D03*
X005500Y008460D03*
X005800Y010060D03*
X005300Y011960D03*
X003900Y012460D03*
X003750Y011010D03*
X006100Y006110D03*
X006650Y007410D03*
X007050Y006310D03*
X007500Y007260D03*
X007500Y007310D03*
X007700Y007710D03*
X007700Y007760D03*
X007700Y007810D03*
X007700Y007860D03*
X007700Y007910D03*
X007700Y007960D03*
X007100Y011260D03*
D29*
X006050Y010210D03*
X007000Y008160D03*
X007000Y008110D03*
X006550Y006260D03*
X006550Y006160D03*
X006550Y006110D03*
X002650Y009460D03*
D30*
X002625Y010060D03*
X006525Y006210D03*
X006725Y006410D03*
X007025Y007260D03*
X007025Y008060D03*
D31*
X006875Y007010D03*
X006875Y006960D03*
X006825Y006760D03*
X006775Y010910D03*
X003925Y009860D03*
X003925Y009610D03*
X003925Y009560D03*
X002775Y009510D03*
D32*
X002950Y012210D03*
X002900Y012260D03*
X007000Y007310D03*
X007000Y007160D03*
X007150Y007410D03*
X007150Y007460D03*
X007200Y007560D03*
X007200Y007610D03*
X007200Y007660D03*
X007200Y007710D03*
X007200Y007760D03*
D33*
X007200Y008260D03*
X007000Y009060D03*
X007000Y009110D03*
X003950Y012210D03*
X001500Y011010D03*
D34*
X006850Y009360D03*
X006900Y009260D03*
X006950Y009210D03*
D35*
X006875Y009310D03*
X006775Y009460D03*
X006775Y009510D03*
X006775Y009560D03*
D36*
X006750Y009610D03*
D37*
X006725Y009660D03*
D38*
X006775Y009710D03*
X006125Y010460D03*
X005975Y010560D03*
X001675Y011060D03*
X001275Y010960D03*
D39*
X006700Y010010D03*
X006750Y009760D03*
D40*
X006725Y009810D03*
X006675Y009960D03*
X006425Y010260D03*
D41*
X006700Y009910D03*
X006700Y009860D03*
D42*
X006425Y010310D03*
X006425Y010360D03*
X005975Y010660D03*
D43*
X006350Y010410D03*
D44*
X006200Y010510D03*
D45*
X005925Y010610D03*
D46*
X006050Y010710D03*
D47*
X006050Y010760D03*
D48*
X005875Y010810D03*
D49*
X005775Y010860D03*
D50*
X005425Y010910D03*
D51*
X005275Y010960D03*
X005275Y011010D03*
D52*
X005050Y011060D03*
D53*
X001625Y011110D03*
D54*
X005075Y011110D03*
D55*
X003275Y011160D03*
D56*
X003400Y011210D03*
D57*
X003300Y011260D03*
D58*
X003300Y011310D03*
D59*
X003325Y011360D03*
D60*
X003325Y011410D03*
D61*
X003375Y011460D03*
D62*
X003325Y011510D03*
D63*
X001825Y011560D03*
D64*
X004625Y011560D03*
D65*
X001850Y011610D03*
D66*
X004600Y011610D03*
D67*
X003300Y011660D03*
D68*
X003150Y011710D03*
D69*
X003175Y011760D03*
D70*
X003175Y011810D03*
D71*
X003250Y011860D03*
D72*
X003450Y011910D03*
D73*
X003425Y011960D03*
D74*
X003350Y012010D03*
D75*
X003275Y012060D03*
D76*
X003300Y012110D03*
D77*
X003775Y012160D03*
M02*
