G75*
%MOIN*%
%OFA0B0*%
%FSLAX24Y24*%
%IPPOS*%
%LPD*%
%AMOC8*
5,1,8,0,0,1.08239X$1,22.5*
%
%ADD10C,0.0000*%
D10*
X001814Y014530D02*
X001814Y014845D01*
X001815Y014862D01*
X001820Y014879D01*
X001827Y014894D01*
X001837Y014908D01*
X001849Y014920D01*
X001863Y014930D01*
X001878Y014937D01*
X001895Y014942D01*
X001912Y014943D01*
X001929Y014942D01*
X001946Y014937D01*
X001961Y014930D01*
X001975Y014920D01*
X001987Y014908D01*
X001997Y014894D01*
X002004Y014879D01*
X002009Y014862D01*
X002010Y014845D01*
X002010Y014530D01*
X001912Y014432D02*
X001895Y014433D01*
X001878Y014438D01*
X001863Y014445D01*
X001849Y014455D01*
X001837Y014467D01*
X001827Y014481D01*
X001820Y014496D01*
X001815Y014513D01*
X001814Y014530D01*
X001912Y014432D02*
X001929Y014433D01*
X001946Y014438D01*
X001961Y014445D01*
X001975Y014455D01*
X001987Y014467D01*
X001997Y014481D01*
X002004Y014496D01*
X002009Y014513D01*
X002010Y014530D01*
X004648Y014530D02*
X004648Y014845D01*
X004649Y014845D02*
X004650Y014862D01*
X004655Y014879D01*
X004662Y014894D01*
X004672Y014908D01*
X004684Y014920D01*
X004698Y014930D01*
X004713Y014937D01*
X004730Y014942D01*
X004747Y014943D01*
X004764Y014942D01*
X004781Y014937D01*
X004796Y014930D01*
X004810Y014920D01*
X004822Y014908D01*
X004832Y014894D01*
X004839Y014879D01*
X004844Y014862D01*
X004845Y014845D01*
X004845Y014530D01*
X004747Y014432D02*
X004730Y014433D01*
X004713Y014438D01*
X004698Y014445D01*
X004684Y014455D01*
X004672Y014467D01*
X004662Y014481D01*
X004655Y014496D01*
X004650Y014513D01*
X004649Y014530D01*
X004747Y014432D02*
X004764Y014433D01*
X004781Y014438D01*
X004796Y014445D01*
X004810Y014455D01*
X004822Y014467D01*
X004832Y014481D01*
X004839Y014496D01*
X004844Y014513D01*
X004845Y014530D01*
M02*
