G75*
%MOIN*%
%OFA0B0*%
%FSLAX24Y24*%
%IPPOS*%
%LPD*%
%AMOC8*
5,1,8,0,0,1.08239X$1,22.5*
%
%ADD10R,0.0394X0.0433*%
%ADD11R,0.0433X0.0394*%
%ADD12R,0.0450X0.0150*%
%ADD13R,0.0591X0.0591*%
%ADD14C,0.0591*%
%ADD15R,0.0236X0.0276*%
%ADD16C,0.0600*%
%ADD17OC8,0.0600*%
%ADD18R,0.0480X0.0880*%
%ADD19R,0.1417X0.0866*%
%ADD20R,0.0236X0.0531*%
%ADD21R,0.0157X0.0492*%
%ADD22C,0.0512*%
%ADD23C,0.0531*%
%ADD24C,0.1220*%
%ADD25C,0.0100*%
%ADD26C,0.0280*%
%ADD27C,0.0160*%
D10*
X001020Y004914D03*
X001020Y005583D03*
X001845Y006607D03*
X001845Y007276D03*
X003814Y007276D03*
X003814Y006607D03*
X005388Y006607D03*
X005388Y007276D03*
X005708Y003521D03*
X005708Y002851D03*
X005782Y012119D03*
X005782Y012788D03*
X004601Y012788D03*
X004601Y012119D03*
X002239Y012119D03*
X002239Y012788D03*
D11*
X003420Y012788D03*
X003420Y012119D03*
X001058Y012119D03*
X001058Y012788D03*
X002020Y005583D03*
X002020Y004914D03*
X003020Y004914D03*
X003020Y005583D03*
X004020Y005583D03*
X004020Y004914D03*
D12*
X002825Y008517D03*
X002825Y008767D03*
X002825Y009017D03*
X002825Y009267D03*
X002825Y009517D03*
X002825Y009767D03*
X002825Y010017D03*
X002825Y010267D03*
X002825Y010517D03*
X002825Y010767D03*
X000715Y010767D03*
X000715Y010517D03*
X000715Y010267D03*
X000715Y010017D03*
X000715Y009767D03*
X000715Y009517D03*
X000715Y009267D03*
X000715Y009017D03*
X000715Y008767D03*
X000715Y008517D03*
D13*
X001770Y003561D03*
D14*
X001770Y002561D03*
X002770Y002561D03*
X002770Y003561D03*
X003770Y003561D03*
X003770Y002561D03*
X004770Y002561D03*
X004770Y003561D03*
D15*
X004896Y004855D03*
X005270Y005642D03*
X005644Y004855D03*
D16*
X003770Y001298D02*
X003770Y000698D01*
X002770Y000698D02*
X002770Y001298D01*
X001770Y001298D02*
X001770Y000698D01*
X000770Y000698D02*
X000770Y001298D01*
D17*
X005770Y000998D03*
D18*
X005680Y008422D03*
X004770Y008422D03*
X003860Y008422D03*
D19*
X004770Y010862D03*
D20*
X003644Y014806D03*
X003014Y014806D03*
D21*
X003073Y013752D03*
X002818Y013752D03*
X003329Y013752D03*
X003585Y013752D03*
X003841Y013752D03*
D22*
X004284Y013743D03*
X002375Y013743D03*
D23*
X001912Y014422D02*
X001912Y014953D01*
X004747Y014953D02*
X004747Y014422D01*
D24*
X005625Y013870D03*
X001058Y013870D03*
D25*
X000440Y008312D02*
X000440Y001577D01*
X000527Y001663D01*
X000685Y001728D01*
X000856Y001728D01*
X001014Y001663D01*
X001076Y001601D01*
X001623Y002148D01*
X001633Y002158D01*
X001529Y002200D01*
X001410Y002320D01*
X001345Y002476D01*
X001345Y002646D01*
X001410Y002802D01*
X001489Y002881D01*
X001196Y002881D01*
X001090Y002986D01*
X001090Y004549D01*
X001072Y004567D01*
X000770Y004567D01*
X000693Y004643D01*
X000693Y005184D01*
X000758Y005248D01*
X000693Y005313D01*
X000693Y005853D01*
X000770Y005930D01*
X001018Y005930D01*
X001153Y006119D01*
X001153Y006135D01*
X001195Y006178D01*
X001230Y006226D01*
X001246Y006229D01*
X001258Y006241D01*
X001318Y006241D01*
X001377Y006251D01*
X001390Y006241D01*
X001567Y006241D01*
X001544Y006254D01*
X001512Y006286D01*
X001490Y006325D01*
X001478Y006368D01*
X001478Y006558D01*
X001797Y006558D01*
X001797Y006655D01*
X001478Y006655D01*
X001478Y006846D01*
X001490Y006889D01*
X001512Y006928D01*
X001544Y006959D01*
X001557Y006967D01*
X001518Y007006D01*
X001518Y007546D01*
X001594Y007623D01*
X001635Y007623D01*
X001635Y008930D01*
X002310Y009605D01*
X002430Y009725D01*
X002430Y009767D01*
X002825Y009767D01*
X002825Y009767D01*
X002430Y009767D01*
X002430Y009865D01*
X002442Y009908D01*
X002464Y009947D01*
X002470Y009953D01*
X002470Y010032D01*
X002387Y009997D01*
X002279Y009997D01*
X002180Y010038D01*
X002161Y010057D01*
X001362Y010057D01*
X001437Y009983D01*
X001478Y009883D01*
X001478Y009776D01*
X001437Y009677D01*
X001361Y009601D01*
X001262Y009560D01*
X001154Y009560D01*
X001110Y009578D01*
X001110Y009517D01*
X000715Y009517D01*
X000715Y009517D01*
X001110Y009517D01*
X001110Y009420D01*
X001099Y009377D01*
X001076Y009338D01*
X001070Y009332D01*
X001070Y008388D01*
X000994Y008312D01*
X000440Y008312D01*
X000440Y008227D02*
X001635Y008227D01*
X001635Y008325D02*
X001007Y008325D01*
X001070Y008424D02*
X001635Y008424D01*
X001635Y008522D02*
X001070Y008522D01*
X001070Y008621D02*
X001635Y008621D01*
X001635Y008719D02*
X001070Y008719D01*
X001070Y008818D02*
X001635Y008818D01*
X001635Y008916D02*
X001070Y008916D01*
X001070Y009015D02*
X001720Y009015D01*
X001818Y009113D02*
X001070Y009113D01*
X001070Y009212D02*
X001917Y009212D01*
X002015Y009310D02*
X001070Y009310D01*
X001107Y009409D02*
X002114Y009409D01*
X002212Y009507D02*
X001110Y009507D01*
X001208Y009830D02*
X001020Y010017D01*
X000715Y010017D01*
X000715Y010767D02*
X001208Y010767D01*
X001419Y010000D02*
X002272Y010000D01*
X002393Y010000D02*
X002470Y010000D01*
X002440Y009901D02*
X001470Y009901D01*
X001478Y009803D02*
X002430Y009803D01*
X002409Y009704D02*
X001448Y009704D01*
X001366Y009606D02*
X002311Y009606D01*
X002470Y009171D02*
X002470Y008388D01*
X002546Y008312D01*
X003094Y008312D01*
X003119Y008287D01*
X003219Y008246D01*
X003326Y008246D01*
X003425Y008287D01*
X003450Y008312D01*
X003450Y008018D01*
X002055Y008018D01*
X002055Y008756D01*
X002470Y009171D01*
X002470Y009113D02*
X002412Y009113D01*
X002470Y009015D02*
X002314Y009015D01*
X002215Y008916D02*
X002470Y008916D01*
X002470Y008818D02*
X002117Y008818D01*
X002055Y008719D02*
X002470Y008719D01*
X002470Y008621D02*
X002055Y008621D01*
X002055Y008522D02*
X002470Y008522D01*
X002470Y008424D02*
X002055Y008424D01*
X002055Y008325D02*
X002533Y008325D01*
X002825Y008517D02*
X002829Y008516D01*
X003272Y008516D01*
X003125Y008762D02*
X003272Y008910D01*
X003125Y008762D02*
X002829Y008762D01*
X002825Y008767D01*
X003195Y009602D02*
X003209Y009627D01*
X003220Y009670D01*
X003220Y009767D01*
X002825Y009767D01*
X002825Y009812D01*
X002825Y009812D01*
X002825Y009767D01*
X002825Y009767D01*
X002825Y009767D01*
X003220Y009767D01*
X003220Y009865D01*
X003209Y009908D01*
X003186Y009947D01*
X003180Y009953D01*
X003180Y010415D01*
X003875Y009720D01*
X003875Y009651D01*
X003896Y009602D01*
X003195Y009602D01*
X003197Y009606D02*
X003894Y009606D01*
X003875Y009704D02*
X003220Y009704D01*
X003220Y009803D02*
X003792Y009803D01*
X003694Y009901D02*
X003210Y009901D01*
X003180Y010000D02*
X003595Y010000D01*
X003497Y010098D02*
X003180Y010098D01*
X003180Y010197D02*
X003398Y010197D01*
X003300Y010295D02*
X003180Y010295D01*
X003180Y010394D02*
X003201Y010394D01*
X003083Y010767D02*
X004145Y009705D01*
X004060Y010189D02*
X003912Y010337D01*
X003912Y010977D01*
X002190Y010977D01*
X001058Y012109D01*
X001058Y012119D01*
X001451Y012355D02*
X001058Y012748D01*
X001058Y012788D01*
X001252Y013115D02*
X001309Y013130D01*
X001404Y013169D01*
X001492Y013220D01*
X001573Y013283D01*
X001646Y013355D01*
X001708Y013436D01*
X001759Y013525D01*
X001798Y013619D01*
X001825Y013718D01*
X001838Y013819D01*
X001838Y013820D01*
X001108Y013820D01*
X001108Y013920D01*
X001838Y013920D01*
X001838Y013922D01*
X001825Y014023D01*
X001823Y014030D01*
X001833Y014026D01*
X001991Y014026D01*
X002136Y014086D01*
X002248Y014197D01*
X002308Y014343D01*
X002308Y015032D01*
X002248Y015177D01*
X002136Y015289D01*
X002107Y015301D01*
X004552Y015301D01*
X004523Y015289D01*
X004411Y015177D01*
X004351Y015032D01*
X004351Y014343D01*
X004411Y014197D01*
X004523Y014086D01*
X004668Y014026D01*
X004825Y014026D01*
X004863Y014041D01*
X004858Y014023D01*
X004844Y013922D01*
X004844Y013920D01*
X005575Y013920D01*
X005575Y013820D01*
X004844Y013820D01*
X004844Y013819D01*
X004858Y013718D01*
X004884Y013619D01*
X004923Y013525D01*
X004975Y013436D01*
X005037Y013355D01*
X005109Y013283D01*
X005190Y013220D01*
X005279Y013169D01*
X005373Y013130D01*
X005450Y013110D01*
X005449Y013109D01*
X005427Y013070D01*
X005415Y013027D01*
X005415Y012836D01*
X005734Y012836D01*
X005734Y012739D01*
X005415Y012739D01*
X005415Y012549D01*
X005427Y012506D01*
X005449Y012467D01*
X005481Y012435D01*
X005494Y012428D01*
X005455Y012389D01*
X005455Y011848D01*
X005531Y011772D01*
X005571Y011772D01*
X005569Y011389D01*
X005533Y011425D01*
X004008Y011425D01*
X003932Y011349D01*
X003932Y011157D01*
X003172Y011157D01*
X003198Y011218D01*
X003198Y011326D01*
X003157Y011425D01*
X003108Y011474D01*
X003108Y011542D01*
X003357Y011792D01*
X003690Y011792D01*
X003766Y011868D01*
X003766Y011978D01*
X004274Y011978D01*
X004274Y011848D01*
X004350Y011772D01*
X004852Y011772D01*
X004928Y011848D01*
X004928Y012389D01*
X004889Y012428D01*
X004902Y012435D01*
X004934Y012467D01*
X004956Y012506D01*
X004968Y012549D01*
X004968Y012739D01*
X004649Y012739D01*
X004649Y012836D01*
X004553Y012836D01*
X004553Y013174D01*
X004382Y013174D01*
X004339Y013163D01*
X004300Y013140D01*
X004268Y013109D01*
X004246Y013070D01*
X004234Y013027D01*
X004234Y012836D01*
X004553Y012836D01*
X004553Y012739D01*
X004234Y012739D01*
X004234Y012678D01*
X004149Y012713D01*
X004122Y012713D01*
X004035Y012800D01*
X004035Y013438D01*
X004039Y013442D01*
X004065Y013415D01*
X004207Y013357D01*
X004361Y013357D01*
X004503Y013415D01*
X004611Y013524D01*
X004670Y013666D01*
X004670Y013819D01*
X004611Y013961D01*
X004503Y014070D01*
X004361Y014128D01*
X004346Y014128D01*
X004346Y014158D01*
X004299Y014271D01*
X004212Y014358D01*
X004099Y014405D01*
X003977Y014405D01*
X003864Y014358D01*
X003777Y014271D01*
X003730Y014158D01*
X003730Y014128D01*
X003007Y014128D01*
X003001Y014134D01*
X002962Y014157D01*
X002925Y014167D01*
X002882Y014271D01*
X002795Y014358D01*
X002682Y014405D01*
X002559Y014405D01*
X002446Y014358D01*
X002360Y014271D01*
X002313Y014158D01*
X002313Y014128D01*
X002298Y014128D01*
X002156Y014070D01*
X002047Y013961D01*
X001989Y013819D01*
X001989Y013666D01*
X002047Y013524D01*
X002156Y013415D01*
X002298Y013357D01*
X002451Y013357D01*
X002593Y013415D01*
X002594Y013416D01*
X002603Y013402D01*
X002634Y013370D01*
X002673Y013348D01*
X002716Y013336D01*
X002818Y013336D01*
X002919Y013336D01*
X002962Y013348D01*
X003001Y013370D01*
X003007Y013376D01*
X003027Y013376D01*
X002606Y012978D01*
X002606Y013027D01*
X002594Y013070D01*
X002572Y013109D01*
X002540Y013140D01*
X002501Y013163D01*
X002458Y013174D01*
X002287Y013174D01*
X002287Y012836D01*
X002190Y012836D01*
X002190Y012739D01*
X001872Y012739D01*
X001872Y012549D01*
X001884Y012506D01*
X001906Y012467D01*
X001938Y012435D01*
X001951Y012428D01*
X001912Y012389D01*
X001912Y012338D01*
X001631Y012338D01*
X001631Y012429D01*
X001404Y012656D01*
X001404Y013038D01*
X001328Y013115D01*
X001252Y013115D01*
X001362Y013152D02*
X001958Y013152D01*
X001976Y013163D02*
X001938Y013140D01*
X001906Y013109D01*
X001884Y013070D01*
X001872Y013027D01*
X001872Y012836D01*
X002190Y012836D01*
X002190Y013174D01*
X002020Y013174D01*
X001976Y013163D01*
X001879Y013053D02*
X001389Y013053D01*
X001404Y012955D02*
X001872Y012955D01*
X001872Y012856D02*
X001404Y012856D01*
X001404Y012758D02*
X002190Y012758D01*
X002190Y012856D02*
X002287Y012856D01*
X002287Y012955D02*
X002190Y012955D01*
X002190Y013053D02*
X002287Y013053D01*
X002287Y013152D02*
X002190Y013152D01*
X002124Y013447D02*
X001714Y013447D01*
X001768Y013546D02*
X002038Y013546D01*
X001998Y013644D02*
X001805Y013644D01*
X001828Y013743D02*
X001989Y013743D01*
X001998Y013841D02*
X001108Y013841D01*
X001108Y013920D02*
X001008Y013920D01*
X001008Y014651D01*
X001007Y014651D01*
X000905Y014637D01*
X000806Y014611D01*
X000712Y014572D01*
X000623Y014521D01*
X000542Y014458D01*
X000470Y014386D01*
X000440Y014348D01*
X000440Y015301D01*
X001717Y015301D01*
X001688Y015289D01*
X001577Y015177D01*
X001516Y015032D01*
X001516Y014502D01*
X001492Y014521D01*
X001404Y014572D01*
X001309Y014611D01*
X001210Y014637D01*
X001109Y014651D01*
X001108Y014651D01*
X001108Y013920D01*
X001108Y013940D02*
X001008Y013940D01*
X001008Y014038D02*
X001108Y014038D01*
X001108Y014137D02*
X001008Y014137D01*
X001008Y014235D02*
X001108Y014235D01*
X001108Y014334D02*
X001008Y014334D01*
X001008Y014432D02*
X001108Y014432D01*
X001108Y014531D02*
X001008Y014531D01*
X001008Y014629D02*
X001108Y014629D01*
X001240Y014629D02*
X001516Y014629D01*
X001516Y014531D02*
X001474Y014531D01*
X001516Y014728D02*
X000440Y014728D01*
X000440Y014826D02*
X001516Y014826D01*
X001516Y014925D02*
X000440Y014925D01*
X000440Y015023D02*
X001516Y015023D01*
X001554Y015122D02*
X000440Y015122D01*
X000440Y015220D02*
X001620Y015220D01*
X002204Y015220D02*
X004454Y015220D01*
X004388Y015122D02*
X003892Y015122D01*
X003892Y015125D02*
X003816Y015201D01*
X003472Y015201D01*
X003396Y015125D01*
X003396Y014486D01*
X003472Y014410D01*
X003816Y014410D01*
X003892Y014486D01*
X003892Y015125D01*
X003892Y015023D02*
X004351Y015023D01*
X004351Y014925D02*
X003892Y014925D01*
X003892Y014826D02*
X004351Y014826D01*
X004351Y014728D02*
X003892Y014728D01*
X003892Y014629D02*
X004351Y014629D01*
X004351Y014531D02*
X003892Y014531D01*
X003839Y014432D02*
X004351Y014432D01*
X004355Y014334D02*
X004236Y014334D01*
X004314Y014235D02*
X004395Y014235D01*
X004346Y014137D02*
X004472Y014137D01*
X004534Y014038D02*
X004638Y014038D01*
X004620Y013940D02*
X004847Y013940D01*
X004856Y014038D02*
X004862Y014038D01*
X004854Y013743D02*
X004670Y013743D01*
X004661Y013841D02*
X005575Y013841D01*
X005575Y013920D02*
X005575Y014651D01*
X005574Y014651D01*
X005472Y014637D01*
X005373Y014611D01*
X005279Y014572D01*
X005190Y014521D01*
X005142Y014484D01*
X005142Y015032D01*
X005082Y015177D01*
X004971Y015289D01*
X004941Y015301D01*
X006220Y015301D01*
X006220Y014376D01*
X006213Y014386D01*
X006140Y014458D01*
X006059Y014521D01*
X005970Y014572D01*
X005876Y014611D01*
X005777Y014637D01*
X005676Y014651D01*
X005675Y014651D01*
X005675Y013920D01*
X005575Y013920D01*
X005575Y013940D02*
X005675Y013940D01*
X005675Y014038D02*
X005575Y014038D01*
X005575Y014137D02*
X005675Y014137D01*
X005675Y014235D02*
X005575Y014235D01*
X005575Y014334D02*
X005675Y014334D01*
X005675Y014432D02*
X005575Y014432D01*
X005575Y014531D02*
X005675Y014531D01*
X005675Y014629D02*
X005575Y014629D01*
X005443Y014629D02*
X005142Y014629D01*
X005142Y014531D02*
X005208Y014531D01*
X005142Y014728D02*
X006220Y014728D01*
X006220Y014826D02*
X005142Y014826D01*
X005142Y014925D02*
X006220Y014925D01*
X006220Y015023D02*
X005142Y015023D01*
X005105Y015122D02*
X006220Y015122D01*
X006220Y015220D02*
X005039Y015220D01*
X004877Y013644D02*
X004661Y013644D01*
X004620Y013546D02*
X004915Y013546D01*
X004968Y013447D02*
X004535Y013447D01*
X004553Y013152D02*
X004649Y013152D01*
X004649Y013174D02*
X004649Y012836D01*
X004968Y012836D01*
X004968Y013027D01*
X004956Y013070D01*
X004934Y013109D01*
X004902Y013140D01*
X004863Y013163D01*
X004820Y013174D01*
X004649Y013174D01*
X004649Y013053D02*
X004553Y013053D01*
X004553Y012955D02*
X004649Y012955D01*
X004649Y012856D02*
X004553Y012856D01*
X004553Y012758D02*
X004078Y012758D01*
X004035Y012856D02*
X004234Y012856D01*
X004234Y012955D02*
X004035Y012955D01*
X004035Y013053D02*
X004241Y013053D01*
X004320Y013152D02*
X004035Y013152D01*
X004035Y013250D02*
X005151Y013250D01*
X005043Y013349D02*
X004035Y013349D01*
X003730Y014137D02*
X002996Y014137D01*
X002896Y014235D02*
X003762Y014235D01*
X003840Y014334D02*
X002819Y014334D01*
X002842Y014410D02*
X002766Y014486D01*
X002766Y015125D01*
X002842Y015201D01*
X003186Y015201D01*
X003263Y015125D01*
X003263Y014486D01*
X003186Y014410D01*
X002842Y014410D01*
X002820Y014432D02*
X002308Y014432D01*
X002304Y014334D02*
X002423Y014334D01*
X002345Y014235D02*
X002263Y014235D01*
X002313Y014137D02*
X002187Y014137D01*
X002125Y014038D02*
X002021Y014038D01*
X002039Y013940D02*
X001836Y013940D01*
X001640Y013349D02*
X002671Y013349D01*
X002818Y013349D02*
X002818Y013349D01*
X002818Y013336D02*
X002818Y013752D01*
X002818Y013752D01*
X002818Y013336D01*
X002818Y013447D02*
X002818Y013447D01*
X002818Y013546D02*
X002818Y013546D01*
X002818Y013644D02*
X002818Y013644D01*
X002818Y013743D02*
X002818Y013743D01*
X002964Y013349D02*
X002998Y013349D01*
X002894Y013250D02*
X001531Y013250D01*
X001404Y012659D02*
X001872Y012659D01*
X001872Y012561D02*
X001500Y012561D01*
X001598Y012462D02*
X001910Y012462D01*
X001912Y012364D02*
X001631Y012364D01*
X001451Y012355D02*
X001451Y012158D01*
X002239Y012158D01*
X002239Y012119D01*
X002288Y012158D01*
X002583Y012453D01*
X002583Y012709D01*
X003312Y013398D01*
X003312Y013831D01*
X003329Y013752D01*
X003558Y013831D02*
X003585Y013752D01*
X003558Y013831D02*
X003558Y012699D01*
X003420Y012788D01*
X003420Y012748D01*
X003814Y012355D01*
X003814Y012158D01*
X004601Y012158D01*
X004601Y012119D01*
X004349Y011773D02*
X003339Y011773D01*
X003240Y011674D02*
X005570Y011674D01*
X005570Y011576D02*
X003142Y011576D01*
X003108Y011477D02*
X005569Y011477D01*
X005530Y011773D02*
X004853Y011773D01*
X004928Y011871D02*
X005455Y011871D01*
X005455Y011970D02*
X004928Y011970D01*
X004928Y012068D02*
X005455Y012068D01*
X005455Y012167D02*
X004928Y012167D01*
X004928Y012265D02*
X005455Y012265D01*
X005455Y012364D02*
X004928Y012364D01*
X004929Y012462D02*
X005454Y012462D01*
X005415Y012561D02*
X004968Y012561D01*
X004968Y012659D02*
X005415Y012659D01*
X005415Y012856D02*
X004968Y012856D01*
X004968Y012955D02*
X005415Y012955D01*
X005422Y013053D02*
X004961Y013053D01*
X004882Y013152D02*
X005320Y013152D01*
X005734Y012758D02*
X004649Y012758D01*
X004274Y011970D02*
X003766Y011970D01*
X003766Y011871D02*
X004274Y011871D01*
X003961Y011379D02*
X003176Y011379D01*
X003198Y011280D02*
X003932Y011280D01*
X003932Y011182D02*
X003183Y011182D01*
X003083Y010767D02*
X002825Y010767D01*
X002928Y011272D02*
X002928Y011617D01*
X003420Y012109D01*
X003420Y012119D01*
X002790Y013152D02*
X002520Y013152D01*
X002598Y013053D02*
X002685Y013053D01*
X003209Y014432D02*
X003450Y014432D01*
X003396Y014531D02*
X003263Y014531D01*
X003263Y014629D02*
X003396Y014629D01*
X003396Y014728D02*
X003263Y014728D01*
X003263Y014826D02*
X003396Y014826D01*
X003396Y014925D02*
X003263Y014925D01*
X003263Y015023D02*
X003396Y015023D01*
X003396Y015122D02*
X003263Y015122D01*
X002766Y015122D02*
X002270Y015122D01*
X002308Y015023D02*
X002766Y015023D01*
X002766Y014925D02*
X002308Y014925D01*
X002308Y014826D02*
X002766Y014826D01*
X002766Y014728D02*
X002308Y014728D01*
X002308Y014629D02*
X002766Y014629D01*
X002766Y014531D02*
X002308Y014531D01*
X000876Y014629D02*
X000440Y014629D01*
X000440Y014531D02*
X000641Y014531D01*
X000516Y014432D02*
X000440Y014432D01*
X002825Y009803D02*
X002825Y009803D01*
X003499Y009177D02*
X003443Y009121D01*
X003501Y009063D01*
X003526Y009004D01*
X003555Y009021D01*
X003598Y009032D01*
X003810Y009032D01*
X003810Y008472D01*
X003542Y008472D01*
X003542Y008462D01*
X003505Y008372D01*
X003810Y008372D01*
X003810Y008472D01*
X003910Y008472D01*
X003910Y009032D01*
X004123Y009032D01*
X004158Y009023D01*
X004245Y009110D01*
X004317Y009182D01*
X003501Y009182D01*
X003499Y009177D01*
X003451Y009113D02*
X004248Y009113D01*
X003910Y009015D02*
X003810Y009015D01*
X003810Y008916D02*
X003910Y008916D01*
X003910Y008818D02*
X003810Y008818D01*
X003810Y008719D02*
X003910Y008719D01*
X003910Y008621D02*
X003810Y008621D01*
X003810Y008522D02*
X003910Y008522D01*
X003810Y008424D02*
X003526Y008424D01*
X003450Y008227D02*
X002055Y008227D01*
X002055Y008128D02*
X003450Y008128D01*
X003450Y008030D02*
X002055Y008030D01*
X002120Y007598D02*
X003539Y007598D01*
X003487Y007546D01*
X003487Y007006D01*
X003526Y006967D01*
X003512Y006959D01*
X003481Y006928D01*
X003458Y006889D01*
X003447Y006846D01*
X003447Y006655D01*
X003765Y006655D01*
X003765Y006558D01*
X003447Y006558D01*
X003447Y006368D01*
X003458Y006325D01*
X003481Y006286D01*
X003512Y006254D01*
X003535Y006241D01*
X002123Y006241D01*
X002146Y006254D01*
X002178Y006286D01*
X002200Y006325D01*
X002212Y006368D01*
X002212Y006558D01*
X001894Y006558D01*
X001894Y006655D01*
X002212Y006655D01*
X002212Y006846D01*
X002200Y006889D01*
X002178Y006928D01*
X002146Y006959D01*
X002133Y006967D01*
X002172Y007006D01*
X002172Y007546D01*
X002120Y007598D01*
X002172Y007537D02*
X003487Y007537D01*
X003487Y007439D02*
X002172Y007439D01*
X002172Y007340D02*
X003487Y007340D01*
X003487Y007242D02*
X002172Y007242D01*
X002172Y007143D02*
X003487Y007143D01*
X003487Y007045D02*
X002172Y007045D01*
X002159Y006946D02*
X003500Y006946D01*
X003447Y006848D02*
X002211Y006848D01*
X002212Y006749D02*
X003447Y006749D01*
X003447Y006552D02*
X002212Y006552D01*
X002212Y006454D02*
X003447Y006454D01*
X003450Y006355D02*
X002209Y006355D01*
X002149Y006257D02*
X003510Y006257D01*
X003765Y006651D02*
X001894Y006651D01*
X001797Y006651D02*
X000440Y006651D01*
X000440Y006749D02*
X001478Y006749D01*
X001479Y006848D02*
X000440Y006848D01*
X000440Y006946D02*
X001531Y006946D01*
X001518Y007045D02*
X000440Y007045D01*
X000440Y007143D02*
X001518Y007143D01*
X001518Y007242D02*
X000440Y007242D01*
X000440Y007340D02*
X001518Y007340D01*
X001518Y007439D02*
X000440Y007439D01*
X000440Y007537D02*
X001518Y007537D01*
X001635Y007636D02*
X000440Y007636D01*
X000440Y007734D02*
X001635Y007734D01*
X001635Y007833D02*
X000440Y007833D01*
X000440Y007931D02*
X001635Y007931D01*
X001635Y008030D02*
X000440Y008030D01*
X000440Y008128D02*
X001635Y008128D01*
X001478Y006552D02*
X000440Y006552D01*
X000440Y006454D02*
X001478Y006454D01*
X001482Y006355D02*
X000440Y006355D01*
X000440Y006257D02*
X001541Y006257D01*
X001333Y006061D02*
X001020Y005623D01*
X001020Y005583D01*
X001041Y005961D02*
X000440Y005961D01*
X000440Y005863D02*
X000703Y005863D01*
X000693Y005764D02*
X000440Y005764D01*
X000440Y005666D02*
X000693Y005666D01*
X000693Y005567D02*
X000440Y005567D01*
X000440Y005469D02*
X000693Y005469D01*
X000693Y005370D02*
X000440Y005370D01*
X000440Y005272D02*
X000734Y005272D01*
X000693Y005173D02*
X000440Y005173D01*
X000440Y005075D02*
X000693Y005075D01*
X000693Y004976D02*
X000440Y004976D01*
X000440Y004878D02*
X000693Y004878D01*
X000693Y004779D02*
X000440Y004779D01*
X000440Y004681D02*
X000693Y004681D01*
X000754Y004582D02*
X000440Y004582D01*
X000440Y004484D02*
X001090Y004484D01*
X001090Y004385D02*
X000440Y004385D01*
X000440Y004287D02*
X001090Y004287D01*
X001090Y004188D02*
X000440Y004188D01*
X000440Y004090D02*
X001090Y004090D01*
X001090Y003991D02*
X000440Y003991D01*
X000440Y003893D02*
X001090Y003893D01*
X001090Y003794D02*
X000440Y003794D01*
X000440Y003696D02*
X001090Y003696D01*
X001090Y003597D02*
X000440Y003597D01*
X000440Y003499D02*
X001090Y003499D01*
X001090Y003400D02*
X000440Y003400D01*
X000440Y003302D02*
X001090Y003302D01*
X001090Y003203D02*
X000440Y003203D01*
X000440Y003105D02*
X001090Y003105D01*
X001090Y003006D02*
X000440Y003006D01*
X000440Y002908D02*
X001169Y002908D01*
X001270Y003061D02*
X003270Y003061D01*
X003770Y002561D01*
X003625Y002961D02*
X003686Y002986D01*
X003855Y002986D01*
X004011Y002921D01*
X004131Y002802D01*
X004196Y002646D01*
X004196Y002476D01*
X004131Y002320D01*
X004082Y002271D01*
X004121Y002271D01*
X004345Y002495D01*
X004345Y002646D01*
X004353Y002664D01*
X004065Y002951D01*
X004065Y003254D01*
X004011Y003200D01*
X003855Y003136D01*
X003686Y003136D01*
X003529Y003200D01*
X003410Y003320D01*
X003345Y003476D01*
X003345Y003646D01*
X003410Y003802D01*
X003529Y003921D01*
X003686Y003986D01*
X003751Y003986D01*
X003390Y004346D01*
X003390Y005413D01*
X003367Y005413D01*
X003367Y005332D01*
X003291Y005256D01*
X002750Y005256D01*
X002674Y005332D01*
X002674Y005413D01*
X002367Y005413D01*
X002367Y005332D01*
X002291Y005256D01*
X001750Y005256D01*
X001674Y005332D01*
X001674Y005834D01*
X001698Y005858D01*
X001675Y005881D01*
X001425Y005881D01*
X001347Y005771D01*
X001347Y005313D01*
X001283Y005248D01*
X001347Y005184D01*
X001347Y004801D01*
X001376Y004772D01*
X001407Y004741D01*
X001674Y004741D01*
X001674Y005164D01*
X001750Y005241D01*
X002291Y005241D01*
X002367Y005164D01*
X002367Y005128D01*
X002404Y005143D01*
X002512Y005143D01*
X002611Y005102D01*
X002674Y005039D01*
X002674Y005164D01*
X002750Y005241D01*
X003291Y005241D01*
X003367Y005164D01*
X003367Y004663D01*
X003291Y004587D01*
X002988Y004587D01*
X002782Y004381D01*
X001450Y004381D01*
X001450Y004026D01*
X001453Y004026D01*
X001722Y004026D01*
X001722Y003609D01*
X001819Y003609D01*
X002236Y003609D01*
X002236Y003879D01*
X002224Y003922D01*
X002202Y003961D01*
X002170Y003992D01*
X002131Y004015D01*
X002088Y004026D01*
X001819Y004026D01*
X001819Y003609D01*
X001819Y003512D01*
X002236Y003512D01*
X002236Y003243D01*
X002235Y003241D01*
X002489Y003241D01*
X002410Y003320D01*
X002345Y003476D01*
X002345Y003646D01*
X002410Y003802D01*
X002529Y003921D01*
X002686Y003986D01*
X002855Y003986D01*
X003011Y003921D01*
X003131Y003802D01*
X003196Y003646D01*
X003196Y003476D01*
X003131Y003320D01*
X003052Y003241D01*
X003345Y003241D01*
X003625Y002961D01*
X003579Y003006D02*
X004065Y003006D01*
X004065Y003105D02*
X003481Y003105D01*
X003526Y003203D02*
X003382Y003203D01*
X003428Y003302D02*
X003113Y003302D01*
X003164Y003400D02*
X003376Y003400D01*
X003345Y003499D02*
X003196Y003499D01*
X003196Y003597D02*
X003345Y003597D01*
X003366Y003696D02*
X003175Y003696D01*
X003134Y003794D02*
X003407Y003794D01*
X003501Y003893D02*
X003040Y003893D01*
X002787Y004385D02*
X003390Y004385D01*
X003390Y004484D02*
X002885Y004484D01*
X002984Y004582D02*
X003390Y004582D01*
X003390Y004681D02*
X003367Y004681D01*
X003367Y004779D02*
X003390Y004779D01*
X003390Y004878D02*
X003367Y004878D01*
X003367Y004976D02*
X003390Y004976D01*
X003390Y005075D02*
X003367Y005075D01*
X003358Y005173D02*
X003390Y005173D01*
X003390Y005272D02*
X003306Y005272D01*
X003367Y005370D02*
X003390Y005370D01*
X003810Y005256D02*
X004291Y005256D01*
X004367Y005332D01*
X004367Y005834D01*
X004320Y005881D01*
X005069Y005881D01*
X005022Y005834D01*
X005022Y005450D01*
X005098Y005374D01*
X005442Y005374D01*
X005518Y005450D01*
X005518Y005834D01*
X005450Y005902D01*
X005450Y006135D01*
X005345Y006241D01*
X005340Y006241D01*
X005340Y006558D01*
X005437Y006558D01*
X005437Y006220D01*
X005608Y006220D01*
X005651Y006232D01*
X005690Y006254D01*
X005721Y006286D01*
X005744Y006325D01*
X005755Y006368D01*
X005755Y006558D01*
X005437Y006558D01*
X005437Y006655D01*
X005755Y006655D01*
X005755Y006846D01*
X005744Y006889D01*
X005721Y006928D01*
X005690Y006959D01*
X005677Y006967D01*
X005715Y007006D01*
X005715Y007546D01*
X005639Y007623D01*
X005610Y007623D01*
X005610Y007852D01*
X005974Y007852D01*
X006050Y007928D01*
X006050Y008916D01*
X005974Y008992D01*
X005822Y008992D01*
X005850Y009060D01*
X005850Y009167D01*
X005818Y009244D01*
X005856Y009244D01*
X005857Y009245D01*
X005857Y009245D01*
X005918Y009306D01*
X005980Y009367D01*
X005980Y009368D01*
X005980Y009454D01*
X005991Y011772D01*
X006033Y011772D01*
X006109Y011848D01*
X006109Y012389D01*
X006070Y012428D01*
X006083Y012435D01*
X006115Y012467D01*
X006137Y012506D01*
X006149Y012549D01*
X006149Y012739D01*
X005831Y012739D01*
X005831Y012836D01*
X006149Y012836D01*
X006149Y013027D01*
X006137Y013070D01*
X006115Y013109D01*
X006083Y013140D01*
X006045Y013163D01*
X006001Y013174D01*
X005979Y013174D01*
X006059Y013220D01*
X006140Y013283D01*
X006213Y013355D01*
X006220Y013365D01*
X006220Y004178D01*
X006157Y004241D01*
X005907Y004491D01*
X005532Y004491D01*
X005144Y004879D01*
X005144Y005046D01*
X005068Y005123D01*
X004724Y005123D01*
X004655Y005053D01*
X004367Y005053D01*
X004367Y005164D01*
X004291Y005241D01*
X003810Y005241D01*
X003810Y005256D01*
X004020Y004914D02*
X004020Y004873D01*
X004895Y004873D01*
X004896Y004855D01*
X004958Y004811D01*
X005458Y004311D01*
X005833Y004311D01*
X006083Y004061D01*
X006083Y001811D01*
X003583Y001811D01*
X002770Y000998D01*
X002406Y000455D02*
X002527Y000334D01*
X002560Y000320D01*
X002049Y000320D01*
X002076Y000340D01*
X002129Y000392D01*
X002172Y000452D01*
X002206Y000518D01*
X002229Y000588D01*
X002240Y000661D01*
X002240Y000948D01*
X001820Y000948D01*
X001820Y001048D01*
X002240Y001048D01*
X002240Y001335D01*
X002229Y001408D01*
X002206Y001479D01*
X002172Y001545D01*
X002129Y001605D01*
X002076Y001657D01*
X002017Y001700D01*
X001951Y001734D01*
X001880Y001757D01*
X001833Y001764D01*
X001920Y001851D01*
X003368Y001851D01*
X003097Y001580D01*
X003014Y001663D01*
X002856Y001728D01*
X002685Y001728D01*
X002527Y001663D01*
X002406Y001542D01*
X002340Y001384D01*
X002340Y000613D01*
X002406Y000455D01*
X002415Y000445D02*
X002167Y000445D01*
X002214Y000544D02*
X002369Y000544D01*
X002340Y000642D02*
X002237Y000642D01*
X002240Y000741D02*
X002340Y000741D01*
X002340Y000839D02*
X002240Y000839D01*
X002240Y000938D02*
X002340Y000938D01*
X002340Y001036D02*
X001820Y001036D01*
X001720Y001036D02*
X001200Y001036D01*
X001200Y001131D02*
X001300Y001231D01*
X001300Y001048D01*
X001720Y001048D01*
X001720Y000948D01*
X001300Y000948D01*
X001300Y000661D01*
X001312Y000588D01*
X001335Y000518D01*
X001368Y000452D01*
X001412Y000392D01*
X001464Y000340D01*
X001492Y000320D01*
X000980Y000320D01*
X001014Y000334D01*
X001135Y000455D01*
X001200Y000613D01*
X001200Y001131D01*
X001204Y001135D02*
X001300Y001135D01*
X001300Y000938D02*
X001200Y000938D01*
X001200Y000839D02*
X001300Y000839D01*
X001300Y000741D02*
X001200Y000741D01*
X001200Y000642D02*
X001303Y000642D01*
X001326Y000544D02*
X001172Y000544D01*
X001125Y000445D02*
X001373Y000445D01*
X001457Y000347D02*
X001027Y000347D01*
X001049Y001627D02*
X001102Y001627D01*
X001201Y001726D02*
X000862Y001726D01*
X000679Y001726D02*
X000440Y001726D01*
X000440Y001824D02*
X001299Y001824D01*
X001398Y001923D02*
X000440Y001923D01*
X000440Y002021D02*
X001496Y002021D01*
X001595Y002120D02*
X000440Y002120D01*
X000440Y002218D02*
X001511Y002218D01*
X001413Y002317D02*
X000440Y002317D01*
X000440Y002415D02*
X001370Y002415D01*
X001345Y002514D02*
X000440Y002514D01*
X000440Y002612D02*
X001345Y002612D01*
X001372Y002711D02*
X000440Y002711D01*
X000440Y002809D02*
X001417Y002809D01*
X001270Y003061D02*
X001270Y004561D01*
X001302Y004592D01*
X001020Y004873D01*
X001020Y004914D01*
X001302Y004592D02*
X001333Y004561D01*
X002708Y004561D01*
X003020Y004873D01*
X003020Y004914D01*
X002734Y005272D02*
X002306Y005272D01*
X002358Y005173D02*
X002683Y005173D01*
X002674Y005075D02*
X002638Y005075D01*
X002674Y005370D02*
X002367Y005370D01*
X002458Y004873D02*
X002020Y004873D01*
X002020Y004914D01*
X001683Y005173D02*
X001347Y005173D01*
X001347Y005075D02*
X001674Y005075D01*
X001674Y004976D02*
X001347Y004976D01*
X001347Y004878D02*
X001674Y004878D01*
X001674Y004779D02*
X001369Y004779D01*
X001450Y004287D02*
X003450Y004287D01*
X003548Y004188D02*
X001450Y004188D01*
X001450Y004090D02*
X003647Y004090D01*
X003745Y003991D02*
X002171Y003991D01*
X002232Y003893D02*
X002501Y003893D01*
X002407Y003794D02*
X002236Y003794D01*
X002236Y003696D02*
X002366Y003696D01*
X002345Y003597D02*
X001819Y003597D01*
X001819Y003696D02*
X001722Y003696D01*
X001722Y003794D02*
X001819Y003794D01*
X001819Y003893D02*
X001722Y003893D01*
X001722Y003991D02*
X001819Y003991D01*
X002236Y003499D02*
X002345Y003499D01*
X002376Y003400D02*
X002236Y003400D01*
X002236Y003302D02*
X002428Y003302D01*
X001893Y001824D02*
X003342Y001824D01*
X003243Y001726D02*
X002862Y001726D01*
X002679Y001726D02*
X001967Y001726D01*
X002106Y001627D02*
X002491Y001627D01*
X002400Y001529D02*
X002180Y001529D01*
X002222Y001430D02*
X002360Y001430D01*
X002340Y001332D02*
X002240Y001332D01*
X002240Y001233D02*
X002340Y001233D01*
X002340Y001135D02*
X002240Y001135D01*
X002083Y000347D02*
X002514Y000347D01*
X003049Y001627D02*
X003145Y001627D01*
X004025Y002908D02*
X004109Y002908D01*
X004123Y002809D02*
X004207Y002809D01*
X004168Y002711D02*
X004306Y002711D01*
X004345Y002612D02*
X004196Y002612D01*
X004196Y002514D02*
X004345Y002514D01*
X004265Y002415D02*
X004170Y002415D01*
X004167Y002317D02*
X004128Y002317D01*
X004642Y002968D02*
X004485Y003125D01*
X004485Y003244D01*
X004529Y003200D01*
X004686Y003136D01*
X004855Y003136D01*
X005011Y003200D01*
X005131Y003320D01*
X005196Y003476D01*
X005196Y003646D01*
X005131Y003802D01*
X005011Y003921D01*
X004855Y003986D01*
X004686Y003986D01*
X004529Y003921D01*
X004469Y003861D01*
X004362Y003968D01*
X003810Y004520D01*
X003810Y004587D01*
X004291Y004587D01*
X004367Y004663D01*
X004367Y004693D01*
X004648Y004693D01*
X004648Y004663D01*
X004724Y004587D01*
X004927Y004587D01*
X005278Y004236D01*
X005383Y004131D01*
X005758Y004131D01*
X005903Y003986D01*
X005903Y003907D01*
X005756Y003907D01*
X005756Y003569D01*
X005659Y003569D01*
X005659Y003472D01*
X005341Y003472D01*
X005341Y003282D01*
X005353Y003238D01*
X005375Y003200D01*
X005407Y003168D01*
X005420Y003160D01*
X005381Y003122D01*
X005381Y002771D01*
X005144Y002771D01*
X005131Y002802D01*
X005011Y002921D01*
X004855Y002986D01*
X004686Y002986D01*
X004642Y002968D01*
X004604Y003006D02*
X005381Y003006D01*
X005381Y002908D02*
X005025Y002908D01*
X005123Y002809D02*
X005381Y002809D01*
X005381Y003105D02*
X004506Y003105D01*
X004485Y003203D02*
X004526Y003203D01*
X004501Y003893D02*
X004438Y003893D01*
X004339Y003991D02*
X005898Y003991D01*
X005799Y004090D02*
X004241Y004090D01*
X004142Y004188D02*
X005326Y004188D01*
X005227Y004287D02*
X004044Y004287D01*
X003945Y004385D02*
X005129Y004385D01*
X005030Y004484D02*
X003847Y004484D01*
X003810Y004582D02*
X004932Y004582D01*
X005145Y004878D02*
X005396Y004878D01*
X005396Y004976D02*
X005144Y004976D01*
X005116Y005075D02*
X005425Y005075D01*
X005396Y005046D02*
X005396Y004663D01*
X005472Y004587D01*
X005816Y004587D01*
X005892Y004663D01*
X005892Y005046D01*
X005816Y005123D01*
X005472Y005123D01*
X005396Y005046D01*
X005396Y004779D02*
X005244Y004779D01*
X005342Y004681D02*
X005396Y004681D01*
X005441Y004582D02*
X006220Y004582D01*
X006220Y004484D02*
X005914Y004484D01*
X006013Y004385D02*
X006220Y004385D01*
X006220Y004287D02*
X006111Y004287D01*
X006210Y004188D02*
X006220Y004188D01*
X006220Y004681D02*
X005892Y004681D01*
X005892Y004779D02*
X006220Y004779D01*
X006220Y004878D02*
X005892Y004878D01*
X005892Y004976D02*
X006220Y004976D01*
X006220Y005075D02*
X005864Y005075D01*
X006220Y005173D02*
X004358Y005173D01*
X004367Y005075D02*
X004677Y005075D01*
X004648Y004681D02*
X004367Y004681D01*
X004306Y005272D02*
X006220Y005272D01*
X006220Y005370D02*
X004367Y005370D01*
X004367Y005469D02*
X005022Y005469D01*
X005022Y005567D02*
X004367Y005567D01*
X004367Y005666D02*
X005022Y005666D01*
X005022Y005764D02*
X004367Y005764D01*
X004338Y005863D02*
X005051Y005863D01*
X005270Y006061D02*
X005270Y005642D01*
X005270Y006061D02*
X001877Y006061D01*
X001333Y006061D01*
X001347Y005764D02*
X001674Y005764D01*
X001674Y005666D02*
X001347Y005666D01*
X001347Y005567D02*
X001674Y005567D01*
X001674Y005469D02*
X001347Y005469D01*
X001347Y005370D02*
X001674Y005370D01*
X001734Y005272D02*
X001306Y005272D01*
X001413Y005863D02*
X001693Y005863D01*
X001176Y006158D02*
X000440Y006158D01*
X000440Y006060D02*
X001111Y006060D01*
X000491Y001627D02*
X000440Y001627D01*
X003521Y009015D02*
X003545Y009015D01*
X004276Y007242D02*
X005062Y007242D01*
X005062Y007340D02*
X004374Y007340D01*
X004473Y007439D02*
X004901Y007439D01*
X004887Y007445D02*
X004987Y007403D01*
X005062Y007403D01*
X005062Y007006D01*
X005100Y006967D01*
X005087Y006959D01*
X005056Y006928D01*
X005033Y006889D01*
X005022Y006846D01*
X005022Y006655D01*
X005340Y006655D01*
X005340Y006558D01*
X005022Y006558D01*
X005022Y006368D01*
X005033Y006325D01*
X005056Y006286D01*
X005087Y006254D01*
X005110Y006241D01*
X004092Y006241D01*
X004115Y006254D01*
X004147Y006286D01*
X004169Y006325D01*
X004180Y006368D01*
X004180Y006558D01*
X003862Y006558D01*
X003862Y006655D01*
X004180Y006655D01*
X004180Y006846D01*
X004169Y006889D01*
X004147Y006928D01*
X004115Y006959D01*
X004102Y006967D01*
X004140Y007006D01*
X004140Y007107D01*
X004725Y007691D01*
X004770Y007646D01*
X004770Y007620D01*
X004811Y007520D01*
X004887Y007445D01*
X004804Y007537D02*
X004571Y007537D01*
X004670Y007636D02*
X004770Y007636D01*
X005062Y007143D02*
X004177Y007143D01*
X004140Y007045D02*
X005062Y007045D01*
X005074Y006946D02*
X004128Y006946D01*
X004180Y006848D02*
X005022Y006848D01*
X005022Y006749D02*
X004180Y006749D01*
X004180Y006552D02*
X005022Y006552D01*
X005022Y006454D02*
X004180Y006454D01*
X004177Y006355D02*
X005025Y006355D01*
X005084Y006257D02*
X004118Y006257D01*
X003862Y006651D02*
X005340Y006651D01*
X005437Y006651D02*
X006220Y006651D01*
X006220Y006749D02*
X005755Y006749D01*
X005755Y006848D02*
X006220Y006848D01*
X006220Y006946D02*
X005702Y006946D01*
X005715Y007045D02*
X006220Y007045D01*
X006220Y007143D02*
X005715Y007143D01*
X005715Y007242D02*
X006220Y007242D01*
X006220Y007340D02*
X005715Y007340D01*
X005715Y007439D02*
X006220Y007439D01*
X006220Y007537D02*
X005715Y007537D01*
X005610Y007636D02*
X006220Y007636D01*
X006220Y007734D02*
X005610Y007734D01*
X005610Y007833D02*
X006220Y007833D01*
X006220Y007931D02*
X006050Y007931D01*
X006050Y008030D02*
X006220Y008030D01*
X006220Y008128D02*
X006050Y008128D01*
X006050Y008227D02*
X006220Y008227D01*
X006220Y008325D02*
X006050Y008325D01*
X006050Y008424D02*
X006220Y008424D01*
X006220Y008522D02*
X006050Y008522D01*
X006050Y008621D02*
X006220Y008621D01*
X006220Y008719D02*
X006050Y008719D01*
X006050Y008818D02*
X006220Y008818D01*
X006220Y008916D02*
X006050Y008916D01*
X006220Y009015D02*
X005832Y009015D01*
X005850Y009113D02*
X006220Y009113D01*
X006220Y009212D02*
X005832Y009212D01*
X005923Y009310D02*
X006220Y009310D01*
X006220Y009409D02*
X005980Y009409D01*
X005980Y009367D02*
X005980Y009367D01*
X005981Y009507D02*
X006220Y009507D01*
X006220Y009606D02*
X005981Y009606D01*
X005981Y009704D02*
X006220Y009704D01*
X006220Y009803D02*
X005982Y009803D01*
X005982Y009901D02*
X006220Y009901D01*
X006220Y010000D02*
X005983Y010000D01*
X005983Y010098D02*
X006220Y010098D01*
X006220Y010197D02*
X005984Y010197D01*
X005984Y010295D02*
X006220Y010295D01*
X006220Y010394D02*
X005984Y010394D01*
X005985Y010492D02*
X006220Y010492D01*
X006220Y010591D02*
X005985Y010591D01*
X005986Y010689D02*
X006220Y010689D01*
X006220Y010788D02*
X005986Y010788D01*
X005987Y010886D02*
X006220Y010886D01*
X006220Y010985D02*
X005987Y010985D01*
X005988Y011083D02*
X006220Y011083D01*
X006220Y011182D02*
X005988Y011182D01*
X005988Y011280D02*
X006220Y011280D01*
X006220Y011379D02*
X005989Y011379D01*
X005989Y011477D02*
X006220Y011477D01*
X006220Y011576D02*
X005990Y011576D01*
X005990Y011674D02*
X006220Y011674D01*
X006220Y011773D02*
X006034Y011773D01*
X006109Y011871D02*
X006220Y011871D01*
X006220Y011970D02*
X006109Y011970D01*
X006109Y012068D02*
X006220Y012068D01*
X006220Y012167D02*
X006109Y012167D01*
X006109Y012265D02*
X006220Y012265D01*
X006220Y012364D02*
X006109Y012364D01*
X006111Y012462D02*
X006220Y012462D01*
X006220Y012561D02*
X006149Y012561D01*
X006149Y012659D02*
X006220Y012659D01*
X006220Y012758D02*
X005831Y012758D01*
X006063Y013152D02*
X006220Y013152D01*
X006220Y013250D02*
X006098Y013250D01*
X006142Y013053D02*
X006220Y013053D01*
X006220Y012955D02*
X006149Y012955D01*
X006149Y012856D02*
X006220Y012856D01*
X006207Y013349D02*
X006220Y013349D01*
X006220Y014432D02*
X006166Y014432D01*
X006220Y014531D02*
X006041Y014531D01*
X006220Y014629D02*
X005807Y014629D01*
X005755Y006552D02*
X006220Y006552D01*
X006220Y006454D02*
X005755Y006454D01*
X005752Y006355D02*
X006220Y006355D01*
X006220Y006257D02*
X005692Y006257D01*
X005450Y006060D02*
X006220Y006060D01*
X006220Y006158D02*
X005427Y006158D01*
X005437Y006257D02*
X005340Y006257D01*
X005340Y006355D02*
X005437Y006355D01*
X005437Y006454D02*
X005340Y006454D01*
X005340Y006552D02*
X005437Y006552D01*
X005450Y005961D02*
X006220Y005961D01*
X006220Y005863D02*
X005489Y005863D01*
X005518Y005764D02*
X006220Y005764D01*
X006220Y005666D02*
X005518Y005666D01*
X005518Y005567D02*
X006220Y005567D01*
X006220Y005469D02*
X005518Y005469D01*
X005489Y003907D02*
X005445Y003896D01*
X005407Y003873D01*
X005375Y003841D01*
X005353Y003803D01*
X005341Y003759D01*
X005341Y003569D01*
X005659Y003569D01*
X005659Y003907D01*
X005489Y003907D01*
X005441Y003893D02*
X005040Y003893D01*
X005134Y003794D02*
X005350Y003794D01*
X005341Y003696D02*
X005175Y003696D01*
X005196Y003597D02*
X005341Y003597D01*
X005341Y003400D02*
X005164Y003400D01*
X005196Y003499D02*
X005659Y003499D01*
X005659Y003597D02*
X005756Y003597D01*
X005756Y003696D02*
X005659Y003696D01*
X005659Y003794D02*
X005756Y003794D01*
X005756Y003893D02*
X005659Y003893D01*
X005341Y003302D02*
X005113Y003302D01*
X005014Y003203D02*
X005373Y003203D01*
X004065Y003203D02*
X004014Y003203D01*
D26*
X004050Y004433D03*
X002835Y006863D03*
X002835Y008123D03*
X003272Y008516D03*
X003272Y008910D03*
X003270Y009330D03*
X004060Y010189D03*
X004145Y009705D03*
X005040Y007673D03*
X005580Y009113D03*
X004095Y012443D03*
X002928Y011272D03*
X002333Y010267D03*
X001208Y009830D03*
X001208Y010767D03*
X001877Y006061D03*
X002458Y004873D03*
D27*
X002020Y005583D02*
X002020Y005623D01*
X003020Y005623D01*
X003020Y005583D01*
X003083Y005623D01*
X003600Y005623D01*
X003600Y004433D01*
X004275Y003758D01*
X004275Y003038D01*
X004680Y002633D01*
X004770Y002561D01*
X004708Y002561D01*
X004208Y002061D01*
X003270Y002061D01*
X003239Y002092D01*
X003208Y002061D01*
X001833Y002061D01*
X000770Y000998D01*
X002770Y002561D02*
X003239Y002092D01*
X004050Y004433D02*
X004590Y004433D01*
X005490Y003533D01*
X005670Y003533D01*
X005708Y003521D01*
X005708Y002851D02*
X005708Y002561D01*
X004770Y002561D01*
X004020Y005583D02*
X004020Y005623D01*
X003600Y005623D01*
X003780Y006593D02*
X003814Y006607D01*
X003870Y006593D01*
X005355Y006593D01*
X005388Y006607D01*
X005445Y006638D01*
X006165Y007358D01*
X006165Y012443D01*
X005850Y012758D01*
X005782Y012788D01*
X005634Y012847D01*
X005634Y012798D01*
X004601Y012798D01*
X004601Y012788D01*
X004095Y012443D02*
X003825Y012713D01*
X003825Y013748D01*
X003841Y013752D01*
X002333Y010267D02*
X000715Y010267D01*
X000720Y009518D02*
X000715Y009517D01*
X000720Y009518D02*
X000990Y009518D01*
X001485Y009023D01*
X001503Y009023D01*
X001503Y009500D01*
X001884Y009500D01*
X001884Y009768D01*
X002825Y009768D01*
X002825Y009767D01*
X002825Y009517D02*
X002790Y009518D01*
X002520Y009518D01*
X001845Y008843D01*
X001845Y007808D01*
X004185Y007808D01*
X004365Y007988D01*
X004365Y008933D01*
X004455Y009023D01*
X005535Y009023D01*
X005580Y009113D01*
X005580Y008528D01*
X005625Y008483D01*
X005680Y008422D01*
X005670Y008393D01*
X005400Y008123D01*
X005400Y007358D01*
X005388Y007276D01*
X005400Y007268D01*
X005040Y007673D02*
X004725Y007988D01*
X004050Y007313D01*
X003870Y007313D01*
X003814Y007276D01*
X003825Y007268D01*
X003780Y006593D02*
X002835Y006593D01*
X002835Y006863D01*
X002835Y006593D02*
X001845Y006593D01*
X001845Y006607D01*
X001800Y006638D01*
X001485Y006953D01*
X001485Y009023D01*
X001845Y007808D02*
X001845Y007313D01*
X001845Y007276D01*
X002835Y008123D02*
X003330Y008123D01*
X003600Y008393D01*
X003825Y008393D01*
X003860Y008422D01*
X004270Y009392D02*
X003270Y009392D01*
X003270Y009330D01*
X003270Y009392D02*
X003145Y009267D01*
X002825Y009267D01*
X002833Y009205D01*
X002833Y009017D01*
X002825Y009017D01*
X004270Y009392D02*
X004333Y009455D01*
X005770Y009455D01*
X005782Y012119D01*
X005782Y012788D02*
X005708Y012848D01*
X004770Y008422D02*
X004770Y008033D01*
X004725Y007988D01*
M02*
