G75*
%MOIN*%
%OFA0B0*%
%FSLAX24Y24*%
%IPPOS*%
%LPD*%
%AMOC8*
5,1,8,0,0,1.08239X$1,22.5*
%
%ADD10C,0.0000*%
%ADD11R,0.0433X0.0394*%
%ADD12R,0.0394X0.0433*%
%ADD13R,0.0450X0.0150*%
%ADD14R,0.0236X0.0276*%
%ADD15R,0.0480X0.0880*%
%ADD16R,0.1417X0.0866*%
%ADD17R,0.0236X0.0531*%
%ADD18R,0.0157X0.0492*%
D10*
X000180Y002796D02*
X000180Y030360D01*
X006300Y030360D01*
X006400Y030360D02*
X012521Y030360D01*
X012621Y030360D02*
X018741Y030360D01*
X018841Y030360D02*
X024961Y030360D01*
X025062Y030360D02*
X031182Y030360D01*
X031282Y030360D02*
X037402Y030360D01*
X037402Y002796D01*
X031282Y002796D01*
X031182Y002796D02*
X025062Y002796D01*
X024961Y002796D02*
X018841Y002796D01*
X018741Y002796D02*
X012621Y002796D01*
X012521Y002796D02*
X006400Y002796D01*
X006300Y002796D02*
X000180Y002796D01*
X001664Y015601D02*
X001664Y015916D01*
X001665Y015916D02*
X001666Y015933D01*
X001671Y015950D01*
X001678Y015965D01*
X001688Y015979D01*
X001700Y015991D01*
X001714Y016001D01*
X001729Y016008D01*
X001746Y016013D01*
X001763Y016014D01*
X001780Y016013D01*
X001797Y016008D01*
X001812Y016001D01*
X001826Y015991D01*
X001838Y015979D01*
X001848Y015965D01*
X001855Y015950D01*
X001860Y015933D01*
X001861Y015916D01*
X001861Y015601D01*
X001763Y015503D02*
X001746Y015504D01*
X001729Y015509D01*
X001714Y015516D01*
X001700Y015526D01*
X001688Y015538D01*
X001678Y015552D01*
X001671Y015567D01*
X001666Y015584D01*
X001665Y015601D01*
X001763Y015503D02*
X001780Y015504D01*
X001797Y015509D01*
X001812Y015516D01*
X001826Y015526D01*
X001838Y015538D01*
X001848Y015552D01*
X001855Y015567D01*
X001860Y015584D01*
X001861Y015601D01*
X004499Y015601D02*
X004499Y015916D01*
X004500Y015933D01*
X004505Y015950D01*
X004512Y015965D01*
X004522Y015979D01*
X004534Y015991D01*
X004548Y016001D01*
X004563Y016008D01*
X004580Y016013D01*
X004597Y016014D01*
X004614Y016013D01*
X004631Y016008D01*
X004646Y016001D01*
X004660Y015991D01*
X004672Y015979D01*
X004682Y015965D01*
X004689Y015950D01*
X004694Y015933D01*
X004695Y015916D01*
X004696Y015916D02*
X004696Y015601D01*
X004597Y015503D02*
X004580Y015504D01*
X004563Y015509D01*
X004548Y015516D01*
X004534Y015526D01*
X004522Y015538D01*
X004512Y015552D01*
X004505Y015567D01*
X004500Y015584D01*
X004499Y015601D01*
X004597Y015503D02*
X004614Y015504D01*
X004631Y015509D01*
X004646Y015516D01*
X004660Y015526D01*
X004672Y015538D01*
X004682Y015552D01*
X004689Y015567D01*
X004694Y015584D01*
X004695Y015601D01*
X007885Y015601D02*
X007885Y015916D01*
X007886Y015933D01*
X007891Y015950D01*
X007898Y015965D01*
X007908Y015979D01*
X007920Y015991D01*
X007934Y016001D01*
X007949Y016008D01*
X007966Y016013D01*
X007983Y016014D01*
X008000Y016013D01*
X008017Y016008D01*
X008032Y016001D01*
X008046Y015991D01*
X008058Y015979D01*
X008068Y015965D01*
X008075Y015950D01*
X008080Y015933D01*
X008081Y015916D01*
X008082Y015916D02*
X008082Y015601D01*
X007983Y015503D02*
X007966Y015504D01*
X007949Y015509D01*
X007934Y015516D01*
X007920Y015526D01*
X007908Y015538D01*
X007898Y015552D01*
X007891Y015567D01*
X007886Y015584D01*
X007885Y015601D01*
X007983Y015503D02*
X008000Y015504D01*
X008017Y015509D01*
X008032Y015516D01*
X008046Y015526D01*
X008058Y015538D01*
X008068Y015552D01*
X008075Y015567D01*
X008080Y015584D01*
X008081Y015601D01*
X010719Y015601D02*
X010719Y015916D01*
X010720Y015916D02*
X010721Y015933D01*
X010726Y015950D01*
X010733Y015965D01*
X010743Y015979D01*
X010755Y015991D01*
X010769Y016001D01*
X010784Y016008D01*
X010801Y016013D01*
X010818Y016014D01*
X010835Y016013D01*
X010852Y016008D01*
X010867Y016001D01*
X010881Y015991D01*
X010893Y015979D01*
X010903Y015965D01*
X010910Y015950D01*
X010915Y015933D01*
X010916Y015916D01*
X010916Y015601D01*
X010818Y015503D02*
X010801Y015504D01*
X010784Y015509D01*
X010769Y015516D01*
X010755Y015526D01*
X010743Y015538D01*
X010733Y015552D01*
X010726Y015567D01*
X010721Y015584D01*
X010720Y015601D01*
X010818Y015503D02*
X010835Y015504D01*
X010852Y015509D01*
X010867Y015516D01*
X010881Y015526D01*
X010893Y015538D01*
X010903Y015552D01*
X010910Y015567D01*
X010915Y015584D01*
X010916Y015601D01*
X014105Y015601D02*
X014105Y015916D01*
X014106Y015916D02*
X014107Y015933D01*
X014112Y015950D01*
X014119Y015965D01*
X014129Y015979D01*
X014141Y015991D01*
X014155Y016001D01*
X014170Y016008D01*
X014187Y016013D01*
X014204Y016014D01*
X014221Y016013D01*
X014238Y016008D01*
X014253Y016001D01*
X014267Y015991D01*
X014279Y015979D01*
X014289Y015965D01*
X014296Y015950D01*
X014301Y015933D01*
X014302Y015916D01*
X014302Y015601D01*
X014204Y015503D02*
X014187Y015504D01*
X014170Y015509D01*
X014155Y015516D01*
X014141Y015526D01*
X014129Y015538D01*
X014119Y015552D01*
X014112Y015567D01*
X014107Y015584D01*
X014106Y015601D01*
X014204Y015503D02*
X014221Y015504D01*
X014238Y015509D01*
X014253Y015516D01*
X014267Y015526D01*
X014279Y015538D01*
X014289Y015552D01*
X014296Y015567D01*
X014301Y015584D01*
X014302Y015601D01*
X016940Y015601D02*
X016940Y015916D01*
X016941Y015933D01*
X016946Y015950D01*
X016953Y015965D01*
X016963Y015979D01*
X016975Y015991D01*
X016989Y016001D01*
X017004Y016008D01*
X017021Y016013D01*
X017038Y016014D01*
X017055Y016013D01*
X017072Y016008D01*
X017087Y016001D01*
X017101Y015991D01*
X017113Y015979D01*
X017123Y015965D01*
X017130Y015950D01*
X017135Y015933D01*
X017136Y015916D01*
X017137Y015916D02*
X017137Y015601D01*
X017038Y015503D02*
X017021Y015504D01*
X017004Y015509D01*
X016989Y015516D01*
X016975Y015526D01*
X016963Y015538D01*
X016953Y015552D01*
X016946Y015567D01*
X016941Y015584D01*
X016940Y015601D01*
X017038Y015503D02*
X017055Y015504D01*
X017072Y015509D01*
X017087Y015516D01*
X017101Y015526D01*
X017113Y015538D01*
X017123Y015552D01*
X017130Y015567D01*
X017135Y015584D01*
X017136Y015601D01*
X020326Y015601D02*
X020326Y015916D01*
X020327Y015933D01*
X020332Y015950D01*
X020339Y015965D01*
X020349Y015979D01*
X020361Y015991D01*
X020375Y016001D01*
X020390Y016008D01*
X020407Y016013D01*
X020424Y016014D01*
X020441Y016013D01*
X020458Y016008D01*
X020473Y016001D01*
X020487Y015991D01*
X020499Y015979D01*
X020509Y015965D01*
X020516Y015950D01*
X020521Y015933D01*
X020522Y015916D01*
X020523Y015916D02*
X020523Y015601D01*
X020424Y015503D02*
X020407Y015504D01*
X020390Y015509D01*
X020375Y015516D01*
X020361Y015526D01*
X020349Y015538D01*
X020339Y015552D01*
X020332Y015567D01*
X020327Y015584D01*
X020326Y015601D01*
X020424Y015503D02*
X020441Y015504D01*
X020458Y015509D01*
X020473Y015516D01*
X020487Y015526D01*
X020499Y015538D01*
X020509Y015552D01*
X020516Y015567D01*
X020521Y015584D01*
X020522Y015601D01*
X023160Y015601D02*
X023160Y015916D01*
X023161Y015916D02*
X023162Y015933D01*
X023167Y015950D01*
X023174Y015965D01*
X023184Y015979D01*
X023196Y015991D01*
X023210Y016001D01*
X023225Y016008D01*
X023242Y016013D01*
X023259Y016014D01*
X023276Y016013D01*
X023293Y016008D01*
X023308Y016001D01*
X023322Y015991D01*
X023334Y015979D01*
X023344Y015965D01*
X023351Y015950D01*
X023356Y015933D01*
X023357Y015916D01*
X023357Y015601D01*
X023259Y015503D02*
X023242Y015504D01*
X023225Y015509D01*
X023210Y015516D01*
X023196Y015526D01*
X023184Y015538D01*
X023174Y015552D01*
X023167Y015567D01*
X023162Y015584D01*
X023161Y015601D01*
X023259Y015503D02*
X023276Y015504D01*
X023293Y015509D01*
X023308Y015516D01*
X023322Y015526D01*
X023334Y015538D01*
X023344Y015552D01*
X023351Y015567D01*
X023356Y015584D01*
X023357Y015601D01*
X026546Y015601D02*
X026546Y015916D01*
X026547Y015916D02*
X026548Y015933D01*
X026553Y015950D01*
X026560Y015965D01*
X026570Y015979D01*
X026582Y015991D01*
X026596Y016001D01*
X026611Y016008D01*
X026628Y016013D01*
X026645Y016014D01*
X026662Y016013D01*
X026679Y016008D01*
X026694Y016001D01*
X026708Y015991D01*
X026720Y015979D01*
X026730Y015965D01*
X026737Y015950D01*
X026742Y015933D01*
X026743Y015916D01*
X026743Y015601D01*
X026645Y015503D02*
X026628Y015504D01*
X026611Y015509D01*
X026596Y015516D01*
X026582Y015526D01*
X026570Y015538D01*
X026560Y015552D01*
X026553Y015567D01*
X026548Y015584D01*
X026547Y015601D01*
X026645Y015503D02*
X026662Y015504D01*
X026679Y015509D01*
X026694Y015516D01*
X026708Y015526D01*
X026720Y015538D01*
X026730Y015552D01*
X026737Y015567D01*
X026742Y015584D01*
X026743Y015601D01*
X029381Y015601D02*
X029381Y015916D01*
X029382Y015933D01*
X029387Y015950D01*
X029394Y015965D01*
X029404Y015979D01*
X029416Y015991D01*
X029430Y016001D01*
X029445Y016008D01*
X029462Y016013D01*
X029479Y016014D01*
X029496Y016013D01*
X029513Y016008D01*
X029528Y016001D01*
X029542Y015991D01*
X029554Y015979D01*
X029564Y015965D01*
X029571Y015950D01*
X029576Y015933D01*
X029577Y015916D01*
X029578Y015916D02*
X029578Y015601D01*
X029479Y015503D02*
X029462Y015504D01*
X029445Y015509D01*
X029430Y015516D01*
X029416Y015526D01*
X029404Y015538D01*
X029394Y015552D01*
X029387Y015567D01*
X029382Y015584D01*
X029381Y015601D01*
X029479Y015503D02*
X029496Y015504D01*
X029513Y015509D01*
X029528Y015516D01*
X029542Y015526D01*
X029554Y015538D01*
X029564Y015552D01*
X029571Y015567D01*
X029576Y015584D01*
X029577Y015601D01*
X032767Y015601D02*
X032767Y015916D01*
X032768Y015933D01*
X032773Y015950D01*
X032780Y015965D01*
X032790Y015979D01*
X032802Y015991D01*
X032816Y016001D01*
X032831Y016008D01*
X032848Y016013D01*
X032865Y016014D01*
X032882Y016013D01*
X032899Y016008D01*
X032914Y016001D01*
X032928Y015991D01*
X032940Y015979D01*
X032950Y015965D01*
X032957Y015950D01*
X032962Y015933D01*
X032963Y015916D01*
X032963Y015601D01*
X032865Y015503D02*
X032848Y015504D01*
X032831Y015509D01*
X032816Y015516D01*
X032802Y015526D01*
X032790Y015538D01*
X032780Y015552D01*
X032773Y015567D01*
X032768Y015584D01*
X032767Y015601D01*
X032865Y015503D02*
X032882Y015504D01*
X032899Y015509D01*
X032914Y015516D01*
X032928Y015526D01*
X032940Y015538D01*
X032950Y015552D01*
X032957Y015567D01*
X032962Y015584D01*
X032963Y015601D01*
X035601Y015601D02*
X035601Y015916D01*
X035602Y015916D02*
X035603Y015933D01*
X035608Y015950D01*
X035615Y015965D01*
X035625Y015979D01*
X035637Y015991D01*
X035651Y016001D01*
X035666Y016008D01*
X035683Y016013D01*
X035700Y016014D01*
X035717Y016013D01*
X035734Y016008D01*
X035749Y016001D01*
X035763Y015991D01*
X035775Y015979D01*
X035785Y015965D01*
X035792Y015950D01*
X035797Y015933D01*
X035798Y015916D01*
X035798Y015601D01*
X035700Y015503D02*
X035683Y015504D01*
X035666Y015509D01*
X035651Y015516D01*
X035637Y015526D01*
X035625Y015538D01*
X035615Y015552D01*
X035608Y015567D01*
X035603Y015584D01*
X035602Y015601D01*
X035700Y015503D02*
X035717Y015504D01*
X035734Y015509D01*
X035749Y015516D01*
X035763Y015526D01*
X035775Y015538D01*
X035785Y015552D01*
X035792Y015567D01*
X035797Y015584D01*
X035798Y015601D01*
X035798Y029420D02*
X035798Y029735D01*
X035700Y029833D02*
X035683Y029832D01*
X035666Y029827D01*
X035651Y029820D01*
X035637Y029810D01*
X035625Y029798D01*
X035615Y029784D01*
X035608Y029769D01*
X035603Y029752D01*
X035602Y029735D01*
X035601Y029735D02*
X035601Y029420D01*
X035602Y029420D02*
X035603Y029403D01*
X035608Y029386D01*
X035615Y029371D01*
X035625Y029357D01*
X035637Y029345D01*
X035651Y029335D01*
X035666Y029328D01*
X035683Y029323D01*
X035700Y029322D01*
X035717Y029323D01*
X035734Y029328D01*
X035749Y029335D01*
X035763Y029345D01*
X035775Y029357D01*
X035785Y029371D01*
X035792Y029386D01*
X035797Y029403D01*
X035798Y029420D01*
X035798Y029735D02*
X035797Y029752D01*
X035792Y029769D01*
X035785Y029784D01*
X035775Y029798D01*
X035763Y029810D01*
X035749Y029820D01*
X035734Y029827D01*
X035717Y029832D01*
X035700Y029833D01*
X032963Y029735D02*
X032963Y029420D01*
X032865Y029322D02*
X032848Y029323D01*
X032831Y029328D01*
X032816Y029335D01*
X032802Y029345D01*
X032790Y029357D01*
X032780Y029371D01*
X032773Y029386D01*
X032768Y029403D01*
X032767Y029420D01*
X032767Y029735D01*
X032768Y029752D01*
X032773Y029769D01*
X032780Y029784D01*
X032790Y029798D01*
X032802Y029810D01*
X032816Y029820D01*
X032831Y029827D01*
X032848Y029832D01*
X032865Y029833D01*
X032882Y029832D01*
X032899Y029827D01*
X032914Y029820D01*
X032928Y029810D01*
X032940Y029798D01*
X032950Y029784D01*
X032957Y029769D01*
X032962Y029752D01*
X032963Y029735D01*
X032963Y029420D02*
X032962Y029403D01*
X032957Y029386D01*
X032950Y029371D01*
X032940Y029357D01*
X032928Y029345D01*
X032914Y029335D01*
X032899Y029328D01*
X032882Y029323D01*
X032865Y029322D01*
X029578Y029420D02*
X029578Y029735D01*
X029479Y029833D02*
X029462Y029832D01*
X029445Y029827D01*
X029430Y029820D01*
X029416Y029810D01*
X029404Y029798D01*
X029394Y029784D01*
X029387Y029769D01*
X029382Y029752D01*
X029381Y029735D01*
X029381Y029420D01*
X029382Y029403D01*
X029387Y029386D01*
X029394Y029371D01*
X029404Y029357D01*
X029416Y029345D01*
X029430Y029335D01*
X029445Y029328D01*
X029462Y029323D01*
X029479Y029322D01*
X029496Y029323D01*
X029513Y029328D01*
X029528Y029335D01*
X029542Y029345D01*
X029554Y029357D01*
X029564Y029371D01*
X029571Y029386D01*
X029576Y029403D01*
X029577Y029420D01*
X029577Y029735D02*
X029576Y029752D01*
X029571Y029769D01*
X029564Y029784D01*
X029554Y029798D01*
X029542Y029810D01*
X029528Y029820D01*
X029513Y029827D01*
X029496Y029832D01*
X029479Y029833D01*
X026743Y029735D02*
X026743Y029420D01*
X026645Y029322D02*
X026628Y029323D01*
X026611Y029328D01*
X026596Y029335D01*
X026582Y029345D01*
X026570Y029357D01*
X026560Y029371D01*
X026553Y029386D01*
X026548Y029403D01*
X026547Y029420D01*
X026546Y029420D02*
X026546Y029735D01*
X026547Y029735D02*
X026548Y029752D01*
X026553Y029769D01*
X026560Y029784D01*
X026570Y029798D01*
X026582Y029810D01*
X026596Y029820D01*
X026611Y029827D01*
X026628Y029832D01*
X026645Y029833D01*
X026662Y029832D01*
X026679Y029827D01*
X026694Y029820D01*
X026708Y029810D01*
X026720Y029798D01*
X026730Y029784D01*
X026737Y029769D01*
X026742Y029752D01*
X026743Y029735D01*
X026743Y029420D02*
X026742Y029403D01*
X026737Y029386D01*
X026730Y029371D01*
X026720Y029357D01*
X026708Y029345D01*
X026694Y029335D01*
X026679Y029328D01*
X026662Y029323D01*
X026645Y029322D01*
X023357Y029420D02*
X023357Y029735D01*
X023259Y029833D02*
X023242Y029832D01*
X023225Y029827D01*
X023210Y029820D01*
X023196Y029810D01*
X023184Y029798D01*
X023174Y029784D01*
X023167Y029769D01*
X023162Y029752D01*
X023161Y029735D01*
X023160Y029735D02*
X023160Y029420D01*
X023161Y029420D02*
X023162Y029403D01*
X023167Y029386D01*
X023174Y029371D01*
X023184Y029357D01*
X023196Y029345D01*
X023210Y029335D01*
X023225Y029328D01*
X023242Y029323D01*
X023259Y029322D01*
X023276Y029323D01*
X023293Y029328D01*
X023308Y029335D01*
X023322Y029345D01*
X023334Y029357D01*
X023344Y029371D01*
X023351Y029386D01*
X023356Y029403D01*
X023357Y029420D01*
X023357Y029735D02*
X023356Y029752D01*
X023351Y029769D01*
X023344Y029784D01*
X023334Y029798D01*
X023322Y029810D01*
X023308Y029820D01*
X023293Y029827D01*
X023276Y029832D01*
X023259Y029833D01*
X020523Y029735D02*
X020523Y029420D01*
X020424Y029322D02*
X020407Y029323D01*
X020390Y029328D01*
X020375Y029335D01*
X020361Y029345D01*
X020349Y029357D01*
X020339Y029371D01*
X020332Y029386D01*
X020327Y029403D01*
X020326Y029420D01*
X020326Y029735D01*
X020327Y029752D01*
X020332Y029769D01*
X020339Y029784D01*
X020349Y029798D01*
X020361Y029810D01*
X020375Y029820D01*
X020390Y029827D01*
X020407Y029832D01*
X020424Y029833D01*
X020441Y029832D01*
X020458Y029827D01*
X020473Y029820D01*
X020487Y029810D01*
X020499Y029798D01*
X020509Y029784D01*
X020516Y029769D01*
X020521Y029752D01*
X020522Y029735D01*
X020522Y029420D02*
X020521Y029403D01*
X020516Y029386D01*
X020509Y029371D01*
X020499Y029357D01*
X020487Y029345D01*
X020473Y029335D01*
X020458Y029328D01*
X020441Y029323D01*
X020424Y029322D01*
X017137Y029420D02*
X017137Y029735D01*
X017038Y029833D02*
X017021Y029832D01*
X017004Y029827D01*
X016989Y029820D01*
X016975Y029810D01*
X016963Y029798D01*
X016953Y029784D01*
X016946Y029769D01*
X016941Y029752D01*
X016940Y029735D01*
X016940Y029420D01*
X016941Y029403D01*
X016946Y029386D01*
X016953Y029371D01*
X016963Y029357D01*
X016975Y029345D01*
X016989Y029335D01*
X017004Y029328D01*
X017021Y029323D01*
X017038Y029322D01*
X017055Y029323D01*
X017072Y029328D01*
X017087Y029335D01*
X017101Y029345D01*
X017113Y029357D01*
X017123Y029371D01*
X017130Y029386D01*
X017135Y029403D01*
X017136Y029420D01*
X017136Y029735D02*
X017135Y029752D01*
X017130Y029769D01*
X017123Y029784D01*
X017113Y029798D01*
X017101Y029810D01*
X017087Y029820D01*
X017072Y029827D01*
X017055Y029832D01*
X017038Y029833D01*
X014302Y029735D02*
X014302Y029420D01*
X014204Y029322D02*
X014187Y029323D01*
X014170Y029328D01*
X014155Y029335D01*
X014141Y029345D01*
X014129Y029357D01*
X014119Y029371D01*
X014112Y029386D01*
X014107Y029403D01*
X014106Y029420D01*
X014105Y029420D02*
X014105Y029735D01*
X014106Y029735D02*
X014107Y029752D01*
X014112Y029769D01*
X014119Y029784D01*
X014129Y029798D01*
X014141Y029810D01*
X014155Y029820D01*
X014170Y029827D01*
X014187Y029832D01*
X014204Y029833D01*
X014221Y029832D01*
X014238Y029827D01*
X014253Y029820D01*
X014267Y029810D01*
X014279Y029798D01*
X014289Y029784D01*
X014296Y029769D01*
X014301Y029752D01*
X014302Y029735D01*
X014302Y029420D02*
X014301Y029403D01*
X014296Y029386D01*
X014289Y029371D01*
X014279Y029357D01*
X014267Y029345D01*
X014253Y029335D01*
X014238Y029328D01*
X014221Y029323D01*
X014204Y029322D01*
X010916Y029420D02*
X010916Y029735D01*
X010818Y029833D02*
X010801Y029832D01*
X010784Y029827D01*
X010769Y029820D01*
X010755Y029810D01*
X010743Y029798D01*
X010733Y029784D01*
X010726Y029769D01*
X010721Y029752D01*
X010720Y029735D01*
X010719Y029735D02*
X010719Y029420D01*
X010720Y029420D02*
X010721Y029403D01*
X010726Y029386D01*
X010733Y029371D01*
X010743Y029357D01*
X010755Y029345D01*
X010769Y029335D01*
X010784Y029328D01*
X010801Y029323D01*
X010818Y029322D01*
X010835Y029323D01*
X010852Y029328D01*
X010867Y029335D01*
X010881Y029345D01*
X010893Y029357D01*
X010903Y029371D01*
X010910Y029386D01*
X010915Y029403D01*
X010916Y029420D01*
X010916Y029735D02*
X010915Y029752D01*
X010910Y029769D01*
X010903Y029784D01*
X010893Y029798D01*
X010881Y029810D01*
X010867Y029820D01*
X010852Y029827D01*
X010835Y029832D01*
X010818Y029833D01*
X008082Y029735D02*
X008082Y029420D01*
X007983Y029322D02*
X007966Y029323D01*
X007949Y029328D01*
X007934Y029335D01*
X007920Y029345D01*
X007908Y029357D01*
X007898Y029371D01*
X007891Y029386D01*
X007886Y029403D01*
X007885Y029420D01*
X007885Y029735D01*
X007886Y029752D01*
X007891Y029769D01*
X007898Y029784D01*
X007908Y029798D01*
X007920Y029810D01*
X007934Y029820D01*
X007949Y029827D01*
X007966Y029832D01*
X007983Y029833D01*
X008000Y029832D01*
X008017Y029827D01*
X008032Y029820D01*
X008046Y029810D01*
X008058Y029798D01*
X008068Y029784D01*
X008075Y029769D01*
X008080Y029752D01*
X008081Y029735D01*
X008081Y029420D02*
X008080Y029403D01*
X008075Y029386D01*
X008068Y029371D01*
X008058Y029357D01*
X008046Y029345D01*
X008032Y029335D01*
X008017Y029328D01*
X008000Y029323D01*
X007983Y029322D01*
X004696Y029420D02*
X004696Y029735D01*
X004597Y029833D02*
X004580Y029832D01*
X004563Y029827D01*
X004548Y029820D01*
X004534Y029810D01*
X004522Y029798D01*
X004512Y029784D01*
X004505Y029769D01*
X004500Y029752D01*
X004499Y029735D01*
X004499Y029420D01*
X004500Y029403D01*
X004505Y029386D01*
X004512Y029371D01*
X004522Y029357D01*
X004534Y029345D01*
X004548Y029335D01*
X004563Y029328D01*
X004580Y029323D01*
X004597Y029322D01*
X004614Y029323D01*
X004631Y029328D01*
X004646Y029335D01*
X004660Y029345D01*
X004672Y029357D01*
X004682Y029371D01*
X004689Y029386D01*
X004694Y029403D01*
X004695Y029420D01*
X004695Y029735D02*
X004694Y029752D01*
X004689Y029769D01*
X004682Y029784D01*
X004672Y029798D01*
X004660Y029810D01*
X004646Y029820D01*
X004631Y029827D01*
X004614Y029832D01*
X004597Y029833D01*
X001861Y029735D02*
X001861Y029420D01*
X001763Y029322D02*
X001746Y029323D01*
X001729Y029328D01*
X001714Y029335D01*
X001700Y029345D01*
X001688Y029357D01*
X001678Y029371D01*
X001671Y029386D01*
X001666Y029403D01*
X001665Y029420D01*
X001664Y029420D02*
X001664Y029735D01*
X001665Y029735D02*
X001666Y029752D01*
X001671Y029769D01*
X001678Y029784D01*
X001688Y029798D01*
X001700Y029810D01*
X001714Y029820D01*
X001729Y029827D01*
X001746Y029832D01*
X001763Y029833D01*
X001780Y029832D01*
X001797Y029827D01*
X001812Y029820D01*
X001826Y029810D01*
X001838Y029798D01*
X001848Y029784D01*
X001855Y029769D01*
X001860Y029752D01*
X001861Y029735D01*
X001861Y029420D02*
X001860Y029403D01*
X001855Y029386D01*
X001848Y029371D01*
X001838Y029357D01*
X001826Y029345D01*
X001812Y029335D01*
X001797Y029328D01*
X001780Y029323D01*
X001763Y029322D01*
D11*
X000680Y028449D03*
X000680Y027780D03*
X001345Y023177D03*
X002015Y023177D03*
X001930Y021949D03*
X001930Y021280D03*
X002930Y021280D03*
X002930Y021949D03*
X003930Y021949D03*
X003930Y021280D03*
X003595Y023114D03*
X004265Y023114D03*
X005095Y023114D03*
X005765Y023114D03*
X007566Y023177D03*
X008235Y023177D03*
X008150Y021949D03*
X008150Y021280D03*
X009150Y021280D03*
X009150Y021949D03*
X010150Y021949D03*
X010150Y021280D03*
X009816Y023114D03*
X010485Y023114D03*
X011316Y023114D03*
X011985Y023114D03*
X013786Y023177D03*
X014456Y023177D03*
X014371Y021949D03*
X014371Y021280D03*
X015371Y021280D03*
X015371Y021949D03*
X016371Y021949D03*
X016371Y021280D03*
X016706Y023114D03*
X016036Y023114D03*
X017536Y023114D03*
X018206Y023114D03*
X020007Y023177D03*
X020676Y023177D03*
X020591Y021949D03*
X020591Y021280D03*
X021591Y021280D03*
X021591Y021949D03*
X022591Y021949D03*
X022591Y021280D03*
X022257Y023114D03*
X022926Y023114D03*
X023757Y023114D03*
X024426Y023114D03*
X026227Y023177D03*
X026897Y023177D03*
X026812Y021949D03*
X026812Y021280D03*
X027812Y021280D03*
X027812Y021949D03*
X028812Y021949D03*
X028812Y021280D03*
X029147Y023114D03*
X028477Y023114D03*
X029977Y023114D03*
X030647Y023114D03*
X032448Y023177D03*
X033117Y023177D03*
X033032Y021949D03*
X033032Y021280D03*
X034032Y021280D03*
X034032Y021949D03*
X035032Y021949D03*
X035032Y021280D03*
X034698Y023114D03*
X035367Y023114D03*
X036198Y023114D03*
X036867Y023114D03*
X031782Y027780D03*
X031782Y028449D03*
X025562Y028449D03*
X025562Y027780D03*
X019341Y027780D03*
X019341Y028449D03*
X013121Y028449D03*
X013121Y027780D03*
X006900Y027780D03*
X006900Y028449D03*
X006900Y014630D03*
X006900Y013961D03*
X007566Y009358D03*
X008235Y009358D03*
X008150Y008130D03*
X008150Y007461D03*
X009150Y007461D03*
X009150Y008130D03*
X010150Y008130D03*
X010150Y007461D03*
X009816Y009296D03*
X010485Y009296D03*
X011316Y009296D03*
X011985Y009296D03*
X013786Y009358D03*
X014456Y009358D03*
X014371Y008130D03*
X014371Y007461D03*
X015371Y007461D03*
X015371Y008130D03*
X016371Y008130D03*
X016371Y007461D03*
X016706Y009296D03*
X016036Y009296D03*
X017536Y009296D03*
X018206Y009296D03*
X020007Y009358D03*
X020676Y009358D03*
X020591Y008130D03*
X020591Y007461D03*
X021591Y007461D03*
X021591Y008130D03*
X022591Y008130D03*
X022591Y007461D03*
X022257Y009296D03*
X022926Y009296D03*
X023757Y009296D03*
X024426Y009296D03*
X026227Y009358D03*
X026897Y009358D03*
X026812Y008130D03*
X026812Y007461D03*
X027812Y007461D03*
X027812Y008130D03*
X028812Y008130D03*
X028812Y007461D03*
X029147Y009296D03*
X028477Y009296D03*
X029977Y009296D03*
X030647Y009296D03*
X032448Y009358D03*
X033117Y009358D03*
X033032Y008130D03*
X033032Y007461D03*
X034032Y007461D03*
X034032Y008130D03*
X035032Y008130D03*
X035032Y007461D03*
X034698Y009296D03*
X035367Y009296D03*
X036198Y009296D03*
X036867Y009296D03*
X031782Y013961D03*
X031782Y014630D03*
X025562Y014630D03*
X025562Y013961D03*
X019341Y013961D03*
X019341Y014630D03*
X013121Y014630D03*
X013121Y013961D03*
X005765Y009296D03*
X005095Y009296D03*
X004265Y009296D03*
X003595Y009296D03*
X003930Y008130D03*
X003930Y007461D03*
X002930Y007461D03*
X002930Y008130D03*
X001930Y008130D03*
X001930Y007461D03*
X002015Y009358D03*
X001345Y009358D03*
X000680Y013961D03*
X000680Y014630D03*
D12*
X000680Y015461D03*
X000680Y016130D03*
X002845Y013546D03*
X003515Y013546D03*
X005680Y013961D03*
X005680Y014630D03*
X005680Y015461D03*
X005680Y016130D03*
X006900Y016130D03*
X006900Y015461D03*
X009066Y013546D03*
X009735Y013546D03*
X011900Y013961D03*
X011900Y014630D03*
X011900Y015461D03*
X011900Y016130D03*
X013121Y016130D03*
X013121Y015461D03*
X015286Y013546D03*
X015956Y013546D03*
X018121Y013961D03*
X018121Y014630D03*
X018121Y015461D03*
X018121Y016130D03*
X019341Y016130D03*
X019341Y015461D03*
X021507Y013546D03*
X022176Y013546D03*
X024341Y013961D03*
X024341Y014630D03*
X024341Y015461D03*
X024341Y016130D03*
X025562Y016130D03*
X025562Y015461D03*
X027727Y013546D03*
X028397Y013546D03*
X030562Y013961D03*
X030562Y014630D03*
X030562Y015461D03*
X030562Y016130D03*
X031782Y016130D03*
X031782Y015461D03*
X033948Y013546D03*
X034617Y013546D03*
X036782Y013961D03*
X036782Y014630D03*
X036782Y015461D03*
X036782Y016130D03*
X036720Y019217D03*
X036720Y019887D03*
X032032Y021280D03*
X032032Y021949D03*
X030499Y019887D03*
X030499Y019217D03*
X025812Y021280D03*
X025812Y021949D03*
X024279Y019887D03*
X024279Y019217D03*
X019591Y021280D03*
X019591Y021949D03*
X018058Y019887D03*
X018058Y019217D03*
X013371Y021280D03*
X013371Y021949D03*
X011838Y019887D03*
X011838Y019217D03*
X007150Y021280D03*
X007150Y021949D03*
X005618Y019887D03*
X005618Y019217D03*
X000930Y021280D03*
X000930Y021949D03*
X002845Y027364D03*
X003515Y027364D03*
X005680Y027780D03*
X005680Y028449D03*
X005680Y029280D03*
X005680Y029949D03*
X006900Y029949D03*
X006900Y029280D03*
X009066Y027364D03*
X009735Y027364D03*
X011900Y027780D03*
X011900Y028449D03*
X011900Y029280D03*
X011900Y029949D03*
X013121Y029949D03*
X013121Y029280D03*
X015286Y027364D03*
X015956Y027364D03*
X018121Y027780D03*
X018121Y028449D03*
X018121Y029280D03*
X018121Y029949D03*
X019341Y029949D03*
X019341Y029280D03*
X021507Y027364D03*
X022176Y027364D03*
X024341Y027780D03*
X024341Y028449D03*
X024341Y029280D03*
X024341Y029949D03*
X025562Y029949D03*
X025562Y029280D03*
X027727Y027364D03*
X028397Y027364D03*
X030562Y027780D03*
X030562Y028449D03*
X030562Y029280D03*
X030562Y029949D03*
X031782Y029949D03*
X031782Y029280D03*
X033948Y027364D03*
X034617Y027364D03*
X036782Y027780D03*
X036782Y028449D03*
X036782Y029280D03*
X036782Y029949D03*
X032032Y008130D03*
X032032Y007461D03*
X030499Y006068D03*
X030499Y005398D03*
X025812Y007461D03*
X025812Y008130D03*
X024279Y006068D03*
X024279Y005398D03*
X019591Y007461D03*
X019591Y008130D03*
X018058Y006068D03*
X018058Y005398D03*
X013371Y007461D03*
X013371Y008130D03*
X011838Y006068D03*
X011838Y005398D03*
X007150Y007461D03*
X007150Y008130D03*
X005618Y006068D03*
X005618Y005398D03*
X000930Y007461D03*
X000930Y008130D03*
X000680Y029280D03*
X000680Y029949D03*
X036720Y006068D03*
X036720Y005398D03*
D13*
X033837Y010671D03*
X033837Y010921D03*
X033837Y011171D03*
X033837Y011421D03*
X033837Y011671D03*
X033837Y011921D03*
X033837Y012171D03*
X033837Y012421D03*
X033837Y012671D03*
X033837Y012921D03*
X031727Y012921D03*
X031727Y012671D03*
X031727Y012421D03*
X031727Y012171D03*
X031727Y011921D03*
X031727Y011671D03*
X031727Y011421D03*
X031727Y011171D03*
X031727Y010921D03*
X031727Y010671D03*
X027617Y010671D03*
X027617Y010921D03*
X027617Y011171D03*
X027617Y011421D03*
X027617Y011671D03*
X027617Y011921D03*
X027617Y012171D03*
X027617Y012421D03*
X027617Y012671D03*
X027617Y012921D03*
X025507Y012921D03*
X025507Y012671D03*
X025507Y012421D03*
X025507Y012171D03*
X025507Y011921D03*
X025507Y011671D03*
X025507Y011421D03*
X025507Y011171D03*
X025507Y010921D03*
X025507Y010671D03*
X021396Y010671D03*
X021396Y010921D03*
X021396Y011171D03*
X021396Y011421D03*
X021396Y011671D03*
X021396Y011921D03*
X021396Y012171D03*
X021396Y012421D03*
X021396Y012671D03*
X021396Y012921D03*
X019286Y012921D03*
X019286Y012671D03*
X019286Y012421D03*
X019286Y012171D03*
X019286Y011921D03*
X019286Y011671D03*
X019286Y011421D03*
X019286Y011171D03*
X019286Y010921D03*
X019286Y010671D03*
X015176Y010671D03*
X015176Y010921D03*
X015176Y011171D03*
X015176Y011421D03*
X015176Y011671D03*
X015176Y011921D03*
X015176Y012171D03*
X015176Y012421D03*
X015176Y012671D03*
X015176Y012921D03*
X013066Y012921D03*
X013066Y012671D03*
X013066Y012421D03*
X013066Y012171D03*
X013066Y011921D03*
X013066Y011671D03*
X013066Y011421D03*
X013066Y011171D03*
X013066Y010921D03*
X013066Y010671D03*
X008955Y010671D03*
X008955Y010921D03*
X008955Y011171D03*
X008955Y011421D03*
X008955Y011671D03*
X008955Y011921D03*
X008955Y012171D03*
X008955Y012421D03*
X008955Y012671D03*
X008955Y012921D03*
X006845Y012921D03*
X006845Y012671D03*
X006845Y012421D03*
X006845Y012171D03*
X006845Y011921D03*
X006845Y011671D03*
X006845Y011421D03*
X006845Y011171D03*
X006845Y010921D03*
X006845Y010671D03*
X002735Y010671D03*
X002735Y010921D03*
X002735Y011171D03*
X002735Y011421D03*
X002735Y011671D03*
X002735Y011921D03*
X002735Y012171D03*
X002735Y012421D03*
X002735Y012671D03*
X002735Y012921D03*
X000625Y012921D03*
X000625Y012671D03*
X000625Y012421D03*
X000625Y012171D03*
X000625Y011921D03*
X000625Y011671D03*
X000625Y011421D03*
X000625Y011171D03*
X000625Y010921D03*
X000625Y010671D03*
X000625Y024489D03*
X000625Y024739D03*
X000625Y024989D03*
X000625Y025239D03*
X000625Y025489D03*
X000625Y025739D03*
X000625Y025989D03*
X000625Y026239D03*
X000625Y026489D03*
X000625Y026739D03*
X002735Y026739D03*
X002735Y026489D03*
X002735Y026239D03*
X002735Y025989D03*
X002735Y025739D03*
X002735Y025489D03*
X002735Y025239D03*
X002735Y024989D03*
X002735Y024739D03*
X002735Y024489D03*
X006845Y024489D03*
X006845Y024739D03*
X006845Y024989D03*
X006845Y025239D03*
X006845Y025489D03*
X006845Y025739D03*
X006845Y025989D03*
X006845Y026239D03*
X006845Y026489D03*
X006845Y026739D03*
X008955Y026739D03*
X008955Y026489D03*
X008955Y026239D03*
X008955Y025989D03*
X008955Y025739D03*
X008955Y025489D03*
X008955Y025239D03*
X008955Y024989D03*
X008955Y024739D03*
X008955Y024489D03*
X013066Y024489D03*
X013066Y024739D03*
X013066Y024989D03*
X013066Y025239D03*
X013066Y025489D03*
X013066Y025739D03*
X013066Y025989D03*
X013066Y026239D03*
X013066Y026489D03*
X013066Y026739D03*
X015176Y026739D03*
X015176Y026489D03*
X015176Y026239D03*
X015176Y025989D03*
X015176Y025739D03*
X015176Y025489D03*
X015176Y025239D03*
X015176Y024989D03*
X015176Y024739D03*
X015176Y024489D03*
X019286Y024489D03*
X019286Y024739D03*
X019286Y024989D03*
X019286Y025239D03*
X019286Y025489D03*
X019286Y025739D03*
X019286Y025989D03*
X019286Y026239D03*
X019286Y026489D03*
X019286Y026739D03*
X021396Y026739D03*
X021396Y026489D03*
X021396Y026239D03*
X021396Y025989D03*
X021396Y025739D03*
X021396Y025489D03*
X021396Y025239D03*
X021396Y024989D03*
X021396Y024739D03*
X021396Y024489D03*
X025507Y024489D03*
X025507Y024739D03*
X025507Y024989D03*
X025507Y025239D03*
X025507Y025489D03*
X025507Y025739D03*
X025507Y025989D03*
X025507Y026239D03*
X025507Y026489D03*
X025507Y026739D03*
X027617Y026739D03*
X027617Y026489D03*
X027617Y026239D03*
X027617Y025989D03*
X027617Y025739D03*
X027617Y025489D03*
X027617Y025239D03*
X027617Y024989D03*
X027617Y024739D03*
X027617Y024489D03*
X031727Y024489D03*
X031727Y024739D03*
X031727Y024989D03*
X031727Y025239D03*
X031727Y025489D03*
X031727Y025739D03*
X031727Y025989D03*
X031727Y026239D03*
X031727Y026489D03*
X031727Y026739D03*
X033837Y026739D03*
X033837Y026489D03*
X033837Y026239D03*
X033837Y025989D03*
X033837Y025739D03*
X033837Y025489D03*
X033837Y025239D03*
X033837Y024989D03*
X033837Y024739D03*
X033837Y024489D03*
D14*
X036282Y022008D03*
X035908Y021221D03*
X036656Y021221D03*
X030436Y021221D03*
X029688Y021221D03*
X030062Y022008D03*
X024215Y021221D03*
X023467Y021221D03*
X023841Y022008D03*
X017995Y021221D03*
X017247Y021221D03*
X017621Y022008D03*
X011774Y021221D03*
X011026Y021221D03*
X011400Y022008D03*
X005554Y021221D03*
X004806Y021221D03*
X005180Y022008D03*
X005180Y008189D03*
X004806Y007402D03*
X005554Y007402D03*
X011026Y007402D03*
X011774Y007402D03*
X011400Y008189D03*
X017247Y007402D03*
X017995Y007402D03*
X017621Y008189D03*
X023467Y007402D03*
X024215Y007402D03*
X023841Y008189D03*
X029688Y007402D03*
X030436Y007402D03*
X030062Y008189D03*
X035908Y007402D03*
X036656Y007402D03*
X036282Y008189D03*
D15*
X036692Y010576D03*
X035782Y010576D03*
X034872Y010576D03*
X030472Y010576D03*
X029562Y010576D03*
X028652Y010576D03*
X024251Y010576D03*
X023341Y010576D03*
X022431Y010576D03*
X018031Y010576D03*
X017121Y010576D03*
X016211Y010576D03*
X011810Y010576D03*
X010900Y010576D03*
X009990Y010576D03*
X005590Y010576D03*
X004680Y010576D03*
X003770Y010576D03*
X003770Y024394D03*
X004680Y024394D03*
X005590Y024394D03*
X009990Y024394D03*
X010900Y024394D03*
X011810Y024394D03*
X016211Y024394D03*
X017121Y024394D03*
X018031Y024394D03*
X022431Y024394D03*
X023341Y024394D03*
X024251Y024394D03*
X028652Y024394D03*
X029562Y024394D03*
X030472Y024394D03*
X034872Y024394D03*
X035782Y024394D03*
X036692Y024394D03*
D16*
X035782Y026835D03*
X029562Y026835D03*
X023341Y026835D03*
X017121Y026835D03*
X010900Y026835D03*
X004680Y026835D03*
X004680Y013016D03*
X010900Y013016D03*
X017121Y013016D03*
X023341Y013016D03*
X029562Y013016D03*
X035782Y013016D03*
D17*
X034597Y015876D03*
X033967Y015876D03*
X028377Y015876D03*
X027747Y015876D03*
X022156Y015876D03*
X021526Y015876D03*
X015936Y015876D03*
X015306Y015876D03*
X009715Y015876D03*
X009086Y015876D03*
X003495Y015876D03*
X002865Y015876D03*
X002865Y029695D03*
X003495Y029695D03*
X009086Y029695D03*
X009715Y029695D03*
X015306Y029695D03*
X015936Y029695D03*
X021526Y029695D03*
X022156Y029695D03*
X027747Y029695D03*
X028377Y029695D03*
X033967Y029695D03*
X034597Y029695D03*
D18*
X034538Y028642D03*
X034282Y028642D03*
X034026Y028642D03*
X033771Y028642D03*
X034794Y028642D03*
X028574Y028642D03*
X028318Y028642D03*
X028062Y028642D03*
X027806Y028642D03*
X027550Y028642D03*
X022353Y028642D03*
X022097Y028642D03*
X021841Y028642D03*
X021586Y028642D03*
X021330Y028642D03*
X016133Y028642D03*
X015877Y028642D03*
X015621Y028642D03*
X015365Y028642D03*
X015109Y028642D03*
X009912Y028642D03*
X009656Y028642D03*
X009400Y028642D03*
X009145Y028642D03*
X008889Y028642D03*
X003692Y028642D03*
X003436Y028642D03*
X003180Y028642D03*
X002924Y028642D03*
X002668Y028642D03*
X002668Y014823D03*
X002924Y014823D03*
X003180Y014823D03*
X003436Y014823D03*
X003692Y014823D03*
X008889Y014823D03*
X009145Y014823D03*
X009400Y014823D03*
X009656Y014823D03*
X009912Y014823D03*
X015109Y014823D03*
X015365Y014823D03*
X015621Y014823D03*
X015877Y014823D03*
X016133Y014823D03*
X021330Y014823D03*
X021586Y014823D03*
X021841Y014823D03*
X022097Y014823D03*
X022353Y014823D03*
X027550Y014823D03*
X027806Y014823D03*
X028062Y014823D03*
X028318Y014823D03*
X028574Y014823D03*
X033771Y014823D03*
X034026Y014823D03*
X034282Y014823D03*
X034538Y014823D03*
X034794Y014823D03*
M02*
