G75*
%MOIN*%
%OFA0B0*%
%FSLAX24Y24*%
%IPPOS*%
%LPD*%
%AMOC8*
5,1,8,0,0,1.08239X$1,22.5*
%
%ADD10C,0.0000*%
%ADD11C,0.0030*%
%ADD12C,0.0020*%
%ADD13C,0.0080*%
%ADD14C,0.0050*%
%ADD15C,0.0060*%
%ADD16C,0.0040*%
D10*
X001875Y000160D02*
X001875Y013906D01*
X007995Y013906D01*
X007995Y000160D01*
X001875Y000160D01*
X003359Y012965D02*
X003359Y013280D01*
X003360Y013280D02*
X003361Y013297D01*
X003366Y013314D01*
X003373Y013329D01*
X003383Y013343D01*
X003395Y013355D01*
X003409Y013365D01*
X003424Y013372D01*
X003441Y013377D01*
X003458Y013378D01*
X003475Y013377D01*
X003492Y013372D01*
X003507Y013365D01*
X003521Y013355D01*
X003533Y013343D01*
X003543Y013329D01*
X003550Y013314D01*
X003555Y013297D01*
X003556Y013280D01*
X003556Y012965D01*
X003458Y012867D02*
X003441Y012868D01*
X003424Y012873D01*
X003409Y012880D01*
X003395Y012890D01*
X003383Y012902D01*
X003373Y012916D01*
X003366Y012931D01*
X003361Y012948D01*
X003360Y012965D01*
X003458Y012867D02*
X003475Y012868D01*
X003492Y012873D01*
X003507Y012880D01*
X003521Y012890D01*
X003533Y012902D01*
X003543Y012916D01*
X003550Y012931D01*
X003555Y012948D01*
X003556Y012965D01*
X006194Y012965D02*
X006194Y013280D01*
X006195Y013297D01*
X006200Y013314D01*
X006207Y013329D01*
X006217Y013343D01*
X006229Y013355D01*
X006243Y013365D01*
X006258Y013372D01*
X006275Y013377D01*
X006292Y013378D01*
X006309Y013377D01*
X006326Y013372D01*
X006341Y013365D01*
X006355Y013355D01*
X006367Y013343D01*
X006377Y013329D01*
X006384Y013314D01*
X006389Y013297D01*
X006390Y013280D01*
X006391Y013280D02*
X006391Y012965D01*
X006292Y012867D02*
X006275Y012868D01*
X006258Y012873D01*
X006243Y012880D01*
X006229Y012890D01*
X006217Y012902D01*
X006207Y012916D01*
X006200Y012931D01*
X006195Y012948D01*
X006194Y012965D01*
X006292Y012867D02*
X006309Y012868D01*
X006326Y012873D01*
X006341Y012880D01*
X006355Y012890D01*
X006367Y012902D01*
X006377Y012916D01*
X006384Y012931D01*
X006389Y012948D01*
X006390Y012965D01*
D11*
X005837Y001870D02*
X005731Y001870D01*
X005677Y001817D01*
X005568Y001817D02*
X005568Y001603D01*
X005515Y001550D01*
X005408Y001550D01*
X005355Y001603D01*
X005355Y001817D01*
X005408Y001870D01*
X005515Y001870D01*
X005568Y001817D01*
X005677Y001550D02*
X005891Y001764D01*
X005891Y001817D01*
X005837Y001870D01*
X005891Y001550D02*
X005677Y001550D01*
X005247Y001550D02*
X005140Y001550D01*
X005193Y001550D02*
X005193Y001870D01*
X005140Y001870D02*
X005247Y001870D01*
X004891Y001817D02*
X004891Y001603D01*
X004837Y001550D01*
X004731Y001550D01*
X004677Y001603D01*
X004891Y001817D01*
X004837Y001870D01*
X004731Y001870D01*
X004677Y001817D01*
X004677Y001603D01*
X004568Y001603D02*
X004568Y001817D01*
X004515Y001870D01*
X004408Y001870D01*
X004355Y001817D01*
X004355Y001603D01*
X004408Y001550D01*
X004515Y001550D01*
X004568Y001603D01*
X004247Y001550D02*
X004140Y001550D01*
X004193Y001550D02*
X004193Y001870D01*
X004140Y001870D02*
X004247Y001870D01*
X003748Y001817D02*
X003748Y001603D01*
X003695Y001550D01*
X003535Y001550D01*
X003535Y001870D01*
X003695Y001870D01*
X003748Y001817D01*
X003426Y001870D02*
X003426Y001550D01*
X003212Y001870D01*
X003212Y001550D01*
X003104Y001603D02*
X003104Y001710D01*
X002997Y001710D01*
X003104Y001603D02*
X003050Y001550D01*
X002943Y001550D01*
X002890Y001603D01*
X002890Y001817D01*
X002943Y001870D01*
X003050Y001870D01*
X003104Y001817D01*
X002613Y001870D02*
X002613Y001657D01*
X002507Y001550D01*
X002400Y001657D01*
X002400Y001870D01*
X002291Y001817D02*
X002291Y001764D01*
X002238Y001710D01*
X002291Y001657D01*
X002291Y001603D01*
X002238Y001550D01*
X002131Y001550D01*
X002078Y001603D01*
X002184Y001710D02*
X002238Y001710D01*
X002291Y001817D02*
X002238Y001870D01*
X002131Y001870D01*
X002078Y001817D01*
D12*
X002479Y004195D02*
X002573Y004195D01*
X002619Y004242D01*
X002709Y004242D02*
X002709Y004335D01*
X002849Y004335D01*
X002896Y004288D01*
X002896Y004242D01*
X002849Y004195D01*
X002755Y004195D01*
X002709Y004242D01*
X002709Y004335D02*
X002802Y004429D01*
X002896Y004475D01*
X002619Y004429D02*
X002573Y004475D01*
X002479Y004475D01*
X002433Y004429D01*
X002433Y004242D01*
X002479Y004195D01*
X003104Y005883D02*
X003198Y005883D01*
X003244Y005929D01*
X003334Y005883D02*
X003521Y005883D01*
X003427Y005883D02*
X003427Y006163D01*
X003334Y006069D01*
X003244Y006116D02*
X003198Y006163D01*
X003104Y006163D01*
X003058Y006116D01*
X003058Y005929D01*
X003104Y005883D01*
X003433Y004425D02*
X003573Y004425D01*
X003619Y004379D01*
X003619Y004285D01*
X003573Y004238D01*
X003433Y004238D01*
X003526Y004238D02*
X003619Y004145D01*
X003709Y004285D02*
X003896Y004285D01*
X003849Y004145D02*
X003849Y004425D01*
X003709Y004285D01*
X003433Y004145D02*
X003433Y004425D01*
X003948Y003075D02*
X003948Y002795D01*
X004134Y002795D01*
X004224Y002842D02*
X004270Y002795D01*
X004364Y002795D01*
X004411Y002842D01*
X004411Y002888D01*
X004364Y002935D01*
X004270Y002935D01*
X004224Y002982D01*
X004224Y003029D01*
X004270Y003075D01*
X004364Y003075D01*
X004411Y003029D01*
X004500Y003075D02*
X004640Y003075D01*
X004687Y003029D01*
X004687Y002935D01*
X004640Y002888D01*
X004500Y002888D01*
X004500Y002795D02*
X004500Y003075D01*
X004776Y003029D02*
X004776Y002982D01*
X004823Y002935D01*
X004916Y002935D01*
X004963Y002888D01*
X004963Y002842D01*
X004916Y002795D01*
X004823Y002795D01*
X004776Y002842D01*
X004776Y002888D01*
X004823Y002935D01*
X004916Y002935D02*
X004963Y002982D01*
X004963Y003029D01*
X004916Y003075D01*
X004823Y003075D01*
X004776Y003029D01*
X005052Y003029D02*
X005099Y003075D01*
X005193Y003075D01*
X005239Y003029D01*
X005239Y002982D01*
X005052Y002795D01*
X005239Y002795D01*
X005329Y002842D02*
X005329Y002935D01*
X005469Y002935D01*
X005516Y002888D01*
X005516Y002842D01*
X005469Y002795D01*
X005375Y002795D01*
X005329Y002842D01*
X005329Y002935D02*
X005422Y003029D01*
X005516Y003075D01*
X005605Y002935D02*
X005745Y002935D01*
X005792Y002888D01*
X005792Y002842D01*
X005745Y002795D01*
X005652Y002795D01*
X005605Y002842D01*
X005605Y002935D01*
X005698Y003029D01*
X005792Y003075D01*
X005881Y002935D02*
X006068Y002935D01*
X006157Y002842D02*
X006344Y003029D01*
X006344Y002842D01*
X006298Y002795D01*
X006204Y002795D01*
X006157Y002842D01*
X006157Y003029D01*
X006204Y003075D01*
X006298Y003075D01*
X006344Y003029D01*
X006434Y002982D02*
X006527Y003075D01*
X006527Y002795D01*
X006434Y002795D02*
X006620Y002795D01*
X007019Y002375D02*
X006973Y002329D01*
X006973Y002142D01*
X007019Y002095D01*
X007113Y002095D01*
X007159Y002142D01*
X007249Y002095D02*
X007436Y002282D01*
X007436Y002329D01*
X007389Y002375D01*
X007295Y002375D01*
X007249Y002329D01*
X007159Y002329D02*
X007113Y002375D01*
X007019Y002375D01*
X007249Y002095D02*
X007436Y002095D01*
X007048Y004083D02*
X006861Y004083D01*
X007048Y004269D01*
X007048Y004316D01*
X007001Y004363D01*
X006908Y004363D01*
X006861Y004316D01*
X006772Y004316D02*
X006772Y004129D01*
X006725Y004083D01*
X006585Y004083D01*
X006585Y004363D01*
X006725Y004363D01*
X006772Y004316D01*
X006917Y005883D02*
X007010Y005883D01*
X007057Y005929D01*
X007146Y005929D02*
X007146Y005883D01*
X007146Y005929D02*
X007333Y006116D01*
X007333Y006163D01*
X007146Y006163D01*
X007057Y006116D02*
X007010Y006163D01*
X006917Y006163D01*
X006870Y006116D01*
X006870Y005929D01*
X006917Y005883D01*
X005896Y005929D02*
X005849Y005883D01*
X005755Y005883D01*
X005709Y005929D01*
X005709Y005976D01*
X005755Y006023D01*
X005849Y006023D01*
X005896Y005976D01*
X005896Y005929D01*
X005849Y006023D02*
X005896Y006069D01*
X005896Y006116D01*
X005849Y006163D01*
X005755Y006163D01*
X005709Y006116D01*
X005709Y006069D01*
X005755Y006023D01*
X005619Y006116D02*
X005573Y006163D01*
X005479Y006163D01*
X005433Y006116D01*
X005433Y005929D01*
X005479Y005883D01*
X005573Y005883D01*
X005619Y005929D01*
X005608Y004363D02*
X005701Y004363D01*
X005748Y004316D01*
X005748Y004269D01*
X005701Y004223D01*
X005748Y004176D01*
X005748Y004129D01*
X005701Y004083D01*
X005608Y004083D01*
X005561Y004129D01*
X005472Y004083D02*
X005378Y004176D01*
X005425Y004176D02*
X005472Y004223D01*
X005472Y004316D01*
X005425Y004363D01*
X005285Y004363D01*
X005285Y004083D01*
X005285Y004176D02*
X005425Y004176D01*
X005561Y004316D02*
X005608Y004363D01*
X005655Y004223D02*
X005701Y004223D01*
X004896Y004192D02*
X004849Y004145D01*
X004755Y004145D01*
X004709Y004192D01*
X004709Y004285D02*
X004802Y004332D01*
X004849Y004332D01*
X004896Y004285D01*
X004896Y004192D01*
X004896Y004425D02*
X004709Y004425D01*
X004709Y004285D01*
X004619Y004285D02*
X004619Y004379D01*
X004573Y004425D01*
X004433Y004425D01*
X004433Y004145D01*
X004433Y004238D02*
X004573Y004238D01*
X004619Y004285D01*
X004526Y004238D02*
X004619Y004145D01*
X004134Y003075D02*
X003948Y003075D01*
X003948Y002935D02*
X004041Y002935D01*
X005623Y008695D02*
X005809Y008695D01*
X005899Y008695D02*
X005899Y008975D01*
X005992Y008882D01*
X006086Y008975D01*
X006086Y008695D01*
X006175Y008695D02*
X006362Y008695D01*
X006451Y008695D02*
X006638Y008695D01*
X006727Y008695D02*
X006914Y008695D01*
X007004Y008695D02*
X007004Y008742D01*
X007191Y008929D01*
X007191Y008975D01*
X007004Y008975D01*
X006821Y008975D02*
X006821Y008695D01*
X006727Y008882D02*
X006821Y008975D01*
X006545Y008975D02*
X006545Y008695D01*
X006451Y008882D02*
X006545Y008975D01*
X006268Y008975D02*
X006268Y008695D01*
X006175Y008882D02*
X006268Y008975D01*
X005623Y008975D02*
X005623Y008695D01*
X005672Y010843D02*
X005672Y010983D01*
X005625Y011029D01*
X005531Y011029D01*
X005485Y010983D01*
X005485Y010843D01*
X005765Y010843D01*
X005672Y010936D02*
X005765Y011029D01*
X005765Y011119D02*
X005578Y011306D01*
X005531Y011306D01*
X005485Y011259D01*
X005485Y011165D01*
X005531Y011119D01*
X005765Y011119D02*
X005765Y011306D01*
X006622Y011327D02*
X006669Y011280D01*
X006856Y011280D01*
X006903Y011327D01*
X006903Y011420D01*
X006856Y011467D01*
X006856Y011556D02*
X006903Y011603D01*
X006903Y011696D01*
X006856Y011743D01*
X006762Y011743D01*
X006716Y011696D01*
X006716Y011650D01*
X006762Y011556D01*
X006622Y011556D01*
X006622Y011743D01*
X006669Y011467D02*
X006622Y011420D01*
X006622Y011327D01*
X006706Y012883D02*
X006893Y012883D01*
X006940Y012929D01*
X006940Y013023D01*
X006893Y013069D01*
X006800Y013159D02*
X006800Y013346D01*
X006940Y013299D02*
X006660Y013299D01*
X006800Y013159D01*
X006706Y013069D02*
X006660Y013023D01*
X006660Y012929D01*
X006706Y012883D01*
X003203Y011908D02*
X003203Y011721D01*
X003203Y011632D02*
X003109Y011538D01*
X003109Y011585D02*
X003109Y011445D01*
X003203Y011445D02*
X002922Y011445D01*
X002922Y011585D01*
X002969Y011632D01*
X003062Y011632D01*
X003109Y011585D01*
X003016Y011721D02*
X002922Y011815D01*
X003203Y011815D01*
X003081Y013008D02*
X002894Y013008D01*
X002847Y013054D01*
X002847Y013148D01*
X002894Y013194D01*
X002894Y013284D02*
X002847Y013330D01*
X002847Y013424D01*
X002894Y013471D01*
X002941Y013471D01*
X002987Y013424D01*
X003034Y013471D01*
X003081Y013471D01*
X003128Y013424D01*
X003128Y013330D01*
X003081Y013284D01*
X003081Y013194D02*
X003128Y013148D01*
X003128Y013054D01*
X003081Y013008D01*
X002987Y013377D02*
X002987Y013424D01*
D13*
X002605Y010865D02*
X004145Y010865D01*
X004145Y007455D01*
X002605Y007455D01*
X002605Y010865D01*
X002784Y010610D02*
X002786Y010633D01*
X002792Y010656D01*
X002801Y010677D01*
X002814Y010697D01*
X002830Y010714D01*
X002848Y010728D01*
X002868Y010739D01*
X002890Y010747D01*
X002913Y010751D01*
X002937Y010751D01*
X002960Y010747D01*
X002982Y010739D01*
X003002Y010728D01*
X003020Y010714D01*
X003036Y010697D01*
X003049Y010677D01*
X003058Y010656D01*
X003064Y010633D01*
X003066Y010610D01*
X003064Y010587D01*
X003058Y010564D01*
X003049Y010543D01*
X003036Y010523D01*
X003020Y010506D01*
X003002Y010492D01*
X002982Y010481D01*
X002960Y010473D01*
X002937Y010469D01*
X002913Y010469D01*
X002890Y010473D01*
X002868Y010481D01*
X002848Y010492D01*
X002830Y010506D01*
X002814Y010523D01*
X002801Y010543D01*
X002792Y010564D01*
X002786Y010587D01*
X002784Y010610D01*
X005085Y009810D02*
X005085Y008510D01*
X007665Y008510D01*
X007665Y009810D01*
X005085Y009810D01*
D14*
X006174Y011902D02*
X006174Y013910D01*
X006253Y013910D01*
X006253Y014067D01*
X006255Y014087D01*
X006260Y014107D01*
X006269Y014126D01*
X006281Y014143D01*
X006295Y014157D01*
X006312Y014169D01*
X006331Y014178D01*
X006351Y014183D01*
X006371Y014185D01*
X006371Y014186D02*
X006450Y014107D01*
X006435Y014105D01*
X006420Y014101D01*
X006406Y014094D01*
X006394Y014084D01*
X006384Y014072D01*
X006377Y014058D01*
X006373Y014043D01*
X006371Y014028D01*
X006371Y013910D01*
X006371Y011902D01*
X006174Y011902D01*
X003595Y011902D01*
X003595Y013910D01*
X006174Y013910D01*
X006253Y013910D02*
X006371Y013910D01*
X003595Y013910D02*
X003497Y013910D01*
X003497Y014067D01*
X003497Y013910D02*
X003379Y013910D01*
X003379Y014028D01*
X003497Y014067D02*
X003495Y014087D01*
X003490Y014107D01*
X003481Y014126D01*
X003469Y014143D01*
X003455Y014157D01*
X003438Y014169D01*
X003419Y014178D01*
X003399Y014183D01*
X003379Y014185D01*
X003379Y014186D02*
X003300Y014107D01*
X003315Y014105D01*
X003330Y014101D01*
X003344Y014094D01*
X003356Y014084D01*
X003366Y014072D01*
X003373Y014058D01*
X003377Y014043D01*
X003379Y014028D01*
X003379Y013910D02*
X003379Y011902D01*
X003595Y011902D01*
X003875Y003973D02*
X002875Y003973D01*
X002875Y002973D01*
X003875Y002973D01*
X003875Y003973D01*
X007675Y003973D01*
X007710Y003956D02*
X007710Y001979D01*
X002080Y001979D01*
X002080Y003956D01*
X002075Y003973D02*
X002875Y003973D01*
X004625Y003783D02*
X004645Y003808D01*
X004669Y003832D01*
X004694Y003853D01*
X004722Y003870D01*
X004752Y003885D01*
X004783Y003895D01*
X004816Y003903D01*
X004848Y003907D01*
X004882Y003907D01*
X004914Y003903D01*
X004947Y003895D01*
X004978Y003885D01*
X005008Y003870D01*
X005036Y003853D01*
X005061Y003832D01*
X005085Y003808D01*
X005105Y003783D01*
X005025Y003713D02*
X005008Y003734D01*
X004989Y003752D01*
X004967Y003767D01*
X004943Y003780D01*
X004918Y003789D01*
X004892Y003794D01*
X004865Y003796D01*
X004838Y003794D01*
X004812Y003789D01*
X004787Y003780D01*
X004763Y003767D01*
X004741Y003752D01*
X004722Y003734D01*
X004705Y003713D01*
X004785Y003642D02*
X004797Y003656D01*
X004811Y003667D01*
X004826Y003676D01*
X004843Y003682D01*
X004861Y003686D01*
X004879Y003686D01*
X004897Y003682D01*
X004914Y003676D01*
X004929Y003667D01*
X004943Y003656D01*
X004955Y003642D01*
X004853Y003543D02*
X004855Y003552D01*
X004860Y003559D01*
X004868Y003564D01*
X004877Y003565D01*
X004886Y003562D01*
X004893Y003556D01*
X004897Y003548D01*
X004897Y003538D01*
X004893Y003530D01*
X004886Y003524D01*
X004877Y003521D01*
X004868Y003522D01*
X004860Y003527D01*
X004855Y003534D01*
X004853Y003543D01*
D15*
X004625Y001410D02*
X004125Y001410D01*
X003875Y001160D01*
X003875Y000660D01*
X003625Y000410D01*
X003125Y000410D01*
X002875Y000660D01*
X002625Y000410D01*
X002125Y000410D01*
X001875Y000660D01*
X001875Y001160D01*
X002125Y001410D01*
X002625Y001410D01*
X002875Y001160D01*
X003125Y001410D01*
X003625Y001410D01*
X003875Y001160D01*
X003875Y000660D02*
X004125Y000410D01*
X004625Y000410D01*
X004875Y000660D01*
X005125Y000410D01*
X005625Y000410D01*
X005875Y000660D01*
X005875Y001160D01*
X005625Y001410D01*
X005125Y001410D01*
X004875Y001160D01*
X004875Y000660D01*
X004875Y001160D02*
X004625Y001410D01*
X002875Y001160D02*
X002875Y000660D01*
X006256Y004903D02*
X006256Y005420D01*
X006673Y005420D01*
X006703Y004900D02*
X007041Y004900D01*
X007097Y005420D02*
X007494Y005420D01*
X007494Y004903D01*
X007625Y001410D02*
X007125Y001410D01*
X006875Y001160D01*
X006875Y000660D01*
X007125Y000410D01*
X007625Y000410D01*
X007875Y000660D01*
X007875Y001160D01*
X007625Y001410D01*
D16*
X007541Y001525D02*
X007644Y001628D01*
X007644Y001835D01*
X007437Y001628D02*
X007541Y001525D01*
X007437Y001628D02*
X007437Y001835D01*
X007322Y001835D02*
X007115Y001835D01*
X007115Y001680D01*
X007218Y001732D01*
X007270Y001732D01*
X007322Y001680D01*
X007322Y001577D01*
X007270Y001525D01*
X007167Y001525D01*
X007115Y001577D01*
M02*
