G75*
%MOIN*%
%OFA0B0*%
%FSLAX24Y24*%
%IPPOS*%
%LPD*%
%AMOC8*
5,1,8,0,0,1.08239X$1,22.5*
%
%ADD10R,0.0394X0.0433*%
%ADD11R,0.0433X0.0394*%
%ADD12R,0.0450X0.0150*%
%ADD13R,0.0236X0.0276*%
%ADD14R,0.0480X0.0880*%
%ADD15R,0.1417X0.0866*%
%ADD16R,0.0236X0.0531*%
%ADD17R,0.0157X0.0492*%
%ADD18C,0.0020*%
%ADD19C,0.0050*%
D10*
X001020Y004914D03*
X001020Y005583D03*
X001845Y006607D03*
X001845Y007276D03*
X003814Y007276D03*
X003814Y006607D03*
X005388Y006607D03*
X005388Y007276D03*
X005708Y003521D03*
X005708Y002851D03*
X005782Y012119D03*
X005782Y012788D03*
X004601Y012788D03*
X004601Y012119D03*
X002239Y012119D03*
X002239Y012788D03*
D11*
X003420Y012788D03*
X003420Y012119D03*
X001058Y012119D03*
X001058Y012788D03*
X002020Y005583D03*
X002020Y004914D03*
X003020Y004914D03*
X003020Y005583D03*
X004020Y005583D03*
X004020Y004914D03*
D12*
X002825Y008517D03*
X002825Y008767D03*
X002825Y009017D03*
X002825Y009267D03*
X002825Y009517D03*
X002825Y009767D03*
X002825Y010017D03*
X002825Y010267D03*
X002825Y010517D03*
X002825Y010767D03*
X000715Y010767D03*
X000715Y010517D03*
X000715Y010267D03*
X000715Y010017D03*
X000715Y009767D03*
X000715Y009517D03*
X000715Y009267D03*
X000715Y009017D03*
X000715Y008767D03*
X000715Y008517D03*
D13*
X004896Y004855D03*
X005270Y005642D03*
X005644Y004855D03*
D14*
X005680Y008422D03*
X004770Y008422D03*
X003860Y008422D03*
D15*
X004770Y010862D03*
D16*
X003644Y014806D03*
X003014Y014806D03*
D17*
X003073Y013752D03*
X002818Y013752D03*
X003329Y013752D03*
X003585Y013752D03*
X003841Y013752D03*
D18*
X004571Y014349D02*
X004545Y014393D01*
X004530Y014440D01*
X004525Y014491D01*
X004525Y014904D01*
X004531Y014952D01*
X004547Y014998D01*
X004572Y015039D01*
X004607Y015073D01*
X004648Y015099D01*
X004694Y015115D01*
X004742Y015120D01*
X004786Y015116D01*
X004829Y015102D01*
X004868Y015080D01*
X004902Y015050D01*
X004929Y015014D01*
X004948Y014973D01*
X004958Y014929D01*
X004958Y014884D01*
X004958Y014455D01*
X004954Y014414D01*
X004941Y014375D01*
X004921Y014339D01*
X004894Y014307D01*
X004861Y014283D01*
X004823Y014265D01*
X004783Y014255D01*
X004742Y014254D01*
X004692Y014263D01*
X004646Y014283D01*
X004605Y014312D01*
X004571Y014349D01*
X004577Y014342D02*
X004923Y014342D01*
X004933Y014360D02*
X004564Y014360D01*
X004554Y014378D02*
X004943Y014378D01*
X004949Y014397D02*
X004544Y014397D01*
X004538Y014415D02*
X004954Y014415D01*
X004956Y014433D02*
X004532Y014433D01*
X004529Y014451D02*
X004958Y014451D01*
X004958Y014469D02*
X004527Y014469D01*
X004526Y014488D02*
X004958Y014488D01*
X004958Y014506D02*
X004525Y014506D01*
X004525Y014524D02*
X004958Y014524D01*
X004958Y014542D02*
X004525Y014542D01*
X004525Y014560D02*
X004958Y014560D01*
X004958Y014578D02*
X004525Y014578D01*
X004525Y014597D02*
X004958Y014597D01*
X004958Y014615D02*
X004525Y014615D01*
X004525Y014633D02*
X004958Y014633D01*
X004958Y014651D02*
X004525Y014651D01*
X004525Y014669D02*
X004958Y014669D01*
X004958Y014688D02*
X004525Y014688D01*
X004525Y014706D02*
X004958Y014706D01*
X004958Y014724D02*
X004525Y014724D01*
X004525Y014742D02*
X004958Y014742D01*
X004958Y014760D02*
X004525Y014760D01*
X004525Y014778D02*
X004958Y014778D01*
X004958Y014797D02*
X004525Y014797D01*
X004525Y014815D02*
X004958Y014815D01*
X004958Y014833D02*
X004525Y014833D01*
X004525Y014851D02*
X004958Y014851D01*
X004958Y014869D02*
X004525Y014869D01*
X004525Y014888D02*
X004958Y014888D01*
X004958Y014906D02*
X004525Y014906D01*
X004527Y014924D02*
X004958Y014924D01*
X004955Y014942D02*
X004530Y014942D01*
X004534Y014960D02*
X004950Y014960D01*
X004945Y014979D02*
X004540Y014979D01*
X004546Y014997D02*
X004937Y014997D01*
X004928Y015015D02*
X004557Y015015D01*
X004569Y015033D02*
X004915Y015033D01*
X004901Y015051D02*
X004585Y015051D01*
X004603Y015069D02*
X004880Y015069D01*
X004855Y015088D02*
X004630Y015088D01*
X004667Y015106D02*
X004818Y015106D01*
X004908Y014324D02*
X004594Y014324D01*
X004614Y014306D02*
X004891Y014306D01*
X004867Y014287D02*
X004640Y014287D01*
X004679Y014269D02*
X004832Y014269D01*
X002128Y014455D02*
X002123Y014414D01*
X002111Y014375D01*
X002090Y014339D01*
X002063Y014307D01*
X002030Y014283D01*
X001993Y014265D01*
X001952Y014255D01*
X001911Y014254D01*
X001862Y014263D01*
X001815Y014283D01*
X001774Y014312D01*
X001740Y014349D01*
X001715Y014393D01*
X001699Y014440D01*
X001695Y014491D01*
X001695Y014904D01*
X001700Y014952D01*
X001716Y014998D01*
X001742Y015039D01*
X001776Y015073D01*
X001817Y015099D01*
X001863Y015115D01*
X001911Y015120D01*
X001956Y015116D01*
X001999Y015102D01*
X002038Y015080D01*
X002071Y015050D01*
X002098Y015014D01*
X002117Y014973D01*
X002127Y014929D01*
X002128Y014884D01*
X002128Y014455D01*
X002127Y014451D02*
X001698Y014451D01*
X001697Y014469D02*
X002128Y014469D01*
X002128Y014488D02*
X001695Y014488D01*
X001695Y014506D02*
X002128Y014506D01*
X002128Y014524D02*
X001695Y014524D01*
X001695Y014542D02*
X002128Y014542D01*
X002128Y014560D02*
X001695Y014560D01*
X001695Y014578D02*
X002128Y014578D01*
X002128Y014597D02*
X001695Y014597D01*
X001695Y014615D02*
X002128Y014615D01*
X002128Y014633D02*
X001695Y014633D01*
X001695Y014651D02*
X002128Y014651D01*
X002128Y014669D02*
X001695Y014669D01*
X001695Y014688D02*
X002128Y014688D01*
X002128Y014706D02*
X001695Y014706D01*
X001695Y014724D02*
X002128Y014724D01*
X002128Y014742D02*
X001695Y014742D01*
X001695Y014760D02*
X002128Y014760D01*
X002128Y014778D02*
X001695Y014778D01*
X001695Y014797D02*
X002128Y014797D01*
X002128Y014815D02*
X001695Y014815D01*
X001695Y014833D02*
X002128Y014833D01*
X002128Y014851D02*
X001695Y014851D01*
X001695Y014869D02*
X002128Y014869D01*
X002128Y014888D02*
X001695Y014888D01*
X001695Y014906D02*
X002127Y014906D01*
X002127Y014924D02*
X001697Y014924D01*
X001699Y014942D02*
X002124Y014942D01*
X002120Y014960D02*
X001703Y014960D01*
X001709Y014979D02*
X002114Y014979D01*
X002106Y014997D02*
X001716Y014997D01*
X001727Y015015D02*
X002097Y015015D01*
X002084Y015033D02*
X001738Y015033D01*
X001754Y015051D02*
X002070Y015051D01*
X002049Y015069D02*
X001772Y015069D01*
X001799Y015088D02*
X002024Y015088D01*
X001987Y015106D02*
X001836Y015106D01*
X001702Y014433D02*
X002125Y014433D01*
X002123Y014415D02*
X001708Y014415D01*
X001713Y014397D02*
X002118Y014397D01*
X002112Y014378D02*
X001723Y014378D01*
X001734Y014360D02*
X002103Y014360D01*
X002092Y014342D02*
X001747Y014342D01*
X001763Y014324D02*
X002078Y014324D01*
X002061Y014306D02*
X001783Y014306D01*
X001809Y014287D02*
X002037Y014287D01*
X002002Y014269D02*
X001848Y014269D01*
D19*
X002156Y013904D02*
X002129Y013854D01*
X002113Y013799D01*
X002109Y013743D01*
X002113Y013686D01*
X002129Y013631D01*
X002156Y013581D01*
X002193Y013538D01*
X002239Y013504D01*
X002291Y013480D01*
X002346Y013468D01*
X002403Y013468D01*
X002459Y013480D01*
X002510Y013504D01*
X002556Y013538D01*
X002593Y013581D01*
X002620Y013631D01*
X002636Y013686D01*
X002640Y013743D01*
X002636Y013799D01*
X002620Y013854D01*
X002593Y013904D01*
X002556Y013947D01*
X002510Y013981D01*
X002459Y014005D01*
X002403Y014017D01*
X002346Y014017D01*
X002291Y014005D01*
X002239Y013981D01*
X002193Y013947D01*
X002156Y013904D01*
X002175Y013925D02*
X002574Y013925D01*
X002608Y013877D02*
X002141Y013877D01*
X002121Y013828D02*
X002628Y013828D01*
X002638Y013780D02*
X002112Y013780D01*
X002110Y013731D02*
X002640Y013731D01*
X002636Y013683D02*
X002114Y013683D01*
X002128Y013634D02*
X002621Y013634D01*
X002596Y013586D02*
X002153Y013586D01*
X002194Y013537D02*
X002555Y013537D01*
X002478Y013489D02*
X002272Y013489D01*
X002229Y013974D02*
X002520Y013974D01*
X004023Y013799D02*
X004039Y013854D01*
X004066Y013904D01*
X004103Y013947D01*
X004149Y013981D01*
X004201Y014005D01*
X004256Y014017D01*
X004313Y014017D01*
X004369Y014005D01*
X004420Y013981D01*
X004466Y013947D01*
X004503Y013904D01*
X004530Y013854D01*
X004546Y013799D01*
X004550Y013743D01*
X004546Y013686D01*
X004530Y013631D01*
X004503Y013581D01*
X004466Y013538D01*
X004420Y013504D01*
X004369Y013480D01*
X004313Y013468D01*
X004256Y013468D01*
X004201Y013480D01*
X004149Y013504D01*
X004103Y013538D01*
X004066Y013581D01*
X004039Y013631D01*
X004023Y013686D01*
X004019Y013743D01*
X004023Y013799D01*
X004022Y013780D02*
X004548Y013780D01*
X004550Y013731D02*
X004020Y013731D01*
X004024Y013683D02*
X004546Y013683D01*
X004531Y013634D02*
X004038Y013634D01*
X004063Y013586D02*
X004506Y013586D01*
X004465Y013537D02*
X004104Y013537D01*
X004182Y013489D02*
X004388Y013489D01*
X004538Y013828D02*
X004031Y013828D01*
X004051Y013877D02*
X004518Y013877D01*
X004484Y013925D02*
X004085Y013925D01*
X004139Y013974D02*
X004430Y013974D01*
M02*
