G75*
%MOIN*%
%OFA0B0*%
%FSLAX24Y24*%
%IPPOS*%
%LPD*%
%AMOC8*
5,1,8,0,0,1.08239X$1,22.5*
%
%ADD10C,0.0000*%
%ADD11C,0.0040*%
%ADD12C,0.0020*%
%ADD13C,0.0080*%
%ADD14C,0.0050*%
%ADD15C,0.0060*%
D10*
X000180Y002796D02*
X000180Y030360D01*
X006300Y030360D01*
X006400Y030360D02*
X012521Y030360D01*
X012621Y030360D02*
X018741Y030360D01*
X018841Y030360D02*
X024961Y030360D01*
X025062Y030360D02*
X031182Y030360D01*
X031282Y030360D02*
X037402Y030360D01*
X037402Y002796D01*
X031282Y002796D01*
X031182Y002796D02*
X025062Y002796D01*
X024961Y002796D02*
X018841Y002796D01*
X018741Y002796D02*
X012621Y002796D01*
X012521Y002796D02*
X006400Y002796D01*
X006300Y002796D02*
X000180Y002796D01*
X001664Y015601D02*
X001664Y015916D01*
X001665Y015916D02*
X001666Y015933D01*
X001671Y015950D01*
X001678Y015965D01*
X001688Y015979D01*
X001700Y015991D01*
X001714Y016001D01*
X001729Y016008D01*
X001746Y016013D01*
X001763Y016014D01*
X001780Y016013D01*
X001797Y016008D01*
X001812Y016001D01*
X001826Y015991D01*
X001838Y015979D01*
X001848Y015965D01*
X001855Y015950D01*
X001860Y015933D01*
X001861Y015916D01*
X001861Y015601D01*
X001763Y015503D02*
X001746Y015504D01*
X001729Y015509D01*
X001714Y015516D01*
X001700Y015526D01*
X001688Y015538D01*
X001678Y015552D01*
X001671Y015567D01*
X001666Y015584D01*
X001665Y015601D01*
X001763Y015503D02*
X001780Y015504D01*
X001797Y015509D01*
X001812Y015516D01*
X001826Y015526D01*
X001838Y015538D01*
X001848Y015552D01*
X001855Y015567D01*
X001860Y015584D01*
X001861Y015601D01*
X004499Y015601D02*
X004499Y015916D01*
X004500Y015933D01*
X004505Y015950D01*
X004512Y015965D01*
X004522Y015979D01*
X004534Y015991D01*
X004548Y016001D01*
X004563Y016008D01*
X004580Y016013D01*
X004597Y016014D01*
X004614Y016013D01*
X004631Y016008D01*
X004646Y016001D01*
X004660Y015991D01*
X004672Y015979D01*
X004682Y015965D01*
X004689Y015950D01*
X004694Y015933D01*
X004695Y015916D01*
X004696Y015916D02*
X004696Y015601D01*
X004597Y015503D02*
X004580Y015504D01*
X004563Y015509D01*
X004548Y015516D01*
X004534Y015526D01*
X004522Y015538D01*
X004512Y015552D01*
X004505Y015567D01*
X004500Y015584D01*
X004499Y015601D01*
X004597Y015503D02*
X004614Y015504D01*
X004631Y015509D01*
X004646Y015516D01*
X004660Y015526D01*
X004672Y015538D01*
X004682Y015552D01*
X004689Y015567D01*
X004694Y015584D01*
X004695Y015601D01*
X007885Y015601D02*
X007885Y015916D01*
X007886Y015933D01*
X007891Y015950D01*
X007898Y015965D01*
X007908Y015979D01*
X007920Y015991D01*
X007934Y016001D01*
X007949Y016008D01*
X007966Y016013D01*
X007983Y016014D01*
X008000Y016013D01*
X008017Y016008D01*
X008032Y016001D01*
X008046Y015991D01*
X008058Y015979D01*
X008068Y015965D01*
X008075Y015950D01*
X008080Y015933D01*
X008081Y015916D01*
X008082Y015916D02*
X008082Y015601D01*
X007983Y015503D02*
X007966Y015504D01*
X007949Y015509D01*
X007934Y015516D01*
X007920Y015526D01*
X007908Y015538D01*
X007898Y015552D01*
X007891Y015567D01*
X007886Y015584D01*
X007885Y015601D01*
X007983Y015503D02*
X008000Y015504D01*
X008017Y015509D01*
X008032Y015516D01*
X008046Y015526D01*
X008058Y015538D01*
X008068Y015552D01*
X008075Y015567D01*
X008080Y015584D01*
X008081Y015601D01*
X010719Y015601D02*
X010719Y015916D01*
X010720Y015916D02*
X010721Y015933D01*
X010726Y015950D01*
X010733Y015965D01*
X010743Y015979D01*
X010755Y015991D01*
X010769Y016001D01*
X010784Y016008D01*
X010801Y016013D01*
X010818Y016014D01*
X010835Y016013D01*
X010852Y016008D01*
X010867Y016001D01*
X010881Y015991D01*
X010893Y015979D01*
X010903Y015965D01*
X010910Y015950D01*
X010915Y015933D01*
X010916Y015916D01*
X010916Y015601D01*
X010818Y015503D02*
X010801Y015504D01*
X010784Y015509D01*
X010769Y015516D01*
X010755Y015526D01*
X010743Y015538D01*
X010733Y015552D01*
X010726Y015567D01*
X010721Y015584D01*
X010720Y015601D01*
X010818Y015503D02*
X010835Y015504D01*
X010852Y015509D01*
X010867Y015516D01*
X010881Y015526D01*
X010893Y015538D01*
X010903Y015552D01*
X010910Y015567D01*
X010915Y015584D01*
X010916Y015601D01*
X014105Y015601D02*
X014105Y015916D01*
X014106Y015916D02*
X014107Y015933D01*
X014112Y015950D01*
X014119Y015965D01*
X014129Y015979D01*
X014141Y015991D01*
X014155Y016001D01*
X014170Y016008D01*
X014187Y016013D01*
X014204Y016014D01*
X014221Y016013D01*
X014238Y016008D01*
X014253Y016001D01*
X014267Y015991D01*
X014279Y015979D01*
X014289Y015965D01*
X014296Y015950D01*
X014301Y015933D01*
X014302Y015916D01*
X014302Y015601D01*
X014204Y015503D02*
X014187Y015504D01*
X014170Y015509D01*
X014155Y015516D01*
X014141Y015526D01*
X014129Y015538D01*
X014119Y015552D01*
X014112Y015567D01*
X014107Y015584D01*
X014106Y015601D01*
X014204Y015503D02*
X014221Y015504D01*
X014238Y015509D01*
X014253Y015516D01*
X014267Y015526D01*
X014279Y015538D01*
X014289Y015552D01*
X014296Y015567D01*
X014301Y015584D01*
X014302Y015601D01*
X016940Y015601D02*
X016940Y015916D01*
X016941Y015933D01*
X016946Y015950D01*
X016953Y015965D01*
X016963Y015979D01*
X016975Y015991D01*
X016989Y016001D01*
X017004Y016008D01*
X017021Y016013D01*
X017038Y016014D01*
X017055Y016013D01*
X017072Y016008D01*
X017087Y016001D01*
X017101Y015991D01*
X017113Y015979D01*
X017123Y015965D01*
X017130Y015950D01*
X017135Y015933D01*
X017136Y015916D01*
X017137Y015916D02*
X017137Y015601D01*
X017038Y015503D02*
X017021Y015504D01*
X017004Y015509D01*
X016989Y015516D01*
X016975Y015526D01*
X016963Y015538D01*
X016953Y015552D01*
X016946Y015567D01*
X016941Y015584D01*
X016940Y015601D01*
X017038Y015503D02*
X017055Y015504D01*
X017072Y015509D01*
X017087Y015516D01*
X017101Y015526D01*
X017113Y015538D01*
X017123Y015552D01*
X017130Y015567D01*
X017135Y015584D01*
X017136Y015601D01*
X020326Y015601D02*
X020326Y015916D01*
X020327Y015933D01*
X020332Y015950D01*
X020339Y015965D01*
X020349Y015979D01*
X020361Y015991D01*
X020375Y016001D01*
X020390Y016008D01*
X020407Y016013D01*
X020424Y016014D01*
X020441Y016013D01*
X020458Y016008D01*
X020473Y016001D01*
X020487Y015991D01*
X020499Y015979D01*
X020509Y015965D01*
X020516Y015950D01*
X020521Y015933D01*
X020522Y015916D01*
X020523Y015916D02*
X020523Y015601D01*
X020424Y015503D02*
X020407Y015504D01*
X020390Y015509D01*
X020375Y015516D01*
X020361Y015526D01*
X020349Y015538D01*
X020339Y015552D01*
X020332Y015567D01*
X020327Y015584D01*
X020326Y015601D01*
X020424Y015503D02*
X020441Y015504D01*
X020458Y015509D01*
X020473Y015516D01*
X020487Y015526D01*
X020499Y015538D01*
X020509Y015552D01*
X020516Y015567D01*
X020521Y015584D01*
X020522Y015601D01*
X023160Y015601D02*
X023160Y015916D01*
X023161Y015916D02*
X023162Y015933D01*
X023167Y015950D01*
X023174Y015965D01*
X023184Y015979D01*
X023196Y015991D01*
X023210Y016001D01*
X023225Y016008D01*
X023242Y016013D01*
X023259Y016014D01*
X023276Y016013D01*
X023293Y016008D01*
X023308Y016001D01*
X023322Y015991D01*
X023334Y015979D01*
X023344Y015965D01*
X023351Y015950D01*
X023356Y015933D01*
X023357Y015916D01*
X023357Y015601D01*
X023259Y015503D02*
X023242Y015504D01*
X023225Y015509D01*
X023210Y015516D01*
X023196Y015526D01*
X023184Y015538D01*
X023174Y015552D01*
X023167Y015567D01*
X023162Y015584D01*
X023161Y015601D01*
X023259Y015503D02*
X023276Y015504D01*
X023293Y015509D01*
X023308Y015516D01*
X023322Y015526D01*
X023334Y015538D01*
X023344Y015552D01*
X023351Y015567D01*
X023356Y015584D01*
X023357Y015601D01*
X026546Y015601D02*
X026546Y015916D01*
X026547Y015916D02*
X026548Y015933D01*
X026553Y015950D01*
X026560Y015965D01*
X026570Y015979D01*
X026582Y015991D01*
X026596Y016001D01*
X026611Y016008D01*
X026628Y016013D01*
X026645Y016014D01*
X026662Y016013D01*
X026679Y016008D01*
X026694Y016001D01*
X026708Y015991D01*
X026720Y015979D01*
X026730Y015965D01*
X026737Y015950D01*
X026742Y015933D01*
X026743Y015916D01*
X026743Y015601D01*
X026645Y015503D02*
X026628Y015504D01*
X026611Y015509D01*
X026596Y015516D01*
X026582Y015526D01*
X026570Y015538D01*
X026560Y015552D01*
X026553Y015567D01*
X026548Y015584D01*
X026547Y015601D01*
X026645Y015503D02*
X026662Y015504D01*
X026679Y015509D01*
X026694Y015516D01*
X026708Y015526D01*
X026720Y015538D01*
X026730Y015552D01*
X026737Y015567D01*
X026742Y015584D01*
X026743Y015601D01*
X029381Y015601D02*
X029381Y015916D01*
X029382Y015933D01*
X029387Y015950D01*
X029394Y015965D01*
X029404Y015979D01*
X029416Y015991D01*
X029430Y016001D01*
X029445Y016008D01*
X029462Y016013D01*
X029479Y016014D01*
X029496Y016013D01*
X029513Y016008D01*
X029528Y016001D01*
X029542Y015991D01*
X029554Y015979D01*
X029564Y015965D01*
X029571Y015950D01*
X029576Y015933D01*
X029577Y015916D01*
X029578Y015916D02*
X029578Y015601D01*
X029479Y015503D02*
X029462Y015504D01*
X029445Y015509D01*
X029430Y015516D01*
X029416Y015526D01*
X029404Y015538D01*
X029394Y015552D01*
X029387Y015567D01*
X029382Y015584D01*
X029381Y015601D01*
X029479Y015503D02*
X029496Y015504D01*
X029513Y015509D01*
X029528Y015516D01*
X029542Y015526D01*
X029554Y015538D01*
X029564Y015552D01*
X029571Y015567D01*
X029576Y015584D01*
X029577Y015601D01*
X032767Y015601D02*
X032767Y015916D01*
X032768Y015933D01*
X032773Y015950D01*
X032780Y015965D01*
X032790Y015979D01*
X032802Y015991D01*
X032816Y016001D01*
X032831Y016008D01*
X032848Y016013D01*
X032865Y016014D01*
X032882Y016013D01*
X032899Y016008D01*
X032914Y016001D01*
X032928Y015991D01*
X032940Y015979D01*
X032950Y015965D01*
X032957Y015950D01*
X032962Y015933D01*
X032963Y015916D01*
X032963Y015601D01*
X032865Y015503D02*
X032848Y015504D01*
X032831Y015509D01*
X032816Y015516D01*
X032802Y015526D01*
X032790Y015538D01*
X032780Y015552D01*
X032773Y015567D01*
X032768Y015584D01*
X032767Y015601D01*
X032865Y015503D02*
X032882Y015504D01*
X032899Y015509D01*
X032914Y015516D01*
X032928Y015526D01*
X032940Y015538D01*
X032950Y015552D01*
X032957Y015567D01*
X032962Y015584D01*
X032963Y015601D01*
X035601Y015601D02*
X035601Y015916D01*
X035602Y015916D02*
X035603Y015933D01*
X035608Y015950D01*
X035615Y015965D01*
X035625Y015979D01*
X035637Y015991D01*
X035651Y016001D01*
X035666Y016008D01*
X035683Y016013D01*
X035700Y016014D01*
X035717Y016013D01*
X035734Y016008D01*
X035749Y016001D01*
X035763Y015991D01*
X035775Y015979D01*
X035785Y015965D01*
X035792Y015950D01*
X035797Y015933D01*
X035798Y015916D01*
X035798Y015601D01*
X035700Y015503D02*
X035683Y015504D01*
X035666Y015509D01*
X035651Y015516D01*
X035637Y015526D01*
X035625Y015538D01*
X035615Y015552D01*
X035608Y015567D01*
X035603Y015584D01*
X035602Y015601D01*
X035700Y015503D02*
X035717Y015504D01*
X035734Y015509D01*
X035749Y015516D01*
X035763Y015526D01*
X035775Y015538D01*
X035785Y015552D01*
X035792Y015567D01*
X035797Y015584D01*
X035798Y015601D01*
X035798Y029420D02*
X035798Y029735D01*
X035700Y029833D02*
X035683Y029832D01*
X035666Y029827D01*
X035651Y029820D01*
X035637Y029810D01*
X035625Y029798D01*
X035615Y029784D01*
X035608Y029769D01*
X035603Y029752D01*
X035602Y029735D01*
X035601Y029735D02*
X035601Y029420D01*
X035602Y029420D02*
X035603Y029403D01*
X035608Y029386D01*
X035615Y029371D01*
X035625Y029357D01*
X035637Y029345D01*
X035651Y029335D01*
X035666Y029328D01*
X035683Y029323D01*
X035700Y029322D01*
X035717Y029323D01*
X035734Y029328D01*
X035749Y029335D01*
X035763Y029345D01*
X035775Y029357D01*
X035785Y029371D01*
X035792Y029386D01*
X035797Y029403D01*
X035798Y029420D01*
X035798Y029735D02*
X035797Y029752D01*
X035792Y029769D01*
X035785Y029784D01*
X035775Y029798D01*
X035763Y029810D01*
X035749Y029820D01*
X035734Y029827D01*
X035717Y029832D01*
X035700Y029833D01*
X032963Y029735D02*
X032963Y029420D01*
X032865Y029322D02*
X032848Y029323D01*
X032831Y029328D01*
X032816Y029335D01*
X032802Y029345D01*
X032790Y029357D01*
X032780Y029371D01*
X032773Y029386D01*
X032768Y029403D01*
X032767Y029420D01*
X032767Y029735D01*
X032768Y029752D01*
X032773Y029769D01*
X032780Y029784D01*
X032790Y029798D01*
X032802Y029810D01*
X032816Y029820D01*
X032831Y029827D01*
X032848Y029832D01*
X032865Y029833D01*
X032882Y029832D01*
X032899Y029827D01*
X032914Y029820D01*
X032928Y029810D01*
X032940Y029798D01*
X032950Y029784D01*
X032957Y029769D01*
X032962Y029752D01*
X032963Y029735D01*
X032963Y029420D02*
X032962Y029403D01*
X032957Y029386D01*
X032950Y029371D01*
X032940Y029357D01*
X032928Y029345D01*
X032914Y029335D01*
X032899Y029328D01*
X032882Y029323D01*
X032865Y029322D01*
X029578Y029420D02*
X029578Y029735D01*
X029479Y029833D02*
X029462Y029832D01*
X029445Y029827D01*
X029430Y029820D01*
X029416Y029810D01*
X029404Y029798D01*
X029394Y029784D01*
X029387Y029769D01*
X029382Y029752D01*
X029381Y029735D01*
X029381Y029420D01*
X029382Y029403D01*
X029387Y029386D01*
X029394Y029371D01*
X029404Y029357D01*
X029416Y029345D01*
X029430Y029335D01*
X029445Y029328D01*
X029462Y029323D01*
X029479Y029322D01*
X029496Y029323D01*
X029513Y029328D01*
X029528Y029335D01*
X029542Y029345D01*
X029554Y029357D01*
X029564Y029371D01*
X029571Y029386D01*
X029576Y029403D01*
X029577Y029420D01*
X029577Y029735D02*
X029576Y029752D01*
X029571Y029769D01*
X029564Y029784D01*
X029554Y029798D01*
X029542Y029810D01*
X029528Y029820D01*
X029513Y029827D01*
X029496Y029832D01*
X029479Y029833D01*
X026743Y029735D02*
X026743Y029420D01*
X026645Y029322D02*
X026628Y029323D01*
X026611Y029328D01*
X026596Y029335D01*
X026582Y029345D01*
X026570Y029357D01*
X026560Y029371D01*
X026553Y029386D01*
X026548Y029403D01*
X026547Y029420D01*
X026546Y029420D02*
X026546Y029735D01*
X026547Y029735D02*
X026548Y029752D01*
X026553Y029769D01*
X026560Y029784D01*
X026570Y029798D01*
X026582Y029810D01*
X026596Y029820D01*
X026611Y029827D01*
X026628Y029832D01*
X026645Y029833D01*
X026662Y029832D01*
X026679Y029827D01*
X026694Y029820D01*
X026708Y029810D01*
X026720Y029798D01*
X026730Y029784D01*
X026737Y029769D01*
X026742Y029752D01*
X026743Y029735D01*
X026743Y029420D02*
X026742Y029403D01*
X026737Y029386D01*
X026730Y029371D01*
X026720Y029357D01*
X026708Y029345D01*
X026694Y029335D01*
X026679Y029328D01*
X026662Y029323D01*
X026645Y029322D01*
X023357Y029420D02*
X023357Y029735D01*
X023259Y029833D02*
X023242Y029832D01*
X023225Y029827D01*
X023210Y029820D01*
X023196Y029810D01*
X023184Y029798D01*
X023174Y029784D01*
X023167Y029769D01*
X023162Y029752D01*
X023161Y029735D01*
X023160Y029735D02*
X023160Y029420D01*
X023161Y029420D02*
X023162Y029403D01*
X023167Y029386D01*
X023174Y029371D01*
X023184Y029357D01*
X023196Y029345D01*
X023210Y029335D01*
X023225Y029328D01*
X023242Y029323D01*
X023259Y029322D01*
X023276Y029323D01*
X023293Y029328D01*
X023308Y029335D01*
X023322Y029345D01*
X023334Y029357D01*
X023344Y029371D01*
X023351Y029386D01*
X023356Y029403D01*
X023357Y029420D01*
X023357Y029735D02*
X023356Y029752D01*
X023351Y029769D01*
X023344Y029784D01*
X023334Y029798D01*
X023322Y029810D01*
X023308Y029820D01*
X023293Y029827D01*
X023276Y029832D01*
X023259Y029833D01*
X020523Y029735D02*
X020523Y029420D01*
X020424Y029322D02*
X020407Y029323D01*
X020390Y029328D01*
X020375Y029335D01*
X020361Y029345D01*
X020349Y029357D01*
X020339Y029371D01*
X020332Y029386D01*
X020327Y029403D01*
X020326Y029420D01*
X020326Y029735D01*
X020327Y029752D01*
X020332Y029769D01*
X020339Y029784D01*
X020349Y029798D01*
X020361Y029810D01*
X020375Y029820D01*
X020390Y029827D01*
X020407Y029832D01*
X020424Y029833D01*
X020441Y029832D01*
X020458Y029827D01*
X020473Y029820D01*
X020487Y029810D01*
X020499Y029798D01*
X020509Y029784D01*
X020516Y029769D01*
X020521Y029752D01*
X020522Y029735D01*
X020522Y029420D02*
X020521Y029403D01*
X020516Y029386D01*
X020509Y029371D01*
X020499Y029357D01*
X020487Y029345D01*
X020473Y029335D01*
X020458Y029328D01*
X020441Y029323D01*
X020424Y029322D01*
X017137Y029420D02*
X017137Y029735D01*
X017038Y029833D02*
X017021Y029832D01*
X017004Y029827D01*
X016989Y029820D01*
X016975Y029810D01*
X016963Y029798D01*
X016953Y029784D01*
X016946Y029769D01*
X016941Y029752D01*
X016940Y029735D01*
X016940Y029420D01*
X016941Y029403D01*
X016946Y029386D01*
X016953Y029371D01*
X016963Y029357D01*
X016975Y029345D01*
X016989Y029335D01*
X017004Y029328D01*
X017021Y029323D01*
X017038Y029322D01*
X017055Y029323D01*
X017072Y029328D01*
X017087Y029335D01*
X017101Y029345D01*
X017113Y029357D01*
X017123Y029371D01*
X017130Y029386D01*
X017135Y029403D01*
X017136Y029420D01*
X017136Y029735D02*
X017135Y029752D01*
X017130Y029769D01*
X017123Y029784D01*
X017113Y029798D01*
X017101Y029810D01*
X017087Y029820D01*
X017072Y029827D01*
X017055Y029832D01*
X017038Y029833D01*
X014302Y029735D02*
X014302Y029420D01*
X014204Y029322D02*
X014187Y029323D01*
X014170Y029328D01*
X014155Y029335D01*
X014141Y029345D01*
X014129Y029357D01*
X014119Y029371D01*
X014112Y029386D01*
X014107Y029403D01*
X014106Y029420D01*
X014105Y029420D02*
X014105Y029735D01*
X014106Y029735D02*
X014107Y029752D01*
X014112Y029769D01*
X014119Y029784D01*
X014129Y029798D01*
X014141Y029810D01*
X014155Y029820D01*
X014170Y029827D01*
X014187Y029832D01*
X014204Y029833D01*
X014221Y029832D01*
X014238Y029827D01*
X014253Y029820D01*
X014267Y029810D01*
X014279Y029798D01*
X014289Y029784D01*
X014296Y029769D01*
X014301Y029752D01*
X014302Y029735D01*
X014302Y029420D02*
X014301Y029403D01*
X014296Y029386D01*
X014289Y029371D01*
X014279Y029357D01*
X014267Y029345D01*
X014253Y029335D01*
X014238Y029328D01*
X014221Y029323D01*
X014204Y029322D01*
X010916Y029420D02*
X010916Y029735D01*
X010818Y029833D02*
X010801Y029832D01*
X010784Y029827D01*
X010769Y029820D01*
X010755Y029810D01*
X010743Y029798D01*
X010733Y029784D01*
X010726Y029769D01*
X010721Y029752D01*
X010720Y029735D01*
X010719Y029735D02*
X010719Y029420D01*
X010720Y029420D02*
X010721Y029403D01*
X010726Y029386D01*
X010733Y029371D01*
X010743Y029357D01*
X010755Y029345D01*
X010769Y029335D01*
X010784Y029328D01*
X010801Y029323D01*
X010818Y029322D01*
X010835Y029323D01*
X010852Y029328D01*
X010867Y029335D01*
X010881Y029345D01*
X010893Y029357D01*
X010903Y029371D01*
X010910Y029386D01*
X010915Y029403D01*
X010916Y029420D01*
X010916Y029735D02*
X010915Y029752D01*
X010910Y029769D01*
X010903Y029784D01*
X010893Y029798D01*
X010881Y029810D01*
X010867Y029820D01*
X010852Y029827D01*
X010835Y029832D01*
X010818Y029833D01*
X008082Y029735D02*
X008082Y029420D01*
X007983Y029322D02*
X007966Y029323D01*
X007949Y029328D01*
X007934Y029335D01*
X007920Y029345D01*
X007908Y029357D01*
X007898Y029371D01*
X007891Y029386D01*
X007886Y029403D01*
X007885Y029420D01*
X007885Y029735D01*
X007886Y029752D01*
X007891Y029769D01*
X007898Y029784D01*
X007908Y029798D01*
X007920Y029810D01*
X007934Y029820D01*
X007949Y029827D01*
X007966Y029832D01*
X007983Y029833D01*
X008000Y029832D01*
X008017Y029827D01*
X008032Y029820D01*
X008046Y029810D01*
X008058Y029798D01*
X008068Y029784D01*
X008075Y029769D01*
X008080Y029752D01*
X008081Y029735D01*
X008081Y029420D02*
X008080Y029403D01*
X008075Y029386D01*
X008068Y029371D01*
X008058Y029357D01*
X008046Y029345D01*
X008032Y029335D01*
X008017Y029328D01*
X008000Y029323D01*
X007983Y029322D01*
X004696Y029420D02*
X004696Y029735D01*
X004597Y029833D02*
X004580Y029832D01*
X004563Y029827D01*
X004548Y029820D01*
X004534Y029810D01*
X004522Y029798D01*
X004512Y029784D01*
X004505Y029769D01*
X004500Y029752D01*
X004499Y029735D01*
X004499Y029420D01*
X004500Y029403D01*
X004505Y029386D01*
X004512Y029371D01*
X004522Y029357D01*
X004534Y029345D01*
X004548Y029335D01*
X004563Y029328D01*
X004580Y029323D01*
X004597Y029322D01*
X004614Y029323D01*
X004631Y029328D01*
X004646Y029335D01*
X004660Y029345D01*
X004672Y029357D01*
X004682Y029371D01*
X004689Y029386D01*
X004694Y029403D01*
X004695Y029420D01*
X004695Y029735D02*
X004694Y029752D01*
X004689Y029769D01*
X004682Y029784D01*
X004672Y029798D01*
X004660Y029810D01*
X004646Y029820D01*
X004631Y029827D01*
X004614Y029832D01*
X004597Y029833D01*
X001861Y029735D02*
X001861Y029420D01*
X001763Y029322D02*
X001746Y029323D01*
X001729Y029328D01*
X001714Y029335D01*
X001700Y029345D01*
X001688Y029357D01*
X001678Y029371D01*
X001671Y029386D01*
X001666Y029403D01*
X001665Y029420D01*
X001664Y029420D02*
X001664Y029735D01*
X001665Y029735D02*
X001666Y029752D01*
X001671Y029769D01*
X001678Y029784D01*
X001688Y029798D01*
X001700Y029810D01*
X001714Y029820D01*
X001729Y029827D01*
X001746Y029832D01*
X001763Y029833D01*
X001780Y029832D01*
X001797Y029827D01*
X001812Y029820D01*
X001826Y029810D01*
X001838Y029798D01*
X001848Y029784D01*
X001855Y029769D01*
X001860Y029752D01*
X001861Y029735D01*
X001861Y029420D02*
X001860Y029403D01*
X001855Y029386D01*
X001848Y029371D01*
X001838Y029357D01*
X001826Y029345D01*
X001812Y029335D01*
X001797Y029328D01*
X001780Y029323D01*
X001763Y029322D01*
D11*
X005420Y018290D02*
X005420Y018135D01*
X005523Y018186D01*
X005575Y018186D01*
X005627Y018135D01*
X005627Y018031D01*
X005575Y017979D01*
X005472Y017979D01*
X005420Y018031D01*
X005420Y018290D02*
X005627Y018290D01*
X005742Y018290D02*
X005742Y018083D01*
X005846Y017979D01*
X005949Y018083D01*
X005949Y018290D01*
X011640Y018290D02*
X011640Y018135D01*
X011744Y018186D01*
X011796Y018186D01*
X011847Y018135D01*
X011847Y018031D01*
X011796Y017979D01*
X011692Y017979D01*
X011640Y018031D01*
X011640Y018290D02*
X011847Y018290D01*
X011963Y018290D02*
X011963Y018083D01*
X012066Y017979D01*
X012170Y018083D01*
X012170Y018290D01*
X017861Y018290D02*
X017861Y018135D01*
X017964Y018186D01*
X018016Y018186D01*
X018068Y018135D01*
X018068Y018031D01*
X018016Y017979D01*
X017913Y017979D01*
X017861Y018031D01*
X017861Y018290D02*
X018068Y018290D01*
X018183Y018290D02*
X018183Y018083D01*
X018287Y017979D01*
X018390Y018083D01*
X018390Y018290D01*
X024081Y018290D02*
X024081Y018135D01*
X024185Y018186D01*
X024237Y018186D01*
X024288Y018135D01*
X024288Y018031D01*
X024237Y017979D01*
X024133Y017979D01*
X024081Y018031D01*
X024081Y018290D02*
X024288Y018290D01*
X024404Y018290D02*
X024404Y018083D01*
X024507Y017979D01*
X024611Y018083D01*
X024611Y018290D01*
X030302Y018290D02*
X030302Y018135D01*
X030405Y018186D01*
X030457Y018186D01*
X030509Y018135D01*
X030509Y018031D01*
X030457Y017979D01*
X030354Y017979D01*
X030302Y018031D01*
X030302Y018290D02*
X030509Y018290D01*
X030624Y018290D02*
X030624Y018083D01*
X030728Y017979D01*
X030831Y018083D01*
X030831Y018290D01*
X036522Y018290D02*
X036522Y018135D01*
X036626Y018186D01*
X036677Y018186D01*
X036729Y018135D01*
X036729Y018031D01*
X036677Y017979D01*
X036574Y017979D01*
X036522Y018031D01*
X036522Y018290D02*
X036729Y018290D01*
X036845Y018290D02*
X036845Y018083D01*
X036948Y017979D01*
X037051Y018083D01*
X037051Y018290D01*
X037051Y004471D02*
X037051Y004264D01*
X036948Y004161D01*
X036845Y004264D01*
X036845Y004471D01*
X036729Y004471D02*
X036522Y004471D01*
X036522Y004316D01*
X036626Y004367D01*
X036677Y004367D01*
X036729Y004316D01*
X036729Y004212D01*
X036677Y004161D01*
X036574Y004161D01*
X036522Y004212D01*
X030831Y004264D02*
X030831Y004471D01*
X030624Y004471D02*
X030624Y004264D01*
X030728Y004161D01*
X030831Y004264D01*
X030509Y004316D02*
X030509Y004212D01*
X030457Y004161D01*
X030354Y004161D01*
X030302Y004212D01*
X030302Y004316D02*
X030405Y004367D01*
X030457Y004367D01*
X030509Y004316D01*
X030509Y004471D02*
X030302Y004471D01*
X030302Y004316D01*
X024611Y004264D02*
X024611Y004471D01*
X024611Y004264D02*
X024507Y004161D01*
X024404Y004264D01*
X024404Y004471D01*
X024288Y004471D02*
X024081Y004471D01*
X024081Y004316D01*
X024185Y004367D01*
X024237Y004367D01*
X024288Y004316D01*
X024288Y004212D01*
X024237Y004161D01*
X024133Y004161D01*
X024081Y004212D01*
X018390Y004264D02*
X018390Y004471D01*
X018183Y004471D02*
X018183Y004264D01*
X018287Y004161D01*
X018390Y004264D01*
X018068Y004316D02*
X018068Y004212D01*
X018016Y004161D01*
X017913Y004161D01*
X017861Y004212D01*
X017861Y004316D02*
X017964Y004367D01*
X018016Y004367D01*
X018068Y004316D01*
X018068Y004471D02*
X017861Y004471D01*
X017861Y004316D01*
X012170Y004264D02*
X012170Y004471D01*
X012170Y004264D02*
X012066Y004161D01*
X011963Y004264D01*
X011963Y004471D01*
X011847Y004471D02*
X011640Y004471D01*
X011640Y004316D01*
X011744Y004367D01*
X011796Y004367D01*
X011847Y004316D01*
X011847Y004212D01*
X011796Y004161D01*
X011692Y004161D01*
X011640Y004212D01*
X005949Y004264D02*
X005949Y004471D01*
X005742Y004471D02*
X005742Y004264D01*
X005846Y004161D01*
X005949Y004264D01*
X005627Y004316D02*
X005627Y004212D01*
X005575Y004161D01*
X005472Y004161D01*
X005420Y004212D01*
X005420Y004316D02*
X005523Y004367D01*
X005575Y004367D01*
X005627Y004316D01*
X005627Y004471D02*
X005420Y004471D01*
X005420Y004316D01*
D12*
X005418Y004731D02*
X005464Y004777D01*
X005418Y004731D02*
X005324Y004731D01*
X005278Y004777D01*
X005278Y004964D01*
X005324Y005011D01*
X005418Y005011D01*
X005464Y004964D01*
X005554Y004964D02*
X005600Y005011D01*
X005694Y005011D01*
X005741Y004964D01*
X005741Y004917D01*
X005554Y004731D01*
X005741Y004731D01*
X004925Y005431D02*
X004739Y005431D01*
X004832Y005431D02*
X004832Y005711D01*
X004739Y005617D01*
X004649Y005664D02*
X004462Y005477D01*
X004509Y005431D01*
X004603Y005431D01*
X004649Y005477D01*
X004649Y005664D01*
X004603Y005711D01*
X004509Y005711D01*
X004462Y005664D01*
X004462Y005477D01*
X004373Y005571D02*
X004186Y005571D01*
X004097Y005524D02*
X004050Y005571D01*
X003910Y005571D01*
X003910Y005477D01*
X003957Y005431D01*
X004050Y005431D01*
X004097Y005477D01*
X004097Y005524D01*
X004003Y005664D02*
X003910Y005571D01*
X003821Y005524D02*
X003774Y005571D01*
X003634Y005571D01*
X003634Y005477D01*
X003680Y005431D01*
X003774Y005431D01*
X003821Y005477D01*
X003821Y005524D01*
X003727Y005664D02*
X003634Y005571D01*
X003544Y005617D02*
X003544Y005664D01*
X003498Y005711D01*
X003404Y005711D01*
X003357Y005664D01*
X003268Y005664D02*
X003268Y005617D01*
X003221Y005571D01*
X003128Y005571D01*
X003081Y005617D01*
X003081Y005664D01*
X003128Y005711D01*
X003221Y005711D01*
X003268Y005664D01*
X003221Y005571D02*
X003268Y005524D01*
X003268Y005477D01*
X003221Y005431D01*
X003128Y005431D01*
X003081Y005477D01*
X003081Y005524D01*
X003128Y005571D01*
X002992Y005571D02*
X002945Y005524D01*
X002805Y005524D01*
X002716Y005524D02*
X002716Y005477D01*
X002669Y005431D01*
X002575Y005431D01*
X002529Y005477D01*
X002439Y005431D02*
X002253Y005431D01*
X002253Y005711D01*
X002439Y005711D01*
X002529Y005664D02*
X002575Y005711D01*
X002669Y005711D01*
X002716Y005664D01*
X002805Y005711D02*
X002945Y005711D01*
X002992Y005664D01*
X002992Y005571D01*
X002805Y005431D02*
X002805Y005711D01*
X002669Y005571D02*
X002716Y005524D01*
X002669Y005571D02*
X002575Y005571D01*
X002529Y005617D01*
X002529Y005664D01*
X002346Y005571D02*
X002253Y005571D01*
X003357Y005431D02*
X003544Y005617D01*
X003544Y005431D02*
X003357Y005431D01*
X003727Y005664D02*
X003821Y005711D01*
X004003Y005664D02*
X004097Y005711D01*
X004006Y006718D02*
X003913Y006718D01*
X003866Y006765D01*
X003777Y006718D02*
X003683Y006811D01*
X003730Y006811D02*
X003590Y006811D01*
X003590Y006718D02*
X003590Y006998D01*
X003730Y006998D01*
X003777Y006952D01*
X003777Y006858D01*
X003730Y006811D01*
X003866Y006952D02*
X003913Y006998D01*
X004006Y006998D01*
X004053Y006952D01*
X004053Y006905D01*
X004006Y006858D01*
X004053Y006811D01*
X004053Y006765D01*
X004006Y006718D01*
X004006Y006858D02*
X003960Y006858D01*
X003201Y006827D02*
X003154Y006781D01*
X003060Y006781D01*
X003014Y006827D01*
X003014Y006921D02*
X003107Y006967D01*
X003154Y006967D01*
X003201Y006921D01*
X003201Y006827D01*
X003014Y006921D02*
X003014Y007061D01*
X003201Y007061D01*
X002924Y007014D02*
X002924Y006921D01*
X002878Y006874D01*
X002738Y006874D01*
X002831Y006874D02*
X002924Y006781D01*
X002738Y006781D02*
X002738Y007061D01*
X002878Y007061D01*
X002924Y007014D01*
X002201Y006921D02*
X002014Y006921D01*
X002154Y007061D01*
X002154Y006781D01*
X001924Y006781D02*
X001831Y006874D01*
X001878Y006874D02*
X001738Y006874D01*
X001738Y006781D02*
X001738Y007061D01*
X001878Y007061D01*
X001924Y007014D01*
X001924Y006921D01*
X001878Y006874D01*
X001201Y006877D02*
X001201Y006924D01*
X001154Y006971D01*
X001014Y006971D01*
X001014Y006877D01*
X001060Y006831D01*
X001154Y006831D01*
X001201Y006877D01*
X001107Y007064D02*
X001014Y006971D01*
X000924Y007064D02*
X000878Y007111D01*
X000784Y007111D01*
X000738Y007064D01*
X000738Y006877D01*
X000784Y006831D01*
X000878Y006831D01*
X000924Y006877D01*
X001107Y007064D02*
X001201Y007111D01*
X001409Y008518D02*
X001503Y008518D01*
X001549Y008565D01*
X001639Y008518D02*
X001826Y008518D01*
X001732Y008518D02*
X001732Y008798D01*
X001639Y008705D01*
X001549Y008752D02*
X001503Y008798D01*
X001409Y008798D01*
X001363Y008752D01*
X001363Y008565D01*
X001409Y008518D01*
X003738Y008565D02*
X003784Y008518D01*
X003878Y008518D01*
X003924Y008565D01*
X004014Y008565D02*
X004060Y008518D01*
X004154Y008518D01*
X004201Y008565D01*
X004201Y008611D01*
X004154Y008658D01*
X004060Y008658D01*
X004014Y008705D01*
X004014Y008752D01*
X004060Y008798D01*
X004154Y008798D01*
X004201Y008752D01*
X004201Y008705D01*
X004154Y008658D01*
X004060Y008658D02*
X004014Y008611D01*
X004014Y008565D01*
X003924Y008752D02*
X003878Y008798D01*
X003784Y008798D01*
X003738Y008752D01*
X003738Y008565D01*
X005175Y008565D02*
X005222Y008518D01*
X005315Y008518D01*
X005362Y008565D01*
X005451Y008565D02*
X005451Y008518D01*
X005451Y008565D02*
X005638Y008752D01*
X005638Y008798D01*
X005451Y008798D01*
X005362Y008752D02*
X005315Y008798D01*
X005222Y008798D01*
X005175Y008752D01*
X005175Y008565D01*
X005213Y006998D02*
X005166Y006952D01*
X005213Y006998D02*
X005306Y006998D01*
X005353Y006952D01*
X005353Y006905D01*
X005166Y006718D01*
X005353Y006718D01*
X005077Y006765D02*
X005077Y006952D01*
X005030Y006998D01*
X004890Y006998D01*
X004890Y006718D01*
X005030Y006718D01*
X005077Y006765D01*
X006958Y006877D02*
X007005Y006831D01*
X007098Y006831D01*
X007145Y006877D01*
X007234Y006877D02*
X007281Y006831D01*
X007374Y006831D01*
X007421Y006877D01*
X007421Y006924D01*
X007374Y006971D01*
X007234Y006971D01*
X007234Y006877D01*
X007234Y006971D02*
X007328Y007064D01*
X007421Y007111D01*
X007145Y007064D02*
X007098Y007111D01*
X007005Y007111D01*
X006958Y007064D01*
X006958Y006877D01*
X007958Y006874D02*
X008098Y006874D01*
X008145Y006921D01*
X008145Y007014D01*
X008098Y007061D01*
X007958Y007061D01*
X007958Y006781D01*
X008051Y006874D02*
X008145Y006781D01*
X008234Y006921D02*
X008421Y006921D01*
X008374Y006781D02*
X008374Y007061D01*
X008234Y006921D01*
X008958Y006874D02*
X009098Y006874D01*
X009145Y006921D01*
X009145Y007014D01*
X009098Y007061D01*
X008958Y007061D01*
X008958Y006781D01*
X009051Y006874D02*
X009145Y006781D01*
X009234Y006827D02*
X009281Y006781D01*
X009374Y006781D01*
X009421Y006827D01*
X009421Y006921D01*
X009374Y006967D01*
X009328Y006967D01*
X009234Y006921D01*
X009234Y007061D01*
X009421Y007061D01*
X009810Y006998D02*
X009810Y006718D01*
X009810Y006811D02*
X009951Y006811D01*
X009997Y006858D01*
X009997Y006952D01*
X009951Y006998D01*
X009810Y006998D01*
X009904Y006811D02*
X009997Y006718D01*
X010087Y006765D02*
X010133Y006718D01*
X010227Y006718D01*
X010274Y006765D01*
X010274Y006811D01*
X010227Y006858D01*
X010180Y006858D01*
X010227Y006858D02*
X010274Y006905D01*
X010274Y006952D01*
X010227Y006998D01*
X010133Y006998D01*
X010087Y006952D01*
X011110Y006998D02*
X011110Y006718D01*
X011251Y006718D01*
X011297Y006765D01*
X011297Y006952D01*
X011251Y006998D01*
X011110Y006998D01*
X011387Y006952D02*
X011433Y006998D01*
X011527Y006998D01*
X011574Y006952D01*
X011574Y006905D01*
X011387Y006718D01*
X011574Y006718D01*
X011099Y005711D02*
X011006Y005711D01*
X010959Y005664D01*
X010870Y005664D02*
X010683Y005477D01*
X010730Y005431D01*
X010823Y005431D01*
X010870Y005477D01*
X010870Y005664D01*
X010823Y005711D01*
X010730Y005711D01*
X010683Y005664D01*
X010683Y005477D01*
X010593Y005571D02*
X010407Y005571D01*
X010317Y005524D02*
X010271Y005571D01*
X010130Y005571D01*
X010130Y005477D01*
X010177Y005431D01*
X010271Y005431D01*
X010317Y005477D01*
X010317Y005524D01*
X010224Y005664D02*
X010317Y005711D01*
X010224Y005664D02*
X010130Y005571D01*
X010041Y005524D02*
X009994Y005571D01*
X009854Y005571D01*
X009854Y005477D01*
X009901Y005431D01*
X009994Y005431D01*
X010041Y005477D01*
X010041Y005524D01*
X009948Y005664D02*
X009854Y005571D01*
X009765Y005617D02*
X009765Y005664D01*
X009718Y005711D01*
X009625Y005711D01*
X009578Y005664D01*
X009489Y005664D02*
X009442Y005711D01*
X009348Y005711D01*
X009302Y005664D01*
X009302Y005617D01*
X009348Y005571D01*
X009442Y005571D01*
X009489Y005524D01*
X009489Y005477D01*
X009442Y005431D01*
X009348Y005431D01*
X009302Y005477D01*
X009302Y005524D01*
X009348Y005571D01*
X009442Y005571D02*
X009489Y005617D01*
X009489Y005664D01*
X009578Y005431D02*
X009765Y005617D01*
X009765Y005431D02*
X009578Y005431D01*
X009212Y005571D02*
X009166Y005524D01*
X009025Y005524D01*
X008936Y005524D02*
X008936Y005477D01*
X008889Y005431D01*
X008796Y005431D01*
X008749Y005477D01*
X008660Y005431D02*
X008473Y005431D01*
X008473Y005711D01*
X008660Y005711D01*
X008749Y005664D02*
X008749Y005617D01*
X008796Y005571D01*
X008889Y005571D01*
X008936Y005524D01*
X009025Y005431D02*
X009025Y005711D01*
X009166Y005711D01*
X009212Y005664D01*
X009212Y005571D01*
X008936Y005664D02*
X008889Y005711D01*
X008796Y005711D01*
X008749Y005664D01*
X008566Y005571D02*
X008473Y005571D01*
X009948Y005664D02*
X010041Y005711D01*
X010959Y005431D02*
X011146Y005617D01*
X011146Y005664D01*
X011099Y005711D01*
X011146Y005431D02*
X010959Y005431D01*
X011498Y004964D02*
X011498Y004777D01*
X011545Y004731D01*
X011638Y004731D01*
X011685Y004777D01*
X011774Y004731D02*
X011961Y004917D01*
X011961Y004964D01*
X011914Y005011D01*
X011821Y005011D01*
X011774Y004964D01*
X011685Y004964D02*
X011638Y005011D01*
X011545Y005011D01*
X011498Y004964D01*
X011774Y004731D02*
X011961Y004731D01*
X013225Y006831D02*
X013319Y006831D01*
X013365Y006877D01*
X013455Y006877D02*
X013501Y006831D01*
X013595Y006831D01*
X013642Y006877D01*
X013642Y006924D01*
X013595Y006971D01*
X013455Y006971D01*
X013455Y006877D01*
X013455Y006971D02*
X013548Y007064D01*
X013642Y007111D01*
X013365Y007064D02*
X013319Y007111D01*
X013225Y007111D01*
X013178Y007064D01*
X013178Y006877D01*
X013225Y006831D01*
X014178Y006874D02*
X014319Y006874D01*
X014365Y006921D01*
X014365Y007014D01*
X014319Y007061D01*
X014178Y007061D01*
X014178Y006781D01*
X014272Y006874D02*
X014365Y006781D01*
X014455Y006921D02*
X014642Y006921D01*
X014595Y007061D02*
X014455Y006921D01*
X014595Y006781D02*
X014595Y007061D01*
X015178Y007061D02*
X015178Y006781D01*
X015178Y006874D02*
X015319Y006874D01*
X015365Y006921D01*
X015365Y007014D01*
X015319Y007061D01*
X015178Y007061D01*
X015272Y006874D02*
X015365Y006781D01*
X015455Y006827D02*
X015501Y006781D01*
X015595Y006781D01*
X015642Y006827D01*
X015642Y006921D01*
X015595Y006967D01*
X015548Y006967D01*
X015455Y006921D01*
X015455Y007061D01*
X015642Y007061D01*
X016031Y006998D02*
X016031Y006718D01*
X016031Y006811D02*
X016171Y006811D01*
X016218Y006858D01*
X016218Y006952D01*
X016171Y006998D01*
X016031Y006998D01*
X016124Y006811D02*
X016218Y006718D01*
X016307Y006765D02*
X016354Y006718D01*
X016447Y006718D01*
X016494Y006765D01*
X016494Y006811D01*
X016447Y006858D01*
X016401Y006858D01*
X016447Y006858D02*
X016494Y006905D01*
X016494Y006952D01*
X016447Y006998D01*
X016354Y006998D01*
X016307Y006952D01*
X017331Y006998D02*
X017331Y006718D01*
X017471Y006718D01*
X017518Y006765D01*
X017518Y006952D01*
X017471Y006998D01*
X017331Y006998D01*
X017607Y006952D02*
X017654Y006998D01*
X017747Y006998D01*
X017794Y006952D01*
X017794Y006905D01*
X017607Y006718D01*
X017794Y006718D01*
X017320Y005711D02*
X017366Y005664D01*
X017366Y005617D01*
X017320Y005571D01*
X017366Y005524D01*
X017366Y005477D01*
X017320Y005431D01*
X017226Y005431D01*
X017180Y005477D01*
X017090Y005477D02*
X017043Y005431D01*
X016950Y005431D01*
X016903Y005477D01*
X017090Y005664D01*
X017090Y005477D01*
X016903Y005477D02*
X016903Y005664D01*
X016950Y005711D01*
X017043Y005711D01*
X017090Y005664D01*
X017180Y005664D02*
X017226Y005711D01*
X017320Y005711D01*
X017320Y005571D02*
X017273Y005571D01*
X016814Y005571D02*
X016627Y005571D01*
X016538Y005524D02*
X016491Y005571D01*
X016351Y005571D01*
X016351Y005477D01*
X016398Y005431D01*
X016491Y005431D01*
X016538Y005477D01*
X016538Y005524D01*
X016444Y005664D02*
X016351Y005571D01*
X016261Y005524D02*
X016215Y005571D01*
X016075Y005571D01*
X016075Y005477D01*
X016121Y005431D01*
X016215Y005431D01*
X016261Y005477D01*
X016261Y005524D01*
X016168Y005664D02*
X016261Y005711D01*
X016168Y005664D02*
X016075Y005571D01*
X015985Y005617D02*
X015985Y005664D01*
X015939Y005711D01*
X015845Y005711D01*
X015798Y005664D01*
X015709Y005664D02*
X015709Y005617D01*
X015662Y005571D01*
X015569Y005571D01*
X015522Y005617D01*
X015522Y005664D01*
X015569Y005711D01*
X015662Y005711D01*
X015709Y005664D01*
X015662Y005571D02*
X015709Y005524D01*
X015709Y005477D01*
X015662Y005431D01*
X015569Y005431D01*
X015522Y005477D01*
X015522Y005524D01*
X015569Y005571D01*
X015433Y005571D02*
X015386Y005524D01*
X015246Y005524D01*
X015157Y005524D02*
X015157Y005477D01*
X015110Y005431D01*
X015016Y005431D01*
X014970Y005477D01*
X014880Y005431D02*
X014693Y005431D01*
X014693Y005711D01*
X014880Y005711D01*
X014970Y005664D02*
X015016Y005711D01*
X015110Y005711D01*
X015157Y005664D01*
X015246Y005711D02*
X015246Y005431D01*
X015157Y005524D02*
X015110Y005571D01*
X015016Y005571D01*
X014970Y005617D01*
X014970Y005664D01*
X014787Y005571D02*
X014693Y005571D01*
X015246Y005711D02*
X015386Y005711D01*
X015433Y005664D01*
X015433Y005571D01*
X015798Y005431D02*
X015985Y005617D01*
X015985Y005431D02*
X015798Y005431D01*
X016444Y005664D02*
X016538Y005711D01*
X017718Y004964D02*
X017718Y004777D01*
X017765Y004731D01*
X017859Y004731D01*
X017905Y004777D01*
X017995Y004731D02*
X018182Y004917D01*
X018182Y004964D01*
X018135Y005011D01*
X018041Y005011D01*
X017995Y004964D01*
X017905Y004964D02*
X017859Y005011D01*
X017765Y005011D01*
X017718Y004964D01*
X017995Y004731D02*
X018182Y004731D01*
X019446Y006831D02*
X019399Y006877D01*
X019399Y007064D01*
X019446Y007111D01*
X019539Y007111D01*
X019586Y007064D01*
X019675Y006971D02*
X019769Y007064D01*
X019862Y007111D01*
X019815Y006971D02*
X019675Y006971D01*
X019675Y006877D01*
X019722Y006831D01*
X019815Y006831D01*
X019862Y006877D01*
X019862Y006924D01*
X019815Y006971D01*
X019586Y006877D02*
X019539Y006831D01*
X019446Y006831D01*
X020399Y006874D02*
X020539Y006874D01*
X020586Y006921D01*
X020586Y007014D01*
X020539Y007061D01*
X020399Y007061D01*
X020399Y006781D01*
X020492Y006874D02*
X020586Y006781D01*
X020675Y006921D02*
X020815Y007061D01*
X020815Y006781D01*
X020862Y006921D02*
X020675Y006921D01*
X021399Y006874D02*
X021539Y006874D01*
X021586Y006921D01*
X021586Y007014D01*
X021539Y007061D01*
X021399Y007061D01*
X021399Y006781D01*
X021492Y006874D02*
X021586Y006781D01*
X021675Y006827D02*
X021722Y006781D01*
X021815Y006781D01*
X021862Y006827D01*
X021862Y006921D01*
X021815Y006967D01*
X021769Y006967D01*
X021675Y006921D01*
X021675Y007061D01*
X021862Y007061D01*
X022251Y006998D02*
X022251Y006718D01*
X022251Y006811D02*
X022392Y006811D01*
X022438Y006858D01*
X022438Y006952D01*
X022392Y006998D01*
X022251Y006998D01*
X022345Y006811D02*
X022438Y006718D01*
X022528Y006765D02*
X022574Y006718D01*
X022668Y006718D01*
X022714Y006765D01*
X022714Y006811D01*
X022668Y006858D01*
X022621Y006858D01*
X022668Y006858D02*
X022714Y006905D01*
X022714Y006952D01*
X022668Y006998D01*
X022574Y006998D01*
X022528Y006952D01*
X023551Y006998D02*
X023551Y006718D01*
X023692Y006718D01*
X023738Y006765D01*
X023738Y006952D01*
X023692Y006998D01*
X023551Y006998D01*
X023828Y006952D02*
X023874Y006998D01*
X023968Y006998D01*
X024014Y006952D01*
X024014Y006905D01*
X023828Y006718D01*
X024014Y006718D01*
X023540Y005711D02*
X023400Y005571D01*
X023587Y005571D01*
X023540Y005431D02*
X023540Y005711D01*
X023311Y005664D02*
X023124Y005477D01*
X023171Y005431D01*
X023264Y005431D01*
X023311Y005477D01*
X023311Y005664D01*
X023264Y005711D01*
X023171Y005711D01*
X023124Y005664D01*
X023124Y005477D01*
X023034Y005571D02*
X022848Y005571D01*
X022758Y005524D02*
X022711Y005571D01*
X022571Y005571D01*
X022571Y005477D01*
X022618Y005431D01*
X022711Y005431D01*
X022758Y005477D01*
X022758Y005524D01*
X022665Y005664D02*
X022571Y005571D01*
X022482Y005524D02*
X022435Y005571D01*
X022295Y005571D01*
X022295Y005477D01*
X022342Y005431D01*
X022435Y005431D01*
X022482Y005477D01*
X022482Y005524D01*
X022389Y005664D02*
X022295Y005571D01*
X022206Y005617D02*
X022206Y005664D01*
X022159Y005711D01*
X022066Y005711D01*
X022019Y005664D01*
X021929Y005664D02*
X021929Y005617D01*
X021883Y005571D01*
X021789Y005571D01*
X021743Y005617D01*
X021743Y005664D01*
X021789Y005711D01*
X021883Y005711D01*
X021929Y005664D01*
X021883Y005571D02*
X021929Y005524D01*
X021929Y005477D01*
X021883Y005431D01*
X021789Y005431D01*
X021743Y005477D01*
X021743Y005524D01*
X021789Y005571D01*
X021653Y005571D02*
X021607Y005524D01*
X021466Y005524D01*
X021377Y005524D02*
X021377Y005477D01*
X021330Y005431D01*
X021237Y005431D01*
X021190Y005477D01*
X021101Y005431D02*
X020914Y005431D01*
X020914Y005711D01*
X021101Y005711D01*
X021190Y005664D02*
X021237Y005711D01*
X021330Y005711D01*
X021377Y005664D01*
X021466Y005711D02*
X021607Y005711D01*
X021653Y005664D01*
X021653Y005571D01*
X021466Y005431D02*
X021466Y005711D01*
X021330Y005571D02*
X021377Y005524D01*
X021330Y005571D02*
X021237Y005571D01*
X021190Y005617D01*
X021190Y005664D01*
X021007Y005571D02*
X020914Y005571D01*
X022019Y005431D02*
X022206Y005617D01*
X022206Y005431D02*
X022019Y005431D01*
X022389Y005664D02*
X022482Y005711D01*
X022665Y005664D02*
X022758Y005711D01*
X023939Y004964D02*
X023939Y004777D01*
X023986Y004731D01*
X024079Y004731D01*
X024126Y004777D01*
X024215Y004731D02*
X024402Y004917D01*
X024402Y004964D01*
X024355Y005011D01*
X024262Y005011D01*
X024215Y004964D01*
X024126Y004964D02*
X024079Y005011D01*
X023986Y005011D01*
X023939Y004964D01*
X024215Y004731D02*
X024402Y004731D01*
X025666Y006831D02*
X025760Y006831D01*
X025806Y006877D01*
X025896Y006877D02*
X025942Y006831D01*
X026036Y006831D01*
X026082Y006877D01*
X026082Y006924D01*
X026036Y006971D01*
X025896Y006971D01*
X025896Y006877D01*
X025896Y006971D02*
X025989Y007064D01*
X026082Y007111D01*
X025806Y007064D02*
X025760Y007111D01*
X025666Y007111D01*
X025619Y007064D01*
X025619Y006877D01*
X025666Y006831D01*
X026619Y006874D02*
X026760Y006874D01*
X026806Y006921D01*
X026806Y007014D01*
X026760Y007061D01*
X026619Y007061D01*
X026619Y006781D01*
X026713Y006874D02*
X026806Y006781D01*
X026896Y006921D02*
X027082Y006921D01*
X027036Y006781D02*
X027036Y007061D01*
X026896Y006921D01*
X027619Y006874D02*
X027760Y006874D01*
X027806Y006921D01*
X027806Y007014D01*
X027760Y007061D01*
X027619Y007061D01*
X027619Y006781D01*
X027713Y006874D02*
X027806Y006781D01*
X027896Y006827D02*
X027942Y006781D01*
X028036Y006781D01*
X028082Y006827D01*
X028082Y006921D01*
X028036Y006967D01*
X027989Y006967D01*
X027896Y006921D01*
X027896Y007061D01*
X028082Y007061D01*
X028472Y006998D02*
X028472Y006718D01*
X028472Y006811D02*
X028612Y006811D01*
X028659Y006858D01*
X028659Y006952D01*
X028612Y006998D01*
X028472Y006998D01*
X028565Y006811D02*
X028659Y006718D01*
X028748Y006765D02*
X028795Y006718D01*
X028888Y006718D01*
X028935Y006765D01*
X028935Y006811D01*
X028888Y006858D01*
X028842Y006858D01*
X028888Y006858D02*
X028935Y006905D01*
X028935Y006952D01*
X028888Y006998D01*
X028795Y006998D01*
X028748Y006952D01*
X029772Y006998D02*
X029772Y006718D01*
X029912Y006718D01*
X029959Y006765D01*
X029959Y006952D01*
X029912Y006998D01*
X029772Y006998D01*
X030048Y006952D02*
X030095Y006998D01*
X030188Y006998D01*
X030235Y006952D01*
X030235Y006905D01*
X030048Y006718D01*
X030235Y006718D01*
X029807Y005711D02*
X029621Y005711D01*
X029621Y005571D01*
X029714Y005617D01*
X029761Y005617D01*
X029807Y005571D01*
X029807Y005477D01*
X029761Y005431D01*
X029667Y005431D01*
X029621Y005477D01*
X029531Y005477D02*
X029484Y005431D01*
X029391Y005431D01*
X029344Y005477D01*
X029531Y005664D01*
X029531Y005477D01*
X029344Y005477D02*
X029344Y005664D01*
X029391Y005711D01*
X029484Y005711D01*
X029531Y005664D01*
X029255Y005571D02*
X029068Y005571D01*
X028979Y005524D02*
X028932Y005571D01*
X028792Y005571D01*
X028792Y005477D01*
X028839Y005431D01*
X028932Y005431D01*
X028979Y005477D01*
X028979Y005524D01*
X028885Y005664D02*
X028979Y005711D01*
X028885Y005664D02*
X028792Y005571D01*
X028702Y005524D02*
X028656Y005571D01*
X028516Y005571D01*
X028516Y005477D01*
X028562Y005431D01*
X028656Y005431D01*
X028702Y005477D01*
X028702Y005524D01*
X028609Y005664D02*
X028516Y005571D01*
X028426Y005617D02*
X028426Y005664D01*
X028379Y005711D01*
X028286Y005711D01*
X028239Y005664D01*
X028150Y005664D02*
X028150Y005617D01*
X028103Y005571D01*
X028010Y005571D01*
X027963Y005617D01*
X027963Y005664D01*
X028010Y005711D01*
X028103Y005711D01*
X028150Y005664D01*
X028103Y005571D02*
X028150Y005524D01*
X028150Y005477D01*
X028103Y005431D01*
X028010Y005431D01*
X027963Y005477D01*
X027963Y005524D01*
X028010Y005571D01*
X027874Y005571D02*
X027827Y005524D01*
X027687Y005524D01*
X027597Y005524D02*
X027597Y005477D01*
X027551Y005431D01*
X027457Y005431D01*
X027411Y005477D01*
X027321Y005431D02*
X027134Y005431D01*
X027134Y005711D01*
X027321Y005711D01*
X027411Y005664D02*
X027457Y005711D01*
X027551Y005711D01*
X027597Y005664D01*
X027687Y005711D02*
X027687Y005431D01*
X027597Y005524D02*
X027551Y005571D01*
X027457Y005571D01*
X027411Y005617D01*
X027411Y005664D01*
X027228Y005571D02*
X027134Y005571D01*
X027687Y005711D02*
X027827Y005711D01*
X027874Y005664D01*
X027874Y005571D01*
X028239Y005431D02*
X028426Y005617D01*
X028426Y005431D02*
X028239Y005431D01*
X028609Y005664D02*
X028702Y005711D01*
X030159Y004964D02*
X030159Y004777D01*
X030206Y004731D01*
X030300Y004731D01*
X030346Y004777D01*
X030436Y004731D02*
X030622Y004917D01*
X030622Y004964D01*
X030576Y005011D01*
X030482Y005011D01*
X030436Y004964D01*
X030346Y004964D02*
X030300Y005011D01*
X030206Y005011D01*
X030159Y004964D01*
X030436Y004731D02*
X030622Y004731D01*
X031887Y006831D02*
X031980Y006831D01*
X032027Y006877D01*
X032116Y006877D02*
X032163Y006831D01*
X032256Y006831D01*
X032303Y006877D01*
X032303Y006924D01*
X032256Y006971D01*
X032116Y006971D01*
X032116Y006877D01*
X032116Y006971D02*
X032210Y007064D01*
X032303Y007111D01*
X032027Y007064D02*
X031980Y007111D01*
X031887Y007111D01*
X031840Y007064D01*
X031840Y006877D01*
X031887Y006831D01*
X032840Y006874D02*
X032980Y006874D01*
X033027Y006921D01*
X033027Y007014D01*
X032980Y007061D01*
X032840Y007061D01*
X032840Y006781D01*
X032933Y006874D02*
X033027Y006781D01*
X033116Y006921D02*
X033303Y006921D01*
X033256Y006781D02*
X033256Y007061D01*
X033116Y006921D01*
X033840Y006874D02*
X033980Y006874D01*
X034027Y006921D01*
X034027Y007014D01*
X033980Y007061D01*
X033840Y007061D01*
X033840Y006781D01*
X033933Y006874D02*
X034027Y006781D01*
X034116Y006827D02*
X034163Y006781D01*
X034256Y006781D01*
X034303Y006827D01*
X034303Y006921D01*
X034256Y006967D01*
X034210Y006967D01*
X034116Y006921D01*
X034116Y007061D01*
X034303Y007061D01*
X034692Y006998D02*
X034692Y006718D01*
X034692Y006811D02*
X034832Y006811D01*
X034879Y006858D01*
X034879Y006952D01*
X034832Y006998D01*
X034692Y006998D01*
X034786Y006811D02*
X034879Y006718D01*
X034969Y006765D02*
X035015Y006718D01*
X035109Y006718D01*
X035155Y006765D01*
X035155Y006811D01*
X035109Y006858D01*
X035062Y006858D01*
X035109Y006858D02*
X035155Y006905D01*
X035155Y006952D01*
X035109Y006998D01*
X035015Y006998D01*
X034969Y006952D01*
X035992Y006998D02*
X035992Y006718D01*
X036132Y006718D01*
X036179Y006765D01*
X036179Y006952D01*
X036132Y006998D01*
X035992Y006998D01*
X036269Y006952D02*
X036315Y006998D01*
X036409Y006998D01*
X036455Y006952D01*
X036455Y006905D01*
X036269Y006718D01*
X036455Y006718D01*
X036028Y005711D02*
X035934Y005664D01*
X035841Y005571D01*
X035981Y005571D01*
X036028Y005524D01*
X036028Y005477D01*
X035981Y005431D01*
X035888Y005431D01*
X035841Y005477D01*
X035841Y005571D01*
X035752Y005664D02*
X035565Y005477D01*
X035611Y005431D01*
X035705Y005431D01*
X035752Y005477D01*
X035752Y005664D01*
X035705Y005711D01*
X035611Y005711D01*
X035565Y005664D01*
X035565Y005477D01*
X035475Y005571D02*
X035289Y005571D01*
X035199Y005524D02*
X035152Y005571D01*
X035012Y005571D01*
X035012Y005477D01*
X035059Y005431D01*
X035152Y005431D01*
X035199Y005477D01*
X035199Y005524D01*
X035106Y005664D02*
X035012Y005571D01*
X034923Y005524D02*
X034876Y005571D01*
X034736Y005571D01*
X034736Y005477D01*
X034783Y005431D01*
X034876Y005431D01*
X034923Y005477D01*
X034923Y005524D01*
X034829Y005664D02*
X034923Y005711D01*
X034829Y005664D02*
X034736Y005571D01*
X034647Y005617D02*
X034647Y005664D01*
X034600Y005711D01*
X034507Y005711D01*
X034460Y005664D01*
X034370Y005664D02*
X034324Y005711D01*
X034230Y005711D01*
X034184Y005664D01*
X034184Y005617D01*
X034230Y005571D01*
X034324Y005571D01*
X034370Y005524D01*
X034370Y005477D01*
X034324Y005431D01*
X034230Y005431D01*
X034184Y005477D01*
X034184Y005524D01*
X034230Y005571D01*
X034324Y005571D02*
X034370Y005617D01*
X034370Y005664D01*
X034460Y005431D02*
X034647Y005617D01*
X034647Y005431D02*
X034460Y005431D01*
X034094Y005571D02*
X034047Y005524D01*
X033907Y005524D01*
X033818Y005524D02*
X033818Y005477D01*
X033771Y005431D01*
X033678Y005431D01*
X033631Y005477D01*
X033542Y005431D02*
X033355Y005431D01*
X033355Y005711D01*
X033542Y005711D01*
X033631Y005664D02*
X033631Y005617D01*
X033678Y005571D01*
X033771Y005571D01*
X033818Y005524D01*
X033907Y005431D02*
X033907Y005711D01*
X034047Y005711D01*
X034094Y005664D01*
X034094Y005571D01*
X033818Y005664D02*
X033771Y005711D01*
X033678Y005711D01*
X033631Y005664D01*
X033448Y005571D02*
X033355Y005571D01*
X035106Y005664D02*
X035199Y005711D01*
X036380Y004964D02*
X036380Y004777D01*
X036427Y004731D01*
X036520Y004731D01*
X036567Y004777D01*
X036656Y004731D02*
X036843Y004917D01*
X036843Y004964D01*
X036796Y005011D01*
X036703Y005011D01*
X036656Y004964D01*
X036567Y004964D02*
X036520Y005011D01*
X036427Y005011D01*
X036380Y004964D01*
X036656Y004731D02*
X036843Y004731D01*
X036554Y008518D02*
X036554Y008565D01*
X036740Y008752D01*
X036740Y008798D01*
X036554Y008798D01*
X036464Y008752D02*
X036418Y008798D01*
X036324Y008798D01*
X036277Y008752D01*
X036277Y008565D01*
X036324Y008518D01*
X036418Y008518D01*
X036464Y008565D01*
X035303Y008565D02*
X035256Y008518D01*
X035163Y008518D01*
X035116Y008565D01*
X035116Y008611D01*
X035163Y008658D01*
X035256Y008658D01*
X035303Y008611D01*
X035303Y008565D01*
X035256Y008658D02*
X035303Y008705D01*
X035303Y008752D01*
X035256Y008798D01*
X035163Y008798D01*
X035116Y008752D01*
X035116Y008705D01*
X035163Y008658D01*
X035027Y008565D02*
X034980Y008518D01*
X034887Y008518D01*
X034840Y008565D01*
X034840Y008752D01*
X034887Y008798D01*
X034980Y008798D01*
X035027Y008752D01*
X032928Y008518D02*
X032741Y008518D01*
X032835Y008518D02*
X032835Y008798D01*
X032741Y008705D01*
X032652Y008752D02*
X032605Y008798D01*
X032512Y008798D01*
X032465Y008752D01*
X032465Y008565D01*
X032512Y008518D01*
X032605Y008518D01*
X032652Y008565D01*
X030520Y008752D02*
X030333Y008565D01*
X030333Y008518D01*
X030244Y008565D02*
X030197Y008518D01*
X030104Y008518D01*
X030057Y008565D01*
X030057Y008752D01*
X030104Y008798D01*
X030197Y008798D01*
X030244Y008752D01*
X030333Y008798D02*
X030520Y008798D01*
X030520Y008752D01*
X029082Y008752D02*
X029082Y008705D01*
X029036Y008658D01*
X028942Y008658D01*
X028896Y008705D01*
X028896Y008752D01*
X028942Y008798D01*
X029036Y008798D01*
X029082Y008752D01*
X029036Y008658D02*
X029082Y008611D01*
X029082Y008565D01*
X029036Y008518D01*
X028942Y008518D01*
X028896Y008565D01*
X028896Y008611D01*
X028942Y008658D01*
X028806Y008565D02*
X028760Y008518D01*
X028666Y008518D01*
X028619Y008565D01*
X028619Y008752D01*
X028666Y008798D01*
X028760Y008798D01*
X028806Y008752D01*
X026707Y008518D02*
X026521Y008518D01*
X026614Y008518D02*
X026614Y008798D01*
X026521Y008705D01*
X026431Y008752D02*
X026385Y008798D01*
X026291Y008798D01*
X026244Y008752D01*
X026244Y008565D01*
X026291Y008518D01*
X026385Y008518D01*
X026431Y008565D01*
X024300Y008752D02*
X024113Y008565D01*
X024113Y008518D01*
X024023Y008565D02*
X023977Y008518D01*
X023883Y008518D01*
X023836Y008565D01*
X023836Y008752D01*
X023883Y008798D01*
X023977Y008798D01*
X024023Y008752D01*
X024113Y008798D02*
X024300Y008798D01*
X024300Y008752D01*
X022862Y008752D02*
X022862Y008705D01*
X022815Y008658D01*
X022722Y008658D01*
X022675Y008705D01*
X022675Y008752D01*
X022722Y008798D01*
X022815Y008798D01*
X022862Y008752D01*
X022815Y008658D02*
X022862Y008611D01*
X022862Y008565D01*
X022815Y008518D01*
X022722Y008518D01*
X022675Y008565D01*
X022675Y008611D01*
X022722Y008658D01*
X022586Y008565D02*
X022539Y008518D01*
X022446Y008518D01*
X022399Y008565D01*
X022399Y008752D01*
X022446Y008798D01*
X022539Y008798D01*
X022586Y008752D01*
X020487Y008518D02*
X020300Y008518D01*
X020394Y008518D02*
X020394Y008798D01*
X020300Y008705D01*
X020211Y008752D02*
X020164Y008798D01*
X020071Y008798D01*
X020024Y008752D01*
X020024Y008565D01*
X020071Y008518D01*
X020164Y008518D01*
X020211Y008565D01*
X018079Y008752D02*
X017892Y008565D01*
X017892Y008518D01*
X017803Y008565D02*
X017756Y008518D01*
X017663Y008518D01*
X017616Y008565D01*
X017616Y008752D01*
X017663Y008798D01*
X017756Y008798D01*
X017803Y008752D01*
X017892Y008798D02*
X018079Y008798D01*
X018079Y008752D01*
X016642Y008752D02*
X016642Y008705D01*
X016595Y008658D01*
X016501Y008658D01*
X016455Y008705D01*
X016455Y008752D01*
X016501Y008798D01*
X016595Y008798D01*
X016642Y008752D01*
X016595Y008658D02*
X016642Y008611D01*
X016642Y008565D01*
X016595Y008518D01*
X016501Y008518D01*
X016455Y008565D01*
X016455Y008611D01*
X016501Y008658D01*
X016365Y008565D02*
X016319Y008518D01*
X016225Y008518D01*
X016178Y008565D01*
X016178Y008752D01*
X016225Y008798D01*
X016319Y008798D01*
X016365Y008752D01*
X014267Y008518D02*
X014080Y008518D01*
X014173Y008518D02*
X014173Y008798D01*
X014080Y008705D01*
X013990Y008752D02*
X013944Y008798D01*
X013850Y008798D01*
X013803Y008752D01*
X013803Y008565D01*
X013850Y008518D01*
X013944Y008518D01*
X013990Y008565D01*
X011859Y008752D02*
X011672Y008565D01*
X011672Y008518D01*
X011582Y008565D02*
X011536Y008518D01*
X011442Y008518D01*
X011396Y008565D01*
X011396Y008752D01*
X011442Y008798D01*
X011536Y008798D01*
X011582Y008752D01*
X011672Y008798D02*
X011859Y008798D01*
X011859Y008752D01*
X010421Y008752D02*
X010421Y008705D01*
X010374Y008658D01*
X010281Y008658D01*
X010234Y008705D01*
X010234Y008752D01*
X010281Y008798D01*
X010374Y008798D01*
X010421Y008752D01*
X010374Y008658D02*
X010421Y008611D01*
X010421Y008565D01*
X010374Y008518D01*
X010281Y008518D01*
X010234Y008565D01*
X010234Y008611D01*
X010281Y008658D01*
X010145Y008565D02*
X010098Y008518D01*
X010005Y008518D01*
X009958Y008565D01*
X009958Y008752D01*
X010005Y008798D01*
X010098Y008798D01*
X010145Y008752D01*
X008046Y008518D02*
X007859Y008518D01*
X007953Y008518D02*
X007953Y008798D01*
X007859Y008705D01*
X007770Y008752D02*
X007723Y008798D01*
X007630Y008798D01*
X007583Y008752D01*
X007583Y008565D01*
X007630Y008518D01*
X007723Y008518D01*
X007770Y008565D01*
X010148Y011331D02*
X010335Y011331D01*
X010424Y011331D02*
X010424Y011611D01*
X010518Y011517D01*
X010611Y011611D01*
X010611Y011331D01*
X010700Y011331D02*
X010887Y011331D01*
X010977Y011331D02*
X011164Y011331D01*
X011253Y011331D02*
X011440Y011331D01*
X011529Y011331D02*
X011529Y011377D01*
X011716Y011564D01*
X011716Y011611D01*
X011529Y011611D01*
X011346Y011611D02*
X011346Y011331D01*
X011253Y011517D02*
X011346Y011611D01*
X011070Y011611D02*
X011070Y011331D01*
X010977Y011517D02*
X011070Y011611D01*
X010794Y011611D02*
X010794Y011331D01*
X010700Y011517D02*
X010794Y011611D01*
X010148Y011611D02*
X010148Y011331D01*
X010197Y013478D02*
X010197Y013618D01*
X010150Y013665D01*
X010057Y013665D01*
X010010Y013618D01*
X010010Y013478D01*
X010290Y013478D01*
X010197Y013571D02*
X010290Y013665D01*
X010290Y013754D02*
X010104Y013941D01*
X010057Y013941D01*
X010010Y013894D01*
X010010Y013801D01*
X010057Y013754D01*
X010290Y013754D02*
X010290Y013941D01*
X011148Y013962D02*
X011194Y013916D01*
X011381Y013916D01*
X011428Y013962D01*
X011428Y014056D01*
X011381Y014102D01*
X011381Y014192D02*
X011428Y014239D01*
X011428Y014332D01*
X011381Y014379D01*
X011288Y014379D01*
X011241Y014332D01*
X011241Y014285D01*
X011288Y014192D01*
X011148Y014192D01*
X011148Y014379D01*
X011194Y014102D02*
X011148Y014056D01*
X011148Y013962D01*
X011232Y015518D02*
X011419Y015518D01*
X011465Y015565D01*
X011465Y015658D01*
X011419Y015705D01*
X011325Y015794D02*
X011325Y015981D01*
X011185Y015934D02*
X011325Y015794D01*
X011232Y015705D02*
X011185Y015658D01*
X011185Y015565D01*
X011232Y015518D01*
X011185Y015934D02*
X011465Y015934D01*
X013593Y015966D02*
X013593Y016059D01*
X013640Y016106D01*
X013687Y016106D01*
X013733Y016059D01*
X013780Y016106D01*
X013827Y016106D01*
X013873Y016059D01*
X013873Y015966D01*
X013827Y015919D01*
X013827Y015830D02*
X013873Y015783D01*
X013873Y015690D01*
X013827Y015643D01*
X013640Y015643D01*
X013593Y015690D01*
X013593Y015783D01*
X013640Y015830D01*
X013640Y015919D02*
X013593Y015966D01*
X013733Y016013D02*
X013733Y016059D01*
X013948Y014544D02*
X013948Y014357D01*
X013948Y014267D02*
X013855Y014174D01*
X013855Y014221D02*
X013855Y014081D01*
X013948Y014081D02*
X013668Y014081D01*
X013668Y014221D01*
X013715Y014267D01*
X013808Y014267D01*
X013855Y014221D01*
X013762Y014357D02*
X013668Y014450D01*
X013948Y014450D01*
X016231Y013894D02*
X016231Y013801D01*
X016277Y013754D01*
X016277Y013665D02*
X016371Y013665D01*
X016418Y013618D01*
X016418Y013478D01*
X016511Y013478D02*
X016231Y013478D01*
X016231Y013618D01*
X016277Y013665D01*
X016418Y013571D02*
X016511Y013665D01*
X016511Y013754D02*
X016324Y013941D01*
X016277Y013941D01*
X016231Y013894D01*
X016511Y013941D02*
X016511Y013754D01*
X017368Y013962D02*
X017415Y013916D01*
X017602Y013916D01*
X017648Y013962D01*
X017648Y014056D01*
X017602Y014102D01*
X017602Y014192D02*
X017648Y014239D01*
X017648Y014332D01*
X017602Y014379D01*
X017508Y014379D01*
X017462Y014332D01*
X017462Y014285D01*
X017508Y014192D01*
X017368Y014192D01*
X017368Y014379D01*
X017415Y014102D02*
X017368Y014056D01*
X017368Y013962D01*
X017452Y015518D02*
X017639Y015518D01*
X017686Y015565D01*
X017686Y015658D01*
X017639Y015705D01*
X017546Y015794D02*
X017546Y015981D01*
X017686Y015934D02*
X017406Y015934D01*
X017546Y015794D01*
X017452Y015705D02*
X017406Y015658D01*
X017406Y015565D01*
X017452Y015518D01*
X019814Y015690D02*
X019860Y015643D01*
X020047Y015643D01*
X020094Y015690D01*
X020094Y015783D01*
X020047Y015830D01*
X020047Y015919D02*
X020094Y015966D01*
X020094Y016059D01*
X020047Y016106D01*
X020001Y016106D01*
X019954Y016059D01*
X019954Y016013D01*
X019954Y016059D02*
X019907Y016106D01*
X019860Y016106D01*
X019814Y016059D01*
X019814Y015966D01*
X019860Y015919D01*
X019860Y015830D02*
X019814Y015783D01*
X019814Y015690D01*
X020169Y014544D02*
X020169Y014357D01*
X020169Y014267D02*
X020076Y014174D01*
X020076Y014221D02*
X020076Y014081D01*
X020169Y014081D02*
X019889Y014081D01*
X019889Y014221D01*
X019935Y014267D01*
X020029Y014267D01*
X020076Y014221D01*
X019982Y014357D02*
X019889Y014450D01*
X020169Y014450D01*
X022451Y013894D02*
X022451Y013801D01*
X022498Y013754D01*
X022498Y013665D02*
X022591Y013665D01*
X022638Y013618D01*
X022638Y013478D01*
X022731Y013478D02*
X022451Y013478D01*
X022451Y013618D01*
X022498Y013665D01*
X022638Y013571D02*
X022731Y013665D01*
X022731Y013754D02*
X022545Y013941D01*
X022498Y013941D01*
X022451Y013894D01*
X022731Y013941D02*
X022731Y013754D01*
X023589Y013962D02*
X023635Y013916D01*
X023822Y013916D01*
X023869Y013962D01*
X023869Y014056D01*
X023822Y014102D01*
X023822Y014192D02*
X023869Y014239D01*
X023869Y014332D01*
X023822Y014379D01*
X023729Y014379D01*
X023682Y014332D01*
X023682Y014285D01*
X023729Y014192D01*
X023589Y014192D01*
X023589Y014379D01*
X023635Y014102D02*
X023589Y014056D01*
X023589Y013962D01*
X023673Y015518D02*
X023860Y015518D01*
X023906Y015565D01*
X023906Y015658D01*
X023860Y015705D01*
X023766Y015794D02*
X023766Y015981D01*
X023906Y015934D02*
X023626Y015934D01*
X023766Y015794D01*
X023673Y015705D02*
X023626Y015658D01*
X023626Y015565D01*
X023673Y015518D01*
X026034Y015690D02*
X026081Y015643D01*
X026268Y015643D01*
X026314Y015690D01*
X026314Y015783D01*
X026268Y015830D01*
X026268Y015919D02*
X026314Y015966D01*
X026314Y016059D01*
X026268Y016106D01*
X026221Y016106D01*
X026174Y016059D01*
X026174Y016013D01*
X026174Y016059D02*
X026128Y016106D01*
X026081Y016106D01*
X026034Y016059D01*
X026034Y015966D01*
X026081Y015919D01*
X026081Y015830D02*
X026034Y015783D01*
X026034Y015690D01*
X026389Y014544D02*
X026389Y014357D01*
X026389Y014267D02*
X026296Y014174D01*
X026296Y014221D02*
X026296Y014081D01*
X026389Y014081D02*
X026109Y014081D01*
X026109Y014221D01*
X026156Y014267D01*
X026249Y014267D01*
X026296Y014221D01*
X026203Y014357D02*
X026109Y014450D01*
X026389Y014450D01*
X028672Y013894D02*
X028672Y013801D01*
X028718Y013754D01*
X028718Y013665D02*
X028812Y013665D01*
X028858Y013618D01*
X028858Y013478D01*
X028858Y013571D02*
X028952Y013665D01*
X028952Y013754D02*
X028765Y013941D01*
X028718Y013941D01*
X028672Y013894D01*
X028718Y013665D02*
X028672Y013618D01*
X028672Y013478D01*
X028952Y013478D01*
X028952Y013754D02*
X028952Y013941D01*
X029809Y013962D02*
X029856Y013916D01*
X030043Y013916D01*
X030089Y013962D01*
X030089Y014056D01*
X030043Y014102D01*
X030043Y014192D02*
X030089Y014239D01*
X030089Y014332D01*
X030043Y014379D01*
X029949Y014379D01*
X029903Y014332D01*
X029903Y014285D01*
X029949Y014192D01*
X029809Y014192D01*
X029809Y014379D01*
X029856Y014102D02*
X029809Y014056D01*
X029809Y013962D01*
X029893Y015518D02*
X030080Y015518D01*
X030127Y015565D01*
X030127Y015658D01*
X030080Y015705D01*
X029987Y015794D02*
X029987Y015981D01*
X030127Y015934D02*
X029847Y015934D01*
X029987Y015794D01*
X029893Y015705D02*
X029847Y015658D01*
X029847Y015565D01*
X029893Y015518D01*
X032255Y015690D02*
X032301Y015643D01*
X032488Y015643D01*
X032535Y015690D01*
X032535Y015783D01*
X032488Y015830D01*
X032488Y015919D02*
X032535Y015966D01*
X032535Y016059D01*
X032488Y016106D01*
X032441Y016106D01*
X032395Y016059D01*
X032395Y016013D01*
X032395Y016059D02*
X032348Y016106D01*
X032301Y016106D01*
X032255Y016059D01*
X032255Y015966D01*
X032301Y015919D01*
X032301Y015830D02*
X032255Y015783D01*
X032255Y015690D01*
X032610Y014544D02*
X032610Y014357D01*
X032610Y014267D02*
X032516Y014174D01*
X032516Y014221D02*
X032516Y014081D01*
X032610Y014081D02*
X032330Y014081D01*
X032330Y014221D01*
X032376Y014267D01*
X032470Y014267D01*
X032516Y014221D01*
X032423Y014357D02*
X032330Y014450D01*
X032610Y014450D01*
X034892Y013894D02*
X034892Y013801D01*
X034939Y013754D01*
X034939Y013665D02*
X035032Y013665D01*
X035079Y013618D01*
X035079Y013478D01*
X035172Y013478D02*
X034892Y013478D01*
X034892Y013618D01*
X034939Y013665D01*
X035079Y013571D02*
X035172Y013665D01*
X035172Y013754D02*
X034986Y013941D01*
X034939Y013941D01*
X034892Y013894D01*
X035172Y013941D02*
X035172Y013754D01*
X036030Y013962D02*
X036076Y013916D01*
X036263Y013916D01*
X036310Y013962D01*
X036310Y014056D01*
X036263Y014102D01*
X036263Y014192D02*
X036310Y014239D01*
X036310Y014332D01*
X036263Y014379D01*
X036170Y014379D01*
X036123Y014332D01*
X036123Y014285D01*
X036170Y014192D01*
X036030Y014192D01*
X036030Y014379D01*
X036076Y014102D02*
X036030Y014056D01*
X036030Y013962D01*
X036114Y015518D02*
X036301Y015518D01*
X036347Y015565D01*
X036347Y015658D01*
X036301Y015705D01*
X036207Y015794D02*
X036207Y015981D01*
X036067Y015934D02*
X036207Y015794D01*
X036114Y015705D02*
X036067Y015658D01*
X036067Y015565D01*
X036114Y015518D01*
X036067Y015934D02*
X036347Y015934D01*
X036427Y018549D02*
X036380Y018596D01*
X036380Y018783D01*
X036427Y018830D01*
X036520Y018830D01*
X036567Y018783D01*
X036656Y018783D02*
X036703Y018830D01*
X036796Y018830D01*
X036843Y018783D01*
X036843Y018736D01*
X036656Y018549D01*
X036843Y018549D01*
X036567Y018596D02*
X036520Y018549D01*
X036427Y018549D01*
X036028Y019249D02*
X035841Y019249D01*
X036028Y019436D01*
X036028Y019483D01*
X035981Y019530D01*
X035888Y019530D01*
X035841Y019483D01*
X035658Y019530D02*
X035658Y019249D01*
X035565Y019249D02*
X035752Y019249D01*
X035565Y019436D02*
X035658Y019530D01*
X035475Y019390D02*
X035289Y019390D01*
X035199Y019343D02*
X035152Y019390D01*
X035012Y019390D01*
X035012Y019296D01*
X035059Y019249D01*
X035152Y019249D01*
X035199Y019296D01*
X035199Y019343D01*
X035106Y019483D02*
X035012Y019390D01*
X034923Y019343D02*
X034876Y019390D01*
X034736Y019390D01*
X034736Y019296D01*
X034783Y019249D01*
X034876Y019249D01*
X034923Y019296D01*
X034923Y019343D01*
X034829Y019483D02*
X034736Y019390D01*
X034647Y019436D02*
X034647Y019483D01*
X034600Y019530D01*
X034507Y019530D01*
X034460Y019483D01*
X034370Y019483D02*
X034370Y019436D01*
X034324Y019390D01*
X034230Y019390D01*
X034184Y019436D01*
X034184Y019483D01*
X034230Y019530D01*
X034324Y019530D01*
X034370Y019483D01*
X034324Y019390D02*
X034370Y019343D01*
X034370Y019296D01*
X034324Y019249D01*
X034230Y019249D01*
X034184Y019296D01*
X034184Y019343D01*
X034230Y019390D01*
X034094Y019390D02*
X034047Y019343D01*
X033907Y019343D01*
X033818Y019343D02*
X033818Y019296D01*
X033771Y019249D01*
X033678Y019249D01*
X033631Y019296D01*
X033542Y019249D02*
X033355Y019249D01*
X033355Y019530D01*
X033542Y019530D01*
X033631Y019483D02*
X033631Y019436D01*
X033678Y019390D01*
X033771Y019390D01*
X033818Y019343D01*
X033907Y019249D02*
X033907Y019530D01*
X034047Y019530D01*
X034094Y019483D01*
X034094Y019390D01*
X033818Y019483D02*
X033771Y019530D01*
X033678Y019530D01*
X033631Y019483D01*
X033448Y019390D02*
X033355Y019390D01*
X034460Y019249D02*
X034647Y019436D01*
X034647Y019249D02*
X034460Y019249D01*
X034829Y019483D02*
X034923Y019530D01*
X035106Y019483D02*
X035199Y019530D01*
X035109Y020537D02*
X035015Y020537D01*
X034969Y020584D01*
X034879Y020537D02*
X034786Y020630D01*
X034832Y020630D02*
X034692Y020630D01*
X034692Y020537D02*
X034692Y020817D01*
X034832Y020817D01*
X034879Y020770D01*
X034879Y020677D01*
X034832Y020630D01*
X034969Y020770D02*
X035015Y020817D01*
X035109Y020817D01*
X035155Y020770D01*
X035155Y020724D01*
X035109Y020677D01*
X035155Y020630D01*
X035155Y020584D01*
X035109Y020537D01*
X035109Y020677D02*
X035062Y020677D01*
X034303Y020646D02*
X034256Y020599D01*
X034163Y020599D01*
X034116Y020646D01*
X034116Y020740D02*
X034210Y020786D01*
X034256Y020786D01*
X034303Y020740D01*
X034303Y020646D01*
X034116Y020740D02*
X034116Y020880D01*
X034303Y020880D01*
X034027Y020833D02*
X034027Y020740D01*
X033980Y020693D01*
X033840Y020693D01*
X033933Y020693D02*
X034027Y020599D01*
X033840Y020599D02*
X033840Y020880D01*
X033980Y020880D01*
X034027Y020833D01*
X033303Y020740D02*
X033116Y020740D01*
X033256Y020880D01*
X033256Y020599D01*
X033027Y020599D02*
X032933Y020693D01*
X032980Y020693D02*
X032840Y020693D01*
X032840Y020599D02*
X032840Y020880D01*
X032980Y020880D01*
X033027Y020833D01*
X033027Y020740D01*
X032980Y020693D01*
X032303Y020696D02*
X032303Y020743D01*
X032256Y020790D01*
X032116Y020790D01*
X032116Y020696D01*
X032163Y020649D01*
X032256Y020649D01*
X032303Y020696D01*
X032210Y020883D02*
X032116Y020790D01*
X032027Y020883D02*
X031980Y020930D01*
X031887Y020930D01*
X031840Y020883D01*
X031840Y020696D01*
X031887Y020649D01*
X031980Y020649D01*
X032027Y020696D01*
X032210Y020883D02*
X032303Y020930D01*
X032512Y022337D02*
X032605Y022337D01*
X032652Y022384D01*
X032741Y022337D02*
X032928Y022337D01*
X032835Y022337D02*
X032835Y022617D01*
X032741Y022524D01*
X032652Y022570D02*
X032605Y022617D01*
X032512Y022617D01*
X032465Y022570D01*
X032465Y022384D01*
X032512Y022337D01*
X030520Y022570D02*
X030333Y022384D01*
X030333Y022337D01*
X030244Y022384D02*
X030197Y022337D01*
X030104Y022337D01*
X030057Y022384D01*
X030057Y022570D01*
X030104Y022617D01*
X030197Y022617D01*
X030244Y022570D01*
X030333Y022617D02*
X030520Y022617D01*
X030520Y022570D01*
X029082Y022570D02*
X029082Y022524D01*
X029036Y022477D01*
X028942Y022477D01*
X028896Y022524D01*
X028896Y022570D01*
X028942Y022617D01*
X029036Y022617D01*
X029082Y022570D01*
X029036Y022477D02*
X029082Y022430D01*
X029082Y022384D01*
X029036Y022337D01*
X028942Y022337D01*
X028896Y022384D01*
X028896Y022430D01*
X028942Y022477D01*
X028806Y022384D02*
X028760Y022337D01*
X028666Y022337D01*
X028619Y022384D01*
X028619Y022570D01*
X028666Y022617D01*
X028760Y022617D01*
X028806Y022570D01*
X026707Y022337D02*
X026521Y022337D01*
X026614Y022337D02*
X026614Y022617D01*
X026521Y022524D01*
X026431Y022570D02*
X026385Y022617D01*
X026291Y022617D01*
X026244Y022570D01*
X026244Y022384D01*
X026291Y022337D01*
X026385Y022337D01*
X026431Y022384D01*
X026082Y020930D02*
X025989Y020883D01*
X025896Y020790D01*
X026036Y020790D01*
X026082Y020743D01*
X026082Y020696D01*
X026036Y020649D01*
X025942Y020649D01*
X025896Y020696D01*
X025896Y020790D01*
X025806Y020883D02*
X025760Y020930D01*
X025666Y020930D01*
X025619Y020883D01*
X025619Y020696D01*
X025666Y020649D01*
X025760Y020649D01*
X025806Y020696D01*
X026619Y020693D02*
X026760Y020693D01*
X026806Y020740D01*
X026806Y020833D01*
X026760Y020880D01*
X026619Y020880D01*
X026619Y020599D01*
X026713Y020693D02*
X026806Y020599D01*
X026896Y020740D02*
X027082Y020740D01*
X027036Y020880D02*
X026896Y020740D01*
X027036Y020880D02*
X027036Y020599D01*
X027619Y020599D02*
X027619Y020880D01*
X027760Y020880D01*
X027806Y020833D01*
X027806Y020740D01*
X027760Y020693D01*
X027619Y020693D01*
X027713Y020693D02*
X027806Y020599D01*
X027896Y020646D02*
X027942Y020599D01*
X028036Y020599D01*
X028082Y020646D01*
X028082Y020740D01*
X028036Y020786D01*
X027989Y020786D01*
X027896Y020740D01*
X027896Y020880D01*
X028082Y020880D01*
X028472Y020817D02*
X028472Y020537D01*
X028472Y020630D02*
X028612Y020630D01*
X028659Y020677D01*
X028659Y020770D01*
X028612Y020817D01*
X028472Y020817D01*
X028565Y020630D02*
X028659Y020537D01*
X028748Y020584D02*
X028795Y020537D01*
X028888Y020537D01*
X028935Y020584D01*
X028935Y020630D01*
X028888Y020677D01*
X028842Y020677D01*
X028888Y020677D02*
X028935Y020724D01*
X028935Y020770D01*
X028888Y020817D01*
X028795Y020817D01*
X028748Y020770D01*
X029772Y020817D02*
X029772Y020537D01*
X029912Y020537D01*
X029959Y020584D01*
X029959Y020770D01*
X029912Y020817D01*
X029772Y020817D01*
X030048Y020770D02*
X030095Y020817D01*
X030188Y020817D01*
X030235Y020770D01*
X030235Y020724D01*
X030048Y020537D01*
X030235Y020537D01*
X029714Y019530D02*
X029621Y019436D01*
X029714Y019530D02*
X029714Y019249D01*
X029621Y019249D02*
X029807Y019249D01*
X029531Y019249D02*
X029344Y019249D01*
X029438Y019249D02*
X029438Y019530D01*
X029344Y019436D01*
X029255Y019390D02*
X029068Y019390D01*
X028979Y019343D02*
X028932Y019390D01*
X028792Y019390D01*
X028792Y019296D01*
X028839Y019249D01*
X028932Y019249D01*
X028979Y019296D01*
X028979Y019343D01*
X028885Y019483D02*
X028792Y019390D01*
X028702Y019343D02*
X028656Y019390D01*
X028516Y019390D01*
X028516Y019296D01*
X028562Y019249D01*
X028656Y019249D01*
X028702Y019296D01*
X028702Y019343D01*
X028609Y019483D02*
X028516Y019390D01*
X028426Y019436D02*
X028239Y019249D01*
X028426Y019249D01*
X028426Y019436D02*
X028426Y019483D01*
X028379Y019530D01*
X028286Y019530D01*
X028239Y019483D01*
X028150Y019483D02*
X028150Y019436D01*
X028103Y019390D01*
X028010Y019390D01*
X027963Y019436D01*
X027963Y019483D01*
X028010Y019530D01*
X028103Y019530D01*
X028150Y019483D01*
X028103Y019390D02*
X028150Y019343D01*
X028150Y019296D01*
X028103Y019249D01*
X028010Y019249D01*
X027963Y019296D01*
X027963Y019343D01*
X028010Y019390D01*
X027874Y019390D02*
X027827Y019343D01*
X027687Y019343D01*
X027597Y019343D02*
X027597Y019296D01*
X027551Y019249D01*
X027457Y019249D01*
X027411Y019296D01*
X027321Y019249D02*
X027134Y019249D01*
X027134Y019530D01*
X027321Y019530D01*
X027411Y019483D02*
X027411Y019436D01*
X027457Y019390D01*
X027551Y019390D01*
X027597Y019343D01*
X027687Y019249D02*
X027687Y019530D01*
X027827Y019530D01*
X027874Y019483D01*
X027874Y019390D01*
X027597Y019483D02*
X027551Y019530D01*
X027457Y019530D01*
X027411Y019483D01*
X027228Y019390D02*
X027134Y019390D01*
X028609Y019483D02*
X028702Y019530D01*
X028885Y019483D02*
X028979Y019530D01*
X030159Y018783D02*
X030159Y018596D01*
X030206Y018549D01*
X030300Y018549D01*
X030346Y018596D01*
X030436Y018549D02*
X030622Y018736D01*
X030622Y018783D01*
X030576Y018830D01*
X030482Y018830D01*
X030436Y018783D01*
X030346Y018783D02*
X030300Y018830D01*
X030206Y018830D01*
X030159Y018783D01*
X030436Y018549D02*
X030622Y018549D01*
X034840Y022384D02*
X034887Y022337D01*
X034980Y022337D01*
X035027Y022384D01*
X035116Y022384D02*
X035116Y022430D01*
X035163Y022477D01*
X035256Y022477D01*
X035303Y022430D01*
X035303Y022384D01*
X035256Y022337D01*
X035163Y022337D01*
X035116Y022384D01*
X035163Y022477D02*
X035116Y022524D01*
X035116Y022570D01*
X035163Y022617D01*
X035256Y022617D01*
X035303Y022570D01*
X035303Y022524D01*
X035256Y022477D01*
X035027Y022570D02*
X034980Y022617D01*
X034887Y022617D01*
X034840Y022570D01*
X034840Y022384D01*
X036277Y022384D02*
X036324Y022337D01*
X036418Y022337D01*
X036464Y022384D01*
X036554Y022384D02*
X036554Y022337D01*
X036554Y022384D02*
X036740Y022570D01*
X036740Y022617D01*
X036554Y022617D01*
X036464Y022570D02*
X036418Y022617D01*
X036324Y022617D01*
X036277Y022570D01*
X036277Y022384D01*
X036315Y020817D02*
X036269Y020770D01*
X036315Y020817D02*
X036409Y020817D01*
X036455Y020770D01*
X036455Y020724D01*
X036269Y020537D01*
X036455Y020537D01*
X036179Y020584D02*
X036179Y020770D01*
X036132Y020817D01*
X035992Y020817D01*
X035992Y020537D01*
X036132Y020537D01*
X036179Y020584D01*
X036135Y025149D02*
X036322Y025149D01*
X036411Y025149D02*
X036411Y025196D01*
X036598Y025383D01*
X036598Y025430D01*
X036411Y025430D01*
X036228Y025430D02*
X036228Y025149D01*
X036045Y025149D02*
X035859Y025149D01*
X035769Y025149D02*
X035582Y025149D01*
X035493Y025149D02*
X035493Y025430D01*
X035400Y025336D01*
X035306Y025430D01*
X035306Y025149D01*
X035217Y025149D02*
X035030Y025149D01*
X035030Y025430D01*
X035582Y025336D02*
X035676Y025430D01*
X035676Y025149D01*
X035859Y025336D02*
X035952Y025430D01*
X035952Y025149D01*
X036135Y025336D02*
X036228Y025430D01*
X035172Y027297D02*
X034892Y027297D01*
X034892Y027437D01*
X034939Y027484D01*
X035032Y027484D01*
X035079Y027437D01*
X035079Y027297D01*
X035079Y027390D02*
X035172Y027484D01*
X035172Y027573D02*
X034986Y027760D01*
X034939Y027760D01*
X034892Y027713D01*
X034892Y027620D01*
X034939Y027573D01*
X035172Y027573D02*
X035172Y027760D01*
X036030Y027781D02*
X036076Y027734D01*
X036263Y027734D01*
X036310Y027781D01*
X036310Y027875D01*
X036263Y027921D01*
X036263Y028011D02*
X036310Y028057D01*
X036310Y028151D01*
X036263Y028198D01*
X036170Y028198D01*
X036123Y028151D01*
X036123Y028104D01*
X036170Y028011D01*
X036030Y028011D01*
X036030Y028198D01*
X036076Y027921D02*
X036030Y027875D01*
X036030Y027781D01*
X036114Y029337D02*
X036301Y029337D01*
X036347Y029384D01*
X036347Y029477D01*
X036301Y029524D01*
X036207Y029613D02*
X036207Y029800D01*
X036067Y029753D02*
X036207Y029613D01*
X036114Y029524D02*
X036067Y029477D01*
X036067Y029384D01*
X036114Y029337D01*
X036067Y029753D02*
X036347Y029753D01*
X032535Y029785D02*
X032488Y029738D01*
X032535Y029785D02*
X032535Y029878D01*
X032488Y029925D01*
X032441Y029925D01*
X032395Y029878D01*
X032395Y029832D01*
X032395Y029878D02*
X032348Y029925D01*
X032301Y029925D01*
X032255Y029878D01*
X032255Y029785D01*
X032301Y029738D01*
X032301Y029649D02*
X032255Y029602D01*
X032255Y029509D01*
X032301Y029462D01*
X032488Y029462D01*
X032535Y029509D01*
X032535Y029602D01*
X032488Y029649D01*
X032610Y028362D02*
X032610Y028176D01*
X032610Y028086D02*
X032516Y027993D01*
X032516Y028040D02*
X032516Y027899D01*
X032610Y027899D02*
X032330Y027899D01*
X032330Y028040D01*
X032376Y028086D01*
X032470Y028086D01*
X032516Y028040D01*
X032423Y028176D02*
X032330Y028269D01*
X032610Y028269D01*
X030089Y028151D02*
X030089Y028057D01*
X030043Y028011D01*
X030043Y027921D02*
X030089Y027875D01*
X030089Y027781D01*
X030043Y027734D01*
X029856Y027734D01*
X029809Y027781D01*
X029809Y027875D01*
X029856Y027921D01*
X029809Y028011D02*
X029949Y028011D01*
X029903Y028104D01*
X029903Y028151D01*
X029949Y028198D01*
X030043Y028198D01*
X030089Y028151D01*
X029809Y028198D02*
X029809Y028011D01*
X028952Y027760D02*
X028952Y027573D01*
X028765Y027760D01*
X028718Y027760D01*
X028672Y027713D01*
X028672Y027620D01*
X028718Y027573D01*
X028718Y027484D02*
X028812Y027484D01*
X028858Y027437D01*
X028858Y027297D01*
X028858Y027390D02*
X028952Y027484D01*
X028952Y027297D02*
X028672Y027297D01*
X028672Y027437D01*
X028718Y027484D01*
X028809Y025430D02*
X028809Y025149D01*
X028996Y025149D01*
X029086Y025149D02*
X029086Y025430D01*
X029179Y025336D01*
X029272Y025430D01*
X029272Y025149D01*
X029362Y025149D02*
X029549Y025149D01*
X029638Y025149D02*
X029825Y025149D01*
X029914Y025149D02*
X030101Y025149D01*
X030191Y025149D02*
X030191Y025196D01*
X030377Y025383D01*
X030377Y025430D01*
X030191Y025430D01*
X030008Y025430D02*
X030008Y025149D01*
X029914Y025336D02*
X030008Y025430D01*
X029732Y025430D02*
X029732Y025149D01*
X029638Y025336D02*
X029732Y025430D01*
X029455Y025430D02*
X029455Y025149D01*
X029362Y025336D02*
X029455Y025430D01*
X026389Y027899D02*
X026109Y027899D01*
X026109Y028040D01*
X026156Y028086D01*
X026249Y028086D01*
X026296Y028040D01*
X026296Y027899D01*
X026296Y027993D02*
X026389Y028086D01*
X026389Y028176D02*
X026389Y028362D01*
X026389Y028269D02*
X026109Y028269D01*
X026203Y028176D01*
X026268Y029462D02*
X026081Y029462D01*
X026034Y029509D01*
X026034Y029602D01*
X026081Y029649D01*
X026081Y029738D02*
X026034Y029785D01*
X026034Y029878D01*
X026081Y029925D01*
X026128Y029925D01*
X026174Y029878D01*
X026221Y029925D01*
X026268Y029925D01*
X026314Y029878D01*
X026314Y029785D01*
X026268Y029738D01*
X026268Y029649D02*
X026314Y029602D01*
X026314Y029509D01*
X026268Y029462D01*
X026174Y029832D02*
X026174Y029878D01*
X023906Y029753D02*
X023626Y029753D01*
X023766Y029613D01*
X023766Y029800D01*
X023673Y029524D02*
X023626Y029477D01*
X023626Y029384D01*
X023673Y029337D01*
X023860Y029337D01*
X023906Y029384D01*
X023906Y029477D01*
X023860Y029524D01*
X023822Y028198D02*
X023729Y028198D01*
X023682Y028151D01*
X023682Y028104D01*
X023729Y028011D01*
X023589Y028011D01*
X023589Y028198D01*
X023822Y028198D02*
X023869Y028151D01*
X023869Y028057D01*
X023822Y028011D01*
X023822Y027921D02*
X023869Y027875D01*
X023869Y027781D01*
X023822Y027734D01*
X023635Y027734D01*
X023589Y027781D01*
X023589Y027875D01*
X023635Y027921D01*
X022731Y027760D02*
X022731Y027573D01*
X022545Y027760D01*
X022498Y027760D01*
X022451Y027713D01*
X022451Y027620D01*
X022498Y027573D01*
X022498Y027484D02*
X022591Y027484D01*
X022638Y027437D01*
X022638Y027297D01*
X022638Y027390D02*
X022731Y027484D01*
X022731Y027297D02*
X022451Y027297D01*
X022451Y027437D01*
X022498Y027484D01*
X022589Y025430D02*
X022589Y025149D01*
X022776Y025149D01*
X022865Y025149D02*
X022865Y025430D01*
X022959Y025336D01*
X023052Y025430D01*
X023052Y025149D01*
X023141Y025149D02*
X023328Y025149D01*
X023418Y025149D02*
X023604Y025149D01*
X023694Y025149D02*
X023881Y025149D01*
X023970Y025149D02*
X023970Y025196D01*
X024157Y025383D01*
X024157Y025430D01*
X023970Y025430D01*
X023787Y025430D02*
X023787Y025149D01*
X023694Y025336D02*
X023787Y025430D01*
X023511Y025430D02*
X023511Y025149D01*
X023418Y025336D02*
X023511Y025430D01*
X023235Y025430D02*
X023235Y025149D01*
X023141Y025336D02*
X023235Y025430D01*
X020169Y027899D02*
X019889Y027899D01*
X019889Y028040D01*
X019935Y028086D01*
X020029Y028086D01*
X020076Y028040D01*
X020076Y027899D01*
X020076Y027993D02*
X020169Y028086D01*
X020169Y028176D02*
X020169Y028362D01*
X020169Y028269D02*
X019889Y028269D01*
X019982Y028176D01*
X020047Y029462D02*
X020094Y029509D01*
X020094Y029602D01*
X020047Y029649D01*
X020047Y029738D02*
X020094Y029785D01*
X020094Y029878D01*
X020047Y029925D01*
X020001Y029925D01*
X019954Y029878D01*
X019954Y029832D01*
X019954Y029878D02*
X019907Y029925D01*
X019860Y029925D01*
X019814Y029878D01*
X019814Y029785D01*
X019860Y029738D01*
X019860Y029649D02*
X019814Y029602D01*
X019814Y029509D01*
X019860Y029462D01*
X020047Y029462D01*
X017686Y029477D02*
X017639Y029524D01*
X017686Y029477D02*
X017686Y029384D01*
X017639Y029337D01*
X017452Y029337D01*
X017406Y029384D01*
X017406Y029477D01*
X017452Y029524D01*
X017546Y029613D02*
X017546Y029800D01*
X017686Y029753D02*
X017406Y029753D01*
X017546Y029613D01*
X017508Y028198D02*
X017602Y028198D01*
X017648Y028151D01*
X017648Y028057D01*
X017602Y028011D01*
X017602Y027921D02*
X017648Y027875D01*
X017648Y027781D01*
X017602Y027734D01*
X017415Y027734D01*
X017368Y027781D01*
X017368Y027875D01*
X017415Y027921D01*
X017368Y028011D02*
X017508Y028011D01*
X017462Y028104D01*
X017462Y028151D01*
X017508Y028198D01*
X017368Y028198D02*
X017368Y028011D01*
X016511Y027760D02*
X016511Y027573D01*
X016324Y027760D01*
X016277Y027760D01*
X016231Y027713D01*
X016231Y027620D01*
X016277Y027573D01*
X016277Y027484D02*
X016371Y027484D01*
X016418Y027437D01*
X016418Y027297D01*
X016511Y027297D02*
X016231Y027297D01*
X016231Y027437D01*
X016277Y027484D01*
X016418Y027390D02*
X016511Y027484D01*
X016645Y025430D02*
X016738Y025336D01*
X016832Y025430D01*
X016832Y025149D01*
X016921Y025149D02*
X017108Y025149D01*
X017197Y025149D02*
X017384Y025149D01*
X017473Y025149D02*
X017660Y025149D01*
X017750Y025149D02*
X017750Y025196D01*
X017936Y025383D01*
X017936Y025430D01*
X017750Y025430D01*
X017567Y025430D02*
X017567Y025149D01*
X017473Y025336D02*
X017567Y025430D01*
X017291Y025430D02*
X017291Y025149D01*
X017197Y025336D02*
X017291Y025430D01*
X017014Y025430D02*
X017014Y025149D01*
X016921Y025336D02*
X017014Y025430D01*
X016645Y025430D02*
X016645Y025149D01*
X016555Y025149D02*
X016368Y025149D01*
X016368Y025430D01*
X013948Y027899D02*
X013668Y027899D01*
X013668Y028040D01*
X013715Y028086D01*
X013808Y028086D01*
X013855Y028040D01*
X013855Y027899D01*
X013855Y027993D02*
X013948Y028086D01*
X013948Y028176D02*
X013948Y028362D01*
X013948Y028269D02*
X013668Y028269D01*
X013762Y028176D01*
X013827Y029462D02*
X013873Y029509D01*
X013873Y029602D01*
X013827Y029649D01*
X013827Y029738D02*
X013873Y029785D01*
X013873Y029878D01*
X013827Y029925D01*
X013780Y029925D01*
X013733Y029878D01*
X013733Y029832D01*
X013733Y029878D02*
X013687Y029925D01*
X013640Y029925D01*
X013593Y029878D01*
X013593Y029785D01*
X013640Y029738D01*
X013640Y029649D02*
X013593Y029602D01*
X013593Y029509D01*
X013640Y029462D01*
X013827Y029462D01*
X011465Y029477D02*
X011419Y029524D01*
X011465Y029477D02*
X011465Y029384D01*
X011419Y029337D01*
X011232Y029337D01*
X011185Y029384D01*
X011185Y029477D01*
X011232Y029524D01*
X011325Y029613D02*
X011325Y029800D01*
X011185Y029753D02*
X011325Y029613D01*
X011465Y029753D02*
X011185Y029753D01*
X011148Y028198D02*
X011148Y028011D01*
X011288Y028011D01*
X011241Y028104D01*
X011241Y028151D01*
X011288Y028198D01*
X011381Y028198D01*
X011428Y028151D01*
X011428Y028057D01*
X011381Y028011D01*
X011381Y027921D02*
X011428Y027875D01*
X011428Y027781D01*
X011381Y027734D01*
X011194Y027734D01*
X011148Y027781D01*
X011148Y027875D01*
X011194Y027921D01*
X010290Y027760D02*
X010290Y027573D01*
X010104Y027760D01*
X010057Y027760D01*
X010010Y027713D01*
X010010Y027620D01*
X010057Y027573D01*
X010057Y027484D02*
X010150Y027484D01*
X010197Y027437D01*
X010197Y027297D01*
X010197Y027390D02*
X010290Y027484D01*
X010290Y027297D02*
X010010Y027297D01*
X010010Y027437D01*
X010057Y027484D01*
X010148Y025430D02*
X010148Y025149D01*
X010335Y025149D01*
X010424Y025149D02*
X010424Y025430D01*
X010518Y025336D01*
X010611Y025430D01*
X010611Y025149D01*
X010700Y025149D02*
X010887Y025149D01*
X010977Y025149D02*
X011164Y025149D01*
X011253Y025149D02*
X011440Y025149D01*
X011529Y025149D02*
X011529Y025196D01*
X011716Y025383D01*
X011716Y025430D01*
X011529Y025430D01*
X011346Y025430D02*
X011346Y025149D01*
X011253Y025336D02*
X011346Y025430D01*
X011070Y025430D02*
X011070Y025149D01*
X010977Y025336D02*
X011070Y025430D01*
X010794Y025430D02*
X010794Y025149D01*
X010700Y025336D02*
X010794Y025430D01*
X007728Y027899D02*
X007448Y027899D01*
X007448Y028040D01*
X007494Y028086D01*
X007588Y028086D01*
X007635Y028040D01*
X007635Y027899D01*
X007635Y027993D02*
X007728Y028086D01*
X007728Y028176D02*
X007728Y028362D01*
X007728Y028269D02*
X007448Y028269D01*
X007541Y028176D01*
X007606Y029462D02*
X007419Y029462D01*
X007373Y029509D01*
X007373Y029602D01*
X007419Y029649D01*
X007419Y029738D02*
X007373Y029785D01*
X007373Y029878D01*
X007419Y029925D01*
X007466Y029925D01*
X007513Y029878D01*
X007560Y029925D01*
X007606Y029925D01*
X007653Y029878D01*
X007653Y029785D01*
X007606Y029738D01*
X007606Y029649D02*
X007653Y029602D01*
X007653Y029509D01*
X007606Y029462D01*
X007513Y029832D02*
X007513Y029878D01*
X005245Y029753D02*
X004965Y029753D01*
X005105Y029613D01*
X005105Y029800D01*
X005198Y029524D02*
X005245Y029477D01*
X005245Y029384D01*
X005198Y029337D01*
X005011Y029337D01*
X004965Y029384D01*
X004965Y029477D01*
X005011Y029524D01*
X005067Y028198D02*
X005161Y028198D01*
X005208Y028151D01*
X005208Y028057D01*
X005161Y028011D01*
X005161Y027921D02*
X005208Y027875D01*
X005208Y027781D01*
X005161Y027734D01*
X004974Y027734D01*
X004927Y027781D01*
X004927Y027875D01*
X004974Y027921D01*
X004927Y028011D02*
X005067Y028011D01*
X005021Y028104D01*
X005021Y028151D01*
X005067Y028198D01*
X004927Y028198D02*
X004927Y028011D01*
X004070Y027760D02*
X004070Y027573D01*
X003883Y027760D01*
X003836Y027760D01*
X003790Y027713D01*
X003790Y027620D01*
X003836Y027573D01*
X003836Y027484D02*
X003930Y027484D01*
X003977Y027437D01*
X003977Y027297D01*
X004070Y027297D02*
X003790Y027297D01*
X003790Y027437D01*
X003836Y027484D01*
X003977Y027390D02*
X004070Y027484D01*
X004204Y025430D02*
X004297Y025336D01*
X004391Y025430D01*
X004391Y025149D01*
X004480Y025149D02*
X004667Y025149D01*
X004756Y025149D02*
X004943Y025149D01*
X005032Y025149D02*
X005219Y025149D01*
X005309Y025149D02*
X005309Y025196D01*
X005496Y025383D01*
X005496Y025430D01*
X005309Y025430D01*
X005126Y025430D02*
X005126Y025149D01*
X005032Y025336D02*
X005126Y025430D01*
X004850Y025430D02*
X004850Y025149D01*
X004756Y025336D02*
X004850Y025430D01*
X004573Y025430D02*
X004573Y025149D01*
X004480Y025336D02*
X004573Y025430D01*
X004204Y025430D02*
X004204Y025149D01*
X004114Y025149D02*
X003928Y025149D01*
X003928Y025430D01*
X001508Y027899D02*
X001227Y027899D01*
X001227Y028040D01*
X001274Y028086D01*
X001367Y028086D01*
X001414Y028040D01*
X001414Y027899D01*
X001414Y027993D02*
X001508Y028086D01*
X001508Y028176D02*
X001508Y028362D01*
X001508Y028269D02*
X001227Y028269D01*
X001321Y028176D01*
X001386Y029462D02*
X001433Y029509D01*
X001433Y029602D01*
X001386Y029649D01*
X001386Y029738D02*
X001433Y029785D01*
X001433Y029878D01*
X001386Y029925D01*
X001339Y029925D01*
X001292Y029878D01*
X001292Y029832D01*
X001292Y029878D02*
X001246Y029925D01*
X001199Y029925D01*
X001152Y029878D01*
X001152Y029785D01*
X001199Y029738D01*
X001199Y029649D02*
X001152Y029602D01*
X001152Y029509D01*
X001199Y029462D01*
X001386Y029462D01*
X001409Y022617D02*
X001363Y022570D01*
X001363Y022384D01*
X001409Y022337D01*
X001503Y022337D01*
X001549Y022384D01*
X001639Y022337D02*
X001826Y022337D01*
X001732Y022337D02*
X001732Y022617D01*
X001639Y022524D01*
X001549Y022570D02*
X001503Y022617D01*
X001409Y022617D01*
X001201Y020930D02*
X001107Y020883D01*
X001014Y020790D01*
X001154Y020790D01*
X001201Y020743D01*
X001201Y020696D01*
X001154Y020649D01*
X001060Y020649D01*
X001014Y020696D01*
X001014Y020790D01*
X000924Y020883D02*
X000878Y020930D01*
X000784Y020930D01*
X000738Y020883D01*
X000738Y020696D01*
X000784Y020649D01*
X000878Y020649D01*
X000924Y020696D01*
X001738Y020693D02*
X001878Y020693D01*
X001924Y020740D01*
X001924Y020833D01*
X001878Y020880D01*
X001738Y020880D01*
X001738Y020599D01*
X001831Y020693D02*
X001924Y020599D01*
X002014Y020740D02*
X002201Y020740D01*
X002154Y020880D02*
X002014Y020740D01*
X002154Y020880D02*
X002154Y020599D01*
X002738Y020599D02*
X002738Y020880D01*
X002878Y020880D01*
X002924Y020833D01*
X002924Y020740D01*
X002878Y020693D01*
X002738Y020693D01*
X002831Y020693D02*
X002924Y020599D01*
X003014Y020646D02*
X003060Y020599D01*
X003154Y020599D01*
X003201Y020646D01*
X003201Y020740D01*
X003154Y020786D01*
X003107Y020786D01*
X003014Y020740D01*
X003014Y020880D01*
X003201Y020880D01*
X003590Y020817D02*
X003590Y020537D01*
X003590Y020630D02*
X003730Y020630D01*
X003777Y020677D01*
X003777Y020770D01*
X003730Y020817D01*
X003590Y020817D01*
X003683Y020630D02*
X003777Y020537D01*
X003866Y020584D02*
X003913Y020537D01*
X004006Y020537D01*
X004053Y020584D01*
X004053Y020630D01*
X004006Y020677D01*
X003960Y020677D01*
X004006Y020677D02*
X004053Y020724D01*
X004053Y020770D01*
X004006Y020817D01*
X003913Y020817D01*
X003866Y020770D01*
X004890Y020817D02*
X004890Y020537D01*
X005030Y020537D01*
X005077Y020584D01*
X005077Y020770D01*
X005030Y020817D01*
X004890Y020817D01*
X005166Y020770D02*
X005213Y020817D01*
X005306Y020817D01*
X005353Y020770D01*
X005353Y020724D01*
X005166Y020537D01*
X005353Y020537D01*
X004925Y019530D02*
X004739Y019530D01*
X004649Y019483D02*
X004462Y019296D01*
X004509Y019249D01*
X004603Y019249D01*
X004649Y019296D01*
X004649Y019483D01*
X004603Y019530D01*
X004509Y019530D01*
X004462Y019483D01*
X004462Y019296D01*
X004373Y019390D02*
X004186Y019390D01*
X004097Y019343D02*
X004050Y019390D01*
X003910Y019390D01*
X003910Y019296D01*
X003957Y019249D01*
X004050Y019249D01*
X004097Y019296D01*
X004097Y019343D01*
X004003Y019483D02*
X003910Y019390D01*
X003821Y019343D02*
X003774Y019390D01*
X003634Y019390D01*
X003634Y019296D01*
X003680Y019249D01*
X003774Y019249D01*
X003821Y019296D01*
X003821Y019343D01*
X003727Y019483D02*
X003634Y019390D01*
X003544Y019436D02*
X003357Y019249D01*
X003544Y019249D01*
X003544Y019436D02*
X003544Y019483D01*
X003498Y019530D01*
X003404Y019530D01*
X003357Y019483D01*
X003268Y019483D02*
X003268Y019436D01*
X003221Y019390D01*
X003128Y019390D01*
X003081Y019436D01*
X003081Y019483D01*
X003128Y019530D01*
X003221Y019530D01*
X003268Y019483D01*
X003221Y019390D02*
X003268Y019343D01*
X003268Y019296D01*
X003221Y019249D01*
X003128Y019249D01*
X003081Y019296D01*
X003081Y019343D01*
X003128Y019390D01*
X002992Y019390D02*
X002945Y019343D01*
X002805Y019343D01*
X002716Y019343D02*
X002669Y019390D01*
X002575Y019390D01*
X002529Y019436D01*
X002529Y019483D01*
X002575Y019530D01*
X002669Y019530D01*
X002716Y019483D01*
X002805Y019530D02*
X002805Y019249D01*
X002716Y019296D02*
X002669Y019249D01*
X002575Y019249D01*
X002529Y019296D01*
X002439Y019249D02*
X002253Y019249D01*
X002253Y019530D01*
X002439Y019530D01*
X002346Y019390D02*
X002253Y019390D01*
X002716Y019343D02*
X002716Y019296D01*
X002805Y019530D02*
X002945Y019530D01*
X002992Y019483D01*
X002992Y019390D01*
X003727Y019483D02*
X003821Y019530D01*
X004003Y019483D02*
X004097Y019530D01*
X004739Y019296D02*
X004739Y019249D01*
X004739Y019296D02*
X004925Y019483D01*
X004925Y019530D01*
X005324Y018830D02*
X005278Y018783D01*
X005278Y018596D01*
X005324Y018549D01*
X005418Y018549D01*
X005464Y018596D01*
X005554Y018549D02*
X005741Y018736D01*
X005741Y018783D01*
X005694Y018830D01*
X005600Y018830D01*
X005554Y018783D01*
X005464Y018783D02*
X005418Y018830D01*
X005324Y018830D01*
X005554Y018549D02*
X005741Y018549D01*
X007958Y020599D02*
X007958Y020880D01*
X008098Y020880D01*
X008145Y020833D01*
X008145Y020740D01*
X008098Y020693D01*
X007958Y020693D01*
X008051Y020693D02*
X008145Y020599D01*
X008234Y020740D02*
X008421Y020740D01*
X008374Y020880D02*
X008234Y020740D01*
X008374Y020880D02*
X008374Y020599D01*
X008958Y020599D02*
X008958Y020880D01*
X009098Y020880D01*
X009145Y020833D01*
X009145Y020740D01*
X009098Y020693D01*
X008958Y020693D01*
X009051Y020693D02*
X009145Y020599D01*
X009234Y020646D02*
X009281Y020599D01*
X009374Y020599D01*
X009421Y020646D01*
X009421Y020740D01*
X009374Y020786D01*
X009328Y020786D01*
X009234Y020740D01*
X009234Y020880D01*
X009421Y020880D01*
X009810Y020817D02*
X009810Y020537D01*
X009810Y020630D02*
X009951Y020630D01*
X009997Y020677D01*
X009997Y020770D01*
X009951Y020817D01*
X009810Y020817D01*
X009904Y020630D02*
X009997Y020537D01*
X010087Y020584D02*
X010133Y020537D01*
X010227Y020537D01*
X010274Y020584D01*
X010274Y020630D01*
X010227Y020677D01*
X010180Y020677D01*
X010227Y020677D02*
X010274Y020724D01*
X010274Y020770D01*
X010227Y020817D01*
X010133Y020817D01*
X010087Y020770D01*
X011110Y020817D02*
X011110Y020537D01*
X011251Y020537D01*
X011297Y020584D01*
X011297Y020770D01*
X011251Y020817D01*
X011110Y020817D01*
X011387Y020770D02*
X011433Y020817D01*
X011527Y020817D01*
X011574Y020770D01*
X011574Y020724D01*
X011387Y020537D01*
X011574Y020537D01*
X011099Y019530D02*
X011006Y019530D01*
X010959Y019483D01*
X010959Y019436D01*
X011006Y019390D01*
X011099Y019390D01*
X011146Y019343D01*
X011146Y019296D01*
X011099Y019249D01*
X011006Y019249D01*
X010959Y019296D01*
X010959Y019343D01*
X011006Y019390D01*
X011099Y019390D02*
X011146Y019436D01*
X011146Y019483D01*
X011099Y019530D01*
X010870Y019483D02*
X010870Y019296D01*
X010823Y019249D01*
X010730Y019249D01*
X010683Y019296D01*
X010870Y019483D01*
X010823Y019530D01*
X010730Y019530D01*
X010683Y019483D01*
X010683Y019296D01*
X010593Y019390D02*
X010407Y019390D01*
X010317Y019343D02*
X010271Y019390D01*
X010130Y019390D01*
X010130Y019296D01*
X010177Y019249D01*
X010271Y019249D01*
X010317Y019296D01*
X010317Y019343D01*
X010224Y019483D02*
X010130Y019390D01*
X010041Y019343D02*
X009994Y019390D01*
X009854Y019390D01*
X009854Y019296D01*
X009901Y019249D01*
X009994Y019249D01*
X010041Y019296D01*
X010041Y019343D01*
X009948Y019483D02*
X009854Y019390D01*
X009765Y019436D02*
X009765Y019483D01*
X009718Y019530D01*
X009625Y019530D01*
X009578Y019483D01*
X009489Y019483D02*
X009489Y019436D01*
X009442Y019390D01*
X009348Y019390D01*
X009302Y019436D01*
X009302Y019483D01*
X009348Y019530D01*
X009442Y019530D01*
X009489Y019483D01*
X009442Y019390D02*
X009489Y019343D01*
X009489Y019296D01*
X009442Y019249D01*
X009348Y019249D01*
X009302Y019296D01*
X009302Y019343D01*
X009348Y019390D01*
X009212Y019390D02*
X009166Y019343D01*
X009025Y019343D01*
X008936Y019343D02*
X008936Y019296D01*
X008889Y019249D01*
X008796Y019249D01*
X008749Y019296D01*
X008660Y019249D02*
X008473Y019249D01*
X008473Y019530D01*
X008660Y019530D01*
X008749Y019483D02*
X008749Y019436D01*
X008796Y019390D01*
X008889Y019390D01*
X008936Y019343D01*
X009025Y019249D02*
X009025Y019530D01*
X009166Y019530D01*
X009212Y019483D01*
X009212Y019390D01*
X008936Y019483D02*
X008889Y019530D01*
X008796Y019530D01*
X008749Y019483D01*
X008566Y019390D02*
X008473Y019390D01*
X009578Y019249D02*
X009765Y019436D01*
X009765Y019249D02*
X009578Y019249D01*
X009948Y019483D02*
X010041Y019530D01*
X010224Y019483D02*
X010317Y019530D01*
X011498Y018783D02*
X011498Y018596D01*
X011545Y018549D01*
X011638Y018549D01*
X011685Y018596D01*
X011774Y018549D02*
X011961Y018736D01*
X011961Y018783D01*
X011914Y018830D01*
X011821Y018830D01*
X011774Y018783D01*
X011685Y018783D02*
X011638Y018830D01*
X011545Y018830D01*
X011498Y018783D01*
X011774Y018549D02*
X011961Y018549D01*
X014178Y020599D02*
X014178Y020880D01*
X014319Y020880D01*
X014365Y020833D01*
X014365Y020740D01*
X014319Y020693D01*
X014178Y020693D01*
X014272Y020693D02*
X014365Y020599D01*
X014455Y020740D02*
X014642Y020740D01*
X014595Y020880D02*
X014455Y020740D01*
X014595Y020880D02*
X014595Y020599D01*
X015178Y020599D02*
X015178Y020880D01*
X015319Y020880D01*
X015365Y020833D01*
X015365Y020740D01*
X015319Y020693D01*
X015178Y020693D01*
X015272Y020693D02*
X015365Y020599D01*
X015455Y020646D02*
X015501Y020599D01*
X015595Y020599D01*
X015642Y020646D01*
X015642Y020740D01*
X015595Y020786D01*
X015548Y020786D01*
X015455Y020740D01*
X015455Y020880D01*
X015642Y020880D01*
X016031Y020817D02*
X016031Y020537D01*
X016031Y020630D02*
X016171Y020630D01*
X016218Y020677D01*
X016218Y020770D01*
X016171Y020817D01*
X016031Y020817D01*
X016124Y020630D02*
X016218Y020537D01*
X016307Y020584D02*
X016354Y020537D01*
X016447Y020537D01*
X016494Y020584D01*
X016494Y020630D01*
X016447Y020677D01*
X016401Y020677D01*
X016447Y020677D02*
X016494Y020724D01*
X016494Y020770D01*
X016447Y020817D01*
X016354Y020817D01*
X016307Y020770D01*
X017331Y020817D02*
X017331Y020537D01*
X017471Y020537D01*
X017518Y020584D01*
X017518Y020770D01*
X017471Y020817D01*
X017331Y020817D01*
X017607Y020770D02*
X017654Y020817D01*
X017747Y020817D01*
X017794Y020770D01*
X017794Y020724D01*
X017607Y020537D01*
X017794Y020537D01*
X017320Y019530D02*
X017226Y019530D01*
X017180Y019483D01*
X017180Y019436D01*
X017226Y019390D01*
X017366Y019390D01*
X017366Y019483D02*
X017320Y019530D01*
X017366Y019483D02*
X017366Y019296D01*
X017320Y019249D01*
X017226Y019249D01*
X017180Y019296D01*
X017090Y019296D02*
X017043Y019249D01*
X016950Y019249D01*
X016903Y019296D01*
X017090Y019483D01*
X017090Y019296D01*
X016903Y019296D02*
X016903Y019483D01*
X016950Y019530D01*
X017043Y019530D01*
X017090Y019483D01*
X016814Y019390D02*
X016627Y019390D01*
X016538Y019343D02*
X016491Y019390D01*
X016351Y019390D01*
X016351Y019296D01*
X016398Y019249D01*
X016491Y019249D01*
X016538Y019296D01*
X016538Y019343D01*
X016444Y019483D02*
X016351Y019390D01*
X016261Y019343D02*
X016215Y019390D01*
X016075Y019390D01*
X016075Y019296D01*
X016121Y019249D01*
X016215Y019249D01*
X016261Y019296D01*
X016261Y019343D01*
X016168Y019483D02*
X016075Y019390D01*
X015985Y019436D02*
X015985Y019483D01*
X015939Y019530D01*
X015845Y019530D01*
X015798Y019483D01*
X015709Y019483D02*
X015709Y019436D01*
X015662Y019390D01*
X015569Y019390D01*
X015522Y019436D01*
X015522Y019483D01*
X015569Y019530D01*
X015662Y019530D01*
X015709Y019483D01*
X015662Y019390D02*
X015709Y019343D01*
X015709Y019296D01*
X015662Y019249D01*
X015569Y019249D01*
X015522Y019296D01*
X015522Y019343D01*
X015569Y019390D01*
X015433Y019390D02*
X015386Y019343D01*
X015246Y019343D01*
X015157Y019343D02*
X015157Y019296D01*
X015110Y019249D01*
X015016Y019249D01*
X014970Y019296D01*
X014880Y019249D02*
X014693Y019249D01*
X014693Y019530D01*
X014880Y019530D01*
X014970Y019483D02*
X014970Y019436D01*
X015016Y019390D01*
X015110Y019390D01*
X015157Y019343D01*
X015246Y019249D02*
X015246Y019530D01*
X015386Y019530D01*
X015433Y019483D01*
X015433Y019390D01*
X015157Y019483D02*
X015110Y019530D01*
X015016Y019530D01*
X014970Y019483D01*
X014787Y019390D02*
X014693Y019390D01*
X015798Y019249D02*
X015985Y019436D01*
X015985Y019249D02*
X015798Y019249D01*
X016168Y019483D02*
X016261Y019530D01*
X016444Y019483D02*
X016538Y019530D01*
X017718Y018783D02*
X017718Y018596D01*
X017765Y018549D01*
X017859Y018549D01*
X017905Y018596D01*
X017995Y018549D02*
X018182Y018736D01*
X018182Y018783D01*
X018135Y018830D01*
X018041Y018830D01*
X017995Y018783D01*
X017905Y018783D02*
X017859Y018830D01*
X017765Y018830D01*
X017718Y018783D01*
X017995Y018549D02*
X018182Y018549D01*
X020399Y020599D02*
X020399Y020880D01*
X020539Y020880D01*
X020586Y020833D01*
X020586Y020740D01*
X020539Y020693D01*
X020399Y020693D01*
X020492Y020693D02*
X020586Y020599D01*
X020675Y020740D02*
X020862Y020740D01*
X020815Y020880D02*
X020675Y020740D01*
X020815Y020880D02*
X020815Y020599D01*
X021399Y020599D02*
X021399Y020880D01*
X021539Y020880D01*
X021586Y020833D01*
X021586Y020740D01*
X021539Y020693D01*
X021399Y020693D01*
X021492Y020693D02*
X021586Y020599D01*
X021675Y020646D02*
X021722Y020599D01*
X021815Y020599D01*
X021862Y020646D01*
X021862Y020740D01*
X021815Y020786D01*
X021769Y020786D01*
X021675Y020740D01*
X021675Y020880D01*
X021862Y020880D01*
X022251Y020817D02*
X022251Y020537D01*
X022251Y020630D02*
X022392Y020630D01*
X022438Y020677D01*
X022438Y020770D01*
X022392Y020817D01*
X022251Y020817D01*
X022345Y020630D02*
X022438Y020537D01*
X022528Y020584D02*
X022574Y020537D01*
X022668Y020537D01*
X022714Y020584D01*
X022714Y020630D01*
X022668Y020677D01*
X022621Y020677D01*
X022668Y020677D02*
X022714Y020724D01*
X022714Y020770D01*
X022668Y020817D01*
X022574Y020817D01*
X022528Y020770D01*
X023551Y020817D02*
X023551Y020537D01*
X023692Y020537D01*
X023738Y020584D01*
X023738Y020770D01*
X023692Y020817D01*
X023551Y020817D01*
X023828Y020770D02*
X023874Y020817D01*
X023968Y020817D01*
X024014Y020770D01*
X024014Y020724D01*
X023828Y020537D01*
X024014Y020537D01*
X023540Y019530D02*
X023587Y019483D01*
X023400Y019296D01*
X023447Y019249D01*
X023540Y019249D01*
X023587Y019296D01*
X023587Y019483D01*
X023540Y019530D02*
X023447Y019530D01*
X023400Y019483D01*
X023400Y019296D01*
X023311Y019249D02*
X023124Y019249D01*
X023217Y019249D02*
X023217Y019530D01*
X023124Y019436D01*
X023034Y019390D02*
X022848Y019390D01*
X022758Y019343D02*
X022711Y019390D01*
X022571Y019390D01*
X022571Y019296D01*
X022618Y019249D01*
X022711Y019249D01*
X022758Y019296D01*
X022758Y019343D01*
X022665Y019483D02*
X022571Y019390D01*
X022482Y019343D02*
X022435Y019390D01*
X022295Y019390D01*
X022295Y019296D01*
X022342Y019249D01*
X022435Y019249D01*
X022482Y019296D01*
X022482Y019343D01*
X022389Y019483D02*
X022295Y019390D01*
X022206Y019436D02*
X022206Y019483D01*
X022159Y019530D01*
X022066Y019530D01*
X022019Y019483D01*
X021929Y019483D02*
X021929Y019436D01*
X021883Y019390D01*
X021789Y019390D01*
X021743Y019436D01*
X021743Y019483D01*
X021789Y019530D01*
X021883Y019530D01*
X021929Y019483D01*
X021883Y019390D02*
X021929Y019343D01*
X021929Y019296D01*
X021883Y019249D01*
X021789Y019249D01*
X021743Y019296D01*
X021743Y019343D01*
X021789Y019390D01*
X021653Y019390D02*
X021607Y019343D01*
X021466Y019343D01*
X021377Y019343D02*
X021330Y019390D01*
X021237Y019390D01*
X021190Y019436D01*
X021190Y019483D01*
X021237Y019530D01*
X021330Y019530D01*
X021377Y019483D01*
X021466Y019530D02*
X021466Y019249D01*
X021377Y019296D02*
X021330Y019249D01*
X021237Y019249D01*
X021190Y019296D01*
X021101Y019249D02*
X020914Y019249D01*
X020914Y019530D01*
X021101Y019530D01*
X021007Y019390D02*
X020914Y019390D01*
X021377Y019343D02*
X021377Y019296D01*
X021466Y019530D02*
X021607Y019530D01*
X021653Y019483D01*
X021653Y019390D01*
X022019Y019249D02*
X022206Y019436D01*
X022206Y019249D02*
X022019Y019249D01*
X022389Y019483D02*
X022482Y019530D01*
X022665Y019483D02*
X022758Y019530D01*
X023939Y018783D02*
X023939Y018596D01*
X023986Y018549D01*
X024079Y018549D01*
X024126Y018596D01*
X024215Y018549D02*
X024402Y018736D01*
X024402Y018783D01*
X024355Y018830D01*
X024262Y018830D01*
X024215Y018783D01*
X024126Y018783D02*
X024079Y018830D01*
X023986Y018830D01*
X023939Y018783D01*
X024215Y018549D02*
X024402Y018549D01*
X019862Y020696D02*
X019862Y020743D01*
X019815Y020790D01*
X019675Y020790D01*
X019675Y020696D01*
X019722Y020649D01*
X019815Y020649D01*
X019862Y020696D01*
X019769Y020883D02*
X019675Y020790D01*
X019586Y020883D02*
X019539Y020930D01*
X019446Y020930D01*
X019399Y020883D01*
X019399Y020696D01*
X019446Y020649D01*
X019539Y020649D01*
X019586Y020696D01*
X019769Y020883D02*
X019862Y020930D01*
X020071Y022337D02*
X020164Y022337D01*
X020211Y022384D01*
X020300Y022337D02*
X020487Y022337D01*
X020394Y022337D02*
X020394Y022617D01*
X020300Y022524D01*
X020211Y022570D02*
X020164Y022617D01*
X020071Y022617D01*
X020024Y022570D01*
X020024Y022384D01*
X020071Y022337D01*
X018079Y022570D02*
X017892Y022384D01*
X017892Y022337D01*
X017803Y022384D02*
X017756Y022337D01*
X017663Y022337D01*
X017616Y022384D01*
X017616Y022570D01*
X017663Y022617D01*
X017756Y022617D01*
X017803Y022570D01*
X017892Y022617D02*
X018079Y022617D01*
X018079Y022570D01*
X016642Y022570D02*
X016642Y022524D01*
X016595Y022477D01*
X016501Y022477D01*
X016455Y022524D01*
X016455Y022570D01*
X016501Y022617D01*
X016595Y022617D01*
X016642Y022570D01*
X016595Y022477D02*
X016642Y022430D01*
X016642Y022384D01*
X016595Y022337D01*
X016501Y022337D01*
X016455Y022384D01*
X016455Y022430D01*
X016501Y022477D01*
X016365Y022384D02*
X016319Y022337D01*
X016225Y022337D01*
X016178Y022384D01*
X016178Y022570D01*
X016225Y022617D01*
X016319Y022617D01*
X016365Y022570D01*
X014267Y022337D02*
X014080Y022337D01*
X014173Y022337D02*
X014173Y022617D01*
X014080Y022524D01*
X013990Y022570D02*
X013944Y022617D01*
X013850Y022617D01*
X013803Y022570D01*
X013803Y022384D01*
X013850Y022337D01*
X013944Y022337D01*
X013990Y022384D01*
X013642Y020930D02*
X013548Y020883D01*
X013455Y020790D01*
X013595Y020790D01*
X013642Y020743D01*
X013642Y020696D01*
X013595Y020649D01*
X013501Y020649D01*
X013455Y020696D01*
X013455Y020790D01*
X013365Y020883D02*
X013319Y020930D01*
X013225Y020930D01*
X013178Y020883D01*
X013178Y020696D01*
X013225Y020649D01*
X013319Y020649D01*
X013365Y020696D01*
X011672Y022337D02*
X011672Y022384D01*
X011859Y022570D01*
X011859Y022617D01*
X011672Y022617D01*
X011582Y022570D02*
X011536Y022617D01*
X011442Y022617D01*
X011396Y022570D01*
X011396Y022384D01*
X011442Y022337D01*
X011536Y022337D01*
X011582Y022384D01*
X010421Y022384D02*
X010374Y022337D01*
X010281Y022337D01*
X010234Y022384D01*
X010234Y022430D01*
X010281Y022477D01*
X010374Y022477D01*
X010421Y022430D01*
X010421Y022384D01*
X010374Y022477D02*
X010421Y022524D01*
X010421Y022570D01*
X010374Y022617D01*
X010281Y022617D01*
X010234Y022570D01*
X010234Y022524D01*
X010281Y022477D01*
X010145Y022384D02*
X010098Y022337D01*
X010005Y022337D01*
X009958Y022384D01*
X009958Y022570D01*
X010005Y022617D01*
X010098Y022617D01*
X010145Y022570D01*
X008046Y022337D02*
X007859Y022337D01*
X007953Y022337D02*
X007953Y022617D01*
X007859Y022524D01*
X007770Y022570D02*
X007723Y022617D01*
X007630Y022617D01*
X007583Y022570D01*
X007583Y022384D01*
X007630Y022337D01*
X007723Y022337D01*
X007770Y022384D01*
X007421Y020930D02*
X007328Y020883D01*
X007234Y020790D01*
X007374Y020790D01*
X007421Y020743D01*
X007421Y020696D01*
X007374Y020649D01*
X007281Y020649D01*
X007234Y020696D01*
X007234Y020790D01*
X007145Y020883D02*
X007098Y020930D01*
X007005Y020930D01*
X006958Y020883D01*
X006958Y020696D01*
X007005Y020649D01*
X007098Y020649D01*
X007145Y020696D01*
X005451Y022337D02*
X005451Y022384D01*
X005638Y022570D01*
X005638Y022617D01*
X005451Y022617D01*
X005362Y022570D02*
X005315Y022617D01*
X005222Y022617D01*
X005175Y022570D01*
X005175Y022384D01*
X005222Y022337D01*
X005315Y022337D01*
X005362Y022384D01*
X004201Y022384D02*
X004154Y022337D01*
X004060Y022337D01*
X004014Y022384D01*
X004014Y022430D01*
X004060Y022477D01*
X004154Y022477D01*
X004201Y022430D01*
X004201Y022384D01*
X004154Y022477D02*
X004201Y022524D01*
X004201Y022570D01*
X004154Y022617D01*
X004060Y022617D01*
X004014Y022570D01*
X004014Y022524D01*
X004060Y022477D01*
X003924Y022384D02*
X003878Y022337D01*
X003784Y022337D01*
X003738Y022384D01*
X003738Y022570D01*
X003784Y022617D01*
X003878Y022617D01*
X003924Y022570D01*
X005105Y015981D02*
X005105Y015794D01*
X004965Y015934D01*
X005245Y015934D01*
X005198Y015705D02*
X005245Y015658D01*
X005245Y015565D01*
X005198Y015518D01*
X005011Y015518D01*
X004965Y015565D01*
X004965Y015658D01*
X005011Y015705D01*
X005067Y014379D02*
X005161Y014379D01*
X005208Y014332D01*
X005208Y014239D01*
X005161Y014192D01*
X005161Y014102D02*
X005208Y014056D01*
X005208Y013962D01*
X005161Y013916D01*
X004974Y013916D01*
X004927Y013962D01*
X004927Y014056D01*
X004974Y014102D01*
X004927Y014192D02*
X005067Y014192D01*
X005021Y014285D01*
X005021Y014332D01*
X005067Y014379D01*
X004927Y014379D02*
X004927Y014192D01*
X004070Y013941D02*
X004070Y013754D01*
X003883Y013941D01*
X003836Y013941D01*
X003790Y013894D01*
X003790Y013801D01*
X003836Y013754D01*
X003836Y013665D02*
X003930Y013665D01*
X003977Y013618D01*
X003977Y013478D01*
X004070Y013478D02*
X003790Y013478D01*
X003790Y013618D01*
X003836Y013665D01*
X003977Y013571D02*
X004070Y013665D01*
X004204Y011611D02*
X004297Y011517D01*
X004391Y011611D01*
X004391Y011331D01*
X004480Y011331D02*
X004667Y011331D01*
X004756Y011331D02*
X004943Y011331D01*
X005032Y011331D02*
X005219Y011331D01*
X005309Y011331D02*
X005309Y011377D01*
X005496Y011564D01*
X005496Y011611D01*
X005309Y011611D01*
X005126Y011611D02*
X005126Y011331D01*
X005032Y011517D02*
X005126Y011611D01*
X004850Y011611D02*
X004850Y011331D01*
X004756Y011517D02*
X004850Y011611D01*
X004573Y011611D02*
X004573Y011331D01*
X004480Y011517D02*
X004573Y011611D01*
X004204Y011611D02*
X004204Y011331D01*
X004114Y011331D02*
X003928Y011331D01*
X003928Y011611D01*
X001508Y014081D02*
X001227Y014081D01*
X001227Y014221D01*
X001274Y014267D01*
X001367Y014267D01*
X001414Y014221D01*
X001414Y014081D01*
X001414Y014174D02*
X001508Y014267D01*
X001508Y014357D02*
X001508Y014544D01*
X001508Y014450D02*
X001227Y014450D01*
X001321Y014357D01*
X001386Y015643D02*
X001433Y015690D01*
X001433Y015783D01*
X001386Y015830D01*
X001386Y015919D02*
X001433Y015966D01*
X001433Y016059D01*
X001386Y016106D01*
X001339Y016106D01*
X001292Y016059D01*
X001292Y016013D01*
X001292Y016059D02*
X001246Y016106D01*
X001199Y016106D01*
X001152Y016059D01*
X001152Y015966D01*
X001199Y015919D01*
X001199Y015830D02*
X001152Y015783D01*
X001152Y015690D01*
X001199Y015643D01*
X001386Y015643D01*
X007373Y015690D02*
X007419Y015643D01*
X007606Y015643D01*
X007653Y015690D01*
X007653Y015783D01*
X007606Y015830D01*
X007606Y015919D02*
X007653Y015966D01*
X007653Y016059D01*
X007606Y016106D01*
X007560Y016106D01*
X007513Y016059D01*
X007513Y016013D01*
X007513Y016059D02*
X007466Y016106D01*
X007419Y016106D01*
X007373Y016059D01*
X007373Y015966D01*
X007419Y015919D01*
X007419Y015830D02*
X007373Y015783D01*
X007373Y015690D01*
X007728Y014544D02*
X007728Y014357D01*
X007728Y014267D02*
X007635Y014174D01*
X007635Y014221D02*
X007635Y014081D01*
X007728Y014081D02*
X007448Y014081D01*
X007448Y014221D01*
X007494Y014267D01*
X007588Y014267D01*
X007635Y014221D01*
X007541Y014357D02*
X007448Y014450D01*
X007728Y014450D01*
X016368Y011611D02*
X016368Y011331D01*
X016555Y011331D01*
X016645Y011331D02*
X016645Y011611D01*
X016738Y011517D01*
X016832Y011611D01*
X016832Y011331D01*
X016921Y011331D02*
X017108Y011331D01*
X017197Y011331D02*
X017384Y011331D01*
X017473Y011331D02*
X017660Y011331D01*
X017750Y011331D02*
X017750Y011377D01*
X017936Y011564D01*
X017936Y011611D01*
X017750Y011611D01*
X017567Y011611D02*
X017567Y011331D01*
X017473Y011517D02*
X017567Y011611D01*
X017291Y011611D02*
X017291Y011331D01*
X017197Y011517D02*
X017291Y011611D01*
X017014Y011611D02*
X017014Y011331D01*
X016921Y011517D02*
X017014Y011611D01*
X022589Y011611D02*
X022589Y011331D01*
X022776Y011331D01*
X022865Y011331D02*
X022865Y011611D01*
X022959Y011517D01*
X023052Y011611D01*
X023052Y011331D01*
X023141Y011331D02*
X023328Y011331D01*
X023418Y011331D02*
X023604Y011331D01*
X023694Y011331D02*
X023881Y011331D01*
X023970Y011331D02*
X023970Y011377D01*
X024157Y011564D01*
X024157Y011611D01*
X023970Y011611D01*
X023787Y011611D02*
X023787Y011331D01*
X023694Y011517D02*
X023787Y011611D01*
X023511Y011611D02*
X023511Y011331D01*
X023418Y011517D02*
X023511Y011611D01*
X023235Y011611D02*
X023235Y011331D01*
X023141Y011517D02*
X023235Y011611D01*
X028809Y011611D02*
X028809Y011331D01*
X028996Y011331D01*
X029086Y011331D02*
X029086Y011611D01*
X029179Y011517D01*
X029272Y011611D01*
X029272Y011331D01*
X029362Y011331D02*
X029549Y011331D01*
X029638Y011331D02*
X029825Y011331D01*
X029914Y011331D02*
X030101Y011331D01*
X030191Y011331D02*
X030191Y011377D01*
X030377Y011564D01*
X030377Y011611D01*
X030191Y011611D01*
X030008Y011611D02*
X030008Y011331D01*
X029914Y011517D02*
X030008Y011611D01*
X029732Y011611D02*
X029732Y011331D01*
X029638Y011517D02*
X029732Y011611D01*
X029455Y011611D02*
X029455Y011331D01*
X029362Y011517D02*
X029455Y011611D01*
X035030Y011611D02*
X035030Y011331D01*
X035217Y011331D01*
X035306Y011331D02*
X035306Y011611D01*
X035400Y011517D01*
X035493Y011611D01*
X035493Y011331D01*
X035582Y011331D02*
X035769Y011331D01*
X035859Y011331D02*
X036045Y011331D01*
X036135Y011331D02*
X036322Y011331D01*
X036411Y011331D02*
X036411Y011377D01*
X036598Y011564D01*
X036598Y011611D01*
X036411Y011611D01*
X036228Y011611D02*
X036228Y011331D01*
X036135Y011517D02*
X036228Y011611D01*
X035952Y011611D02*
X035952Y011331D01*
X035859Y011517D02*
X035952Y011611D01*
X035676Y011611D02*
X035676Y011331D01*
X035582Y011517D02*
X035676Y011611D01*
X024113Y022337D02*
X024113Y022384D01*
X024300Y022570D01*
X024300Y022617D01*
X024113Y022617D01*
X024023Y022570D02*
X023977Y022617D01*
X023883Y022617D01*
X023836Y022570D01*
X023836Y022384D01*
X023883Y022337D01*
X023977Y022337D01*
X024023Y022384D01*
X022862Y022384D02*
X022815Y022337D01*
X022722Y022337D01*
X022675Y022384D01*
X022675Y022430D01*
X022722Y022477D01*
X022815Y022477D01*
X022862Y022430D01*
X022862Y022384D01*
X022815Y022477D02*
X022862Y022524D01*
X022862Y022570D01*
X022815Y022617D01*
X022722Y022617D01*
X022675Y022570D01*
X022675Y022524D01*
X022722Y022477D01*
X022586Y022384D02*
X022539Y022337D01*
X022446Y022337D01*
X022399Y022384D01*
X022399Y022570D01*
X022446Y022617D01*
X022539Y022617D01*
X022586Y022570D01*
X029847Y029384D02*
X029893Y029337D01*
X030080Y029337D01*
X030127Y029384D01*
X030127Y029477D01*
X030080Y029524D01*
X029987Y029613D02*
X029987Y029800D01*
X030127Y029753D02*
X029847Y029753D01*
X029987Y029613D01*
X029893Y029524D02*
X029847Y029477D01*
X029847Y029384D01*
D13*
X032012Y027319D02*
X033552Y027319D01*
X033552Y023909D01*
X032012Y023909D01*
X032012Y027319D01*
X032191Y027064D02*
X032193Y027087D01*
X032199Y027110D01*
X032208Y027131D01*
X032221Y027151D01*
X032237Y027168D01*
X032255Y027182D01*
X032275Y027193D01*
X032297Y027201D01*
X032320Y027205D01*
X032344Y027205D01*
X032367Y027201D01*
X032389Y027193D01*
X032409Y027182D01*
X032427Y027168D01*
X032443Y027151D01*
X032456Y027131D01*
X032465Y027110D01*
X032471Y027087D01*
X032473Y027064D01*
X032471Y027041D01*
X032465Y027018D01*
X032456Y026997D01*
X032443Y026977D01*
X032427Y026960D01*
X032409Y026946D01*
X032389Y026935D01*
X032367Y026927D01*
X032344Y026923D01*
X032320Y026923D01*
X032297Y026927D01*
X032275Y026935D01*
X032255Y026946D01*
X032237Y026960D01*
X032221Y026977D01*
X032208Y026997D01*
X032199Y027018D01*
X032193Y027041D01*
X032191Y027064D01*
X030852Y026264D02*
X028272Y026264D01*
X028272Y024964D01*
X030852Y024964D01*
X030852Y026264D01*
X027332Y027319D02*
X027332Y023909D01*
X025792Y023909D01*
X025792Y027319D01*
X027332Y027319D01*
X025971Y027064D02*
X025973Y027087D01*
X025979Y027110D01*
X025988Y027131D01*
X026001Y027151D01*
X026017Y027168D01*
X026035Y027182D01*
X026055Y027193D01*
X026077Y027201D01*
X026100Y027205D01*
X026124Y027205D01*
X026147Y027201D01*
X026169Y027193D01*
X026189Y027182D01*
X026207Y027168D01*
X026223Y027151D01*
X026236Y027131D01*
X026245Y027110D01*
X026251Y027087D01*
X026253Y027064D01*
X026251Y027041D01*
X026245Y027018D01*
X026236Y026997D01*
X026223Y026977D01*
X026207Y026960D01*
X026189Y026946D01*
X026169Y026935D01*
X026147Y026927D01*
X026124Y026923D01*
X026100Y026923D01*
X026077Y026927D01*
X026055Y026935D01*
X026035Y026946D01*
X026017Y026960D01*
X026001Y026977D01*
X025988Y026997D01*
X025979Y027018D01*
X025973Y027041D01*
X025971Y027064D01*
X024631Y026264D02*
X022051Y026264D01*
X022051Y024964D01*
X024631Y024964D01*
X024631Y026264D01*
X021111Y027319D02*
X021111Y023909D01*
X019571Y023909D01*
X019571Y027319D01*
X021111Y027319D01*
X019750Y027064D02*
X019752Y027087D01*
X019758Y027110D01*
X019767Y027131D01*
X019780Y027151D01*
X019796Y027168D01*
X019814Y027182D01*
X019834Y027193D01*
X019856Y027201D01*
X019879Y027205D01*
X019903Y027205D01*
X019926Y027201D01*
X019948Y027193D01*
X019968Y027182D01*
X019986Y027168D01*
X020002Y027151D01*
X020015Y027131D01*
X020024Y027110D01*
X020030Y027087D01*
X020032Y027064D01*
X020030Y027041D01*
X020024Y027018D01*
X020015Y026997D01*
X020002Y026977D01*
X019986Y026960D01*
X019968Y026946D01*
X019948Y026935D01*
X019926Y026927D01*
X019903Y026923D01*
X019879Y026923D01*
X019856Y026927D01*
X019834Y026935D01*
X019814Y026946D01*
X019796Y026960D01*
X019780Y026977D01*
X019767Y026997D01*
X019758Y027018D01*
X019752Y027041D01*
X019750Y027064D01*
X018411Y026264D02*
X015831Y026264D01*
X015831Y024964D01*
X018411Y024964D01*
X018411Y026264D01*
X014891Y027319D02*
X014891Y023909D01*
X013351Y023909D01*
X013351Y027319D01*
X014891Y027319D01*
X013530Y027064D02*
X013532Y027087D01*
X013538Y027110D01*
X013547Y027131D01*
X013560Y027151D01*
X013576Y027168D01*
X013594Y027182D01*
X013614Y027193D01*
X013636Y027201D01*
X013659Y027205D01*
X013683Y027205D01*
X013706Y027201D01*
X013728Y027193D01*
X013748Y027182D01*
X013766Y027168D01*
X013782Y027151D01*
X013795Y027131D01*
X013804Y027110D01*
X013810Y027087D01*
X013812Y027064D01*
X013810Y027041D01*
X013804Y027018D01*
X013795Y026997D01*
X013782Y026977D01*
X013766Y026960D01*
X013748Y026946D01*
X013728Y026935D01*
X013706Y026927D01*
X013683Y026923D01*
X013659Y026923D01*
X013636Y026927D01*
X013614Y026935D01*
X013594Y026946D01*
X013576Y026960D01*
X013560Y026977D01*
X013547Y026997D01*
X013538Y027018D01*
X013532Y027041D01*
X013530Y027064D01*
X012190Y026264D02*
X009610Y026264D01*
X009610Y024964D01*
X012190Y024964D01*
X012190Y026264D01*
X008670Y027319D02*
X008670Y023909D01*
X007130Y023909D01*
X007130Y027319D01*
X008670Y027319D01*
X007309Y027064D02*
X007311Y027087D01*
X007317Y027110D01*
X007326Y027131D01*
X007339Y027151D01*
X007355Y027168D01*
X007373Y027182D01*
X007393Y027193D01*
X007415Y027201D01*
X007438Y027205D01*
X007462Y027205D01*
X007485Y027201D01*
X007507Y027193D01*
X007527Y027182D01*
X007545Y027168D01*
X007561Y027151D01*
X007574Y027131D01*
X007583Y027110D01*
X007589Y027087D01*
X007591Y027064D01*
X007589Y027041D01*
X007583Y027018D01*
X007574Y026997D01*
X007561Y026977D01*
X007545Y026960D01*
X007527Y026946D01*
X007507Y026935D01*
X007485Y026927D01*
X007462Y026923D01*
X007438Y026923D01*
X007415Y026927D01*
X007393Y026935D01*
X007373Y026946D01*
X007355Y026960D01*
X007339Y026977D01*
X007326Y026997D01*
X007317Y027018D01*
X007311Y027041D01*
X007309Y027064D01*
X005970Y026264D02*
X003390Y026264D01*
X003390Y024964D01*
X005970Y024964D01*
X005970Y026264D01*
X002450Y027319D02*
X002450Y023909D01*
X000910Y023909D01*
X000910Y027319D01*
X002450Y027319D01*
X001089Y027064D02*
X001091Y027087D01*
X001097Y027110D01*
X001106Y027131D01*
X001119Y027151D01*
X001135Y027168D01*
X001153Y027182D01*
X001173Y027193D01*
X001195Y027201D01*
X001218Y027205D01*
X001242Y027205D01*
X001265Y027201D01*
X001287Y027193D01*
X001307Y027182D01*
X001325Y027168D01*
X001341Y027151D01*
X001354Y027131D01*
X001363Y027110D01*
X001369Y027087D01*
X001371Y027064D01*
X001369Y027041D01*
X001363Y027018D01*
X001354Y026997D01*
X001341Y026977D01*
X001325Y026960D01*
X001307Y026946D01*
X001287Y026935D01*
X001265Y026927D01*
X001242Y026923D01*
X001218Y026923D01*
X001195Y026927D01*
X001173Y026935D01*
X001153Y026946D01*
X001135Y026960D01*
X001119Y026977D01*
X001106Y026997D01*
X001097Y027018D01*
X001091Y027041D01*
X001089Y027064D01*
X000910Y013501D02*
X002450Y013501D01*
X002450Y010091D01*
X000910Y010091D01*
X000910Y013501D01*
X001089Y013246D02*
X001091Y013269D01*
X001097Y013292D01*
X001106Y013313D01*
X001119Y013333D01*
X001135Y013350D01*
X001153Y013364D01*
X001173Y013375D01*
X001195Y013383D01*
X001218Y013387D01*
X001242Y013387D01*
X001265Y013383D01*
X001287Y013375D01*
X001307Y013364D01*
X001325Y013350D01*
X001341Y013333D01*
X001354Y013313D01*
X001363Y013292D01*
X001369Y013269D01*
X001371Y013246D01*
X001369Y013223D01*
X001363Y013200D01*
X001354Y013179D01*
X001341Y013159D01*
X001325Y013142D01*
X001307Y013128D01*
X001287Y013117D01*
X001265Y013109D01*
X001242Y013105D01*
X001218Y013105D01*
X001195Y013109D01*
X001173Y013117D01*
X001153Y013128D01*
X001135Y013142D01*
X001119Y013159D01*
X001106Y013179D01*
X001097Y013200D01*
X001091Y013223D01*
X001089Y013246D01*
X003390Y012446D02*
X003390Y011146D01*
X005970Y011146D01*
X005970Y012446D01*
X003390Y012446D01*
X007130Y013501D02*
X007130Y010091D01*
X008670Y010091D01*
X008670Y013501D01*
X007130Y013501D01*
X007309Y013246D02*
X007311Y013269D01*
X007317Y013292D01*
X007326Y013313D01*
X007339Y013333D01*
X007355Y013350D01*
X007373Y013364D01*
X007393Y013375D01*
X007415Y013383D01*
X007438Y013387D01*
X007462Y013387D01*
X007485Y013383D01*
X007507Y013375D01*
X007527Y013364D01*
X007545Y013350D01*
X007561Y013333D01*
X007574Y013313D01*
X007583Y013292D01*
X007589Y013269D01*
X007591Y013246D01*
X007589Y013223D01*
X007583Y013200D01*
X007574Y013179D01*
X007561Y013159D01*
X007545Y013142D01*
X007527Y013128D01*
X007507Y013117D01*
X007485Y013109D01*
X007462Y013105D01*
X007438Y013105D01*
X007415Y013109D01*
X007393Y013117D01*
X007373Y013128D01*
X007355Y013142D01*
X007339Y013159D01*
X007326Y013179D01*
X007317Y013200D01*
X007311Y013223D01*
X007309Y013246D01*
X009610Y012446D02*
X009610Y011146D01*
X012190Y011146D01*
X012190Y012446D01*
X009610Y012446D01*
X013351Y013501D02*
X013351Y010091D01*
X014891Y010091D01*
X014891Y013501D01*
X013351Y013501D01*
X013530Y013246D02*
X013532Y013269D01*
X013538Y013292D01*
X013547Y013313D01*
X013560Y013333D01*
X013576Y013350D01*
X013594Y013364D01*
X013614Y013375D01*
X013636Y013383D01*
X013659Y013387D01*
X013683Y013387D01*
X013706Y013383D01*
X013728Y013375D01*
X013748Y013364D01*
X013766Y013350D01*
X013782Y013333D01*
X013795Y013313D01*
X013804Y013292D01*
X013810Y013269D01*
X013812Y013246D01*
X013810Y013223D01*
X013804Y013200D01*
X013795Y013179D01*
X013782Y013159D01*
X013766Y013142D01*
X013748Y013128D01*
X013728Y013117D01*
X013706Y013109D01*
X013683Y013105D01*
X013659Y013105D01*
X013636Y013109D01*
X013614Y013117D01*
X013594Y013128D01*
X013576Y013142D01*
X013560Y013159D01*
X013547Y013179D01*
X013538Y013200D01*
X013532Y013223D01*
X013530Y013246D01*
X015831Y012446D02*
X018411Y012446D01*
X018411Y011146D01*
X015831Y011146D01*
X015831Y012446D01*
X019571Y013501D02*
X019571Y010091D01*
X021111Y010091D01*
X021111Y013501D01*
X019571Y013501D01*
X019750Y013246D02*
X019752Y013269D01*
X019758Y013292D01*
X019767Y013313D01*
X019780Y013333D01*
X019796Y013350D01*
X019814Y013364D01*
X019834Y013375D01*
X019856Y013383D01*
X019879Y013387D01*
X019903Y013387D01*
X019926Y013383D01*
X019948Y013375D01*
X019968Y013364D01*
X019986Y013350D01*
X020002Y013333D01*
X020015Y013313D01*
X020024Y013292D01*
X020030Y013269D01*
X020032Y013246D01*
X020030Y013223D01*
X020024Y013200D01*
X020015Y013179D01*
X020002Y013159D01*
X019986Y013142D01*
X019968Y013128D01*
X019948Y013117D01*
X019926Y013109D01*
X019903Y013105D01*
X019879Y013105D01*
X019856Y013109D01*
X019834Y013117D01*
X019814Y013128D01*
X019796Y013142D01*
X019780Y013159D01*
X019767Y013179D01*
X019758Y013200D01*
X019752Y013223D01*
X019750Y013246D01*
X022051Y012446D02*
X022051Y011146D01*
X024631Y011146D01*
X024631Y012446D01*
X022051Y012446D01*
X025792Y013501D02*
X025792Y010091D01*
X027332Y010091D01*
X027332Y013501D01*
X025792Y013501D01*
X025971Y013246D02*
X025973Y013269D01*
X025979Y013292D01*
X025988Y013313D01*
X026001Y013333D01*
X026017Y013350D01*
X026035Y013364D01*
X026055Y013375D01*
X026077Y013383D01*
X026100Y013387D01*
X026124Y013387D01*
X026147Y013383D01*
X026169Y013375D01*
X026189Y013364D01*
X026207Y013350D01*
X026223Y013333D01*
X026236Y013313D01*
X026245Y013292D01*
X026251Y013269D01*
X026253Y013246D01*
X026251Y013223D01*
X026245Y013200D01*
X026236Y013179D01*
X026223Y013159D01*
X026207Y013142D01*
X026189Y013128D01*
X026169Y013117D01*
X026147Y013109D01*
X026124Y013105D01*
X026100Y013105D01*
X026077Y013109D01*
X026055Y013117D01*
X026035Y013128D01*
X026017Y013142D01*
X026001Y013159D01*
X025988Y013179D01*
X025979Y013200D01*
X025973Y013223D01*
X025971Y013246D01*
X028272Y012446D02*
X028272Y011146D01*
X030852Y011146D01*
X030852Y012446D01*
X028272Y012446D01*
X032012Y013501D02*
X032012Y010091D01*
X033552Y010091D01*
X033552Y013501D01*
X032012Y013501D01*
X032191Y013246D02*
X032193Y013269D01*
X032199Y013292D01*
X032208Y013313D01*
X032221Y013333D01*
X032237Y013350D01*
X032255Y013364D01*
X032275Y013375D01*
X032297Y013383D01*
X032320Y013387D01*
X032344Y013387D01*
X032367Y013383D01*
X032389Y013375D01*
X032409Y013364D01*
X032427Y013350D01*
X032443Y013333D01*
X032456Y013313D01*
X032465Y013292D01*
X032471Y013269D01*
X032473Y013246D01*
X032471Y013223D01*
X032465Y013200D01*
X032456Y013179D01*
X032443Y013159D01*
X032427Y013142D01*
X032409Y013128D01*
X032389Y013117D01*
X032367Y013109D01*
X032344Y013105D01*
X032320Y013105D01*
X032297Y013109D01*
X032275Y013117D01*
X032255Y013128D01*
X032237Y013142D01*
X032221Y013159D01*
X032208Y013179D01*
X032199Y013200D01*
X032193Y013223D01*
X032191Y013246D01*
X034492Y012446D02*
X034492Y011146D01*
X037072Y011146D01*
X037072Y012446D01*
X034492Y012446D01*
X034492Y024964D02*
X034492Y026264D01*
X037072Y026264D01*
X037072Y024964D01*
X034492Y024964D01*
D14*
X035582Y028357D02*
X033003Y028357D01*
X033003Y030364D01*
X035582Y030364D01*
X035582Y028357D01*
X035778Y028357D01*
X035778Y030364D01*
X035660Y030364D01*
X035582Y030364D01*
X033003Y030364D02*
X032904Y030364D01*
X032786Y030364D01*
X032786Y028357D01*
X033003Y028357D01*
X029558Y028357D02*
X029361Y028357D01*
X029361Y030364D01*
X029440Y030364D01*
X029558Y030364D01*
X029558Y028357D01*
X029361Y028357D02*
X026782Y028357D01*
X026782Y030364D01*
X029361Y030364D01*
X026782Y030364D02*
X026684Y030364D01*
X026566Y030364D01*
X026566Y028357D01*
X026782Y028357D01*
X023337Y028357D02*
X023141Y028357D01*
X023141Y030364D01*
X023219Y030364D01*
X023337Y030364D01*
X023337Y028357D01*
X023141Y028357D02*
X020562Y028357D01*
X020562Y030364D01*
X023141Y030364D01*
X020562Y030364D02*
X020463Y030364D01*
X020345Y030364D01*
X020345Y028357D01*
X020562Y028357D01*
X017117Y028357D02*
X016920Y028357D01*
X016920Y030364D01*
X016999Y030364D01*
X017117Y030364D01*
X017117Y028357D01*
X016920Y028357D02*
X014341Y028357D01*
X014341Y030364D01*
X016920Y030364D01*
X014341Y030364D02*
X014243Y030364D01*
X014125Y030364D01*
X014125Y028357D01*
X014341Y028357D01*
X010897Y028357D02*
X010700Y028357D01*
X010700Y030364D01*
X010778Y030364D01*
X010897Y030364D01*
X010897Y028357D01*
X010700Y028357D02*
X008121Y028357D01*
X008121Y030364D01*
X010700Y030364D01*
X008121Y030364D02*
X008023Y030364D01*
X007904Y030364D01*
X007904Y028357D01*
X008121Y028357D01*
X004676Y028357D02*
X004479Y028357D01*
X004479Y030364D01*
X004558Y030364D01*
X004676Y030364D01*
X004676Y028357D01*
X004479Y028357D02*
X001900Y028357D01*
X001900Y030364D01*
X004479Y030364D01*
X001900Y030364D02*
X001802Y030364D01*
X001684Y030364D01*
X001684Y028357D01*
X001900Y028357D01*
X002180Y020427D02*
X001180Y020427D01*
X001180Y019427D01*
X002180Y019427D01*
X002180Y020427D01*
X005980Y020427D01*
X006015Y020410D02*
X006015Y018433D01*
X000385Y018433D01*
X000385Y020410D01*
X000380Y020427D02*
X001180Y020427D01*
X002930Y020238D02*
X002950Y020263D01*
X002974Y020287D01*
X002999Y020308D01*
X003027Y020325D01*
X003057Y020340D01*
X003088Y020350D01*
X003121Y020358D01*
X003153Y020362D01*
X003187Y020362D01*
X003219Y020358D01*
X003252Y020350D01*
X003283Y020340D01*
X003313Y020325D01*
X003341Y020308D01*
X003366Y020287D01*
X003390Y020263D01*
X003410Y020238D01*
X003330Y020167D02*
X003313Y020188D01*
X003294Y020206D01*
X003272Y020221D01*
X003248Y020234D01*
X003223Y020243D01*
X003197Y020248D01*
X003170Y020250D01*
X003143Y020248D01*
X003117Y020243D01*
X003092Y020234D01*
X003068Y020221D01*
X003046Y020206D01*
X003027Y020188D01*
X003010Y020167D01*
X003090Y020097D02*
X003102Y020111D01*
X003116Y020122D01*
X003131Y020131D01*
X003148Y020137D01*
X003166Y020141D01*
X003184Y020141D01*
X003202Y020137D01*
X003219Y020131D01*
X003234Y020122D01*
X003248Y020111D01*
X003260Y020097D01*
X003158Y019997D02*
X003160Y020006D01*
X003165Y020013D01*
X003173Y020018D01*
X003182Y020019D01*
X003191Y020016D01*
X003198Y020010D01*
X003202Y020002D01*
X003202Y019992D01*
X003198Y019984D01*
X003191Y019978D01*
X003182Y019975D01*
X003173Y019976D01*
X003165Y019981D01*
X003160Y019988D01*
X003158Y019997D01*
X006600Y020427D02*
X007400Y020427D01*
X007400Y019427D01*
X008400Y019427D01*
X008400Y020427D01*
X012200Y020427D01*
X012235Y020410D02*
X012235Y018433D01*
X006605Y018433D01*
X006605Y020410D01*
X007400Y020427D02*
X008400Y020427D01*
X009150Y020238D02*
X009170Y020263D01*
X009194Y020287D01*
X009219Y020308D01*
X009247Y020325D01*
X009277Y020340D01*
X009308Y020350D01*
X009341Y020358D01*
X009373Y020362D01*
X009407Y020362D01*
X009439Y020358D01*
X009472Y020350D01*
X009503Y020340D01*
X009533Y020325D01*
X009561Y020308D01*
X009586Y020287D01*
X009610Y020263D01*
X009630Y020238D01*
X009550Y020167D02*
X009533Y020188D01*
X009514Y020206D01*
X009492Y020221D01*
X009468Y020234D01*
X009443Y020243D01*
X009417Y020248D01*
X009390Y020250D01*
X009363Y020248D01*
X009337Y020243D01*
X009312Y020234D01*
X009288Y020221D01*
X009266Y020206D01*
X009247Y020188D01*
X009230Y020167D01*
X009310Y020097D02*
X009322Y020111D01*
X009336Y020122D01*
X009351Y020131D01*
X009368Y020137D01*
X009386Y020141D01*
X009404Y020141D01*
X009422Y020137D01*
X009439Y020131D01*
X009454Y020122D01*
X009468Y020111D01*
X009480Y020097D01*
X009378Y019997D02*
X009380Y020006D01*
X009385Y020013D01*
X009393Y020018D01*
X009402Y020019D01*
X009411Y020016D01*
X009418Y020010D01*
X009422Y020002D01*
X009422Y019992D01*
X009418Y019984D01*
X009411Y019978D01*
X009402Y019975D01*
X009393Y019976D01*
X009385Y019981D01*
X009380Y019988D01*
X009378Y019997D01*
X012821Y020427D02*
X013621Y020427D01*
X013621Y019427D01*
X014621Y019427D01*
X014621Y020427D01*
X018421Y020427D01*
X018456Y020410D02*
X018456Y018433D01*
X012826Y018433D01*
X012826Y020410D01*
X013621Y020427D02*
X014621Y020427D01*
X015371Y020238D02*
X015391Y020263D01*
X015415Y020287D01*
X015440Y020308D01*
X015468Y020325D01*
X015498Y020340D01*
X015529Y020350D01*
X015562Y020358D01*
X015594Y020362D01*
X015628Y020362D01*
X015660Y020358D01*
X015693Y020350D01*
X015724Y020340D01*
X015754Y020325D01*
X015782Y020308D01*
X015807Y020287D01*
X015831Y020263D01*
X015851Y020238D01*
X015771Y020167D02*
X015754Y020188D01*
X015735Y020206D01*
X015713Y020221D01*
X015689Y020234D01*
X015664Y020243D01*
X015638Y020248D01*
X015611Y020250D01*
X015584Y020248D01*
X015558Y020243D01*
X015533Y020234D01*
X015509Y020221D01*
X015487Y020206D01*
X015468Y020188D01*
X015451Y020167D01*
X015531Y020097D02*
X015543Y020111D01*
X015557Y020122D01*
X015572Y020131D01*
X015589Y020137D01*
X015607Y020141D01*
X015625Y020141D01*
X015643Y020137D01*
X015660Y020131D01*
X015675Y020122D01*
X015689Y020111D01*
X015701Y020097D01*
X015599Y019997D02*
X015601Y020006D01*
X015606Y020013D01*
X015614Y020018D01*
X015623Y020019D01*
X015632Y020016D01*
X015639Y020010D01*
X015643Y020002D01*
X015643Y019992D01*
X015639Y019984D01*
X015632Y019978D01*
X015623Y019975D01*
X015614Y019976D01*
X015606Y019981D01*
X015601Y019988D01*
X015599Y019997D01*
X019041Y020427D02*
X019841Y020427D01*
X019841Y019427D01*
X020841Y019427D01*
X020841Y020427D01*
X024641Y020427D01*
X024676Y020410D02*
X024676Y018433D01*
X019046Y018433D01*
X019046Y020410D01*
X019841Y020427D02*
X020841Y020427D01*
X021591Y020238D02*
X021611Y020263D01*
X021635Y020287D01*
X021660Y020308D01*
X021688Y020325D01*
X021718Y020340D01*
X021749Y020350D01*
X021782Y020358D01*
X021814Y020362D01*
X021848Y020362D01*
X021880Y020358D01*
X021913Y020350D01*
X021944Y020340D01*
X021974Y020325D01*
X022002Y020308D01*
X022027Y020287D01*
X022051Y020263D01*
X022071Y020238D01*
X021991Y020167D02*
X021974Y020188D01*
X021955Y020206D01*
X021933Y020221D01*
X021909Y020234D01*
X021884Y020243D01*
X021858Y020248D01*
X021831Y020250D01*
X021804Y020248D01*
X021778Y020243D01*
X021753Y020234D01*
X021729Y020221D01*
X021707Y020206D01*
X021688Y020188D01*
X021671Y020167D01*
X021751Y020097D02*
X021763Y020111D01*
X021777Y020122D01*
X021792Y020131D01*
X021809Y020137D01*
X021827Y020141D01*
X021845Y020141D01*
X021863Y020137D01*
X021880Y020131D01*
X021895Y020122D01*
X021909Y020111D01*
X021921Y020097D01*
X021819Y019997D02*
X021821Y020006D01*
X021826Y020013D01*
X021834Y020018D01*
X021843Y020019D01*
X021852Y020016D01*
X021859Y020010D01*
X021863Y020002D01*
X021863Y019992D01*
X021859Y019984D01*
X021852Y019978D01*
X021843Y019975D01*
X021834Y019976D01*
X021826Y019981D01*
X021821Y019988D01*
X021819Y019997D01*
X025262Y020427D02*
X026062Y020427D01*
X026062Y019427D01*
X027062Y019427D01*
X027062Y020427D01*
X030862Y020427D01*
X030897Y020410D02*
X030897Y018433D01*
X025267Y018433D01*
X025267Y020410D01*
X026062Y020427D02*
X027062Y020427D01*
X027812Y020238D02*
X027832Y020263D01*
X027856Y020287D01*
X027881Y020308D01*
X027909Y020325D01*
X027939Y020340D01*
X027970Y020350D01*
X028003Y020358D01*
X028035Y020362D01*
X028069Y020362D01*
X028101Y020358D01*
X028134Y020350D01*
X028165Y020340D01*
X028195Y020325D01*
X028223Y020308D01*
X028248Y020287D01*
X028272Y020263D01*
X028292Y020238D01*
X028212Y020167D02*
X028195Y020188D01*
X028176Y020206D01*
X028154Y020221D01*
X028130Y020234D01*
X028105Y020243D01*
X028079Y020248D01*
X028052Y020250D01*
X028025Y020248D01*
X027999Y020243D01*
X027974Y020234D01*
X027950Y020221D01*
X027928Y020206D01*
X027909Y020188D01*
X027892Y020167D01*
X027972Y020097D02*
X027984Y020111D01*
X027998Y020122D01*
X028013Y020131D01*
X028030Y020137D01*
X028048Y020141D01*
X028066Y020141D01*
X028084Y020137D01*
X028101Y020131D01*
X028116Y020122D01*
X028130Y020111D01*
X028142Y020097D01*
X028040Y019997D02*
X028042Y020006D01*
X028047Y020013D01*
X028055Y020018D01*
X028064Y020019D01*
X028073Y020016D01*
X028080Y020010D01*
X028084Y020002D01*
X028084Y019992D01*
X028080Y019984D01*
X028073Y019978D01*
X028064Y019975D01*
X028055Y019976D01*
X028047Y019981D01*
X028042Y019988D01*
X028040Y019997D01*
X031482Y020427D02*
X032282Y020427D01*
X032282Y019427D01*
X033282Y019427D01*
X033282Y020427D01*
X037082Y020427D01*
X037117Y020410D02*
X037117Y018433D01*
X031487Y018433D01*
X031487Y020410D01*
X032282Y020427D02*
X033282Y020427D01*
X034032Y020238D02*
X034052Y020263D01*
X034076Y020287D01*
X034101Y020308D01*
X034129Y020325D01*
X034159Y020340D01*
X034190Y020350D01*
X034223Y020358D01*
X034255Y020362D01*
X034289Y020362D01*
X034321Y020358D01*
X034354Y020350D01*
X034385Y020340D01*
X034415Y020325D01*
X034443Y020308D01*
X034468Y020287D01*
X034492Y020263D01*
X034512Y020238D01*
X034432Y020167D02*
X034415Y020188D01*
X034396Y020206D01*
X034374Y020221D01*
X034350Y020234D01*
X034325Y020243D01*
X034299Y020248D01*
X034272Y020250D01*
X034245Y020248D01*
X034219Y020243D01*
X034194Y020234D01*
X034170Y020221D01*
X034148Y020206D01*
X034129Y020188D01*
X034112Y020167D01*
X034192Y020097D02*
X034204Y020111D01*
X034218Y020122D01*
X034233Y020131D01*
X034250Y020137D01*
X034268Y020141D01*
X034286Y020141D01*
X034304Y020137D01*
X034321Y020131D01*
X034336Y020122D01*
X034350Y020111D01*
X034362Y020097D01*
X034260Y019997D02*
X034262Y020006D01*
X034267Y020013D01*
X034275Y020018D01*
X034284Y020019D01*
X034293Y020016D01*
X034300Y020010D01*
X034304Y020002D01*
X034304Y019992D01*
X034300Y019984D01*
X034293Y019978D01*
X034284Y019975D01*
X034275Y019976D01*
X034267Y019981D01*
X034262Y019988D01*
X034260Y019997D01*
X033003Y016546D02*
X033003Y014538D01*
X032786Y014538D01*
X032786Y016546D01*
X032904Y016546D01*
X033003Y016546D01*
X035582Y016546D01*
X035582Y014538D01*
X033003Y014538D01*
X035582Y014538D02*
X035778Y014538D01*
X035778Y016546D01*
X035660Y016546D01*
X035582Y016546D01*
X029558Y016546D02*
X029558Y014538D01*
X029361Y014538D01*
X029361Y016546D01*
X029440Y016546D01*
X029558Y016546D01*
X029361Y016546D02*
X026782Y016546D01*
X026782Y014538D01*
X026566Y014538D01*
X026566Y016546D01*
X026684Y016546D01*
X026782Y016546D01*
X026782Y014538D02*
X029361Y014538D01*
X023337Y014538D02*
X023141Y014538D01*
X023141Y016546D01*
X023219Y016546D01*
X023337Y016546D01*
X023337Y014538D01*
X023141Y014538D02*
X020562Y014538D01*
X020562Y016546D01*
X023141Y016546D01*
X020562Y016546D02*
X020463Y016546D01*
X020345Y016546D01*
X020345Y014538D01*
X020562Y014538D01*
X017117Y014538D02*
X016920Y014538D01*
X016920Y016546D01*
X016999Y016546D01*
X017117Y016546D01*
X017117Y014538D01*
X016920Y014538D02*
X014341Y014538D01*
X014341Y016546D01*
X016920Y016546D01*
X014341Y016546D02*
X014243Y016546D01*
X014125Y016546D01*
X014125Y014538D01*
X014341Y014538D01*
X010897Y014538D02*
X010700Y014538D01*
X010700Y016546D01*
X010778Y016546D01*
X010897Y016546D01*
X010897Y014538D01*
X010700Y014538D02*
X008121Y014538D01*
X008121Y016546D01*
X010700Y016546D01*
X008121Y016546D02*
X008023Y016546D01*
X007904Y016546D01*
X007904Y014538D01*
X008121Y014538D01*
X004676Y014538D02*
X004479Y014538D01*
X004479Y016546D01*
X004558Y016546D01*
X004676Y016546D01*
X004676Y014538D01*
X004479Y014538D02*
X001900Y014538D01*
X001900Y016546D01*
X004479Y016546D01*
X001900Y016546D02*
X001802Y016546D01*
X001684Y016546D01*
X001684Y014538D01*
X001900Y014538D01*
X002180Y006608D02*
X001180Y006608D01*
X001180Y005608D01*
X002180Y005608D01*
X002180Y006608D01*
X005980Y006608D01*
X006015Y006591D02*
X006015Y004614D01*
X000385Y004614D01*
X000385Y006591D01*
X000380Y006608D02*
X001180Y006608D01*
X002930Y006419D02*
X002950Y006444D01*
X002974Y006468D01*
X002999Y006489D01*
X003027Y006506D01*
X003057Y006521D01*
X003088Y006531D01*
X003121Y006539D01*
X003153Y006543D01*
X003187Y006543D01*
X003219Y006539D01*
X003252Y006531D01*
X003283Y006521D01*
X003313Y006506D01*
X003341Y006489D01*
X003366Y006468D01*
X003390Y006444D01*
X003410Y006419D01*
X003330Y006348D02*
X003313Y006369D01*
X003294Y006387D01*
X003272Y006402D01*
X003248Y006415D01*
X003223Y006424D01*
X003197Y006429D01*
X003170Y006431D01*
X003143Y006429D01*
X003117Y006424D01*
X003092Y006415D01*
X003068Y006402D01*
X003046Y006387D01*
X003027Y006369D01*
X003010Y006348D01*
X003090Y006278D02*
X003102Y006292D01*
X003116Y006303D01*
X003131Y006312D01*
X003148Y006318D01*
X003166Y006322D01*
X003184Y006322D01*
X003202Y006318D01*
X003219Y006312D01*
X003234Y006303D01*
X003248Y006292D01*
X003260Y006278D01*
X003158Y006178D02*
X003160Y006187D01*
X003165Y006194D01*
X003173Y006199D01*
X003182Y006200D01*
X003191Y006197D01*
X003198Y006191D01*
X003202Y006183D01*
X003202Y006173D01*
X003198Y006165D01*
X003191Y006159D01*
X003182Y006156D01*
X003173Y006157D01*
X003165Y006162D01*
X003160Y006169D01*
X003158Y006178D01*
X006600Y006608D02*
X007400Y006608D01*
X007400Y005608D01*
X008400Y005608D01*
X008400Y006608D01*
X012200Y006608D01*
X012235Y006591D02*
X012235Y004614D01*
X006605Y004614D01*
X006605Y006591D01*
X007400Y006608D02*
X008400Y006608D01*
X009150Y006419D02*
X009170Y006444D01*
X009194Y006468D01*
X009219Y006489D01*
X009247Y006506D01*
X009277Y006521D01*
X009308Y006531D01*
X009341Y006539D01*
X009373Y006543D01*
X009407Y006543D01*
X009439Y006539D01*
X009472Y006531D01*
X009503Y006521D01*
X009533Y006506D01*
X009561Y006489D01*
X009586Y006468D01*
X009610Y006444D01*
X009630Y006419D01*
X009550Y006348D02*
X009533Y006369D01*
X009514Y006387D01*
X009492Y006402D01*
X009468Y006415D01*
X009443Y006424D01*
X009417Y006429D01*
X009390Y006431D01*
X009363Y006429D01*
X009337Y006424D01*
X009312Y006415D01*
X009288Y006402D01*
X009266Y006387D01*
X009247Y006369D01*
X009230Y006348D01*
X009310Y006278D02*
X009322Y006292D01*
X009336Y006303D01*
X009351Y006312D01*
X009368Y006318D01*
X009386Y006322D01*
X009404Y006322D01*
X009422Y006318D01*
X009439Y006312D01*
X009454Y006303D01*
X009468Y006292D01*
X009480Y006278D01*
X009378Y006178D02*
X009380Y006187D01*
X009385Y006194D01*
X009393Y006199D01*
X009402Y006200D01*
X009411Y006197D01*
X009418Y006191D01*
X009422Y006183D01*
X009422Y006173D01*
X009418Y006165D01*
X009411Y006159D01*
X009402Y006156D01*
X009393Y006157D01*
X009385Y006162D01*
X009380Y006169D01*
X009378Y006178D01*
X012821Y006608D02*
X013621Y006608D01*
X013621Y005608D01*
X014621Y005608D01*
X014621Y006608D01*
X018421Y006608D01*
X018456Y006591D02*
X018456Y004614D01*
X012826Y004614D01*
X012826Y006591D01*
X013621Y006608D02*
X014621Y006608D01*
X015371Y006419D02*
X015391Y006444D01*
X015415Y006468D01*
X015440Y006489D01*
X015468Y006506D01*
X015498Y006521D01*
X015529Y006531D01*
X015562Y006539D01*
X015594Y006543D01*
X015628Y006543D01*
X015660Y006539D01*
X015693Y006531D01*
X015724Y006521D01*
X015754Y006506D01*
X015782Y006489D01*
X015807Y006468D01*
X015831Y006444D01*
X015851Y006419D01*
X015771Y006348D02*
X015754Y006369D01*
X015735Y006387D01*
X015713Y006402D01*
X015689Y006415D01*
X015664Y006424D01*
X015638Y006429D01*
X015611Y006431D01*
X015584Y006429D01*
X015558Y006424D01*
X015533Y006415D01*
X015509Y006402D01*
X015487Y006387D01*
X015468Y006369D01*
X015451Y006348D01*
X015531Y006278D02*
X015543Y006292D01*
X015557Y006303D01*
X015572Y006312D01*
X015589Y006318D01*
X015607Y006322D01*
X015625Y006322D01*
X015643Y006318D01*
X015660Y006312D01*
X015675Y006303D01*
X015689Y006292D01*
X015701Y006278D01*
X015599Y006178D02*
X015601Y006187D01*
X015606Y006194D01*
X015614Y006199D01*
X015623Y006200D01*
X015632Y006197D01*
X015639Y006191D01*
X015643Y006183D01*
X015643Y006173D01*
X015639Y006165D01*
X015632Y006159D01*
X015623Y006156D01*
X015614Y006157D01*
X015606Y006162D01*
X015601Y006169D01*
X015599Y006178D01*
X019041Y006608D02*
X019841Y006608D01*
X019841Y005608D01*
X020841Y005608D01*
X020841Y006608D01*
X024641Y006608D01*
X024676Y006591D02*
X024676Y004614D01*
X019046Y004614D01*
X019046Y006591D01*
X019841Y006608D02*
X020841Y006608D01*
X021591Y006419D02*
X021611Y006444D01*
X021635Y006468D01*
X021660Y006489D01*
X021688Y006506D01*
X021718Y006521D01*
X021749Y006531D01*
X021782Y006539D01*
X021814Y006543D01*
X021848Y006543D01*
X021880Y006539D01*
X021913Y006531D01*
X021944Y006521D01*
X021974Y006506D01*
X022002Y006489D01*
X022027Y006468D01*
X022051Y006444D01*
X022071Y006419D01*
X021991Y006348D02*
X021974Y006369D01*
X021955Y006387D01*
X021933Y006402D01*
X021909Y006415D01*
X021884Y006424D01*
X021858Y006429D01*
X021831Y006431D01*
X021804Y006429D01*
X021778Y006424D01*
X021753Y006415D01*
X021729Y006402D01*
X021707Y006387D01*
X021688Y006369D01*
X021671Y006348D01*
X021751Y006278D02*
X021763Y006292D01*
X021777Y006303D01*
X021792Y006312D01*
X021809Y006318D01*
X021827Y006322D01*
X021845Y006322D01*
X021863Y006318D01*
X021880Y006312D01*
X021895Y006303D01*
X021909Y006292D01*
X021921Y006278D01*
X021819Y006178D02*
X021821Y006187D01*
X021826Y006194D01*
X021834Y006199D01*
X021843Y006200D01*
X021852Y006197D01*
X021859Y006191D01*
X021863Y006183D01*
X021863Y006173D01*
X021859Y006165D01*
X021852Y006159D01*
X021843Y006156D01*
X021834Y006157D01*
X021826Y006162D01*
X021821Y006169D01*
X021819Y006178D01*
X025262Y006608D02*
X026062Y006608D01*
X026062Y005608D01*
X027062Y005608D01*
X027062Y006608D01*
X030862Y006608D01*
X030897Y006591D02*
X030897Y004614D01*
X025267Y004614D01*
X025267Y006591D01*
X026062Y006608D02*
X027062Y006608D01*
X027812Y006419D02*
X027832Y006444D01*
X027856Y006468D01*
X027881Y006489D01*
X027909Y006506D01*
X027939Y006521D01*
X027970Y006531D01*
X028003Y006539D01*
X028035Y006543D01*
X028069Y006543D01*
X028101Y006539D01*
X028134Y006531D01*
X028165Y006521D01*
X028195Y006506D01*
X028223Y006489D01*
X028248Y006468D01*
X028272Y006444D01*
X028292Y006419D01*
X028212Y006348D02*
X028195Y006369D01*
X028176Y006387D01*
X028154Y006402D01*
X028130Y006415D01*
X028105Y006424D01*
X028079Y006429D01*
X028052Y006431D01*
X028025Y006429D01*
X027999Y006424D01*
X027974Y006415D01*
X027950Y006402D01*
X027928Y006387D01*
X027909Y006369D01*
X027892Y006348D01*
X027972Y006278D02*
X027984Y006292D01*
X027998Y006303D01*
X028013Y006312D01*
X028030Y006318D01*
X028048Y006322D01*
X028066Y006322D01*
X028084Y006318D01*
X028101Y006312D01*
X028116Y006303D01*
X028130Y006292D01*
X028142Y006278D01*
X028040Y006178D02*
X028042Y006187D01*
X028047Y006194D01*
X028055Y006199D01*
X028064Y006200D01*
X028073Y006197D01*
X028080Y006191D01*
X028084Y006183D01*
X028084Y006173D01*
X028080Y006165D01*
X028073Y006159D01*
X028064Y006156D01*
X028055Y006157D01*
X028047Y006162D01*
X028042Y006169D01*
X028040Y006178D01*
X031482Y006608D02*
X032282Y006608D01*
X032282Y005608D01*
X033282Y005608D01*
X033282Y006608D01*
X037082Y006608D01*
X037117Y006591D02*
X037117Y004614D01*
X031487Y004614D01*
X031487Y006591D01*
X032282Y006608D02*
X033282Y006608D01*
X034032Y006419D02*
X034052Y006444D01*
X034076Y006468D01*
X034101Y006489D01*
X034129Y006506D01*
X034159Y006521D01*
X034190Y006531D01*
X034223Y006539D01*
X034255Y006543D01*
X034289Y006543D01*
X034321Y006539D01*
X034354Y006531D01*
X034385Y006521D01*
X034415Y006506D01*
X034443Y006489D01*
X034468Y006468D01*
X034492Y006444D01*
X034512Y006419D01*
X034432Y006348D02*
X034415Y006369D01*
X034396Y006387D01*
X034374Y006402D01*
X034350Y006415D01*
X034325Y006424D01*
X034299Y006429D01*
X034272Y006431D01*
X034245Y006429D01*
X034219Y006424D01*
X034194Y006415D01*
X034170Y006402D01*
X034148Y006387D01*
X034129Y006369D01*
X034112Y006348D01*
X034192Y006278D02*
X034204Y006292D01*
X034218Y006303D01*
X034233Y006312D01*
X034250Y006318D01*
X034268Y006322D01*
X034286Y006322D01*
X034304Y006318D01*
X034321Y006312D01*
X034336Y006303D01*
X034350Y006292D01*
X034362Y006278D01*
X034260Y006178D02*
X034262Y006187D01*
X034267Y006194D01*
X034275Y006199D01*
X034284Y006200D01*
X034293Y006197D01*
X034300Y006191D01*
X034304Y006183D01*
X034304Y006173D01*
X034300Y006165D01*
X034293Y006159D01*
X034284Y006156D01*
X034275Y006157D01*
X034267Y006162D01*
X034262Y006169D01*
X034260Y006178D01*
D15*
X035663Y007539D02*
X035663Y008056D01*
X036080Y008056D01*
X036504Y008056D02*
X036901Y008056D01*
X036901Y007539D01*
X036449Y007536D02*
X036111Y007536D01*
X036532Y004046D02*
X036282Y003796D01*
X036282Y003296D01*
X036532Y003046D01*
X037032Y003046D01*
X037282Y003296D01*
X037282Y003796D01*
X037032Y004046D01*
X036532Y004046D01*
X035282Y003796D02*
X035282Y003296D01*
X035032Y003046D01*
X034532Y003046D01*
X034282Y003296D01*
X034032Y003046D01*
X033532Y003046D01*
X033282Y003296D01*
X033032Y003046D01*
X032532Y003046D01*
X032282Y003296D01*
X032032Y003046D01*
X031532Y003046D01*
X031282Y003296D01*
X031282Y003796D01*
X031532Y004046D01*
X032032Y004046D01*
X032282Y003796D01*
X032532Y004046D01*
X033032Y004046D01*
X033282Y003796D01*
X033282Y003296D01*
X033282Y003796D02*
X033532Y004046D01*
X034032Y004046D01*
X034282Y003796D01*
X034532Y004046D01*
X035032Y004046D01*
X035282Y003796D01*
X034282Y003796D02*
X034282Y003296D01*
X032282Y003296D02*
X032282Y003796D01*
X031062Y003796D02*
X031062Y003296D01*
X030812Y003046D01*
X030312Y003046D01*
X030062Y003296D01*
X030062Y003796D01*
X030312Y004046D01*
X030812Y004046D01*
X031062Y003796D01*
X029062Y003796D02*
X029062Y003296D01*
X028812Y003046D01*
X028312Y003046D01*
X028062Y003296D01*
X027812Y003046D01*
X027312Y003046D01*
X027062Y003296D01*
X026812Y003046D01*
X026312Y003046D01*
X026062Y003296D01*
X025812Y003046D01*
X025312Y003046D01*
X025062Y003296D01*
X025062Y003796D01*
X025312Y004046D01*
X025812Y004046D01*
X026062Y003796D01*
X026312Y004046D01*
X026812Y004046D01*
X027062Y003796D01*
X027062Y003296D01*
X027062Y003796D02*
X027312Y004046D01*
X027812Y004046D01*
X028062Y003796D01*
X028312Y004046D01*
X028812Y004046D01*
X029062Y003796D01*
X028062Y003796D02*
X028062Y003296D01*
X026062Y003296D02*
X026062Y003796D01*
X024841Y003796D02*
X024841Y003296D01*
X024591Y003046D01*
X024091Y003046D01*
X023841Y003296D01*
X023841Y003796D01*
X024091Y004046D01*
X024591Y004046D01*
X024841Y003796D01*
X022841Y003796D02*
X022841Y003296D01*
X022591Y003046D01*
X022091Y003046D01*
X021841Y003296D01*
X021591Y003046D01*
X021091Y003046D01*
X020841Y003296D01*
X020591Y003046D01*
X020091Y003046D01*
X019841Y003296D01*
X019591Y003046D01*
X019091Y003046D01*
X018841Y003296D01*
X018841Y003796D01*
X019091Y004046D01*
X019591Y004046D01*
X019841Y003796D01*
X020091Y004046D01*
X020591Y004046D01*
X020841Y003796D01*
X020841Y003296D01*
X020841Y003796D02*
X021091Y004046D01*
X021591Y004046D01*
X021841Y003796D01*
X022091Y004046D01*
X022591Y004046D01*
X022841Y003796D01*
X021841Y003796D02*
X021841Y003296D01*
X019841Y003296D02*
X019841Y003796D01*
X018621Y003796D02*
X018621Y003296D01*
X018371Y003046D01*
X017871Y003046D01*
X017621Y003296D01*
X017621Y003796D01*
X017871Y004046D01*
X018371Y004046D01*
X018621Y003796D01*
X016621Y003796D02*
X016621Y003296D01*
X016371Y003046D01*
X015871Y003046D01*
X015621Y003296D01*
X015371Y003046D01*
X014871Y003046D01*
X014621Y003296D01*
X014371Y003046D01*
X013871Y003046D01*
X013621Y003296D01*
X013371Y003046D01*
X012871Y003046D01*
X012621Y003296D01*
X012621Y003796D01*
X012871Y004046D01*
X013371Y004046D01*
X013621Y003796D01*
X013871Y004046D01*
X014371Y004046D01*
X014621Y003796D01*
X014621Y003296D01*
X014621Y003796D02*
X014871Y004046D01*
X015371Y004046D01*
X015621Y003796D01*
X015871Y004046D01*
X016371Y004046D01*
X016621Y003796D01*
X015621Y003796D02*
X015621Y003296D01*
X013621Y003296D02*
X013621Y003796D01*
X012400Y003796D02*
X012400Y003296D01*
X012150Y003046D01*
X011650Y003046D01*
X011400Y003296D01*
X011400Y003796D01*
X011650Y004046D01*
X012150Y004046D01*
X012400Y003796D01*
X010400Y003796D02*
X010400Y003296D01*
X010150Y003046D01*
X009650Y003046D01*
X009400Y003296D01*
X009150Y003046D01*
X008650Y003046D01*
X008400Y003296D01*
X008150Y003046D01*
X007650Y003046D01*
X007400Y003296D01*
X007150Y003046D01*
X006650Y003046D01*
X006400Y003296D01*
X006400Y003796D01*
X006650Y004046D01*
X007150Y004046D01*
X007400Y003796D01*
X007650Y004046D01*
X008150Y004046D01*
X008400Y003796D01*
X008400Y003296D01*
X008400Y003796D02*
X008650Y004046D01*
X009150Y004046D01*
X009400Y003796D01*
X009650Y004046D01*
X010150Y004046D01*
X010400Y003796D01*
X009400Y003796D02*
X009400Y003296D01*
X007400Y003296D02*
X007400Y003796D01*
X006180Y003796D02*
X006180Y003296D01*
X005930Y003046D01*
X005430Y003046D01*
X005180Y003296D01*
X005180Y003796D01*
X005430Y004046D01*
X005930Y004046D01*
X006180Y003796D01*
X004180Y003796D02*
X004180Y003296D01*
X003930Y003046D01*
X003430Y003046D01*
X003180Y003296D01*
X002930Y003046D01*
X002430Y003046D01*
X002180Y003296D01*
X001930Y003046D01*
X001430Y003046D01*
X001180Y003296D01*
X000930Y003046D01*
X000430Y003046D01*
X000180Y003296D01*
X000180Y003796D01*
X000430Y004046D01*
X000930Y004046D01*
X001180Y003796D01*
X001430Y004046D01*
X001930Y004046D01*
X002180Y003796D01*
X002180Y003296D01*
X002180Y003796D02*
X002430Y004046D01*
X002930Y004046D01*
X003180Y003796D01*
X003430Y004046D01*
X003930Y004046D01*
X004180Y003796D01*
X003180Y003796D02*
X003180Y003296D01*
X001180Y003296D02*
X001180Y003796D01*
X004561Y007539D02*
X004561Y008056D01*
X004978Y008056D01*
X005402Y008056D02*
X005799Y008056D01*
X005799Y007539D01*
X005346Y007536D02*
X005008Y007536D01*
X010781Y007539D02*
X010781Y008056D01*
X011198Y008056D01*
X011622Y008056D02*
X012020Y008056D01*
X012020Y007539D01*
X011567Y007536D02*
X011229Y007536D01*
X017002Y007539D02*
X017002Y008056D01*
X017419Y008056D01*
X017843Y008056D02*
X018240Y008056D01*
X018240Y007539D01*
X017787Y007536D02*
X017449Y007536D01*
X023222Y007539D02*
X023222Y008056D01*
X023639Y008056D01*
X024063Y008056D02*
X024460Y008056D01*
X024460Y007539D01*
X024008Y007536D02*
X023670Y007536D01*
X029443Y007539D02*
X029443Y008056D01*
X029860Y008056D01*
X030284Y008056D02*
X030681Y008056D01*
X030681Y007539D01*
X030228Y007536D02*
X029890Y007536D01*
X030312Y016864D02*
X030062Y017114D01*
X030062Y017614D01*
X030312Y017864D01*
X030812Y017864D01*
X031062Y017614D01*
X031062Y017114D01*
X030812Y016864D01*
X030312Y016864D01*
X031282Y017114D02*
X031532Y016864D01*
X032032Y016864D01*
X032282Y017114D01*
X032532Y016864D01*
X033032Y016864D01*
X033282Y017114D01*
X033282Y017614D01*
X033032Y017864D01*
X032532Y017864D01*
X032282Y017614D01*
X032282Y017114D01*
X032282Y017614D02*
X032032Y017864D01*
X031532Y017864D01*
X031282Y017614D01*
X031282Y017114D01*
X033282Y017114D02*
X033532Y016864D01*
X034032Y016864D01*
X034282Y017114D01*
X034532Y016864D01*
X035032Y016864D01*
X035282Y017114D01*
X035282Y017614D01*
X035032Y017864D01*
X034532Y017864D01*
X034282Y017614D01*
X034282Y017114D01*
X034282Y017614D02*
X034032Y017864D01*
X033532Y017864D01*
X033282Y017614D01*
X036282Y017614D02*
X036282Y017114D01*
X036532Y016864D01*
X037032Y016864D01*
X037282Y017114D01*
X037282Y017614D01*
X037032Y017864D01*
X036532Y017864D01*
X036282Y017614D01*
X036449Y021354D02*
X036111Y021354D01*
X035663Y021358D02*
X035663Y021874D01*
X036080Y021874D01*
X036504Y021874D02*
X036901Y021874D01*
X036901Y021358D01*
X030681Y021358D02*
X030681Y021874D01*
X030284Y021874D01*
X029860Y021874D02*
X029443Y021874D01*
X029443Y021358D01*
X029890Y021354D02*
X030228Y021354D01*
X028812Y017864D02*
X028312Y017864D01*
X028062Y017614D01*
X028062Y017114D01*
X028312Y016864D01*
X028812Y016864D01*
X029062Y017114D01*
X029062Y017614D01*
X028812Y017864D01*
X028062Y017614D02*
X027812Y017864D01*
X027312Y017864D01*
X027062Y017614D01*
X027062Y017114D01*
X026812Y016864D01*
X026312Y016864D01*
X026062Y017114D01*
X025812Y016864D01*
X025312Y016864D01*
X025062Y017114D01*
X025062Y017614D01*
X025312Y017864D01*
X025812Y017864D01*
X026062Y017614D01*
X026312Y017864D01*
X026812Y017864D01*
X027062Y017614D01*
X027062Y017114D02*
X027312Y016864D01*
X027812Y016864D01*
X028062Y017114D01*
X026062Y017114D02*
X026062Y017614D01*
X024841Y017614D02*
X024841Y017114D01*
X024591Y016864D01*
X024091Y016864D01*
X023841Y017114D01*
X023841Y017614D01*
X024091Y017864D01*
X024591Y017864D01*
X024841Y017614D01*
X022841Y017614D02*
X022841Y017114D01*
X022591Y016864D01*
X022091Y016864D01*
X021841Y017114D01*
X021591Y016864D01*
X021091Y016864D01*
X020841Y017114D01*
X020591Y016864D01*
X020091Y016864D01*
X019841Y017114D01*
X019591Y016864D01*
X019091Y016864D01*
X018841Y017114D01*
X018841Y017614D01*
X019091Y017864D01*
X019591Y017864D01*
X019841Y017614D01*
X020091Y017864D01*
X020591Y017864D01*
X020841Y017614D01*
X020841Y017114D01*
X020841Y017614D02*
X021091Y017864D01*
X021591Y017864D01*
X021841Y017614D01*
X022091Y017864D01*
X022591Y017864D01*
X022841Y017614D01*
X021841Y017614D02*
X021841Y017114D01*
X019841Y017114D02*
X019841Y017614D01*
X018621Y017614D02*
X018621Y017114D01*
X018371Y016864D01*
X017871Y016864D01*
X017621Y017114D01*
X017621Y017614D01*
X017871Y017864D01*
X018371Y017864D01*
X018621Y017614D01*
X016621Y017614D02*
X016621Y017114D01*
X016371Y016864D01*
X015871Y016864D01*
X015621Y017114D01*
X015371Y016864D01*
X014871Y016864D01*
X014621Y017114D01*
X014371Y016864D01*
X013871Y016864D01*
X013621Y017114D01*
X013371Y016864D01*
X012871Y016864D01*
X012621Y017114D01*
X012621Y017614D01*
X012871Y017864D01*
X013371Y017864D01*
X013621Y017614D01*
X013871Y017864D01*
X014371Y017864D01*
X014621Y017614D01*
X014621Y017114D01*
X014621Y017614D02*
X014871Y017864D01*
X015371Y017864D01*
X015621Y017614D01*
X015871Y017864D01*
X016371Y017864D01*
X016621Y017614D01*
X015621Y017614D02*
X015621Y017114D01*
X013621Y017114D02*
X013621Y017614D01*
X012400Y017614D02*
X012400Y017114D01*
X012150Y016864D01*
X011650Y016864D01*
X011400Y017114D01*
X011400Y017614D01*
X011650Y017864D01*
X012150Y017864D01*
X012400Y017614D01*
X010400Y017614D02*
X010400Y017114D01*
X010150Y016864D01*
X009650Y016864D01*
X009400Y017114D01*
X009150Y016864D01*
X008650Y016864D01*
X008400Y017114D01*
X008150Y016864D01*
X007650Y016864D01*
X007400Y017114D01*
X007150Y016864D01*
X006650Y016864D01*
X006400Y017114D01*
X006400Y017614D01*
X006650Y017864D01*
X007150Y017864D01*
X007400Y017614D01*
X007650Y017864D01*
X008150Y017864D01*
X008400Y017614D01*
X008400Y017114D01*
X008400Y017614D02*
X008650Y017864D01*
X009150Y017864D01*
X009400Y017614D01*
X009650Y017864D01*
X010150Y017864D01*
X010400Y017614D01*
X009400Y017614D02*
X009400Y017114D01*
X007400Y017114D02*
X007400Y017614D01*
X006180Y017614D02*
X006180Y017114D01*
X005930Y016864D01*
X005430Y016864D01*
X005180Y017114D01*
X005180Y017614D01*
X005430Y017864D01*
X005930Y017864D01*
X006180Y017614D01*
X004180Y017614D02*
X004180Y017114D01*
X003930Y016864D01*
X003430Y016864D01*
X003180Y017114D01*
X002930Y016864D01*
X002430Y016864D01*
X002180Y017114D01*
X001930Y016864D01*
X001430Y016864D01*
X001180Y017114D01*
X000930Y016864D01*
X000430Y016864D01*
X000180Y017114D01*
X000180Y017614D01*
X000430Y017864D01*
X000930Y017864D01*
X001180Y017614D01*
X001430Y017864D01*
X001930Y017864D01*
X002180Y017614D01*
X002180Y017114D01*
X002180Y017614D02*
X002430Y017864D01*
X002930Y017864D01*
X003180Y017614D01*
X003430Y017864D01*
X003930Y017864D01*
X004180Y017614D01*
X003180Y017614D02*
X003180Y017114D01*
X001180Y017114D02*
X001180Y017614D01*
X004561Y021358D02*
X004561Y021874D01*
X004978Y021874D01*
X005402Y021874D02*
X005799Y021874D01*
X005799Y021358D01*
X005346Y021354D02*
X005008Y021354D01*
X010781Y021358D02*
X010781Y021874D01*
X011198Y021874D01*
X011622Y021874D02*
X012020Y021874D01*
X012020Y021358D01*
X011567Y021354D02*
X011229Y021354D01*
X017002Y021358D02*
X017002Y021874D01*
X017419Y021874D01*
X017449Y021354D02*
X017787Y021354D01*
X017843Y021874D02*
X018240Y021874D01*
X018240Y021358D01*
X023222Y021358D02*
X023222Y021874D01*
X023639Y021874D01*
X024063Y021874D02*
X024460Y021874D01*
X024460Y021358D01*
X024008Y021354D02*
X023670Y021354D01*
M02*
