%
M48
M72
T01C0.0120
T02C0.0197
T03C0.0315
T04C0.0394
T05C0.0400
%
T01
X1305Y29239
X1055Y28927
X2993Y29114
X3680Y29114
X3243Y27802
X2868Y27864
X1868Y26552
X2243Y26239
X1118Y25802
X1118Y26739
X3180Y25302
X3180Y24864
X3180Y24489
X3305Y24114
X4055Y25677
X3993Y26177
X5743Y23677
X5180Y21302
X2368Y21239
X2180Y22427
X7338Y25802
X8088Y26552
X8463Y26239
X7338Y26739
X9088Y27864
X9463Y27802
X9213Y29114
X9900Y29114
X13496Y28927
X13746Y29239
X15433Y29114
X16121Y29114
X15683Y27802
X15308Y27864
X14308Y26552
X14683Y26239
X13558Y25802
X13558Y26739
X15621Y25302
X15621Y24864
X15621Y24489
X15746Y24114
X16496Y25677
X16433Y26177
X18183Y23677
X17621Y21302
X14808Y21239
X14621Y22427
X11963Y23677
X9525Y24114
X9400Y24489
X9400Y24864
X9400Y25302
X10275Y25677
X10213Y26177
X7275Y28927
X7525Y29239
X8400Y22427
X8588Y21239
X11400Y21302
X9900Y15296
X9213Y15296
X7525Y15421
X7275Y15108
X9088Y14046
X9463Y13983
X8088Y12733
X8463Y12421
X7338Y11983
X7338Y12921
X9400Y11483
X9400Y11046
X9400Y10671
X9525Y10296
X10275Y11858
X10213Y12358
X11963Y9858
X13558Y11983
X13558Y12921
X14308Y12733
X14683Y12421
X15621Y11483
X15621Y11046
X15621Y10671
X15746Y10296
X16496Y11858
X16433Y12358
X15683Y13983
X15308Y14046
X15433Y15296
X16121Y15296
X19716Y15108
X19966Y15421
X21654Y15296
X22341Y15296
X21904Y13983
X21529Y14046
X20529Y12733
X20904Y12421
X19779Y11983
X19779Y12921
X21841Y11483
X21841Y11046
X21841Y10671
X21966Y10296
X22716Y11858
X22654Y12358
X24404Y9858
X25999Y11983
X25999Y12921
X26749Y12733
X27124Y12421
X28062Y11483
X28062Y11046
X28062Y10671
X28187Y10296
X28937Y11858
X28874Y12358
X28124Y13983
X27749Y14046
X27874Y15296
X28562Y15296
X32157Y15108
X32407Y15421
X34095Y15296
X34782Y15296
X34345Y13983
X33970Y14046
X32970Y12733
X33345Y12421
X32220Y11983
X32220Y12921
X34282Y11483
X34282Y11046
X34282Y10671
X34407Y10296
X35157Y11858
X35095Y12358
X36845Y9858
X36282Y7483
X33470Y7421
X33282Y8608
X30624Y9858
X30062Y7483
X27249Y7421
X27062Y8608
X23841Y7483
X21029Y7421
X20841Y8608
X18183Y9858
X17621Y7483
X14808Y7421
X14621Y8608
X11400Y7483
X8588Y7421
X8400Y8608
X5743Y9858
X3305Y10296
X3180Y10671
X3180Y11046
X3180Y11483
X4055Y11858
X3993Y12358
X2243Y12421
X1868Y12733
X1118Y12921
X1118Y11983
X2868Y14046
X3243Y13983
X2993Y15296
X3680Y15296
X1305Y15421
X1055Y15108
X2180Y8608
X2368Y7421
X5180Y7483
X13496Y15108
X13746Y15421
X21029Y21239
X20841Y22427
X21966Y24114
X21841Y24489
X21841Y24864
X21841Y25302
X22716Y25677
X22654Y26177
X20904Y26239
X20529Y26552
X19779Y26739
X19779Y25802
X21529Y27864
X21904Y27802
X21654Y29114
X22341Y29114
X25937Y28927
X26187Y29239
X27874Y29114
X28562Y29114
X28124Y27802
X27749Y27864
X26749Y26552
X27124Y26239
X25999Y25802
X25999Y26739
X28062Y25302
X28062Y24864
X28062Y24489
X28187Y24114
X28937Y25677
X28874Y26177
X30624Y23677
X30062Y21302
X27249Y21239
X27062Y22427
X24404Y23677
X23841Y21302
X26187Y15421
X25937Y15108
X33470Y21239
X33282Y22427
X34407Y24114
X34282Y24489
X34282Y24864
X34282Y25302
X35157Y25677
X35095Y26177
X33345Y26239
X32970Y26552
X32220Y26739
X32220Y25802
X33970Y27864
X34345Y27802
X34095Y29114
X34782Y29114
X32407Y29239
X32157Y28927
X36845Y23677
X36282Y21302
X19966Y29239
X19716Y28927
T02
X1763Y29577
X4597Y29577
X7983Y29577
X10818Y29577
X14204Y29577
X17038Y29577
X20424Y29577
X23259Y29577
X26645Y29577
X29479Y29577
X32865Y29577
X35700Y29577
X35700Y15758
X32865Y15758
X29479Y15758
X26645Y15758
X23259Y15758
X20424Y15758
X17038Y15758
X14204Y15758
X10818Y15758
X7983Y15758
X4597Y15758
X1763Y15758
T03
X2225Y14813
X4135Y14813
X8446Y14813
X10355Y14813
X14666Y14813
X16576Y14813
X20887Y14813
X22796Y14813
X27107Y14813
X29017Y14813
X33328Y14813
X35237Y14813
X35237Y28632
X33328Y28632
X29017Y28632
X27107Y28632
X22796Y28632
X20887Y28632
X16576Y28632
X14666Y28632
X10355Y28632
X8446Y28632
X4135Y28632
X2225Y28632
T04
X35782Y19927
X34782Y19927
X33782Y19927
X32782Y19927
X32782Y18927
X33782Y18927
X34782Y18927
X35782Y18927
X26562Y18927
X27562Y18927
X28562Y18927
X29562Y18927
X29562Y19927
X28562Y19927
X27562Y19927
X26562Y19927
X23341Y19927
X22341Y19927
X21341Y19927
X20341Y19927
X20341Y18927
X21341Y18927
X22341Y18927
X23341Y18927
X7900Y18927
X7900Y19927
X8900Y19927
X8900Y18927
X9900Y18927
X10900Y18927
X10900Y19927
X9900Y19927
X14121Y19927
X15121Y19927
X16121Y19927
X17121Y19927
X17121Y18927
X16121Y18927
X15121Y18927
X14121Y18927
X4680Y18927
X3680Y18927
X3680Y19927
X4680Y19927
X2680Y19927
X1680Y19927
X1680Y18927
X2680Y18927
X4680Y6108
X3680Y6108
X3680Y5108
X4680Y5108
X2680Y5108
X1680Y5108
X1680Y6108
X2680Y6108
X7900Y6108
X7900Y5108
X8900Y5108
X8900Y6108
X9900Y6108
X10900Y6108
X10900Y5108
X9900Y5108
X14121Y5108
X15121Y5108
X16121Y5108
X17121Y5108
X17121Y6108
X16121Y6108
X15121Y6108
X14121Y6108
X20341Y6108
X21341Y6108
X21341Y5108
X20341Y5108
X22341Y5108
X23341Y5108
X23341Y6108
X22341Y6108
X26562Y6108
X27562Y6108
X28562Y6108
X29562Y6108
X29562Y5108
X28562Y5108
X27562Y5108
X26562Y5108
X32782Y5108
X32782Y6108
X33782Y6108
X34782Y6108
X34782Y5108
X33782Y5108
X35782Y5108
X35782Y6108
T05
X680Y3546
X1680Y3546
X2680Y3546
X3680Y3546
X5680Y3546
X6900Y3546
X7900Y3546
X8900Y3546
X9900Y3546
X11900Y3546
X13121Y3546
X14121Y3546
X15121Y3546
X16121Y3546
X18121Y3546
X19341Y3546
X20341Y3546
X21341Y3546
X22341Y3546
X24341Y3546
X25562Y3546
X26562Y3546
X27562Y3546
X28562Y3546
X30562Y3546
X31782Y3546
X32782Y3546
X33782Y3546
X34782Y3546
X36782Y3546
X34782Y17364
X33782Y17364
X32782Y17364
X31782Y17364
X30562Y17364
X28562Y17364
X27562Y17364
X26562Y17364
X25562Y17364
X24341Y17364
X22341Y17364
X21341Y17364
X20341Y17364
X19341Y17364
X18121Y17364
X16121Y17364
X15121Y17364
X14121Y17364
X13121Y17364
X11900Y17364
X9900Y17364
X8900Y17364
X7900Y17364
X6900Y17364
X5680Y17364
X3680Y17364
X2680Y17364
X1680Y17364
X680Y17364
X36782Y17364
M30
