%
M48
M72
T01C0.0120
T02C0.0276
T03C0.0315
T04C0.0354
T05C0.0394
T06C0.0400
T07C0.0689
%
T01
X2458Y4873
X1877Y6061
X2835Y6863
X2835Y8123
X3272Y8516
X3272Y8910
X3270Y9330
X4060Y10189
X4145Y9705
X5040Y7673
X5580Y9113
X4095Y12443
X2928Y11272
X2333Y10267
X1208Y9830
X1208Y10767
X4050Y4433
T02
X4038Y14097
X2621Y14097
T03
X2375Y13743
X4284Y13743
T04
X4747Y14687
X1912Y14687
T05
X1770Y3561
X1770Y2561
X2770Y2561
X2770Y3561
X3770Y3561
X3770Y2561
X4770Y2561
X4770Y3561
T06
X770Y998
X1770Y998
X2770Y998
X3770Y998
X5770Y998
T07
X5625Y13870
X1058Y13870
M30
