%
M48
M72
T01C0.0120
T02C0.0197
T03C0.0315
T04C0.0394
T05C0.0400
%
T01
X2750Y12473
X3000Y12785
X4563Y11410
X4938Y11348
X4688Y12660
X5375Y12660
X5688Y9723
X5750Y9223
X4875Y8848
X4875Y8410
X4875Y8035
X5000Y7660
X3875Y5973
X4063Y4785
X2813Y9348
X2813Y10285
X3563Y10098
X3938Y9785
X6875Y4848
X7438Y7223
T02
X3458Y13123
X6292Y13123
T03
X3920Y12178
X5830Y12178
T04
X6375Y3473
X6375Y2473
X5375Y2473
X5375Y3473
X4375Y3473
X4375Y2473
X3375Y2473
X3375Y3473
T05
X2375Y910
X3375Y910
X4375Y910
X5375Y910
X7375Y910
M30
