G75*
G70*
%OFA0B0*%
%FSLAX25Y25*%
%IPPOS*%
%LPD*%
%AMOC8*
5,1,8,0,0,1.08239X$1,22.5*
%
%ADD44C,0.00000*%
X0010000Y0010000D02*
G75*
%LPD*%
D44*
X0025440Y0153800D02*
X0025440Y0156950D01*
X0025450Y0157120D01*
X0025500Y0157290D01*
X0025570Y0157440D01*
X0025670Y0157580D01*
X0025790Y0157700D01*
X0025930Y0157800D01*
X0026080Y0157870D01*
X0026250Y0157920D01*
X0026420Y0157930D01*
X0026590Y0157920D01*
X0026760Y0157870D01*
X0026910Y0157800D01*
X0027050Y0157700D01*
X0027170Y0157580D01*
X0027270Y0157440D01*
X0027340Y0157290D01*
X0027390Y0157120D01*
X0027400Y0156950D01*
X0027400Y0153800D01*
X0026420Y0152820D02*
X0026250Y0152830D01*
X0026080Y0152880D01*
X0025930Y0152950D01*
X0025790Y0153050D01*
X0025670Y0153170D01*
X0025570Y0153310D01*
X0025500Y0153460D01*
X0025450Y0153630D01*
X0025440Y0153800D01*
X0026420Y0152820D02*
X0026590Y0152830D01*
X0026760Y0152880D01*
X0026910Y0152950D01*
X0027050Y0153050D01*
X0027170Y0153170D01*
X0027270Y0153310D01*
X0027340Y0153460D01*
X0027390Y0153630D01*
X0027400Y0153800D01*
X0053780Y0153800D02*
X0053780Y0156950D01*
X0053790Y0156950D02*
X0053800Y0157120D01*
X0053850Y0157290D01*
X0053920Y0157440D01*
X0054020Y0157580D01*
X0054140Y0157700D01*
X0054280Y0157800D01*
X0054430Y0157870D01*
X0054600Y0157920D01*
X0054770Y0157930D01*
X0054940Y0157920D01*
X0055110Y0157870D01*
X0055260Y0157800D01*
X0055400Y0157700D01*
X0055520Y0157580D01*
X0055620Y0157440D01*
X0055690Y0157290D01*
X0055740Y0157120D01*
X0055750Y0156950D01*
X0055750Y0153800D01*
X0054770Y0152820D02*
X0054600Y0152830D01*
X0054430Y0152880D01*
X0054280Y0152950D01*
X0054140Y0153050D01*
X0054020Y0153170D01*
X0053920Y0153310D01*
X0053850Y0153460D01*
X0053800Y0153630D01*
X0053790Y0153800D01*
X0054770Y0152820D02*
X0054940Y0152830D01*
X0055110Y0152880D01*
X0055260Y0152950D01*
X0055400Y0153050D01*
X0055520Y0153170D01*
X0055620Y0153310D01*
X0055690Y0153460D01*
X0055740Y0153630D01*
X0055750Y0153800D01*
X0010000Y0166335D02*
G75*
%LPD*%
D44*
X0025440Y0310135D02*
X0025440Y0313285D01*
X0025450Y0313455D01*
X0025500Y0313625D01*
X0025570Y0313775D01*
X0025670Y0313915D01*
X0025790Y0314035D01*
X0025930Y0314135D01*
X0026080Y0314205D01*
X0026250Y0314255D01*
X0026420Y0314265D01*
X0026590Y0314255D01*
X0026760Y0314205D01*
X0026910Y0314135D01*
X0027050Y0314035D01*
X0027170Y0313915D01*
X0027270Y0313775D01*
X0027340Y0313625D01*
X0027390Y0313455D01*
X0027400Y0313285D01*
X0027400Y0310135D01*
X0026420Y0309155D02*
X0026250Y0309165D01*
X0026080Y0309215D01*
X0025930Y0309285D01*
X0025790Y0309385D01*
X0025670Y0309505D01*
X0025570Y0309645D01*
X0025500Y0309795D01*
X0025450Y0309965D01*
X0025440Y0310135D01*
X0026420Y0309155D02*
X0026590Y0309165D01*
X0026760Y0309215D01*
X0026910Y0309285D01*
X0027050Y0309385D01*
X0027170Y0309505D01*
X0027270Y0309645D01*
X0027340Y0309795D01*
X0027390Y0309965D01*
X0027400Y0310135D01*
X0053780Y0310135D02*
X0053780Y0313285D01*
X0053790Y0313285D02*
X0053800Y0313455D01*
X0053850Y0313625D01*
X0053920Y0313775D01*
X0054020Y0313915D01*
X0054140Y0314035D01*
X0054280Y0314135D01*
X0054430Y0314205D01*
X0054600Y0314255D01*
X0054770Y0314265D01*
X0054940Y0314255D01*
X0055110Y0314205D01*
X0055260Y0314135D01*
X0055400Y0314035D01*
X0055520Y0313915D01*
X0055620Y0313775D01*
X0055690Y0313625D01*
X0055740Y0313455D01*
X0055750Y0313285D01*
X0055750Y0310135D01*
X0054770Y0309155D02*
X0054600Y0309165D01*
X0054430Y0309215D01*
X0054280Y0309285D01*
X0054140Y0309385D01*
X0054020Y0309505D01*
X0053920Y0309645D01*
X0053850Y0309795D01*
X0053800Y0309965D01*
X0053790Y0310135D01*
X0054770Y0309155D02*
X0054940Y0309165D01*
X0055110Y0309215D01*
X0055260Y0309285D01*
X0055400Y0309385D01*
X0055520Y0309505D01*
X0055620Y0309645D01*
X0055690Y0309795D01*
X0055740Y0309965D01*
X0055750Y0310135D01*
X0074325Y0010000D02*
G75*
%LPD*%
D44*
X0089765Y0153800D02*
X0089765Y0156950D01*
X0089775Y0157120D01*
X0089825Y0157290D01*
X0089895Y0157440D01*
X0089995Y0157580D01*
X0090115Y0157700D01*
X0090255Y0157800D01*
X0090405Y0157870D01*
X0090575Y0157920D01*
X0090745Y0157930D01*
X0090915Y0157920D01*
X0091085Y0157870D01*
X0091235Y0157800D01*
X0091375Y0157700D01*
X0091495Y0157580D01*
X0091595Y0157440D01*
X0091665Y0157290D01*
X0091715Y0157120D01*
X0091725Y0156950D01*
X0091725Y0153800D01*
X0090745Y0152820D02*
X0090575Y0152830D01*
X0090405Y0152880D01*
X0090255Y0152950D01*
X0090115Y0153050D01*
X0089995Y0153170D01*
X0089895Y0153310D01*
X0089825Y0153460D01*
X0089775Y0153630D01*
X0089765Y0153800D01*
X0090745Y0152820D02*
X0090915Y0152830D01*
X0091085Y0152880D01*
X0091235Y0152950D01*
X0091375Y0153050D01*
X0091495Y0153170D01*
X0091595Y0153310D01*
X0091665Y0153460D01*
X0091715Y0153630D01*
X0091725Y0153800D01*
X0118105Y0153800D02*
X0118105Y0156950D01*
X0118115Y0156950D02*
X0118125Y0157120D01*
X0118175Y0157290D01*
X0118245Y0157440D01*
X0118345Y0157580D01*
X0118465Y0157700D01*
X0118605Y0157800D01*
X0118755Y0157870D01*
X0118925Y0157920D01*
X0119095Y0157930D01*
X0119265Y0157920D01*
X0119435Y0157870D01*
X0119585Y0157800D01*
X0119725Y0157700D01*
X0119845Y0157580D01*
X0119945Y0157440D01*
X0120015Y0157290D01*
X0120065Y0157120D01*
X0120075Y0156950D01*
X0120075Y0153800D01*
X0119095Y0152820D02*
X0118925Y0152830D01*
X0118755Y0152880D01*
X0118605Y0152950D01*
X0118465Y0153050D01*
X0118345Y0153170D01*
X0118245Y0153310D01*
X0118175Y0153460D01*
X0118125Y0153630D01*
X0118115Y0153800D01*
X0119095Y0152820D02*
X0119265Y0152830D01*
X0119435Y0152880D01*
X0119585Y0152950D01*
X0119725Y0153050D01*
X0119845Y0153170D01*
X0119945Y0153310D01*
X0120015Y0153460D01*
X0120065Y0153630D01*
X0120075Y0153800D01*
X0074325Y0166335D02*
G75*
%LPD*%
D44*
X0089765Y0310135D02*
X0089765Y0313285D01*
X0089775Y0313455D01*
X0089825Y0313625D01*
X0089895Y0313775D01*
X0089995Y0313915D01*
X0090115Y0314035D01*
X0090255Y0314135D01*
X0090405Y0314205D01*
X0090575Y0314255D01*
X0090745Y0314265D01*
X0090915Y0314255D01*
X0091085Y0314205D01*
X0091235Y0314135D01*
X0091375Y0314035D01*
X0091495Y0313915D01*
X0091595Y0313775D01*
X0091665Y0313625D01*
X0091715Y0313455D01*
X0091725Y0313285D01*
X0091725Y0310135D01*
X0090745Y0309155D02*
X0090575Y0309165D01*
X0090405Y0309215D01*
X0090255Y0309285D01*
X0090115Y0309385D01*
X0089995Y0309505D01*
X0089895Y0309645D01*
X0089825Y0309795D01*
X0089775Y0309965D01*
X0089765Y0310135D01*
X0090745Y0309155D02*
X0090915Y0309165D01*
X0091085Y0309215D01*
X0091235Y0309285D01*
X0091375Y0309385D01*
X0091495Y0309505D01*
X0091595Y0309645D01*
X0091665Y0309795D01*
X0091715Y0309965D01*
X0091725Y0310135D01*
X0118105Y0310135D02*
X0118105Y0313285D01*
X0118115Y0313285D02*
X0118125Y0313455D01*
X0118175Y0313625D01*
X0118245Y0313775D01*
X0118345Y0313915D01*
X0118465Y0314035D01*
X0118605Y0314135D01*
X0118755Y0314205D01*
X0118925Y0314255D01*
X0119095Y0314265D01*
X0119265Y0314255D01*
X0119435Y0314205D01*
X0119585Y0314135D01*
X0119725Y0314035D01*
X0119845Y0313915D01*
X0119945Y0313775D01*
X0120015Y0313625D01*
X0120065Y0313455D01*
X0120075Y0313285D01*
X0120075Y0310135D01*
X0119095Y0309155D02*
X0118925Y0309165D01*
X0118755Y0309215D01*
X0118605Y0309285D01*
X0118465Y0309385D01*
X0118345Y0309505D01*
X0118245Y0309645D01*
X0118175Y0309795D01*
X0118125Y0309965D01*
X0118115Y0310135D01*
X0119095Y0309155D02*
X0119265Y0309165D01*
X0119435Y0309215D01*
X0119585Y0309285D01*
X0119725Y0309385D01*
X0119845Y0309505D01*
X0119945Y0309645D01*
X0120015Y0309795D01*
X0120065Y0309965D01*
X0120075Y0310135D01*
X0138650Y0010000D02*
G75*
%LPD*%
D44*
X0154090Y0153800D02*
X0154090Y0156950D01*
X0154100Y0157120D01*
X0154150Y0157290D01*
X0154220Y0157440D01*
X0154320Y0157580D01*
X0154440Y0157700D01*
X0154580Y0157800D01*
X0154730Y0157870D01*
X0154900Y0157920D01*
X0155070Y0157930D01*
X0155240Y0157920D01*
X0155410Y0157870D01*
X0155560Y0157800D01*
X0155700Y0157700D01*
X0155820Y0157580D01*
X0155920Y0157440D01*
X0155990Y0157290D01*
X0156040Y0157120D01*
X0156050Y0156950D01*
X0156050Y0153800D01*
X0155070Y0152820D02*
X0154900Y0152830D01*
X0154730Y0152880D01*
X0154580Y0152950D01*
X0154440Y0153050D01*
X0154320Y0153170D01*
X0154220Y0153310D01*
X0154150Y0153460D01*
X0154100Y0153630D01*
X0154090Y0153800D01*
X0155070Y0152820D02*
X0155240Y0152830D01*
X0155410Y0152880D01*
X0155560Y0152950D01*
X0155700Y0153050D01*
X0155820Y0153170D01*
X0155920Y0153310D01*
X0155990Y0153460D01*
X0156040Y0153630D01*
X0156050Y0153800D01*
X0182430Y0153800D02*
X0182430Y0156950D01*
X0182440Y0156950D02*
X0182450Y0157120D01*
X0182500Y0157290D01*
X0182570Y0157440D01*
X0182670Y0157580D01*
X0182790Y0157700D01*
X0182930Y0157800D01*
X0183080Y0157870D01*
X0183250Y0157920D01*
X0183420Y0157930D01*
X0183590Y0157920D01*
X0183760Y0157870D01*
X0183910Y0157800D01*
X0184050Y0157700D01*
X0184170Y0157580D01*
X0184270Y0157440D01*
X0184340Y0157290D01*
X0184390Y0157120D01*
X0184400Y0156950D01*
X0184400Y0153800D01*
X0183420Y0152820D02*
X0183250Y0152830D01*
X0183080Y0152880D01*
X0182930Y0152950D01*
X0182790Y0153050D01*
X0182670Y0153170D01*
X0182570Y0153310D01*
X0182500Y0153460D01*
X0182450Y0153630D01*
X0182440Y0153800D01*
X0183420Y0152820D02*
X0183590Y0152830D01*
X0183760Y0152880D01*
X0183910Y0152950D01*
X0184050Y0153050D01*
X0184170Y0153170D01*
X0184270Y0153310D01*
X0184340Y0153460D01*
X0184390Y0153630D01*
X0184400Y0153800D01*
X0138650Y0166335D02*
G75*
%LPD*%
D44*
X0154090Y0310135D02*
X0154090Y0313285D01*
X0154100Y0313455D01*
X0154150Y0313625D01*
X0154220Y0313775D01*
X0154320Y0313915D01*
X0154440Y0314035D01*
X0154580Y0314135D01*
X0154730Y0314205D01*
X0154900Y0314255D01*
X0155070Y0314265D01*
X0155240Y0314255D01*
X0155410Y0314205D01*
X0155560Y0314135D01*
X0155700Y0314035D01*
X0155820Y0313915D01*
X0155920Y0313775D01*
X0155990Y0313625D01*
X0156040Y0313455D01*
X0156050Y0313285D01*
X0156050Y0310135D01*
X0155070Y0309155D02*
X0154900Y0309165D01*
X0154730Y0309215D01*
X0154580Y0309285D01*
X0154440Y0309385D01*
X0154320Y0309505D01*
X0154220Y0309645D01*
X0154150Y0309795D01*
X0154100Y0309965D01*
X0154090Y0310135D01*
X0155070Y0309155D02*
X0155240Y0309165D01*
X0155410Y0309215D01*
X0155560Y0309285D01*
X0155700Y0309385D01*
X0155820Y0309505D01*
X0155920Y0309645D01*
X0155990Y0309795D01*
X0156040Y0309965D01*
X0156050Y0310135D01*
X0182430Y0310135D02*
X0182430Y0313285D01*
X0182440Y0313285D02*
X0182450Y0313455D01*
X0182500Y0313625D01*
X0182570Y0313775D01*
X0182670Y0313915D01*
X0182790Y0314035D01*
X0182930Y0314135D01*
X0183080Y0314205D01*
X0183250Y0314255D01*
X0183420Y0314265D01*
X0183590Y0314255D01*
X0183760Y0314205D01*
X0183910Y0314135D01*
X0184050Y0314035D01*
X0184170Y0313915D01*
X0184270Y0313775D01*
X0184340Y0313625D01*
X0184390Y0313455D01*
X0184400Y0313285D01*
X0184400Y0310135D01*
X0183420Y0309155D02*
X0183250Y0309165D01*
X0183080Y0309215D01*
X0182930Y0309285D01*
X0182790Y0309385D01*
X0182670Y0309505D01*
X0182570Y0309645D01*
X0182500Y0309795D01*
X0182450Y0309965D01*
X0182440Y0310135D01*
X0183420Y0309155D02*
X0183590Y0309165D01*
X0183760Y0309215D01*
X0183910Y0309285D01*
X0184050Y0309385D01*
X0184170Y0309505D01*
X0184270Y0309645D01*
X0184340Y0309795D01*
X0184390Y0309965D01*
X0184400Y0310135D01*
X0202975Y0010000D02*
G75*
%LPD*%
D44*
X0218415Y0153800D02*
X0218415Y0156950D01*
X0218425Y0157120D01*
X0218475Y0157290D01*
X0218545Y0157440D01*
X0218645Y0157580D01*
X0218765Y0157700D01*
X0218905Y0157800D01*
X0219055Y0157870D01*
X0219225Y0157920D01*
X0219395Y0157930D01*
X0219565Y0157920D01*
X0219735Y0157870D01*
X0219885Y0157800D01*
X0220025Y0157700D01*
X0220145Y0157580D01*
X0220245Y0157440D01*
X0220315Y0157290D01*
X0220365Y0157120D01*
X0220375Y0156950D01*
X0220375Y0153800D01*
X0219395Y0152820D02*
X0219225Y0152830D01*
X0219055Y0152880D01*
X0218905Y0152950D01*
X0218765Y0153050D01*
X0218645Y0153170D01*
X0218545Y0153310D01*
X0218475Y0153460D01*
X0218425Y0153630D01*
X0218415Y0153800D01*
X0219395Y0152820D02*
X0219565Y0152830D01*
X0219735Y0152880D01*
X0219885Y0152950D01*
X0220025Y0153050D01*
X0220145Y0153170D01*
X0220245Y0153310D01*
X0220315Y0153460D01*
X0220365Y0153630D01*
X0220375Y0153800D01*
X0246755Y0153800D02*
X0246755Y0156950D01*
X0246765Y0156950D02*
X0246775Y0157120D01*
X0246825Y0157290D01*
X0246895Y0157440D01*
X0246995Y0157580D01*
X0247115Y0157700D01*
X0247255Y0157800D01*
X0247405Y0157870D01*
X0247575Y0157920D01*
X0247745Y0157930D01*
X0247915Y0157920D01*
X0248085Y0157870D01*
X0248235Y0157800D01*
X0248375Y0157700D01*
X0248495Y0157580D01*
X0248595Y0157440D01*
X0248665Y0157290D01*
X0248715Y0157120D01*
X0248725Y0156950D01*
X0248725Y0153800D01*
X0247745Y0152820D02*
X0247575Y0152830D01*
X0247405Y0152880D01*
X0247255Y0152950D01*
X0247115Y0153050D01*
X0246995Y0153170D01*
X0246895Y0153310D01*
X0246825Y0153460D01*
X0246775Y0153630D01*
X0246765Y0153800D01*
X0247745Y0152820D02*
X0247915Y0152830D01*
X0248085Y0152880D01*
X0248235Y0152950D01*
X0248375Y0153050D01*
X0248495Y0153170D01*
X0248595Y0153310D01*
X0248665Y0153460D01*
X0248715Y0153630D01*
X0248725Y0153800D01*
X0202975Y0166335D02*
G75*
%LPD*%
D44*
X0218415Y0310135D02*
X0218415Y0313285D01*
X0218425Y0313455D01*
X0218475Y0313625D01*
X0218545Y0313775D01*
X0218645Y0313915D01*
X0218765Y0314035D01*
X0218905Y0314135D01*
X0219055Y0314205D01*
X0219225Y0314255D01*
X0219395Y0314265D01*
X0219565Y0314255D01*
X0219735Y0314205D01*
X0219885Y0314135D01*
X0220025Y0314035D01*
X0220145Y0313915D01*
X0220245Y0313775D01*
X0220315Y0313625D01*
X0220365Y0313455D01*
X0220375Y0313285D01*
X0220375Y0310135D01*
X0219395Y0309155D02*
X0219225Y0309165D01*
X0219055Y0309215D01*
X0218905Y0309285D01*
X0218765Y0309385D01*
X0218645Y0309505D01*
X0218545Y0309645D01*
X0218475Y0309795D01*
X0218425Y0309965D01*
X0218415Y0310135D01*
X0219395Y0309155D02*
X0219565Y0309165D01*
X0219735Y0309215D01*
X0219885Y0309285D01*
X0220025Y0309385D01*
X0220145Y0309505D01*
X0220245Y0309645D01*
X0220315Y0309795D01*
X0220365Y0309965D01*
X0220375Y0310135D01*
X0246755Y0310135D02*
X0246755Y0313285D01*
X0246765Y0313285D02*
X0246775Y0313455D01*
X0246825Y0313625D01*
X0246895Y0313775D01*
X0246995Y0313915D01*
X0247115Y0314035D01*
X0247255Y0314135D01*
X0247405Y0314205D01*
X0247575Y0314255D01*
X0247745Y0314265D01*
X0247915Y0314255D01*
X0248085Y0314205D01*
X0248235Y0314135D01*
X0248375Y0314035D01*
X0248495Y0313915D01*
X0248595Y0313775D01*
X0248665Y0313625D01*
X0248715Y0313455D01*
X0248725Y0313285D01*
X0248725Y0310135D01*
X0247745Y0309155D02*
X0247575Y0309165D01*
X0247405Y0309215D01*
X0247255Y0309285D01*
X0247115Y0309385D01*
X0246995Y0309505D01*
X0246895Y0309645D01*
X0246825Y0309795D01*
X0246775Y0309965D01*
X0246765Y0310135D01*
X0247745Y0309155D02*
X0247915Y0309165D01*
X0248085Y0309215D01*
X0248235Y0309285D01*
X0248375Y0309385D01*
X0248495Y0309505D01*
X0248595Y0309645D01*
X0248665Y0309795D01*
X0248715Y0309965D01*
X0248725Y0310135D01*
X0267300Y0010000D02*
G75*
%LPD*%
D44*
X0282740Y0153800D02*
X0282740Y0156950D01*
X0282750Y0157120D01*
X0282800Y0157290D01*
X0282870Y0157440D01*
X0282970Y0157580D01*
X0283090Y0157700D01*
X0283230Y0157800D01*
X0283380Y0157870D01*
X0283550Y0157920D01*
X0283720Y0157930D01*
X0283890Y0157920D01*
X0284060Y0157870D01*
X0284210Y0157800D01*
X0284350Y0157700D01*
X0284470Y0157580D01*
X0284570Y0157440D01*
X0284640Y0157290D01*
X0284690Y0157120D01*
X0284700Y0156950D01*
X0284700Y0153800D01*
X0283720Y0152820D02*
X0283550Y0152830D01*
X0283380Y0152880D01*
X0283230Y0152950D01*
X0283090Y0153050D01*
X0282970Y0153170D01*
X0282870Y0153310D01*
X0282800Y0153460D01*
X0282750Y0153630D01*
X0282740Y0153800D01*
X0283720Y0152820D02*
X0283890Y0152830D01*
X0284060Y0152880D01*
X0284210Y0152950D01*
X0284350Y0153050D01*
X0284470Y0153170D01*
X0284570Y0153310D01*
X0284640Y0153460D01*
X0284690Y0153630D01*
X0284700Y0153800D01*
X0311080Y0153800D02*
X0311080Y0156950D01*
X0311090Y0156950D02*
X0311100Y0157120D01*
X0311150Y0157290D01*
X0311220Y0157440D01*
X0311320Y0157580D01*
X0311440Y0157700D01*
X0311580Y0157800D01*
X0311730Y0157870D01*
X0311900Y0157920D01*
X0312070Y0157930D01*
X0312240Y0157920D01*
X0312410Y0157870D01*
X0312560Y0157800D01*
X0312700Y0157700D01*
X0312820Y0157580D01*
X0312920Y0157440D01*
X0312990Y0157290D01*
X0313040Y0157120D01*
X0313050Y0156950D01*
X0313050Y0153800D01*
X0312070Y0152820D02*
X0311900Y0152830D01*
X0311730Y0152880D01*
X0311580Y0152950D01*
X0311440Y0153050D01*
X0311320Y0153170D01*
X0311220Y0153310D01*
X0311150Y0153460D01*
X0311100Y0153630D01*
X0311090Y0153800D01*
X0312070Y0152820D02*
X0312240Y0152830D01*
X0312410Y0152880D01*
X0312560Y0152950D01*
X0312700Y0153050D01*
X0312820Y0153170D01*
X0312920Y0153310D01*
X0312990Y0153460D01*
X0313040Y0153630D01*
X0313050Y0153800D01*
X0267300Y0166335D02*
G75*
%LPD*%
D44*
X0282740Y0310135D02*
X0282740Y0313285D01*
X0282750Y0313455D01*
X0282800Y0313625D01*
X0282870Y0313775D01*
X0282970Y0313915D01*
X0283090Y0314035D01*
X0283230Y0314135D01*
X0283380Y0314205D01*
X0283550Y0314255D01*
X0283720Y0314265D01*
X0283890Y0314255D01*
X0284060Y0314205D01*
X0284210Y0314135D01*
X0284350Y0314035D01*
X0284470Y0313915D01*
X0284570Y0313775D01*
X0284640Y0313625D01*
X0284690Y0313455D01*
X0284700Y0313285D01*
X0284700Y0310135D01*
X0283720Y0309155D02*
X0283550Y0309165D01*
X0283380Y0309215D01*
X0283230Y0309285D01*
X0283090Y0309385D01*
X0282970Y0309505D01*
X0282870Y0309645D01*
X0282800Y0309795D01*
X0282750Y0309965D01*
X0282740Y0310135D01*
X0283720Y0309155D02*
X0283890Y0309165D01*
X0284060Y0309215D01*
X0284210Y0309285D01*
X0284350Y0309385D01*
X0284470Y0309505D01*
X0284570Y0309645D01*
X0284640Y0309795D01*
X0284690Y0309965D01*
X0284700Y0310135D01*
X0311080Y0310135D02*
X0311080Y0313285D01*
X0311090Y0313285D02*
X0311100Y0313455D01*
X0311150Y0313625D01*
X0311220Y0313775D01*
X0311320Y0313915D01*
X0311440Y0314035D01*
X0311580Y0314135D01*
X0311730Y0314205D01*
X0311900Y0314255D01*
X0312070Y0314265D01*
X0312240Y0314255D01*
X0312410Y0314205D01*
X0312560Y0314135D01*
X0312700Y0314035D01*
X0312820Y0313915D01*
X0312920Y0313775D01*
X0312990Y0313625D01*
X0313040Y0313455D01*
X0313050Y0313285D01*
X0313050Y0310135D01*
X0312070Y0309155D02*
X0311900Y0309165D01*
X0311730Y0309215D01*
X0311580Y0309285D01*
X0311440Y0309385D01*
X0311320Y0309505D01*
X0311220Y0309645D01*
X0311150Y0309795D01*
X0311100Y0309965D01*
X0311090Y0310135D01*
X0312070Y0309155D02*
X0312240Y0309165D01*
X0312410Y0309215D01*
X0312560Y0309285D01*
X0312700Y0309385D01*
X0312820Y0309505D01*
X0312920Y0309645D01*
X0312990Y0309795D01*
X0313040Y0309965D01*
X0313050Y0310135D01*
X0331625Y0010000D02*
G75*
%LPD*%
D44*
X0347065Y0153800D02*
X0347065Y0156950D01*
X0347075Y0157120D01*
X0347125Y0157290D01*
X0347195Y0157440D01*
X0347295Y0157580D01*
X0347415Y0157700D01*
X0347555Y0157800D01*
X0347705Y0157870D01*
X0347875Y0157920D01*
X0348045Y0157930D01*
X0348215Y0157920D01*
X0348385Y0157870D01*
X0348535Y0157800D01*
X0348675Y0157700D01*
X0348795Y0157580D01*
X0348895Y0157440D01*
X0348965Y0157290D01*
X0349015Y0157120D01*
X0349025Y0156950D01*
X0349025Y0153800D01*
X0348045Y0152820D02*
X0347875Y0152830D01*
X0347705Y0152880D01*
X0347555Y0152950D01*
X0347415Y0153050D01*
X0347295Y0153170D01*
X0347195Y0153310D01*
X0347125Y0153460D01*
X0347075Y0153630D01*
X0347065Y0153800D01*
X0348045Y0152820D02*
X0348215Y0152830D01*
X0348385Y0152880D01*
X0348535Y0152950D01*
X0348675Y0153050D01*
X0348795Y0153170D01*
X0348895Y0153310D01*
X0348965Y0153460D01*
X0349015Y0153630D01*
X0349025Y0153800D01*
X0375405Y0153800D02*
X0375405Y0156950D01*
X0375415Y0156950D02*
X0375425Y0157120D01*
X0375475Y0157290D01*
X0375545Y0157440D01*
X0375645Y0157580D01*
X0375765Y0157700D01*
X0375905Y0157800D01*
X0376055Y0157870D01*
X0376225Y0157920D01*
X0376395Y0157930D01*
X0376565Y0157920D01*
X0376735Y0157870D01*
X0376885Y0157800D01*
X0377025Y0157700D01*
X0377145Y0157580D01*
X0377245Y0157440D01*
X0377315Y0157290D01*
X0377365Y0157120D01*
X0377375Y0156950D01*
X0377375Y0153800D01*
X0376395Y0152820D02*
X0376225Y0152830D01*
X0376055Y0152880D01*
X0375905Y0152950D01*
X0375765Y0153050D01*
X0375645Y0153170D01*
X0375545Y0153310D01*
X0375475Y0153460D01*
X0375425Y0153630D01*
X0375415Y0153800D01*
X0376395Y0152820D02*
X0376565Y0152830D01*
X0376735Y0152880D01*
X0376885Y0152950D01*
X0377025Y0153050D01*
X0377145Y0153170D01*
X0377245Y0153310D01*
X0377315Y0153460D01*
X0377365Y0153630D01*
X0377375Y0153800D01*
X0331625Y0166335D02*
G75*
%LPD*%
D44*
X0347065Y0310135D02*
X0347065Y0313285D01*
X0347075Y0313455D01*
X0347125Y0313625D01*
X0347195Y0313775D01*
X0347295Y0313915D01*
X0347415Y0314035D01*
X0347555Y0314135D01*
X0347705Y0314205D01*
X0347875Y0314255D01*
X0348045Y0314265D01*
X0348215Y0314255D01*
X0348385Y0314205D01*
X0348535Y0314135D01*
X0348675Y0314035D01*
X0348795Y0313915D01*
X0348895Y0313775D01*
X0348965Y0313625D01*
X0349015Y0313455D01*
X0349025Y0313285D01*
X0349025Y0310135D01*
X0348045Y0309155D02*
X0347875Y0309165D01*
X0347705Y0309215D01*
X0347555Y0309285D01*
X0347415Y0309385D01*
X0347295Y0309505D01*
X0347195Y0309645D01*
X0347125Y0309795D01*
X0347075Y0309965D01*
X0347065Y0310135D01*
X0348045Y0309155D02*
X0348215Y0309165D01*
X0348385Y0309215D01*
X0348535Y0309285D01*
X0348675Y0309385D01*
X0348795Y0309505D01*
X0348895Y0309645D01*
X0348965Y0309795D01*
X0349015Y0309965D01*
X0349025Y0310135D01*
X0375405Y0310135D02*
X0375405Y0313285D01*
X0375415Y0313285D02*
X0375425Y0313455D01*
X0375475Y0313625D01*
X0375545Y0313775D01*
X0375645Y0313915D01*
X0375765Y0314035D01*
X0375905Y0314135D01*
X0376055Y0314205D01*
X0376225Y0314255D01*
X0376395Y0314265D01*
X0376565Y0314255D01*
X0376735Y0314205D01*
X0376885Y0314135D01*
X0377025Y0314035D01*
X0377145Y0313915D01*
X0377245Y0313775D01*
X0377315Y0313625D01*
X0377365Y0313455D01*
X0377375Y0313285D01*
X0377375Y0310135D01*
X0376395Y0309155D02*
X0376225Y0309165D01*
X0376055Y0309215D01*
X0375905Y0309285D01*
X0375765Y0309385D01*
X0375645Y0309505D01*
X0375545Y0309645D01*
X0375475Y0309795D01*
X0375425Y0309965D01*
X0375415Y0310135D01*
X0376395Y0309155D02*
X0376565Y0309165D01*
X0376735Y0309215D01*
X0376885Y0309285D01*
X0377025Y0309385D01*
X0377145Y0309505D01*
X0377245Y0309645D01*
X0377315Y0309795D01*
X0377365Y0309965D01*
X0377375Y0310135D01*
M02*
