G75*
G70*
%OFA0B0*%
%FSLAX25Y25*%
%IPPOS*%
%LPD*%
%AMOC8*
5,1,8,0,0,1.08239X$1,22.5*
%
%ADD10R,0.13600X0.00800*%
%ADD11R,0.00800X0.00800*%
%ADD14R,0.20000X0.00800*%
%ADD17R,0.16000X0.00800*%
%ADD21R,0.10400X0.00800*%
%ADD24R,0.36000X0.00800*%
%ADD25R,0.11200X0.00800*%
%ADD27R,0.06400X0.00800*%
%ADD30R,0.36800X0.00800*%
%ADD34R,0.03200X0.00800*%
%ADD35R,0.04000X0.00800*%
%ADD36R,0.18400X0.00800*%
%ADD37R,0.08000X0.00800*%
%ADD38R,0.20800X0.00800*%
%ADD42R,0.01600X0.00800*%
%ADD43R,0.05600X0.00800*%
%ADD45R,0.28800X0.00800*%
%ADD56R,0.02400X0.00800*%
%ADD58R,0.33600X0.00800*%
%ADD59R,0.42400X0.00800*%
%ADD60R,0.08800X0.00800*%
%ADD62R,0.12000X0.00800*%
%ADD67C,0.00800*%
%ADD68R,0.38400X0.00800*%
%ADD69R,0.07200X0.00800*%
%ADD74R,0.04800X0.00800*%
%ADD75R,0.31200X0.00800*%
X0010000Y0010000D02*
G75*
%LPD*%
D67*
X0033010Y0046130D02*
X0034860Y0047370D01*
X0033010Y0048600D01*
X0034860Y0049840D02*
X0034860Y0046130D01*
X0036080Y0046130D02*
X0036080Y0047990D01*
X0036690Y0048600D01*
X0038550Y0048600D01*
X0038550Y0046130D01*
X0039770Y0046130D02*
X0041000Y0046130D01*
X0040380Y0046130D02*
X0040380Y0048600D01*
X0041000Y0048600D01*
X0042220Y0047990D02*
X0042220Y0046750D01*
X0042830Y0046130D01*
X0044680Y0046130D01*
X0044680Y0044900D02*
X0044680Y0048600D01*
X0042830Y0048600D01*
X0042220Y0047990D01*
X0040380Y0049840D02*
X0040380Y0050450D01*
X0045900Y0048600D02*
X0047750Y0048600D01*
X0048370Y0047990D01*
X0048370Y0046750D01*
X0047750Y0046130D01*
X0045900Y0046130D01*
X0049590Y0046130D02*
X0050820Y0046130D01*
X0050210Y0046130D02*
X0050210Y0048600D01*
X0050820Y0048600D01*
X0050210Y0049840D02*
X0050210Y0050450D01*
X0052040Y0048600D02*
X0052660Y0048600D01*
X0053890Y0047370D01*
X0053890Y0048600D02*
X0053890Y0046130D01*
X0055110Y0046130D02*
X0055730Y0046750D01*
X0055730Y0049220D01*
X0056350Y0048600D02*
X0055110Y0048600D01*
X0057560Y0048600D02*
X0059410Y0048600D01*
X0060030Y0047990D01*
X0060030Y0046750D01*
X0059410Y0046130D01*
X0057560Y0046130D01*
X0061250Y0047370D02*
X0063710Y0047370D01*
X0063710Y0047990D02*
X0063100Y0048600D01*
X0061860Y0048600D01*
X0061250Y0047990D01*
X0061250Y0047370D01*
X0061860Y0046130D02*
X0063100Y0046130D01*
X0063710Y0046750D01*
X0063710Y0047990D01*
X0064940Y0046130D02*
X0066170Y0046130D01*
X0065550Y0046130D02*
X0065550Y0049840D01*
X0066170Y0049840D01*
X0068000Y0048600D02*
X0067380Y0047990D01*
X0067380Y0047370D01*
X0069850Y0047370D01*
X0069850Y0047990D02*
X0069240Y0048600D01*
X0068000Y0048600D01*
X0068000Y0046130D02*
X0069240Y0046130D01*
X0069850Y0046750D01*
X0069850Y0047990D01*
D67*
X0068020Y0130130D02*
X0064410Y0130130D01*
X0062580Y0131030D02*
X0061680Y0130130D01*
X0059880Y0130130D01*
X0058980Y0131030D01*
X0058980Y0131940D01*
X0059880Y0132840D01*
X0061680Y0132840D01*
X0062580Y0133740D01*
X0062580Y0134640D01*
X0061680Y0135540D01*
X0059880Y0135540D01*
X0058980Y0134640D01*
X0057150Y0135540D02*
X0057150Y0130130D01*
X0057150Y0131940D02*
X0054440Y0131940D01*
X0053540Y0132840D01*
X0053540Y0134640D01*
X0054440Y0135540D01*
X0057150Y0135540D01*
X0051710Y0132840D02*
X0051710Y0131030D01*
X0050810Y0130130D01*
X0048100Y0130130D01*
X0048100Y0135540D01*
X0048100Y0133740D02*
X0050810Y0133740D01*
X0051710Y0132840D01*
X0046270Y0133740D02*
X0046270Y0131030D01*
X0045370Y0130130D01*
X0042660Y0130130D01*
X0042660Y0133740D01*
X0040830Y0133740D02*
X0039930Y0133740D01*
X0039930Y0130130D01*
X0040830Y0130130D02*
X0039030Y0130130D01*
X0037210Y0130130D02*
X0037210Y0133740D01*
X0034500Y0133740D01*
X0033600Y0132840D01*
X0033600Y0130130D01*
X0031770Y0131030D02*
X0030870Y0130130D01*
X0029060Y0130130D01*
X0028160Y0131030D01*
X0028160Y0132840D01*
X0029060Y0133740D01*
X0030870Y0133740D01*
X0031770Y0132840D01*
X0031770Y0131030D01*
X0026330Y0132840D02*
X0022720Y0132840D01*
X0020890Y0135540D02*
X0019090Y0133740D01*
X0017290Y0135540D01*
X0017290Y0130130D01*
X0015460Y0130130D02*
X0011850Y0130130D01*
X0013650Y0130130D02*
X0013650Y0135540D01*
X0015460Y0133740D01*
X0020890Y0135540D02*
X0020890Y0130130D01*
X0039930Y0135540D02*
X0039930Y0136440D01*
X0064410Y0135540D02*
X0068020Y0135540D01*
X0068020Y0130130D01*
X0068020Y0132840D02*
X0066220Y0132840D01*
D34*
X0048600Y0103440D03*
X0048600Y0102640D03*
X0043000Y0104240D03*
X0043000Y0121840D03*
X0059800Y0076240D03*
X0062200Y0074640D03*
D56*
X0060200Y0075440D03*
X0053000Y0094640D03*
X0053000Y0095440D03*
X0052200Y0098640D03*
X0052200Y0099440D03*
X0052200Y0100240D03*
X0048200Y0104240D03*
X0042600Y0107440D03*
X0035400Y0103440D03*
X0028200Y0111440D03*
X0028200Y0121040D03*
X0021000Y0112240D03*
D43*
X0034600Y0107440D03*
X0034600Y0104240D03*
X0058600Y0084240D03*
X0059400Y0085040D03*
X0061000Y0088240D03*
X0061000Y0089040D03*
X0061000Y0089840D03*
X0061800Y0090640D03*
X0062600Y0093040D03*
X0058600Y0077040D03*
D27*
X0058200Y0077840D03*
X0057400Y0078640D03*
X0058200Y0082640D03*
X0058200Y0083440D03*
X0061400Y0091440D03*
X0062200Y0092240D03*
X0063000Y0093840D03*
X0062200Y0097040D03*
X0062200Y0100240D03*
X0061400Y0101040D03*
X0061400Y0101840D03*
X0035000Y0105040D03*
X0035000Y0105840D03*
X0035000Y0106640D03*
D37*
X0058200Y0079440D03*
X0062200Y0099440D03*
X0059800Y0104240D03*
X0059800Y0105040D03*
X0059800Y0105840D03*
D69*
X0060200Y0103440D03*
X0061000Y0102640D03*
X0062600Y0098640D03*
X0062600Y0097840D03*
X0062600Y0096240D03*
X0062600Y0095440D03*
X0062600Y0094640D03*
X0057800Y0081840D03*
X0057800Y0081040D03*
X0057800Y0080240D03*
D74*
X0059800Y0085840D03*
X0043000Y0105840D03*
X0035000Y0108240D03*
D35*
X0028200Y0112240D03*
X0042600Y0106640D03*
X0043400Y0105040D03*
X0060200Y0087440D03*
X0060200Y0086640D03*
D42*
X0053400Y0096240D03*
X0048600Y0101840D03*
X0038200Y0121840D03*
X0035000Y0109040D03*
X0031800Y0121040D03*
X0020600Y0109040D03*
X0061400Y0114640D03*
D11*
X0063400Y0109840D03*
X0053800Y0107440D03*
X0052200Y0097840D03*
X0032200Y0113040D03*
X0020200Y0111440D03*
X0020200Y0110640D03*
X0020200Y0109840D03*
D60*
X0059400Y0107440D03*
X0059400Y0106640D03*
D21*
X0058600Y0108240D03*
X0057000Y0109840D03*
D25*
X0056600Y0110640D03*
X0058200Y0109040D03*
X0025400Y0113040D03*
D10*
X0054600Y0111440D03*
D17*
X0054200Y0112240D03*
D36*
X0052200Y0113040D03*
D59*
X0041000Y0113840D03*
D68*
X0039000Y0114640D03*
D30*
X0039000Y0115440D03*
D24*
X0039400Y0116240D03*
D58*
X0039800Y0117040D03*
D75*
X0038600Y0117840D03*
D45*
X0038200Y0118640D03*
D38*
X0039000Y0119440D03*
D14*
X0037800Y0120240D03*
D62*
X0040200Y0121040D03*
D67*
X0022760Y0069020D02*
X0020460Y0067480D01*
X0022760Y0069020D02*
X0020460Y0070550D01*
X0022760Y0072090D02*
X0022760Y0067480D01*
X0024290Y0067480D02*
X0024290Y0069790D01*
X0025060Y0070550D01*
X0027360Y0070550D01*
X0027360Y0067480D01*
X0028900Y0067480D02*
X0030430Y0067480D01*
X0029660Y0067480D02*
X0029660Y0070550D01*
X0030430Y0070550D01*
X0029660Y0072090D02*
X0029660Y0072850D01*
X0031970Y0069790D02*
X0031970Y0068250D01*
X0032730Y0067480D01*
X0035040Y0067480D01*
X0035040Y0065950D02*
X0035040Y0070550D01*
X0032730Y0070550D01*
X0031970Y0069790D01*
X0036570Y0070550D02*
X0038870Y0070550D01*
X0039640Y0069790D01*
X0039640Y0068250D01*
X0038870Y0067480D01*
X0036570Y0067480D01*
X0041170Y0067480D02*
X0042710Y0067480D01*
X0041940Y0067480D02*
X0041940Y0070550D01*
X0042710Y0070550D01*
X0041940Y0072090D02*
X0041940Y0072850D01*
X0044240Y0070550D02*
X0045010Y0070550D01*
X0046550Y0069020D01*
X0046550Y0070550D02*
X0046550Y0067480D01*
X0048080Y0067480D02*
X0048850Y0068250D01*
X0048850Y0071320D01*
X0049610Y0070550D02*
X0048080Y0070550D01*
X0051150Y0070550D02*
X0053450Y0070550D01*
X0054220Y0069790D01*
X0054220Y0068250D01*
X0053450Y0067480D01*
X0051150Y0067480D01*
X0055750Y0069020D02*
X0058820Y0069020D01*
X0058820Y0068250D02*
X0058820Y0069790D01*
X0058060Y0070550D01*
X0056520Y0070550D01*
X0055750Y0069790D01*
X0055750Y0069020D01*
X0056520Y0067480D02*
X0058060Y0067480D01*
X0058820Y0068250D01*
X0060360Y0067480D02*
X0061890Y0067480D01*
X0061120Y0067480D02*
X0061120Y0072090D01*
X0061890Y0072090D01*
X0064190Y0070550D02*
X0063430Y0069790D01*
X0063430Y0069020D01*
X0066500Y0069020D01*
X0066500Y0068250D02*
X0066500Y0069790D01*
X0065730Y0070550D01*
X0064190Y0070550D01*
X0064190Y0067480D02*
X0065730Y0067480D01*
X0066500Y0068250D01*
X0010000Y0166335D02*
G75*
%LPD*%
D67*
X0033010Y0202465D02*
X0034860Y0203705D01*
X0033010Y0204935D01*
X0034860Y0206175D02*
X0034860Y0202465D01*
X0036080Y0202465D02*
X0036080Y0204325D01*
X0036690Y0204935D01*
X0038550Y0204935D01*
X0038550Y0202465D01*
X0039770Y0202465D02*
X0041000Y0202465D01*
X0040380Y0202465D02*
X0040380Y0204935D01*
X0041000Y0204935D01*
X0042220Y0204325D02*
X0042220Y0203085D01*
X0042830Y0202465D01*
X0044680Y0202465D01*
X0044680Y0201235D02*
X0044680Y0204935D01*
X0042830Y0204935D01*
X0042220Y0204325D01*
X0040380Y0206175D02*
X0040380Y0206785D01*
X0045900Y0204935D02*
X0047750Y0204935D01*
X0048370Y0204325D01*
X0048370Y0203085D01*
X0047750Y0202465D01*
X0045900Y0202465D01*
X0049590Y0202465D02*
X0050820Y0202465D01*
X0050210Y0202465D02*
X0050210Y0204935D01*
X0050820Y0204935D01*
X0050210Y0206175D02*
X0050210Y0206785D01*
X0052040Y0204935D02*
X0052660Y0204935D01*
X0053890Y0203705D01*
X0053890Y0204935D02*
X0053890Y0202465D01*
X0055110Y0202465D02*
X0055730Y0203085D01*
X0055730Y0205555D01*
X0056350Y0204935D02*
X0055110Y0204935D01*
X0057560Y0204935D02*
X0059410Y0204935D01*
X0060030Y0204325D01*
X0060030Y0203085D01*
X0059410Y0202465D01*
X0057560Y0202465D01*
X0061250Y0203705D02*
X0063710Y0203705D01*
X0063710Y0204325D02*
X0063100Y0204935D01*
X0061860Y0204935D01*
X0061250Y0204325D01*
X0061250Y0203705D01*
X0061860Y0202465D02*
X0063100Y0202465D01*
X0063710Y0203085D01*
X0063710Y0204325D01*
X0064940Y0202465D02*
X0066170Y0202465D01*
X0065550Y0202465D02*
X0065550Y0206175D01*
X0066170Y0206175D01*
X0068000Y0204935D02*
X0067380Y0204325D01*
X0067380Y0203705D01*
X0069850Y0203705D01*
X0069850Y0204325D02*
X0069240Y0204935D01*
X0068000Y0204935D01*
X0068000Y0202465D02*
X0069240Y0202465D01*
X0069850Y0203085D01*
X0069850Y0204325D01*
D67*
X0068020Y0286465D02*
X0064410Y0286465D01*
X0062580Y0287365D02*
X0061680Y0286465D01*
X0059880Y0286465D01*
X0058980Y0287365D01*
X0058980Y0288275D01*
X0059880Y0289175D01*
X0061680Y0289175D01*
X0062580Y0290075D01*
X0062580Y0290975D01*
X0061680Y0291875D01*
X0059880Y0291875D01*
X0058980Y0290975D01*
X0057150Y0291875D02*
X0057150Y0286465D01*
X0057150Y0288275D02*
X0054440Y0288275D01*
X0053540Y0289175D01*
X0053540Y0290975D01*
X0054440Y0291875D01*
X0057150Y0291875D01*
X0051710Y0289175D02*
X0051710Y0287365D01*
X0050810Y0286465D01*
X0048100Y0286465D01*
X0048100Y0291875D01*
X0048100Y0290075D02*
X0050810Y0290075D01*
X0051710Y0289175D01*
X0046270Y0290075D02*
X0046270Y0287365D01*
X0045370Y0286465D01*
X0042660Y0286465D01*
X0042660Y0290075D01*
X0040830Y0290075D02*
X0039930Y0290075D01*
X0039930Y0286465D01*
X0040830Y0286465D02*
X0039030Y0286465D01*
X0037210Y0286465D02*
X0037210Y0290075D01*
X0034500Y0290075D01*
X0033600Y0289175D01*
X0033600Y0286465D01*
X0031770Y0287365D02*
X0030870Y0286465D01*
X0029060Y0286465D01*
X0028160Y0287365D01*
X0028160Y0289175D01*
X0029060Y0290075D01*
X0030870Y0290075D01*
X0031770Y0289175D01*
X0031770Y0287365D01*
X0026330Y0289175D02*
X0022720Y0289175D01*
X0020890Y0291875D02*
X0019090Y0290075D01*
X0017290Y0291875D01*
X0017290Y0286465D01*
X0015460Y0286465D02*
X0011850Y0286465D01*
X0013650Y0286465D02*
X0013650Y0291875D01*
X0015460Y0290075D01*
X0020890Y0291875D02*
X0020890Y0286465D01*
X0039930Y0291875D02*
X0039930Y0292775D01*
X0064410Y0291875D02*
X0068020Y0291875D01*
X0068020Y0286465D01*
X0068020Y0289175D02*
X0066220Y0289175D01*
D34*
X0048600Y0259775D03*
X0048600Y0258975D03*
X0043000Y0260575D03*
X0043000Y0278175D03*
X0059800Y0232575D03*
X0062200Y0230975D03*
D56*
X0060200Y0231775D03*
X0053000Y0250975D03*
X0053000Y0251775D03*
X0052200Y0254975D03*
X0052200Y0255775D03*
X0052200Y0256575D03*
X0048200Y0260575D03*
X0042600Y0263775D03*
X0035400Y0259775D03*
X0028200Y0267775D03*
X0028200Y0277375D03*
X0021000Y0268575D03*
D43*
X0034600Y0263775D03*
X0034600Y0260575D03*
X0058600Y0240575D03*
X0059400Y0241375D03*
X0061000Y0244575D03*
X0061000Y0245375D03*
X0061000Y0246175D03*
X0061800Y0246975D03*
X0062600Y0249375D03*
X0058600Y0233375D03*
D27*
X0058200Y0234175D03*
X0057400Y0234975D03*
X0058200Y0238975D03*
X0058200Y0239775D03*
X0061400Y0247775D03*
X0062200Y0248575D03*
X0063000Y0250175D03*
X0062200Y0253375D03*
X0062200Y0256575D03*
X0061400Y0257375D03*
X0061400Y0258175D03*
X0035000Y0261375D03*
X0035000Y0262175D03*
X0035000Y0262975D03*
D37*
X0058200Y0235775D03*
X0062200Y0255775D03*
X0059800Y0260575D03*
X0059800Y0261375D03*
X0059800Y0262175D03*
D69*
X0060200Y0259775D03*
X0061000Y0258975D03*
X0062600Y0254975D03*
X0062600Y0254175D03*
X0062600Y0252575D03*
X0062600Y0251775D03*
X0062600Y0250975D03*
X0057800Y0238175D03*
X0057800Y0237375D03*
X0057800Y0236575D03*
D74*
X0059800Y0242175D03*
X0043000Y0262175D03*
X0035000Y0264575D03*
D35*
X0028200Y0268575D03*
X0042600Y0262975D03*
X0043400Y0261375D03*
X0060200Y0243775D03*
X0060200Y0242975D03*
D42*
X0053400Y0252575D03*
X0048600Y0258175D03*
X0038200Y0278175D03*
X0035000Y0265375D03*
X0031800Y0277375D03*
X0020600Y0265375D03*
X0061400Y0270975D03*
D11*
X0063400Y0266175D03*
X0053800Y0263775D03*
X0052200Y0254175D03*
X0032200Y0269375D03*
X0020200Y0267775D03*
X0020200Y0266975D03*
X0020200Y0266175D03*
D60*
X0059400Y0263775D03*
X0059400Y0262975D03*
D21*
X0058600Y0264575D03*
X0057000Y0266175D03*
D25*
X0056600Y0266975D03*
X0058200Y0265375D03*
X0025400Y0269375D03*
D10*
X0054600Y0267775D03*
D17*
X0054200Y0268575D03*
D36*
X0052200Y0269375D03*
D59*
X0041000Y0270175D03*
D68*
X0039000Y0270975D03*
D30*
X0039000Y0271775D03*
D24*
X0039400Y0272575D03*
D58*
X0039800Y0273375D03*
D75*
X0038600Y0274175D03*
D45*
X0038200Y0274975D03*
D38*
X0039000Y0275775D03*
D14*
X0037800Y0276575D03*
D62*
X0040200Y0277375D03*
D67*
X0022760Y0225355D02*
X0020460Y0223815D01*
X0022760Y0225355D02*
X0020460Y0226885D01*
X0022760Y0228425D02*
X0022760Y0223815D01*
X0024290Y0223815D02*
X0024290Y0226125D01*
X0025060Y0226885D01*
X0027360Y0226885D01*
X0027360Y0223815D01*
X0028900Y0223815D02*
X0030430Y0223815D01*
X0029660Y0223815D02*
X0029660Y0226885D01*
X0030430Y0226885D01*
X0029660Y0228425D02*
X0029660Y0229185D01*
X0031970Y0226125D02*
X0031970Y0224585D01*
X0032730Y0223815D01*
X0035040Y0223815D01*
X0035040Y0222285D02*
X0035040Y0226885D01*
X0032730Y0226885D01*
X0031970Y0226125D01*
X0036570Y0226885D02*
X0038870Y0226885D01*
X0039640Y0226125D01*
X0039640Y0224585D01*
X0038870Y0223815D01*
X0036570Y0223815D01*
X0041170Y0223815D02*
X0042710Y0223815D01*
X0041940Y0223815D02*
X0041940Y0226885D01*
X0042710Y0226885D01*
X0041940Y0228425D02*
X0041940Y0229185D01*
X0044240Y0226885D02*
X0045010Y0226885D01*
X0046550Y0225355D01*
X0046550Y0226885D02*
X0046550Y0223815D01*
X0048080Y0223815D02*
X0048850Y0224585D01*
X0048850Y0227655D01*
X0049610Y0226885D02*
X0048080Y0226885D01*
X0051150Y0226885D02*
X0053450Y0226885D01*
X0054220Y0226125D01*
X0054220Y0224585D01*
X0053450Y0223815D01*
X0051150Y0223815D01*
X0055750Y0225355D02*
X0058820Y0225355D01*
X0058820Y0224585D02*
X0058820Y0226125D01*
X0058060Y0226885D01*
X0056520Y0226885D01*
X0055750Y0226125D01*
X0055750Y0225355D01*
X0056520Y0223815D02*
X0058060Y0223815D01*
X0058820Y0224585D01*
X0060360Y0223815D02*
X0061890Y0223815D01*
X0061120Y0223815D02*
X0061120Y0228425D01*
X0061890Y0228425D01*
X0064190Y0226885D02*
X0063430Y0226125D01*
X0063430Y0225355D01*
X0066500Y0225355D01*
X0066500Y0224585D02*
X0066500Y0226125D01*
X0065730Y0226885D01*
X0064190Y0226885D01*
X0064190Y0223815D02*
X0065730Y0223815D01*
X0066500Y0224585D01*
X0074325Y0010000D02*
G75*
%LPD*%
D67*
X0097335Y0046130D02*
X0099185Y0047370D01*
X0097335Y0048600D01*
X0099185Y0049840D02*
X0099185Y0046130D01*
X0100405Y0046130D02*
X0100405Y0047990D01*
X0101015Y0048600D01*
X0102875Y0048600D01*
X0102875Y0046130D01*
X0104095Y0046130D02*
X0105325Y0046130D01*
X0104705Y0046130D02*
X0104705Y0048600D01*
X0105325Y0048600D01*
X0106545Y0047990D02*
X0106545Y0046750D01*
X0107155Y0046130D01*
X0109005Y0046130D01*
X0109005Y0044900D02*
X0109005Y0048600D01*
X0107155Y0048600D01*
X0106545Y0047990D01*
X0104705Y0049840D02*
X0104705Y0050450D01*
X0110225Y0048600D02*
X0112075Y0048600D01*
X0112695Y0047990D01*
X0112695Y0046750D01*
X0112075Y0046130D01*
X0110225Y0046130D01*
X0113915Y0046130D02*
X0115145Y0046130D01*
X0114535Y0046130D02*
X0114535Y0048600D01*
X0115145Y0048600D01*
X0114535Y0049840D02*
X0114535Y0050450D01*
X0116365Y0048600D02*
X0116985Y0048600D01*
X0118215Y0047370D01*
X0118215Y0048600D02*
X0118215Y0046130D01*
X0119435Y0046130D02*
X0120055Y0046750D01*
X0120055Y0049220D01*
X0120675Y0048600D02*
X0119435Y0048600D01*
X0121885Y0048600D02*
X0123735Y0048600D01*
X0124355Y0047990D01*
X0124355Y0046750D01*
X0123735Y0046130D01*
X0121885Y0046130D01*
X0125575Y0047370D02*
X0128035Y0047370D01*
X0128035Y0047990D02*
X0127425Y0048600D01*
X0126185Y0048600D01*
X0125575Y0047990D01*
X0125575Y0047370D01*
X0126185Y0046130D02*
X0127425Y0046130D01*
X0128035Y0046750D01*
X0128035Y0047990D01*
X0129265Y0046130D02*
X0130495Y0046130D01*
X0129875Y0046130D02*
X0129875Y0049840D01*
X0130495Y0049840D01*
X0132325Y0048600D02*
X0131705Y0047990D01*
X0131705Y0047370D01*
X0134175Y0047370D01*
X0134175Y0047990D02*
X0133565Y0048600D01*
X0132325Y0048600D01*
X0132325Y0046130D02*
X0133565Y0046130D01*
X0134175Y0046750D01*
X0134175Y0047990D01*
D67*
X0132345Y0130130D02*
X0128735Y0130130D01*
X0126905Y0131030D02*
X0126005Y0130130D01*
X0124205Y0130130D01*
X0123305Y0131030D01*
X0123305Y0131940D01*
X0124205Y0132840D01*
X0126005Y0132840D01*
X0126905Y0133740D01*
X0126905Y0134640D01*
X0126005Y0135540D01*
X0124205Y0135540D01*
X0123305Y0134640D01*
X0121475Y0135540D02*
X0121475Y0130130D01*
X0121475Y0131940D02*
X0118765Y0131940D01*
X0117865Y0132840D01*
X0117865Y0134640D01*
X0118765Y0135540D01*
X0121475Y0135540D01*
X0116035Y0132840D02*
X0116035Y0131030D01*
X0115135Y0130130D01*
X0112425Y0130130D01*
X0112425Y0135540D01*
X0112425Y0133740D02*
X0115135Y0133740D01*
X0116035Y0132840D01*
X0110595Y0133740D02*
X0110595Y0131030D01*
X0109695Y0130130D01*
X0106985Y0130130D01*
X0106985Y0133740D01*
X0105155Y0133740D02*
X0104255Y0133740D01*
X0104255Y0130130D01*
X0105155Y0130130D02*
X0103355Y0130130D01*
X0101535Y0130130D02*
X0101535Y0133740D01*
X0098825Y0133740D01*
X0097925Y0132840D01*
X0097925Y0130130D01*
X0096095Y0131030D02*
X0095195Y0130130D01*
X0093385Y0130130D01*
X0092485Y0131030D01*
X0092485Y0132840D01*
X0093385Y0133740D01*
X0095195Y0133740D01*
X0096095Y0132840D01*
X0096095Y0131030D01*
X0090655Y0132840D02*
X0087045Y0132840D01*
X0085215Y0135540D02*
X0083415Y0133740D01*
X0081615Y0135540D01*
X0081615Y0130130D01*
X0079785Y0130130D02*
X0076175Y0130130D01*
X0077975Y0130130D02*
X0077975Y0135540D01*
X0079785Y0133740D01*
X0085215Y0135540D02*
X0085215Y0130130D01*
X0104255Y0135540D02*
X0104255Y0136440D01*
X0128735Y0135540D02*
X0132345Y0135540D01*
X0132345Y0130130D01*
X0132345Y0132840D02*
X0130545Y0132840D01*
D34*
X0112925Y0103440D03*
X0112925Y0102640D03*
X0107325Y0104240D03*
X0107325Y0121840D03*
X0124125Y0076240D03*
X0126525Y0074640D03*
D56*
X0124525Y0075440D03*
X0117325Y0094640D03*
X0117325Y0095440D03*
X0116525Y0098640D03*
X0116525Y0099440D03*
X0116525Y0100240D03*
X0112525Y0104240D03*
X0106925Y0107440D03*
X0099725Y0103440D03*
X0092525Y0111440D03*
X0092525Y0121040D03*
X0085325Y0112240D03*
D43*
X0098925Y0107440D03*
X0098925Y0104240D03*
X0122925Y0084240D03*
X0123725Y0085040D03*
X0125325Y0088240D03*
X0125325Y0089040D03*
X0125325Y0089840D03*
X0126125Y0090640D03*
X0126925Y0093040D03*
X0122925Y0077040D03*
D27*
X0122525Y0077840D03*
X0121725Y0078640D03*
X0122525Y0082640D03*
X0122525Y0083440D03*
X0125725Y0091440D03*
X0126525Y0092240D03*
X0127325Y0093840D03*
X0126525Y0097040D03*
X0126525Y0100240D03*
X0125725Y0101040D03*
X0125725Y0101840D03*
X0099325Y0105040D03*
X0099325Y0105840D03*
X0099325Y0106640D03*
D37*
X0122525Y0079440D03*
X0126525Y0099440D03*
X0124125Y0104240D03*
X0124125Y0105040D03*
X0124125Y0105840D03*
D69*
X0124525Y0103440D03*
X0125325Y0102640D03*
X0126925Y0098640D03*
X0126925Y0097840D03*
X0126925Y0096240D03*
X0126925Y0095440D03*
X0126925Y0094640D03*
X0122125Y0081840D03*
X0122125Y0081040D03*
X0122125Y0080240D03*
D74*
X0124125Y0085840D03*
X0107325Y0105840D03*
X0099325Y0108240D03*
D35*
X0092525Y0112240D03*
X0106925Y0106640D03*
X0107725Y0105040D03*
X0124525Y0087440D03*
X0124525Y0086640D03*
D42*
X0117725Y0096240D03*
X0112925Y0101840D03*
X0102525Y0121840D03*
X0099325Y0109040D03*
X0096125Y0121040D03*
X0084925Y0109040D03*
X0125725Y0114640D03*
D11*
X0127725Y0109840D03*
X0118125Y0107440D03*
X0116525Y0097840D03*
X0096525Y0113040D03*
X0084525Y0111440D03*
X0084525Y0110640D03*
X0084525Y0109840D03*
D60*
X0123725Y0107440D03*
X0123725Y0106640D03*
D21*
X0122925Y0108240D03*
X0121325Y0109840D03*
D25*
X0120925Y0110640D03*
X0122525Y0109040D03*
X0089725Y0113040D03*
D10*
X0118925Y0111440D03*
D17*
X0118525Y0112240D03*
D36*
X0116525Y0113040D03*
D59*
X0105325Y0113840D03*
D68*
X0103325Y0114640D03*
D30*
X0103325Y0115440D03*
D24*
X0103725Y0116240D03*
D58*
X0104125Y0117040D03*
D75*
X0102925Y0117840D03*
D45*
X0102525Y0118640D03*
D38*
X0103325Y0119440D03*
D14*
X0102125Y0120240D03*
D62*
X0104525Y0121040D03*
D67*
X0087085Y0069020D02*
X0084785Y0067480D01*
X0087085Y0069020D02*
X0084785Y0070550D01*
X0087085Y0072090D02*
X0087085Y0067480D01*
X0088615Y0067480D02*
X0088615Y0069790D01*
X0089385Y0070550D01*
X0091685Y0070550D01*
X0091685Y0067480D01*
X0093225Y0067480D02*
X0094755Y0067480D01*
X0093985Y0067480D02*
X0093985Y0070550D01*
X0094755Y0070550D01*
X0093985Y0072090D02*
X0093985Y0072850D01*
X0096295Y0069790D02*
X0096295Y0068250D01*
X0097055Y0067480D01*
X0099365Y0067480D01*
X0099365Y0065950D02*
X0099365Y0070550D01*
X0097055Y0070550D01*
X0096295Y0069790D01*
X0100895Y0070550D02*
X0103195Y0070550D01*
X0103965Y0069790D01*
X0103965Y0068250D01*
X0103195Y0067480D01*
X0100895Y0067480D01*
X0105495Y0067480D02*
X0107035Y0067480D01*
X0106265Y0067480D02*
X0106265Y0070550D01*
X0107035Y0070550D01*
X0106265Y0072090D02*
X0106265Y0072850D01*
X0108565Y0070550D02*
X0109335Y0070550D01*
X0110875Y0069020D01*
X0110875Y0070550D02*
X0110875Y0067480D01*
X0112405Y0067480D02*
X0113175Y0068250D01*
X0113175Y0071320D01*
X0113935Y0070550D02*
X0112405Y0070550D01*
X0115475Y0070550D02*
X0117775Y0070550D01*
X0118545Y0069790D01*
X0118545Y0068250D01*
X0117775Y0067480D01*
X0115475Y0067480D01*
X0120075Y0069020D02*
X0123145Y0069020D01*
X0123145Y0068250D02*
X0123145Y0069790D01*
X0122385Y0070550D01*
X0120845Y0070550D01*
X0120075Y0069790D01*
X0120075Y0069020D01*
X0120845Y0067480D02*
X0122385Y0067480D01*
X0123145Y0068250D01*
X0124685Y0067480D02*
X0126215Y0067480D01*
X0125445Y0067480D02*
X0125445Y0072090D01*
X0126215Y0072090D01*
X0128515Y0070550D02*
X0127755Y0069790D01*
X0127755Y0069020D01*
X0130825Y0069020D01*
X0130825Y0068250D02*
X0130825Y0069790D01*
X0130055Y0070550D01*
X0128515Y0070550D01*
X0128515Y0067480D02*
X0130055Y0067480D01*
X0130825Y0068250D01*
X0074325Y0166335D02*
G75*
%LPD*%
D67*
X0097335Y0202465D02*
X0099185Y0203705D01*
X0097335Y0204935D01*
X0099185Y0206175D02*
X0099185Y0202465D01*
X0100405Y0202465D02*
X0100405Y0204325D01*
X0101015Y0204935D01*
X0102875Y0204935D01*
X0102875Y0202465D01*
X0104095Y0202465D02*
X0105325Y0202465D01*
X0104705Y0202465D02*
X0104705Y0204935D01*
X0105325Y0204935D01*
X0106545Y0204325D02*
X0106545Y0203085D01*
X0107155Y0202465D01*
X0109005Y0202465D01*
X0109005Y0201235D02*
X0109005Y0204935D01*
X0107155Y0204935D01*
X0106545Y0204325D01*
X0104705Y0206175D02*
X0104705Y0206785D01*
X0110225Y0204935D02*
X0112075Y0204935D01*
X0112695Y0204325D01*
X0112695Y0203085D01*
X0112075Y0202465D01*
X0110225Y0202465D01*
X0113915Y0202465D02*
X0115145Y0202465D01*
X0114535Y0202465D02*
X0114535Y0204935D01*
X0115145Y0204935D01*
X0114535Y0206175D02*
X0114535Y0206785D01*
X0116365Y0204935D02*
X0116985Y0204935D01*
X0118215Y0203705D01*
X0118215Y0204935D02*
X0118215Y0202465D01*
X0119435Y0202465D02*
X0120055Y0203085D01*
X0120055Y0205555D01*
X0120675Y0204935D02*
X0119435Y0204935D01*
X0121885Y0204935D02*
X0123735Y0204935D01*
X0124355Y0204325D01*
X0124355Y0203085D01*
X0123735Y0202465D01*
X0121885Y0202465D01*
X0125575Y0203705D02*
X0128035Y0203705D01*
X0128035Y0204325D02*
X0127425Y0204935D01*
X0126185Y0204935D01*
X0125575Y0204325D01*
X0125575Y0203705D01*
X0126185Y0202465D02*
X0127425Y0202465D01*
X0128035Y0203085D01*
X0128035Y0204325D01*
X0129265Y0202465D02*
X0130495Y0202465D01*
X0129875Y0202465D02*
X0129875Y0206175D01*
X0130495Y0206175D01*
X0132325Y0204935D02*
X0131705Y0204325D01*
X0131705Y0203705D01*
X0134175Y0203705D01*
X0134175Y0204325D02*
X0133565Y0204935D01*
X0132325Y0204935D01*
X0132325Y0202465D02*
X0133565Y0202465D01*
X0134175Y0203085D01*
X0134175Y0204325D01*
D67*
X0132345Y0286465D02*
X0128735Y0286465D01*
X0126905Y0287365D02*
X0126005Y0286465D01*
X0124205Y0286465D01*
X0123305Y0287365D01*
X0123305Y0288275D01*
X0124205Y0289175D01*
X0126005Y0289175D01*
X0126905Y0290075D01*
X0126905Y0290975D01*
X0126005Y0291875D01*
X0124205Y0291875D01*
X0123305Y0290975D01*
X0121475Y0291875D02*
X0121475Y0286465D01*
X0121475Y0288275D02*
X0118765Y0288275D01*
X0117865Y0289175D01*
X0117865Y0290975D01*
X0118765Y0291875D01*
X0121475Y0291875D01*
X0116035Y0289175D02*
X0116035Y0287365D01*
X0115135Y0286465D01*
X0112425Y0286465D01*
X0112425Y0291875D01*
X0112425Y0290075D02*
X0115135Y0290075D01*
X0116035Y0289175D01*
X0110595Y0290075D02*
X0110595Y0287365D01*
X0109695Y0286465D01*
X0106985Y0286465D01*
X0106985Y0290075D01*
X0105155Y0290075D02*
X0104255Y0290075D01*
X0104255Y0286465D01*
X0105155Y0286465D02*
X0103355Y0286465D01*
X0101535Y0286465D02*
X0101535Y0290075D01*
X0098825Y0290075D01*
X0097925Y0289175D01*
X0097925Y0286465D01*
X0096095Y0287365D02*
X0095195Y0286465D01*
X0093385Y0286465D01*
X0092485Y0287365D01*
X0092485Y0289175D01*
X0093385Y0290075D01*
X0095195Y0290075D01*
X0096095Y0289175D01*
X0096095Y0287365D01*
X0090655Y0289175D02*
X0087045Y0289175D01*
X0085215Y0291875D02*
X0083415Y0290075D01*
X0081615Y0291875D01*
X0081615Y0286465D01*
X0079785Y0286465D02*
X0076175Y0286465D01*
X0077975Y0286465D02*
X0077975Y0291875D01*
X0079785Y0290075D01*
X0085215Y0291875D02*
X0085215Y0286465D01*
X0104255Y0291875D02*
X0104255Y0292775D01*
X0128735Y0291875D02*
X0132345Y0291875D01*
X0132345Y0286465D01*
X0132345Y0289175D02*
X0130545Y0289175D01*
D34*
X0112925Y0259775D03*
X0112925Y0258975D03*
X0107325Y0260575D03*
X0107325Y0278175D03*
X0124125Y0232575D03*
X0126525Y0230975D03*
D56*
X0124525Y0231775D03*
X0117325Y0250975D03*
X0117325Y0251775D03*
X0116525Y0254975D03*
X0116525Y0255775D03*
X0116525Y0256575D03*
X0112525Y0260575D03*
X0106925Y0263775D03*
X0099725Y0259775D03*
X0092525Y0267775D03*
X0092525Y0277375D03*
X0085325Y0268575D03*
D43*
X0098925Y0263775D03*
X0098925Y0260575D03*
X0122925Y0240575D03*
X0123725Y0241375D03*
X0125325Y0244575D03*
X0125325Y0245375D03*
X0125325Y0246175D03*
X0126125Y0246975D03*
X0126925Y0249375D03*
X0122925Y0233375D03*
D27*
X0122525Y0234175D03*
X0121725Y0234975D03*
X0122525Y0238975D03*
X0122525Y0239775D03*
X0125725Y0247775D03*
X0126525Y0248575D03*
X0127325Y0250175D03*
X0126525Y0253375D03*
X0126525Y0256575D03*
X0125725Y0257375D03*
X0125725Y0258175D03*
X0099325Y0261375D03*
X0099325Y0262175D03*
X0099325Y0262975D03*
D37*
X0122525Y0235775D03*
X0126525Y0255775D03*
X0124125Y0260575D03*
X0124125Y0261375D03*
X0124125Y0262175D03*
D69*
X0124525Y0259775D03*
X0125325Y0258975D03*
X0126925Y0254975D03*
X0126925Y0254175D03*
X0126925Y0252575D03*
X0126925Y0251775D03*
X0126925Y0250975D03*
X0122125Y0238175D03*
X0122125Y0237375D03*
X0122125Y0236575D03*
D74*
X0124125Y0242175D03*
X0107325Y0262175D03*
X0099325Y0264575D03*
D35*
X0092525Y0268575D03*
X0106925Y0262975D03*
X0107725Y0261375D03*
X0124525Y0243775D03*
X0124525Y0242975D03*
D42*
X0117725Y0252575D03*
X0112925Y0258175D03*
X0102525Y0278175D03*
X0099325Y0265375D03*
X0096125Y0277375D03*
X0084925Y0265375D03*
X0125725Y0270975D03*
D11*
X0127725Y0266175D03*
X0118125Y0263775D03*
X0116525Y0254175D03*
X0096525Y0269375D03*
X0084525Y0267775D03*
X0084525Y0266975D03*
X0084525Y0266175D03*
D60*
X0123725Y0263775D03*
X0123725Y0262975D03*
D21*
X0122925Y0264575D03*
X0121325Y0266175D03*
D25*
X0120925Y0266975D03*
X0122525Y0265375D03*
X0089725Y0269375D03*
D10*
X0118925Y0267775D03*
D17*
X0118525Y0268575D03*
D36*
X0116525Y0269375D03*
D59*
X0105325Y0270175D03*
D68*
X0103325Y0270975D03*
D30*
X0103325Y0271775D03*
D24*
X0103725Y0272575D03*
D58*
X0104125Y0273375D03*
D75*
X0102925Y0274175D03*
D45*
X0102525Y0274975D03*
D38*
X0103325Y0275775D03*
D14*
X0102125Y0276575D03*
D62*
X0104525Y0277375D03*
D67*
X0087085Y0225355D02*
X0084785Y0223815D01*
X0087085Y0225355D02*
X0084785Y0226885D01*
X0087085Y0228425D02*
X0087085Y0223815D01*
X0088615Y0223815D02*
X0088615Y0226125D01*
X0089385Y0226885D01*
X0091685Y0226885D01*
X0091685Y0223815D01*
X0093225Y0223815D02*
X0094755Y0223815D01*
X0093985Y0223815D02*
X0093985Y0226885D01*
X0094755Y0226885D01*
X0093985Y0228425D02*
X0093985Y0229185D01*
X0096295Y0226125D02*
X0096295Y0224585D01*
X0097055Y0223815D01*
X0099365Y0223815D01*
X0099365Y0222285D02*
X0099365Y0226885D01*
X0097055Y0226885D01*
X0096295Y0226125D01*
X0100895Y0226885D02*
X0103195Y0226885D01*
X0103965Y0226125D01*
X0103965Y0224585D01*
X0103195Y0223815D01*
X0100895Y0223815D01*
X0105495Y0223815D02*
X0107035Y0223815D01*
X0106265Y0223815D02*
X0106265Y0226885D01*
X0107035Y0226885D01*
X0106265Y0228425D02*
X0106265Y0229185D01*
X0108565Y0226885D02*
X0109335Y0226885D01*
X0110875Y0225355D01*
X0110875Y0226885D02*
X0110875Y0223815D01*
X0112405Y0223815D02*
X0113175Y0224585D01*
X0113175Y0227655D01*
X0113935Y0226885D02*
X0112405Y0226885D01*
X0115475Y0226885D02*
X0117775Y0226885D01*
X0118545Y0226125D01*
X0118545Y0224585D01*
X0117775Y0223815D01*
X0115475Y0223815D01*
X0120075Y0225355D02*
X0123145Y0225355D01*
X0123145Y0224585D02*
X0123145Y0226125D01*
X0122385Y0226885D01*
X0120845Y0226885D01*
X0120075Y0226125D01*
X0120075Y0225355D01*
X0120845Y0223815D02*
X0122385Y0223815D01*
X0123145Y0224585D01*
X0124685Y0223815D02*
X0126215Y0223815D01*
X0125445Y0223815D02*
X0125445Y0228425D01*
X0126215Y0228425D01*
X0128515Y0226885D02*
X0127755Y0226125D01*
X0127755Y0225355D01*
X0130825Y0225355D01*
X0130825Y0224585D02*
X0130825Y0226125D01*
X0130055Y0226885D01*
X0128515Y0226885D01*
X0128515Y0223815D02*
X0130055Y0223815D01*
X0130825Y0224585D01*
X0138650Y0010000D02*
G75*
%LPD*%
D67*
X0161660Y0046130D02*
X0163510Y0047370D01*
X0161660Y0048600D01*
X0163510Y0049840D02*
X0163510Y0046130D01*
X0164730Y0046130D02*
X0164730Y0047990D01*
X0165340Y0048600D01*
X0167200Y0048600D01*
X0167200Y0046130D01*
X0168420Y0046130D02*
X0169650Y0046130D01*
X0169030Y0046130D02*
X0169030Y0048600D01*
X0169650Y0048600D01*
X0170870Y0047990D02*
X0170870Y0046750D01*
X0171480Y0046130D01*
X0173330Y0046130D01*
X0173330Y0044900D02*
X0173330Y0048600D01*
X0171480Y0048600D01*
X0170870Y0047990D01*
X0169030Y0049840D02*
X0169030Y0050450D01*
X0174550Y0048600D02*
X0176400Y0048600D01*
X0177020Y0047990D01*
X0177020Y0046750D01*
X0176400Y0046130D01*
X0174550Y0046130D01*
X0178240Y0046130D02*
X0179470Y0046130D01*
X0178860Y0046130D02*
X0178860Y0048600D01*
X0179470Y0048600D01*
X0178860Y0049840D02*
X0178860Y0050450D01*
X0180690Y0048600D02*
X0181310Y0048600D01*
X0182540Y0047370D01*
X0182540Y0048600D02*
X0182540Y0046130D01*
X0183760Y0046130D02*
X0184380Y0046750D01*
X0184380Y0049220D01*
X0185000Y0048600D02*
X0183760Y0048600D01*
X0186210Y0048600D02*
X0188060Y0048600D01*
X0188680Y0047990D01*
X0188680Y0046750D01*
X0188060Y0046130D01*
X0186210Y0046130D01*
X0189900Y0047370D02*
X0192360Y0047370D01*
X0192360Y0047990D02*
X0191750Y0048600D01*
X0190510Y0048600D01*
X0189900Y0047990D01*
X0189900Y0047370D01*
X0190510Y0046130D02*
X0191750Y0046130D01*
X0192360Y0046750D01*
X0192360Y0047990D01*
X0193590Y0046130D02*
X0194820Y0046130D01*
X0194200Y0046130D02*
X0194200Y0049840D01*
X0194820Y0049840D01*
X0196650Y0048600D02*
X0196030Y0047990D01*
X0196030Y0047370D01*
X0198500Y0047370D01*
X0198500Y0047990D02*
X0197890Y0048600D01*
X0196650Y0048600D01*
X0196650Y0046130D02*
X0197890Y0046130D01*
X0198500Y0046750D01*
X0198500Y0047990D01*
D67*
X0196670Y0130130D02*
X0193060Y0130130D01*
X0191230Y0131030D02*
X0190330Y0130130D01*
X0188530Y0130130D01*
X0187630Y0131030D01*
X0187630Y0131940D01*
X0188530Y0132840D01*
X0190330Y0132840D01*
X0191230Y0133740D01*
X0191230Y0134640D01*
X0190330Y0135540D01*
X0188530Y0135540D01*
X0187630Y0134640D01*
X0185800Y0135540D02*
X0185800Y0130130D01*
X0185800Y0131940D02*
X0183090Y0131940D01*
X0182190Y0132840D01*
X0182190Y0134640D01*
X0183090Y0135540D01*
X0185800Y0135540D01*
X0180360Y0132840D02*
X0180360Y0131030D01*
X0179460Y0130130D01*
X0176750Y0130130D01*
X0176750Y0135540D01*
X0176750Y0133740D02*
X0179460Y0133740D01*
X0180360Y0132840D01*
X0174920Y0133740D02*
X0174920Y0131030D01*
X0174020Y0130130D01*
X0171310Y0130130D01*
X0171310Y0133740D01*
X0169480Y0133740D02*
X0168580Y0133740D01*
X0168580Y0130130D01*
X0169480Y0130130D02*
X0167680Y0130130D01*
X0165860Y0130130D02*
X0165860Y0133740D01*
X0163150Y0133740D01*
X0162250Y0132840D01*
X0162250Y0130130D01*
X0160420Y0131030D02*
X0159520Y0130130D01*
X0157710Y0130130D01*
X0156810Y0131030D01*
X0156810Y0132840D01*
X0157710Y0133740D01*
X0159520Y0133740D01*
X0160420Y0132840D01*
X0160420Y0131030D01*
X0154980Y0132840D02*
X0151370Y0132840D01*
X0149540Y0135540D02*
X0147740Y0133740D01*
X0145940Y0135540D01*
X0145940Y0130130D01*
X0144110Y0130130D02*
X0140500Y0130130D01*
X0142300Y0130130D02*
X0142300Y0135540D01*
X0144110Y0133740D01*
X0149540Y0135540D02*
X0149540Y0130130D01*
X0168580Y0135540D02*
X0168580Y0136440D01*
X0193060Y0135540D02*
X0196670Y0135540D01*
X0196670Y0130130D01*
X0196670Y0132840D02*
X0194870Y0132840D01*
D34*
X0177250Y0103440D03*
X0177250Y0102640D03*
X0171650Y0104240D03*
X0171650Y0121840D03*
X0188450Y0076240D03*
X0190850Y0074640D03*
D56*
X0188850Y0075440D03*
X0181650Y0094640D03*
X0181650Y0095440D03*
X0180850Y0098640D03*
X0180850Y0099440D03*
X0180850Y0100240D03*
X0176850Y0104240D03*
X0171250Y0107440D03*
X0164050Y0103440D03*
X0156850Y0111440D03*
X0156850Y0121040D03*
X0149650Y0112240D03*
D43*
X0163250Y0107440D03*
X0163250Y0104240D03*
X0187250Y0084240D03*
X0188050Y0085040D03*
X0189650Y0088240D03*
X0189650Y0089040D03*
X0189650Y0089840D03*
X0190450Y0090640D03*
X0191250Y0093040D03*
X0187250Y0077040D03*
D27*
X0186850Y0077840D03*
X0186050Y0078640D03*
X0186850Y0082640D03*
X0186850Y0083440D03*
X0190050Y0091440D03*
X0190850Y0092240D03*
X0191650Y0093840D03*
X0190850Y0097040D03*
X0190850Y0100240D03*
X0190050Y0101040D03*
X0190050Y0101840D03*
X0163650Y0105040D03*
X0163650Y0105840D03*
X0163650Y0106640D03*
D37*
X0186850Y0079440D03*
X0190850Y0099440D03*
X0188450Y0104240D03*
X0188450Y0105040D03*
X0188450Y0105840D03*
D69*
X0188850Y0103440D03*
X0189650Y0102640D03*
X0191250Y0098640D03*
X0191250Y0097840D03*
X0191250Y0096240D03*
X0191250Y0095440D03*
X0191250Y0094640D03*
X0186450Y0081840D03*
X0186450Y0081040D03*
X0186450Y0080240D03*
D74*
X0188450Y0085840D03*
X0171650Y0105840D03*
X0163650Y0108240D03*
D35*
X0156850Y0112240D03*
X0171250Y0106640D03*
X0172050Y0105040D03*
X0188850Y0087440D03*
X0188850Y0086640D03*
D42*
X0182050Y0096240D03*
X0177250Y0101840D03*
X0166850Y0121840D03*
X0163650Y0109040D03*
X0160450Y0121040D03*
X0149250Y0109040D03*
X0190050Y0114640D03*
D11*
X0192050Y0109840D03*
X0182450Y0107440D03*
X0180850Y0097840D03*
X0160850Y0113040D03*
X0148850Y0111440D03*
X0148850Y0110640D03*
X0148850Y0109840D03*
D60*
X0188050Y0107440D03*
X0188050Y0106640D03*
D21*
X0187250Y0108240D03*
X0185650Y0109840D03*
D25*
X0185250Y0110640D03*
X0186850Y0109040D03*
X0154050Y0113040D03*
D10*
X0183250Y0111440D03*
D17*
X0182850Y0112240D03*
D36*
X0180850Y0113040D03*
D59*
X0169650Y0113840D03*
D68*
X0167650Y0114640D03*
D30*
X0167650Y0115440D03*
D24*
X0168050Y0116240D03*
D58*
X0168450Y0117040D03*
D75*
X0167250Y0117840D03*
D45*
X0166850Y0118640D03*
D38*
X0167650Y0119440D03*
D14*
X0166450Y0120240D03*
D62*
X0168850Y0121040D03*
D67*
X0151410Y0069020D02*
X0149110Y0067480D01*
X0151410Y0069020D02*
X0149110Y0070550D01*
X0151410Y0072090D02*
X0151410Y0067480D01*
X0152940Y0067480D02*
X0152940Y0069790D01*
X0153710Y0070550D01*
X0156010Y0070550D01*
X0156010Y0067480D01*
X0157550Y0067480D02*
X0159080Y0067480D01*
X0158310Y0067480D02*
X0158310Y0070550D01*
X0159080Y0070550D01*
X0158310Y0072090D02*
X0158310Y0072850D01*
X0160620Y0069790D02*
X0160620Y0068250D01*
X0161380Y0067480D01*
X0163690Y0067480D01*
X0163690Y0065950D02*
X0163690Y0070550D01*
X0161380Y0070550D01*
X0160620Y0069790D01*
X0165220Y0070550D02*
X0167520Y0070550D01*
X0168290Y0069790D01*
X0168290Y0068250D01*
X0167520Y0067480D01*
X0165220Y0067480D01*
X0169820Y0067480D02*
X0171360Y0067480D01*
X0170590Y0067480D02*
X0170590Y0070550D01*
X0171360Y0070550D01*
X0170590Y0072090D02*
X0170590Y0072850D01*
X0172890Y0070550D02*
X0173660Y0070550D01*
X0175200Y0069020D01*
X0175200Y0070550D02*
X0175200Y0067480D01*
X0176730Y0067480D02*
X0177500Y0068250D01*
X0177500Y0071320D01*
X0178260Y0070550D02*
X0176730Y0070550D01*
X0179800Y0070550D02*
X0182100Y0070550D01*
X0182870Y0069790D01*
X0182870Y0068250D01*
X0182100Y0067480D01*
X0179800Y0067480D01*
X0184400Y0069020D02*
X0187470Y0069020D01*
X0187470Y0068250D02*
X0187470Y0069790D01*
X0186710Y0070550D01*
X0185170Y0070550D01*
X0184400Y0069790D01*
X0184400Y0069020D01*
X0185170Y0067480D02*
X0186710Y0067480D01*
X0187470Y0068250D01*
X0189010Y0067480D02*
X0190540Y0067480D01*
X0189770Y0067480D02*
X0189770Y0072090D01*
X0190540Y0072090D01*
X0192840Y0070550D02*
X0192080Y0069790D01*
X0192080Y0069020D01*
X0195150Y0069020D01*
X0195150Y0068250D02*
X0195150Y0069790D01*
X0194380Y0070550D01*
X0192840Y0070550D01*
X0192840Y0067480D02*
X0194380Y0067480D01*
X0195150Y0068250D01*
X0138650Y0166335D02*
G75*
%LPD*%
D67*
X0161660Y0202465D02*
X0163510Y0203705D01*
X0161660Y0204935D01*
X0163510Y0206175D02*
X0163510Y0202465D01*
X0164730Y0202465D02*
X0164730Y0204325D01*
X0165340Y0204935D01*
X0167200Y0204935D01*
X0167200Y0202465D01*
X0168420Y0202465D02*
X0169650Y0202465D01*
X0169030Y0202465D02*
X0169030Y0204935D01*
X0169650Y0204935D01*
X0170870Y0204325D02*
X0170870Y0203085D01*
X0171480Y0202465D01*
X0173330Y0202465D01*
X0173330Y0201235D02*
X0173330Y0204935D01*
X0171480Y0204935D01*
X0170870Y0204325D01*
X0169030Y0206175D02*
X0169030Y0206785D01*
X0174550Y0204935D02*
X0176400Y0204935D01*
X0177020Y0204325D01*
X0177020Y0203085D01*
X0176400Y0202465D01*
X0174550Y0202465D01*
X0178240Y0202465D02*
X0179470Y0202465D01*
X0178860Y0202465D02*
X0178860Y0204935D01*
X0179470Y0204935D01*
X0178860Y0206175D02*
X0178860Y0206785D01*
X0180690Y0204935D02*
X0181310Y0204935D01*
X0182540Y0203705D01*
X0182540Y0204935D02*
X0182540Y0202465D01*
X0183760Y0202465D02*
X0184380Y0203085D01*
X0184380Y0205555D01*
X0185000Y0204935D02*
X0183760Y0204935D01*
X0186210Y0204935D02*
X0188060Y0204935D01*
X0188680Y0204325D01*
X0188680Y0203085D01*
X0188060Y0202465D01*
X0186210Y0202465D01*
X0189900Y0203705D02*
X0192360Y0203705D01*
X0192360Y0204325D02*
X0191750Y0204935D01*
X0190510Y0204935D01*
X0189900Y0204325D01*
X0189900Y0203705D01*
X0190510Y0202465D02*
X0191750Y0202465D01*
X0192360Y0203085D01*
X0192360Y0204325D01*
X0193590Y0202465D02*
X0194820Y0202465D01*
X0194200Y0202465D02*
X0194200Y0206175D01*
X0194820Y0206175D01*
X0196650Y0204935D02*
X0196030Y0204325D01*
X0196030Y0203705D01*
X0198500Y0203705D01*
X0198500Y0204325D02*
X0197890Y0204935D01*
X0196650Y0204935D01*
X0196650Y0202465D02*
X0197890Y0202465D01*
X0198500Y0203085D01*
X0198500Y0204325D01*
D67*
X0196670Y0286465D02*
X0193060Y0286465D01*
X0191230Y0287365D02*
X0190330Y0286465D01*
X0188530Y0286465D01*
X0187630Y0287365D01*
X0187630Y0288275D01*
X0188530Y0289175D01*
X0190330Y0289175D01*
X0191230Y0290075D01*
X0191230Y0290975D01*
X0190330Y0291875D01*
X0188530Y0291875D01*
X0187630Y0290975D01*
X0185800Y0291875D02*
X0185800Y0286465D01*
X0185800Y0288275D02*
X0183090Y0288275D01*
X0182190Y0289175D01*
X0182190Y0290975D01*
X0183090Y0291875D01*
X0185800Y0291875D01*
X0180360Y0289175D02*
X0180360Y0287365D01*
X0179460Y0286465D01*
X0176750Y0286465D01*
X0176750Y0291875D01*
X0176750Y0290075D02*
X0179460Y0290075D01*
X0180360Y0289175D01*
X0174920Y0290075D02*
X0174920Y0287365D01*
X0174020Y0286465D01*
X0171310Y0286465D01*
X0171310Y0290075D01*
X0169480Y0290075D02*
X0168580Y0290075D01*
X0168580Y0286465D01*
X0169480Y0286465D02*
X0167680Y0286465D01*
X0165860Y0286465D02*
X0165860Y0290075D01*
X0163150Y0290075D01*
X0162250Y0289175D01*
X0162250Y0286465D01*
X0160420Y0287365D02*
X0159520Y0286465D01*
X0157710Y0286465D01*
X0156810Y0287365D01*
X0156810Y0289175D01*
X0157710Y0290075D01*
X0159520Y0290075D01*
X0160420Y0289175D01*
X0160420Y0287365D01*
X0154980Y0289175D02*
X0151370Y0289175D01*
X0149540Y0291875D02*
X0147740Y0290075D01*
X0145940Y0291875D01*
X0145940Y0286465D01*
X0144110Y0286465D02*
X0140500Y0286465D01*
X0142300Y0286465D02*
X0142300Y0291875D01*
X0144110Y0290075D01*
X0149540Y0291875D02*
X0149540Y0286465D01*
X0168580Y0291875D02*
X0168580Y0292775D01*
X0193060Y0291875D02*
X0196670Y0291875D01*
X0196670Y0286465D01*
X0196670Y0289175D02*
X0194870Y0289175D01*
D34*
X0177250Y0259775D03*
X0177250Y0258975D03*
X0171650Y0260575D03*
X0171650Y0278175D03*
X0188450Y0232575D03*
X0190850Y0230975D03*
D56*
X0188850Y0231775D03*
X0181650Y0250975D03*
X0181650Y0251775D03*
X0180850Y0254975D03*
X0180850Y0255775D03*
X0180850Y0256575D03*
X0176850Y0260575D03*
X0171250Y0263775D03*
X0164050Y0259775D03*
X0156850Y0267775D03*
X0156850Y0277375D03*
X0149650Y0268575D03*
D43*
X0163250Y0263775D03*
X0163250Y0260575D03*
X0187250Y0240575D03*
X0188050Y0241375D03*
X0189650Y0244575D03*
X0189650Y0245375D03*
X0189650Y0246175D03*
X0190450Y0246975D03*
X0191250Y0249375D03*
X0187250Y0233375D03*
D27*
X0186850Y0234175D03*
X0186050Y0234975D03*
X0186850Y0238975D03*
X0186850Y0239775D03*
X0190050Y0247775D03*
X0190850Y0248575D03*
X0191650Y0250175D03*
X0190850Y0253375D03*
X0190850Y0256575D03*
X0190050Y0257375D03*
X0190050Y0258175D03*
X0163650Y0261375D03*
X0163650Y0262175D03*
X0163650Y0262975D03*
D37*
X0186850Y0235775D03*
X0190850Y0255775D03*
X0188450Y0260575D03*
X0188450Y0261375D03*
X0188450Y0262175D03*
D69*
X0188850Y0259775D03*
X0189650Y0258975D03*
X0191250Y0254975D03*
X0191250Y0254175D03*
X0191250Y0252575D03*
X0191250Y0251775D03*
X0191250Y0250975D03*
X0186450Y0238175D03*
X0186450Y0237375D03*
X0186450Y0236575D03*
D74*
X0188450Y0242175D03*
X0171650Y0262175D03*
X0163650Y0264575D03*
D35*
X0156850Y0268575D03*
X0171250Y0262975D03*
X0172050Y0261375D03*
X0188850Y0243775D03*
X0188850Y0242975D03*
D42*
X0182050Y0252575D03*
X0177250Y0258175D03*
X0166850Y0278175D03*
X0163650Y0265375D03*
X0160450Y0277375D03*
X0149250Y0265375D03*
X0190050Y0270975D03*
D11*
X0192050Y0266175D03*
X0182450Y0263775D03*
X0180850Y0254175D03*
X0160850Y0269375D03*
X0148850Y0267775D03*
X0148850Y0266975D03*
X0148850Y0266175D03*
D60*
X0188050Y0263775D03*
X0188050Y0262975D03*
D21*
X0187250Y0264575D03*
X0185650Y0266175D03*
D25*
X0185250Y0266975D03*
X0186850Y0265375D03*
X0154050Y0269375D03*
D10*
X0183250Y0267775D03*
D17*
X0182850Y0268575D03*
D36*
X0180850Y0269375D03*
D59*
X0169650Y0270175D03*
D68*
X0167650Y0270975D03*
D30*
X0167650Y0271775D03*
D24*
X0168050Y0272575D03*
D58*
X0168450Y0273375D03*
D75*
X0167250Y0274175D03*
D45*
X0166850Y0274975D03*
D38*
X0167650Y0275775D03*
D14*
X0166450Y0276575D03*
D62*
X0168850Y0277375D03*
D67*
X0151410Y0225355D02*
X0149110Y0223815D01*
X0151410Y0225355D02*
X0149110Y0226885D01*
X0151410Y0228425D02*
X0151410Y0223815D01*
X0152940Y0223815D02*
X0152940Y0226125D01*
X0153710Y0226885D01*
X0156010Y0226885D01*
X0156010Y0223815D01*
X0157550Y0223815D02*
X0159080Y0223815D01*
X0158310Y0223815D02*
X0158310Y0226885D01*
X0159080Y0226885D01*
X0158310Y0228425D02*
X0158310Y0229185D01*
X0160620Y0226125D02*
X0160620Y0224585D01*
X0161380Y0223815D01*
X0163690Y0223815D01*
X0163690Y0222285D02*
X0163690Y0226885D01*
X0161380Y0226885D01*
X0160620Y0226125D01*
X0165220Y0226885D02*
X0167520Y0226885D01*
X0168290Y0226125D01*
X0168290Y0224585D01*
X0167520Y0223815D01*
X0165220Y0223815D01*
X0169820Y0223815D02*
X0171360Y0223815D01*
X0170590Y0223815D02*
X0170590Y0226885D01*
X0171360Y0226885D01*
X0170590Y0228425D02*
X0170590Y0229185D01*
X0172890Y0226885D02*
X0173660Y0226885D01*
X0175200Y0225355D01*
X0175200Y0226885D02*
X0175200Y0223815D01*
X0176730Y0223815D02*
X0177500Y0224585D01*
X0177500Y0227655D01*
X0178260Y0226885D02*
X0176730Y0226885D01*
X0179800Y0226885D02*
X0182100Y0226885D01*
X0182870Y0226125D01*
X0182870Y0224585D01*
X0182100Y0223815D01*
X0179800Y0223815D01*
X0184400Y0225355D02*
X0187470Y0225355D01*
X0187470Y0224585D02*
X0187470Y0226125D01*
X0186710Y0226885D01*
X0185170Y0226885D01*
X0184400Y0226125D01*
X0184400Y0225355D01*
X0185170Y0223815D02*
X0186710Y0223815D01*
X0187470Y0224585D01*
X0189010Y0223815D02*
X0190540Y0223815D01*
X0189770Y0223815D02*
X0189770Y0228425D01*
X0190540Y0228425D01*
X0192840Y0226885D02*
X0192080Y0226125D01*
X0192080Y0225355D01*
X0195150Y0225355D01*
X0195150Y0224585D02*
X0195150Y0226125D01*
X0194380Y0226885D01*
X0192840Y0226885D01*
X0192840Y0223815D02*
X0194380Y0223815D01*
X0195150Y0224585D01*
X0202975Y0010000D02*
G75*
%LPD*%
D67*
X0225985Y0046130D02*
X0227835Y0047370D01*
X0225985Y0048600D01*
X0227835Y0049840D02*
X0227835Y0046130D01*
X0229055Y0046130D02*
X0229055Y0047990D01*
X0229665Y0048600D01*
X0231525Y0048600D01*
X0231525Y0046130D01*
X0232745Y0046130D02*
X0233975Y0046130D01*
X0233355Y0046130D02*
X0233355Y0048600D01*
X0233975Y0048600D01*
X0235195Y0047990D02*
X0235195Y0046750D01*
X0235805Y0046130D01*
X0237655Y0046130D01*
X0237655Y0044900D02*
X0237655Y0048600D01*
X0235805Y0048600D01*
X0235195Y0047990D01*
X0233355Y0049840D02*
X0233355Y0050450D01*
X0238875Y0048600D02*
X0240725Y0048600D01*
X0241345Y0047990D01*
X0241345Y0046750D01*
X0240725Y0046130D01*
X0238875Y0046130D01*
X0242565Y0046130D02*
X0243795Y0046130D01*
X0243185Y0046130D02*
X0243185Y0048600D01*
X0243795Y0048600D01*
X0243185Y0049840D02*
X0243185Y0050450D01*
X0245015Y0048600D02*
X0245635Y0048600D01*
X0246865Y0047370D01*
X0246865Y0048600D02*
X0246865Y0046130D01*
X0248085Y0046130D02*
X0248705Y0046750D01*
X0248705Y0049220D01*
X0249325Y0048600D02*
X0248085Y0048600D01*
X0250535Y0048600D02*
X0252385Y0048600D01*
X0253005Y0047990D01*
X0253005Y0046750D01*
X0252385Y0046130D01*
X0250535Y0046130D01*
X0254225Y0047370D02*
X0256685Y0047370D01*
X0256685Y0047990D02*
X0256075Y0048600D01*
X0254835Y0048600D01*
X0254225Y0047990D01*
X0254225Y0047370D01*
X0254835Y0046130D02*
X0256075Y0046130D01*
X0256685Y0046750D01*
X0256685Y0047990D01*
X0257915Y0046130D02*
X0259145Y0046130D01*
X0258525Y0046130D02*
X0258525Y0049840D01*
X0259145Y0049840D01*
X0260975Y0048600D02*
X0260355Y0047990D01*
X0260355Y0047370D01*
X0262825Y0047370D01*
X0262825Y0047990D02*
X0262215Y0048600D01*
X0260975Y0048600D01*
X0260975Y0046130D02*
X0262215Y0046130D01*
X0262825Y0046750D01*
X0262825Y0047990D01*
D67*
X0260995Y0130130D02*
X0257385Y0130130D01*
X0255555Y0131030D02*
X0254655Y0130130D01*
X0252855Y0130130D01*
X0251955Y0131030D01*
X0251955Y0131940D01*
X0252855Y0132840D01*
X0254655Y0132840D01*
X0255555Y0133740D01*
X0255555Y0134640D01*
X0254655Y0135540D01*
X0252855Y0135540D01*
X0251955Y0134640D01*
X0250125Y0135540D02*
X0250125Y0130130D01*
X0250125Y0131940D02*
X0247415Y0131940D01*
X0246515Y0132840D01*
X0246515Y0134640D01*
X0247415Y0135540D01*
X0250125Y0135540D01*
X0244685Y0132840D02*
X0244685Y0131030D01*
X0243785Y0130130D01*
X0241075Y0130130D01*
X0241075Y0135540D01*
X0241075Y0133740D02*
X0243785Y0133740D01*
X0244685Y0132840D01*
X0239245Y0133740D02*
X0239245Y0131030D01*
X0238345Y0130130D01*
X0235635Y0130130D01*
X0235635Y0133740D01*
X0233805Y0133740D02*
X0232905Y0133740D01*
X0232905Y0130130D01*
X0233805Y0130130D02*
X0232005Y0130130D01*
X0230185Y0130130D02*
X0230185Y0133740D01*
X0227475Y0133740D01*
X0226575Y0132840D01*
X0226575Y0130130D01*
X0224745Y0131030D02*
X0223845Y0130130D01*
X0222035Y0130130D01*
X0221135Y0131030D01*
X0221135Y0132840D01*
X0222035Y0133740D01*
X0223845Y0133740D01*
X0224745Y0132840D01*
X0224745Y0131030D01*
X0219305Y0132840D02*
X0215695Y0132840D01*
X0213865Y0135540D02*
X0212065Y0133740D01*
X0210265Y0135540D01*
X0210265Y0130130D01*
X0208435Y0130130D02*
X0204825Y0130130D01*
X0206625Y0130130D02*
X0206625Y0135540D01*
X0208435Y0133740D01*
X0213865Y0135540D02*
X0213865Y0130130D01*
X0232905Y0135540D02*
X0232905Y0136440D01*
X0257385Y0135540D02*
X0260995Y0135540D01*
X0260995Y0130130D01*
X0260995Y0132840D02*
X0259195Y0132840D01*
D34*
X0241575Y0103440D03*
X0241575Y0102640D03*
X0235975Y0104240D03*
X0235975Y0121840D03*
X0252775Y0076240D03*
X0255175Y0074640D03*
D56*
X0253175Y0075440D03*
X0245975Y0094640D03*
X0245975Y0095440D03*
X0245175Y0098640D03*
X0245175Y0099440D03*
X0245175Y0100240D03*
X0241175Y0104240D03*
X0235575Y0107440D03*
X0228375Y0103440D03*
X0221175Y0111440D03*
X0221175Y0121040D03*
X0213975Y0112240D03*
D43*
X0227575Y0107440D03*
X0227575Y0104240D03*
X0251575Y0084240D03*
X0252375Y0085040D03*
X0253975Y0088240D03*
X0253975Y0089040D03*
X0253975Y0089840D03*
X0254775Y0090640D03*
X0255575Y0093040D03*
X0251575Y0077040D03*
D27*
X0251175Y0077840D03*
X0250375Y0078640D03*
X0251175Y0082640D03*
X0251175Y0083440D03*
X0254375Y0091440D03*
X0255175Y0092240D03*
X0255975Y0093840D03*
X0255175Y0097040D03*
X0255175Y0100240D03*
X0254375Y0101040D03*
X0254375Y0101840D03*
X0227975Y0105040D03*
X0227975Y0105840D03*
X0227975Y0106640D03*
D37*
X0251175Y0079440D03*
X0255175Y0099440D03*
X0252775Y0104240D03*
X0252775Y0105040D03*
X0252775Y0105840D03*
D69*
X0253175Y0103440D03*
X0253975Y0102640D03*
X0255575Y0098640D03*
X0255575Y0097840D03*
X0255575Y0096240D03*
X0255575Y0095440D03*
X0255575Y0094640D03*
X0250775Y0081840D03*
X0250775Y0081040D03*
X0250775Y0080240D03*
D74*
X0252775Y0085840D03*
X0235975Y0105840D03*
X0227975Y0108240D03*
D35*
X0221175Y0112240D03*
X0235575Y0106640D03*
X0236375Y0105040D03*
X0253175Y0087440D03*
X0253175Y0086640D03*
D42*
X0246375Y0096240D03*
X0241575Y0101840D03*
X0231175Y0121840D03*
X0227975Y0109040D03*
X0224775Y0121040D03*
X0213575Y0109040D03*
X0254375Y0114640D03*
D11*
X0256375Y0109840D03*
X0246775Y0107440D03*
X0245175Y0097840D03*
X0225175Y0113040D03*
X0213175Y0111440D03*
X0213175Y0110640D03*
X0213175Y0109840D03*
D60*
X0252375Y0107440D03*
X0252375Y0106640D03*
D21*
X0251575Y0108240D03*
X0249975Y0109840D03*
D25*
X0249575Y0110640D03*
X0251175Y0109040D03*
X0218375Y0113040D03*
D10*
X0247575Y0111440D03*
D17*
X0247175Y0112240D03*
D36*
X0245175Y0113040D03*
D59*
X0233975Y0113840D03*
D68*
X0231975Y0114640D03*
D30*
X0231975Y0115440D03*
D24*
X0232375Y0116240D03*
D58*
X0232775Y0117040D03*
D75*
X0231575Y0117840D03*
D45*
X0231175Y0118640D03*
D38*
X0231975Y0119440D03*
D14*
X0230775Y0120240D03*
D62*
X0233175Y0121040D03*
D67*
X0215735Y0069020D02*
X0213435Y0067480D01*
X0215735Y0069020D02*
X0213435Y0070550D01*
X0215735Y0072090D02*
X0215735Y0067480D01*
X0217265Y0067480D02*
X0217265Y0069790D01*
X0218035Y0070550D01*
X0220335Y0070550D01*
X0220335Y0067480D01*
X0221875Y0067480D02*
X0223405Y0067480D01*
X0222635Y0067480D02*
X0222635Y0070550D01*
X0223405Y0070550D01*
X0222635Y0072090D02*
X0222635Y0072850D01*
X0224945Y0069790D02*
X0224945Y0068250D01*
X0225705Y0067480D01*
X0228015Y0067480D01*
X0228015Y0065950D02*
X0228015Y0070550D01*
X0225705Y0070550D01*
X0224945Y0069790D01*
X0229545Y0070550D02*
X0231845Y0070550D01*
X0232615Y0069790D01*
X0232615Y0068250D01*
X0231845Y0067480D01*
X0229545Y0067480D01*
X0234145Y0067480D02*
X0235685Y0067480D01*
X0234915Y0067480D02*
X0234915Y0070550D01*
X0235685Y0070550D01*
X0234915Y0072090D02*
X0234915Y0072850D01*
X0237215Y0070550D02*
X0237985Y0070550D01*
X0239525Y0069020D01*
X0239525Y0070550D02*
X0239525Y0067480D01*
X0241055Y0067480D02*
X0241825Y0068250D01*
X0241825Y0071320D01*
X0242585Y0070550D02*
X0241055Y0070550D01*
X0244125Y0070550D02*
X0246425Y0070550D01*
X0247195Y0069790D01*
X0247195Y0068250D01*
X0246425Y0067480D01*
X0244125Y0067480D01*
X0248725Y0069020D02*
X0251795Y0069020D01*
X0251795Y0068250D02*
X0251795Y0069790D01*
X0251035Y0070550D01*
X0249495Y0070550D01*
X0248725Y0069790D01*
X0248725Y0069020D01*
X0249495Y0067480D02*
X0251035Y0067480D01*
X0251795Y0068250D01*
X0253335Y0067480D02*
X0254865Y0067480D01*
X0254095Y0067480D02*
X0254095Y0072090D01*
X0254865Y0072090D01*
X0257165Y0070550D02*
X0256405Y0069790D01*
X0256405Y0069020D01*
X0259475Y0069020D01*
X0259475Y0068250D02*
X0259475Y0069790D01*
X0258705Y0070550D01*
X0257165Y0070550D01*
X0257165Y0067480D02*
X0258705Y0067480D01*
X0259475Y0068250D01*
X0202975Y0166335D02*
G75*
%LPD*%
D67*
X0225985Y0202465D02*
X0227835Y0203705D01*
X0225985Y0204935D01*
X0227835Y0206175D02*
X0227835Y0202465D01*
X0229055Y0202465D02*
X0229055Y0204325D01*
X0229665Y0204935D01*
X0231525Y0204935D01*
X0231525Y0202465D01*
X0232745Y0202465D02*
X0233975Y0202465D01*
X0233355Y0202465D02*
X0233355Y0204935D01*
X0233975Y0204935D01*
X0235195Y0204325D02*
X0235195Y0203085D01*
X0235805Y0202465D01*
X0237655Y0202465D01*
X0237655Y0201235D02*
X0237655Y0204935D01*
X0235805Y0204935D01*
X0235195Y0204325D01*
X0233355Y0206175D02*
X0233355Y0206785D01*
X0238875Y0204935D02*
X0240725Y0204935D01*
X0241345Y0204325D01*
X0241345Y0203085D01*
X0240725Y0202465D01*
X0238875Y0202465D01*
X0242565Y0202465D02*
X0243795Y0202465D01*
X0243185Y0202465D02*
X0243185Y0204935D01*
X0243795Y0204935D01*
X0243185Y0206175D02*
X0243185Y0206785D01*
X0245015Y0204935D02*
X0245635Y0204935D01*
X0246865Y0203705D01*
X0246865Y0204935D02*
X0246865Y0202465D01*
X0248085Y0202465D02*
X0248705Y0203085D01*
X0248705Y0205555D01*
X0249325Y0204935D02*
X0248085Y0204935D01*
X0250535Y0204935D02*
X0252385Y0204935D01*
X0253005Y0204325D01*
X0253005Y0203085D01*
X0252385Y0202465D01*
X0250535Y0202465D01*
X0254225Y0203705D02*
X0256685Y0203705D01*
X0256685Y0204325D02*
X0256075Y0204935D01*
X0254835Y0204935D01*
X0254225Y0204325D01*
X0254225Y0203705D01*
X0254835Y0202465D02*
X0256075Y0202465D01*
X0256685Y0203085D01*
X0256685Y0204325D01*
X0257915Y0202465D02*
X0259145Y0202465D01*
X0258525Y0202465D02*
X0258525Y0206175D01*
X0259145Y0206175D01*
X0260975Y0204935D02*
X0260355Y0204325D01*
X0260355Y0203705D01*
X0262825Y0203705D01*
X0262825Y0204325D02*
X0262215Y0204935D01*
X0260975Y0204935D01*
X0260975Y0202465D02*
X0262215Y0202465D01*
X0262825Y0203085D01*
X0262825Y0204325D01*
D67*
X0260995Y0286465D02*
X0257385Y0286465D01*
X0255555Y0287365D02*
X0254655Y0286465D01*
X0252855Y0286465D01*
X0251955Y0287365D01*
X0251955Y0288275D01*
X0252855Y0289175D01*
X0254655Y0289175D01*
X0255555Y0290075D01*
X0255555Y0290975D01*
X0254655Y0291875D01*
X0252855Y0291875D01*
X0251955Y0290975D01*
X0250125Y0291875D02*
X0250125Y0286465D01*
X0250125Y0288275D02*
X0247415Y0288275D01*
X0246515Y0289175D01*
X0246515Y0290975D01*
X0247415Y0291875D01*
X0250125Y0291875D01*
X0244685Y0289175D02*
X0244685Y0287365D01*
X0243785Y0286465D01*
X0241075Y0286465D01*
X0241075Y0291875D01*
X0241075Y0290075D02*
X0243785Y0290075D01*
X0244685Y0289175D01*
X0239245Y0290075D02*
X0239245Y0287365D01*
X0238345Y0286465D01*
X0235635Y0286465D01*
X0235635Y0290075D01*
X0233805Y0290075D02*
X0232905Y0290075D01*
X0232905Y0286465D01*
X0233805Y0286465D02*
X0232005Y0286465D01*
X0230185Y0286465D02*
X0230185Y0290075D01*
X0227475Y0290075D01*
X0226575Y0289175D01*
X0226575Y0286465D01*
X0224745Y0287365D02*
X0223845Y0286465D01*
X0222035Y0286465D01*
X0221135Y0287365D01*
X0221135Y0289175D01*
X0222035Y0290075D01*
X0223845Y0290075D01*
X0224745Y0289175D01*
X0224745Y0287365D01*
X0219305Y0289175D02*
X0215695Y0289175D01*
X0213865Y0291875D02*
X0212065Y0290075D01*
X0210265Y0291875D01*
X0210265Y0286465D01*
X0208435Y0286465D02*
X0204825Y0286465D01*
X0206625Y0286465D02*
X0206625Y0291875D01*
X0208435Y0290075D01*
X0213865Y0291875D02*
X0213865Y0286465D01*
X0232905Y0291875D02*
X0232905Y0292775D01*
X0257385Y0291875D02*
X0260995Y0291875D01*
X0260995Y0286465D01*
X0260995Y0289175D02*
X0259195Y0289175D01*
D34*
X0241575Y0259775D03*
X0241575Y0258975D03*
X0235975Y0260575D03*
X0235975Y0278175D03*
X0252775Y0232575D03*
X0255175Y0230975D03*
D56*
X0253175Y0231775D03*
X0245975Y0250975D03*
X0245975Y0251775D03*
X0245175Y0254975D03*
X0245175Y0255775D03*
X0245175Y0256575D03*
X0241175Y0260575D03*
X0235575Y0263775D03*
X0228375Y0259775D03*
X0221175Y0267775D03*
X0221175Y0277375D03*
X0213975Y0268575D03*
D43*
X0227575Y0263775D03*
X0227575Y0260575D03*
X0251575Y0240575D03*
X0252375Y0241375D03*
X0253975Y0244575D03*
X0253975Y0245375D03*
X0253975Y0246175D03*
X0254775Y0246975D03*
X0255575Y0249375D03*
X0251575Y0233375D03*
D27*
X0251175Y0234175D03*
X0250375Y0234975D03*
X0251175Y0238975D03*
X0251175Y0239775D03*
X0254375Y0247775D03*
X0255175Y0248575D03*
X0255975Y0250175D03*
X0255175Y0253375D03*
X0255175Y0256575D03*
X0254375Y0257375D03*
X0254375Y0258175D03*
X0227975Y0261375D03*
X0227975Y0262175D03*
X0227975Y0262975D03*
D37*
X0251175Y0235775D03*
X0255175Y0255775D03*
X0252775Y0260575D03*
X0252775Y0261375D03*
X0252775Y0262175D03*
D69*
X0253175Y0259775D03*
X0253975Y0258975D03*
X0255575Y0254975D03*
X0255575Y0254175D03*
X0255575Y0252575D03*
X0255575Y0251775D03*
X0255575Y0250975D03*
X0250775Y0238175D03*
X0250775Y0237375D03*
X0250775Y0236575D03*
D74*
X0252775Y0242175D03*
X0235975Y0262175D03*
X0227975Y0264575D03*
D35*
X0221175Y0268575D03*
X0235575Y0262975D03*
X0236375Y0261375D03*
X0253175Y0243775D03*
X0253175Y0242975D03*
D42*
X0246375Y0252575D03*
X0241575Y0258175D03*
X0231175Y0278175D03*
X0227975Y0265375D03*
X0224775Y0277375D03*
X0213575Y0265375D03*
X0254375Y0270975D03*
D11*
X0256375Y0266175D03*
X0246775Y0263775D03*
X0245175Y0254175D03*
X0225175Y0269375D03*
X0213175Y0267775D03*
X0213175Y0266975D03*
X0213175Y0266175D03*
D60*
X0252375Y0263775D03*
X0252375Y0262975D03*
D21*
X0251575Y0264575D03*
X0249975Y0266175D03*
D25*
X0249575Y0266975D03*
X0251175Y0265375D03*
X0218375Y0269375D03*
D10*
X0247575Y0267775D03*
D17*
X0247175Y0268575D03*
D36*
X0245175Y0269375D03*
D59*
X0233975Y0270175D03*
D68*
X0231975Y0270975D03*
D30*
X0231975Y0271775D03*
D24*
X0232375Y0272575D03*
D58*
X0232775Y0273375D03*
D75*
X0231575Y0274175D03*
D45*
X0231175Y0274975D03*
D38*
X0231975Y0275775D03*
D14*
X0230775Y0276575D03*
D62*
X0233175Y0277375D03*
D67*
X0215735Y0225355D02*
X0213435Y0223815D01*
X0215735Y0225355D02*
X0213435Y0226885D01*
X0215735Y0228425D02*
X0215735Y0223815D01*
X0217265Y0223815D02*
X0217265Y0226125D01*
X0218035Y0226885D01*
X0220335Y0226885D01*
X0220335Y0223815D01*
X0221875Y0223815D02*
X0223405Y0223815D01*
X0222635Y0223815D02*
X0222635Y0226885D01*
X0223405Y0226885D01*
X0222635Y0228425D02*
X0222635Y0229185D01*
X0224945Y0226125D02*
X0224945Y0224585D01*
X0225705Y0223815D01*
X0228015Y0223815D01*
X0228015Y0222285D02*
X0228015Y0226885D01*
X0225705Y0226885D01*
X0224945Y0226125D01*
X0229545Y0226885D02*
X0231845Y0226885D01*
X0232615Y0226125D01*
X0232615Y0224585D01*
X0231845Y0223815D01*
X0229545Y0223815D01*
X0234145Y0223815D02*
X0235685Y0223815D01*
X0234915Y0223815D02*
X0234915Y0226885D01*
X0235685Y0226885D01*
X0234915Y0228425D02*
X0234915Y0229185D01*
X0237215Y0226885D02*
X0237985Y0226885D01*
X0239525Y0225355D01*
X0239525Y0226885D02*
X0239525Y0223815D01*
X0241055Y0223815D02*
X0241825Y0224585D01*
X0241825Y0227655D01*
X0242585Y0226885D02*
X0241055Y0226885D01*
X0244125Y0226885D02*
X0246425Y0226885D01*
X0247195Y0226125D01*
X0247195Y0224585D01*
X0246425Y0223815D01*
X0244125Y0223815D01*
X0248725Y0225355D02*
X0251795Y0225355D01*
X0251795Y0224585D02*
X0251795Y0226125D01*
X0251035Y0226885D01*
X0249495Y0226885D01*
X0248725Y0226125D01*
X0248725Y0225355D01*
X0249495Y0223815D02*
X0251035Y0223815D01*
X0251795Y0224585D01*
X0253335Y0223815D02*
X0254865Y0223815D01*
X0254095Y0223815D02*
X0254095Y0228425D01*
X0254865Y0228425D01*
X0257165Y0226885D02*
X0256405Y0226125D01*
X0256405Y0225355D01*
X0259475Y0225355D01*
X0259475Y0224585D02*
X0259475Y0226125D01*
X0258705Y0226885D01*
X0257165Y0226885D01*
X0257165Y0223815D02*
X0258705Y0223815D01*
X0259475Y0224585D01*
X0267300Y0010000D02*
G75*
%LPD*%
D67*
X0290310Y0046130D02*
X0292160Y0047370D01*
X0290310Y0048600D01*
X0292160Y0049840D02*
X0292160Y0046130D01*
X0293380Y0046130D02*
X0293380Y0047990D01*
X0293990Y0048600D01*
X0295850Y0048600D01*
X0295850Y0046130D01*
X0297070Y0046130D02*
X0298300Y0046130D01*
X0297680Y0046130D02*
X0297680Y0048600D01*
X0298300Y0048600D01*
X0299520Y0047990D02*
X0299520Y0046750D01*
X0300130Y0046130D01*
X0301980Y0046130D01*
X0301980Y0044900D02*
X0301980Y0048600D01*
X0300130Y0048600D01*
X0299520Y0047990D01*
X0297680Y0049840D02*
X0297680Y0050450D01*
X0303200Y0048600D02*
X0305050Y0048600D01*
X0305670Y0047990D01*
X0305670Y0046750D01*
X0305050Y0046130D01*
X0303200Y0046130D01*
X0306890Y0046130D02*
X0308120Y0046130D01*
X0307510Y0046130D02*
X0307510Y0048600D01*
X0308120Y0048600D01*
X0307510Y0049840D02*
X0307510Y0050450D01*
X0309340Y0048600D02*
X0309960Y0048600D01*
X0311190Y0047370D01*
X0311190Y0048600D02*
X0311190Y0046130D01*
X0312410Y0046130D02*
X0313030Y0046750D01*
X0313030Y0049220D01*
X0313650Y0048600D02*
X0312410Y0048600D01*
X0314860Y0048600D02*
X0316710Y0048600D01*
X0317330Y0047990D01*
X0317330Y0046750D01*
X0316710Y0046130D01*
X0314860Y0046130D01*
X0318550Y0047370D02*
X0321010Y0047370D01*
X0321010Y0047990D02*
X0320400Y0048600D01*
X0319160Y0048600D01*
X0318550Y0047990D01*
X0318550Y0047370D01*
X0319160Y0046130D02*
X0320400Y0046130D01*
X0321010Y0046750D01*
X0321010Y0047990D01*
X0322240Y0046130D02*
X0323470Y0046130D01*
X0322850Y0046130D02*
X0322850Y0049840D01*
X0323470Y0049840D01*
X0325300Y0048600D02*
X0324680Y0047990D01*
X0324680Y0047370D01*
X0327150Y0047370D01*
X0327150Y0047990D02*
X0326540Y0048600D01*
X0325300Y0048600D01*
X0325300Y0046130D02*
X0326540Y0046130D01*
X0327150Y0046750D01*
X0327150Y0047990D01*
D67*
X0325320Y0130130D02*
X0321710Y0130130D01*
X0319880Y0131030D02*
X0318980Y0130130D01*
X0317180Y0130130D01*
X0316280Y0131030D01*
X0316280Y0131940D01*
X0317180Y0132840D01*
X0318980Y0132840D01*
X0319880Y0133740D01*
X0319880Y0134640D01*
X0318980Y0135540D01*
X0317180Y0135540D01*
X0316280Y0134640D01*
X0314450Y0135540D02*
X0314450Y0130130D01*
X0314450Y0131940D02*
X0311740Y0131940D01*
X0310840Y0132840D01*
X0310840Y0134640D01*
X0311740Y0135540D01*
X0314450Y0135540D01*
X0309010Y0132840D02*
X0309010Y0131030D01*
X0308110Y0130130D01*
X0305400Y0130130D01*
X0305400Y0135540D01*
X0305400Y0133740D02*
X0308110Y0133740D01*
X0309010Y0132840D01*
X0303570Y0133740D02*
X0303570Y0131030D01*
X0302670Y0130130D01*
X0299960Y0130130D01*
X0299960Y0133740D01*
X0298130Y0133740D02*
X0297230Y0133740D01*
X0297230Y0130130D01*
X0298130Y0130130D02*
X0296330Y0130130D01*
X0294510Y0130130D02*
X0294510Y0133740D01*
X0291800Y0133740D01*
X0290900Y0132840D01*
X0290900Y0130130D01*
X0289070Y0131030D02*
X0288170Y0130130D01*
X0286360Y0130130D01*
X0285460Y0131030D01*
X0285460Y0132840D01*
X0286360Y0133740D01*
X0288170Y0133740D01*
X0289070Y0132840D01*
X0289070Y0131030D01*
X0283630Y0132840D02*
X0280020Y0132840D01*
X0278190Y0135540D02*
X0276390Y0133740D01*
X0274590Y0135540D01*
X0274590Y0130130D01*
X0272760Y0130130D02*
X0269150Y0130130D01*
X0270950Y0130130D02*
X0270950Y0135540D01*
X0272760Y0133740D01*
X0278190Y0135540D02*
X0278190Y0130130D01*
X0297230Y0135540D02*
X0297230Y0136440D01*
X0321710Y0135540D02*
X0325320Y0135540D01*
X0325320Y0130130D01*
X0325320Y0132840D02*
X0323520Y0132840D01*
D34*
X0305900Y0103440D03*
X0305900Y0102640D03*
X0300300Y0104240D03*
X0300300Y0121840D03*
X0317100Y0076240D03*
X0319500Y0074640D03*
D56*
X0317500Y0075440D03*
X0310300Y0094640D03*
X0310300Y0095440D03*
X0309500Y0098640D03*
X0309500Y0099440D03*
X0309500Y0100240D03*
X0305500Y0104240D03*
X0299900Y0107440D03*
X0292700Y0103440D03*
X0285500Y0111440D03*
X0285500Y0121040D03*
X0278300Y0112240D03*
D43*
X0291900Y0107440D03*
X0291900Y0104240D03*
X0315900Y0084240D03*
X0316700Y0085040D03*
X0318300Y0088240D03*
X0318300Y0089040D03*
X0318300Y0089840D03*
X0319100Y0090640D03*
X0319900Y0093040D03*
X0315900Y0077040D03*
D27*
X0315500Y0077840D03*
X0314700Y0078640D03*
X0315500Y0082640D03*
X0315500Y0083440D03*
X0318700Y0091440D03*
X0319500Y0092240D03*
X0320300Y0093840D03*
X0319500Y0097040D03*
X0319500Y0100240D03*
X0318700Y0101040D03*
X0318700Y0101840D03*
X0292300Y0105040D03*
X0292300Y0105840D03*
X0292300Y0106640D03*
D37*
X0315500Y0079440D03*
X0319500Y0099440D03*
X0317100Y0104240D03*
X0317100Y0105040D03*
X0317100Y0105840D03*
D69*
X0317500Y0103440D03*
X0318300Y0102640D03*
X0319900Y0098640D03*
X0319900Y0097840D03*
X0319900Y0096240D03*
X0319900Y0095440D03*
X0319900Y0094640D03*
X0315100Y0081840D03*
X0315100Y0081040D03*
X0315100Y0080240D03*
D74*
X0317100Y0085840D03*
X0300300Y0105840D03*
X0292300Y0108240D03*
D35*
X0285500Y0112240D03*
X0299900Y0106640D03*
X0300700Y0105040D03*
X0317500Y0087440D03*
X0317500Y0086640D03*
D42*
X0310700Y0096240D03*
X0305900Y0101840D03*
X0295500Y0121840D03*
X0292300Y0109040D03*
X0289100Y0121040D03*
X0277900Y0109040D03*
X0318700Y0114640D03*
D11*
X0320700Y0109840D03*
X0311100Y0107440D03*
X0309500Y0097840D03*
X0289500Y0113040D03*
X0277500Y0111440D03*
X0277500Y0110640D03*
X0277500Y0109840D03*
D60*
X0316700Y0107440D03*
X0316700Y0106640D03*
D21*
X0315900Y0108240D03*
X0314300Y0109840D03*
D25*
X0313900Y0110640D03*
X0315500Y0109040D03*
X0282700Y0113040D03*
D10*
X0311900Y0111440D03*
D17*
X0311500Y0112240D03*
D36*
X0309500Y0113040D03*
D59*
X0298300Y0113840D03*
D68*
X0296300Y0114640D03*
D30*
X0296300Y0115440D03*
D24*
X0296700Y0116240D03*
D58*
X0297100Y0117040D03*
D75*
X0295900Y0117840D03*
D45*
X0295500Y0118640D03*
D38*
X0296300Y0119440D03*
D14*
X0295100Y0120240D03*
D62*
X0297500Y0121040D03*
D67*
X0280060Y0069020D02*
X0277760Y0067480D01*
X0280060Y0069020D02*
X0277760Y0070550D01*
X0280060Y0072090D02*
X0280060Y0067480D01*
X0281590Y0067480D02*
X0281590Y0069790D01*
X0282360Y0070550D01*
X0284660Y0070550D01*
X0284660Y0067480D01*
X0286200Y0067480D02*
X0287730Y0067480D01*
X0286960Y0067480D02*
X0286960Y0070550D01*
X0287730Y0070550D01*
X0286960Y0072090D02*
X0286960Y0072850D01*
X0289270Y0069790D02*
X0289270Y0068250D01*
X0290030Y0067480D01*
X0292340Y0067480D01*
X0292340Y0065950D02*
X0292340Y0070550D01*
X0290030Y0070550D01*
X0289270Y0069790D01*
X0293870Y0070550D02*
X0296170Y0070550D01*
X0296940Y0069790D01*
X0296940Y0068250D01*
X0296170Y0067480D01*
X0293870Y0067480D01*
X0298470Y0067480D02*
X0300010Y0067480D01*
X0299240Y0067480D02*
X0299240Y0070550D01*
X0300010Y0070550D01*
X0299240Y0072090D02*
X0299240Y0072850D01*
X0301540Y0070550D02*
X0302310Y0070550D01*
X0303850Y0069020D01*
X0303850Y0070550D02*
X0303850Y0067480D01*
X0305380Y0067480D02*
X0306150Y0068250D01*
X0306150Y0071320D01*
X0306910Y0070550D02*
X0305380Y0070550D01*
X0308450Y0070550D02*
X0310750Y0070550D01*
X0311520Y0069790D01*
X0311520Y0068250D01*
X0310750Y0067480D01*
X0308450Y0067480D01*
X0313050Y0069020D02*
X0316120Y0069020D01*
X0316120Y0068250D02*
X0316120Y0069790D01*
X0315360Y0070550D01*
X0313820Y0070550D01*
X0313050Y0069790D01*
X0313050Y0069020D01*
X0313820Y0067480D02*
X0315360Y0067480D01*
X0316120Y0068250D01*
X0317660Y0067480D02*
X0319190Y0067480D01*
X0318420Y0067480D02*
X0318420Y0072090D01*
X0319190Y0072090D01*
X0321490Y0070550D02*
X0320730Y0069790D01*
X0320730Y0069020D01*
X0323800Y0069020D01*
X0323800Y0068250D02*
X0323800Y0069790D01*
X0323030Y0070550D01*
X0321490Y0070550D01*
X0321490Y0067480D02*
X0323030Y0067480D01*
X0323800Y0068250D01*
X0267300Y0166335D02*
G75*
%LPD*%
D67*
X0290310Y0202465D02*
X0292160Y0203705D01*
X0290310Y0204935D01*
X0292160Y0206175D02*
X0292160Y0202465D01*
X0293380Y0202465D02*
X0293380Y0204325D01*
X0293990Y0204935D01*
X0295850Y0204935D01*
X0295850Y0202465D01*
X0297070Y0202465D02*
X0298300Y0202465D01*
X0297680Y0202465D02*
X0297680Y0204935D01*
X0298300Y0204935D01*
X0299520Y0204325D02*
X0299520Y0203085D01*
X0300130Y0202465D01*
X0301980Y0202465D01*
X0301980Y0201235D02*
X0301980Y0204935D01*
X0300130Y0204935D01*
X0299520Y0204325D01*
X0297680Y0206175D02*
X0297680Y0206785D01*
X0303200Y0204935D02*
X0305050Y0204935D01*
X0305670Y0204325D01*
X0305670Y0203085D01*
X0305050Y0202465D01*
X0303200Y0202465D01*
X0306890Y0202465D02*
X0308120Y0202465D01*
X0307510Y0202465D02*
X0307510Y0204935D01*
X0308120Y0204935D01*
X0307510Y0206175D02*
X0307510Y0206785D01*
X0309340Y0204935D02*
X0309960Y0204935D01*
X0311190Y0203705D01*
X0311190Y0204935D02*
X0311190Y0202465D01*
X0312410Y0202465D02*
X0313030Y0203085D01*
X0313030Y0205555D01*
X0313650Y0204935D02*
X0312410Y0204935D01*
X0314860Y0204935D02*
X0316710Y0204935D01*
X0317330Y0204325D01*
X0317330Y0203085D01*
X0316710Y0202465D01*
X0314860Y0202465D01*
X0318550Y0203705D02*
X0321010Y0203705D01*
X0321010Y0204325D02*
X0320400Y0204935D01*
X0319160Y0204935D01*
X0318550Y0204325D01*
X0318550Y0203705D01*
X0319160Y0202465D02*
X0320400Y0202465D01*
X0321010Y0203085D01*
X0321010Y0204325D01*
X0322240Y0202465D02*
X0323470Y0202465D01*
X0322850Y0202465D02*
X0322850Y0206175D01*
X0323470Y0206175D01*
X0325300Y0204935D02*
X0324680Y0204325D01*
X0324680Y0203705D01*
X0327150Y0203705D01*
X0327150Y0204325D02*
X0326540Y0204935D01*
X0325300Y0204935D01*
X0325300Y0202465D02*
X0326540Y0202465D01*
X0327150Y0203085D01*
X0327150Y0204325D01*
D67*
X0325320Y0286465D02*
X0321710Y0286465D01*
X0319880Y0287365D02*
X0318980Y0286465D01*
X0317180Y0286465D01*
X0316280Y0287365D01*
X0316280Y0288275D01*
X0317180Y0289175D01*
X0318980Y0289175D01*
X0319880Y0290075D01*
X0319880Y0290975D01*
X0318980Y0291875D01*
X0317180Y0291875D01*
X0316280Y0290975D01*
X0314450Y0291875D02*
X0314450Y0286465D01*
X0314450Y0288275D02*
X0311740Y0288275D01*
X0310840Y0289175D01*
X0310840Y0290975D01*
X0311740Y0291875D01*
X0314450Y0291875D01*
X0309010Y0289175D02*
X0309010Y0287365D01*
X0308110Y0286465D01*
X0305400Y0286465D01*
X0305400Y0291875D01*
X0305400Y0290075D02*
X0308110Y0290075D01*
X0309010Y0289175D01*
X0303570Y0290075D02*
X0303570Y0287365D01*
X0302670Y0286465D01*
X0299960Y0286465D01*
X0299960Y0290075D01*
X0298130Y0290075D02*
X0297230Y0290075D01*
X0297230Y0286465D01*
X0298130Y0286465D02*
X0296330Y0286465D01*
X0294510Y0286465D02*
X0294510Y0290075D01*
X0291800Y0290075D01*
X0290900Y0289175D01*
X0290900Y0286465D01*
X0289070Y0287365D02*
X0288170Y0286465D01*
X0286360Y0286465D01*
X0285460Y0287365D01*
X0285460Y0289175D01*
X0286360Y0290075D01*
X0288170Y0290075D01*
X0289070Y0289175D01*
X0289070Y0287365D01*
X0283630Y0289175D02*
X0280020Y0289175D01*
X0278190Y0291875D02*
X0276390Y0290075D01*
X0274590Y0291875D01*
X0274590Y0286465D01*
X0272760Y0286465D02*
X0269150Y0286465D01*
X0270950Y0286465D02*
X0270950Y0291875D01*
X0272760Y0290075D01*
X0278190Y0291875D02*
X0278190Y0286465D01*
X0297230Y0291875D02*
X0297230Y0292775D01*
X0321710Y0291875D02*
X0325320Y0291875D01*
X0325320Y0286465D01*
X0325320Y0289175D02*
X0323520Y0289175D01*
D34*
X0305900Y0259775D03*
X0305900Y0258975D03*
X0300300Y0260575D03*
X0300300Y0278175D03*
X0317100Y0232575D03*
X0319500Y0230975D03*
D56*
X0317500Y0231775D03*
X0310300Y0250975D03*
X0310300Y0251775D03*
X0309500Y0254975D03*
X0309500Y0255775D03*
X0309500Y0256575D03*
X0305500Y0260575D03*
X0299900Y0263775D03*
X0292700Y0259775D03*
X0285500Y0267775D03*
X0285500Y0277375D03*
X0278300Y0268575D03*
D43*
X0291900Y0263775D03*
X0291900Y0260575D03*
X0315900Y0240575D03*
X0316700Y0241375D03*
X0318300Y0244575D03*
X0318300Y0245375D03*
X0318300Y0246175D03*
X0319100Y0246975D03*
X0319900Y0249375D03*
X0315900Y0233375D03*
D27*
X0315500Y0234175D03*
X0314700Y0234975D03*
X0315500Y0238975D03*
X0315500Y0239775D03*
X0318700Y0247775D03*
X0319500Y0248575D03*
X0320300Y0250175D03*
X0319500Y0253375D03*
X0319500Y0256575D03*
X0318700Y0257375D03*
X0318700Y0258175D03*
X0292300Y0261375D03*
X0292300Y0262175D03*
X0292300Y0262975D03*
D37*
X0315500Y0235775D03*
X0319500Y0255775D03*
X0317100Y0260575D03*
X0317100Y0261375D03*
X0317100Y0262175D03*
D69*
X0317500Y0259775D03*
X0318300Y0258975D03*
X0319900Y0254975D03*
X0319900Y0254175D03*
X0319900Y0252575D03*
X0319900Y0251775D03*
X0319900Y0250975D03*
X0315100Y0238175D03*
X0315100Y0237375D03*
X0315100Y0236575D03*
D74*
X0317100Y0242175D03*
X0300300Y0262175D03*
X0292300Y0264575D03*
D35*
X0285500Y0268575D03*
X0299900Y0262975D03*
X0300700Y0261375D03*
X0317500Y0243775D03*
X0317500Y0242975D03*
D42*
X0310700Y0252575D03*
X0305900Y0258175D03*
X0295500Y0278175D03*
X0292300Y0265375D03*
X0289100Y0277375D03*
X0277900Y0265375D03*
X0318700Y0270975D03*
D11*
X0320700Y0266175D03*
X0311100Y0263775D03*
X0309500Y0254175D03*
X0289500Y0269375D03*
X0277500Y0267775D03*
X0277500Y0266975D03*
X0277500Y0266175D03*
D60*
X0316700Y0263775D03*
X0316700Y0262975D03*
D21*
X0315900Y0264575D03*
X0314300Y0266175D03*
D25*
X0313900Y0266975D03*
X0315500Y0265375D03*
X0282700Y0269375D03*
D10*
X0311900Y0267775D03*
D17*
X0311500Y0268575D03*
D36*
X0309500Y0269375D03*
D59*
X0298300Y0270175D03*
D68*
X0296300Y0270975D03*
D30*
X0296300Y0271775D03*
D24*
X0296700Y0272575D03*
D58*
X0297100Y0273375D03*
D75*
X0295900Y0274175D03*
D45*
X0295500Y0274975D03*
D38*
X0296300Y0275775D03*
D14*
X0295100Y0276575D03*
D62*
X0297500Y0277375D03*
D67*
X0280060Y0225355D02*
X0277760Y0223815D01*
X0280060Y0225355D02*
X0277760Y0226885D01*
X0280060Y0228425D02*
X0280060Y0223815D01*
X0281590Y0223815D02*
X0281590Y0226125D01*
X0282360Y0226885D01*
X0284660Y0226885D01*
X0284660Y0223815D01*
X0286200Y0223815D02*
X0287730Y0223815D01*
X0286960Y0223815D02*
X0286960Y0226885D01*
X0287730Y0226885D01*
X0286960Y0228425D02*
X0286960Y0229185D01*
X0289270Y0226125D02*
X0289270Y0224585D01*
X0290030Y0223815D01*
X0292340Y0223815D01*
X0292340Y0222285D02*
X0292340Y0226885D01*
X0290030Y0226885D01*
X0289270Y0226125D01*
X0293870Y0226885D02*
X0296170Y0226885D01*
X0296940Y0226125D01*
X0296940Y0224585D01*
X0296170Y0223815D01*
X0293870Y0223815D01*
X0298470Y0223815D02*
X0300010Y0223815D01*
X0299240Y0223815D02*
X0299240Y0226885D01*
X0300010Y0226885D01*
X0299240Y0228425D02*
X0299240Y0229185D01*
X0301540Y0226885D02*
X0302310Y0226885D01*
X0303850Y0225355D01*
X0303850Y0226885D02*
X0303850Y0223815D01*
X0305380Y0223815D02*
X0306150Y0224585D01*
X0306150Y0227655D01*
X0306910Y0226885D02*
X0305380Y0226885D01*
X0308450Y0226885D02*
X0310750Y0226885D01*
X0311520Y0226125D01*
X0311520Y0224585D01*
X0310750Y0223815D01*
X0308450Y0223815D01*
X0313050Y0225355D02*
X0316120Y0225355D01*
X0316120Y0224585D02*
X0316120Y0226125D01*
X0315360Y0226885D01*
X0313820Y0226885D01*
X0313050Y0226125D01*
X0313050Y0225355D01*
X0313820Y0223815D02*
X0315360Y0223815D01*
X0316120Y0224585D01*
X0317660Y0223815D02*
X0319190Y0223815D01*
X0318420Y0223815D02*
X0318420Y0228425D01*
X0319190Y0228425D01*
X0321490Y0226885D02*
X0320730Y0226125D01*
X0320730Y0225355D01*
X0323800Y0225355D01*
X0323800Y0224585D02*
X0323800Y0226125D01*
X0323030Y0226885D01*
X0321490Y0226885D01*
X0321490Y0223815D02*
X0323030Y0223815D01*
X0323800Y0224585D01*
X0331625Y0010000D02*
G75*
%LPD*%
D67*
X0354635Y0046130D02*
X0356485Y0047370D01*
X0354635Y0048600D01*
X0356485Y0049840D02*
X0356485Y0046130D01*
X0357705Y0046130D02*
X0357705Y0047990D01*
X0358315Y0048600D01*
X0360175Y0048600D01*
X0360175Y0046130D01*
X0361395Y0046130D02*
X0362625Y0046130D01*
X0362005Y0046130D02*
X0362005Y0048600D01*
X0362625Y0048600D01*
X0363845Y0047990D02*
X0363845Y0046750D01*
X0364455Y0046130D01*
X0366305Y0046130D01*
X0366305Y0044900D02*
X0366305Y0048600D01*
X0364455Y0048600D01*
X0363845Y0047990D01*
X0362005Y0049840D02*
X0362005Y0050450D01*
X0367525Y0048600D02*
X0369375Y0048600D01*
X0369995Y0047990D01*
X0369995Y0046750D01*
X0369375Y0046130D01*
X0367525Y0046130D01*
X0371215Y0046130D02*
X0372445Y0046130D01*
X0371835Y0046130D02*
X0371835Y0048600D01*
X0372445Y0048600D01*
X0371835Y0049840D02*
X0371835Y0050450D01*
X0373665Y0048600D02*
X0374285Y0048600D01*
X0375515Y0047370D01*
X0375515Y0048600D02*
X0375515Y0046130D01*
X0376735Y0046130D02*
X0377355Y0046750D01*
X0377355Y0049220D01*
X0377975Y0048600D02*
X0376735Y0048600D01*
X0379185Y0048600D02*
X0381035Y0048600D01*
X0381655Y0047990D01*
X0381655Y0046750D01*
X0381035Y0046130D01*
X0379185Y0046130D01*
X0382875Y0047370D02*
X0385335Y0047370D01*
X0385335Y0047990D02*
X0384725Y0048600D01*
X0383485Y0048600D01*
X0382875Y0047990D01*
X0382875Y0047370D01*
X0383485Y0046130D02*
X0384725Y0046130D01*
X0385335Y0046750D01*
X0385335Y0047990D01*
X0386565Y0046130D02*
X0387795Y0046130D01*
X0387175Y0046130D02*
X0387175Y0049840D01*
X0387795Y0049840D01*
X0389625Y0048600D02*
X0389005Y0047990D01*
X0389005Y0047370D01*
X0391475Y0047370D01*
X0391475Y0047990D02*
X0390865Y0048600D01*
X0389625Y0048600D01*
X0389625Y0046130D02*
X0390865Y0046130D01*
X0391475Y0046750D01*
X0391475Y0047990D01*
D67*
X0389645Y0130130D02*
X0386035Y0130130D01*
X0384205Y0131030D02*
X0383305Y0130130D01*
X0381505Y0130130D01*
X0380605Y0131030D01*
X0380605Y0131940D01*
X0381505Y0132840D01*
X0383305Y0132840D01*
X0384205Y0133740D01*
X0384205Y0134640D01*
X0383305Y0135540D01*
X0381505Y0135540D01*
X0380605Y0134640D01*
X0378775Y0135540D02*
X0378775Y0130130D01*
X0378775Y0131940D02*
X0376065Y0131940D01*
X0375165Y0132840D01*
X0375165Y0134640D01*
X0376065Y0135540D01*
X0378775Y0135540D01*
X0373335Y0132840D02*
X0373335Y0131030D01*
X0372435Y0130130D01*
X0369725Y0130130D01*
X0369725Y0135540D01*
X0369725Y0133740D02*
X0372435Y0133740D01*
X0373335Y0132840D01*
X0367895Y0133740D02*
X0367895Y0131030D01*
X0366995Y0130130D01*
X0364285Y0130130D01*
X0364285Y0133740D01*
X0362455Y0133740D02*
X0361555Y0133740D01*
X0361555Y0130130D01*
X0362455Y0130130D02*
X0360655Y0130130D01*
X0358835Y0130130D02*
X0358835Y0133740D01*
X0356125Y0133740D01*
X0355225Y0132840D01*
X0355225Y0130130D01*
X0353395Y0131030D02*
X0352495Y0130130D01*
X0350685Y0130130D01*
X0349785Y0131030D01*
X0349785Y0132840D01*
X0350685Y0133740D01*
X0352495Y0133740D01*
X0353395Y0132840D01*
X0353395Y0131030D01*
X0347955Y0132840D02*
X0344345Y0132840D01*
X0342515Y0135540D02*
X0340715Y0133740D01*
X0338915Y0135540D01*
X0338915Y0130130D01*
X0337085Y0130130D02*
X0333475Y0130130D01*
X0335275Y0130130D02*
X0335275Y0135540D01*
X0337085Y0133740D01*
X0342515Y0135540D02*
X0342515Y0130130D01*
X0361555Y0135540D02*
X0361555Y0136440D01*
X0386035Y0135540D02*
X0389645Y0135540D01*
X0389645Y0130130D01*
X0389645Y0132840D02*
X0387845Y0132840D01*
D34*
X0370225Y0103440D03*
X0370225Y0102640D03*
X0364625Y0104240D03*
X0364625Y0121840D03*
X0381425Y0076240D03*
X0383825Y0074640D03*
D56*
X0381825Y0075440D03*
X0374625Y0094640D03*
X0374625Y0095440D03*
X0373825Y0098640D03*
X0373825Y0099440D03*
X0373825Y0100240D03*
X0369825Y0104240D03*
X0364225Y0107440D03*
X0357025Y0103440D03*
X0349825Y0111440D03*
X0349825Y0121040D03*
X0342625Y0112240D03*
D43*
X0356225Y0107440D03*
X0356225Y0104240D03*
X0380225Y0084240D03*
X0381025Y0085040D03*
X0382625Y0088240D03*
X0382625Y0089040D03*
X0382625Y0089840D03*
X0383425Y0090640D03*
X0384225Y0093040D03*
X0380225Y0077040D03*
D27*
X0379825Y0077840D03*
X0379025Y0078640D03*
X0379825Y0082640D03*
X0379825Y0083440D03*
X0383025Y0091440D03*
X0383825Y0092240D03*
X0384625Y0093840D03*
X0383825Y0097040D03*
X0383825Y0100240D03*
X0383025Y0101040D03*
X0383025Y0101840D03*
X0356625Y0105040D03*
X0356625Y0105840D03*
X0356625Y0106640D03*
D37*
X0379825Y0079440D03*
X0383825Y0099440D03*
X0381425Y0104240D03*
X0381425Y0105040D03*
X0381425Y0105840D03*
D69*
X0381825Y0103440D03*
X0382625Y0102640D03*
X0384225Y0098640D03*
X0384225Y0097840D03*
X0384225Y0096240D03*
X0384225Y0095440D03*
X0384225Y0094640D03*
X0379425Y0081840D03*
X0379425Y0081040D03*
X0379425Y0080240D03*
D74*
X0381425Y0085840D03*
X0364625Y0105840D03*
X0356625Y0108240D03*
D35*
X0349825Y0112240D03*
X0364225Y0106640D03*
X0365025Y0105040D03*
X0381825Y0087440D03*
X0381825Y0086640D03*
D42*
X0375025Y0096240D03*
X0370225Y0101840D03*
X0359825Y0121840D03*
X0356625Y0109040D03*
X0353425Y0121040D03*
X0342225Y0109040D03*
X0383025Y0114640D03*
D11*
X0385025Y0109840D03*
X0375425Y0107440D03*
X0373825Y0097840D03*
X0353825Y0113040D03*
X0341825Y0111440D03*
X0341825Y0110640D03*
X0341825Y0109840D03*
D60*
X0381025Y0107440D03*
X0381025Y0106640D03*
D21*
X0380225Y0108240D03*
X0378625Y0109840D03*
D25*
X0378225Y0110640D03*
X0379825Y0109040D03*
X0347025Y0113040D03*
D10*
X0376225Y0111440D03*
D17*
X0375825Y0112240D03*
D36*
X0373825Y0113040D03*
D59*
X0362625Y0113840D03*
D68*
X0360625Y0114640D03*
D30*
X0360625Y0115440D03*
D24*
X0361025Y0116240D03*
D58*
X0361425Y0117040D03*
D75*
X0360225Y0117840D03*
D45*
X0359825Y0118640D03*
D38*
X0360625Y0119440D03*
D14*
X0359425Y0120240D03*
D62*
X0361825Y0121040D03*
D67*
X0344385Y0069020D02*
X0342085Y0067480D01*
X0344385Y0069020D02*
X0342085Y0070550D01*
X0344385Y0072090D02*
X0344385Y0067480D01*
X0345915Y0067480D02*
X0345915Y0069790D01*
X0346685Y0070550D01*
X0348985Y0070550D01*
X0348985Y0067480D01*
X0350525Y0067480D02*
X0352055Y0067480D01*
X0351285Y0067480D02*
X0351285Y0070550D01*
X0352055Y0070550D01*
X0351285Y0072090D02*
X0351285Y0072850D01*
X0353595Y0069790D02*
X0353595Y0068250D01*
X0354355Y0067480D01*
X0356665Y0067480D01*
X0356665Y0065950D02*
X0356665Y0070550D01*
X0354355Y0070550D01*
X0353595Y0069790D01*
X0358195Y0070550D02*
X0360495Y0070550D01*
X0361265Y0069790D01*
X0361265Y0068250D01*
X0360495Y0067480D01*
X0358195Y0067480D01*
X0362795Y0067480D02*
X0364335Y0067480D01*
X0363565Y0067480D02*
X0363565Y0070550D01*
X0364335Y0070550D01*
X0363565Y0072090D02*
X0363565Y0072850D01*
X0365865Y0070550D02*
X0366635Y0070550D01*
X0368175Y0069020D01*
X0368175Y0070550D02*
X0368175Y0067480D01*
X0369705Y0067480D02*
X0370475Y0068250D01*
X0370475Y0071320D01*
X0371235Y0070550D02*
X0369705Y0070550D01*
X0372775Y0070550D02*
X0375075Y0070550D01*
X0375845Y0069790D01*
X0375845Y0068250D01*
X0375075Y0067480D01*
X0372775Y0067480D01*
X0377375Y0069020D02*
X0380445Y0069020D01*
X0380445Y0068250D02*
X0380445Y0069790D01*
X0379685Y0070550D01*
X0378145Y0070550D01*
X0377375Y0069790D01*
X0377375Y0069020D01*
X0378145Y0067480D02*
X0379685Y0067480D01*
X0380445Y0068250D01*
X0381985Y0067480D02*
X0383515Y0067480D01*
X0382745Y0067480D02*
X0382745Y0072090D01*
X0383515Y0072090D01*
X0385815Y0070550D02*
X0385055Y0069790D01*
X0385055Y0069020D01*
X0388125Y0069020D01*
X0388125Y0068250D02*
X0388125Y0069790D01*
X0387355Y0070550D01*
X0385815Y0070550D01*
X0385815Y0067480D02*
X0387355Y0067480D01*
X0388125Y0068250D01*
X0331625Y0166335D02*
G75*
%LPD*%
D67*
X0354635Y0202465D02*
X0356485Y0203705D01*
X0354635Y0204935D01*
X0356485Y0206175D02*
X0356485Y0202465D01*
X0357705Y0202465D02*
X0357705Y0204325D01*
X0358315Y0204935D01*
X0360175Y0204935D01*
X0360175Y0202465D01*
X0361395Y0202465D02*
X0362625Y0202465D01*
X0362005Y0202465D02*
X0362005Y0204935D01*
X0362625Y0204935D01*
X0363845Y0204325D02*
X0363845Y0203085D01*
X0364455Y0202465D01*
X0366305Y0202465D01*
X0366305Y0201235D02*
X0366305Y0204935D01*
X0364455Y0204935D01*
X0363845Y0204325D01*
X0362005Y0206175D02*
X0362005Y0206785D01*
X0367525Y0204935D02*
X0369375Y0204935D01*
X0369995Y0204325D01*
X0369995Y0203085D01*
X0369375Y0202465D01*
X0367525Y0202465D01*
X0371215Y0202465D02*
X0372445Y0202465D01*
X0371835Y0202465D02*
X0371835Y0204935D01*
X0372445Y0204935D01*
X0371835Y0206175D02*
X0371835Y0206785D01*
X0373665Y0204935D02*
X0374285Y0204935D01*
X0375515Y0203705D01*
X0375515Y0204935D02*
X0375515Y0202465D01*
X0376735Y0202465D02*
X0377355Y0203085D01*
X0377355Y0205555D01*
X0377975Y0204935D02*
X0376735Y0204935D01*
X0379185Y0204935D02*
X0381035Y0204935D01*
X0381655Y0204325D01*
X0381655Y0203085D01*
X0381035Y0202465D01*
X0379185Y0202465D01*
X0382875Y0203705D02*
X0385335Y0203705D01*
X0385335Y0204325D02*
X0384725Y0204935D01*
X0383485Y0204935D01*
X0382875Y0204325D01*
X0382875Y0203705D01*
X0383485Y0202465D02*
X0384725Y0202465D01*
X0385335Y0203085D01*
X0385335Y0204325D01*
X0386565Y0202465D02*
X0387795Y0202465D01*
X0387175Y0202465D02*
X0387175Y0206175D01*
X0387795Y0206175D01*
X0389625Y0204935D02*
X0389005Y0204325D01*
X0389005Y0203705D01*
X0391475Y0203705D01*
X0391475Y0204325D02*
X0390865Y0204935D01*
X0389625Y0204935D01*
X0389625Y0202465D02*
X0390865Y0202465D01*
X0391475Y0203085D01*
X0391475Y0204325D01*
D67*
X0389645Y0286465D02*
X0386035Y0286465D01*
X0384205Y0287365D02*
X0383305Y0286465D01*
X0381505Y0286465D01*
X0380605Y0287365D01*
X0380605Y0288275D01*
X0381505Y0289175D01*
X0383305Y0289175D01*
X0384205Y0290075D01*
X0384205Y0290975D01*
X0383305Y0291875D01*
X0381505Y0291875D01*
X0380605Y0290975D01*
X0378775Y0291875D02*
X0378775Y0286465D01*
X0378775Y0288275D02*
X0376065Y0288275D01*
X0375165Y0289175D01*
X0375165Y0290975D01*
X0376065Y0291875D01*
X0378775Y0291875D01*
X0373335Y0289175D02*
X0373335Y0287365D01*
X0372435Y0286465D01*
X0369725Y0286465D01*
X0369725Y0291875D01*
X0369725Y0290075D02*
X0372435Y0290075D01*
X0373335Y0289175D01*
X0367895Y0290075D02*
X0367895Y0287365D01*
X0366995Y0286465D01*
X0364285Y0286465D01*
X0364285Y0290075D01*
X0362455Y0290075D02*
X0361555Y0290075D01*
X0361555Y0286465D01*
X0362455Y0286465D02*
X0360655Y0286465D01*
X0358835Y0286465D02*
X0358835Y0290075D01*
X0356125Y0290075D01*
X0355225Y0289175D01*
X0355225Y0286465D01*
X0353395Y0287365D02*
X0352495Y0286465D01*
X0350685Y0286465D01*
X0349785Y0287365D01*
X0349785Y0289175D01*
X0350685Y0290075D01*
X0352495Y0290075D01*
X0353395Y0289175D01*
X0353395Y0287365D01*
X0347955Y0289175D02*
X0344345Y0289175D01*
X0342515Y0291875D02*
X0340715Y0290075D01*
X0338915Y0291875D01*
X0338915Y0286465D01*
X0337085Y0286465D02*
X0333475Y0286465D01*
X0335275Y0286465D02*
X0335275Y0291875D01*
X0337085Y0290075D01*
X0342515Y0291875D02*
X0342515Y0286465D01*
X0361555Y0291875D02*
X0361555Y0292775D01*
X0386035Y0291875D02*
X0389645Y0291875D01*
X0389645Y0286465D01*
X0389645Y0289175D02*
X0387845Y0289175D01*
D34*
X0370225Y0259775D03*
X0370225Y0258975D03*
X0364625Y0260575D03*
X0364625Y0278175D03*
X0381425Y0232575D03*
X0383825Y0230975D03*
D56*
X0381825Y0231775D03*
X0374625Y0250975D03*
X0374625Y0251775D03*
X0373825Y0254975D03*
X0373825Y0255775D03*
X0373825Y0256575D03*
X0369825Y0260575D03*
X0364225Y0263775D03*
X0357025Y0259775D03*
X0349825Y0267775D03*
X0349825Y0277375D03*
X0342625Y0268575D03*
D43*
X0356225Y0263775D03*
X0356225Y0260575D03*
X0380225Y0240575D03*
X0381025Y0241375D03*
X0382625Y0244575D03*
X0382625Y0245375D03*
X0382625Y0246175D03*
X0383425Y0246975D03*
X0384225Y0249375D03*
X0380225Y0233375D03*
D27*
X0379825Y0234175D03*
X0379025Y0234975D03*
X0379825Y0238975D03*
X0379825Y0239775D03*
X0383025Y0247775D03*
X0383825Y0248575D03*
X0384625Y0250175D03*
X0383825Y0253375D03*
X0383825Y0256575D03*
X0383025Y0257375D03*
X0383025Y0258175D03*
X0356625Y0261375D03*
X0356625Y0262175D03*
X0356625Y0262975D03*
D37*
X0379825Y0235775D03*
X0383825Y0255775D03*
X0381425Y0260575D03*
X0381425Y0261375D03*
X0381425Y0262175D03*
D69*
X0381825Y0259775D03*
X0382625Y0258975D03*
X0384225Y0254975D03*
X0384225Y0254175D03*
X0384225Y0252575D03*
X0384225Y0251775D03*
X0384225Y0250975D03*
X0379425Y0238175D03*
X0379425Y0237375D03*
X0379425Y0236575D03*
D74*
X0381425Y0242175D03*
X0364625Y0262175D03*
X0356625Y0264575D03*
D35*
X0349825Y0268575D03*
X0364225Y0262975D03*
X0365025Y0261375D03*
X0381825Y0243775D03*
X0381825Y0242975D03*
D42*
X0375025Y0252575D03*
X0370225Y0258175D03*
X0359825Y0278175D03*
X0356625Y0265375D03*
X0353425Y0277375D03*
X0342225Y0265375D03*
X0383025Y0270975D03*
D11*
X0385025Y0266175D03*
X0375425Y0263775D03*
X0373825Y0254175D03*
X0353825Y0269375D03*
X0341825Y0267775D03*
X0341825Y0266975D03*
X0341825Y0266175D03*
D60*
X0381025Y0263775D03*
X0381025Y0262975D03*
D21*
X0380225Y0264575D03*
X0378625Y0266175D03*
D25*
X0378225Y0266975D03*
X0379825Y0265375D03*
X0347025Y0269375D03*
D10*
X0376225Y0267775D03*
D17*
X0375825Y0268575D03*
D36*
X0373825Y0269375D03*
D59*
X0362625Y0270175D03*
D68*
X0360625Y0270975D03*
D30*
X0360625Y0271775D03*
D24*
X0361025Y0272575D03*
D58*
X0361425Y0273375D03*
D75*
X0360225Y0274175D03*
D45*
X0359825Y0274975D03*
D38*
X0360625Y0275775D03*
D14*
X0359425Y0276575D03*
D62*
X0361825Y0277375D03*
D67*
X0344385Y0225355D02*
X0342085Y0223815D01*
X0344385Y0225355D02*
X0342085Y0226885D01*
X0344385Y0228425D02*
X0344385Y0223815D01*
X0345915Y0223815D02*
X0345915Y0226125D01*
X0346685Y0226885D01*
X0348985Y0226885D01*
X0348985Y0223815D01*
X0350525Y0223815D02*
X0352055Y0223815D01*
X0351285Y0223815D02*
X0351285Y0226885D01*
X0352055Y0226885D01*
X0351285Y0228425D02*
X0351285Y0229185D01*
X0353595Y0226125D02*
X0353595Y0224585D01*
X0354355Y0223815D01*
X0356665Y0223815D01*
X0356665Y0222285D02*
X0356665Y0226885D01*
X0354355Y0226885D01*
X0353595Y0226125D01*
X0358195Y0226885D02*
X0360495Y0226885D01*
X0361265Y0226125D01*
X0361265Y0224585D01*
X0360495Y0223815D01*
X0358195Y0223815D01*
X0362795Y0223815D02*
X0364335Y0223815D01*
X0363565Y0223815D02*
X0363565Y0226885D01*
X0364335Y0226885D01*
X0363565Y0228425D02*
X0363565Y0229185D01*
X0365865Y0226885D02*
X0366635Y0226885D01*
X0368175Y0225355D01*
X0368175Y0226885D02*
X0368175Y0223815D01*
X0369705Y0223815D02*
X0370475Y0224585D01*
X0370475Y0227655D01*
X0371235Y0226885D02*
X0369705Y0226885D01*
X0372775Y0226885D02*
X0375075Y0226885D01*
X0375845Y0226125D01*
X0375845Y0224585D01*
X0375075Y0223815D01*
X0372775Y0223815D01*
X0377375Y0225355D02*
X0380445Y0225355D01*
X0380445Y0224585D02*
X0380445Y0226125D01*
X0379685Y0226885D01*
X0378145Y0226885D01*
X0377375Y0226125D01*
X0377375Y0225355D01*
X0378145Y0223815D02*
X0379685Y0223815D01*
X0380445Y0224585D01*
X0381985Y0223815D02*
X0383515Y0223815D01*
X0382745Y0223815D02*
X0382745Y0228425D01*
X0383515Y0228425D01*
X0385815Y0226885D02*
X0385055Y0226125D01*
X0385055Y0225355D01*
X0388125Y0225355D01*
X0388125Y0224585D02*
X0388125Y0226125D01*
X0387355Y0226885D01*
X0385815Y0226885D01*
X0385815Y0223815D02*
X0387355Y0223815D01*
X0388125Y0224585D01*
%ADD10C,0.00100*%
D10*
X0010000Y0010000D02*
X0010000Y0319545D01*
X0392825Y0319545D01*
X0392825Y0010000D01*
X0010000Y0010000D01*
M02*
