G75*
G70*
%OFA0B0*%
%FSLAX25Y25*%
%IPPOS*%
%LPD*%
%AMOC8*
5,1,8,0,0,1.08239X$1,22.5*
%
%ADD16C,0.02800*%
%ADD18C,0.05120*%
%ADD20C,0.06000*%
%ADD22C,0.01600*%
%ADD28C,0.01000*%
%ADD31OC8,0.06000*%
%ADD33C,0.12200*%
%ADD39C,0.05310*%
%ADD49C,0.05910*%
%ADD63R,0.05910X0.05910*%
X0010000Y0010000D02*
G75*
%LPD*%
D63*
X0025000Y0044110D03*
D49*
X0025000Y0034110D03*
X0035000Y0034110D03*
X0035000Y0044110D03*
X0045000Y0044110D03*
X0045000Y0034110D03*
X0055000Y0034110D03*
X0055000Y0044110D03*
D20*
X0015000Y0021480D02*
X0015000Y0015480D01*
X0025000Y0015480D02*
X0025000Y0021480D01*
X0035000Y0021480D02*
X0035000Y0015480D01*
X0045000Y0015480D02*
X0045000Y0021480D01*
D31*
X0065000Y0018480D03*
D18*
X0050140Y0145930D03*
X0031050Y0145930D03*
D39*
X0026420Y0152720D02*
X0026420Y0158030D01*
X0054770Y0158030D02*
X0054770Y0152720D01*
D33*
X0063550Y0147200D03*
X0017880Y0147200D03*
D28*
X0019380Y0116170D02*
X0020000Y0114920D01*
X0025000Y0109920D01*
X0025000Y0068480D01*
X0026070Y0068480D01*
X0026070Y0069110D01*
X0031880Y0057230D02*
X0032500Y0057230D01*
X0032500Y0074110D01*
X0047500Y0074110D01*
X0050630Y0070980D01*
X0050630Y0050980D01*
X0050000Y0050360D01*
X0050000Y0023480D01*
X0045000Y0018480D01*
X0040000Y0023480D02*
X0035000Y0018480D01*
X0040000Y0023480D02*
X0040000Y0039110D01*
X0045000Y0044110D01*
X0055000Y0044110D02*
X0055000Y0099300D01*
X0048750Y0105550D01*
X0045440Y0106460D02*
X0047900Y0108920D01*
X0047900Y0110390D01*
X0045440Y0106460D02*
X0045440Y0090220D01*
X0041990Y0086770D01*
X0040510Y0086770D01*
X0038550Y0088740D01*
X0038550Y0092190D01*
X0040020Y0093660D01*
X0040020Y0097600D02*
X0027720Y0109900D01*
X0027720Y0112360D01*
X0036580Y0121220D01*
X0022500Y0113050D02*
X0019380Y0116170D01*
X0019380Y0106800D02*
X0019380Y0058480D01*
X0030000Y0047860D01*
X0030000Y0039110D01*
X0025000Y0034110D01*
X0035000Y0054110D02*
X0031880Y0057230D01*
X0035000Y0054110D02*
X0035000Y0044110D01*
D16*
X0031880Y0057230D03*
X0026070Y0069110D03*
X0035650Y0077130D03*
X0035650Y0089730D03*
X0040020Y0093660D03*
X0040020Y0097600D03*
X0040000Y0101800D03*
X0047900Y0110390D03*
X0048750Y0105550D03*
X0057700Y0085230D03*
X0063100Y0099630D03*
X0048250Y0132930D03*
X0036580Y0121220D03*
X0030630Y0111170D03*
X0019380Y0106800D03*
X0019380Y0116170D03*
X0047800Y0052830D03*
D22*
X0046900Y0052830D01*
X0040150Y0046080D01*
X0040150Y0042480D01*
X0036550Y0038880D01*
X0032950Y0038880D01*
X0029800Y0035730D01*
X0029800Y0028980D01*
X0023050Y0028980D01*
X0019900Y0032130D01*
X0019900Y0036180D01*
X0024850Y0041130D01*
X0024850Y0043830D01*
X0025000Y0044110D01*
X0029800Y0028980D02*
X0029800Y0023130D01*
X0025300Y0018630D01*
X0025000Y0018480D01*
X0035650Y0077130D02*
X0035650Y0089730D01*
X0040000Y0101800D02*
X0030630Y0111170D01*
X0048250Y0114480D02*
X0063100Y0099630D01*
X0064900Y0097830D01*
X0064900Y0018630D01*
X0065000Y0018480D01*
X0055000Y0034380D02*
X0059950Y0039330D01*
X0059950Y0046080D01*
X0057700Y0048330D01*
X0057700Y0085230D01*
X0048250Y0114480D02*
X0048250Y0132930D01*
X0055000Y0034380D02*
X0055000Y0034110D01*
X0010000Y0166335D02*
G75*
%LPD*%
D63*
X0025000Y0200445D03*
D49*
X0025000Y0190445D03*
X0035000Y0190445D03*
X0035000Y0200445D03*
X0045000Y0200445D03*
X0045000Y0190445D03*
X0055000Y0190445D03*
X0055000Y0200445D03*
D20*
X0015000Y0177815D02*
X0015000Y0171815D01*
X0025000Y0171815D02*
X0025000Y0177815D01*
X0035000Y0177815D02*
X0035000Y0171815D01*
X0045000Y0171815D02*
X0045000Y0177815D01*
D31*
X0065000Y0174815D03*
D18*
X0050140Y0302265D03*
X0031050Y0302265D03*
D39*
X0026420Y0309055D02*
X0026420Y0314365D01*
X0054770Y0314365D02*
X0054770Y0309055D01*
D33*
X0063550Y0303535D03*
X0017880Y0303535D03*
D28*
X0019380Y0272505D02*
X0020000Y0271255D01*
X0025000Y0266255D01*
X0025000Y0224815D01*
X0026070Y0224815D01*
X0026070Y0225445D01*
X0031880Y0213565D02*
X0032500Y0213565D01*
X0032500Y0230445D01*
X0047500Y0230445D01*
X0050630Y0227315D01*
X0050630Y0207315D01*
X0050000Y0206695D01*
X0050000Y0179815D01*
X0045000Y0174815D01*
X0040000Y0179815D02*
X0035000Y0174815D01*
X0040000Y0179815D02*
X0040000Y0195445D01*
X0045000Y0200445D01*
X0055000Y0200445D02*
X0055000Y0255635D01*
X0048750Y0261885D01*
X0045440Y0262795D02*
X0047900Y0265255D01*
X0047900Y0266725D01*
X0045440Y0262795D02*
X0045440Y0246555D01*
X0041990Y0243105D01*
X0040510Y0243105D01*
X0038550Y0245075D01*
X0038550Y0248525D01*
X0040020Y0249995D01*
X0040020Y0253935D02*
X0027720Y0266235D01*
X0027720Y0268695D01*
X0036580Y0277555D01*
X0022500Y0269385D02*
X0019380Y0272505D01*
X0019380Y0263135D02*
X0019380Y0214815D01*
X0030000Y0204195D01*
X0030000Y0195445D01*
X0025000Y0190445D01*
X0035000Y0210445D02*
X0031880Y0213565D01*
X0035000Y0210445D02*
X0035000Y0200445D01*
D16*
X0031880Y0213565D03*
X0026070Y0225445D03*
X0035650Y0233465D03*
X0035650Y0246065D03*
X0040020Y0249995D03*
X0040020Y0253935D03*
X0040000Y0258135D03*
X0047900Y0266725D03*
X0048750Y0261885D03*
X0057700Y0241565D03*
X0063100Y0255965D03*
X0048250Y0289265D03*
X0036580Y0277555D03*
X0030630Y0267505D03*
X0019380Y0263135D03*
X0019380Y0272505D03*
X0047800Y0209165D03*
D22*
X0046900Y0209165D01*
X0040150Y0202415D01*
X0040150Y0198815D01*
X0036550Y0195215D01*
X0032950Y0195215D01*
X0029800Y0192065D01*
X0029800Y0185315D01*
X0023050Y0185315D01*
X0019900Y0188465D01*
X0019900Y0192515D01*
X0024850Y0197465D01*
X0024850Y0200165D01*
X0025000Y0200445D01*
X0029800Y0185315D02*
X0029800Y0179465D01*
X0025300Y0174965D01*
X0025000Y0174815D01*
X0035650Y0233465D02*
X0035650Y0246065D01*
X0040000Y0258135D02*
X0030630Y0267505D01*
X0048250Y0270815D02*
X0063100Y0255965D01*
X0064900Y0254165D01*
X0064900Y0174965D01*
X0065000Y0174815D01*
X0055000Y0190715D02*
X0059950Y0195665D01*
X0059950Y0202415D01*
X0057700Y0204665D01*
X0057700Y0241565D01*
X0048250Y0270815D02*
X0048250Y0289265D01*
X0055000Y0190715D02*
X0055000Y0190445D01*
X0074325Y0010000D02*
G75*
%LPD*%
D63*
X0089325Y0044110D03*
D49*
X0089325Y0034110D03*
X0099325Y0034110D03*
X0099325Y0044110D03*
X0109325Y0044110D03*
X0109325Y0034110D03*
X0119325Y0034110D03*
X0119325Y0044110D03*
D20*
X0079325Y0021480D02*
X0079325Y0015480D01*
X0089325Y0015480D02*
X0089325Y0021480D01*
X0099325Y0021480D02*
X0099325Y0015480D01*
X0109325Y0015480D02*
X0109325Y0021480D01*
D31*
X0129325Y0018480D03*
D18*
X0114465Y0145930D03*
X0095375Y0145930D03*
D39*
X0090745Y0152720D02*
X0090745Y0158030D01*
X0119095Y0158030D02*
X0119095Y0152720D01*
D33*
X0127875Y0147200D03*
X0082205Y0147200D03*
D28*
X0083705Y0116170D02*
X0084325Y0114920D01*
X0089325Y0109920D01*
X0089325Y0068480D01*
X0090395Y0068480D01*
X0090395Y0069110D01*
X0096205Y0057230D02*
X0096825Y0057230D01*
X0096825Y0074110D01*
X0111825Y0074110D01*
X0114955Y0070980D01*
X0114955Y0050980D01*
X0114325Y0050360D01*
X0114325Y0023480D01*
X0109325Y0018480D01*
X0104325Y0023480D02*
X0099325Y0018480D01*
X0104325Y0023480D02*
X0104325Y0039110D01*
X0109325Y0044110D01*
X0119325Y0044110D02*
X0119325Y0099300D01*
X0113075Y0105550D01*
X0109765Y0106460D02*
X0112225Y0108920D01*
X0112225Y0110390D01*
X0109765Y0106460D02*
X0109765Y0090220D01*
X0106315Y0086770D01*
X0104835Y0086770D01*
X0102875Y0088740D01*
X0102875Y0092190D01*
X0104345Y0093660D01*
X0104345Y0097600D02*
X0092045Y0109900D01*
X0092045Y0112360D01*
X0100905Y0121220D01*
X0086825Y0113050D02*
X0083705Y0116170D01*
X0083705Y0106800D02*
X0083705Y0058480D01*
X0094325Y0047860D01*
X0094325Y0039110D01*
X0089325Y0034110D01*
X0099325Y0054110D02*
X0096205Y0057230D01*
X0099325Y0054110D02*
X0099325Y0044110D01*
D16*
X0096205Y0057230D03*
X0090395Y0069110D03*
X0099975Y0077130D03*
X0099975Y0089730D03*
X0104345Y0093660D03*
X0104345Y0097600D03*
X0104325Y0101800D03*
X0112225Y0110390D03*
X0113075Y0105550D03*
X0122025Y0085230D03*
X0127425Y0099630D03*
X0112575Y0132930D03*
X0100905Y0121220D03*
X0094955Y0111170D03*
X0083705Y0106800D03*
X0083705Y0116170D03*
X0112125Y0052830D03*
D22*
X0111225Y0052830D01*
X0104475Y0046080D01*
X0104475Y0042480D01*
X0100875Y0038880D01*
X0097275Y0038880D01*
X0094125Y0035730D01*
X0094125Y0028980D01*
X0087375Y0028980D01*
X0084225Y0032130D01*
X0084225Y0036180D01*
X0089175Y0041130D01*
X0089175Y0043830D01*
X0089325Y0044110D01*
X0094125Y0028980D02*
X0094125Y0023130D01*
X0089625Y0018630D01*
X0089325Y0018480D01*
X0099975Y0077130D02*
X0099975Y0089730D01*
X0104325Y0101800D02*
X0094955Y0111170D01*
X0112575Y0114480D02*
X0127425Y0099630D01*
X0129225Y0097830D01*
X0129225Y0018630D01*
X0129325Y0018480D01*
X0119325Y0034380D02*
X0124275Y0039330D01*
X0124275Y0046080D01*
X0122025Y0048330D01*
X0122025Y0085230D01*
X0112575Y0114480D02*
X0112575Y0132930D01*
X0119325Y0034380D02*
X0119325Y0034110D01*
X0074325Y0166335D02*
G75*
%LPD*%
D63*
X0089325Y0200445D03*
D49*
X0089325Y0190445D03*
X0099325Y0190445D03*
X0099325Y0200445D03*
X0109325Y0200445D03*
X0109325Y0190445D03*
X0119325Y0190445D03*
X0119325Y0200445D03*
D20*
X0079325Y0177815D02*
X0079325Y0171815D01*
X0089325Y0171815D02*
X0089325Y0177815D01*
X0099325Y0177815D02*
X0099325Y0171815D01*
X0109325Y0171815D02*
X0109325Y0177815D01*
D31*
X0129325Y0174815D03*
D18*
X0114465Y0302265D03*
X0095375Y0302265D03*
D39*
X0090745Y0309055D02*
X0090745Y0314365D01*
X0119095Y0314365D02*
X0119095Y0309055D01*
D33*
X0127875Y0303535D03*
X0082205Y0303535D03*
D28*
X0083705Y0272505D02*
X0084325Y0271255D01*
X0089325Y0266255D01*
X0089325Y0224815D01*
X0090395Y0224815D01*
X0090395Y0225445D01*
X0096205Y0213565D02*
X0096825Y0213565D01*
X0096825Y0230445D01*
X0111825Y0230445D01*
X0114955Y0227315D01*
X0114955Y0207315D01*
X0114325Y0206695D01*
X0114325Y0179815D01*
X0109325Y0174815D01*
X0104325Y0179815D02*
X0099325Y0174815D01*
X0104325Y0179815D02*
X0104325Y0195445D01*
X0109325Y0200445D01*
X0119325Y0200445D02*
X0119325Y0255635D01*
X0113075Y0261885D01*
X0109765Y0262795D02*
X0112225Y0265255D01*
X0112225Y0266725D01*
X0109765Y0262795D02*
X0109765Y0246555D01*
X0106315Y0243105D01*
X0104835Y0243105D01*
X0102875Y0245075D01*
X0102875Y0248525D01*
X0104345Y0249995D01*
X0104345Y0253935D02*
X0092045Y0266235D01*
X0092045Y0268695D01*
X0100905Y0277555D01*
X0086825Y0269385D02*
X0083705Y0272505D01*
X0083705Y0263135D02*
X0083705Y0214815D01*
X0094325Y0204195D01*
X0094325Y0195445D01*
X0089325Y0190445D01*
X0099325Y0210445D02*
X0096205Y0213565D01*
X0099325Y0210445D02*
X0099325Y0200445D01*
D16*
X0096205Y0213565D03*
X0090395Y0225445D03*
X0099975Y0233465D03*
X0099975Y0246065D03*
X0104345Y0249995D03*
X0104345Y0253935D03*
X0104325Y0258135D03*
X0112225Y0266725D03*
X0113075Y0261885D03*
X0122025Y0241565D03*
X0127425Y0255965D03*
X0112575Y0289265D03*
X0100905Y0277555D03*
X0094955Y0267505D03*
X0083705Y0263135D03*
X0083705Y0272505D03*
X0112125Y0209165D03*
D22*
X0111225Y0209165D01*
X0104475Y0202415D01*
X0104475Y0198815D01*
X0100875Y0195215D01*
X0097275Y0195215D01*
X0094125Y0192065D01*
X0094125Y0185315D01*
X0087375Y0185315D01*
X0084225Y0188465D01*
X0084225Y0192515D01*
X0089175Y0197465D01*
X0089175Y0200165D01*
X0089325Y0200445D01*
X0094125Y0185315D02*
X0094125Y0179465D01*
X0089625Y0174965D01*
X0089325Y0174815D01*
X0099975Y0233465D02*
X0099975Y0246065D01*
X0104325Y0258135D02*
X0094955Y0267505D01*
X0112575Y0270815D02*
X0127425Y0255965D01*
X0129225Y0254165D01*
X0129225Y0174965D01*
X0129325Y0174815D01*
X0119325Y0190715D02*
X0124275Y0195665D01*
X0124275Y0202415D01*
X0122025Y0204665D01*
X0122025Y0241565D01*
X0112575Y0270815D02*
X0112575Y0289265D01*
X0119325Y0190715D02*
X0119325Y0190445D01*
X0138650Y0010000D02*
G75*
%LPD*%
D63*
X0153650Y0044110D03*
D49*
X0153650Y0034110D03*
X0163650Y0034110D03*
X0163650Y0044110D03*
X0173650Y0044110D03*
X0173650Y0034110D03*
X0183650Y0034110D03*
X0183650Y0044110D03*
D20*
X0143650Y0021480D02*
X0143650Y0015480D01*
X0153650Y0015480D02*
X0153650Y0021480D01*
X0163650Y0021480D02*
X0163650Y0015480D01*
X0173650Y0015480D02*
X0173650Y0021480D01*
D31*
X0193650Y0018480D03*
D18*
X0178790Y0145930D03*
X0159700Y0145930D03*
D39*
X0155070Y0152720D02*
X0155070Y0158030D01*
X0183420Y0158030D02*
X0183420Y0152720D01*
D33*
X0192200Y0147200D03*
X0146530Y0147200D03*
D28*
X0148030Y0116170D02*
X0148650Y0114920D01*
X0153650Y0109920D01*
X0153650Y0068480D01*
X0154720Y0068480D01*
X0154720Y0069110D01*
X0160530Y0057230D02*
X0161150Y0057230D01*
X0161150Y0074110D01*
X0176150Y0074110D01*
X0179280Y0070980D01*
X0179280Y0050980D01*
X0178650Y0050360D01*
X0178650Y0023480D01*
X0173650Y0018480D01*
X0168650Y0023480D02*
X0163650Y0018480D01*
X0168650Y0023480D02*
X0168650Y0039110D01*
X0173650Y0044110D01*
X0183650Y0044110D02*
X0183650Y0099300D01*
X0177400Y0105550D01*
X0174090Y0106460D02*
X0176550Y0108920D01*
X0176550Y0110390D01*
X0174090Y0106460D02*
X0174090Y0090220D01*
X0170640Y0086770D01*
X0169160Y0086770D01*
X0167200Y0088740D01*
X0167200Y0092190D01*
X0168670Y0093660D01*
X0168670Y0097600D02*
X0156370Y0109900D01*
X0156370Y0112360D01*
X0165230Y0121220D01*
X0151150Y0113050D02*
X0148030Y0116170D01*
X0148030Y0106800D02*
X0148030Y0058480D01*
X0158650Y0047860D01*
X0158650Y0039110D01*
X0153650Y0034110D01*
X0163650Y0054110D02*
X0160530Y0057230D01*
X0163650Y0054110D02*
X0163650Y0044110D01*
D16*
X0160530Y0057230D03*
X0154720Y0069110D03*
X0164300Y0077130D03*
X0164300Y0089730D03*
X0168670Y0093660D03*
X0168670Y0097600D03*
X0168650Y0101800D03*
X0176550Y0110390D03*
X0177400Y0105550D03*
X0186350Y0085230D03*
X0191750Y0099630D03*
X0176900Y0132930D03*
X0165230Y0121220D03*
X0159280Y0111170D03*
X0148030Y0106800D03*
X0148030Y0116170D03*
X0176450Y0052830D03*
D22*
X0175550Y0052830D01*
X0168800Y0046080D01*
X0168800Y0042480D01*
X0165200Y0038880D01*
X0161600Y0038880D01*
X0158450Y0035730D01*
X0158450Y0028980D01*
X0151700Y0028980D01*
X0148550Y0032130D01*
X0148550Y0036180D01*
X0153500Y0041130D01*
X0153500Y0043830D01*
X0153650Y0044110D01*
X0158450Y0028980D02*
X0158450Y0023130D01*
X0153950Y0018630D01*
X0153650Y0018480D01*
X0164300Y0077130D02*
X0164300Y0089730D01*
X0168650Y0101800D02*
X0159280Y0111170D01*
X0176900Y0114480D02*
X0191750Y0099630D01*
X0193550Y0097830D01*
X0193550Y0018630D01*
X0193650Y0018480D01*
X0183650Y0034380D02*
X0188600Y0039330D01*
X0188600Y0046080D01*
X0186350Y0048330D01*
X0186350Y0085230D01*
X0176900Y0114480D02*
X0176900Y0132930D01*
X0183650Y0034380D02*
X0183650Y0034110D01*
X0138650Y0166335D02*
G75*
%LPD*%
D63*
X0153650Y0200445D03*
D49*
X0153650Y0190445D03*
X0163650Y0190445D03*
X0163650Y0200445D03*
X0173650Y0200445D03*
X0173650Y0190445D03*
X0183650Y0190445D03*
X0183650Y0200445D03*
D20*
X0143650Y0177815D02*
X0143650Y0171815D01*
X0153650Y0171815D02*
X0153650Y0177815D01*
X0163650Y0177815D02*
X0163650Y0171815D01*
X0173650Y0171815D02*
X0173650Y0177815D01*
D31*
X0193650Y0174815D03*
D18*
X0178790Y0302265D03*
X0159700Y0302265D03*
D39*
X0155070Y0309055D02*
X0155070Y0314365D01*
X0183420Y0314365D02*
X0183420Y0309055D01*
D33*
X0192200Y0303535D03*
X0146530Y0303535D03*
D28*
X0148030Y0272505D02*
X0148650Y0271255D01*
X0153650Y0266255D01*
X0153650Y0224815D01*
X0154720Y0224815D01*
X0154720Y0225445D01*
X0160530Y0213565D02*
X0161150Y0213565D01*
X0161150Y0230445D01*
X0176150Y0230445D01*
X0179280Y0227315D01*
X0179280Y0207315D01*
X0178650Y0206695D01*
X0178650Y0179815D01*
X0173650Y0174815D01*
X0168650Y0179815D02*
X0163650Y0174815D01*
X0168650Y0179815D02*
X0168650Y0195445D01*
X0173650Y0200445D01*
X0183650Y0200445D02*
X0183650Y0255635D01*
X0177400Y0261885D01*
X0174090Y0262795D02*
X0176550Y0265255D01*
X0176550Y0266725D01*
X0174090Y0262795D02*
X0174090Y0246555D01*
X0170640Y0243105D01*
X0169160Y0243105D01*
X0167200Y0245075D01*
X0167200Y0248525D01*
X0168670Y0249995D01*
X0168670Y0253935D02*
X0156370Y0266235D01*
X0156370Y0268695D01*
X0165230Y0277555D01*
X0151150Y0269385D02*
X0148030Y0272505D01*
X0148030Y0263135D02*
X0148030Y0214815D01*
X0158650Y0204195D01*
X0158650Y0195445D01*
X0153650Y0190445D01*
X0163650Y0210445D02*
X0160530Y0213565D01*
X0163650Y0210445D02*
X0163650Y0200445D01*
D16*
X0160530Y0213565D03*
X0154720Y0225445D03*
X0164300Y0233465D03*
X0164300Y0246065D03*
X0168670Y0249995D03*
X0168670Y0253935D03*
X0168650Y0258135D03*
X0176550Y0266725D03*
X0177400Y0261885D03*
X0186350Y0241565D03*
X0191750Y0255965D03*
X0176900Y0289265D03*
X0165230Y0277555D03*
X0159280Y0267505D03*
X0148030Y0263135D03*
X0148030Y0272505D03*
X0176450Y0209165D03*
D22*
X0175550Y0209165D01*
X0168800Y0202415D01*
X0168800Y0198815D01*
X0165200Y0195215D01*
X0161600Y0195215D01*
X0158450Y0192065D01*
X0158450Y0185315D01*
X0151700Y0185315D01*
X0148550Y0188465D01*
X0148550Y0192515D01*
X0153500Y0197465D01*
X0153500Y0200165D01*
X0153650Y0200445D01*
X0158450Y0185315D02*
X0158450Y0179465D01*
X0153950Y0174965D01*
X0153650Y0174815D01*
X0164300Y0233465D02*
X0164300Y0246065D01*
X0168650Y0258135D02*
X0159280Y0267505D01*
X0176900Y0270815D02*
X0191750Y0255965D01*
X0193550Y0254165D01*
X0193550Y0174965D01*
X0193650Y0174815D01*
X0183650Y0190715D02*
X0188600Y0195665D01*
X0188600Y0202415D01*
X0186350Y0204665D01*
X0186350Y0241565D01*
X0176900Y0270815D02*
X0176900Y0289265D01*
X0183650Y0190715D02*
X0183650Y0190445D01*
X0202975Y0010000D02*
G75*
%LPD*%
D63*
X0217975Y0044110D03*
D49*
X0217975Y0034110D03*
X0227975Y0034110D03*
X0227975Y0044110D03*
X0237975Y0044110D03*
X0237975Y0034110D03*
X0247975Y0034110D03*
X0247975Y0044110D03*
D20*
X0207975Y0021480D02*
X0207975Y0015480D01*
X0217975Y0015480D02*
X0217975Y0021480D01*
X0227975Y0021480D02*
X0227975Y0015480D01*
X0237975Y0015480D02*
X0237975Y0021480D01*
D31*
X0257975Y0018480D03*
D18*
X0243115Y0145930D03*
X0224025Y0145930D03*
D39*
X0219395Y0152720D02*
X0219395Y0158030D01*
X0247745Y0158030D02*
X0247745Y0152720D01*
D33*
X0256525Y0147200D03*
X0210855Y0147200D03*
D28*
X0212355Y0116170D02*
X0212975Y0114920D01*
X0217975Y0109920D01*
X0217975Y0068480D01*
X0219045Y0068480D01*
X0219045Y0069110D01*
X0224855Y0057230D02*
X0225475Y0057230D01*
X0225475Y0074110D01*
X0240475Y0074110D01*
X0243605Y0070980D01*
X0243605Y0050980D01*
X0242975Y0050360D01*
X0242975Y0023480D01*
X0237975Y0018480D01*
X0232975Y0023480D02*
X0227975Y0018480D01*
X0232975Y0023480D02*
X0232975Y0039110D01*
X0237975Y0044110D01*
X0247975Y0044110D02*
X0247975Y0099300D01*
X0241725Y0105550D01*
X0238415Y0106460D02*
X0240875Y0108920D01*
X0240875Y0110390D01*
X0238415Y0106460D02*
X0238415Y0090220D01*
X0234965Y0086770D01*
X0233485Y0086770D01*
X0231525Y0088740D01*
X0231525Y0092190D01*
X0232995Y0093660D01*
X0232995Y0097600D02*
X0220695Y0109900D01*
X0220695Y0112360D01*
X0229555Y0121220D01*
X0215475Y0113050D02*
X0212355Y0116170D01*
X0212355Y0106800D02*
X0212355Y0058480D01*
X0222975Y0047860D01*
X0222975Y0039110D01*
X0217975Y0034110D01*
X0227975Y0054110D02*
X0224855Y0057230D01*
X0227975Y0054110D02*
X0227975Y0044110D01*
D16*
X0224855Y0057230D03*
X0219045Y0069110D03*
X0228625Y0077130D03*
X0228625Y0089730D03*
X0232995Y0093660D03*
X0232995Y0097600D03*
X0232975Y0101800D03*
X0240875Y0110390D03*
X0241725Y0105550D03*
X0250675Y0085230D03*
X0256075Y0099630D03*
X0241225Y0132930D03*
X0229555Y0121220D03*
X0223605Y0111170D03*
X0212355Y0106800D03*
X0212355Y0116170D03*
X0240775Y0052830D03*
D22*
X0239875Y0052830D01*
X0233125Y0046080D01*
X0233125Y0042480D01*
X0229525Y0038880D01*
X0225925Y0038880D01*
X0222775Y0035730D01*
X0222775Y0028980D01*
X0216025Y0028980D01*
X0212875Y0032130D01*
X0212875Y0036180D01*
X0217825Y0041130D01*
X0217825Y0043830D01*
X0217975Y0044110D01*
X0222775Y0028980D02*
X0222775Y0023130D01*
X0218275Y0018630D01*
X0217975Y0018480D01*
X0228625Y0077130D02*
X0228625Y0089730D01*
X0232975Y0101800D02*
X0223605Y0111170D01*
X0241225Y0114480D02*
X0256075Y0099630D01*
X0257875Y0097830D01*
X0257875Y0018630D01*
X0257975Y0018480D01*
X0247975Y0034380D02*
X0252925Y0039330D01*
X0252925Y0046080D01*
X0250675Y0048330D01*
X0250675Y0085230D01*
X0241225Y0114480D02*
X0241225Y0132930D01*
X0247975Y0034380D02*
X0247975Y0034110D01*
X0202975Y0166335D02*
G75*
%LPD*%
D63*
X0217975Y0200445D03*
D49*
X0217975Y0190445D03*
X0227975Y0190445D03*
X0227975Y0200445D03*
X0237975Y0200445D03*
X0237975Y0190445D03*
X0247975Y0190445D03*
X0247975Y0200445D03*
D20*
X0207975Y0177815D02*
X0207975Y0171815D01*
X0217975Y0171815D02*
X0217975Y0177815D01*
X0227975Y0177815D02*
X0227975Y0171815D01*
X0237975Y0171815D02*
X0237975Y0177815D01*
D31*
X0257975Y0174815D03*
D18*
X0243115Y0302265D03*
X0224025Y0302265D03*
D39*
X0219395Y0309055D02*
X0219395Y0314365D01*
X0247745Y0314365D02*
X0247745Y0309055D01*
D33*
X0256525Y0303535D03*
X0210855Y0303535D03*
D28*
X0212355Y0272505D02*
X0212975Y0271255D01*
X0217975Y0266255D01*
X0217975Y0224815D01*
X0219045Y0224815D01*
X0219045Y0225445D01*
X0224855Y0213565D02*
X0225475Y0213565D01*
X0225475Y0230445D01*
X0240475Y0230445D01*
X0243605Y0227315D01*
X0243605Y0207315D01*
X0242975Y0206695D01*
X0242975Y0179815D01*
X0237975Y0174815D01*
X0232975Y0179815D02*
X0227975Y0174815D01*
X0232975Y0179815D02*
X0232975Y0195445D01*
X0237975Y0200445D01*
X0247975Y0200445D02*
X0247975Y0255635D01*
X0241725Y0261885D01*
X0238415Y0262795D02*
X0240875Y0265255D01*
X0240875Y0266725D01*
X0238415Y0262795D02*
X0238415Y0246555D01*
X0234965Y0243105D01*
X0233485Y0243105D01*
X0231525Y0245075D01*
X0231525Y0248525D01*
X0232995Y0249995D01*
X0232995Y0253935D02*
X0220695Y0266235D01*
X0220695Y0268695D01*
X0229555Y0277555D01*
X0215475Y0269385D02*
X0212355Y0272505D01*
X0212355Y0263135D02*
X0212355Y0214815D01*
X0222975Y0204195D01*
X0222975Y0195445D01*
X0217975Y0190445D01*
X0227975Y0210445D02*
X0224855Y0213565D01*
X0227975Y0210445D02*
X0227975Y0200445D01*
D16*
X0224855Y0213565D03*
X0219045Y0225445D03*
X0228625Y0233465D03*
X0228625Y0246065D03*
X0232995Y0249995D03*
X0232995Y0253935D03*
X0232975Y0258135D03*
X0240875Y0266725D03*
X0241725Y0261885D03*
X0250675Y0241565D03*
X0256075Y0255965D03*
X0241225Y0289265D03*
X0229555Y0277555D03*
X0223605Y0267505D03*
X0212355Y0263135D03*
X0212355Y0272505D03*
X0240775Y0209165D03*
D22*
X0239875Y0209165D01*
X0233125Y0202415D01*
X0233125Y0198815D01*
X0229525Y0195215D01*
X0225925Y0195215D01*
X0222775Y0192065D01*
X0222775Y0185315D01*
X0216025Y0185315D01*
X0212875Y0188465D01*
X0212875Y0192515D01*
X0217825Y0197465D01*
X0217825Y0200165D01*
X0217975Y0200445D01*
X0222775Y0185315D02*
X0222775Y0179465D01*
X0218275Y0174965D01*
X0217975Y0174815D01*
X0228625Y0233465D02*
X0228625Y0246065D01*
X0232975Y0258135D02*
X0223605Y0267505D01*
X0241225Y0270815D02*
X0256075Y0255965D01*
X0257875Y0254165D01*
X0257875Y0174965D01*
X0257975Y0174815D01*
X0247975Y0190715D02*
X0252925Y0195665D01*
X0252925Y0202415D01*
X0250675Y0204665D01*
X0250675Y0241565D01*
X0241225Y0270815D02*
X0241225Y0289265D01*
X0247975Y0190715D02*
X0247975Y0190445D01*
X0267300Y0010000D02*
G75*
%LPD*%
D63*
X0282300Y0044110D03*
D49*
X0282300Y0034110D03*
X0292300Y0034110D03*
X0292300Y0044110D03*
X0302300Y0044110D03*
X0302300Y0034110D03*
X0312300Y0034110D03*
X0312300Y0044110D03*
D20*
X0272300Y0021480D02*
X0272300Y0015480D01*
X0282300Y0015480D02*
X0282300Y0021480D01*
X0292300Y0021480D02*
X0292300Y0015480D01*
X0302300Y0015480D02*
X0302300Y0021480D01*
D31*
X0322300Y0018480D03*
D18*
X0307440Y0145930D03*
X0288350Y0145930D03*
D39*
X0283720Y0152720D02*
X0283720Y0158030D01*
X0312070Y0158030D02*
X0312070Y0152720D01*
D33*
X0320850Y0147200D03*
X0275180Y0147200D03*
D28*
X0276680Y0116170D02*
X0277300Y0114920D01*
X0282300Y0109920D01*
X0282300Y0068480D01*
X0283370Y0068480D01*
X0283370Y0069110D01*
X0289180Y0057230D02*
X0289800Y0057230D01*
X0289800Y0074110D01*
X0304800Y0074110D01*
X0307930Y0070980D01*
X0307930Y0050980D01*
X0307300Y0050360D01*
X0307300Y0023480D01*
X0302300Y0018480D01*
X0297300Y0023480D02*
X0292300Y0018480D01*
X0297300Y0023480D02*
X0297300Y0039110D01*
X0302300Y0044110D01*
X0312300Y0044110D02*
X0312300Y0099300D01*
X0306050Y0105550D01*
X0302740Y0106460D02*
X0305200Y0108920D01*
X0305200Y0110390D01*
X0302740Y0106460D02*
X0302740Y0090220D01*
X0299290Y0086770D01*
X0297810Y0086770D01*
X0295850Y0088740D01*
X0295850Y0092190D01*
X0297320Y0093660D01*
X0297320Y0097600D02*
X0285020Y0109900D01*
X0285020Y0112360D01*
X0293880Y0121220D01*
X0279800Y0113050D02*
X0276680Y0116170D01*
X0276680Y0106800D02*
X0276680Y0058480D01*
X0287300Y0047860D01*
X0287300Y0039110D01*
X0282300Y0034110D01*
X0292300Y0054110D02*
X0289180Y0057230D01*
X0292300Y0054110D02*
X0292300Y0044110D01*
D16*
X0289180Y0057230D03*
X0283370Y0069110D03*
X0292950Y0077130D03*
X0292950Y0089730D03*
X0297320Y0093660D03*
X0297320Y0097600D03*
X0297300Y0101800D03*
X0305200Y0110390D03*
X0306050Y0105550D03*
X0315000Y0085230D03*
X0320400Y0099630D03*
X0305550Y0132930D03*
X0293880Y0121220D03*
X0287930Y0111170D03*
X0276680Y0106800D03*
X0276680Y0116170D03*
X0305100Y0052830D03*
D22*
X0304200Y0052830D01*
X0297450Y0046080D01*
X0297450Y0042480D01*
X0293850Y0038880D01*
X0290250Y0038880D01*
X0287100Y0035730D01*
X0287100Y0028980D01*
X0280350Y0028980D01*
X0277200Y0032130D01*
X0277200Y0036180D01*
X0282150Y0041130D01*
X0282150Y0043830D01*
X0282300Y0044110D01*
X0287100Y0028980D02*
X0287100Y0023130D01*
X0282600Y0018630D01*
X0282300Y0018480D01*
X0292950Y0077130D02*
X0292950Y0089730D01*
X0297300Y0101800D02*
X0287930Y0111170D01*
X0305550Y0114480D02*
X0320400Y0099630D01*
X0322200Y0097830D01*
X0322200Y0018630D01*
X0322300Y0018480D01*
X0312300Y0034380D02*
X0317250Y0039330D01*
X0317250Y0046080D01*
X0315000Y0048330D01*
X0315000Y0085230D01*
X0305550Y0114480D02*
X0305550Y0132930D01*
X0312300Y0034380D02*
X0312300Y0034110D01*
X0267300Y0166335D02*
G75*
%LPD*%
D63*
X0282300Y0200445D03*
D49*
X0282300Y0190445D03*
X0292300Y0190445D03*
X0292300Y0200445D03*
X0302300Y0200445D03*
X0302300Y0190445D03*
X0312300Y0190445D03*
X0312300Y0200445D03*
D20*
X0272300Y0177815D02*
X0272300Y0171815D01*
X0282300Y0171815D02*
X0282300Y0177815D01*
X0292300Y0177815D02*
X0292300Y0171815D01*
X0302300Y0171815D02*
X0302300Y0177815D01*
D31*
X0322300Y0174815D03*
D18*
X0307440Y0302265D03*
X0288350Y0302265D03*
D39*
X0283720Y0309055D02*
X0283720Y0314365D01*
X0312070Y0314365D02*
X0312070Y0309055D01*
D33*
X0320850Y0303535D03*
X0275180Y0303535D03*
D28*
X0276680Y0272505D02*
X0277300Y0271255D01*
X0282300Y0266255D01*
X0282300Y0224815D01*
X0283370Y0224815D01*
X0283370Y0225445D01*
X0289180Y0213565D02*
X0289800Y0213565D01*
X0289800Y0230445D01*
X0304800Y0230445D01*
X0307930Y0227315D01*
X0307930Y0207315D01*
X0307300Y0206695D01*
X0307300Y0179815D01*
X0302300Y0174815D01*
X0297300Y0179815D02*
X0292300Y0174815D01*
X0297300Y0179815D02*
X0297300Y0195445D01*
X0302300Y0200445D01*
X0312300Y0200445D02*
X0312300Y0255635D01*
X0306050Y0261885D01*
X0302740Y0262795D02*
X0305200Y0265255D01*
X0305200Y0266725D01*
X0302740Y0262795D02*
X0302740Y0246555D01*
X0299290Y0243105D01*
X0297810Y0243105D01*
X0295850Y0245075D01*
X0295850Y0248525D01*
X0297320Y0249995D01*
X0297320Y0253935D02*
X0285020Y0266235D01*
X0285020Y0268695D01*
X0293880Y0277555D01*
X0279800Y0269385D02*
X0276680Y0272505D01*
X0276680Y0263135D02*
X0276680Y0214815D01*
X0287300Y0204195D01*
X0287300Y0195445D01*
X0282300Y0190445D01*
X0292300Y0210445D02*
X0289180Y0213565D01*
X0292300Y0210445D02*
X0292300Y0200445D01*
D16*
X0289180Y0213565D03*
X0283370Y0225445D03*
X0292950Y0233465D03*
X0292950Y0246065D03*
X0297320Y0249995D03*
X0297320Y0253935D03*
X0297300Y0258135D03*
X0305200Y0266725D03*
X0306050Y0261885D03*
X0315000Y0241565D03*
X0320400Y0255965D03*
X0305550Y0289265D03*
X0293880Y0277555D03*
X0287930Y0267505D03*
X0276680Y0263135D03*
X0276680Y0272505D03*
X0305100Y0209165D03*
D22*
X0304200Y0209165D01*
X0297450Y0202415D01*
X0297450Y0198815D01*
X0293850Y0195215D01*
X0290250Y0195215D01*
X0287100Y0192065D01*
X0287100Y0185315D01*
X0280350Y0185315D01*
X0277200Y0188465D01*
X0277200Y0192515D01*
X0282150Y0197465D01*
X0282150Y0200165D01*
X0282300Y0200445D01*
X0287100Y0185315D02*
X0287100Y0179465D01*
X0282600Y0174965D01*
X0282300Y0174815D01*
X0292950Y0233465D02*
X0292950Y0246065D01*
X0297300Y0258135D02*
X0287930Y0267505D01*
X0305550Y0270815D02*
X0320400Y0255965D01*
X0322200Y0254165D01*
X0322200Y0174965D01*
X0322300Y0174815D01*
X0312300Y0190715D02*
X0317250Y0195665D01*
X0317250Y0202415D01*
X0315000Y0204665D01*
X0315000Y0241565D01*
X0305550Y0270815D02*
X0305550Y0289265D01*
X0312300Y0190715D02*
X0312300Y0190445D01*
X0331625Y0010000D02*
G75*
%LPD*%
D63*
X0346625Y0044110D03*
D49*
X0346625Y0034110D03*
X0356625Y0034110D03*
X0356625Y0044110D03*
X0366625Y0044110D03*
X0366625Y0034110D03*
X0376625Y0034110D03*
X0376625Y0044110D03*
D20*
X0336625Y0021480D02*
X0336625Y0015480D01*
X0346625Y0015480D02*
X0346625Y0021480D01*
X0356625Y0021480D02*
X0356625Y0015480D01*
X0366625Y0015480D02*
X0366625Y0021480D01*
D31*
X0386625Y0018480D03*
D18*
X0371765Y0145930D03*
X0352675Y0145930D03*
D39*
X0348045Y0152720D02*
X0348045Y0158030D01*
X0376395Y0158030D02*
X0376395Y0152720D01*
D33*
X0385175Y0147200D03*
X0339505Y0147200D03*
D28*
X0341005Y0116170D02*
X0341625Y0114920D01*
X0346625Y0109920D01*
X0346625Y0068480D01*
X0347695Y0068480D01*
X0347695Y0069110D01*
X0353505Y0057230D02*
X0354125Y0057230D01*
X0354125Y0074110D01*
X0369125Y0074110D01*
X0372255Y0070980D01*
X0372255Y0050980D01*
X0371625Y0050360D01*
X0371625Y0023480D01*
X0366625Y0018480D01*
X0361625Y0023480D02*
X0356625Y0018480D01*
X0361625Y0023480D02*
X0361625Y0039110D01*
X0366625Y0044110D01*
X0376625Y0044110D02*
X0376625Y0099300D01*
X0370375Y0105550D01*
X0367065Y0106460D02*
X0369525Y0108920D01*
X0369525Y0110390D01*
X0367065Y0106460D02*
X0367065Y0090220D01*
X0363615Y0086770D01*
X0362135Y0086770D01*
X0360175Y0088740D01*
X0360175Y0092190D01*
X0361645Y0093660D01*
X0361645Y0097600D02*
X0349345Y0109900D01*
X0349345Y0112360D01*
X0358205Y0121220D01*
X0344125Y0113050D02*
X0341005Y0116170D01*
X0341005Y0106800D02*
X0341005Y0058480D01*
X0351625Y0047860D01*
X0351625Y0039110D01*
X0346625Y0034110D01*
X0356625Y0054110D02*
X0353505Y0057230D01*
X0356625Y0054110D02*
X0356625Y0044110D01*
D16*
X0353505Y0057230D03*
X0347695Y0069110D03*
X0357275Y0077130D03*
X0357275Y0089730D03*
X0361645Y0093660D03*
X0361645Y0097600D03*
X0361625Y0101800D03*
X0369525Y0110390D03*
X0370375Y0105550D03*
X0379325Y0085230D03*
X0384725Y0099630D03*
X0369875Y0132930D03*
X0358205Y0121220D03*
X0352255Y0111170D03*
X0341005Y0106800D03*
X0341005Y0116170D03*
X0369425Y0052830D03*
D22*
X0368525Y0052830D01*
X0361775Y0046080D01*
X0361775Y0042480D01*
X0358175Y0038880D01*
X0354575Y0038880D01*
X0351425Y0035730D01*
X0351425Y0028980D01*
X0344675Y0028980D01*
X0341525Y0032130D01*
X0341525Y0036180D01*
X0346475Y0041130D01*
X0346475Y0043830D01*
X0346625Y0044110D01*
X0351425Y0028980D02*
X0351425Y0023130D01*
X0346925Y0018630D01*
X0346625Y0018480D01*
X0357275Y0077130D02*
X0357275Y0089730D01*
X0361625Y0101800D02*
X0352255Y0111170D01*
X0369875Y0114480D02*
X0384725Y0099630D01*
X0386525Y0097830D01*
X0386525Y0018630D01*
X0386625Y0018480D01*
X0376625Y0034380D02*
X0381575Y0039330D01*
X0381575Y0046080D01*
X0379325Y0048330D01*
X0379325Y0085230D01*
X0369875Y0114480D02*
X0369875Y0132930D01*
X0376625Y0034380D02*
X0376625Y0034110D01*
X0331625Y0166335D02*
G75*
%LPD*%
D63*
X0346625Y0200445D03*
D49*
X0346625Y0190445D03*
X0356625Y0190445D03*
X0356625Y0200445D03*
X0366625Y0200445D03*
X0366625Y0190445D03*
X0376625Y0190445D03*
X0376625Y0200445D03*
D20*
X0336625Y0177815D02*
X0336625Y0171815D01*
X0346625Y0171815D02*
X0346625Y0177815D01*
X0356625Y0177815D02*
X0356625Y0171815D01*
X0366625Y0171815D02*
X0366625Y0177815D01*
D31*
X0386625Y0174815D03*
D18*
X0371765Y0302265D03*
X0352675Y0302265D03*
D39*
X0348045Y0309055D02*
X0348045Y0314365D01*
X0376395Y0314365D02*
X0376395Y0309055D01*
D33*
X0385175Y0303535D03*
X0339505Y0303535D03*
D28*
X0341005Y0272505D02*
X0341625Y0271255D01*
X0346625Y0266255D01*
X0346625Y0224815D01*
X0347695Y0224815D01*
X0347695Y0225445D01*
X0353505Y0213565D02*
X0354125Y0213565D01*
X0354125Y0230445D01*
X0369125Y0230445D01*
X0372255Y0227315D01*
X0372255Y0207315D01*
X0371625Y0206695D01*
X0371625Y0179815D01*
X0366625Y0174815D01*
X0361625Y0179815D02*
X0356625Y0174815D01*
X0361625Y0179815D02*
X0361625Y0195445D01*
X0366625Y0200445D01*
X0376625Y0200445D02*
X0376625Y0255635D01*
X0370375Y0261885D01*
X0367065Y0262795D02*
X0369525Y0265255D01*
X0369525Y0266725D01*
X0367065Y0262795D02*
X0367065Y0246555D01*
X0363615Y0243105D01*
X0362135Y0243105D01*
X0360175Y0245075D01*
X0360175Y0248525D01*
X0361645Y0249995D01*
X0361645Y0253935D02*
X0349345Y0266235D01*
X0349345Y0268695D01*
X0358205Y0277555D01*
X0344125Y0269385D02*
X0341005Y0272505D01*
X0341005Y0263135D02*
X0341005Y0214815D01*
X0351625Y0204195D01*
X0351625Y0195445D01*
X0346625Y0190445D01*
X0356625Y0210445D02*
X0353505Y0213565D01*
X0356625Y0210445D02*
X0356625Y0200445D01*
D16*
X0353505Y0213565D03*
X0347695Y0225445D03*
X0357275Y0233465D03*
X0357275Y0246065D03*
X0361645Y0249995D03*
X0361645Y0253935D03*
X0361625Y0258135D03*
X0369525Y0266725D03*
X0370375Y0261885D03*
X0379325Y0241565D03*
X0384725Y0255965D03*
X0369875Y0289265D03*
X0358205Y0277555D03*
X0352255Y0267505D03*
X0341005Y0263135D03*
X0341005Y0272505D03*
X0369425Y0209165D03*
D22*
X0368525Y0209165D01*
X0361775Y0202415D01*
X0361775Y0198815D01*
X0358175Y0195215D01*
X0354575Y0195215D01*
X0351425Y0192065D01*
X0351425Y0185315D01*
X0344675Y0185315D01*
X0341525Y0188465D01*
X0341525Y0192515D01*
X0346475Y0197465D01*
X0346475Y0200165D01*
X0346625Y0200445D01*
X0351425Y0185315D02*
X0351425Y0179465D01*
X0346925Y0174965D01*
X0346625Y0174815D01*
X0357275Y0233465D02*
X0357275Y0246065D01*
X0361625Y0258135D02*
X0352255Y0267505D01*
X0369875Y0270815D02*
X0384725Y0255965D01*
X0386525Y0254165D01*
X0386525Y0174965D01*
X0386625Y0174815D01*
X0376625Y0190715D02*
X0381575Y0195665D01*
X0381575Y0202415D01*
X0379325Y0204665D01*
X0379325Y0241565D01*
X0369875Y0270815D02*
X0369875Y0289265D01*
X0376625Y0190715D02*
X0376625Y0190445D01*
%ADD10C,0.00100*%
D10*
X0010000Y0010000D02*
X0010000Y0319545D01*
X0392825Y0319545D01*
X0392825Y0010000D01*
X0010000Y0010000D01*
M02*
