G75*
G70*
%OFA0B0*%
%FSLAX25Y25*%
%IPPOS*%
%LPD*%
%AMOC8*
5,1,8,0,0,1.08239X$1,22.5*
%
%ADD100C,0.06400*%
%ADD101C,0.05550*%
%ADD108R,0.06340X0.06340*%
%ADD19R,0.04330X0.03940*%
%ADD24R,0.02360X0.05310*%
%ADD29OC8,0.06400*%
%ADD32R,0.04500X0.01500*%
%ADD35R,0.14170X0.08660*%
%ADD37R,0.03940X0.04330*%
%ADD53R,0.01570X0.04920*%
%ADD63C,0.01600*%
%ADD73R,0.04800X0.08800*%
%ADD74C,0.04370*%
%ADD76R,0.02360X0.02760*%
%ADD79C,0.06340*%
%ADD81C,0.00000*%
%ADD86C,0.02800*%
%ADD92C,0.01000*%
X0010000Y0010000D02*
G75*
%LPD*%
D81*
X0010000Y0010000D02*
X0010000Y0147460D01*
X0071200Y0147460D01*
X0071200Y0010000D01*
X0010000Y0010000D01*
X0024840Y0138050D02*
X0024840Y0141200D01*
X0024850Y0141200D02*
X0024860Y0141370D01*
X0024910Y0141540D01*
X0024980Y0141690D01*
X0025080Y0141830D01*
X0025200Y0141950D01*
X0025340Y0142050D01*
X0025490Y0142120D01*
X0025660Y0142170D01*
X0025830Y0142180D01*
X0026000Y0142170D01*
X0026170Y0142120D01*
X0026320Y0142050D01*
X0026460Y0141950D01*
X0026580Y0141830D01*
X0026680Y0141690D01*
X0026750Y0141540D01*
X0026800Y0141370D01*
X0026810Y0141200D01*
X0026810Y0138050D01*
X0025830Y0137070D02*
X0025660Y0137080D01*
X0025490Y0137130D01*
X0025340Y0137200D01*
X0025200Y0137300D01*
X0025080Y0137420D01*
X0024980Y0137560D01*
X0024910Y0137710D01*
X0024860Y0137880D01*
X0024850Y0138050D01*
X0025830Y0137070D02*
X0026000Y0137080D01*
X0026170Y0137130D01*
X0026320Y0137200D01*
X0026460Y0137300D01*
X0026580Y0137420D01*
X0026680Y0137560D01*
X0026750Y0137710D01*
X0026800Y0137880D01*
X0026810Y0138050D01*
X0053190Y0138050D02*
X0053190Y0141200D01*
X0053200Y0141370D01*
X0053250Y0141540D01*
X0053320Y0141690D01*
X0053420Y0141830D01*
X0053540Y0141950D01*
X0053680Y0142050D01*
X0053830Y0142120D01*
X0054000Y0142170D01*
X0054170Y0142180D01*
X0054340Y0142170D01*
X0054510Y0142120D01*
X0054660Y0142050D01*
X0054800Y0141950D01*
X0054920Y0141830D01*
X0055020Y0141690D01*
X0055090Y0141540D01*
X0055140Y0141370D01*
X0055150Y0141200D01*
X0055160Y0141200D02*
X0055160Y0138050D01*
X0054170Y0137070D02*
X0054000Y0137080D01*
X0053830Y0137130D01*
X0053680Y0137200D01*
X0053540Y0137300D01*
X0053420Y0137420D01*
X0053320Y0137560D01*
X0053250Y0137710D01*
X0053200Y0137880D01*
X0053190Y0138050D01*
X0054170Y0137070D02*
X0054340Y0137080D01*
X0054510Y0137130D01*
X0054660Y0137200D01*
X0054800Y0137300D01*
X0054920Y0137420D01*
X0055020Y0137560D01*
X0055090Y0137710D01*
X0055140Y0137880D01*
X0055150Y0138050D01*
D19*
X0059150Y0075000D03*
X0065850Y0075000D03*
X0050850Y0075000D03*
X0044150Y0075000D03*
X0047500Y0063350D03*
X0047500Y0056650D03*
X0037500Y0056650D03*
X0037500Y0063350D03*
X0028350Y0075630D03*
X0021650Y0075630D03*
X0027500Y0063350D03*
X0027500Y0056650D03*
X0015000Y0121650D03*
X0015000Y0128350D03*
D37*
X0015000Y0136650D03*
X0015000Y0143350D03*
X0036650Y0117500D03*
X0043350Y0117500D03*
X0065000Y0121650D03*
X0065000Y0128350D03*
X0065000Y0136650D03*
X0065000Y0143350D03*
X0017500Y0063350D03*
X0017500Y0056650D03*
X0064380Y0042720D03*
X0064380Y0036030D03*
D32*
X0035550Y0088750D03*
X0035550Y0091250D03*
X0035550Y0093750D03*
X0035550Y0096250D03*
X0035550Y0098750D03*
X0035550Y0101250D03*
X0035550Y0103750D03*
X0035550Y0106250D03*
X0035550Y0108750D03*
X0035550Y0111250D03*
X0014450Y0111250D03*
X0014450Y0108750D03*
X0014450Y0106250D03*
X0014450Y0103750D03*
X0014450Y0101250D03*
X0014450Y0098750D03*
X0014450Y0096250D03*
X0014450Y0093750D03*
X0014450Y0091250D03*
X0014450Y0088750D03*
D108*
X0025000Y0043130D03*
D79*
X0025000Y0033130D03*
X0035000Y0033130D03*
X0035000Y0043130D03*
X0045000Y0043130D03*
X0045000Y0033130D03*
X0055000Y0033130D03*
X0055000Y0043130D03*
D76*
X0056260Y0056060D03*
X0060000Y0063940D03*
X0063740Y0056060D03*
D100*
X0045000Y0020700D02*
X0045000Y0014300D01*
X0035000Y0014300D02*
X0035000Y0020700D01*
X0025000Y0020700D02*
X0025000Y0014300D01*
X0015000Y0014300D02*
X0015000Y0020700D01*
D29*
X0065000Y0017500D03*
D73*
X0064100Y0087800D03*
X0055000Y0087800D03*
X0045900Y0087800D03*
D35*
X0055000Y0112200D03*
D24*
X0043150Y0140810D03*
X0036850Y0140810D03*
D53*
X0037440Y0130280D03*
X0040000Y0130280D03*
X0042560Y0130280D03*
X0045120Y0130280D03*
X0034880Y0130280D03*
D101*
X0030450Y0130180D03*
X0049550Y0130180D03*
D74*
X0054170Y0137440D02*
X0054170Y0141810D01*
X0025830Y0141810D02*
X0025830Y0137440D01*
D92*
X0021250Y0136250D02*
X0015000Y0136250D01*
X0015000Y0136650D01*
X0015000Y0128350D02*
X0015000Y0128130D01*
X0017500Y0125630D01*
X0040630Y0125630D01*
X0040940Y0125940D01*
X0041250Y0125630D01*
X0054380Y0125630D01*
X0065000Y0136250D01*
X0065000Y0136650D01*
X0045000Y0108750D02*
X0048130Y0105630D01*
X0048750Y0100630D02*
X0038130Y0111250D01*
X0035550Y0111250D01*
X0036650Y0117500D02*
X0036880Y0117500D01*
X0036880Y0122500D01*
X0040940Y0125940D02*
X0042500Y0127500D01*
X0042500Y0130000D01*
X0042560Y0130280D01*
X0040000Y0130280D02*
X0040000Y0133130D01*
X0038130Y0135000D01*
X0043350Y0117500D02*
X0043750Y0117500D01*
X0043750Y0108750D01*
X0045000Y0108750D01*
X0040000Y0092500D02*
X0039380Y0091880D01*
X0038750Y0091880D01*
X0038130Y0091250D01*
X0035550Y0091250D01*
X0035550Y0088750D02*
X0040000Y0088750D01*
X0030000Y0068130D02*
X0060000Y0068130D01*
X0060000Y0063940D01*
X0056250Y0056250D02*
X0056260Y0056060D01*
X0056880Y0055630D01*
X0061880Y0050630D01*
X0065630Y0050630D01*
X0068130Y0048130D01*
X0068130Y0025630D01*
X0043130Y0025630D01*
X0035000Y0017500D01*
X0045000Y0033130D02*
X0040000Y0038130D01*
X0020000Y0038130D01*
X0020000Y0053130D01*
X0020310Y0053440D01*
X0017500Y0056250D01*
X0017500Y0056650D01*
X0020310Y0053440D02*
X0020630Y0053130D01*
X0034380Y0053130D01*
X0037500Y0056250D01*
X0037500Y0056650D01*
X0031880Y0056250D02*
X0027500Y0056250D01*
X0027500Y0056650D01*
X0030000Y0068130D02*
X0020630Y0068130D01*
X0017500Y0063750D01*
X0017500Y0063350D01*
X0019380Y0101880D02*
X0017500Y0103750D01*
X0014450Y0103750D01*
X0014450Y0111250D02*
X0019380Y0111250D01*
X0026880Y0109380D02*
X0015000Y0121250D01*
X0015000Y0121650D01*
X0047500Y0056650D02*
X0047500Y0056250D01*
X0056250Y0056250D01*
D86*
X0060000Y0056880D03*
X0065630Y0080630D03*
X0048750Y0100630D03*
X0048130Y0105630D03*
X0040000Y0096880D03*
X0040000Y0092500D03*
X0040000Y0088750D03*
X0041250Y0085000D03*
X0030000Y0068130D03*
X0031880Y0056250D03*
X0019380Y0101880D03*
X0019380Y0111250D03*
X0026880Y0109380D03*
X0030630Y0106250D03*
X0036880Y0122500D03*
X0040630Y0121880D03*
X0038130Y0135000D03*
X0045000Y0135000D03*
X0021250Y0136250D03*
X0018750Y0133130D03*
D63*
X0026880Y0133130D01*
X0028750Y0135000D01*
X0031880Y0135000D01*
X0031880Y0145630D01*
X0020630Y0145630D01*
X0020630Y0143350D01*
X0015000Y0143350D01*
X0031880Y0135000D02*
X0035000Y0135000D01*
X0035000Y0130630D01*
X0034880Y0130280D01*
X0040630Y0121880D02*
X0058130Y0121880D01*
X0064380Y0128130D01*
X0065000Y0128350D01*
X0065630Y0128130D01*
X0068750Y0125000D01*
X0068750Y0095630D01*
X0060000Y0095630D01*
X0060000Y0095000D01*
X0045900Y0095000D01*
X0045900Y0087800D01*
X0045900Y0075000D01*
X0044150Y0075000D01*
X0043750Y0074380D01*
X0041250Y0071880D01*
X0025000Y0071880D01*
X0021880Y0075000D01*
X0021650Y0075630D01*
X0021250Y0075630D01*
X0021250Y0098750D01*
X0021880Y0098750D01*
X0024380Y0101250D01*
X0035550Y0101250D01*
X0035550Y0098750D02*
X0028130Y0098750D01*
X0028130Y0085000D01*
X0041250Y0085000D01*
X0035630Y0093750D02*
X0035630Y0095630D01*
X0035550Y0096250D01*
X0038750Y0096250D01*
X0040000Y0097500D01*
X0040000Y0096880D01*
X0040000Y0097500D02*
X0050000Y0097500D01*
X0050630Y0098130D01*
X0065000Y0098130D01*
X0065000Y0121650D01*
X0065000Y0128350D02*
X0065000Y0128750D01*
X0068750Y0132500D01*
X0068750Y0143130D01*
X0065000Y0143130D01*
X0065000Y0143350D01*
X0045000Y0135000D02*
X0045000Y0130630D01*
X0045120Y0130280D01*
X0030630Y0106250D02*
X0014450Y0106250D01*
X0014450Y0098750D02*
X0021250Y0098750D01*
X0028130Y0085000D02*
X0028130Y0075630D01*
X0028350Y0075630D01*
X0027500Y0063750D02*
X0027500Y0063350D01*
X0027500Y0063750D02*
X0037500Y0063750D01*
X0037500Y0063350D01*
X0038130Y0063750D01*
X0047500Y0063750D01*
X0047500Y0063350D01*
X0048130Y0063130D01*
X0050630Y0060630D01*
X0060000Y0060630D01*
X0060000Y0056880D01*
X0060000Y0060630D02*
X0061880Y0060630D01*
X0063130Y0061880D01*
X0063130Y0071250D01*
X0054380Y0071250D01*
X0051250Y0074380D01*
X0050850Y0075000D01*
X0050850Y0087800D01*
X0055000Y0087800D01*
X0060000Y0095000D02*
X0060000Y0075000D01*
X0059150Y0075000D01*
X0065630Y0080630D02*
X0065850Y0080630D01*
X0065850Y0075000D01*
X0065850Y0080630D02*
X0065850Y0087800D01*
X0064100Y0087800D01*
X0065000Y0048130D02*
X0025000Y0048130D01*
X0025000Y0043130D01*
X0025630Y0028130D02*
X0039380Y0028130D01*
X0039690Y0028440D01*
X0035000Y0033130D01*
X0039690Y0028440D02*
X0040000Y0028130D01*
X0049380Y0028130D01*
X0054380Y0033130D01*
X0055000Y0033130D01*
X0064380Y0033130D01*
X0064380Y0036030D01*
X0064380Y0042720D02*
X0065000Y0042720D01*
X0065000Y0048130D01*
X0035630Y0093750D02*
X0035550Y0093750D01*
X0025630Y0028130D02*
X0015000Y0017500D01*
X0077450Y0010000D02*
G75*
%LPD*%
D81*
X0077450Y0010000D02*
X0077450Y0147460D01*
X0138650Y0147460D01*
X0138650Y0010000D01*
X0077450Y0010000D01*
X0092290Y0138050D02*
X0092290Y0141200D01*
X0092300Y0141200D02*
X0092310Y0141370D01*
X0092360Y0141540D01*
X0092430Y0141690D01*
X0092530Y0141830D01*
X0092650Y0141950D01*
X0092790Y0142050D01*
X0092940Y0142120D01*
X0093110Y0142170D01*
X0093280Y0142180D01*
X0093450Y0142170D01*
X0093620Y0142120D01*
X0093770Y0142050D01*
X0093910Y0141950D01*
X0094030Y0141830D01*
X0094130Y0141690D01*
X0094200Y0141540D01*
X0094250Y0141370D01*
X0094260Y0141200D01*
X0094260Y0138050D01*
X0093280Y0137070D02*
X0093110Y0137080D01*
X0092940Y0137130D01*
X0092790Y0137200D01*
X0092650Y0137300D01*
X0092530Y0137420D01*
X0092430Y0137560D01*
X0092360Y0137710D01*
X0092310Y0137880D01*
X0092300Y0138050D01*
X0093280Y0137070D02*
X0093450Y0137080D01*
X0093620Y0137130D01*
X0093770Y0137200D01*
X0093910Y0137300D01*
X0094030Y0137420D01*
X0094130Y0137560D01*
X0094200Y0137710D01*
X0094250Y0137880D01*
X0094260Y0138050D01*
X0120640Y0138050D02*
X0120640Y0141200D01*
X0120650Y0141370D01*
X0120700Y0141540D01*
X0120770Y0141690D01*
X0120870Y0141830D01*
X0120990Y0141950D01*
X0121130Y0142050D01*
X0121280Y0142120D01*
X0121450Y0142170D01*
X0121620Y0142180D01*
X0121790Y0142170D01*
X0121960Y0142120D01*
X0122110Y0142050D01*
X0122250Y0141950D01*
X0122370Y0141830D01*
X0122470Y0141690D01*
X0122540Y0141540D01*
X0122590Y0141370D01*
X0122600Y0141200D01*
X0122610Y0141200D02*
X0122610Y0138050D01*
X0121620Y0137070D02*
X0121450Y0137080D01*
X0121280Y0137130D01*
X0121130Y0137200D01*
X0120990Y0137300D01*
X0120870Y0137420D01*
X0120770Y0137560D01*
X0120700Y0137710D01*
X0120650Y0137880D01*
X0120640Y0138050D01*
X0121620Y0137070D02*
X0121790Y0137080D01*
X0121960Y0137130D01*
X0122110Y0137200D01*
X0122250Y0137300D01*
X0122370Y0137420D01*
X0122470Y0137560D01*
X0122540Y0137710D01*
X0122590Y0137880D01*
X0122600Y0138050D01*
D19*
X0126600Y0075000D03*
X0133300Y0075000D03*
X0118300Y0075000D03*
X0111600Y0075000D03*
X0114950Y0063350D03*
X0114950Y0056650D03*
X0104950Y0056650D03*
X0104950Y0063350D03*
X0095800Y0075630D03*
X0089100Y0075630D03*
X0094950Y0063350D03*
X0094950Y0056650D03*
X0082450Y0121650D03*
X0082450Y0128350D03*
D37*
X0082450Y0136650D03*
X0082450Y0143350D03*
X0104100Y0117500D03*
X0110800Y0117500D03*
X0132450Y0121650D03*
X0132450Y0128350D03*
X0132450Y0136650D03*
X0132450Y0143350D03*
X0084950Y0063350D03*
X0084950Y0056650D03*
X0131830Y0042720D03*
X0131830Y0036030D03*
D32*
X0103000Y0088750D03*
X0103000Y0091250D03*
X0103000Y0093750D03*
X0103000Y0096250D03*
X0103000Y0098750D03*
X0103000Y0101250D03*
X0103000Y0103750D03*
X0103000Y0106250D03*
X0103000Y0108750D03*
X0103000Y0111250D03*
X0081900Y0111250D03*
X0081900Y0108750D03*
X0081900Y0106250D03*
X0081900Y0103750D03*
X0081900Y0101250D03*
X0081900Y0098750D03*
X0081900Y0096250D03*
X0081900Y0093750D03*
X0081900Y0091250D03*
X0081900Y0088750D03*
D108*
X0092450Y0043130D03*
D79*
X0092450Y0033130D03*
X0102450Y0033130D03*
X0102450Y0043130D03*
X0112450Y0043130D03*
X0112450Y0033130D03*
X0122450Y0033130D03*
X0122450Y0043130D03*
D76*
X0123710Y0056060D03*
X0127450Y0063940D03*
X0131190Y0056060D03*
D100*
X0112450Y0020700D02*
X0112450Y0014300D01*
X0102450Y0014300D02*
X0102450Y0020700D01*
X0092450Y0020700D02*
X0092450Y0014300D01*
X0082450Y0014300D02*
X0082450Y0020700D01*
D29*
X0132450Y0017500D03*
D73*
X0131550Y0087800D03*
X0122450Y0087800D03*
X0113350Y0087800D03*
D35*
X0122450Y0112200D03*
D24*
X0110600Y0140810D03*
X0104300Y0140810D03*
D53*
X0104890Y0130280D03*
X0107450Y0130280D03*
X0110010Y0130280D03*
X0112570Y0130280D03*
X0102330Y0130280D03*
D101*
X0097900Y0130180D03*
X0117000Y0130180D03*
D74*
X0121620Y0137440D02*
X0121620Y0141810D01*
X0093280Y0141810D02*
X0093280Y0137440D01*
D92*
X0088700Y0136250D02*
X0082450Y0136250D01*
X0082450Y0136650D01*
X0082450Y0128350D02*
X0082450Y0128130D01*
X0084950Y0125630D01*
X0108080Y0125630D01*
X0108390Y0125940D01*
X0108700Y0125630D01*
X0121830Y0125630D01*
X0132450Y0136250D01*
X0132450Y0136650D01*
X0112450Y0108750D02*
X0115580Y0105630D01*
X0116200Y0100630D02*
X0105580Y0111250D01*
X0103000Y0111250D01*
X0104100Y0117500D02*
X0104330Y0117500D01*
X0104330Y0122500D01*
X0108390Y0125940D02*
X0109950Y0127500D01*
X0109950Y0130000D01*
X0110010Y0130280D01*
X0107450Y0130280D02*
X0107450Y0133130D01*
X0105580Y0135000D01*
X0110800Y0117500D02*
X0111200Y0117500D01*
X0111200Y0108750D01*
X0112450Y0108750D01*
X0107450Y0092500D02*
X0106830Y0091880D01*
X0106200Y0091880D01*
X0105580Y0091250D01*
X0103000Y0091250D01*
X0103000Y0088750D02*
X0107450Y0088750D01*
X0097450Y0068130D02*
X0127450Y0068130D01*
X0127450Y0063940D01*
X0123700Y0056250D02*
X0123710Y0056060D01*
X0124330Y0055630D01*
X0129330Y0050630D01*
X0133080Y0050630D01*
X0135580Y0048130D01*
X0135580Y0025630D01*
X0110580Y0025630D01*
X0102450Y0017500D01*
X0112450Y0033130D02*
X0107450Y0038130D01*
X0087450Y0038130D01*
X0087450Y0053130D01*
X0087760Y0053440D01*
X0084950Y0056250D01*
X0084950Y0056650D01*
X0087760Y0053440D02*
X0088080Y0053130D01*
X0101830Y0053130D01*
X0104950Y0056250D01*
X0104950Y0056650D01*
X0099330Y0056250D02*
X0094950Y0056250D01*
X0094950Y0056650D01*
X0097450Y0068130D02*
X0088080Y0068130D01*
X0084950Y0063750D01*
X0084950Y0063350D01*
X0086830Y0101880D02*
X0084950Y0103750D01*
X0081900Y0103750D01*
X0081900Y0111250D02*
X0086830Y0111250D01*
X0094330Y0109380D02*
X0082450Y0121250D01*
X0082450Y0121650D01*
X0114950Y0056650D02*
X0114950Y0056250D01*
X0123700Y0056250D01*
D86*
X0127450Y0056880D03*
X0133080Y0080630D03*
X0116200Y0100630D03*
X0115580Y0105630D03*
X0107450Y0096880D03*
X0107450Y0092500D03*
X0107450Y0088750D03*
X0108700Y0085000D03*
X0097450Y0068130D03*
X0099330Y0056250D03*
X0086830Y0101880D03*
X0086830Y0111250D03*
X0094330Y0109380D03*
X0098080Y0106250D03*
X0104330Y0122500D03*
X0108080Y0121880D03*
X0105580Y0135000D03*
X0112450Y0135000D03*
X0088700Y0136250D03*
X0086200Y0133130D03*
D63*
X0094330Y0133130D01*
X0096200Y0135000D01*
X0099330Y0135000D01*
X0099330Y0145630D01*
X0088080Y0145630D01*
X0088080Y0143350D01*
X0082450Y0143350D01*
X0099330Y0135000D02*
X0102450Y0135000D01*
X0102450Y0130630D01*
X0102330Y0130280D01*
X0108080Y0121880D02*
X0125580Y0121880D01*
X0131830Y0128130D01*
X0132450Y0128350D01*
X0133080Y0128130D01*
X0136200Y0125000D01*
X0136200Y0095630D01*
X0127450Y0095630D01*
X0127450Y0095000D01*
X0113350Y0095000D01*
X0113350Y0087800D01*
X0113350Y0075000D01*
X0111600Y0075000D01*
X0111200Y0074380D01*
X0108700Y0071880D01*
X0092450Y0071880D01*
X0089330Y0075000D01*
X0089100Y0075630D01*
X0088700Y0075630D01*
X0088700Y0098750D01*
X0089330Y0098750D01*
X0091830Y0101250D01*
X0103000Y0101250D01*
X0103000Y0098750D02*
X0095580Y0098750D01*
X0095580Y0085000D01*
X0108700Y0085000D01*
X0103080Y0093750D02*
X0103080Y0095630D01*
X0103000Y0096250D01*
X0106200Y0096250D01*
X0107450Y0097500D01*
X0107450Y0096880D01*
X0107450Y0097500D02*
X0117450Y0097500D01*
X0118080Y0098130D01*
X0132450Y0098130D01*
X0132450Y0121650D01*
X0132450Y0128350D02*
X0132450Y0128750D01*
X0136200Y0132500D01*
X0136200Y0143130D01*
X0132450Y0143130D01*
X0132450Y0143350D01*
X0112450Y0135000D02*
X0112450Y0130630D01*
X0112570Y0130280D01*
X0098080Y0106250D02*
X0081900Y0106250D01*
X0081900Y0098750D02*
X0088700Y0098750D01*
X0095580Y0085000D02*
X0095580Y0075630D01*
X0095800Y0075630D01*
X0094950Y0063750D02*
X0094950Y0063350D01*
X0094950Y0063750D02*
X0104950Y0063750D01*
X0104950Y0063350D01*
X0105580Y0063750D01*
X0114950Y0063750D01*
X0114950Y0063350D01*
X0115580Y0063130D01*
X0118080Y0060630D01*
X0127450Y0060630D01*
X0127450Y0056880D01*
X0127450Y0060630D02*
X0129330Y0060630D01*
X0130580Y0061880D01*
X0130580Y0071250D01*
X0121830Y0071250D01*
X0118700Y0074380D01*
X0118300Y0075000D01*
X0118300Y0087800D01*
X0122450Y0087800D01*
X0127450Y0095000D02*
X0127450Y0075000D01*
X0126600Y0075000D01*
X0133080Y0080630D02*
X0133300Y0080630D01*
X0133300Y0075000D01*
X0133300Y0080630D02*
X0133300Y0087800D01*
X0131550Y0087800D01*
X0132450Y0048130D02*
X0092450Y0048130D01*
X0092450Y0043130D01*
X0093080Y0028130D02*
X0106830Y0028130D01*
X0107140Y0028440D01*
X0102450Y0033130D01*
X0107140Y0028440D02*
X0107450Y0028130D01*
X0116830Y0028130D01*
X0121830Y0033130D01*
X0122450Y0033130D01*
X0131830Y0033130D01*
X0131830Y0036030D01*
X0131830Y0042720D02*
X0132450Y0042720D01*
X0132450Y0048130D01*
X0103080Y0093750D02*
X0103000Y0093750D01*
X0093080Y0028130D02*
X0082450Y0017500D01*
X0144900Y0010000D02*
G75*
%LPD*%
D81*
X0144900Y0010000D02*
X0144900Y0147460D01*
X0206100Y0147460D01*
X0206100Y0010000D01*
X0144900Y0010000D01*
X0159740Y0138050D02*
X0159740Y0141200D01*
X0159750Y0141200D02*
X0159760Y0141370D01*
X0159810Y0141540D01*
X0159880Y0141690D01*
X0159980Y0141830D01*
X0160100Y0141950D01*
X0160240Y0142050D01*
X0160390Y0142120D01*
X0160560Y0142170D01*
X0160730Y0142180D01*
X0160900Y0142170D01*
X0161070Y0142120D01*
X0161220Y0142050D01*
X0161360Y0141950D01*
X0161480Y0141830D01*
X0161580Y0141690D01*
X0161650Y0141540D01*
X0161700Y0141370D01*
X0161710Y0141200D01*
X0161710Y0138050D01*
X0160730Y0137070D02*
X0160560Y0137080D01*
X0160390Y0137130D01*
X0160240Y0137200D01*
X0160100Y0137300D01*
X0159980Y0137420D01*
X0159880Y0137560D01*
X0159810Y0137710D01*
X0159760Y0137880D01*
X0159750Y0138050D01*
X0160730Y0137070D02*
X0160900Y0137080D01*
X0161070Y0137130D01*
X0161220Y0137200D01*
X0161360Y0137300D01*
X0161480Y0137420D01*
X0161580Y0137560D01*
X0161650Y0137710D01*
X0161700Y0137880D01*
X0161710Y0138050D01*
X0188090Y0138050D02*
X0188090Y0141200D01*
X0188100Y0141370D01*
X0188150Y0141540D01*
X0188220Y0141690D01*
X0188320Y0141830D01*
X0188440Y0141950D01*
X0188580Y0142050D01*
X0188730Y0142120D01*
X0188900Y0142170D01*
X0189070Y0142180D01*
X0189240Y0142170D01*
X0189410Y0142120D01*
X0189560Y0142050D01*
X0189700Y0141950D01*
X0189820Y0141830D01*
X0189920Y0141690D01*
X0189990Y0141540D01*
X0190040Y0141370D01*
X0190050Y0141200D01*
X0190060Y0141200D02*
X0190060Y0138050D01*
X0189070Y0137070D02*
X0188900Y0137080D01*
X0188730Y0137130D01*
X0188580Y0137200D01*
X0188440Y0137300D01*
X0188320Y0137420D01*
X0188220Y0137560D01*
X0188150Y0137710D01*
X0188100Y0137880D01*
X0188090Y0138050D01*
X0189070Y0137070D02*
X0189240Y0137080D01*
X0189410Y0137130D01*
X0189560Y0137200D01*
X0189700Y0137300D01*
X0189820Y0137420D01*
X0189920Y0137560D01*
X0189990Y0137710D01*
X0190040Y0137880D01*
X0190050Y0138050D01*
D19*
X0194050Y0075000D03*
X0200750Y0075000D03*
X0185750Y0075000D03*
X0179050Y0075000D03*
X0182400Y0063350D03*
X0182400Y0056650D03*
X0172400Y0056650D03*
X0172400Y0063350D03*
X0163250Y0075630D03*
X0156550Y0075630D03*
X0162400Y0063350D03*
X0162400Y0056650D03*
X0149900Y0121650D03*
X0149900Y0128350D03*
D37*
X0149900Y0136650D03*
X0149900Y0143350D03*
X0171550Y0117500D03*
X0178250Y0117500D03*
X0199900Y0121650D03*
X0199900Y0128350D03*
X0199900Y0136650D03*
X0199900Y0143350D03*
X0152400Y0063350D03*
X0152400Y0056650D03*
X0199280Y0042720D03*
X0199280Y0036030D03*
D32*
X0170450Y0088750D03*
X0170450Y0091250D03*
X0170450Y0093750D03*
X0170450Y0096250D03*
X0170450Y0098750D03*
X0170450Y0101250D03*
X0170450Y0103750D03*
X0170450Y0106250D03*
X0170450Y0108750D03*
X0170450Y0111250D03*
X0149350Y0111250D03*
X0149350Y0108750D03*
X0149350Y0106250D03*
X0149350Y0103750D03*
X0149350Y0101250D03*
X0149350Y0098750D03*
X0149350Y0096250D03*
X0149350Y0093750D03*
X0149350Y0091250D03*
X0149350Y0088750D03*
D108*
X0159900Y0043130D03*
D79*
X0159900Y0033130D03*
X0169900Y0033130D03*
X0169900Y0043130D03*
X0179900Y0043130D03*
X0179900Y0033130D03*
X0189900Y0033130D03*
X0189900Y0043130D03*
D76*
X0191160Y0056060D03*
X0194900Y0063940D03*
X0198640Y0056060D03*
D100*
X0179900Y0020700D02*
X0179900Y0014300D01*
X0169900Y0014300D02*
X0169900Y0020700D01*
X0159900Y0020700D02*
X0159900Y0014300D01*
X0149900Y0014300D02*
X0149900Y0020700D01*
D29*
X0199900Y0017500D03*
D73*
X0199000Y0087800D03*
X0189900Y0087800D03*
X0180800Y0087800D03*
D35*
X0189900Y0112200D03*
D24*
X0178050Y0140810D03*
X0171750Y0140810D03*
D53*
X0172340Y0130280D03*
X0174900Y0130280D03*
X0177460Y0130280D03*
X0180020Y0130280D03*
X0169780Y0130280D03*
D101*
X0165350Y0130180D03*
X0184450Y0130180D03*
D74*
X0189070Y0137440D02*
X0189070Y0141810D01*
X0160730Y0141810D02*
X0160730Y0137440D01*
D92*
X0156150Y0136250D02*
X0149900Y0136250D01*
X0149900Y0136650D01*
X0149900Y0128350D02*
X0149900Y0128130D01*
X0152400Y0125630D01*
X0175530Y0125630D01*
X0175840Y0125940D01*
X0176150Y0125630D01*
X0189280Y0125630D01*
X0199900Y0136250D01*
X0199900Y0136650D01*
X0179900Y0108750D02*
X0183030Y0105630D01*
X0183650Y0100630D02*
X0173030Y0111250D01*
X0170450Y0111250D01*
X0171550Y0117500D02*
X0171780Y0117500D01*
X0171780Y0122500D01*
X0175840Y0125940D02*
X0177400Y0127500D01*
X0177400Y0130000D01*
X0177460Y0130280D01*
X0174900Y0130280D02*
X0174900Y0133130D01*
X0173030Y0135000D01*
X0178250Y0117500D02*
X0178650Y0117500D01*
X0178650Y0108750D01*
X0179900Y0108750D01*
X0174900Y0092500D02*
X0174280Y0091880D01*
X0173650Y0091880D01*
X0173030Y0091250D01*
X0170450Y0091250D01*
X0170450Y0088750D02*
X0174900Y0088750D01*
X0164900Y0068130D02*
X0194900Y0068130D01*
X0194900Y0063940D01*
X0191150Y0056250D02*
X0191160Y0056060D01*
X0191780Y0055630D01*
X0196780Y0050630D01*
X0200530Y0050630D01*
X0203030Y0048130D01*
X0203030Y0025630D01*
X0178030Y0025630D01*
X0169900Y0017500D01*
X0179900Y0033130D02*
X0174900Y0038130D01*
X0154900Y0038130D01*
X0154900Y0053130D01*
X0155210Y0053440D01*
X0152400Y0056250D01*
X0152400Y0056650D01*
X0155210Y0053440D02*
X0155530Y0053130D01*
X0169280Y0053130D01*
X0172400Y0056250D01*
X0172400Y0056650D01*
X0166780Y0056250D02*
X0162400Y0056250D01*
X0162400Y0056650D01*
X0164900Y0068130D02*
X0155530Y0068130D01*
X0152400Y0063750D01*
X0152400Y0063350D01*
X0154280Y0101880D02*
X0152400Y0103750D01*
X0149350Y0103750D01*
X0149350Y0111250D02*
X0154280Y0111250D01*
X0161780Y0109380D02*
X0149900Y0121250D01*
X0149900Y0121650D01*
X0182400Y0056650D02*
X0182400Y0056250D01*
X0191150Y0056250D01*
D86*
X0194900Y0056880D03*
X0200530Y0080630D03*
X0183650Y0100630D03*
X0183030Y0105630D03*
X0174900Y0096880D03*
X0174900Y0092500D03*
X0174900Y0088750D03*
X0176150Y0085000D03*
X0164900Y0068130D03*
X0166780Y0056250D03*
X0154280Y0101880D03*
X0154280Y0111250D03*
X0161780Y0109380D03*
X0165530Y0106250D03*
X0171780Y0122500D03*
X0175530Y0121880D03*
X0173030Y0135000D03*
X0179900Y0135000D03*
X0156150Y0136250D03*
X0153650Y0133130D03*
D63*
X0161780Y0133130D01*
X0163650Y0135000D01*
X0166780Y0135000D01*
X0166780Y0145630D01*
X0155530Y0145630D01*
X0155530Y0143350D01*
X0149900Y0143350D01*
X0166780Y0135000D02*
X0169900Y0135000D01*
X0169900Y0130630D01*
X0169780Y0130280D01*
X0175530Y0121880D02*
X0193030Y0121880D01*
X0199280Y0128130D01*
X0199900Y0128350D01*
X0200530Y0128130D01*
X0203650Y0125000D01*
X0203650Y0095630D01*
X0194900Y0095630D01*
X0194900Y0095000D01*
X0180800Y0095000D01*
X0180800Y0087800D01*
X0180800Y0075000D01*
X0179050Y0075000D01*
X0178650Y0074380D01*
X0176150Y0071880D01*
X0159900Y0071880D01*
X0156780Y0075000D01*
X0156550Y0075630D01*
X0156150Y0075630D01*
X0156150Y0098750D01*
X0156780Y0098750D01*
X0159280Y0101250D01*
X0170450Y0101250D01*
X0170450Y0098750D02*
X0163030Y0098750D01*
X0163030Y0085000D01*
X0176150Y0085000D01*
X0170530Y0093750D02*
X0170530Y0095630D01*
X0170450Y0096250D01*
X0173650Y0096250D01*
X0174900Y0097500D01*
X0174900Y0096880D01*
X0174900Y0097500D02*
X0184900Y0097500D01*
X0185530Y0098130D01*
X0199900Y0098130D01*
X0199900Y0121650D01*
X0199900Y0128350D02*
X0199900Y0128750D01*
X0203650Y0132500D01*
X0203650Y0143130D01*
X0199900Y0143130D01*
X0199900Y0143350D01*
X0179900Y0135000D02*
X0179900Y0130630D01*
X0180020Y0130280D01*
X0165530Y0106250D02*
X0149350Y0106250D01*
X0149350Y0098750D02*
X0156150Y0098750D01*
X0163030Y0085000D02*
X0163030Y0075630D01*
X0163250Y0075630D01*
X0162400Y0063750D02*
X0162400Y0063350D01*
X0162400Y0063750D02*
X0172400Y0063750D01*
X0172400Y0063350D01*
X0173030Y0063750D01*
X0182400Y0063750D01*
X0182400Y0063350D01*
X0183030Y0063130D01*
X0185530Y0060630D01*
X0194900Y0060630D01*
X0194900Y0056880D01*
X0194900Y0060630D02*
X0196780Y0060630D01*
X0198030Y0061880D01*
X0198030Y0071250D01*
X0189280Y0071250D01*
X0186150Y0074380D01*
X0185750Y0075000D01*
X0185750Y0087800D01*
X0189900Y0087800D01*
X0194900Y0095000D02*
X0194900Y0075000D01*
X0194050Y0075000D01*
X0200530Y0080630D02*
X0200750Y0080630D01*
X0200750Y0075000D01*
X0200750Y0080630D02*
X0200750Y0087800D01*
X0199000Y0087800D01*
X0199900Y0048130D02*
X0159900Y0048130D01*
X0159900Y0043130D01*
X0160530Y0028130D02*
X0174280Y0028130D01*
X0174590Y0028440D01*
X0169900Y0033130D01*
X0174590Y0028440D02*
X0174900Y0028130D01*
X0184280Y0028130D01*
X0189280Y0033130D01*
X0189900Y0033130D01*
X0199280Y0033130D01*
X0199280Y0036030D01*
X0199280Y0042720D02*
X0199900Y0042720D01*
X0199900Y0048130D01*
X0170530Y0093750D02*
X0170450Y0093750D01*
X0160530Y0028130D02*
X0149900Y0017500D01*
%ADD10C,0.00100*%
D10*
X0010000Y0010000D02*
X0010000Y0147460D01*
X0206100Y0147460D01*
X0206100Y0010000D01*
X0010000Y0010000D01*
M02*
