%
T01C0.012000
X1875Y13313
X2125Y13625
X3688Y12250
X4063Y12188
X3813Y13500
X4500Y13500
X4813Y10563
X4875Y10063
X4000Y9688
X4000Y9250
X4000Y8875
X4125Y8500
X3000Y6813
X3188Y5625
X1938Y10188
X1938Y11125
X2688Y10938
X3063Y10625
X6000Y5688
X6563Y8063
X8620Y13313
X8870Y13625
X10433Y12250
X10808Y12188
X10558Y13500
X11245Y13500
X11558Y10563
X11620Y10063
X10745Y9688
X10745Y9250
X10745Y8875
X10870Y8500
X9745Y6813
X9933Y5625
X8683Y10188
X8683Y11125
X9433Y10938
X9808Y10625
X12745Y5688
X13308Y8063
X15365Y13313
X15615Y13625
X17178Y12250
X17553Y12188
X17303Y13500
X17990Y13500
X18303Y10563
X18365Y10063
X17490Y9688
X17490Y9250
X17490Y8875
X17615Y8500
X16490Y6813
X16678Y5625
X15428Y10188
X15428Y11125
X16178Y10938
X16553Y10625
X19490Y5688
X20053Y8063
T02C0.019700
X2583Y13963
X5417Y13963
X9328Y13963
X12162Y13963
X16073Y13963
X18907Y13963
T03C0.031500
X3045Y13018
X4955Y13018
X9790Y13018
X11700Y13018
X16535Y13018
X18445Y13018
T04C0.039700
X1500Y1750
X2500Y1750
X3500Y1750
X4500Y1750
X6500Y1750
X5500Y4313
X5500Y3313
X4500Y3313
X4500Y4313
X3500Y4313
X3500Y3313
X2500Y3313
X2500Y4313
X8245Y1750
X9245Y1750
X10245Y1750
X11245Y1750
X13245Y1750
X12245Y4313
X12245Y3313
X11245Y3313
X11245Y4313
X10245Y4313
X10245Y3313
X9245Y3313
X9245Y4313
X14990Y1750
X15990Y1750
X16990Y1750
X17990Y1750
X19990Y1750
X18990Y4313
X18990Y3313
X17990Y3313
X17990Y4313
X16990Y4313
X16990Y3313
X15990Y3313
X15990Y4313
M30
