G04 This is an RS-274x file exported by *
G04 gerbv version 2.6.1 *
G04 More information is available about gerbv at *
G04 http://gerbv.geda-project.org/ *
G04 --End of header info--*
%MOIN*%
%FSLAX34Y34*%
%IPPOS*%
G04 --Define apertures--*
%ADD10C,0.0000*%
%ADD11C,0.0010*%
%ADD12C,0.0050*%
G04 --Start main section--*
G54D10*
G01X0002544Y0015380D02*
G01X0002544Y0015695D01*
G01X0002544Y0015695D02*
G01X0002545Y0015712D01*
G01X0002545Y0015712D02*
G01X0002550Y0015729D01*
G01X0002550Y0015729D02*
G01X0002557Y0015744D01*
G01X0002557Y0015744D02*
G01X0002567Y0015758D01*
G01X0002567Y0015758D02*
G01X0002579Y0015770D01*
G01X0002579Y0015770D02*
G01X0002593Y0015780D01*
G01X0002593Y0015780D02*
G01X0002608Y0015787D01*
G01X0002608Y0015787D02*
G01X0002625Y0015792D01*
G01X0002625Y0015792D02*
G01X0002642Y0015793D01*
G01X0002642Y0015793D02*
G01X0002659Y0015792D01*
G01X0002659Y0015792D02*
G01X0002676Y0015787D01*
G01X0002676Y0015787D02*
G01X0002691Y0015780D01*
G01X0002691Y0015780D02*
G01X0002705Y0015770D01*
G01X0002705Y0015770D02*
G01X0002717Y0015758D01*
G01X0002717Y0015758D02*
G01X0002727Y0015744D01*
G01X0002727Y0015744D02*
G01X0002734Y0015729D01*
G01X0002734Y0015729D02*
G01X0002739Y0015712D01*
G01X0002739Y0015712D02*
G01X0002740Y0015695D01*
G01X0002740Y0015695D02*
G01X0002740Y0015380D01*
G01X0002642Y0015282D02*
G01X0002625Y0015283D01*
G01X0002625Y0015283D02*
G01X0002608Y0015288D01*
G01X0002608Y0015288D02*
G01X0002593Y0015295D01*
G01X0002593Y0015295D02*
G01X0002579Y0015305D01*
G01X0002579Y0015305D02*
G01X0002567Y0015317D01*
G01X0002567Y0015317D02*
G01X0002557Y0015331D01*
G01X0002557Y0015331D02*
G01X0002550Y0015346D01*
G01X0002550Y0015346D02*
G01X0002545Y0015363D01*
G01X0002545Y0015363D02*
G01X0002544Y0015380D01*
G01X0002642Y0015282D02*
G01X0002659Y0015283D01*
G01X0002659Y0015283D02*
G01X0002676Y0015288D01*
G01X0002676Y0015288D02*
G01X0002691Y0015295D01*
G01X0002691Y0015295D02*
G01X0002705Y0015305D01*
G01X0002705Y0015305D02*
G01X0002717Y0015317D01*
G01X0002717Y0015317D02*
G01X0002727Y0015331D01*
G01X0002727Y0015331D02*
G01X0002734Y0015346D01*
G01X0002734Y0015346D02*
G01X0002739Y0015363D01*
G01X0002739Y0015363D02*
G01X0002740Y0015380D01*
G01X0005378Y0015380D02*
G01X0005378Y0015695D01*
G01X0005379Y0015695D02*
G01X0005380Y0015712D01*
G01X0005380Y0015712D02*
G01X0005385Y0015729D01*
G01X0005385Y0015729D02*
G01X0005392Y0015744D01*
G01X0005392Y0015744D02*
G01X0005402Y0015758D01*
G01X0005402Y0015758D02*
G01X0005414Y0015770D01*
G01X0005414Y0015770D02*
G01X0005428Y0015780D01*
G01X0005428Y0015780D02*
G01X0005443Y0015787D01*
G01X0005443Y0015787D02*
G01X0005460Y0015792D01*
G01X0005460Y0015792D02*
G01X0005477Y0015793D01*
G01X0005477Y0015793D02*
G01X0005494Y0015792D01*
G01X0005494Y0015792D02*
G01X0005511Y0015787D01*
G01X0005511Y0015787D02*
G01X0005526Y0015780D01*
G01X0005526Y0015780D02*
G01X0005540Y0015770D01*
G01X0005540Y0015770D02*
G01X0005552Y0015758D01*
G01X0005552Y0015758D02*
G01X0005562Y0015744D01*
G01X0005562Y0015744D02*
G01X0005569Y0015729D01*
G01X0005569Y0015729D02*
G01X0005574Y0015712D01*
G01X0005574Y0015712D02*
G01X0005575Y0015695D01*
G01X0005575Y0015695D02*
G01X0005575Y0015380D01*
G01X0005477Y0015282D02*
G01X0005460Y0015283D01*
G01X0005460Y0015283D02*
G01X0005443Y0015288D01*
G01X0005443Y0015288D02*
G01X0005428Y0015295D01*
G01X0005428Y0015295D02*
G01X0005414Y0015305D01*
G01X0005414Y0015305D02*
G01X0005402Y0015317D01*
G01X0005402Y0015317D02*
G01X0005392Y0015331D01*
G01X0005392Y0015331D02*
G01X0005385Y0015346D01*
G01X0005385Y0015346D02*
G01X0005380Y0015363D01*
G01X0005380Y0015363D02*
G01X0005379Y0015380D01*
G01X0005477Y0015282D02*
G01X0005494Y0015283D01*
G01X0005494Y0015283D02*
G01X0005511Y0015288D01*
G01X0005511Y0015288D02*
G01X0005526Y0015295D01*
G01X0005526Y0015295D02*
G01X0005540Y0015305D01*
G01X0005540Y0015305D02*
G01X0005552Y0015317D01*
G01X0005552Y0015317D02*
G01X0005562Y0015331D01*
G01X0005562Y0015331D02*
G01X0005569Y0015346D01*
G01X0005569Y0015346D02*
G01X0005574Y0015363D01*
G01X0005574Y0015363D02*
G01X0005575Y0015380D01*
G01X0002544Y0031014D02*
G01X0002544Y0031329D01*
G01X0002544Y0031329D02*
G01X0002545Y0031346D01*
G01X0002545Y0031346D02*
G01X0002550Y0031363D01*
G01X0002550Y0031363D02*
G01X0002557Y0031378D01*
G01X0002557Y0031378D02*
G01X0002567Y0031392D01*
G01X0002567Y0031392D02*
G01X0002579Y0031404D01*
G01X0002579Y0031404D02*
G01X0002593Y0031414D01*
G01X0002593Y0031414D02*
G01X0002608Y0031420D01*
G01X0002608Y0031420D02*
G01X0002625Y0031426D01*
G01X0002625Y0031426D02*
G01X0002642Y0031427D01*
G01X0002642Y0031427D02*
G01X0002659Y0031426D01*
G01X0002659Y0031426D02*
G01X0002676Y0031420D01*
G01X0002676Y0031420D02*
G01X0002691Y0031414D01*
G01X0002691Y0031414D02*
G01X0002705Y0031404D01*
G01X0002705Y0031404D02*
G01X0002717Y0031392D01*
G01X0002717Y0031392D02*
G01X0002727Y0031378D01*
G01X0002727Y0031378D02*
G01X0002734Y0031363D01*
G01X0002734Y0031363D02*
G01X0002739Y0031346D01*
G01X0002739Y0031346D02*
G01X0002740Y0031329D01*
G01X0002740Y0031329D02*
G01X0002740Y0031014D01*
G01X0002642Y0030915D02*
G01X0002625Y0030917D01*
G01X0002625Y0030917D02*
G01X0002608Y0030922D01*
G01X0002608Y0030922D02*
G01X0002593Y0030929D01*
G01X0002593Y0030929D02*
G01X0002579Y0030939D01*
G01X0002579Y0030939D02*
G01X0002567Y0030951D01*
G01X0002567Y0030951D02*
G01X0002557Y0030965D01*
G01X0002557Y0030965D02*
G01X0002550Y0030980D01*
G01X0002550Y0030980D02*
G01X0002545Y0030997D01*
G01X0002545Y0030997D02*
G01X0002544Y0031014D01*
G01X0002642Y0030915D02*
G01X0002659Y0030917D01*
G01X0002659Y0030917D02*
G01X0002676Y0030922D01*
G01X0002676Y0030922D02*
G01X0002691Y0030929D01*
G01X0002691Y0030929D02*
G01X0002705Y0030939D01*
G01X0002705Y0030939D02*
G01X0002717Y0030951D01*
G01X0002717Y0030951D02*
G01X0002727Y0030965D01*
G01X0002727Y0030965D02*
G01X0002734Y0030980D01*
G01X0002734Y0030980D02*
G01X0002739Y0030997D01*
G01X0002739Y0030997D02*
G01X0002740Y0031014D01*
G01X0005378Y0031014D02*
G01X0005378Y0031329D01*
G01X0005379Y0031329D02*
G01X0005380Y0031346D01*
G01X0005380Y0031346D02*
G01X0005385Y0031363D01*
G01X0005385Y0031363D02*
G01X0005392Y0031378D01*
G01X0005392Y0031378D02*
G01X0005402Y0031392D01*
G01X0005402Y0031392D02*
G01X0005414Y0031404D01*
G01X0005414Y0031404D02*
G01X0005428Y0031414D01*
G01X0005428Y0031414D02*
G01X0005443Y0031420D01*
G01X0005443Y0031420D02*
G01X0005460Y0031426D01*
G01X0005460Y0031426D02*
G01X0005477Y0031427D01*
G01X0005477Y0031427D02*
G01X0005494Y0031426D01*
G01X0005494Y0031426D02*
G01X0005511Y0031420D01*
G01X0005511Y0031420D02*
G01X0005526Y0031414D01*
G01X0005526Y0031414D02*
G01X0005540Y0031404D01*
G01X0005540Y0031404D02*
G01X0005552Y0031392D01*
G01X0005552Y0031392D02*
G01X0005562Y0031378D01*
G01X0005562Y0031378D02*
G01X0005569Y0031363D01*
G01X0005569Y0031363D02*
G01X0005574Y0031346D01*
G01X0005574Y0031346D02*
G01X0005575Y0031329D01*
G01X0005575Y0031329D02*
G01X0005575Y0031014D01*
G01X0005477Y0030915D02*
G01X0005460Y0030917D01*
G01X0005460Y0030917D02*
G01X0005443Y0030922D01*
G01X0005443Y0030922D02*
G01X0005428Y0030929D01*
G01X0005428Y0030929D02*
G01X0005414Y0030939D01*
G01X0005414Y0030939D02*
G01X0005402Y0030951D01*
G01X0005402Y0030951D02*
G01X0005392Y0030965D01*
G01X0005392Y0030965D02*
G01X0005385Y0030980D01*
G01X0005385Y0030980D02*
G01X0005380Y0030997D01*
G01X0005380Y0030997D02*
G01X0005379Y0031014D01*
G01X0005477Y0030915D02*
G01X0005494Y0030917D01*
G01X0005494Y0030917D02*
G01X0005511Y0030922D01*
G01X0005511Y0030922D02*
G01X0005526Y0030929D01*
G01X0005526Y0030929D02*
G01X0005540Y0030939D01*
G01X0005540Y0030939D02*
G01X0005552Y0030951D01*
G01X0005552Y0030951D02*
G01X0005562Y0030965D01*
G01X0005562Y0030965D02*
G01X0005569Y0030980D01*
G01X0005569Y0030980D02*
G01X0005574Y0030997D01*
G01X0005574Y0030997D02*
G01X0005575Y0031014D01*
G01X0008977Y0015380D02*
G01X0008977Y0015695D01*
G01X0008977Y0015695D02*
G01X0008978Y0015712D01*
G01X0008978Y0015712D02*
G01X0008983Y0015729D01*
G01X0008983Y0015729D02*
G01X0008990Y0015744D01*
G01X0008990Y0015744D02*
G01X0009000Y0015758D01*
G01X0009000Y0015758D02*
G01X0009012Y0015770D01*
G01X0009012Y0015770D02*
G01X0009026Y0015780D01*
G01X0009026Y0015780D02*
G01X0009041Y0015787D01*
G01X0009041Y0015787D02*
G01X0009058Y0015792D01*
G01X0009058Y0015792D02*
G01X0009075Y0015793D01*
G01X0009075Y0015793D02*
G01X0009092Y0015792D01*
G01X0009092Y0015792D02*
G01X0009109Y0015787D01*
G01X0009109Y0015787D02*
G01X0009124Y0015780D01*
G01X0009124Y0015780D02*
G01X0009138Y0015770D01*
G01X0009138Y0015770D02*
G01X0009150Y0015758D01*
G01X0009150Y0015758D02*
G01X0009160Y0015744D01*
G01X0009160Y0015744D02*
G01X0009167Y0015729D01*
G01X0009167Y0015729D02*
G01X0009172Y0015712D01*
G01X0009172Y0015712D02*
G01X0009173Y0015695D01*
G01X0009173Y0015695D02*
G01X0009173Y0015380D01*
G01X0009075Y0015282D02*
G01X0009058Y0015283D01*
G01X0009058Y0015283D02*
G01X0009041Y0015288D01*
G01X0009041Y0015288D02*
G01X0009026Y0015295D01*
G01X0009026Y0015295D02*
G01X0009012Y0015305D01*
G01X0009012Y0015305D02*
G01X0009000Y0015317D01*
G01X0009000Y0015317D02*
G01X0008990Y0015331D01*
G01X0008990Y0015331D02*
G01X0008983Y0015346D01*
G01X0008983Y0015346D02*
G01X0008978Y0015363D01*
G01X0008978Y0015363D02*
G01X0008977Y0015380D01*
G01X0009075Y0015282D02*
G01X0009092Y0015283D01*
G01X0009092Y0015283D02*
G01X0009109Y0015288D01*
G01X0009109Y0015288D02*
G01X0009124Y0015295D01*
G01X0009124Y0015295D02*
G01X0009138Y0015305D01*
G01X0009138Y0015305D02*
G01X0009150Y0015317D01*
G01X0009150Y0015317D02*
G01X0009160Y0015331D01*
G01X0009160Y0015331D02*
G01X0009167Y0015346D01*
G01X0009167Y0015346D02*
G01X0009172Y0015363D01*
G01X0009172Y0015363D02*
G01X0009173Y0015380D01*
G01X0011811Y0015380D02*
G01X0011811Y0015695D01*
G01X0011812Y0015695D02*
G01X0011813Y0015712D01*
G01X0011813Y0015712D02*
G01X0011818Y0015729D01*
G01X0011818Y0015729D02*
G01X0011825Y0015744D01*
G01X0011825Y0015744D02*
G01X0011834Y0015758D01*
G01X0011834Y0015758D02*
G01X0011847Y0015770D01*
G01X0011847Y0015770D02*
G01X0011861Y0015780D01*
G01X0011861Y0015780D02*
G01X0011876Y0015787D01*
G01X0011876Y0015787D02*
G01X0011893Y0015792D01*
G01X0011893Y0015792D02*
G01X0011910Y0015793D01*
G01X0011910Y0015793D02*
G01X0011927Y0015792D01*
G01X0011927Y0015792D02*
G01X0011944Y0015787D01*
G01X0011944Y0015787D02*
G01X0011959Y0015780D01*
G01X0011959Y0015780D02*
G01X0011973Y0015770D01*
G01X0011973Y0015770D02*
G01X0011985Y0015758D01*
G01X0011985Y0015758D02*
G01X0011994Y0015744D01*
G01X0011994Y0015744D02*
G01X0012002Y0015729D01*
G01X0012002Y0015729D02*
G01X0012007Y0015712D01*
G01X0012007Y0015712D02*
G01X0012008Y0015695D01*
G01X0012008Y0015695D02*
G01X0012008Y0015380D01*
G01X0011910Y0015282D02*
G01X0011893Y0015283D01*
G01X0011893Y0015283D02*
G01X0011876Y0015288D01*
G01X0011876Y0015288D02*
G01X0011861Y0015295D01*
G01X0011861Y0015295D02*
G01X0011847Y0015305D01*
G01X0011847Y0015305D02*
G01X0011834Y0015317D01*
G01X0011834Y0015317D02*
G01X0011825Y0015331D01*
G01X0011825Y0015331D02*
G01X0011818Y0015346D01*
G01X0011818Y0015346D02*
G01X0011813Y0015363D01*
G01X0011813Y0015363D02*
G01X0011812Y0015380D01*
G01X0011910Y0015282D02*
G01X0011927Y0015283D01*
G01X0011927Y0015283D02*
G01X0011944Y0015288D01*
G01X0011944Y0015288D02*
G01X0011959Y0015295D01*
G01X0011959Y0015295D02*
G01X0011973Y0015305D01*
G01X0011973Y0015305D02*
G01X0011985Y0015317D01*
G01X0011985Y0015317D02*
G01X0011994Y0015331D01*
G01X0011994Y0015331D02*
G01X0012002Y0015346D01*
G01X0012002Y0015346D02*
G01X0012007Y0015363D01*
G01X0012007Y0015363D02*
G01X0012008Y0015380D01*
G01X0008977Y0031014D02*
G01X0008977Y0031329D01*
G01X0008977Y0031329D02*
G01X0008978Y0031346D01*
G01X0008978Y0031346D02*
G01X0008983Y0031363D01*
G01X0008983Y0031363D02*
G01X0008990Y0031378D01*
G01X0008990Y0031378D02*
G01X0009000Y0031392D01*
G01X0009000Y0031392D02*
G01X0009012Y0031404D01*
G01X0009012Y0031404D02*
G01X0009026Y0031414D01*
G01X0009026Y0031414D02*
G01X0009041Y0031420D01*
G01X0009041Y0031420D02*
G01X0009058Y0031426D01*
G01X0009058Y0031426D02*
G01X0009075Y0031427D01*
G01X0009075Y0031427D02*
G01X0009092Y0031426D01*
G01X0009092Y0031426D02*
G01X0009109Y0031420D01*
G01X0009109Y0031420D02*
G01X0009124Y0031414D01*
G01X0009124Y0031414D02*
G01X0009138Y0031404D01*
G01X0009138Y0031404D02*
G01X0009150Y0031392D01*
G01X0009150Y0031392D02*
G01X0009160Y0031378D01*
G01X0009160Y0031378D02*
G01X0009167Y0031363D01*
G01X0009167Y0031363D02*
G01X0009172Y0031346D01*
G01X0009172Y0031346D02*
G01X0009173Y0031329D01*
G01X0009173Y0031329D02*
G01X0009173Y0031014D01*
G01X0009075Y0030915D02*
G01X0009058Y0030917D01*
G01X0009058Y0030917D02*
G01X0009041Y0030922D01*
G01X0009041Y0030922D02*
G01X0009026Y0030929D01*
G01X0009026Y0030929D02*
G01X0009012Y0030939D01*
G01X0009012Y0030939D02*
G01X0009000Y0030951D01*
G01X0009000Y0030951D02*
G01X0008990Y0030965D01*
G01X0008990Y0030965D02*
G01X0008983Y0030980D01*
G01X0008983Y0030980D02*
G01X0008978Y0030997D01*
G01X0008978Y0030997D02*
G01X0008977Y0031014D01*
G01X0009075Y0030915D02*
G01X0009092Y0030917D01*
G01X0009092Y0030917D02*
G01X0009109Y0030922D01*
G01X0009109Y0030922D02*
G01X0009124Y0030929D01*
G01X0009124Y0030929D02*
G01X0009138Y0030939D01*
G01X0009138Y0030939D02*
G01X0009150Y0030951D01*
G01X0009150Y0030951D02*
G01X0009160Y0030965D01*
G01X0009160Y0030965D02*
G01X0009167Y0030980D01*
G01X0009167Y0030980D02*
G01X0009172Y0030997D01*
G01X0009172Y0030997D02*
G01X0009173Y0031014D01*
G01X0011811Y0031014D02*
G01X0011811Y0031329D01*
G01X0011812Y0031329D02*
G01X0011813Y0031346D01*
G01X0011813Y0031346D02*
G01X0011818Y0031363D01*
G01X0011818Y0031363D02*
G01X0011825Y0031378D01*
G01X0011825Y0031378D02*
G01X0011834Y0031392D01*
G01X0011834Y0031392D02*
G01X0011847Y0031404D01*
G01X0011847Y0031404D02*
G01X0011861Y0031414D01*
G01X0011861Y0031414D02*
G01X0011876Y0031420D01*
G01X0011876Y0031420D02*
G01X0011893Y0031426D01*
G01X0011893Y0031426D02*
G01X0011910Y0031427D01*
G01X0011910Y0031427D02*
G01X0011927Y0031426D01*
G01X0011927Y0031426D02*
G01X0011944Y0031420D01*
G01X0011944Y0031420D02*
G01X0011959Y0031414D01*
G01X0011959Y0031414D02*
G01X0011973Y0031404D01*
G01X0011973Y0031404D02*
G01X0011985Y0031392D01*
G01X0011985Y0031392D02*
G01X0011994Y0031378D01*
G01X0011994Y0031378D02*
G01X0012002Y0031363D01*
G01X0012002Y0031363D02*
G01X0012007Y0031346D01*
G01X0012007Y0031346D02*
G01X0012008Y0031329D01*
G01X0012008Y0031329D02*
G01X0012008Y0031014D01*
G01X0011910Y0030915D02*
G01X0011893Y0030917D01*
G01X0011893Y0030917D02*
G01X0011876Y0030922D01*
G01X0011876Y0030922D02*
G01X0011861Y0030929D01*
G01X0011861Y0030929D02*
G01X0011847Y0030939D01*
G01X0011847Y0030939D02*
G01X0011834Y0030951D01*
G01X0011834Y0030951D02*
G01X0011825Y0030965D01*
G01X0011825Y0030965D02*
G01X0011818Y0030980D01*
G01X0011818Y0030980D02*
G01X0011813Y0030997D01*
G01X0011813Y0030997D02*
G01X0011812Y0031014D01*
G01X0011910Y0030915D02*
G01X0011927Y0030917D01*
G01X0011927Y0030917D02*
G01X0011944Y0030922D01*
G01X0011944Y0030922D02*
G01X0011959Y0030929D01*
G01X0011959Y0030929D02*
G01X0011973Y0030939D01*
G01X0011973Y0030939D02*
G01X0011985Y0030951D01*
G01X0011985Y0030951D02*
G01X0011994Y0030965D01*
G01X0011994Y0030965D02*
G01X0012002Y0030980D01*
G01X0012002Y0030980D02*
G01X0012007Y0030997D01*
G01X0012007Y0030997D02*
G01X0012008Y0031014D01*
G01X0015409Y0015380D02*
G01X0015409Y0015695D01*
G01X0015409Y0015695D02*
G01X0015410Y0015712D01*
G01X0015410Y0015712D02*
G01X0015415Y0015729D01*
G01X0015415Y0015729D02*
G01X0015422Y0015744D01*
G01X0015422Y0015744D02*
G01X0015432Y0015758D01*
G01X0015432Y0015758D02*
G01X0015444Y0015770D01*
G01X0015444Y0015770D02*
G01X0015458Y0015780D01*
G01X0015458Y0015780D02*
G01X0015473Y0015787D01*
G01X0015473Y0015787D02*
G01X0015490Y0015792D01*
G01X0015490Y0015792D02*
G01X0015507Y0015793D01*
G01X0015507Y0015793D02*
G01X0015524Y0015792D01*
G01X0015524Y0015792D02*
G01X0015541Y0015787D01*
G01X0015541Y0015787D02*
G01X0015556Y0015780D01*
G01X0015556Y0015780D02*
G01X0015570Y0015770D01*
G01X0015570Y0015770D02*
G01X0015582Y0015758D01*
G01X0015582Y0015758D02*
G01X0015592Y0015744D01*
G01X0015592Y0015744D02*
G01X0015599Y0015729D01*
G01X0015599Y0015729D02*
G01X0015604Y0015712D01*
G01X0015604Y0015712D02*
G01X0015605Y0015695D01*
G01X0015605Y0015695D02*
G01X0015605Y0015380D01*
G01X0015507Y0015282D02*
G01X0015490Y0015283D01*
G01X0015490Y0015283D02*
G01X0015473Y0015288D01*
G01X0015473Y0015288D02*
G01X0015458Y0015295D01*
G01X0015458Y0015295D02*
G01X0015444Y0015305D01*
G01X0015444Y0015305D02*
G01X0015432Y0015317D01*
G01X0015432Y0015317D02*
G01X0015422Y0015331D01*
G01X0015422Y0015331D02*
G01X0015415Y0015346D01*
G01X0015415Y0015346D02*
G01X0015410Y0015363D01*
G01X0015410Y0015363D02*
G01X0015409Y0015380D01*
G01X0015507Y0015282D02*
G01X0015524Y0015283D01*
G01X0015524Y0015283D02*
G01X0015541Y0015288D01*
G01X0015541Y0015288D02*
G01X0015556Y0015295D01*
G01X0015556Y0015295D02*
G01X0015570Y0015305D01*
G01X0015570Y0015305D02*
G01X0015582Y0015317D01*
G01X0015582Y0015317D02*
G01X0015592Y0015331D01*
G01X0015592Y0015331D02*
G01X0015599Y0015346D01*
G01X0015599Y0015346D02*
G01X0015604Y0015363D01*
G01X0015604Y0015363D02*
G01X0015605Y0015380D01*
G01X0018243Y0015380D02*
G01X0018243Y0015695D01*
G01X0018244Y0015695D02*
G01X0018245Y0015712D01*
G01X0018245Y0015712D02*
G01X0018250Y0015729D01*
G01X0018250Y0015729D02*
G01X0018257Y0015744D01*
G01X0018257Y0015744D02*
G01X0018267Y0015758D01*
G01X0018267Y0015758D02*
G01X0018279Y0015770D01*
G01X0018279Y0015770D02*
G01X0018293Y0015780D01*
G01X0018293Y0015780D02*
G01X0018308Y0015787D01*
G01X0018308Y0015787D02*
G01X0018325Y0015792D01*
G01X0018325Y0015792D02*
G01X0018342Y0015793D01*
G01X0018342Y0015793D02*
G01X0018359Y0015792D01*
G01X0018359Y0015792D02*
G01X0018376Y0015787D01*
G01X0018376Y0015787D02*
G01X0018391Y0015780D01*
G01X0018391Y0015780D02*
G01X0018405Y0015770D01*
G01X0018405Y0015770D02*
G01X0018417Y0015758D01*
G01X0018417Y0015758D02*
G01X0018427Y0015744D01*
G01X0018427Y0015744D02*
G01X0018434Y0015729D01*
G01X0018434Y0015729D02*
G01X0018439Y0015712D01*
G01X0018439Y0015712D02*
G01X0018440Y0015695D01*
G01X0018440Y0015695D02*
G01X0018440Y0015380D01*
G01X0018342Y0015282D02*
G01X0018325Y0015283D01*
G01X0018325Y0015283D02*
G01X0018308Y0015288D01*
G01X0018308Y0015288D02*
G01X0018293Y0015295D01*
G01X0018293Y0015295D02*
G01X0018279Y0015305D01*
G01X0018279Y0015305D02*
G01X0018267Y0015317D01*
G01X0018267Y0015317D02*
G01X0018257Y0015331D01*
G01X0018257Y0015331D02*
G01X0018250Y0015346D01*
G01X0018250Y0015346D02*
G01X0018245Y0015363D01*
G01X0018245Y0015363D02*
G01X0018244Y0015380D01*
G01X0018342Y0015282D02*
G01X0018359Y0015283D01*
G01X0018359Y0015283D02*
G01X0018376Y0015288D01*
G01X0018376Y0015288D02*
G01X0018391Y0015295D01*
G01X0018391Y0015295D02*
G01X0018405Y0015305D01*
G01X0018405Y0015305D02*
G01X0018417Y0015317D01*
G01X0018417Y0015317D02*
G01X0018427Y0015331D01*
G01X0018427Y0015331D02*
G01X0018434Y0015346D01*
G01X0018434Y0015346D02*
G01X0018439Y0015363D01*
G01X0018439Y0015363D02*
G01X0018440Y0015380D01*
G01X0015409Y0031014D02*
G01X0015409Y0031329D01*
G01X0015409Y0031329D02*
G01X0015410Y0031346D01*
G01X0015410Y0031346D02*
G01X0015415Y0031363D01*
G01X0015415Y0031363D02*
G01X0015422Y0031378D01*
G01X0015422Y0031378D02*
G01X0015432Y0031392D01*
G01X0015432Y0031392D02*
G01X0015444Y0031404D01*
G01X0015444Y0031404D02*
G01X0015458Y0031414D01*
G01X0015458Y0031414D02*
G01X0015473Y0031420D01*
G01X0015473Y0031420D02*
G01X0015490Y0031426D01*
G01X0015490Y0031426D02*
G01X0015507Y0031427D01*
G01X0015507Y0031427D02*
G01X0015524Y0031426D01*
G01X0015524Y0031426D02*
G01X0015541Y0031420D01*
G01X0015541Y0031420D02*
G01X0015556Y0031414D01*
G01X0015556Y0031414D02*
G01X0015570Y0031404D01*
G01X0015570Y0031404D02*
G01X0015582Y0031392D01*
G01X0015582Y0031392D02*
G01X0015592Y0031378D01*
G01X0015592Y0031378D02*
G01X0015599Y0031363D01*
G01X0015599Y0031363D02*
G01X0015604Y0031346D01*
G01X0015604Y0031346D02*
G01X0015605Y0031329D01*
G01X0015605Y0031329D02*
G01X0015605Y0031014D01*
G01X0015507Y0030915D02*
G01X0015490Y0030917D01*
G01X0015490Y0030917D02*
G01X0015473Y0030922D01*
G01X0015473Y0030922D02*
G01X0015458Y0030929D01*
G01X0015458Y0030929D02*
G01X0015444Y0030939D01*
G01X0015444Y0030939D02*
G01X0015432Y0030951D01*
G01X0015432Y0030951D02*
G01X0015422Y0030965D01*
G01X0015422Y0030965D02*
G01X0015415Y0030980D01*
G01X0015415Y0030980D02*
G01X0015410Y0030997D01*
G01X0015410Y0030997D02*
G01X0015409Y0031014D01*
G01X0015507Y0030915D02*
G01X0015524Y0030917D01*
G01X0015524Y0030917D02*
G01X0015541Y0030922D01*
G01X0015541Y0030922D02*
G01X0015556Y0030929D01*
G01X0015556Y0030929D02*
G01X0015570Y0030939D01*
G01X0015570Y0030939D02*
G01X0015582Y0030951D01*
G01X0015582Y0030951D02*
G01X0015592Y0030965D01*
G01X0015592Y0030965D02*
G01X0015599Y0030980D01*
G01X0015599Y0030980D02*
G01X0015604Y0030997D01*
G01X0015604Y0030997D02*
G01X0015605Y0031014D01*
G01X0018243Y0031014D02*
G01X0018243Y0031329D01*
G01X0018244Y0031329D02*
G01X0018245Y0031346D01*
G01X0018245Y0031346D02*
G01X0018250Y0031363D01*
G01X0018250Y0031363D02*
G01X0018257Y0031378D01*
G01X0018257Y0031378D02*
G01X0018267Y0031392D01*
G01X0018267Y0031392D02*
G01X0018279Y0031404D01*
G01X0018279Y0031404D02*
G01X0018293Y0031414D01*
G01X0018293Y0031414D02*
G01X0018308Y0031420D01*
G01X0018308Y0031420D02*
G01X0018325Y0031426D01*
G01X0018325Y0031426D02*
G01X0018342Y0031427D01*
G01X0018342Y0031427D02*
G01X0018359Y0031426D01*
G01X0018359Y0031426D02*
G01X0018376Y0031420D01*
G01X0018376Y0031420D02*
G01X0018391Y0031414D01*
G01X0018391Y0031414D02*
G01X0018405Y0031404D01*
G01X0018405Y0031404D02*
G01X0018417Y0031392D01*
G01X0018417Y0031392D02*
G01X0018427Y0031378D01*
G01X0018427Y0031378D02*
G01X0018434Y0031363D01*
G01X0018434Y0031363D02*
G01X0018439Y0031346D01*
G01X0018439Y0031346D02*
G01X0018440Y0031329D01*
G01X0018440Y0031329D02*
G01X0018440Y0031014D01*
G01X0018342Y0030915D02*
G01X0018325Y0030917D01*
G01X0018325Y0030917D02*
G01X0018308Y0030922D01*
G01X0018308Y0030922D02*
G01X0018293Y0030929D01*
G01X0018293Y0030929D02*
G01X0018279Y0030939D01*
G01X0018279Y0030939D02*
G01X0018267Y0030951D01*
G01X0018267Y0030951D02*
G01X0018257Y0030965D01*
G01X0018257Y0030965D02*
G01X0018250Y0030980D01*
G01X0018250Y0030980D02*
G01X0018245Y0030997D01*
G01X0018245Y0030997D02*
G01X0018244Y0031014D01*
G01X0018342Y0030915D02*
G01X0018359Y0030917D01*
G01X0018359Y0030917D02*
G01X0018376Y0030922D01*
G01X0018376Y0030922D02*
G01X0018391Y0030929D01*
G01X0018391Y0030929D02*
G01X0018405Y0030939D01*
G01X0018405Y0030939D02*
G01X0018417Y0030951D01*
G01X0018417Y0030951D02*
G01X0018427Y0030965D01*
G01X0018427Y0030965D02*
G01X0018434Y0030980D01*
G01X0018434Y0030980D02*
G01X0018439Y0030997D01*
G01X0018439Y0030997D02*
G01X0018440Y0031014D01*
G01X0021841Y0015380D02*
G01X0021841Y0015695D01*
G01X0021841Y0015695D02*
G01X0021843Y0015712D01*
G01X0021843Y0015712D02*
G01X0021848Y0015729D01*
G01X0021848Y0015729D02*
G01X0021855Y0015744D01*
G01X0021855Y0015744D02*
G01X0021864Y0015758D01*
G01X0021864Y0015758D02*
G01X0021877Y0015770D01*
G01X0021877Y0015770D02*
G01X0021891Y0015780D01*
G01X0021891Y0015780D02*
G01X0021906Y0015787D01*
G01X0021906Y0015787D02*
G01X0021923Y0015792D01*
G01X0021923Y0015792D02*
G01X0021940Y0015793D01*
G01X0021940Y0015793D02*
G01X0021957Y0015792D01*
G01X0021957Y0015792D02*
G01X0021974Y0015787D01*
G01X0021974Y0015787D02*
G01X0021989Y0015780D01*
G01X0021989Y0015780D02*
G01X0022003Y0015770D01*
G01X0022003Y0015770D02*
G01X0022015Y0015758D01*
G01X0022015Y0015758D02*
G01X0022024Y0015744D01*
G01X0022024Y0015744D02*
G01X0022032Y0015729D01*
G01X0022032Y0015729D02*
G01X0022037Y0015712D01*
G01X0022037Y0015712D02*
G01X0022038Y0015695D01*
G01X0022038Y0015695D02*
G01X0022038Y0015380D01*
G01X0021940Y0015282D02*
G01X0021923Y0015283D01*
G01X0021923Y0015283D02*
G01X0021906Y0015288D01*
G01X0021906Y0015288D02*
G01X0021891Y0015295D01*
G01X0021891Y0015295D02*
G01X0021877Y0015305D01*
G01X0021877Y0015305D02*
G01X0021864Y0015317D01*
G01X0021864Y0015317D02*
G01X0021855Y0015331D01*
G01X0021855Y0015331D02*
G01X0021848Y0015346D01*
G01X0021848Y0015346D02*
G01X0021843Y0015363D01*
G01X0021843Y0015363D02*
G01X0021841Y0015380D01*
G01X0021940Y0015282D02*
G01X0021957Y0015283D01*
G01X0021957Y0015283D02*
G01X0021974Y0015288D01*
G01X0021974Y0015288D02*
G01X0021989Y0015295D01*
G01X0021989Y0015295D02*
G01X0022003Y0015305D01*
G01X0022003Y0015305D02*
G01X0022015Y0015317D01*
G01X0022015Y0015317D02*
G01X0022024Y0015331D01*
G01X0022024Y0015331D02*
G01X0022032Y0015346D01*
G01X0022032Y0015346D02*
G01X0022037Y0015363D01*
G01X0022037Y0015363D02*
G01X0022038Y0015380D01*
G01X0024676Y0015380D02*
G01X0024676Y0015695D01*
G01X0024677Y0015695D02*
G01X0024678Y0015712D01*
G01X0024678Y0015712D02*
G01X0024683Y0015729D01*
G01X0024683Y0015729D02*
G01X0024690Y0015744D01*
G01X0024690Y0015744D02*
G01X0024700Y0015758D01*
G01X0024700Y0015758D02*
G01X0024712Y0015770D01*
G01X0024712Y0015770D02*
G01X0024726Y0015780D01*
G01X0024726Y0015780D02*
G01X0024741Y0015787D01*
G01X0024741Y0015787D02*
G01X0024758Y0015792D01*
G01X0024758Y0015792D02*
G01X0024775Y0015793D01*
G01X0024775Y0015793D02*
G01X0024792Y0015792D01*
G01X0024792Y0015792D02*
G01X0024809Y0015787D01*
G01X0024809Y0015787D02*
G01X0024824Y0015780D01*
G01X0024824Y0015780D02*
G01X0024838Y0015770D01*
G01X0024838Y0015770D02*
G01X0024850Y0015758D01*
G01X0024850Y0015758D02*
G01X0024860Y0015744D01*
G01X0024860Y0015744D02*
G01X0024867Y0015729D01*
G01X0024867Y0015729D02*
G01X0024872Y0015712D01*
G01X0024872Y0015712D02*
G01X0024873Y0015695D01*
G01X0024873Y0015695D02*
G01X0024873Y0015380D01*
G01X0024775Y0015282D02*
G01X0024758Y0015283D01*
G01X0024758Y0015283D02*
G01X0024741Y0015288D01*
G01X0024741Y0015288D02*
G01X0024726Y0015295D01*
G01X0024726Y0015295D02*
G01X0024712Y0015305D01*
G01X0024712Y0015305D02*
G01X0024700Y0015317D01*
G01X0024700Y0015317D02*
G01X0024690Y0015331D01*
G01X0024690Y0015331D02*
G01X0024683Y0015346D01*
G01X0024683Y0015346D02*
G01X0024678Y0015363D01*
G01X0024678Y0015363D02*
G01X0024677Y0015380D01*
G01X0024775Y0015282D02*
G01X0024792Y0015283D01*
G01X0024792Y0015283D02*
G01X0024809Y0015288D01*
G01X0024809Y0015288D02*
G01X0024824Y0015295D01*
G01X0024824Y0015295D02*
G01X0024838Y0015305D01*
G01X0024838Y0015305D02*
G01X0024850Y0015317D01*
G01X0024850Y0015317D02*
G01X0024860Y0015331D01*
G01X0024860Y0015331D02*
G01X0024867Y0015346D01*
G01X0024867Y0015346D02*
G01X0024872Y0015363D01*
G01X0024872Y0015363D02*
G01X0024873Y0015380D01*
G01X0021841Y0031014D02*
G01X0021841Y0031329D01*
G01X0021841Y0031329D02*
G01X0021843Y0031346D01*
G01X0021843Y0031346D02*
G01X0021848Y0031363D01*
G01X0021848Y0031363D02*
G01X0021855Y0031378D01*
G01X0021855Y0031378D02*
G01X0021864Y0031392D01*
G01X0021864Y0031392D02*
G01X0021877Y0031404D01*
G01X0021877Y0031404D02*
G01X0021891Y0031414D01*
G01X0021891Y0031414D02*
G01X0021906Y0031420D01*
G01X0021906Y0031420D02*
G01X0021923Y0031426D01*
G01X0021923Y0031426D02*
G01X0021940Y0031427D01*
G01X0021940Y0031427D02*
G01X0021957Y0031426D01*
G01X0021957Y0031426D02*
G01X0021974Y0031420D01*
G01X0021974Y0031420D02*
G01X0021989Y0031414D01*
G01X0021989Y0031414D02*
G01X0022003Y0031404D01*
G01X0022003Y0031404D02*
G01X0022015Y0031392D01*
G01X0022015Y0031392D02*
G01X0022024Y0031378D01*
G01X0022024Y0031378D02*
G01X0022032Y0031363D01*
G01X0022032Y0031363D02*
G01X0022037Y0031346D01*
G01X0022037Y0031346D02*
G01X0022038Y0031329D01*
G01X0022038Y0031329D02*
G01X0022038Y0031014D01*
G01X0021940Y0030915D02*
G01X0021923Y0030917D01*
G01X0021923Y0030917D02*
G01X0021906Y0030922D01*
G01X0021906Y0030922D02*
G01X0021891Y0030929D01*
G01X0021891Y0030929D02*
G01X0021877Y0030939D01*
G01X0021877Y0030939D02*
G01X0021864Y0030951D01*
G01X0021864Y0030951D02*
G01X0021855Y0030965D01*
G01X0021855Y0030965D02*
G01X0021848Y0030980D01*
G01X0021848Y0030980D02*
G01X0021843Y0030997D01*
G01X0021843Y0030997D02*
G01X0021841Y0031014D01*
G01X0021940Y0030915D02*
G01X0021957Y0030917D01*
G01X0021957Y0030917D02*
G01X0021974Y0030922D01*
G01X0021974Y0030922D02*
G01X0021989Y0030929D01*
G01X0021989Y0030929D02*
G01X0022003Y0030939D01*
G01X0022003Y0030939D02*
G01X0022015Y0030951D01*
G01X0022015Y0030951D02*
G01X0022024Y0030965D01*
G01X0022024Y0030965D02*
G01X0022032Y0030980D01*
G01X0022032Y0030980D02*
G01X0022037Y0030997D01*
G01X0022037Y0030997D02*
G01X0022038Y0031014D01*
G01X0024676Y0031014D02*
G01X0024676Y0031329D01*
G01X0024677Y0031329D02*
G01X0024678Y0031346D01*
G01X0024678Y0031346D02*
G01X0024683Y0031363D01*
G01X0024683Y0031363D02*
G01X0024690Y0031378D01*
G01X0024690Y0031378D02*
G01X0024700Y0031392D01*
G01X0024700Y0031392D02*
G01X0024712Y0031404D01*
G01X0024712Y0031404D02*
G01X0024726Y0031414D01*
G01X0024726Y0031414D02*
G01X0024741Y0031420D01*
G01X0024741Y0031420D02*
G01X0024758Y0031426D01*
G01X0024758Y0031426D02*
G01X0024775Y0031427D01*
G01X0024775Y0031427D02*
G01X0024792Y0031426D01*
G01X0024792Y0031426D02*
G01X0024809Y0031420D01*
G01X0024809Y0031420D02*
G01X0024824Y0031414D01*
G01X0024824Y0031414D02*
G01X0024838Y0031404D01*
G01X0024838Y0031404D02*
G01X0024850Y0031392D01*
G01X0024850Y0031392D02*
G01X0024860Y0031378D01*
G01X0024860Y0031378D02*
G01X0024867Y0031363D01*
G01X0024867Y0031363D02*
G01X0024872Y0031346D01*
G01X0024872Y0031346D02*
G01X0024873Y0031329D01*
G01X0024873Y0031329D02*
G01X0024873Y0031014D01*
G01X0024775Y0030915D02*
G01X0024758Y0030917D01*
G01X0024758Y0030917D02*
G01X0024741Y0030922D01*
G01X0024741Y0030922D02*
G01X0024726Y0030929D01*
G01X0024726Y0030929D02*
G01X0024712Y0030939D01*
G01X0024712Y0030939D02*
G01X0024700Y0030951D01*
G01X0024700Y0030951D02*
G01X0024690Y0030965D01*
G01X0024690Y0030965D02*
G01X0024683Y0030980D01*
G01X0024683Y0030980D02*
G01X0024678Y0030997D01*
G01X0024678Y0030997D02*
G01X0024677Y0031014D01*
G01X0024775Y0030915D02*
G01X0024792Y0030917D01*
G01X0024792Y0030917D02*
G01X0024809Y0030922D01*
G01X0024809Y0030922D02*
G01X0024824Y0030929D01*
G01X0024824Y0030929D02*
G01X0024838Y0030939D01*
G01X0024838Y0030939D02*
G01X0024850Y0030951D01*
G01X0024850Y0030951D02*
G01X0024860Y0030965D01*
G01X0024860Y0030965D02*
G01X0024867Y0030980D01*
G01X0024867Y0030980D02*
G01X0024872Y0030997D01*
G01X0024872Y0030997D02*
G01X0024873Y0031014D01*
G01X0028274Y0015380D02*
G01X0028274Y0015695D01*
G01X0028274Y0015695D02*
G01X0028275Y0015712D01*
G01X0028275Y0015712D02*
G01X0028280Y0015729D01*
G01X0028280Y0015729D02*
G01X0028287Y0015744D01*
G01X0028287Y0015744D02*
G01X0028297Y0015758D01*
G01X0028297Y0015758D02*
G01X0028309Y0015770D01*
G01X0028309Y0015770D02*
G01X0028323Y0015780D01*
G01X0028323Y0015780D02*
G01X0028338Y0015787D01*
G01X0028338Y0015787D02*
G01X0028355Y0015792D01*
G01X0028355Y0015792D02*
G01X0028372Y0015793D01*
G01X0028372Y0015793D02*
G01X0028389Y0015792D01*
G01X0028389Y0015792D02*
G01X0028406Y0015787D01*
G01X0028406Y0015787D02*
G01X0028421Y0015780D01*
G01X0028421Y0015780D02*
G01X0028435Y0015770D01*
G01X0028435Y0015770D02*
G01X0028447Y0015758D01*
G01X0028447Y0015758D02*
G01X0028457Y0015744D01*
G01X0028457Y0015744D02*
G01X0028464Y0015729D01*
G01X0028464Y0015729D02*
G01X0028469Y0015712D01*
G01X0028469Y0015712D02*
G01X0028470Y0015695D01*
G01X0028470Y0015695D02*
G01X0028470Y0015380D01*
G01X0028372Y0015282D02*
G01X0028355Y0015283D01*
G01X0028355Y0015283D02*
G01X0028338Y0015288D01*
G01X0028338Y0015288D02*
G01X0028323Y0015295D01*
G01X0028323Y0015295D02*
G01X0028309Y0015305D01*
G01X0028309Y0015305D02*
G01X0028297Y0015317D01*
G01X0028297Y0015317D02*
G01X0028287Y0015331D01*
G01X0028287Y0015331D02*
G01X0028280Y0015346D01*
G01X0028280Y0015346D02*
G01X0028275Y0015363D01*
G01X0028275Y0015363D02*
G01X0028274Y0015380D01*
G01X0028372Y0015282D02*
G01X0028389Y0015283D01*
G01X0028389Y0015283D02*
G01X0028406Y0015288D01*
G01X0028406Y0015288D02*
G01X0028421Y0015295D01*
G01X0028421Y0015295D02*
G01X0028435Y0015305D01*
G01X0028435Y0015305D02*
G01X0028447Y0015317D01*
G01X0028447Y0015317D02*
G01X0028457Y0015331D01*
G01X0028457Y0015331D02*
G01X0028464Y0015346D01*
G01X0028464Y0015346D02*
G01X0028469Y0015363D01*
G01X0028469Y0015363D02*
G01X0028470Y0015380D01*
G01X0031108Y0015380D02*
G01X0031108Y0015695D01*
G01X0031109Y0015695D02*
G01X0031110Y0015712D01*
G01X0031110Y0015712D02*
G01X0031115Y0015729D01*
G01X0031115Y0015729D02*
G01X0031122Y0015744D01*
G01X0031122Y0015744D02*
G01X0031132Y0015758D01*
G01X0031132Y0015758D02*
G01X0031144Y0015770D01*
G01X0031144Y0015770D02*
G01X0031158Y0015780D01*
G01X0031158Y0015780D02*
G01X0031173Y0015787D01*
G01X0031173Y0015787D02*
G01X0031190Y0015792D01*
G01X0031190Y0015792D02*
G01X0031207Y0015793D01*
G01X0031207Y0015793D02*
G01X0031224Y0015792D01*
G01X0031224Y0015792D02*
G01X0031241Y0015787D01*
G01X0031241Y0015787D02*
G01X0031256Y0015780D01*
G01X0031256Y0015780D02*
G01X0031270Y0015770D01*
G01X0031270Y0015770D02*
G01X0031282Y0015758D01*
G01X0031282Y0015758D02*
G01X0031292Y0015744D01*
G01X0031292Y0015744D02*
G01X0031299Y0015729D01*
G01X0031299Y0015729D02*
G01X0031304Y0015712D01*
G01X0031304Y0015712D02*
G01X0031305Y0015695D01*
G01X0031305Y0015695D02*
G01X0031305Y0015380D01*
G01X0031207Y0015282D02*
G01X0031190Y0015283D01*
G01X0031190Y0015283D02*
G01X0031173Y0015288D01*
G01X0031173Y0015288D02*
G01X0031158Y0015295D01*
G01X0031158Y0015295D02*
G01X0031144Y0015305D01*
G01X0031144Y0015305D02*
G01X0031132Y0015317D01*
G01X0031132Y0015317D02*
G01X0031122Y0015331D01*
G01X0031122Y0015331D02*
G01X0031115Y0015346D01*
G01X0031115Y0015346D02*
G01X0031110Y0015363D01*
G01X0031110Y0015363D02*
G01X0031109Y0015380D01*
G01X0031207Y0015282D02*
G01X0031224Y0015283D01*
G01X0031224Y0015283D02*
G01X0031241Y0015288D01*
G01X0031241Y0015288D02*
G01X0031256Y0015295D01*
G01X0031256Y0015295D02*
G01X0031270Y0015305D01*
G01X0031270Y0015305D02*
G01X0031282Y0015317D01*
G01X0031282Y0015317D02*
G01X0031292Y0015331D01*
G01X0031292Y0015331D02*
G01X0031299Y0015346D01*
G01X0031299Y0015346D02*
G01X0031304Y0015363D01*
G01X0031304Y0015363D02*
G01X0031305Y0015380D01*
G01X0028274Y0031014D02*
G01X0028274Y0031329D01*
G01X0028274Y0031329D02*
G01X0028275Y0031346D01*
G01X0028275Y0031346D02*
G01X0028280Y0031363D01*
G01X0028280Y0031363D02*
G01X0028287Y0031378D01*
G01X0028287Y0031378D02*
G01X0028297Y0031392D01*
G01X0028297Y0031392D02*
G01X0028309Y0031404D01*
G01X0028309Y0031404D02*
G01X0028323Y0031414D01*
G01X0028323Y0031414D02*
G01X0028338Y0031420D01*
G01X0028338Y0031420D02*
G01X0028355Y0031426D01*
G01X0028355Y0031426D02*
G01X0028372Y0031427D01*
G01X0028372Y0031427D02*
G01X0028389Y0031426D01*
G01X0028389Y0031426D02*
G01X0028406Y0031420D01*
G01X0028406Y0031420D02*
G01X0028421Y0031414D01*
G01X0028421Y0031414D02*
G01X0028435Y0031404D01*
G01X0028435Y0031404D02*
G01X0028447Y0031392D01*
G01X0028447Y0031392D02*
G01X0028457Y0031378D01*
G01X0028457Y0031378D02*
G01X0028464Y0031363D01*
G01X0028464Y0031363D02*
G01X0028469Y0031346D01*
G01X0028469Y0031346D02*
G01X0028470Y0031329D01*
G01X0028470Y0031329D02*
G01X0028470Y0031014D01*
G01X0028372Y0030915D02*
G01X0028355Y0030917D01*
G01X0028355Y0030917D02*
G01X0028338Y0030922D01*
G01X0028338Y0030922D02*
G01X0028323Y0030929D01*
G01X0028323Y0030929D02*
G01X0028309Y0030939D01*
G01X0028309Y0030939D02*
G01X0028297Y0030951D01*
G01X0028297Y0030951D02*
G01X0028287Y0030965D01*
G01X0028287Y0030965D02*
G01X0028280Y0030980D01*
G01X0028280Y0030980D02*
G01X0028275Y0030997D01*
G01X0028275Y0030997D02*
G01X0028274Y0031014D01*
G01X0028372Y0030915D02*
G01X0028389Y0030917D01*
G01X0028389Y0030917D02*
G01X0028406Y0030922D01*
G01X0028406Y0030922D02*
G01X0028421Y0030929D01*
G01X0028421Y0030929D02*
G01X0028435Y0030939D01*
G01X0028435Y0030939D02*
G01X0028447Y0030951D01*
G01X0028447Y0030951D02*
G01X0028457Y0030965D01*
G01X0028457Y0030965D02*
G01X0028464Y0030980D01*
G01X0028464Y0030980D02*
G01X0028469Y0030997D01*
G01X0028469Y0030997D02*
G01X0028470Y0031014D01*
G01X0031108Y0031014D02*
G01X0031108Y0031329D01*
G01X0031109Y0031329D02*
G01X0031110Y0031346D01*
G01X0031110Y0031346D02*
G01X0031115Y0031363D01*
G01X0031115Y0031363D02*
G01X0031122Y0031378D01*
G01X0031122Y0031378D02*
G01X0031132Y0031392D01*
G01X0031132Y0031392D02*
G01X0031144Y0031404D01*
G01X0031144Y0031404D02*
G01X0031158Y0031414D01*
G01X0031158Y0031414D02*
G01X0031173Y0031420D01*
G01X0031173Y0031420D02*
G01X0031190Y0031426D01*
G01X0031190Y0031426D02*
G01X0031207Y0031427D01*
G01X0031207Y0031427D02*
G01X0031224Y0031426D01*
G01X0031224Y0031426D02*
G01X0031241Y0031420D01*
G01X0031241Y0031420D02*
G01X0031256Y0031414D01*
G01X0031256Y0031414D02*
G01X0031270Y0031404D01*
G01X0031270Y0031404D02*
G01X0031282Y0031392D01*
G01X0031282Y0031392D02*
G01X0031292Y0031378D01*
G01X0031292Y0031378D02*
G01X0031299Y0031363D01*
G01X0031299Y0031363D02*
G01X0031304Y0031346D01*
G01X0031304Y0031346D02*
G01X0031305Y0031329D01*
G01X0031305Y0031329D02*
G01X0031305Y0031014D01*
G01X0031207Y0030915D02*
G01X0031190Y0030917D01*
G01X0031190Y0030917D02*
G01X0031173Y0030922D01*
G01X0031173Y0030922D02*
G01X0031158Y0030929D01*
G01X0031158Y0030929D02*
G01X0031144Y0030939D01*
G01X0031144Y0030939D02*
G01X0031132Y0030951D01*
G01X0031132Y0030951D02*
G01X0031122Y0030965D01*
G01X0031122Y0030965D02*
G01X0031115Y0030980D01*
G01X0031115Y0030980D02*
G01X0031110Y0030997D01*
G01X0031110Y0030997D02*
G01X0031109Y0031014D01*
G01X0031207Y0030915D02*
G01X0031224Y0030917D01*
G01X0031224Y0030917D02*
G01X0031241Y0030922D01*
G01X0031241Y0030922D02*
G01X0031256Y0030929D01*
G01X0031256Y0030929D02*
G01X0031270Y0030939D01*
G01X0031270Y0030939D02*
G01X0031282Y0030951D01*
G01X0031282Y0030951D02*
G01X0031292Y0030965D01*
G01X0031292Y0030965D02*
G01X0031299Y0030980D01*
G01X0031299Y0030980D02*
G01X0031304Y0030997D01*
G01X0031304Y0030997D02*
G01X0031305Y0031014D01*
G01X0034707Y0015380D02*
G01X0034707Y0015695D01*
G01X0034707Y0015695D02*
G01X0034708Y0015712D01*
G01X0034708Y0015712D02*
G01X0034713Y0015729D01*
G01X0034713Y0015729D02*
G01X0034720Y0015744D01*
G01X0034720Y0015744D02*
G01X0034730Y0015758D01*
G01X0034730Y0015758D02*
G01X0034742Y0015770D01*
G01X0034742Y0015770D02*
G01X0034756Y0015780D01*
G01X0034756Y0015780D02*
G01X0034771Y0015787D01*
G01X0034771Y0015787D02*
G01X0034788Y0015792D01*
G01X0034788Y0015792D02*
G01X0034805Y0015793D01*
G01X0034805Y0015793D02*
G01X0034822Y0015792D01*
G01X0034822Y0015792D02*
G01X0034839Y0015787D01*
G01X0034839Y0015787D02*
G01X0034854Y0015780D01*
G01X0034854Y0015780D02*
G01X0034868Y0015770D01*
G01X0034868Y0015770D02*
G01X0034880Y0015758D01*
G01X0034880Y0015758D02*
G01X0034890Y0015744D01*
G01X0034890Y0015744D02*
G01X0034897Y0015729D01*
G01X0034897Y0015729D02*
G01X0034902Y0015712D01*
G01X0034902Y0015712D02*
G01X0034903Y0015695D01*
G01X0034903Y0015695D02*
G01X0034903Y0015380D01*
G01X0034805Y0015282D02*
G01X0034788Y0015283D01*
G01X0034788Y0015283D02*
G01X0034771Y0015288D01*
G01X0034771Y0015288D02*
G01X0034756Y0015295D01*
G01X0034756Y0015295D02*
G01X0034742Y0015305D01*
G01X0034742Y0015305D02*
G01X0034730Y0015317D01*
G01X0034730Y0015317D02*
G01X0034720Y0015331D01*
G01X0034720Y0015331D02*
G01X0034713Y0015346D01*
G01X0034713Y0015346D02*
G01X0034708Y0015363D01*
G01X0034708Y0015363D02*
G01X0034707Y0015380D01*
G01X0034805Y0015282D02*
G01X0034822Y0015283D01*
G01X0034822Y0015283D02*
G01X0034839Y0015288D01*
G01X0034839Y0015288D02*
G01X0034854Y0015295D01*
G01X0034854Y0015295D02*
G01X0034868Y0015305D01*
G01X0034868Y0015305D02*
G01X0034880Y0015317D01*
G01X0034880Y0015317D02*
G01X0034890Y0015331D01*
G01X0034890Y0015331D02*
G01X0034897Y0015346D01*
G01X0034897Y0015346D02*
G01X0034902Y0015363D01*
G01X0034902Y0015363D02*
G01X0034903Y0015380D01*
G01X0037541Y0015380D02*
G01X0037541Y0015695D01*
G01X0037542Y0015695D02*
G01X0037543Y0015712D01*
G01X0037543Y0015712D02*
G01X0037548Y0015729D01*
G01X0037548Y0015729D02*
G01X0037555Y0015744D01*
G01X0037555Y0015744D02*
G01X0037565Y0015758D01*
G01X0037565Y0015758D02*
G01X0037577Y0015770D01*
G01X0037577Y0015770D02*
G01X0037591Y0015780D01*
G01X0037591Y0015780D02*
G01X0037606Y0015787D01*
G01X0037606Y0015787D02*
G01X0037623Y0015792D01*
G01X0037623Y0015792D02*
G01X0037640Y0015793D01*
G01X0037640Y0015793D02*
G01X0037657Y0015792D01*
G01X0037657Y0015792D02*
G01X0037674Y0015787D01*
G01X0037674Y0015787D02*
G01X0037689Y0015780D01*
G01X0037689Y0015780D02*
G01X0037703Y0015770D01*
G01X0037703Y0015770D02*
G01X0037715Y0015758D01*
G01X0037715Y0015758D02*
G01X0037725Y0015744D01*
G01X0037725Y0015744D02*
G01X0037732Y0015729D01*
G01X0037732Y0015729D02*
G01X0037737Y0015712D01*
G01X0037737Y0015712D02*
G01X0037738Y0015695D01*
G01X0037738Y0015695D02*
G01X0037738Y0015380D01*
G01X0037640Y0015282D02*
G01X0037623Y0015283D01*
G01X0037623Y0015283D02*
G01X0037606Y0015288D01*
G01X0037606Y0015288D02*
G01X0037591Y0015295D01*
G01X0037591Y0015295D02*
G01X0037577Y0015305D01*
G01X0037577Y0015305D02*
G01X0037565Y0015317D01*
G01X0037565Y0015317D02*
G01X0037555Y0015331D01*
G01X0037555Y0015331D02*
G01X0037548Y0015346D01*
G01X0037548Y0015346D02*
G01X0037543Y0015363D01*
G01X0037543Y0015363D02*
G01X0037542Y0015380D01*
G01X0037640Y0015282D02*
G01X0037657Y0015283D01*
G01X0037657Y0015283D02*
G01X0037674Y0015288D01*
G01X0037674Y0015288D02*
G01X0037689Y0015295D01*
G01X0037689Y0015295D02*
G01X0037703Y0015305D01*
G01X0037703Y0015305D02*
G01X0037715Y0015317D01*
G01X0037715Y0015317D02*
G01X0037725Y0015331D01*
G01X0037725Y0015331D02*
G01X0037732Y0015346D01*
G01X0037732Y0015346D02*
G01X0037737Y0015363D01*
G01X0037737Y0015363D02*
G01X0037738Y0015380D01*
G01X0034707Y0031014D02*
G01X0034707Y0031329D01*
G01X0034707Y0031329D02*
G01X0034708Y0031346D01*
G01X0034708Y0031346D02*
G01X0034713Y0031363D01*
G01X0034713Y0031363D02*
G01X0034720Y0031378D01*
G01X0034720Y0031378D02*
G01X0034730Y0031392D01*
G01X0034730Y0031392D02*
G01X0034742Y0031404D01*
G01X0034742Y0031404D02*
G01X0034756Y0031414D01*
G01X0034756Y0031414D02*
G01X0034771Y0031420D01*
G01X0034771Y0031420D02*
G01X0034788Y0031426D01*
G01X0034788Y0031426D02*
G01X0034805Y0031427D01*
G01X0034805Y0031427D02*
G01X0034822Y0031426D01*
G01X0034822Y0031426D02*
G01X0034839Y0031420D01*
G01X0034839Y0031420D02*
G01X0034854Y0031414D01*
G01X0034854Y0031414D02*
G01X0034868Y0031404D01*
G01X0034868Y0031404D02*
G01X0034880Y0031392D01*
G01X0034880Y0031392D02*
G01X0034890Y0031378D01*
G01X0034890Y0031378D02*
G01X0034897Y0031363D01*
G01X0034897Y0031363D02*
G01X0034902Y0031346D01*
G01X0034902Y0031346D02*
G01X0034903Y0031329D01*
G01X0034903Y0031329D02*
G01X0034903Y0031014D01*
G01X0034805Y0030915D02*
G01X0034788Y0030917D01*
G01X0034788Y0030917D02*
G01X0034771Y0030922D01*
G01X0034771Y0030922D02*
G01X0034756Y0030929D01*
G01X0034756Y0030929D02*
G01X0034742Y0030939D01*
G01X0034742Y0030939D02*
G01X0034730Y0030951D01*
G01X0034730Y0030951D02*
G01X0034720Y0030965D01*
G01X0034720Y0030965D02*
G01X0034713Y0030980D01*
G01X0034713Y0030980D02*
G01X0034708Y0030997D01*
G01X0034708Y0030997D02*
G01X0034707Y0031014D01*
G01X0034805Y0030915D02*
G01X0034822Y0030917D01*
G01X0034822Y0030917D02*
G01X0034839Y0030922D01*
G01X0034839Y0030922D02*
G01X0034854Y0030929D01*
G01X0034854Y0030929D02*
G01X0034868Y0030939D01*
G01X0034868Y0030939D02*
G01X0034880Y0030951D01*
G01X0034880Y0030951D02*
G01X0034890Y0030965D01*
G01X0034890Y0030965D02*
G01X0034897Y0030980D01*
G01X0034897Y0030980D02*
G01X0034902Y0030997D01*
G01X0034902Y0030997D02*
G01X0034903Y0031014D01*
G01X0037541Y0031014D02*
G01X0037541Y0031329D01*
G01X0037542Y0031329D02*
G01X0037543Y0031346D01*
G01X0037543Y0031346D02*
G01X0037548Y0031363D01*
G01X0037548Y0031363D02*
G01X0037555Y0031378D01*
G01X0037555Y0031378D02*
G01X0037565Y0031392D01*
G01X0037565Y0031392D02*
G01X0037577Y0031404D01*
G01X0037577Y0031404D02*
G01X0037591Y0031414D01*
G01X0037591Y0031414D02*
G01X0037606Y0031420D01*
G01X0037606Y0031420D02*
G01X0037623Y0031426D01*
G01X0037623Y0031426D02*
G01X0037640Y0031427D01*
G01X0037640Y0031427D02*
G01X0037657Y0031426D01*
G01X0037657Y0031426D02*
G01X0037674Y0031420D01*
G01X0037674Y0031420D02*
G01X0037689Y0031414D01*
G01X0037689Y0031414D02*
G01X0037703Y0031404D01*
G01X0037703Y0031404D02*
G01X0037715Y0031392D01*
G01X0037715Y0031392D02*
G01X0037725Y0031378D01*
G01X0037725Y0031378D02*
G01X0037732Y0031363D01*
G01X0037732Y0031363D02*
G01X0037737Y0031346D01*
G01X0037737Y0031346D02*
G01X0037738Y0031329D01*
G01X0037738Y0031329D02*
G01X0037738Y0031014D01*
G01X0037640Y0030915D02*
G01X0037623Y0030917D01*
G01X0037623Y0030917D02*
G01X0037606Y0030922D01*
G01X0037606Y0030922D02*
G01X0037591Y0030929D01*
G01X0037591Y0030929D02*
G01X0037577Y0030939D01*
G01X0037577Y0030939D02*
G01X0037565Y0030951D01*
G01X0037565Y0030951D02*
G01X0037555Y0030965D01*
G01X0037555Y0030965D02*
G01X0037548Y0030980D01*
G01X0037548Y0030980D02*
G01X0037543Y0030997D01*
G01X0037543Y0030997D02*
G01X0037542Y0031014D01*
G01X0037640Y0030915D02*
G01X0037657Y0030917D01*
G01X0037657Y0030917D02*
G01X0037674Y0030922D01*
G01X0037674Y0030922D02*
G01X0037689Y0030929D01*
G01X0037689Y0030929D02*
G01X0037703Y0030939D01*
G01X0037703Y0030939D02*
G01X0037715Y0030951D01*
G01X0037715Y0030951D02*
G01X0037725Y0030965D01*
G01X0037725Y0030965D02*
G01X0037732Y0030980D01*
G01X0037732Y0030980D02*
G01X0037737Y0030997D01*
G01X0037737Y0030997D02*
G01X0037738Y0031014D01*
G01X0000000Y0000000D02*
G54D11*
G01X0001000Y0001000D02*
G01X0001000Y0031955D01*
G01X0001000Y0031955D02*
G01X0039283Y0031955D01*
G01X0039283Y0031955D02*
G01X0039283Y0001000D01*
G01X0039283Y0001000D02*
G01X0001000Y0001000D01*
G01X0000000Y0000000D02*
G01X0001000Y0016477D02*
G01X0039283Y0016477D01*
G01X0007276Y0001000D02*
G01X0007276Y0031955D01*
G01X0013709Y0001000D02*
G01X0013709Y0031955D01*
G01X0020141Y0001000D02*
G01X0020141Y0031955D01*
G01X0026574Y0001000D02*
G01X0026574Y0031955D01*
G01X0033006Y0001000D02*
G01X0033006Y0031955D01*
G01X0000000Y0000000D02*
G54D12*
G01X0003157Y0010835D02*
G01X0003518Y0010835D01*
G01X0003518Y0010835D02*
G01X0003698Y0011015D01*
G01X0003698Y0011015D02*
G01X0003518Y0011196D01*
G01X0003518Y0011196D02*
G01X0003157Y0011196D01*
G01X0003428Y0011379D02*
G01X0003428Y0011739D01*
G01X0003608Y0011922D02*
G01X0003247Y0011922D01*
G01X0003247Y0011922D02*
G01X0003157Y0012013D01*
G01X0003157Y0012013D02*
G01X0003157Y0012193D01*
G01X0003157Y0012193D02*
G01X0003247Y0012283D01*
G01X0003157Y0012466D02*
G01X0003608Y0012466D01*
G01X0003608Y0012466D02*
G01X0003698Y0012556D01*
G01X0003698Y0012556D02*
G01X0003698Y0012737D01*
G01X0003698Y0012737D02*
G01X0003608Y0012827D01*
G01X0003608Y0012827D02*
G01X0003157Y0012827D01*
G01X0003157Y0013010D02*
G01X0003157Y0013371D01*
G01X0003157Y0013190D02*
G01X0003698Y0013190D01*
G01X0003608Y0012283D02*
G01X0003698Y0012193D01*
G01X0003698Y0012193D02*
G01X0003698Y0012013D01*
G01X0003698Y0012013D02*
G01X0003608Y0011922D01*
G01X0003428Y0014098D02*
G01X0003428Y0014458D01*
G01X0003428Y0014641D02*
G01X0003428Y0015002D01*
G01X0003698Y0015185D02*
G01X0003428Y0015546D01*
G01X0003428Y0015546D02*
G01X0003157Y0015185D01*
G01X0008259Y0024614D02*
G01X0008440Y0024795D01*
G01X0008440Y0024795D02*
G01X0008440Y0025155D01*
G01X0008623Y0024885D02*
G01X0008983Y0024885D01*
G01X0009167Y0025065D02*
G01X0009167Y0024705D01*
G01X0009167Y0024705D02*
G01X0009257Y0024614D01*
G01X0009257Y0024614D02*
G01X0009437Y0024614D01*
G01X0009437Y0024614D02*
G01X0009527Y0024705D01*
G01X0009710Y0024705D02*
G01X0009800Y0024614D01*
G01X0009800Y0024614D02*
G01X0009981Y0024614D01*
G01X0009981Y0024614D02*
G01X0010071Y0024705D01*
G01X0010071Y0024705D02*
G01X0010071Y0025155D01*
G01X0010254Y0025155D02*
G01X0010615Y0025155D01*
G01X0010434Y0025155D02*
G01X0010434Y0024614D01*
G01X0009710Y0024705D02*
G01X0009710Y0025155D01*
G01X0009527Y0025065D02*
G01X0009437Y0025155D01*
G01X0009437Y0025155D02*
G01X0009257Y0025155D01*
G01X0009257Y0025155D02*
G01X0009167Y0025065D01*
G01X0008259Y0024614D02*
G01X0008079Y0024795D01*
G01X0008079Y0024795D02*
G01X0008079Y0025155D01*
G01X0006097Y0025279D02*
G01X0005736Y0025008D01*
G01X0005553Y0025279D02*
G01X0005192Y0025279D01*
G01X0005009Y0025279D02*
G01X0004649Y0025279D01*
G01X0003922Y0025549D02*
G01X0003561Y0025549D01*
G01X0003742Y0025549D02*
G01X0003742Y0025008D01*
G01X0003378Y0025098D02*
G01X0003378Y0025549D01*
G01X0003017Y0025549D02*
G01X0003017Y0025098D01*
G01X0003017Y0025098D02*
G01X0003108Y0025008D01*
G01X0003108Y0025008D02*
G01X0003288Y0025008D01*
G01X0003288Y0025008D02*
G01X0003378Y0025098D01*
G01X0002834Y0025098D02*
G01X0002744Y0025008D01*
G01X0002744Y0025008D02*
G01X0002564Y0025008D01*
G01X0002564Y0025008D02*
G01X0002474Y0025098D01*
G01X0002474Y0025098D02*
G01X0002474Y0025459D01*
G01X0002474Y0025459D02*
G01X0002564Y0025549D01*
G01X0002564Y0025549D02*
G01X0002744Y0025549D01*
G01X0002744Y0025549D02*
G01X0002834Y0025459D01*
G01X0002291Y0025279D02*
G01X0001930Y0025279D01*
G01X0001747Y0025188D02*
G01X0001747Y0025549D01*
G01X0001747Y0025188D02*
G01X0001566Y0025008D01*
G01X0001566Y0025008D02*
G01X0001386Y0025188D01*
G01X0001386Y0025188D02*
G01X0001386Y0025549D01*
G01X0005736Y0025549D02*
G01X0006097Y0025279D01*
G01X0011342Y0024885D02*
G01X0011702Y0024885D01*
G01X0011885Y0024885D02*
G01X0012246Y0024885D01*
G01X0012429Y0025155D02*
G01X0012790Y0024885D01*
G01X0012790Y0024885D02*
G01X0012429Y0024614D01*
G01X0014378Y0024762D02*
G01X0014378Y0024401D01*
G01X0014378Y0024401D02*
G01X0014559Y0024221D01*
G01X0014559Y0024221D02*
G01X0014739Y0024401D01*
G01X0014739Y0024401D02*
G01X0014739Y0024762D01*
G01X0014922Y0024491D02*
G01X0015283Y0024491D01*
G01X0015466Y0024311D02*
G01X0015466Y0024672D01*
G01X0015466Y0024672D02*
G01X0015556Y0024762D01*
G01X0015556Y0024762D02*
G01X0015736Y0024762D01*
G01X0015736Y0024762D02*
G01X0015826Y0024672D01*
G01X0016010Y0024762D02*
G01X0016010Y0024311D01*
G01X0016010Y0024311D02*
G01X0016100Y0024221D01*
G01X0016100Y0024221D02*
G01X0016280Y0024221D01*
G01X0016280Y0024221D02*
G01X0016370Y0024311D01*
G01X0016370Y0024311D02*
G01X0016370Y0024762D01*
G01X0016553Y0024762D02*
G01X0016914Y0024762D01*
G01X0016734Y0024762D02*
G01X0016734Y0024221D01*
G01X0017641Y0024491D02*
G01X0018002Y0024491D01*
G01X0018185Y0024491D02*
G01X0018545Y0024491D01*
G01X0018728Y0024221D02*
G01X0019089Y0024491D01*
G01X0019089Y0024491D02*
G01X0018728Y0024762D01*
G01X0021071Y0024762D02*
G01X0021071Y0024401D01*
G01X0021071Y0024401D02*
G01X0021251Y0024221D01*
G01X0021251Y0024221D02*
G01X0021432Y0024401D01*
G01X0021432Y0024401D02*
G01X0021432Y0024762D01*
G01X0021615Y0024491D02*
G01X0021976Y0024491D01*
G01X0022159Y0024311D02*
G01X0022249Y0024221D01*
G01X0022249Y0024221D02*
G01X0022429Y0024221D01*
G01X0022429Y0024221D02*
G01X0022519Y0024311D01*
G01X0022702Y0024311D02*
G01X0022702Y0024762D01*
G01X0022519Y0024672D02*
G01X0022429Y0024762D01*
G01X0022429Y0024762D02*
G01X0022249Y0024762D01*
G01X0022249Y0024762D02*
G01X0022159Y0024672D01*
G01X0022159Y0024672D02*
G01X0022159Y0024311D01*
G01X0022702Y0024311D02*
G01X0022793Y0024221D01*
G01X0022793Y0024221D02*
G01X0022973Y0024221D01*
G01X0022973Y0024221D02*
G01X0023063Y0024311D01*
G01X0023063Y0024311D02*
G01X0023063Y0024762D01*
G01X0023246Y0024762D02*
G01X0023607Y0024762D01*
G01X0023427Y0024762D02*
G01X0023427Y0024221D01*
G01X0024334Y0024491D02*
G01X0024694Y0024491D01*
G01X0024878Y0024491D02*
G01X0025238Y0024491D01*
G01X0025421Y0024221D02*
G01X0025782Y0024491D01*
G01X0025782Y0024491D02*
G01X0025421Y0024762D01*
G01X0027370Y0024762D02*
G01X0027370Y0024401D01*
G01X0027370Y0024401D02*
G01X0027551Y0024221D01*
G01X0027551Y0024221D02*
G01X0027731Y0024401D01*
G01X0027731Y0024401D02*
G01X0027731Y0024762D01*
G01X0027914Y0024491D02*
G01X0028275Y0024491D01*
G01X0028458Y0024311D02*
G01X0028548Y0024221D01*
G01X0028548Y0024221D02*
G01X0028728Y0024221D01*
G01X0028728Y0024221D02*
G01X0028819Y0024311D01*
G01X0029002Y0024311D02*
G01X0029002Y0024762D01*
G01X0028819Y0024672D02*
G01X0028728Y0024762D01*
G01X0028728Y0024762D02*
G01X0028548Y0024762D01*
G01X0028548Y0024762D02*
G01X0028458Y0024672D01*
G01X0028458Y0024672D02*
G01X0028458Y0024311D01*
G01X0029002Y0024311D02*
G01X0029092Y0024221D01*
G01X0029092Y0024221D02*
G01X0029272Y0024221D01*
G01X0029272Y0024221D02*
G01X0029362Y0024311D01*
G01X0029362Y0024311D02*
G01X0029362Y0024762D01*
G01X0029545Y0024762D02*
G01X0029906Y0024762D01*
G01X0029726Y0024762D02*
G01X0029726Y0024221D01*
G01X0030633Y0024491D02*
G01X0030994Y0024491D01*
G01X0031177Y0024491D02*
G01X0031537Y0024491D01*
G01X0031721Y0024221D02*
G01X0032081Y0024491D01*
G01X0032081Y0024491D02*
G01X0031721Y0024762D01*
G01X0036499Y0015546D02*
G01X0036769Y0015185D01*
G01X0036499Y0015002D02*
G01X0036499Y0014641D01*
G01X0036499Y0014458D02*
G01X0036499Y0014098D01*
G01X0036228Y0013371D02*
G01X0036228Y0013010D01*
G01X0036228Y0013190D02*
G01X0036769Y0013190D01*
G01X0036679Y0012827D02*
G01X0036228Y0012827D01*
G01X0036228Y0012466D02*
G01X0036679Y0012466D01*
G01X0036679Y0012466D02*
G01X0036769Y0012556D01*
G01X0036769Y0012556D02*
G01X0036769Y0012737D01*
G01X0036769Y0012737D02*
G01X0036679Y0012827D01*
G01X0036679Y0012283D02*
G01X0036769Y0012193D01*
G01X0036769Y0012193D02*
G01X0036769Y0012013D01*
G01X0036769Y0012013D02*
G01X0036679Y0011922D01*
G01X0036679Y0011922D02*
G01X0036318Y0011922D01*
G01X0036318Y0011922D02*
G01X0036228Y0012013D01*
G01X0036228Y0012013D02*
G01X0036228Y0012193D01*
G01X0036228Y0012193D02*
G01X0036318Y0012283D01*
G01X0036499Y0011739D02*
G01X0036499Y0011379D01*
G01X0036589Y0011196D02*
G01X0036228Y0011196D01*
G01X0036589Y0011196D02*
G01X0036769Y0011015D01*
G01X0036769Y0011015D02*
G01X0036589Y0010835D01*
G01X0036589Y0010835D02*
G01X0036228Y0010835D01*
G01X0036228Y0015185D02*
G01X0036499Y0015546D01*
G01X0015826Y0024311D02*
G01X0015736Y0024221D01*
G01X0015736Y0024221D02*
G01X0015556Y0024221D01*
G01X0015556Y0024221D02*
G01X0015466Y0024311D01*
M02*
