G75*
G70*
%OFA0B0*%
%FSLAX25Y25*%
%IPPOS*%
%LPD*%
%AMOC8*
5,1,8,0,0,1.08239X$1,22.5*
%
%ADD10R,0.12500X0.00500*%
%ADD103R,0.14500X0.00500*%
%ADD105R,0.62500X0.00500*%
%ADD109R,0.24500X0.00500*%
%ADD11R,0.03500X0.00500*%
%ADD110R,0.27000X0.00500*%
%ADD111R,0.19000X0.00500*%
%ADD112R,0.22500X0.00500*%
%ADD114R,0.01250X0.00500*%
%ADD115R,0.04750X0.00500*%
%ADD117R,0.05250X0.00500*%
%ADD118R,0.45250X0.00500*%
%ADD119R,0.44750X0.00500*%
%ADD12R,0.23000X0.00500*%
%ADD120R,0.44250X0.00500*%
%ADD121R,0.41250X0.00500*%
%ADD122R,0.11250X0.00500*%
%ADD123R,0.40250X0.00500*%
%ADD124R,0.37250X0.00500*%
%ADD125R,0.36750X0.00500*%
%ADD126R,0.35750X0.00500*%
%ADD127R,0.33250X0.00500*%
%ADD128R,0.32750X0.00500*%
%ADD129R,0.31750X0.00500*%
%ADD13R,0.16500X0.00500*%
%ADD130R,0.30750X0.00500*%
%ADD131R,0.28750X0.00500*%
%ADD133R,0.00800X0.00800*%
%ADD14R,0.03000X0.00500*%
%ADD15R,0.48500X0.00500*%
%ADD16R,0.26500X0.00500*%
%ADD17R,0.59500X0.00500*%
%ADD20R,0.18500X0.00500*%
%ADD21R,0.02000X0.00500*%
%ADD22R,0.07000X0.00500*%
%ADD26R,0.44000X0.00500*%
%ADD27R,0.23500X0.00500*%
%ADD28R,0.10500X0.00500*%
%ADD30R,0.06500X0.00500*%
%ADD33R,0.08500X0.00500*%
%ADD34R,0.10000X0.00500*%
%ADD36R,0.18000X0.00500*%
%ADD38R,0.09000X0.00500*%
%ADD39R,0.47500X0.00500*%
%ADD42R,0.11500X0.00500*%
%ADD43R,0.06000X0.00500*%
%ADD44R,0.15000X0.00500*%
%ADD46R,0.61000X0.00500*%
%ADD49R,0.16000X0.00500*%
%ADD51R,0.05000X0.00500*%
%ADD52R,0.09500X0.00500*%
%ADD54R,0.13500X0.00500*%
%ADD55R,0.60500X0.00500*%
%ADD57R,0.33500X0.00500*%
%ADD58R,0.14000X0.00500*%
%ADD60R,0.20000X0.00500*%
%ADD61R,0.07500X0.00500*%
%ADD62R,0.31000X0.00500*%
%ADD65R,0.01000X0.00500*%
%ADD67R,0.49000X0.00500*%
%ADD68R,0.11000X0.00500*%
%ADD69R,0.04000X0.00500*%
%ADD70R,0.34000X0.00500*%
%ADD71R,0.60000X0.00500*%
%ADD72R,0.31500X0.00500*%
%ADD75R,0.53500X0.00500*%
%ADD77R,0.08000X0.00500*%
%ADD78R,0.04500X0.00500*%
%ADD80R,0.01500X0.00500*%
%ADD82R,0.15500X0.00500*%
%ADD83R,0.34500X0.00500*%
%ADD84C,0.00800*%
%ADD87R,0.05500X0.00500*%
%ADD89R,0.02500X0.00500*%
%ADD90R,0.29000X0.00500*%
%ADD91R,0.25500X0.00500*%
%ADD93R,0.58500X0.00500*%
%ADD94R,0.35000X0.00500*%
%ADD95R,0.52000X0.00500*%
%ADD96R,0.62000X0.00500*%
%ADD97R,0.19500X0.00500*%
%ADD98R,0.12000X0.00500*%
%ADD99R,0.17500X0.00500*%
X0010000Y0010000D02*
G75*
%LPD*%
D84*
X0010000Y0010000D02*
X0010000Y0147460D01*
X0071200Y0147460D01*
X0071200Y0010000D01*
X0010000Y0010000D01*
X0024840Y0138050D02*
X0024840Y0141200D01*
X0024850Y0141200D02*
X0024860Y0141370D01*
X0024910Y0141540D01*
X0024980Y0141690D01*
X0025080Y0141830D01*
X0025200Y0141950D01*
X0025340Y0142050D01*
X0025490Y0142120D01*
X0025660Y0142170D01*
X0025830Y0142180D01*
X0026000Y0142170D01*
X0026170Y0142120D01*
X0026320Y0142050D01*
X0026460Y0141950D01*
X0026580Y0141830D01*
X0026680Y0141690D01*
X0026750Y0141540D01*
X0026800Y0141370D01*
X0026810Y0141200D01*
X0026810Y0138050D01*
X0025830Y0137070D02*
X0025660Y0137080D01*
X0025490Y0137130D01*
X0025340Y0137200D01*
X0025200Y0137300D01*
X0025080Y0137420D01*
X0024980Y0137560D01*
X0024910Y0137710D01*
X0024860Y0137880D01*
X0024850Y0138050D01*
X0025830Y0137070D02*
X0026000Y0137080D01*
X0026170Y0137130D01*
X0026320Y0137200D01*
X0026460Y0137300D01*
X0026580Y0137420D01*
X0026680Y0137560D01*
X0026750Y0137710D01*
X0026800Y0137880D01*
X0026810Y0138050D01*
X0053190Y0138050D02*
X0053190Y0141200D01*
X0053200Y0141370D01*
X0053250Y0141540D01*
X0053320Y0141690D01*
X0053420Y0141830D01*
X0053540Y0141950D01*
X0053680Y0142050D01*
X0053830Y0142120D01*
X0054000Y0142170D01*
X0054170Y0142180D01*
X0054340Y0142170D01*
X0054510Y0142120D01*
X0054660Y0142050D01*
X0054800Y0141950D01*
X0054920Y0141830D01*
X0055020Y0141690D01*
X0055090Y0141540D01*
X0055140Y0141370D01*
X0055150Y0141200D01*
X0055160Y0141200D02*
X0055160Y0138050D01*
X0054170Y0137070D02*
X0054000Y0137080D01*
X0053830Y0137130D01*
X0053680Y0137200D01*
X0053540Y0137300D01*
X0053420Y0137420D01*
X0053320Y0137560D01*
X0053250Y0137710D01*
X0053200Y0137880D01*
X0053190Y0138050D01*
X0054170Y0137070D02*
X0054340Y0137080D01*
X0054510Y0137130D01*
X0054660Y0137200D01*
X0054800Y0137300D01*
X0054920Y0137420D01*
X0055020Y0137560D01*
X0055090Y0137710D01*
X0055140Y0137880D01*
X0055150Y0138050D01*
D84*
X0028890Y0083600D02*
X0028890Y0082980D01*
X0028890Y0081740D02*
X0028890Y0079280D01*
X0029500Y0079280D02*
X0028270Y0079280D01*
X0027050Y0079890D02*
X0027050Y0081130D01*
X0026430Y0081740D01*
X0024580Y0081740D01*
X0024580Y0079280D02*
X0026430Y0079280D01*
X0027050Y0079890D01*
X0028890Y0081740D02*
X0029500Y0081740D01*
X0030720Y0081740D02*
X0031340Y0081740D01*
X0032570Y0080510D01*
X0032570Y0079280D02*
X0032570Y0081740D01*
X0033790Y0081740D02*
X0035030Y0081740D01*
X0034410Y0082360D02*
X0034410Y0079890D01*
X0033790Y0079280D01*
X0036240Y0079280D02*
X0038100Y0079280D01*
X0038710Y0079890D01*
X0038710Y0081130D01*
X0038100Y0081740D01*
X0036240Y0081740D01*
X0039930Y0081130D02*
X0039930Y0080510D01*
X0042400Y0080510D01*
X0042400Y0081130D02*
X0041780Y0081740D01*
X0040540Y0081740D01*
X0039930Y0081130D01*
X0040540Y0079280D02*
X0041780Y0079280D01*
X0042400Y0079890D01*
X0042400Y0081130D01*
X0043620Y0079280D02*
X0044850Y0079280D01*
X0044230Y0079280D02*
X0044230Y0082980D01*
X0044850Y0082980D01*
X0046680Y0081740D02*
X0046070Y0081130D01*
X0046070Y0080510D01*
X0048530Y0080510D01*
X0048530Y0081130D02*
X0047920Y0081740D01*
X0046680Y0081740D01*
X0046680Y0079280D02*
X0047920Y0079280D01*
X0048530Y0079890D01*
X0048530Y0081130D01*
X0023370Y0081740D02*
X0023370Y0078040D01*
X0023370Y0079280D02*
X0021510Y0079280D01*
X0020900Y0079890D01*
X0020900Y0081130D01*
X0021510Y0081740D01*
X0023370Y0081740D01*
X0019680Y0081740D02*
X0019070Y0081740D01*
X0019070Y0079280D01*
X0019680Y0079280D02*
X0018450Y0079280D01*
X0017230Y0079280D02*
X0017230Y0081740D01*
X0015380Y0081740D01*
X0014760Y0081130D01*
X0014760Y0079280D01*
X0013540Y0079280D02*
X0013540Y0082980D01*
X0011690Y0081740D02*
X0013540Y0080510D01*
X0011690Y0079280D01*
X0019070Y0082980D02*
X0019070Y0083600D01*
D84*
X0019170Y0076650D02*
X0019170Y0073850D01*
X0020100Y0073850D02*
X0018230Y0073850D01*
X0017340Y0075250D02*
X0015470Y0075250D01*
X0014580Y0075720D02*
X0013170Y0075720D01*
X0012710Y0075250D01*
X0012710Y0074320D01*
X0013170Y0073850D01*
X0014580Y0073850D01*
X0014580Y0072920D02*
X0014580Y0075720D01*
X0011810Y0075250D02*
X0010000Y0075250D01*
X0009950Y0075250D02*
X0019170Y0076650D02*
X0020100Y0075720D01*
X0020990Y0076190D02*
X0020990Y0074320D01*
X0021460Y0073850D01*
X0022400Y0073850D01*
X0022860Y0074320D01*
X0020990Y0076190D01*
X0021460Y0076650D01*
X0022400Y0076650D01*
X0022860Y0076190D01*
X0022860Y0074320D01*
X0023760Y0074320D02*
X0023760Y0075250D01*
X0024220Y0075720D01*
X0025630Y0075720D01*
X0025630Y0072920D01*
X0025630Y0073850D02*
X0024220Y0073850D01*
X0023760Y0074320D01*
X0026520Y0074320D02*
X0026990Y0074780D01*
X0027920Y0074780D01*
X0028390Y0075250D01*
X0027920Y0075720D01*
X0026520Y0075720D01*
X0026520Y0074320D02*
X0026990Y0073850D01*
X0028390Y0073850D01*
X0029280Y0074780D02*
X0031150Y0074780D01*
X0031150Y0074320D02*
X0031150Y0075250D01*
X0030680Y0075720D01*
X0029750Y0075720D01*
X0029280Y0075250D01*
X0029280Y0074780D01*
X0029750Y0073850D02*
X0030680Y0073850D01*
X0031150Y0074320D01*
D21*
X0040750Y0099000D03*
X0040750Y0099500D03*
X0045750Y0093500D03*
X0047750Y0089500D03*
X0061250Y0113000D03*
X0061750Y0120500D03*
X0052750Y0123500D03*
X0040250Y0116000D03*
X0023750Y0119000D03*
X0019250Y0110000D03*
X0016750Y0110500D03*
X0014750Y0103500D03*
X0013250Y0118500D03*
X0023250Y0131500D03*
X0060750Y0062500D03*
X0060750Y0057000D03*
X0064250Y0053500D03*
X0064250Y0077000D03*
X0064250Y0079000D03*
D69*
X0063750Y0054000D03*
X0045750Y0095000D03*
X0040250Y0100500D03*
X0039750Y0102000D03*
X0062750Y0109000D03*
D89*
X0012500Y0130500D03*
X0020500Y0119500D03*
X0040000Y0103000D03*
X0046000Y0096500D03*
X0046500Y0095500D03*
X0047500Y0089000D03*
X0047500Y0088000D03*
X0060000Y0114000D03*
X0060500Y0119500D03*
X0053000Y0059000D03*
X0053000Y0058500D03*
X0059500Y0056000D03*
X0060500Y0055500D03*
X0061500Y0055000D03*
X0062500Y0054500D03*
D11*
X0058500Y0056500D03*
X0067000Y0089500D03*
X0067000Y0090000D03*
X0058500Y0118000D03*
X0059000Y0118500D03*
X0046000Y0094500D03*
X0040000Y0102500D03*
X0030500Y0108000D03*
X0024500Y0119500D03*
X0017500Y0102000D03*
D133*
X0013000Y0118000D03*
X0018500Y0110500D03*
X0028000Y0108000D03*
X0032500Y0103000D03*
X0040000Y0115500D03*
X0031500Y0118000D03*
X0044500Y0095500D03*
X0051500Y0125000D03*
X0064000Y0112500D03*
X0068500Y0092500D03*
X0064000Y0076500D03*
X0061500Y0071000D03*
X0061500Y0061500D03*
X0061500Y0056500D03*
X0012000Y0131000D03*
D14*
X0017250Y0119500D03*
X0016250Y0110000D03*
X0030250Y0108500D03*
X0040250Y0100000D03*
X0045750Y0096000D03*
X0045750Y0094000D03*
X0047750Y0088500D03*
X0059250Y0119000D03*
X0061250Y0120000D03*
X0067250Y0089000D03*
X0057750Y0057000D03*
D80*
X0022500Y0132500D03*
X0022500Y0133000D03*
X0023000Y0132000D03*
X0031500Y0118500D03*
X0033500Y0117500D03*
X0030500Y0103000D03*
X0044500Y0127500D03*
X0049000Y0125500D03*
X0068500Y0093000D03*
X0064000Y0078500D03*
X0064500Y0078000D03*
X0064500Y0077500D03*
X0061500Y0072000D03*
X0060000Y0063000D03*
X0061500Y0062000D03*
X0054000Y0057500D03*
X0053500Y0058000D03*
X0047500Y0087500D03*
D43*
X0057250Y0072000D03*
X0057250Y0071500D03*
X0059250Y0075500D03*
X0059750Y0076500D03*
X0059750Y0077000D03*
X0059750Y0077500D03*
X0059750Y0079000D03*
X0058750Y0058000D03*
X0058750Y0057500D03*
X0061250Y0109500D03*
X0060250Y0110500D03*
X0031750Y0131000D03*
X0031250Y0131500D03*
X0017250Y0109500D03*
X0017250Y0102500D03*
D30*
X0030500Y0106000D03*
X0030500Y0106500D03*
X0031000Y0105500D03*
X0031000Y0105000D03*
X0058000Y0059000D03*
X0058500Y0058500D03*
X0059000Y0073000D03*
X0059000Y0073500D03*
X0059000Y0074000D03*
X0059000Y0074500D03*
X0059000Y0075000D03*
X0061000Y0110000D03*
D52*
X0060000Y0102500D03*
X0061500Y0098500D03*
X0062000Y0098000D03*
X0062000Y0097500D03*
X0062500Y0096500D03*
X0062500Y0096000D03*
X0063000Y0092000D03*
X0063000Y0091500D03*
X0063500Y0090500D03*
X0062000Y0082000D03*
X0055500Y0067000D03*
X0055000Y0060500D03*
X0055500Y0060000D03*
X0056000Y0059500D03*
X0055500Y0109000D03*
X0017500Y0107000D03*
X0017500Y0106500D03*
X0017500Y0106000D03*
X0017500Y0105500D03*
D133*
X0010125Y0117500D03*
D52*
D38*
X0017750Y0107500D03*
X0017750Y0105000D03*
X0053250Y0109500D03*
X0062250Y0097000D03*
X0062750Y0093000D03*
X0062750Y0092500D03*
X0062750Y0088000D03*
X0062750Y0087500D03*
X0062250Y0080500D03*
X0055750Y0068500D03*
X0055750Y0068000D03*
X0055750Y0067500D03*
X0054750Y0061500D03*
X0054750Y0061000D03*
D33*
X0054500Y0062000D03*
X0054500Y0062500D03*
X0054500Y0063000D03*
X0056000Y0069000D03*
X0061000Y0079500D03*
X0062500Y0083500D03*
X0063000Y0086500D03*
X0063000Y0087000D03*
X0052500Y0110000D03*
X0017500Y0108500D03*
X0017500Y0108000D03*
X0017500Y0104500D03*
X0017500Y0104000D03*
X0015000Y0130000D03*
D28*
X0055000Y0065000D03*
X0055000Y0064500D03*
X0055000Y0064000D03*
X0055000Y0063500D03*
X0063500Y0088500D03*
X0063500Y0093500D03*
X0063500Y0094000D03*
X0063000Y0094500D03*
X0063000Y0095000D03*
X0062500Y0095500D03*
X0061000Y0100000D03*
D51*
X0052750Y0066000D03*
X0052750Y0065500D03*
X0030250Y0107500D03*
X0030750Y0132000D03*
X0018750Y0131500D03*
D78*
X0030500Y0132500D03*
X0031000Y0103500D03*
X0040000Y0101500D03*
X0040000Y0101000D03*
X0053000Y0066500D03*
X0058000Y0066500D03*
X0058000Y0066000D03*
X0058000Y0065500D03*
D65*
X0016750Y0119000D03*
X0016750Y0101500D03*
X0018250Y0101500D03*
X0029250Y0109000D03*
X0030750Y0102500D03*
X0039750Y0103500D03*
X0046250Y0093000D03*
X0049250Y0109000D03*
X0044250Y0128000D03*
X0030250Y0133000D03*
X0028750Y0118500D03*
X0052250Y0069500D03*
X0057750Y0082500D03*
X0061750Y0071500D03*
X0066250Y0081000D03*
X0066250Y0081500D03*
X0068250Y0085500D03*
X0068250Y0086000D03*
X0068250Y0086500D03*
X0068250Y0087000D03*
X0068250Y0087500D03*
X0068250Y0088000D03*
X0062250Y0121000D03*
D22*
X0051750Y0110500D03*
X0061250Y0090000D03*
X0061250Y0089500D03*
X0056750Y0071000D03*
X0056750Y0070000D03*
X0056750Y0069500D03*
X0017750Y0103000D03*
D61*
X0017500Y0109000D03*
X0056500Y0070500D03*
X0058500Y0072500D03*
X0061500Y0081000D03*
X0061500Y0089000D03*
D87*
X0060000Y0078500D03*
X0060000Y0078000D03*
X0059500Y0076000D03*
X0059000Y0117500D03*
X0030500Y0107000D03*
X0030500Y0104500D03*
X0030500Y0104000D03*
X0019000Y0103500D03*
D77*
X0020750Y0130500D03*
X0020250Y0131000D03*
X0061250Y0081500D03*
X0061250Y0080000D03*
X0062750Y0082500D03*
X0062750Y0083000D03*
X0063250Y0084000D03*
X0063250Y0084500D03*
X0063250Y0085000D03*
X0063250Y0085500D03*
X0063250Y0086000D03*
D34*
X0063250Y0091000D03*
X0061250Y0099000D03*
X0061250Y0099500D03*
X0030750Y0130500D03*
D114*
X0010625Y0118500D03*
D34*
D68*
X0059750Y0102000D03*
X0060250Y0101000D03*
X0060750Y0100500D03*
D42*
X0060000Y0101500D03*
X0059000Y0103000D03*
X0059000Y0103500D03*
X0059000Y0104000D03*
D98*
X0058750Y0104500D03*
D10*
X0058500Y0105000D03*
D54*
X0059000Y0105500D03*
X0052500Y0113000D03*
X0051000Y0114000D03*
D115*
X0012375Y0119000D03*
D54*
D133*
X0010375Y0118000D03*
D54*
D58*
X0058250Y0108500D03*
X0058750Y0106000D03*
D103*
X0058500Y0106500D03*
X0058000Y0108000D03*
X0055500Y0111000D03*
D44*
X0058250Y0107500D03*
X0058250Y0107000D03*
D99*
X0055500Y0111500D03*
X0055500Y0112000D03*
X0051000Y0115000D03*
D49*
X0054750Y0112500D03*
D36*
X0053250Y0113500D03*
D13*
X0050500Y0114500D03*
D111*
X0051750Y0115500D03*
D60*
X0051750Y0116000D03*
D109*
X0050000Y0116500D03*
D91*
X0049000Y0117000D03*
D97*
X0045500Y0117500D03*
D112*
X0044000Y0118000D03*
X0044000Y0118500D03*
D110*
X0041750Y0119000D03*
D82*
D117*
X0012625Y0119500D03*
D82*
D16*
X0042000Y0119500D03*
D105*
D118*
X0032625Y0120000D03*
D105*
D71*
D118*
X0032625Y0120500D03*
D71*
D96*
D118*
X0032625Y0121000D03*
D96*
D46*
D119*
X0032375Y0121500D03*
D46*
D55*
D119*
X0032375Y0122000D03*
D55*
D17*
D120*
X0032125Y0122500D03*
D17*
D93*
D120*
X0032125Y0123000D03*
D93*
D75*
D121*
X0030625Y0123500D03*
D75*
D27*
D122*
X0015625Y0124000D03*
D27*
D72*
X0037500Y0124000D03*
D12*
D122*
X0015625Y0124500D03*
D12*
D62*
X0037250Y0124500D03*
D95*
D123*
X0030125Y0125000D03*
D95*
D67*
D124*
X0028625Y0125500D03*
D67*
D15*
D124*
X0028625Y0126000D03*
D15*
D39*
D125*
X0028375Y0126500D03*
D39*
D26*
D126*
X0027875Y0127000D03*
D26*
D94*
D127*
X0026625Y0127500D03*
D94*
D83*
D128*
X0026375Y0128000D03*
D83*
D70*
D129*
X0025875Y0128500D03*
D70*
D57*
D130*
X0025375Y0129000D03*
D57*
D90*
D131*
X0024375Y0129500D03*
D90*
D20*
X0029000Y0130000D03*
D84*
X0010400Y0010400D02*
X0010400Y0147060D01*
X0010400Y0147060D02*
X0071600Y0147060D01*
X0071600Y0147060D02*
X0071600Y0010400D01*
X0010400Y0010400D01*
X0077450Y0010000D02*
G75*
%LPD*%
D84*
X0077450Y0010000D02*
X0077450Y0147460D01*
X0138650Y0147460D01*
X0138650Y0010000D01*
X0077450Y0010000D01*
X0092290Y0138050D02*
X0092290Y0141200D01*
X0092300Y0141200D02*
X0092310Y0141370D01*
X0092360Y0141540D01*
X0092430Y0141690D01*
X0092530Y0141830D01*
X0092650Y0141950D01*
X0092790Y0142050D01*
X0092940Y0142120D01*
X0093110Y0142170D01*
X0093280Y0142180D01*
X0093450Y0142170D01*
X0093620Y0142120D01*
X0093770Y0142050D01*
X0093910Y0141950D01*
X0094030Y0141830D01*
X0094130Y0141690D01*
X0094200Y0141540D01*
X0094250Y0141370D01*
X0094260Y0141200D01*
X0094260Y0138050D01*
X0093280Y0137070D02*
X0093110Y0137080D01*
X0092940Y0137130D01*
X0092790Y0137200D01*
X0092650Y0137300D01*
X0092530Y0137420D01*
X0092430Y0137560D01*
X0092360Y0137710D01*
X0092310Y0137880D01*
X0092300Y0138050D01*
X0093280Y0137070D02*
X0093450Y0137080D01*
X0093620Y0137130D01*
X0093770Y0137200D01*
X0093910Y0137300D01*
X0094030Y0137420D01*
X0094130Y0137560D01*
X0094200Y0137710D01*
X0094250Y0137880D01*
X0094260Y0138050D01*
X0120640Y0138050D02*
X0120640Y0141200D01*
X0120650Y0141370D01*
X0120700Y0141540D01*
X0120770Y0141690D01*
X0120870Y0141830D01*
X0120990Y0141950D01*
X0121130Y0142050D01*
X0121280Y0142120D01*
X0121450Y0142170D01*
X0121620Y0142180D01*
X0121790Y0142170D01*
X0121960Y0142120D01*
X0122110Y0142050D01*
X0122250Y0141950D01*
X0122370Y0141830D01*
X0122470Y0141690D01*
X0122540Y0141540D01*
X0122590Y0141370D01*
X0122600Y0141200D01*
X0122610Y0141200D02*
X0122610Y0138050D01*
X0121620Y0137070D02*
X0121450Y0137080D01*
X0121280Y0137130D01*
X0121130Y0137200D01*
X0120990Y0137300D01*
X0120870Y0137420D01*
X0120770Y0137560D01*
X0120700Y0137710D01*
X0120650Y0137880D01*
X0120640Y0138050D01*
X0121620Y0137070D02*
X0121790Y0137080D01*
X0121960Y0137130D01*
X0122110Y0137200D01*
X0122250Y0137300D01*
X0122370Y0137420D01*
X0122470Y0137560D01*
X0122540Y0137710D01*
X0122590Y0137880D01*
X0122600Y0138050D01*
D84*
X0096340Y0083600D02*
X0096340Y0082980D01*
X0096340Y0081740D02*
X0096340Y0079280D01*
X0096950Y0079280D02*
X0095720Y0079280D01*
X0094500Y0079890D02*
X0094500Y0081130D01*
X0093880Y0081740D01*
X0092030Y0081740D01*
X0092030Y0079280D02*
X0093880Y0079280D01*
X0094500Y0079890D01*
X0096340Y0081740D02*
X0096950Y0081740D01*
X0098170Y0081740D02*
X0098790Y0081740D01*
X0100020Y0080510D01*
X0100020Y0079280D02*
X0100020Y0081740D01*
X0101240Y0081740D02*
X0102480Y0081740D01*
X0101860Y0082360D02*
X0101860Y0079890D01*
X0101240Y0079280D01*
X0103690Y0079280D02*
X0105550Y0079280D01*
X0106160Y0079890D01*
X0106160Y0081130D01*
X0105550Y0081740D01*
X0103690Y0081740D01*
X0107380Y0081130D02*
X0107380Y0080510D01*
X0109850Y0080510D01*
X0109850Y0081130D02*
X0109230Y0081740D01*
X0107990Y0081740D01*
X0107380Y0081130D01*
X0107990Y0079280D02*
X0109230Y0079280D01*
X0109850Y0079890D01*
X0109850Y0081130D01*
X0111070Y0079280D02*
X0112300Y0079280D01*
X0111680Y0079280D02*
X0111680Y0082980D01*
X0112300Y0082980D01*
X0114130Y0081740D02*
X0113520Y0081130D01*
X0113520Y0080510D01*
X0115980Y0080510D01*
X0115980Y0081130D02*
X0115370Y0081740D01*
X0114130Y0081740D01*
X0114130Y0079280D02*
X0115370Y0079280D01*
X0115980Y0079890D01*
X0115980Y0081130D01*
X0090820Y0081740D02*
X0090820Y0078040D01*
X0090820Y0079280D02*
X0088960Y0079280D01*
X0088350Y0079890D01*
X0088350Y0081130D01*
X0088960Y0081740D01*
X0090820Y0081740D01*
X0087130Y0081740D02*
X0086520Y0081740D01*
X0086520Y0079280D01*
X0087130Y0079280D02*
X0085900Y0079280D01*
X0084680Y0079280D02*
X0084680Y0081740D01*
X0082830Y0081740D01*
X0082210Y0081130D01*
X0082210Y0079280D01*
X0080990Y0079280D02*
X0080990Y0082980D01*
X0079140Y0081740D02*
X0080990Y0080510D01*
X0079140Y0079280D01*
X0086520Y0082980D02*
X0086520Y0083600D01*
D84*
X0086620Y0076650D02*
X0086620Y0073850D01*
X0087550Y0073850D02*
X0085680Y0073850D01*
X0084790Y0075250D02*
X0082920Y0075250D01*
X0082030Y0075720D02*
X0080620Y0075720D01*
X0080160Y0075250D01*
X0080160Y0074320D01*
X0080620Y0073850D01*
X0082030Y0073850D01*
X0082030Y0072920D02*
X0082030Y0075720D01*
X0079260Y0075250D02*
X0077450Y0075250D01*
X0077400Y0075250D02*
X0086620Y0076650D02*
X0087550Y0075720D01*
X0088440Y0076190D02*
X0088440Y0074320D01*
X0088910Y0073850D01*
X0089850Y0073850D01*
X0090310Y0074320D01*
X0088440Y0076190D01*
X0088910Y0076650D01*
X0089850Y0076650D01*
X0090310Y0076190D01*
X0090310Y0074320D01*
X0091210Y0074320D02*
X0091210Y0075250D01*
X0091670Y0075720D01*
X0093080Y0075720D01*
X0093080Y0072920D01*
X0093080Y0073850D02*
X0091670Y0073850D01*
X0091210Y0074320D01*
X0093970Y0074320D02*
X0094440Y0074780D01*
X0095370Y0074780D01*
X0095840Y0075250D01*
X0095370Y0075720D01*
X0093970Y0075720D01*
X0093970Y0074320D02*
X0094440Y0073850D01*
X0095840Y0073850D01*
X0096730Y0074780D02*
X0098600Y0074780D01*
X0098600Y0074320D02*
X0098600Y0075250D01*
X0098130Y0075720D01*
X0097200Y0075720D01*
X0096730Y0075250D01*
X0096730Y0074780D01*
X0097200Y0073850D02*
X0098130Y0073850D01*
X0098600Y0074320D01*
D21*
X0108200Y0099000D03*
X0108200Y0099500D03*
X0113200Y0093500D03*
X0115200Y0089500D03*
X0128700Y0113000D03*
X0129200Y0120500D03*
X0120200Y0123500D03*
X0107700Y0116000D03*
X0091200Y0119000D03*
X0086700Y0110000D03*
X0084200Y0110500D03*
X0082200Y0103500D03*
X0080700Y0118500D03*
X0090700Y0131500D03*
X0128200Y0062500D03*
X0128200Y0057000D03*
X0131700Y0053500D03*
X0131700Y0077000D03*
X0131700Y0079000D03*
D69*
X0131200Y0054000D03*
X0113200Y0095000D03*
X0107700Y0100500D03*
X0107200Y0102000D03*
X0130200Y0109000D03*
D89*
X0079950Y0130500D03*
X0087950Y0119500D03*
X0107450Y0103000D03*
X0113450Y0096500D03*
X0113950Y0095500D03*
X0114950Y0089000D03*
X0114950Y0088000D03*
X0127450Y0114000D03*
X0127950Y0119500D03*
X0120450Y0059000D03*
X0120450Y0058500D03*
X0126950Y0056000D03*
X0127950Y0055500D03*
X0128950Y0055000D03*
X0129950Y0054500D03*
D11*
X0125950Y0056500D03*
X0134450Y0089500D03*
X0134450Y0090000D03*
X0125950Y0118000D03*
X0126450Y0118500D03*
X0113450Y0094500D03*
X0107450Y0102500D03*
X0097950Y0108000D03*
X0091950Y0119500D03*
X0084950Y0102000D03*
D133*
X0080450Y0118000D03*
X0085950Y0110500D03*
X0095450Y0108000D03*
X0099950Y0103000D03*
X0107450Y0115500D03*
X0098950Y0118000D03*
X0111950Y0095500D03*
X0118950Y0125000D03*
X0131450Y0112500D03*
X0135950Y0092500D03*
X0131450Y0076500D03*
X0128950Y0071000D03*
X0128950Y0061500D03*
X0128950Y0056500D03*
X0079450Y0131000D03*
D14*
X0084700Y0119500D03*
X0083700Y0110000D03*
X0097700Y0108500D03*
X0107700Y0100000D03*
X0113200Y0096000D03*
X0113200Y0094000D03*
X0115200Y0088500D03*
X0126700Y0119000D03*
X0128700Y0120000D03*
X0134700Y0089000D03*
X0125200Y0057000D03*
D80*
X0089950Y0132500D03*
X0089950Y0133000D03*
X0090450Y0132000D03*
X0098950Y0118500D03*
X0100950Y0117500D03*
X0097950Y0103000D03*
X0111950Y0127500D03*
X0116450Y0125500D03*
X0135950Y0093000D03*
X0131450Y0078500D03*
X0131950Y0078000D03*
X0131950Y0077500D03*
X0128950Y0072000D03*
X0127450Y0063000D03*
X0128950Y0062000D03*
X0121450Y0057500D03*
X0120950Y0058000D03*
X0114950Y0087500D03*
D43*
X0124700Y0072000D03*
X0124700Y0071500D03*
X0126700Y0075500D03*
X0127200Y0076500D03*
X0127200Y0077000D03*
X0127200Y0077500D03*
X0127200Y0079000D03*
X0126200Y0058000D03*
X0126200Y0057500D03*
X0128700Y0109500D03*
X0127700Y0110500D03*
X0099200Y0131000D03*
X0098700Y0131500D03*
X0084700Y0109500D03*
X0084700Y0102500D03*
D30*
X0097950Y0106000D03*
X0097950Y0106500D03*
X0098450Y0105500D03*
X0098450Y0105000D03*
X0125450Y0059000D03*
X0125950Y0058500D03*
X0126450Y0073000D03*
X0126450Y0073500D03*
X0126450Y0074000D03*
X0126450Y0074500D03*
X0126450Y0075000D03*
X0128450Y0110000D03*
D52*
X0127450Y0102500D03*
X0128950Y0098500D03*
X0129450Y0098000D03*
X0129450Y0097500D03*
X0129950Y0096500D03*
X0129950Y0096000D03*
X0130450Y0092000D03*
X0130450Y0091500D03*
X0130950Y0090500D03*
X0129450Y0082000D03*
X0122950Y0067000D03*
X0122450Y0060500D03*
X0122950Y0060000D03*
X0123450Y0059500D03*
X0122950Y0109000D03*
X0084950Y0107000D03*
X0084950Y0106500D03*
X0084950Y0106000D03*
X0084950Y0105500D03*
D133*
X0077575Y0117500D03*
D52*
D38*
X0085200Y0107500D03*
X0085200Y0105000D03*
X0120700Y0109500D03*
X0129700Y0097000D03*
X0130200Y0093000D03*
X0130200Y0092500D03*
X0130200Y0088000D03*
X0130200Y0087500D03*
X0129700Y0080500D03*
X0123200Y0068500D03*
X0123200Y0068000D03*
X0123200Y0067500D03*
X0122200Y0061500D03*
X0122200Y0061000D03*
D33*
X0121950Y0062000D03*
X0121950Y0062500D03*
X0121950Y0063000D03*
X0123450Y0069000D03*
X0128450Y0079500D03*
X0129950Y0083500D03*
X0130450Y0086500D03*
X0130450Y0087000D03*
X0119950Y0110000D03*
X0084950Y0108500D03*
X0084950Y0108000D03*
X0084950Y0104500D03*
X0084950Y0104000D03*
X0082450Y0130000D03*
D28*
X0122450Y0065000D03*
X0122450Y0064500D03*
X0122450Y0064000D03*
X0122450Y0063500D03*
X0130950Y0088500D03*
X0130950Y0093500D03*
X0130950Y0094000D03*
X0130450Y0094500D03*
X0130450Y0095000D03*
X0129950Y0095500D03*
X0128450Y0100000D03*
D51*
X0120200Y0066000D03*
X0120200Y0065500D03*
X0097700Y0107500D03*
X0098200Y0132000D03*
X0086200Y0131500D03*
D78*
X0097950Y0132500D03*
X0098450Y0103500D03*
X0107450Y0101500D03*
X0107450Y0101000D03*
X0120450Y0066500D03*
X0125450Y0066500D03*
X0125450Y0066000D03*
X0125450Y0065500D03*
D65*
X0084200Y0119000D03*
X0084200Y0101500D03*
X0085700Y0101500D03*
X0096700Y0109000D03*
X0098200Y0102500D03*
X0107200Y0103500D03*
X0113700Y0093000D03*
X0116700Y0109000D03*
X0111700Y0128000D03*
X0097700Y0133000D03*
X0096200Y0118500D03*
X0119700Y0069500D03*
X0125200Y0082500D03*
X0129200Y0071500D03*
X0133700Y0081000D03*
X0133700Y0081500D03*
X0135700Y0085500D03*
X0135700Y0086000D03*
X0135700Y0086500D03*
X0135700Y0087000D03*
X0135700Y0087500D03*
X0135700Y0088000D03*
X0129700Y0121000D03*
D22*
X0119200Y0110500D03*
X0128700Y0090000D03*
X0128700Y0089500D03*
X0124200Y0071000D03*
X0124200Y0070000D03*
X0124200Y0069500D03*
X0085200Y0103000D03*
D61*
X0084950Y0109000D03*
X0123950Y0070500D03*
X0125950Y0072500D03*
X0128950Y0081000D03*
X0128950Y0089000D03*
D87*
X0127450Y0078500D03*
X0127450Y0078000D03*
X0126950Y0076000D03*
X0126450Y0117500D03*
X0097950Y0107000D03*
X0097950Y0104500D03*
X0097950Y0104000D03*
X0086450Y0103500D03*
D77*
X0088200Y0130500D03*
X0087700Y0131000D03*
X0128700Y0081500D03*
X0128700Y0080000D03*
X0130200Y0082500D03*
X0130200Y0083000D03*
X0130700Y0084000D03*
X0130700Y0084500D03*
X0130700Y0085000D03*
X0130700Y0085500D03*
X0130700Y0086000D03*
D34*
X0130700Y0091000D03*
X0128700Y0099000D03*
X0128700Y0099500D03*
X0098200Y0130500D03*
D114*
X0078075Y0118500D03*
D34*
D68*
X0127200Y0102000D03*
X0127700Y0101000D03*
X0128200Y0100500D03*
D42*
X0127450Y0101500D03*
X0126450Y0103000D03*
X0126450Y0103500D03*
X0126450Y0104000D03*
D98*
X0126200Y0104500D03*
D10*
X0125950Y0105000D03*
D54*
X0126450Y0105500D03*
X0119950Y0113000D03*
X0118450Y0114000D03*
D115*
X0079825Y0119000D03*
D54*
D133*
X0077825Y0118000D03*
D54*
D58*
X0125700Y0108500D03*
X0126200Y0106000D03*
D103*
X0125950Y0106500D03*
X0125450Y0108000D03*
X0122950Y0111000D03*
D44*
X0125700Y0107500D03*
X0125700Y0107000D03*
D99*
X0122950Y0111500D03*
X0122950Y0112000D03*
X0118450Y0115000D03*
D49*
X0122200Y0112500D03*
D36*
X0120700Y0113500D03*
D13*
X0117950Y0114500D03*
D111*
X0119200Y0115500D03*
D60*
X0119200Y0116000D03*
D109*
X0117450Y0116500D03*
D91*
X0116450Y0117000D03*
D97*
X0112950Y0117500D03*
D112*
X0111450Y0118000D03*
X0111450Y0118500D03*
D110*
X0109200Y0119000D03*
D82*
D117*
X0080075Y0119500D03*
D82*
D16*
X0109450Y0119500D03*
D105*
D118*
X0100075Y0120000D03*
D105*
D71*
D118*
X0100075Y0120500D03*
D71*
D96*
D118*
X0100075Y0121000D03*
D96*
D46*
D119*
X0099825Y0121500D03*
D46*
D55*
D119*
X0099825Y0122000D03*
D55*
D17*
D120*
X0099575Y0122500D03*
D17*
D93*
D120*
X0099575Y0123000D03*
D93*
D75*
D121*
X0098075Y0123500D03*
D75*
D27*
D122*
X0083075Y0124000D03*
D27*
D72*
X0104950Y0124000D03*
D12*
D122*
X0083075Y0124500D03*
D12*
D62*
X0104700Y0124500D03*
D95*
D123*
X0097575Y0125000D03*
D95*
D67*
D124*
X0096075Y0125500D03*
D67*
D15*
D124*
X0096075Y0126000D03*
D15*
D39*
D125*
X0095825Y0126500D03*
D39*
D26*
D126*
X0095325Y0127000D03*
D26*
D94*
D127*
X0094075Y0127500D03*
D94*
D83*
D128*
X0093825Y0128000D03*
D83*
D70*
D129*
X0093325Y0128500D03*
D70*
D57*
D130*
X0092825Y0129000D03*
D57*
D90*
D131*
X0091825Y0129500D03*
D90*
D20*
X0096450Y0130000D03*
D84*
X0077050Y0010400D02*
X0077050Y0147060D01*
X0139050Y0147060D01*
X0139050Y0147060D02*
X0139050Y0010400D01*
X0077050Y0010400D01*
X0144900Y0010000D02*
G75*
%LPD*%
D84*
X0144900Y0010000D02*
X0144900Y0147460D01*
X0206100Y0147460D01*
X0206100Y0010000D01*
X0144900Y0010000D01*
X0159740Y0138050D02*
X0159740Y0141200D01*
X0159750Y0141200D02*
X0159760Y0141370D01*
X0159810Y0141540D01*
X0159880Y0141690D01*
X0159980Y0141830D01*
X0160100Y0141950D01*
X0160240Y0142050D01*
X0160390Y0142120D01*
X0160560Y0142170D01*
X0160730Y0142180D01*
X0160900Y0142170D01*
X0161070Y0142120D01*
X0161220Y0142050D01*
X0161360Y0141950D01*
X0161480Y0141830D01*
X0161580Y0141690D01*
X0161650Y0141540D01*
X0161700Y0141370D01*
X0161710Y0141200D01*
X0161710Y0138050D01*
X0160730Y0137070D02*
X0160560Y0137080D01*
X0160390Y0137130D01*
X0160240Y0137200D01*
X0160100Y0137300D01*
X0159980Y0137420D01*
X0159880Y0137560D01*
X0159810Y0137710D01*
X0159760Y0137880D01*
X0159750Y0138050D01*
X0160730Y0137070D02*
X0160900Y0137080D01*
X0161070Y0137130D01*
X0161220Y0137200D01*
X0161360Y0137300D01*
X0161480Y0137420D01*
X0161580Y0137560D01*
X0161650Y0137710D01*
X0161700Y0137880D01*
X0161710Y0138050D01*
X0188090Y0138050D02*
X0188090Y0141200D01*
X0188100Y0141370D01*
X0188150Y0141540D01*
X0188220Y0141690D01*
X0188320Y0141830D01*
X0188440Y0141950D01*
X0188580Y0142050D01*
X0188730Y0142120D01*
X0188900Y0142170D01*
X0189070Y0142180D01*
X0189240Y0142170D01*
X0189410Y0142120D01*
X0189560Y0142050D01*
X0189700Y0141950D01*
X0189820Y0141830D01*
X0189920Y0141690D01*
X0189990Y0141540D01*
X0190040Y0141370D01*
X0190050Y0141200D01*
X0190060Y0141200D02*
X0190060Y0138050D01*
X0189070Y0137070D02*
X0188900Y0137080D01*
X0188730Y0137130D01*
X0188580Y0137200D01*
X0188440Y0137300D01*
X0188320Y0137420D01*
X0188220Y0137560D01*
X0188150Y0137710D01*
X0188100Y0137880D01*
X0188090Y0138050D01*
X0189070Y0137070D02*
X0189240Y0137080D01*
X0189410Y0137130D01*
X0189560Y0137200D01*
X0189700Y0137300D01*
X0189820Y0137420D01*
X0189920Y0137560D01*
X0189990Y0137710D01*
X0190040Y0137880D01*
X0190050Y0138050D01*
D84*
X0163790Y0083600D02*
X0163790Y0082980D01*
X0163790Y0081740D02*
X0163790Y0079280D01*
X0164400Y0079280D02*
X0163170Y0079280D01*
X0161950Y0079890D02*
X0161950Y0081130D01*
X0161330Y0081740D01*
X0159480Y0081740D01*
X0159480Y0079280D02*
X0161330Y0079280D01*
X0161950Y0079890D01*
X0163790Y0081740D02*
X0164400Y0081740D01*
X0165620Y0081740D02*
X0166240Y0081740D01*
X0167470Y0080510D01*
X0167470Y0079280D02*
X0167470Y0081740D01*
X0168690Y0081740D02*
X0169930Y0081740D01*
X0169310Y0082360D02*
X0169310Y0079890D01*
X0168690Y0079280D01*
X0171140Y0079280D02*
X0173000Y0079280D01*
X0173610Y0079890D01*
X0173610Y0081130D01*
X0173000Y0081740D01*
X0171140Y0081740D01*
X0174830Y0081130D02*
X0174830Y0080510D01*
X0177300Y0080510D01*
X0177300Y0081130D02*
X0176680Y0081740D01*
X0175440Y0081740D01*
X0174830Y0081130D01*
X0175440Y0079280D02*
X0176680Y0079280D01*
X0177300Y0079890D01*
X0177300Y0081130D01*
X0178520Y0079280D02*
X0179750Y0079280D01*
X0179130Y0079280D02*
X0179130Y0082980D01*
X0179750Y0082980D01*
X0181580Y0081740D02*
X0180970Y0081130D01*
X0180970Y0080510D01*
X0183430Y0080510D01*
X0183430Y0081130D02*
X0182820Y0081740D01*
X0181580Y0081740D01*
X0181580Y0079280D02*
X0182820Y0079280D01*
X0183430Y0079890D01*
X0183430Y0081130D01*
X0158270Y0081740D02*
X0158270Y0078040D01*
X0158270Y0079280D02*
X0156410Y0079280D01*
X0155800Y0079890D01*
X0155800Y0081130D01*
X0156410Y0081740D01*
X0158270Y0081740D01*
X0154580Y0081740D02*
X0153970Y0081740D01*
X0153970Y0079280D01*
X0154580Y0079280D02*
X0153350Y0079280D01*
X0152130Y0079280D02*
X0152130Y0081740D01*
X0150280Y0081740D01*
X0149660Y0081130D01*
X0149660Y0079280D01*
X0148440Y0079280D02*
X0148440Y0082980D01*
X0146590Y0081740D02*
X0148440Y0080510D01*
X0146590Y0079280D01*
X0153970Y0082980D02*
X0153970Y0083600D01*
D84*
X0154070Y0076650D02*
X0154070Y0073850D01*
X0155000Y0073850D02*
X0153130Y0073850D01*
X0152240Y0075250D02*
X0150370Y0075250D01*
X0149480Y0075720D02*
X0148070Y0075720D01*
X0147610Y0075250D01*
X0147610Y0074320D01*
X0148070Y0073850D01*
X0149480Y0073850D01*
X0149480Y0072920D02*
X0149480Y0075720D01*
X0146710Y0075250D02*
X0144900Y0075250D01*
X0144850Y0075250D02*
X0154070Y0076650D02*
X0155000Y0075720D01*
X0155890Y0076190D02*
X0155890Y0074320D01*
X0156360Y0073850D01*
X0157300Y0073850D01*
X0157760Y0074320D01*
X0155890Y0076190D01*
X0156360Y0076650D01*
X0157300Y0076650D01*
X0157760Y0076190D01*
X0157760Y0074320D01*
X0158660Y0074320D02*
X0158660Y0075250D01*
X0159120Y0075720D01*
X0160530Y0075720D01*
X0160530Y0072920D01*
X0160530Y0073850D02*
X0159120Y0073850D01*
X0158660Y0074320D01*
X0161420Y0074320D02*
X0161890Y0074780D01*
X0162820Y0074780D01*
X0163290Y0075250D01*
X0162820Y0075720D01*
X0161420Y0075720D01*
X0161420Y0074320D02*
X0161890Y0073850D01*
X0163290Y0073850D01*
X0164180Y0074780D02*
X0166050Y0074780D01*
X0166050Y0074320D02*
X0166050Y0075250D01*
X0165580Y0075720D01*
X0164650Y0075720D01*
X0164180Y0075250D01*
X0164180Y0074780D01*
X0164650Y0073850D02*
X0165580Y0073850D01*
X0166050Y0074320D01*
D21*
X0175650Y0099000D03*
X0175650Y0099500D03*
X0180650Y0093500D03*
X0182650Y0089500D03*
X0196150Y0113000D03*
X0196650Y0120500D03*
X0187650Y0123500D03*
X0175150Y0116000D03*
X0158650Y0119000D03*
X0154150Y0110000D03*
X0151650Y0110500D03*
X0149650Y0103500D03*
X0148150Y0118500D03*
X0158150Y0131500D03*
X0195650Y0062500D03*
X0195650Y0057000D03*
X0199150Y0053500D03*
X0199150Y0077000D03*
X0199150Y0079000D03*
D69*
X0198650Y0054000D03*
X0180650Y0095000D03*
X0175150Y0100500D03*
X0174650Y0102000D03*
X0197650Y0109000D03*
D89*
X0147400Y0130500D03*
X0155400Y0119500D03*
X0174900Y0103000D03*
X0180900Y0096500D03*
X0181400Y0095500D03*
X0182400Y0089000D03*
X0182400Y0088000D03*
X0194900Y0114000D03*
X0195400Y0119500D03*
X0187900Y0059000D03*
X0187900Y0058500D03*
X0194400Y0056000D03*
X0195400Y0055500D03*
X0196400Y0055000D03*
X0197400Y0054500D03*
D11*
X0193400Y0056500D03*
X0201900Y0089500D03*
X0201900Y0090000D03*
X0193400Y0118000D03*
X0193900Y0118500D03*
X0180900Y0094500D03*
X0174900Y0102500D03*
X0165400Y0108000D03*
X0159400Y0119500D03*
X0152400Y0102000D03*
D133*
X0147900Y0118000D03*
X0153400Y0110500D03*
X0162900Y0108000D03*
X0167400Y0103000D03*
X0174900Y0115500D03*
X0166400Y0118000D03*
X0179400Y0095500D03*
X0186400Y0125000D03*
X0198900Y0112500D03*
X0203400Y0092500D03*
X0198900Y0076500D03*
X0196400Y0071000D03*
X0196400Y0061500D03*
X0196400Y0056500D03*
X0146900Y0131000D03*
D14*
X0152150Y0119500D03*
X0151150Y0110000D03*
X0165150Y0108500D03*
X0175150Y0100000D03*
X0180650Y0096000D03*
X0180650Y0094000D03*
X0182650Y0088500D03*
X0194150Y0119000D03*
X0196150Y0120000D03*
X0202150Y0089000D03*
X0192650Y0057000D03*
D80*
X0157400Y0132500D03*
X0157400Y0133000D03*
X0157900Y0132000D03*
X0166400Y0118500D03*
X0168400Y0117500D03*
X0165400Y0103000D03*
X0179400Y0127500D03*
X0183900Y0125500D03*
X0203400Y0093000D03*
X0198900Y0078500D03*
X0199400Y0078000D03*
X0199400Y0077500D03*
X0196400Y0072000D03*
X0194900Y0063000D03*
X0196400Y0062000D03*
X0188900Y0057500D03*
X0188400Y0058000D03*
X0182400Y0087500D03*
D43*
X0192150Y0072000D03*
X0192150Y0071500D03*
X0194150Y0075500D03*
X0194650Y0076500D03*
X0194650Y0077000D03*
X0194650Y0077500D03*
X0194650Y0079000D03*
X0193650Y0058000D03*
X0193650Y0057500D03*
X0196150Y0109500D03*
X0195150Y0110500D03*
X0166650Y0131000D03*
X0166150Y0131500D03*
X0152150Y0109500D03*
X0152150Y0102500D03*
D30*
X0165400Y0106000D03*
X0165400Y0106500D03*
X0165900Y0105500D03*
X0165900Y0105000D03*
X0192900Y0059000D03*
X0193400Y0058500D03*
X0193900Y0073000D03*
X0193900Y0073500D03*
X0193900Y0074000D03*
X0193900Y0074500D03*
X0193900Y0075000D03*
X0195900Y0110000D03*
D52*
X0194900Y0102500D03*
X0196400Y0098500D03*
X0196900Y0098000D03*
X0196900Y0097500D03*
X0197400Y0096500D03*
X0197400Y0096000D03*
X0197900Y0092000D03*
X0197900Y0091500D03*
X0198400Y0090500D03*
X0196900Y0082000D03*
X0190400Y0067000D03*
X0189900Y0060500D03*
X0190400Y0060000D03*
X0190900Y0059500D03*
X0190400Y0109000D03*
X0152400Y0107000D03*
X0152400Y0106500D03*
X0152400Y0106000D03*
X0152400Y0105500D03*
D133*
X0145025Y0117500D03*
D52*
D38*
X0152650Y0107500D03*
X0152650Y0105000D03*
X0188150Y0109500D03*
X0197150Y0097000D03*
X0197650Y0093000D03*
X0197650Y0092500D03*
X0197650Y0088000D03*
X0197650Y0087500D03*
X0197150Y0080500D03*
X0190650Y0068500D03*
X0190650Y0068000D03*
X0190650Y0067500D03*
X0189650Y0061500D03*
X0189650Y0061000D03*
D33*
X0189400Y0062000D03*
X0189400Y0062500D03*
X0189400Y0063000D03*
X0190900Y0069000D03*
X0195900Y0079500D03*
X0197400Y0083500D03*
X0197900Y0086500D03*
X0197900Y0087000D03*
X0187400Y0110000D03*
X0152400Y0108500D03*
X0152400Y0108000D03*
X0152400Y0104500D03*
X0152400Y0104000D03*
X0149900Y0130000D03*
D28*
X0189900Y0065000D03*
X0189900Y0064500D03*
X0189900Y0064000D03*
X0189900Y0063500D03*
X0198400Y0088500D03*
X0198400Y0093500D03*
X0198400Y0094000D03*
X0197900Y0094500D03*
X0197900Y0095000D03*
X0197400Y0095500D03*
X0195900Y0100000D03*
D51*
X0187650Y0066000D03*
X0187650Y0065500D03*
X0165150Y0107500D03*
X0165650Y0132000D03*
X0153650Y0131500D03*
D78*
X0165400Y0132500D03*
X0165900Y0103500D03*
X0174900Y0101500D03*
X0174900Y0101000D03*
X0187900Y0066500D03*
X0192900Y0066500D03*
X0192900Y0066000D03*
X0192900Y0065500D03*
D65*
X0151650Y0119000D03*
X0151650Y0101500D03*
X0153150Y0101500D03*
X0164150Y0109000D03*
X0165650Y0102500D03*
X0174650Y0103500D03*
X0181150Y0093000D03*
X0184150Y0109000D03*
X0179150Y0128000D03*
X0165150Y0133000D03*
X0163650Y0118500D03*
X0187150Y0069500D03*
X0192650Y0082500D03*
X0196650Y0071500D03*
X0201150Y0081000D03*
X0201150Y0081500D03*
X0203150Y0085500D03*
X0203150Y0086000D03*
X0203150Y0086500D03*
X0203150Y0087000D03*
X0203150Y0087500D03*
X0203150Y0088000D03*
X0197150Y0121000D03*
D22*
X0186650Y0110500D03*
X0196150Y0090000D03*
X0196150Y0089500D03*
X0191650Y0071000D03*
X0191650Y0070000D03*
X0191650Y0069500D03*
X0152650Y0103000D03*
D61*
X0152400Y0109000D03*
X0191400Y0070500D03*
X0193400Y0072500D03*
X0196400Y0081000D03*
X0196400Y0089000D03*
D87*
X0194900Y0078500D03*
X0194900Y0078000D03*
X0194400Y0076000D03*
X0193900Y0117500D03*
X0165400Y0107000D03*
X0165400Y0104500D03*
X0165400Y0104000D03*
X0153900Y0103500D03*
D77*
X0155650Y0130500D03*
X0155150Y0131000D03*
X0196150Y0081500D03*
X0196150Y0080000D03*
X0197650Y0082500D03*
X0197650Y0083000D03*
X0198150Y0084000D03*
X0198150Y0084500D03*
X0198150Y0085000D03*
X0198150Y0085500D03*
X0198150Y0086000D03*
D34*
X0198150Y0091000D03*
X0196150Y0099000D03*
X0196150Y0099500D03*
X0165650Y0130500D03*
D114*
X0145525Y0118500D03*
D34*
D68*
X0194650Y0102000D03*
X0195150Y0101000D03*
X0195650Y0100500D03*
D42*
X0194900Y0101500D03*
X0193900Y0103000D03*
X0193900Y0103500D03*
X0193900Y0104000D03*
D98*
X0193650Y0104500D03*
D10*
X0193400Y0105000D03*
D54*
X0193900Y0105500D03*
X0187400Y0113000D03*
X0185900Y0114000D03*
D115*
X0147275Y0119000D03*
D54*
D133*
X0145275Y0118000D03*
D54*
D58*
X0193150Y0108500D03*
X0193650Y0106000D03*
D103*
X0193400Y0106500D03*
X0192900Y0108000D03*
X0190400Y0111000D03*
D44*
X0193150Y0107500D03*
X0193150Y0107000D03*
D99*
X0190400Y0111500D03*
X0190400Y0112000D03*
X0185900Y0115000D03*
D49*
X0189650Y0112500D03*
D36*
X0188150Y0113500D03*
D13*
X0185400Y0114500D03*
D111*
X0186650Y0115500D03*
D60*
X0186650Y0116000D03*
D109*
X0184900Y0116500D03*
D91*
X0183900Y0117000D03*
D97*
X0180400Y0117500D03*
D112*
X0178900Y0118000D03*
X0178900Y0118500D03*
D110*
X0176650Y0119000D03*
D82*
D117*
X0147525Y0119500D03*
D82*
D16*
X0176900Y0119500D03*
D105*
D118*
X0167525Y0120000D03*
D105*
D71*
D118*
X0167525Y0120500D03*
D71*
D96*
D118*
X0167525Y0121000D03*
D96*
D46*
D119*
X0167275Y0121500D03*
D46*
D55*
D119*
X0167275Y0122000D03*
D55*
D17*
D120*
X0167025Y0122500D03*
D17*
D93*
D120*
X0167025Y0123000D03*
D93*
D75*
D121*
X0165525Y0123500D03*
D75*
D27*
D122*
X0150525Y0124000D03*
D27*
D72*
X0172400Y0124000D03*
D12*
D122*
X0150525Y0124500D03*
D12*
D62*
X0172150Y0124500D03*
D95*
D123*
X0165025Y0125000D03*
D95*
D67*
D124*
X0163525Y0125500D03*
D67*
D15*
D124*
X0163525Y0126000D03*
D15*
D39*
D125*
X0163275Y0126500D03*
D39*
D26*
D126*
X0162775Y0127000D03*
D26*
D94*
D127*
X0161525Y0127500D03*
D94*
D83*
D128*
X0161275Y0128000D03*
D83*
D70*
D129*
X0160775Y0128500D03*
D70*
D57*
D130*
X0160275Y0129000D03*
D57*
D90*
D131*
X0159275Y0129500D03*
D90*
D20*
X0163900Y0130000D03*
D84*
X0144500Y0010400D02*
X0144500Y0147060D01*
X0205700Y0147060D01*
X0205700Y0147060D02*
X0205700Y0010400D01*
X0205700Y0010400D02*
X0144500Y0010400D01*
D84*
X0022900Y0010400D02*
X0010400Y0010400D01*
X0010400Y0022900D01*
X0205700Y0022900D02*
X0205700Y0010400D01*
X0193200Y0010400D01*
X0193200Y0147060D02*
X0205700Y0147060D01*
X0205700Y0134560D01*
X0010400Y0134560D02*
X0010400Y0147060D01*
X0022900Y0147060D01*
%ADD10C,0.00100*%
D10*
X0010000Y0010000D02*
X0010000Y0147460D01*
X0206100Y0147460D01*
X0206100Y0010000D01*
X0010000Y0010000D01*
M02*
