%
T01C0.012000
X3188Y5723
X2607Y6911
X3565Y7713
X3565Y8973
X4002Y9366
X4002Y9760
X4000Y10180
X4790Y11039
X4875Y10555
X5770Y8523
X6310Y9963
X4825Y13293
X3658Y12122
X3063Y11117
X1938Y10680
X1938Y11617
X4780Y5283
X3188Y21357
X2607Y22545
X3565Y23347
X3565Y24607
X4002Y25000
X4002Y25394
X4000Y25814
X4790Y26673
X4875Y26189
X5770Y24157
X6310Y25597
X4825Y28927
X3658Y27756
X3063Y26751
X1938Y26314
X1938Y27251
X4780Y20917
X9621Y5723
X9040Y6911
X9998Y7713
X9998Y8973
X10435Y9366
X10435Y9760
X10433Y10180
X11223Y11039
X11308Y10555
X12203Y8523
X12743Y9963
X11258Y13293
X10091Y12122
X9496Y11117
X8371Y10680
X8371Y11617
X11213Y5283
X9621Y21357
X9040Y22545
X9998Y23347
X9998Y24607
X10435Y25000
X10435Y25394
X10433Y25814
X11223Y26673
X11308Y26189
X12203Y24157
X12743Y25597
X11258Y28927
X10091Y27756
X9496Y26751
X8371Y26314
X8371Y27251
X11213Y20917
X16053Y5723
X15472Y6911
X16430Y7713
X16430Y8973
X16867Y9366
X16867Y9760
X16865Y10180
X17655Y11039
X17740Y10555
X18635Y8523
X19175Y9963
X17690Y13293
X16523Y12122
X15928Y11117
X14803Y10680
X14803Y11617
X17645Y5283
X16053Y21357
X15472Y22545
X16430Y23347
X16430Y24607
X16867Y25000
X16867Y25394
X16865Y25814
X17655Y26673
X17740Y26189
X18635Y24157
X19175Y25597
X17690Y28927
X16523Y27756
X15928Y26751
X14803Y26314
X14803Y27251
X17645Y20917
X22486Y5723
X21905Y6911
X22863Y7713
X22863Y8973
X23300Y9366
X23300Y9760
X23298Y10180
X24088Y11039
X24173Y10555
X25068Y8523
X25608Y9963
X24123Y13293
X22956Y12122
X22361Y11117
X21236Y10680
X21236Y11617
X24078Y5283
X22486Y21357
X21905Y22545
X22863Y23347
X22863Y24607
X23300Y25000
X23300Y25394
X23298Y25814
X24088Y26673
X24173Y26189
X25068Y24157
X25608Y25597
X24123Y28927
X22956Y27756
X22361Y26751
X21236Y26314
X21236Y27251
X24078Y20917
X28918Y5723
X28337Y6911
X29295Y7713
X29295Y8973
X29732Y9366
X29732Y9760
X29730Y10180
X30520Y11039
X30605Y10555
X31500Y8523
X32040Y9963
X30555Y13293
X29388Y12122
X28793Y11117
X27668Y10680
X27668Y11617
X30510Y5283
X28918Y21357
X28337Y22545
X29295Y23347
X29295Y24607
X29732Y25000
X29732Y25394
X29730Y25814
X30520Y26673
X30605Y26189
X31500Y24157
X32040Y25597
X30555Y28927
X29388Y27756
X28793Y26751
X27668Y26314
X27668Y27251
X30510Y20917
X35351Y5723
X34770Y6911
X35728Y7713
X35728Y8973
X36165Y9366
X36165Y9760
X36163Y10180
X36953Y11039
X37038Y10555
X37933Y8523
X38473Y9963
X36988Y13293
X35821Y12122
X35226Y11117
X34101Y10680
X34101Y11617
X36943Y5283
X35351Y21357
X34770Y22545
X35728Y23347
X35728Y24607
X36165Y25000
X36165Y25394
X36163Y25814
X36953Y26673
X37038Y26189
X37933Y24157
X38473Y25597
X36988Y28927
X35821Y27756
X35226Y26751
X34101Y26314
X34101Y27251
X36943Y20917
T02C0.029550
X3105Y14593
X5014Y14593
X4768Y14947
X3351Y14947
X3105Y30227
X5014Y30227
X4768Y30581
X3351Y30581
X9538Y14593
X11447Y14593
X11201Y14947
X9784Y14947
X9538Y30227
X11447Y30227
X11201Y30581
X9784Y30581
X15970Y14593
X17879Y14593
X17633Y14947
X16216Y14947
X15970Y30227
X17879Y30227
X17633Y30581
X16216Y30581
X22403Y14593
X24312Y14593
X24066Y14947
X22649Y14947
X22403Y30227
X24312Y30227
X24066Y30581
X22649Y30581
X28835Y14593
X30744Y14593
X30498Y14947
X29081Y14947
X28835Y30227
X30744Y30227
X30498Y30581
X29081Y30581
X35268Y14593
X37177Y14593
X36931Y14947
X35514Y14947
X35268Y30227
X37177Y30227
X36931Y30581
X35514Y30581
T03C0.037400
X5477Y15537
X2642Y15537
X5477Y31171
X2642Y31171
X11910Y15537
X9075Y15537
X11910Y31171
X9075Y31171
X18342Y15537
X15507Y15537
X18342Y31171
X15507Y31171
X24775Y15537
X21940Y15537
X24775Y31171
X21940Y31171
X31207Y15537
X28372Y15537
X31207Y31171
X28372Y31171
X37640Y15537
X34805Y15537
X37640Y31171
X34805Y31171
T04C0.040000
X1500Y1848
X2500Y1848
X3500Y1848
X4500Y1848
X6500Y1848
X2500Y4411
X2500Y3411
X3500Y3411
X3500Y4411
X4500Y4411
X4500Y3411
X5500Y3411
X5500Y4411
X1500Y17482
X2500Y17482
X3500Y17482
X4500Y17482
X6500Y17482
X2500Y20045
X2500Y19045
X3500Y19045
X3500Y20045
X4500Y20045
X4500Y19045
X5500Y19045
X5500Y20045
X7933Y1848
X8933Y1848
X9933Y1848
X10933Y1848
X12933Y1848
X8933Y4411
X8933Y3411
X9933Y3411
X9933Y4411
X10933Y4411
X10933Y3411
X11933Y3411
X11933Y4411
X7933Y17482
X8933Y17482
X9933Y17482
X10933Y17482
X12933Y17482
X8933Y20045
X8933Y19045
X9933Y19045
X9933Y20045
X10933Y20045
X10933Y19045
X11933Y19045
X11933Y20045
X14365Y1848
X15365Y1848
X16365Y1848
X17365Y1848
X19365Y1848
X15365Y4411
X15365Y3411
X16365Y3411
X16365Y4411
X17365Y4411
X17365Y3411
X18365Y3411
X18365Y4411
X14365Y17482
X15365Y17482
X16365Y17482
X17365Y17482
X19365Y17482
X15365Y20045
X15365Y19045
X16365Y19045
X16365Y20045
X17365Y20045
X17365Y19045
X18365Y19045
X18365Y20045
X20798Y1848
X21798Y1848
X22798Y1848
X23798Y1848
X25798Y1848
X21798Y4411
X21798Y3411
X22798Y3411
X22798Y4411
X23798Y4411
X23798Y3411
X24798Y3411
X24798Y4411
X20798Y17482
X21798Y17482
X22798Y17482
X23798Y17482
X25798Y17482
X21798Y20045
X21798Y19045
X22798Y19045
X22798Y20045
X23798Y20045
X23798Y19045
X24798Y19045
X24798Y20045
X27230Y1848
X28230Y1848
X29230Y1848
X30230Y1848
X32230Y1848
X28230Y4411
X28230Y3411
X29230Y3411
X29230Y4411
X30230Y4411
X30230Y3411
X31230Y3411
X31230Y4411
X27230Y17482
X28230Y17482
X29230Y17482
X30230Y17482
X32230Y17482
X28230Y20045
X28230Y19045
X29230Y19045
X29230Y20045
X30230Y20045
X30230Y19045
X31230Y19045
X31230Y20045
X33663Y1848
X34663Y1848
X35663Y1848
X36663Y1848
X38663Y1848
X34663Y4411
X34663Y3411
X35663Y3411
X35663Y4411
X36663Y4411
X36663Y3411
X37663Y3411
X37663Y4411
X33663Y17482
X34663Y17482
X35663Y17482
X36663Y17482
X38663Y17482
X34663Y20045
X34663Y19045
X35663Y19045
X35663Y20045
X36663Y20045
X36663Y19045
X37663Y19045
X37663Y20045
T05C0.068900
X6355Y14720
X1788Y14720
X6355Y30354
X1788Y30354
X12788Y14720
X8221Y14720
X12788Y30354
X8221Y30354
X19220Y14720
X14653Y14720
X19220Y30354
X14653Y30354
X25653Y14720
X21086Y14720
X25653Y30354
X21086Y30354
X32085Y14720
X27518Y14720
X32085Y30354
X27518Y30354
X38518Y14720
X33951Y14720
X38518Y30354
X33951Y30354
M30
