G75*
G70*
%OFA0B0*%
%FSLAX25Y25*%
%IPPOS*%
%LPD*%
%AMOC8*
5,1,8,0,0,1.08239X$1,22.5*
%
%ADD81C,0.00000*%
X0010000Y0010000D02*
G75*
%LPD*%
D81*
X0010000Y0010000D02*
X0010000Y0147460D01*
X0071200Y0147460D01*
X0071200Y0010000D01*
X0010000Y0010000D01*
X0024840Y0138050D02*
X0024840Y0141200D01*
X0024850Y0141200D02*
X0024860Y0141370D01*
X0024910Y0141540D01*
X0024980Y0141690D01*
X0025080Y0141830D01*
X0025200Y0141950D01*
X0025340Y0142050D01*
X0025490Y0142120D01*
X0025660Y0142170D01*
X0025830Y0142180D01*
X0026000Y0142170D01*
X0026170Y0142120D01*
X0026320Y0142050D01*
X0026460Y0141950D01*
X0026580Y0141830D01*
X0026680Y0141690D01*
X0026750Y0141540D01*
X0026800Y0141370D01*
X0026810Y0141200D01*
X0026810Y0138050D01*
X0025830Y0137070D02*
X0025660Y0137080D01*
X0025490Y0137130D01*
X0025340Y0137200D01*
X0025200Y0137300D01*
X0025080Y0137420D01*
X0024980Y0137560D01*
X0024910Y0137710D01*
X0024860Y0137880D01*
X0024850Y0138050D01*
X0025830Y0137070D02*
X0026000Y0137080D01*
X0026170Y0137130D01*
X0026320Y0137200D01*
X0026460Y0137300D01*
X0026580Y0137420D01*
X0026680Y0137560D01*
X0026750Y0137710D01*
X0026800Y0137880D01*
X0026810Y0138050D01*
X0053190Y0138050D02*
X0053190Y0141200D01*
X0053200Y0141370D01*
X0053250Y0141540D01*
X0053320Y0141690D01*
X0053420Y0141830D01*
X0053540Y0141950D01*
X0053680Y0142050D01*
X0053830Y0142120D01*
X0054000Y0142170D01*
X0054170Y0142180D01*
X0054340Y0142170D01*
X0054510Y0142120D01*
X0054660Y0142050D01*
X0054800Y0141950D01*
X0054920Y0141830D01*
X0055020Y0141690D01*
X0055090Y0141540D01*
X0055140Y0141370D01*
X0055150Y0141200D01*
X0055160Y0141200D02*
X0055160Y0138050D01*
X0054170Y0137070D02*
X0054000Y0137080D01*
X0053830Y0137130D01*
X0053680Y0137200D01*
X0053540Y0137300D01*
X0053420Y0137420D01*
X0053320Y0137560D01*
X0053250Y0137710D01*
X0053200Y0137880D01*
X0053190Y0138050D01*
X0054170Y0137070D02*
X0054340Y0137080D01*
X0054510Y0137130D01*
X0054660Y0137200D01*
X0054800Y0137300D01*
X0054920Y0137420D01*
X0055020Y0137560D01*
X0055090Y0137710D01*
X0055140Y0137880D01*
X0055150Y0138050D01*
X0077450Y0010000D02*
G75*
%LPD*%
D81*
X0077450Y0010000D02*
X0077450Y0147460D01*
X0138650Y0147460D01*
X0138650Y0010000D01*
X0077450Y0010000D01*
X0092290Y0138050D02*
X0092290Y0141200D01*
X0092300Y0141200D02*
X0092310Y0141370D01*
X0092360Y0141540D01*
X0092430Y0141690D01*
X0092530Y0141830D01*
X0092650Y0141950D01*
X0092790Y0142050D01*
X0092940Y0142120D01*
X0093110Y0142170D01*
X0093280Y0142180D01*
X0093450Y0142170D01*
X0093620Y0142120D01*
X0093770Y0142050D01*
X0093910Y0141950D01*
X0094030Y0141830D01*
X0094130Y0141690D01*
X0094200Y0141540D01*
X0094250Y0141370D01*
X0094260Y0141200D01*
X0094260Y0138050D01*
X0093280Y0137070D02*
X0093110Y0137080D01*
X0092940Y0137130D01*
X0092790Y0137200D01*
X0092650Y0137300D01*
X0092530Y0137420D01*
X0092430Y0137560D01*
X0092360Y0137710D01*
X0092310Y0137880D01*
X0092300Y0138050D01*
X0093280Y0137070D02*
X0093450Y0137080D01*
X0093620Y0137130D01*
X0093770Y0137200D01*
X0093910Y0137300D01*
X0094030Y0137420D01*
X0094130Y0137560D01*
X0094200Y0137710D01*
X0094250Y0137880D01*
X0094260Y0138050D01*
X0120640Y0138050D02*
X0120640Y0141200D01*
X0120650Y0141370D01*
X0120700Y0141540D01*
X0120770Y0141690D01*
X0120870Y0141830D01*
X0120990Y0141950D01*
X0121130Y0142050D01*
X0121280Y0142120D01*
X0121450Y0142170D01*
X0121620Y0142180D01*
X0121790Y0142170D01*
X0121960Y0142120D01*
X0122110Y0142050D01*
X0122250Y0141950D01*
X0122370Y0141830D01*
X0122470Y0141690D01*
X0122540Y0141540D01*
X0122590Y0141370D01*
X0122600Y0141200D01*
X0122610Y0141200D02*
X0122610Y0138050D01*
X0121620Y0137070D02*
X0121450Y0137080D01*
X0121280Y0137130D01*
X0121130Y0137200D01*
X0120990Y0137300D01*
X0120870Y0137420D01*
X0120770Y0137560D01*
X0120700Y0137710D01*
X0120650Y0137880D01*
X0120640Y0138050D01*
X0121620Y0137070D02*
X0121790Y0137080D01*
X0121960Y0137130D01*
X0122110Y0137200D01*
X0122250Y0137300D01*
X0122370Y0137420D01*
X0122470Y0137560D01*
X0122540Y0137710D01*
X0122590Y0137880D01*
X0122600Y0138050D01*
X0144900Y0010000D02*
G75*
%LPD*%
D81*
X0144900Y0010000D02*
X0144900Y0147460D01*
X0206100Y0147460D01*
X0206100Y0010000D01*
X0144900Y0010000D01*
X0159740Y0138050D02*
X0159740Y0141200D01*
X0159750Y0141200D02*
X0159760Y0141370D01*
X0159810Y0141540D01*
X0159880Y0141690D01*
X0159980Y0141830D01*
X0160100Y0141950D01*
X0160240Y0142050D01*
X0160390Y0142120D01*
X0160560Y0142170D01*
X0160730Y0142180D01*
X0160900Y0142170D01*
X0161070Y0142120D01*
X0161220Y0142050D01*
X0161360Y0141950D01*
X0161480Y0141830D01*
X0161580Y0141690D01*
X0161650Y0141540D01*
X0161700Y0141370D01*
X0161710Y0141200D01*
X0161710Y0138050D01*
X0160730Y0137070D02*
X0160560Y0137080D01*
X0160390Y0137130D01*
X0160240Y0137200D01*
X0160100Y0137300D01*
X0159980Y0137420D01*
X0159880Y0137560D01*
X0159810Y0137710D01*
X0159760Y0137880D01*
X0159750Y0138050D01*
X0160730Y0137070D02*
X0160900Y0137080D01*
X0161070Y0137130D01*
X0161220Y0137200D01*
X0161360Y0137300D01*
X0161480Y0137420D01*
X0161580Y0137560D01*
X0161650Y0137710D01*
X0161700Y0137880D01*
X0161710Y0138050D01*
X0188090Y0138050D02*
X0188090Y0141200D01*
X0188100Y0141370D01*
X0188150Y0141540D01*
X0188220Y0141690D01*
X0188320Y0141830D01*
X0188440Y0141950D01*
X0188580Y0142050D01*
X0188730Y0142120D01*
X0188900Y0142170D01*
X0189070Y0142180D01*
X0189240Y0142170D01*
X0189410Y0142120D01*
X0189560Y0142050D01*
X0189700Y0141950D01*
X0189820Y0141830D01*
X0189920Y0141690D01*
X0189990Y0141540D01*
X0190040Y0141370D01*
X0190050Y0141200D01*
X0190060Y0141200D02*
X0190060Y0138050D01*
X0189070Y0137070D02*
X0188900Y0137080D01*
X0188730Y0137130D01*
X0188580Y0137200D01*
X0188440Y0137300D01*
X0188320Y0137420D01*
X0188220Y0137560D01*
X0188150Y0137710D01*
X0188100Y0137880D01*
X0188090Y0138050D01*
X0189070Y0137070D02*
X0189240Y0137080D01*
X0189410Y0137130D01*
X0189560Y0137200D01*
X0189700Y0137300D01*
X0189820Y0137420D01*
X0189920Y0137560D01*
X0189990Y0137710D01*
X0190040Y0137880D01*
X0190050Y0138050D01*
M02*
