G75*
G70*
%OFA0B0*%
%FSLAX25Y25*%
%IPPOS*%
%LPD*%
%AMOC8*
5,1,8,0,0,1.08239X$1,22.5*
%
%ADD15C,0.05520*%
%ADD23C,0.06310*%
%ADD46C,0.06400*%
%ADD51R,0.06310X0.06310*%
%ADD53C,0.12600*%
%ADD54C,0.03160*%
%ADD65OC8,0.06400*%
%ADD72C,0.05710*%
X0010000Y0010000D02*
G75*
%LPD*%
D51*
X0025000Y0044110D03*
D23*
X0025000Y0034110D03*
X0035000Y0034110D03*
X0035000Y0044110D03*
X0045000Y0044110D03*
X0045000Y0034110D03*
X0055000Y0034110D03*
X0055000Y0044110D03*
D46*
X0015000Y0021480D02*
X0015000Y0015480D01*
X0025000Y0015480D02*
X0025000Y0021480D01*
X0035000Y0021480D02*
X0035000Y0015480D01*
X0045000Y0015480D02*
X0045000Y0021480D01*
D65*
X0065000Y0018480D03*
D15*
X0050140Y0145930D03*
X0031050Y0145930D03*
D72*
X0026420Y0152720D02*
X0026420Y0158030D01*
X0054770Y0158030D02*
X0054770Y0152720D01*
D54*
X0047680Y0149470D03*
X0033510Y0149470D03*
D53*
X0017880Y0147200D03*
X0063550Y0147200D03*
X0010000Y0166335D02*
G75*
%LPD*%
D51*
X0025000Y0200445D03*
D23*
X0025000Y0190445D03*
X0035000Y0190445D03*
X0035000Y0200445D03*
X0045000Y0200445D03*
X0045000Y0190445D03*
X0055000Y0190445D03*
X0055000Y0200445D03*
D46*
X0015000Y0177815D02*
X0015000Y0171815D01*
X0025000Y0171815D02*
X0025000Y0177815D01*
X0035000Y0177815D02*
X0035000Y0171815D01*
X0045000Y0171815D02*
X0045000Y0177815D01*
D65*
X0065000Y0174815D03*
D15*
X0050140Y0302265D03*
X0031050Y0302265D03*
D72*
X0026420Y0309055D02*
X0026420Y0314365D01*
X0054770Y0314365D02*
X0054770Y0309055D01*
D54*
X0047680Y0305805D03*
X0033510Y0305805D03*
D53*
X0017880Y0303535D03*
X0063550Y0303535D03*
X0074325Y0010000D02*
G75*
%LPD*%
D51*
X0089325Y0044110D03*
D23*
X0089325Y0034110D03*
X0099325Y0034110D03*
X0099325Y0044110D03*
X0109325Y0044110D03*
X0109325Y0034110D03*
X0119325Y0034110D03*
X0119325Y0044110D03*
D46*
X0079325Y0021480D02*
X0079325Y0015480D01*
X0089325Y0015480D02*
X0089325Y0021480D01*
X0099325Y0021480D02*
X0099325Y0015480D01*
X0109325Y0015480D02*
X0109325Y0021480D01*
D65*
X0129325Y0018480D03*
D15*
X0114465Y0145930D03*
X0095375Y0145930D03*
D72*
X0090745Y0152720D02*
X0090745Y0158030D01*
X0119095Y0158030D02*
X0119095Y0152720D01*
D54*
X0112005Y0149470D03*
X0097835Y0149470D03*
D53*
X0082205Y0147200D03*
X0127875Y0147200D03*
X0074325Y0166335D02*
G75*
%LPD*%
D51*
X0089325Y0200445D03*
D23*
X0089325Y0190445D03*
X0099325Y0190445D03*
X0099325Y0200445D03*
X0109325Y0200445D03*
X0109325Y0190445D03*
X0119325Y0190445D03*
X0119325Y0200445D03*
D46*
X0079325Y0177815D02*
X0079325Y0171815D01*
X0089325Y0171815D02*
X0089325Y0177815D01*
X0099325Y0177815D02*
X0099325Y0171815D01*
X0109325Y0171815D02*
X0109325Y0177815D01*
D65*
X0129325Y0174815D03*
D15*
X0114465Y0302265D03*
X0095375Y0302265D03*
D72*
X0090745Y0309055D02*
X0090745Y0314365D01*
X0119095Y0314365D02*
X0119095Y0309055D01*
D54*
X0112005Y0305805D03*
X0097835Y0305805D03*
D53*
X0082205Y0303535D03*
X0127875Y0303535D03*
X0138650Y0010000D02*
G75*
%LPD*%
D51*
X0153650Y0044110D03*
D23*
X0153650Y0034110D03*
X0163650Y0034110D03*
X0163650Y0044110D03*
X0173650Y0044110D03*
X0173650Y0034110D03*
X0183650Y0034110D03*
X0183650Y0044110D03*
D46*
X0143650Y0021480D02*
X0143650Y0015480D01*
X0153650Y0015480D02*
X0153650Y0021480D01*
X0163650Y0021480D02*
X0163650Y0015480D01*
X0173650Y0015480D02*
X0173650Y0021480D01*
D65*
X0193650Y0018480D03*
D15*
X0178790Y0145930D03*
X0159700Y0145930D03*
D72*
X0155070Y0152720D02*
X0155070Y0158030D01*
X0183420Y0158030D02*
X0183420Y0152720D01*
D54*
X0176330Y0149470D03*
X0162160Y0149470D03*
D53*
X0146530Y0147200D03*
X0192200Y0147200D03*
X0138650Y0166335D02*
G75*
%LPD*%
D51*
X0153650Y0200445D03*
D23*
X0153650Y0190445D03*
X0163650Y0190445D03*
X0163650Y0200445D03*
X0173650Y0200445D03*
X0173650Y0190445D03*
X0183650Y0190445D03*
X0183650Y0200445D03*
D46*
X0143650Y0177815D02*
X0143650Y0171815D01*
X0153650Y0171815D02*
X0153650Y0177815D01*
X0163650Y0177815D02*
X0163650Y0171815D01*
X0173650Y0171815D02*
X0173650Y0177815D01*
D65*
X0193650Y0174815D03*
D15*
X0178790Y0302265D03*
X0159700Y0302265D03*
D72*
X0155070Y0309055D02*
X0155070Y0314365D01*
X0183420Y0314365D02*
X0183420Y0309055D01*
D54*
X0176330Y0305805D03*
X0162160Y0305805D03*
D53*
X0146530Y0303535D03*
X0192200Y0303535D03*
X0202975Y0010000D02*
G75*
%LPD*%
D51*
X0217975Y0044110D03*
D23*
X0217975Y0034110D03*
X0227975Y0034110D03*
X0227975Y0044110D03*
X0237975Y0044110D03*
X0237975Y0034110D03*
X0247975Y0034110D03*
X0247975Y0044110D03*
D46*
X0207975Y0021480D02*
X0207975Y0015480D01*
X0217975Y0015480D02*
X0217975Y0021480D01*
X0227975Y0021480D02*
X0227975Y0015480D01*
X0237975Y0015480D02*
X0237975Y0021480D01*
D65*
X0257975Y0018480D03*
D15*
X0243115Y0145930D03*
X0224025Y0145930D03*
D72*
X0219395Y0152720D02*
X0219395Y0158030D01*
X0247745Y0158030D02*
X0247745Y0152720D01*
D54*
X0240655Y0149470D03*
X0226485Y0149470D03*
D53*
X0210855Y0147200D03*
X0256525Y0147200D03*
X0202975Y0166335D02*
G75*
%LPD*%
D51*
X0217975Y0200445D03*
D23*
X0217975Y0190445D03*
X0227975Y0190445D03*
X0227975Y0200445D03*
X0237975Y0200445D03*
X0237975Y0190445D03*
X0247975Y0190445D03*
X0247975Y0200445D03*
D46*
X0207975Y0177815D02*
X0207975Y0171815D01*
X0217975Y0171815D02*
X0217975Y0177815D01*
X0227975Y0177815D02*
X0227975Y0171815D01*
X0237975Y0171815D02*
X0237975Y0177815D01*
D65*
X0257975Y0174815D03*
D15*
X0243115Y0302265D03*
X0224025Y0302265D03*
D72*
X0219395Y0309055D02*
X0219395Y0314365D01*
X0247745Y0314365D02*
X0247745Y0309055D01*
D54*
X0240655Y0305805D03*
X0226485Y0305805D03*
D53*
X0210855Y0303535D03*
X0256525Y0303535D03*
X0267300Y0010000D02*
G75*
%LPD*%
D51*
X0282300Y0044110D03*
D23*
X0282300Y0034110D03*
X0292300Y0034110D03*
X0292300Y0044110D03*
X0302300Y0044110D03*
X0302300Y0034110D03*
X0312300Y0034110D03*
X0312300Y0044110D03*
D46*
X0272300Y0021480D02*
X0272300Y0015480D01*
X0282300Y0015480D02*
X0282300Y0021480D01*
X0292300Y0021480D02*
X0292300Y0015480D01*
X0302300Y0015480D02*
X0302300Y0021480D01*
D65*
X0322300Y0018480D03*
D15*
X0307440Y0145930D03*
X0288350Y0145930D03*
D72*
X0283720Y0152720D02*
X0283720Y0158030D01*
X0312070Y0158030D02*
X0312070Y0152720D01*
D54*
X0304980Y0149470D03*
X0290810Y0149470D03*
D53*
X0275180Y0147200D03*
X0320850Y0147200D03*
X0267300Y0166335D02*
G75*
%LPD*%
D51*
X0282300Y0200445D03*
D23*
X0282300Y0190445D03*
X0292300Y0190445D03*
X0292300Y0200445D03*
X0302300Y0200445D03*
X0302300Y0190445D03*
X0312300Y0190445D03*
X0312300Y0200445D03*
D46*
X0272300Y0177815D02*
X0272300Y0171815D01*
X0282300Y0171815D02*
X0282300Y0177815D01*
X0292300Y0177815D02*
X0292300Y0171815D01*
X0302300Y0171815D02*
X0302300Y0177815D01*
D65*
X0322300Y0174815D03*
D15*
X0307440Y0302265D03*
X0288350Y0302265D03*
D72*
X0283720Y0309055D02*
X0283720Y0314365D01*
X0312070Y0314365D02*
X0312070Y0309055D01*
D54*
X0304980Y0305805D03*
X0290810Y0305805D03*
D53*
X0275180Y0303535D03*
X0320850Y0303535D03*
X0331625Y0010000D02*
G75*
%LPD*%
D51*
X0346625Y0044110D03*
D23*
X0346625Y0034110D03*
X0356625Y0034110D03*
X0356625Y0044110D03*
X0366625Y0044110D03*
X0366625Y0034110D03*
X0376625Y0034110D03*
X0376625Y0044110D03*
D46*
X0336625Y0021480D02*
X0336625Y0015480D01*
X0346625Y0015480D02*
X0346625Y0021480D01*
X0356625Y0021480D02*
X0356625Y0015480D01*
X0366625Y0015480D02*
X0366625Y0021480D01*
D65*
X0386625Y0018480D03*
D15*
X0371765Y0145930D03*
X0352675Y0145930D03*
D72*
X0348045Y0152720D02*
X0348045Y0158030D01*
X0376395Y0158030D02*
X0376395Y0152720D01*
D54*
X0369305Y0149470D03*
X0355135Y0149470D03*
D53*
X0339505Y0147200D03*
X0385175Y0147200D03*
X0331625Y0166335D02*
G75*
%LPD*%
D51*
X0346625Y0200445D03*
D23*
X0346625Y0190445D03*
X0356625Y0190445D03*
X0356625Y0200445D03*
X0366625Y0200445D03*
X0366625Y0190445D03*
X0376625Y0190445D03*
X0376625Y0200445D03*
D46*
X0336625Y0177815D02*
X0336625Y0171815D01*
X0346625Y0171815D02*
X0346625Y0177815D01*
X0356625Y0177815D02*
X0356625Y0171815D01*
X0366625Y0171815D02*
X0366625Y0177815D01*
D65*
X0386625Y0174815D03*
D15*
X0371765Y0302265D03*
X0352675Y0302265D03*
D72*
X0348045Y0309055D02*
X0348045Y0314365D01*
X0376395Y0314365D02*
X0376395Y0309055D01*
D54*
X0369305Y0305805D03*
X0355135Y0305805D03*
D53*
X0339505Y0303535D03*
X0385175Y0303535D03*
%ADD10C,0.00100*%
D10*
X0010000Y0010000D02*
X0010000Y0319545D01*
X0392825Y0319545D01*
X0392825Y0010000D01*
X0010000Y0010000D01*
M02*
