G75*
G70*
%OFA0B0*%
%FSLAX25Y25*%
%IPPOS*%
%LPD*%
%AMOC8*
5,1,8,0,0,1.08239X$1,22.5*
%
%ADD67C,0.00800*%
X0010000Y0010000D02*
G75*
%LPD*%
D67*
X0017300Y0087870D02*
X0032700Y0087870D01*
X0032700Y0121970D01*
X0017300Y0121970D01*
X0017300Y0087870D01*
X0019090Y0119420D02*
X0019110Y0119650D01*
X0019170Y0119880D01*
X0019260Y0120090D01*
X0019390Y0120290D01*
X0019550Y0120460D01*
X0019730Y0120600D01*
X0019930Y0120710D01*
X0020150Y0120790D01*
X0020380Y0120830D01*
X0020620Y0120830D01*
X0020850Y0120790D01*
X0021070Y0120710D01*
X0021270Y0120600D01*
X0021450Y0120460D01*
X0021610Y0120290D01*
X0021740Y0120090D01*
X0021830Y0119880D01*
X0021890Y0119650D01*
X0021910Y0119420D01*
X0021890Y0119190D01*
X0021830Y0118960D01*
X0021740Y0118750D01*
X0021610Y0118550D01*
X0021450Y0118380D01*
X0021270Y0118240D01*
X0021070Y0118130D01*
X0020850Y0118050D01*
X0020620Y0118010D01*
X0020380Y0118010D01*
X0020150Y0118050D01*
X0019930Y0118130D01*
X0019730Y0118240D01*
X0019550Y0118380D01*
X0019390Y0118550D01*
X0019260Y0118750D01*
X0019170Y0118960D01*
X0019110Y0119190D01*
X0019090Y0119420D01*
X0042100Y0111420D02*
X0042100Y0098420D01*
X0067900Y0098420D01*
X0067900Y0111420D01*
X0042100Y0111420D01*
D67*
X0053590Y0143170D02*
X0053590Y0163210D01*
X0053590Y0163250D02*
X0055550Y0163210D02*
X0055550Y0143170D01*
X0053590Y0143170D01*
X0027800Y0143170D01*
X0027800Y0163210D01*
X0027800Y0163250D02*
X0057200Y0147200D02*
X0057220Y0147700D01*
X0057280Y0148190D01*
X0057380Y0148680D01*
X0057510Y0149160D01*
X0057680Y0149630D01*
X0057890Y0150080D01*
X0058140Y0150520D01*
X0058410Y0150930D01*
X0058720Y0151320D01*
X0059060Y0151690D01*
X0059430Y0152030D01*
X0059820Y0152340D01*
X0060230Y0152610D01*
X0060670Y0152860D01*
X0061120Y0153070D01*
X0061590Y0153240D01*
X0062070Y0153370D01*
X0062560Y0153470D01*
X0063050Y0153530D01*
X0063550Y0153550D01*
X0064050Y0153530D01*
X0064540Y0153470D01*
X0065030Y0153370D01*
X0065510Y0153240D01*
X0065980Y0153070D01*
X0066430Y0152860D01*
X0066870Y0152610D01*
X0067280Y0152340D01*
X0067670Y0152030D01*
X0068040Y0151690D01*
X0068380Y0151320D01*
X0068690Y0150930D01*
X0068960Y0150520D01*
X0069210Y0150080D01*
X0069420Y0149630D01*
X0069590Y0149160D01*
X0069720Y0148680D01*
X0069820Y0148190D01*
X0069880Y0147700D01*
X0069900Y0147200D01*
X0069880Y0146700D01*
X0069820Y0146210D01*
X0069720Y0145720D01*
X0069590Y0145240D01*
X0069420Y0144770D01*
X0069210Y0144320D01*
X0068960Y0143880D01*
X0068690Y0143470D01*
X0068380Y0143080D01*
X0068040Y0142710D01*
X0067670Y0142370D01*
X0067280Y0142060D01*
X0066870Y0141790D01*
X0066430Y0141540D01*
X0065980Y0141330D01*
X0065510Y0141160D01*
X0065030Y0141030D01*
X0064540Y0140930D01*
X0064050Y0140870D01*
X0063550Y0140850D01*
X0063050Y0140870D01*
X0062560Y0140930D01*
X0062070Y0141030D01*
X0061590Y0141160D01*
X0061120Y0141330D01*
X0060670Y0141540D01*
X0060230Y0141790D01*
X0059820Y0142060D01*
X0059430Y0142370D01*
X0059060Y0142710D01*
X0058720Y0143080D01*
X0058410Y0143470D01*
X0058140Y0143880D01*
X0057890Y0144320D01*
X0057680Y0144770D01*
X0057510Y0145240D01*
X0057380Y0145720D01*
X0057280Y0146210D01*
X0057220Y0146700D01*
X0057200Y0147200D01*
X0027800Y0143170D02*
X0025630Y0143170D01*
X0025630Y0163210D01*
X0025630Y0163250D02*
X0011530Y0147200D02*
X0011550Y0147700D01*
X0011610Y0148190D01*
X0011710Y0148680D01*
X0011840Y0149160D01*
X0012010Y0149630D01*
X0012220Y0150080D01*
X0012470Y0150520D01*
X0012740Y0150930D01*
X0013050Y0151320D01*
X0013390Y0151690D01*
X0013760Y0152030D01*
X0014150Y0152340D01*
X0014560Y0152610D01*
X0015000Y0152860D01*
X0015450Y0153070D01*
X0015920Y0153240D01*
X0016400Y0153370D01*
X0016890Y0153470D01*
X0017380Y0153530D01*
X0017880Y0153550D01*
X0018380Y0153530D01*
X0018870Y0153470D01*
X0019360Y0153370D01*
X0019840Y0153240D01*
X0020310Y0153070D01*
X0020760Y0152860D01*
X0021200Y0152610D01*
X0021610Y0152340D01*
X0022000Y0152030D01*
X0022370Y0151690D01*
X0022710Y0151320D01*
X0023020Y0150930D01*
X0023290Y0150520D01*
X0023540Y0150080D01*
X0023750Y0149630D01*
X0023920Y0149160D01*
X0024050Y0148680D01*
X0024150Y0148190D01*
X0024210Y0147700D01*
X0024230Y0147200D01*
X0024210Y0146700D01*
X0024150Y0146210D01*
X0024050Y0145720D01*
X0023920Y0145240D01*
X0023750Y0144770D01*
X0023540Y0144320D01*
X0023290Y0143880D01*
X0023020Y0143470D01*
X0022710Y0143080D01*
X0022370Y0142710D01*
X0022000Y0142370D01*
X0021610Y0142060D01*
X0021200Y0141790D01*
X0020760Y0141540D01*
X0020310Y0141330D01*
X0019840Y0141160D01*
X0019360Y0141030D01*
X0018870Y0140930D01*
X0018380Y0140870D01*
X0017880Y0140850D01*
X0017380Y0140870D01*
X0016890Y0140930D01*
X0016400Y0141030D01*
X0015920Y0141160D01*
X0015450Y0141330D01*
X0015000Y0141540D01*
X0014560Y0141790D01*
X0014150Y0142060D01*
X0013760Y0142370D01*
X0013390Y0142710D01*
X0013050Y0143080D01*
X0012740Y0143470D01*
X0012470Y0143880D01*
X0012220Y0144320D01*
X0012010Y0144770D01*
X0011840Y0145240D01*
X0011710Y0145720D01*
X0011610Y0146210D01*
X0011550Y0146700D01*
X0011530Y0147200D01*
X0012000Y0049110D02*
X0020000Y0049110D01*
X0020000Y0039110D01*
X0030000Y0039110D01*
X0030000Y0049110D01*
X0068000Y0049110D01*
X0068350Y0048940D02*
X0068350Y0029170D01*
X0012050Y0029170D01*
X0012050Y0048940D01*
X0020000Y0049110D02*
X0030000Y0049110D01*
X0037500Y0047220D02*
X0037700Y0047470D01*
X0037940Y0047710D01*
X0038190Y0047920D01*
X0038470Y0048090D01*
X0038770Y0048240D01*
X0039080Y0048340D01*
X0039410Y0048420D01*
X0039730Y0048460D01*
X0040070Y0048460D01*
X0040390Y0048420D01*
X0040720Y0048340D01*
X0041030Y0048240D01*
X0041330Y0048090D01*
X0041610Y0047920D01*
X0041860Y0047710D01*
X0042100Y0047470D01*
X0042300Y0047220D01*
X0041500Y0046510D02*
X0041330Y0046720D01*
X0041140Y0046900D01*
X0040920Y0047050D01*
X0040680Y0047180D01*
X0040430Y0047270D01*
X0040170Y0047320D01*
X0039900Y0047340D01*
X0039630Y0047320D01*
X0039370Y0047270D01*
X0039120Y0047180D01*
X0038880Y0047050D01*
X0038660Y0046900D01*
X0038470Y0046720D01*
X0038300Y0046510D01*
X0039100Y0045810D02*
X0039220Y0045950D01*
X0039360Y0046060D01*
X0039510Y0046150D01*
X0039680Y0046210D01*
X0039860Y0046250D01*
X0040040Y0046250D01*
X0040220Y0046210D01*
X0040390Y0046150D01*
X0040540Y0046060D01*
X0040680Y0045950D01*
X0040800Y0045810D01*
X0039780Y0044810D02*
X0039800Y0044900D01*
X0039850Y0044970D01*
X0039930Y0045020D01*
X0040020Y0045030D01*
X0040110Y0045000D01*
X0040180Y0044940D01*
X0040220Y0044860D01*
X0040220Y0044760D01*
X0040180Y0044680D01*
X0040110Y0044620D01*
X0040020Y0044590D01*
X0039930Y0044600D01*
X0039850Y0044650D01*
X0039800Y0044720D01*
X0039780Y0044810D01*
D67*
X0039480Y0040140D02*
X0040420Y0040140D01*
X0040880Y0039670D01*
X0040880Y0039200D01*
X0040420Y0038740D01*
X0039480Y0038740D01*
X0039020Y0039200D01*
X0039020Y0039670D01*
X0039480Y0040140D01*
X0039480Y0038740D02*
X0039020Y0038270D01*
X0039020Y0037800D01*
X0039480Y0037330D01*
X0040420Y0037330D01*
X0040880Y0037800D01*
X0040880Y0038270D01*
X0040420Y0038740D01*
X0041780Y0039670D02*
X0042240Y0040140D01*
X0043180Y0040140D01*
X0043650Y0039670D01*
X0043650Y0039200D01*
X0041780Y0037330D01*
X0043650Y0037330D01*
X0044540Y0037800D02*
X0045010Y0037330D01*
X0045940Y0037330D01*
X0046410Y0037800D01*
X0046410Y0038270D01*
X0045940Y0038740D01*
X0044540Y0038740D01*
X0044540Y0037800D01*
X0044540Y0038740D02*
X0045470Y0039670D01*
X0046410Y0040140D01*
X0047300Y0038740D02*
X0048700Y0038740D01*
X0049170Y0038270D01*
X0049170Y0037800D01*
X0048700Y0037330D01*
X0047770Y0037330D01*
X0047300Y0037800D01*
X0047300Y0038740D01*
X0048240Y0039670D01*
X0049170Y0040140D01*
X0050060Y0038740D02*
X0051930Y0038740D01*
X0052830Y0039670D02*
X0053290Y0040140D01*
X0054230Y0040140D01*
X0054700Y0039670D01*
X0052830Y0037800D01*
X0053290Y0037330D01*
X0054230Y0037330D01*
X0054700Y0037800D01*
X0054700Y0039670D01*
X0055590Y0039200D02*
X0056520Y0040140D01*
X0056520Y0037330D01*
X0055590Y0037330D02*
X0057460Y0037330D01*
X0052830Y0037800D02*
X0052830Y0039670D01*
X0038120Y0039670D02*
X0038120Y0038740D01*
X0037650Y0038270D01*
X0036250Y0038270D01*
X0036250Y0037330D02*
X0036250Y0040140D01*
X0037650Y0040140D01*
X0038120Y0039670D01*
X0035360Y0039670D02*
X0034890Y0040140D01*
X0033960Y0040140D01*
X0033490Y0039670D01*
X0033490Y0039200D01*
X0033960Y0038740D01*
X0034890Y0038740D01*
X0035360Y0038270D01*
X0035360Y0037800D01*
X0034890Y0037330D01*
X0033960Y0037330D01*
X0033490Y0037800D01*
X0032600Y0037330D02*
X0030730Y0037330D01*
X0030730Y0040140D01*
X0032600Y0040140D01*
X0031660Y0038740D02*
X0030730Y0038740D01*
D67*
X0010000Y0015980D02*
X0012500Y0013480D01*
X0017500Y0013480D01*
X0020000Y0015980D01*
X0022500Y0013480D01*
X0027500Y0013480D01*
X0030000Y0015980D01*
X0030000Y0020980D01*
X0027500Y0023480D01*
X0022500Y0023480D01*
X0020000Y0020980D01*
X0020000Y0015980D01*
X0020000Y0020980D02*
X0017500Y0023480D01*
X0012500Y0023480D01*
X0010000Y0020980D01*
X0010000Y0015980D01*
X0030000Y0015980D02*
X0032500Y0013480D01*
X0037500Y0013480D01*
X0040000Y0015980D01*
X0042500Y0013480D01*
X0047500Y0013480D01*
X0050000Y0015980D01*
X0050000Y0020980D01*
X0047500Y0023480D01*
X0042500Y0023480D01*
X0040000Y0020980D01*
X0040000Y0015980D01*
X0040000Y0020980D02*
X0037500Y0023480D01*
X0032500Y0023480D01*
X0030000Y0020980D01*
X0053810Y0058420D02*
X0053810Y0063580D01*
X0057980Y0063580D01*
X0058290Y0058380D02*
X0061670Y0058380D01*
X0062220Y0063580D02*
X0066190Y0063580D01*
X0066190Y0058420D01*
X0067500Y0023480D02*
X0062500Y0023480D01*
X0060000Y0020980D01*
X0060000Y0015980D01*
X0062500Y0013480D01*
X0067500Y0013480D01*
X0070000Y0015980D01*
X0070000Y0020980D01*
X0067500Y0023480D01*
X0010000Y0166335D02*
G75*
%LPD*%
D67*
X0017300Y0244205D02*
X0032700Y0244205D01*
X0032700Y0278305D01*
X0017300Y0278305D01*
X0017300Y0244205D01*
X0019090Y0275755D02*
X0019110Y0275985D01*
X0019170Y0276215D01*
X0019260Y0276425D01*
X0019390Y0276625D01*
X0019550Y0276795D01*
X0019730Y0276935D01*
X0019930Y0277045D01*
X0020150Y0277125D01*
X0020380Y0277165D01*
X0020620Y0277165D01*
X0020850Y0277125D01*
X0021070Y0277045D01*
X0021270Y0276935D01*
X0021450Y0276795D01*
X0021610Y0276625D01*
X0021740Y0276425D01*
X0021830Y0276215D01*
X0021890Y0275985D01*
X0021910Y0275755D01*
X0021890Y0275525D01*
X0021830Y0275295D01*
X0021740Y0275085D01*
X0021610Y0274885D01*
X0021450Y0274715D01*
X0021270Y0274575D01*
X0021070Y0274465D01*
X0020850Y0274385D01*
X0020620Y0274345D01*
X0020380Y0274345D01*
X0020150Y0274385D01*
X0019930Y0274465D01*
X0019730Y0274575D01*
X0019550Y0274715D01*
X0019390Y0274885D01*
X0019260Y0275085D01*
X0019170Y0275295D01*
X0019110Y0275525D01*
X0019090Y0275755D01*
X0042100Y0267755D02*
X0042100Y0254755D01*
X0067900Y0254755D01*
X0067900Y0267755D01*
X0042100Y0267755D01*
D67*
X0053590Y0299505D02*
X0053590Y0319545D01*
X0053590Y0319585D02*
X0055550Y0319545D02*
X0055550Y0299505D01*
X0053590Y0299505D01*
X0027800Y0299505D01*
X0027800Y0319545D01*
X0027800Y0319585D02*
X0057200Y0303535D02*
X0057220Y0304035D01*
X0057280Y0304525D01*
X0057380Y0305015D01*
X0057510Y0305495D01*
X0057680Y0305965D01*
X0057890Y0306415D01*
X0058140Y0306855D01*
X0058410Y0307265D01*
X0058720Y0307655D01*
X0059060Y0308025D01*
X0059430Y0308365D01*
X0059820Y0308675D01*
X0060230Y0308945D01*
X0060670Y0309195D01*
X0061120Y0309405D01*
X0061590Y0309575D01*
X0062070Y0309705D01*
X0062560Y0309805D01*
X0063050Y0309865D01*
X0063550Y0309885D01*
X0064050Y0309865D01*
X0064540Y0309805D01*
X0065030Y0309705D01*
X0065510Y0309575D01*
X0065980Y0309405D01*
X0066430Y0309195D01*
X0066870Y0308945D01*
X0067280Y0308675D01*
X0067670Y0308365D01*
X0068040Y0308025D01*
X0068380Y0307655D01*
X0068690Y0307265D01*
X0068960Y0306855D01*
X0069210Y0306415D01*
X0069420Y0305965D01*
X0069590Y0305495D01*
X0069720Y0305015D01*
X0069820Y0304525D01*
X0069880Y0304035D01*
X0069900Y0303535D01*
X0069880Y0303035D01*
X0069820Y0302545D01*
X0069720Y0302055D01*
X0069590Y0301575D01*
X0069420Y0301105D01*
X0069210Y0300655D01*
X0068960Y0300215D01*
X0068690Y0299805D01*
X0068380Y0299415D01*
X0068040Y0299045D01*
X0067670Y0298705D01*
X0067280Y0298395D01*
X0066870Y0298125D01*
X0066430Y0297875D01*
X0065980Y0297665D01*
X0065510Y0297495D01*
X0065030Y0297365D01*
X0064540Y0297265D01*
X0064050Y0297205D01*
X0063550Y0297185D01*
X0063050Y0297205D01*
X0062560Y0297265D01*
X0062070Y0297365D01*
X0061590Y0297495D01*
X0061120Y0297665D01*
X0060670Y0297875D01*
X0060230Y0298125D01*
X0059820Y0298395D01*
X0059430Y0298705D01*
X0059060Y0299045D01*
X0058720Y0299415D01*
X0058410Y0299805D01*
X0058140Y0300215D01*
X0057890Y0300655D01*
X0057680Y0301105D01*
X0057510Y0301575D01*
X0057380Y0302055D01*
X0057280Y0302545D01*
X0057220Y0303035D01*
X0057200Y0303535D01*
X0027800Y0299505D02*
X0025630Y0299505D01*
X0025630Y0319545D01*
X0025630Y0319585D02*
X0011530Y0303535D02*
X0011550Y0304035D01*
X0011610Y0304525D01*
X0011710Y0305015D01*
X0011840Y0305495D01*
X0012010Y0305965D01*
X0012220Y0306415D01*
X0012470Y0306855D01*
X0012740Y0307265D01*
X0013050Y0307655D01*
X0013390Y0308025D01*
X0013760Y0308365D01*
X0014150Y0308675D01*
X0014560Y0308945D01*
X0015000Y0309195D01*
X0015450Y0309405D01*
X0015920Y0309575D01*
X0016400Y0309705D01*
X0016890Y0309805D01*
X0017380Y0309865D01*
X0017880Y0309885D01*
X0018380Y0309865D01*
X0018870Y0309805D01*
X0019360Y0309705D01*
X0019840Y0309575D01*
X0020310Y0309405D01*
X0020760Y0309195D01*
X0021200Y0308945D01*
X0021610Y0308675D01*
X0022000Y0308365D01*
X0022370Y0308025D01*
X0022710Y0307655D01*
X0023020Y0307265D01*
X0023290Y0306855D01*
X0023540Y0306415D01*
X0023750Y0305965D01*
X0023920Y0305495D01*
X0024050Y0305015D01*
X0024150Y0304525D01*
X0024210Y0304035D01*
X0024230Y0303535D01*
X0024210Y0303035D01*
X0024150Y0302545D01*
X0024050Y0302055D01*
X0023920Y0301575D01*
X0023750Y0301105D01*
X0023540Y0300655D01*
X0023290Y0300215D01*
X0023020Y0299805D01*
X0022710Y0299415D01*
X0022370Y0299045D01*
X0022000Y0298705D01*
X0021610Y0298395D01*
X0021200Y0298125D01*
X0020760Y0297875D01*
X0020310Y0297665D01*
X0019840Y0297495D01*
X0019360Y0297365D01*
X0018870Y0297265D01*
X0018380Y0297205D01*
X0017880Y0297185D01*
X0017380Y0297205D01*
X0016890Y0297265D01*
X0016400Y0297365D01*
X0015920Y0297495D01*
X0015450Y0297665D01*
X0015000Y0297875D01*
X0014560Y0298125D01*
X0014150Y0298395D01*
X0013760Y0298705D01*
X0013390Y0299045D01*
X0013050Y0299415D01*
X0012740Y0299805D01*
X0012470Y0300215D01*
X0012220Y0300655D01*
X0012010Y0301105D01*
X0011840Y0301575D01*
X0011710Y0302055D01*
X0011610Y0302545D01*
X0011550Y0303035D01*
X0011530Y0303535D01*
X0012000Y0205445D02*
X0020000Y0205445D01*
X0020000Y0195445D01*
X0030000Y0195445D01*
X0030000Y0205445D01*
X0068000Y0205445D01*
X0068350Y0205275D02*
X0068350Y0185505D01*
X0012050Y0185505D01*
X0012050Y0205275D01*
X0020000Y0205445D02*
X0030000Y0205445D01*
X0037500Y0203555D02*
X0037700Y0203805D01*
X0037940Y0204045D01*
X0038190Y0204255D01*
X0038470Y0204425D01*
X0038770Y0204575D01*
X0039080Y0204675D01*
X0039410Y0204755D01*
X0039730Y0204795D01*
X0040070Y0204795D01*
X0040390Y0204755D01*
X0040720Y0204675D01*
X0041030Y0204575D01*
X0041330Y0204425D01*
X0041610Y0204255D01*
X0041860Y0204045D01*
X0042100Y0203805D01*
X0042300Y0203555D01*
X0041500Y0202845D02*
X0041330Y0203055D01*
X0041140Y0203235D01*
X0040920Y0203385D01*
X0040680Y0203515D01*
X0040430Y0203605D01*
X0040170Y0203655D01*
X0039900Y0203675D01*
X0039630Y0203655D01*
X0039370Y0203605D01*
X0039120Y0203515D01*
X0038880Y0203385D01*
X0038660Y0203235D01*
X0038470Y0203055D01*
X0038300Y0202845D01*
X0039100Y0202145D02*
X0039220Y0202285D01*
X0039360Y0202395D01*
X0039510Y0202485D01*
X0039680Y0202545D01*
X0039860Y0202585D01*
X0040040Y0202585D01*
X0040220Y0202545D01*
X0040390Y0202485D01*
X0040540Y0202395D01*
X0040680Y0202285D01*
X0040800Y0202145D01*
X0039780Y0201145D02*
X0039800Y0201235D01*
X0039850Y0201305D01*
X0039930Y0201355D01*
X0040020Y0201365D01*
X0040110Y0201335D01*
X0040180Y0201275D01*
X0040220Y0201195D01*
X0040220Y0201095D01*
X0040180Y0201015D01*
X0040110Y0200955D01*
X0040020Y0200925D01*
X0039930Y0200935D01*
X0039850Y0200985D01*
X0039800Y0201055D01*
X0039780Y0201145D01*
D67*
X0039480Y0196475D02*
X0040420Y0196475D01*
X0040880Y0196005D01*
X0040880Y0195535D01*
X0040420Y0195075D01*
X0039480Y0195075D01*
X0039020Y0195535D01*
X0039020Y0196005D01*
X0039480Y0196475D01*
X0039480Y0195075D02*
X0039020Y0194605D01*
X0039020Y0194135D01*
X0039480Y0193665D01*
X0040420Y0193665D01*
X0040880Y0194135D01*
X0040880Y0194605D01*
X0040420Y0195075D01*
X0041780Y0196005D02*
X0042240Y0196475D01*
X0043180Y0196475D01*
X0043650Y0196005D01*
X0043650Y0195535D01*
X0041780Y0193665D01*
X0043650Y0193665D01*
X0044540Y0194135D02*
X0045010Y0193665D01*
X0045940Y0193665D01*
X0046410Y0194135D01*
X0046410Y0194605D01*
X0045940Y0195075D01*
X0044540Y0195075D01*
X0044540Y0194135D01*
X0044540Y0195075D02*
X0045470Y0196005D01*
X0046410Y0196475D01*
X0047300Y0195075D02*
X0048700Y0195075D01*
X0049170Y0194605D01*
X0049170Y0194135D01*
X0048700Y0193665D01*
X0047770Y0193665D01*
X0047300Y0194135D01*
X0047300Y0195075D01*
X0048240Y0196005D01*
X0049170Y0196475D01*
X0050060Y0195075D02*
X0051930Y0195075D01*
X0052830Y0196005D02*
X0053290Y0196475D01*
X0054230Y0196475D01*
X0054700Y0196005D01*
X0052830Y0194135D01*
X0053290Y0193665D01*
X0054230Y0193665D01*
X0054700Y0194135D01*
X0054700Y0196005D01*
X0055590Y0195535D02*
X0056520Y0196475D01*
X0056520Y0193665D01*
X0055590Y0193665D02*
X0057460Y0193665D01*
X0052830Y0194135D02*
X0052830Y0196005D01*
X0038120Y0196005D02*
X0038120Y0195075D01*
X0037650Y0194605D01*
X0036250Y0194605D01*
X0036250Y0193665D02*
X0036250Y0196475D01*
X0037650Y0196475D01*
X0038120Y0196005D01*
X0035360Y0196005D02*
X0034890Y0196475D01*
X0033960Y0196475D01*
X0033490Y0196005D01*
X0033490Y0195535D01*
X0033960Y0195075D01*
X0034890Y0195075D01*
X0035360Y0194605D01*
X0035360Y0194135D01*
X0034890Y0193665D01*
X0033960Y0193665D01*
X0033490Y0194135D01*
X0032600Y0193665D02*
X0030730Y0193665D01*
X0030730Y0196475D01*
X0032600Y0196475D01*
X0031660Y0195075D02*
X0030730Y0195075D01*
D67*
X0010000Y0172315D02*
X0012500Y0169815D01*
X0017500Y0169815D01*
X0020000Y0172315D01*
X0022500Y0169815D01*
X0027500Y0169815D01*
X0030000Y0172315D01*
X0030000Y0177315D01*
X0027500Y0179815D01*
X0022500Y0179815D01*
X0020000Y0177315D01*
X0020000Y0172315D01*
X0020000Y0177315D02*
X0017500Y0179815D01*
X0012500Y0179815D01*
X0010000Y0177315D01*
X0010000Y0172315D01*
X0030000Y0172315D02*
X0032500Y0169815D01*
X0037500Y0169815D01*
X0040000Y0172315D01*
X0042500Y0169815D01*
X0047500Y0169815D01*
X0050000Y0172315D01*
X0050000Y0177315D01*
X0047500Y0179815D01*
X0042500Y0179815D01*
X0040000Y0177315D01*
X0040000Y0172315D01*
X0040000Y0177315D02*
X0037500Y0179815D01*
X0032500Y0179815D01*
X0030000Y0177315D01*
X0053810Y0214755D02*
X0053810Y0219915D01*
X0057980Y0219915D01*
X0058290Y0214715D02*
X0061670Y0214715D01*
X0062220Y0219915D02*
X0066190Y0219915D01*
X0066190Y0214755D01*
X0067500Y0179815D02*
X0062500Y0179815D01*
X0060000Y0177315D01*
X0060000Y0172315D01*
X0062500Y0169815D01*
X0067500Y0169815D01*
X0070000Y0172315D01*
X0070000Y0177315D01*
X0067500Y0179815D01*
X0074325Y0010000D02*
G75*
%LPD*%
D67*
X0081625Y0087870D02*
X0097025Y0087870D01*
X0097025Y0121970D01*
X0081625Y0121970D01*
X0081625Y0087870D01*
X0083415Y0119420D02*
X0083435Y0119650D01*
X0083495Y0119880D01*
X0083585Y0120090D01*
X0083715Y0120290D01*
X0083875Y0120460D01*
X0084055Y0120600D01*
X0084255Y0120710D01*
X0084475Y0120790D01*
X0084705Y0120830D01*
X0084945Y0120830D01*
X0085175Y0120790D01*
X0085395Y0120710D01*
X0085595Y0120600D01*
X0085775Y0120460D01*
X0085935Y0120290D01*
X0086065Y0120090D01*
X0086155Y0119880D01*
X0086215Y0119650D01*
X0086235Y0119420D01*
X0086215Y0119190D01*
X0086155Y0118960D01*
X0086065Y0118750D01*
X0085935Y0118550D01*
X0085775Y0118380D01*
X0085595Y0118240D01*
X0085395Y0118130D01*
X0085175Y0118050D01*
X0084945Y0118010D01*
X0084705Y0118010D01*
X0084475Y0118050D01*
X0084255Y0118130D01*
X0084055Y0118240D01*
X0083875Y0118380D01*
X0083715Y0118550D01*
X0083585Y0118750D01*
X0083495Y0118960D01*
X0083435Y0119190D01*
X0083415Y0119420D01*
X0106425Y0111420D02*
X0106425Y0098420D01*
X0132225Y0098420D01*
X0132225Y0111420D01*
X0106425Y0111420D01*
D67*
X0117915Y0143170D02*
X0117915Y0163210D01*
X0117915Y0163250D02*
X0119875Y0163210D02*
X0119875Y0143170D01*
X0117915Y0143170D01*
X0092125Y0143170D01*
X0092125Y0163210D01*
X0092125Y0163250D02*
X0121525Y0147200D02*
X0121545Y0147700D01*
X0121605Y0148190D01*
X0121705Y0148680D01*
X0121835Y0149160D01*
X0122005Y0149630D01*
X0122215Y0150080D01*
X0122465Y0150520D01*
X0122735Y0150930D01*
X0123045Y0151320D01*
X0123385Y0151690D01*
X0123755Y0152030D01*
X0124145Y0152340D01*
X0124555Y0152610D01*
X0124995Y0152860D01*
X0125445Y0153070D01*
X0125915Y0153240D01*
X0126395Y0153370D01*
X0126885Y0153470D01*
X0127375Y0153530D01*
X0127875Y0153550D01*
X0128375Y0153530D01*
X0128865Y0153470D01*
X0129355Y0153370D01*
X0129835Y0153240D01*
X0130305Y0153070D01*
X0130755Y0152860D01*
X0131195Y0152610D01*
X0131605Y0152340D01*
X0131995Y0152030D01*
X0132365Y0151690D01*
X0132705Y0151320D01*
X0133015Y0150930D01*
X0133285Y0150520D01*
X0133535Y0150080D01*
X0133745Y0149630D01*
X0133915Y0149160D01*
X0134045Y0148680D01*
X0134145Y0148190D01*
X0134205Y0147700D01*
X0134225Y0147200D01*
X0134205Y0146700D01*
X0134145Y0146210D01*
X0134045Y0145720D01*
X0133915Y0145240D01*
X0133745Y0144770D01*
X0133535Y0144320D01*
X0133285Y0143880D01*
X0133015Y0143470D01*
X0132705Y0143080D01*
X0132365Y0142710D01*
X0131995Y0142370D01*
X0131605Y0142060D01*
X0131195Y0141790D01*
X0130755Y0141540D01*
X0130305Y0141330D01*
X0129835Y0141160D01*
X0129355Y0141030D01*
X0128865Y0140930D01*
X0128375Y0140870D01*
X0127875Y0140850D01*
X0127375Y0140870D01*
X0126885Y0140930D01*
X0126395Y0141030D01*
X0125915Y0141160D01*
X0125445Y0141330D01*
X0124995Y0141540D01*
X0124555Y0141790D01*
X0124145Y0142060D01*
X0123755Y0142370D01*
X0123385Y0142710D01*
X0123045Y0143080D01*
X0122735Y0143470D01*
X0122465Y0143880D01*
X0122215Y0144320D01*
X0122005Y0144770D01*
X0121835Y0145240D01*
X0121705Y0145720D01*
X0121605Y0146210D01*
X0121545Y0146700D01*
X0121525Y0147200D01*
X0092125Y0143170D02*
X0089955Y0143170D01*
X0089955Y0163210D01*
X0089955Y0163250D02*
X0075855Y0147200D02*
X0075875Y0147700D01*
X0075935Y0148190D01*
X0076035Y0148680D01*
X0076165Y0149160D01*
X0076335Y0149630D01*
X0076545Y0150080D01*
X0076795Y0150520D01*
X0077065Y0150930D01*
X0077375Y0151320D01*
X0077715Y0151690D01*
X0078085Y0152030D01*
X0078475Y0152340D01*
X0078885Y0152610D01*
X0079325Y0152860D01*
X0079775Y0153070D01*
X0080245Y0153240D01*
X0080725Y0153370D01*
X0081215Y0153470D01*
X0081705Y0153530D01*
X0082205Y0153550D01*
X0082705Y0153530D01*
X0083195Y0153470D01*
X0083685Y0153370D01*
X0084165Y0153240D01*
X0084635Y0153070D01*
X0085085Y0152860D01*
X0085525Y0152610D01*
X0085935Y0152340D01*
X0086325Y0152030D01*
X0086695Y0151690D01*
X0087035Y0151320D01*
X0087345Y0150930D01*
X0087615Y0150520D01*
X0087865Y0150080D01*
X0088075Y0149630D01*
X0088245Y0149160D01*
X0088375Y0148680D01*
X0088475Y0148190D01*
X0088535Y0147700D01*
X0088555Y0147200D01*
X0088535Y0146700D01*
X0088475Y0146210D01*
X0088375Y0145720D01*
X0088245Y0145240D01*
X0088075Y0144770D01*
X0087865Y0144320D01*
X0087615Y0143880D01*
X0087345Y0143470D01*
X0087035Y0143080D01*
X0086695Y0142710D01*
X0086325Y0142370D01*
X0085935Y0142060D01*
X0085525Y0141790D01*
X0085085Y0141540D01*
X0084635Y0141330D01*
X0084165Y0141160D01*
X0083685Y0141030D01*
X0083195Y0140930D01*
X0082705Y0140870D01*
X0082205Y0140850D01*
X0081705Y0140870D01*
X0081215Y0140930D01*
X0080725Y0141030D01*
X0080245Y0141160D01*
X0079775Y0141330D01*
X0079325Y0141540D01*
X0078885Y0141790D01*
X0078475Y0142060D01*
X0078085Y0142370D01*
X0077715Y0142710D01*
X0077375Y0143080D01*
X0077065Y0143470D01*
X0076795Y0143880D01*
X0076545Y0144320D01*
X0076335Y0144770D01*
X0076165Y0145240D01*
X0076035Y0145720D01*
X0075935Y0146210D01*
X0075875Y0146700D01*
X0075855Y0147200D01*
X0076325Y0049110D02*
X0084325Y0049110D01*
X0084325Y0039110D01*
X0094325Y0039110D01*
X0094325Y0049110D01*
X0132325Y0049110D01*
X0132675Y0048940D02*
X0132675Y0029170D01*
X0076375Y0029170D01*
X0076375Y0048940D01*
X0084325Y0049110D02*
X0094325Y0049110D01*
X0101825Y0047220D02*
X0102025Y0047470D01*
X0102265Y0047710D01*
X0102515Y0047920D01*
X0102795Y0048090D01*
X0103095Y0048240D01*
X0103405Y0048340D01*
X0103735Y0048420D01*
X0104055Y0048460D01*
X0104395Y0048460D01*
X0104715Y0048420D01*
X0105045Y0048340D01*
X0105355Y0048240D01*
X0105655Y0048090D01*
X0105935Y0047920D01*
X0106185Y0047710D01*
X0106425Y0047470D01*
X0106625Y0047220D01*
X0105825Y0046510D02*
X0105655Y0046720D01*
X0105465Y0046900D01*
X0105245Y0047050D01*
X0105005Y0047180D01*
X0104755Y0047270D01*
X0104495Y0047320D01*
X0104225Y0047340D01*
X0103955Y0047320D01*
X0103695Y0047270D01*
X0103445Y0047180D01*
X0103205Y0047050D01*
X0102985Y0046900D01*
X0102795Y0046720D01*
X0102625Y0046510D01*
X0103425Y0045810D02*
X0103545Y0045950D01*
X0103685Y0046060D01*
X0103835Y0046150D01*
X0104005Y0046210D01*
X0104185Y0046250D01*
X0104365Y0046250D01*
X0104545Y0046210D01*
X0104715Y0046150D01*
X0104865Y0046060D01*
X0105005Y0045950D01*
X0105125Y0045810D01*
X0104105Y0044810D02*
X0104125Y0044900D01*
X0104175Y0044970D01*
X0104255Y0045020D01*
X0104345Y0045030D01*
X0104435Y0045000D01*
X0104505Y0044940D01*
X0104545Y0044860D01*
X0104545Y0044760D01*
X0104505Y0044680D01*
X0104435Y0044620D01*
X0104345Y0044590D01*
X0104255Y0044600D01*
X0104175Y0044650D01*
X0104125Y0044720D01*
X0104105Y0044810D01*
D67*
X0103805Y0040140D02*
X0104745Y0040140D01*
X0105205Y0039670D01*
X0105205Y0039200D01*
X0104745Y0038740D01*
X0103805Y0038740D01*
X0103345Y0039200D01*
X0103345Y0039670D01*
X0103805Y0040140D01*
X0103805Y0038740D02*
X0103345Y0038270D01*
X0103345Y0037800D01*
X0103805Y0037330D01*
X0104745Y0037330D01*
X0105205Y0037800D01*
X0105205Y0038270D01*
X0104745Y0038740D01*
X0106105Y0039670D02*
X0106565Y0040140D01*
X0107505Y0040140D01*
X0107975Y0039670D01*
X0107975Y0039200D01*
X0106105Y0037330D01*
X0107975Y0037330D01*
X0108865Y0037800D02*
X0109335Y0037330D01*
X0110265Y0037330D01*
X0110735Y0037800D01*
X0110735Y0038270D01*
X0110265Y0038740D01*
X0108865Y0038740D01*
X0108865Y0037800D01*
X0108865Y0038740D02*
X0109795Y0039670D01*
X0110735Y0040140D01*
X0111625Y0038740D02*
X0113025Y0038740D01*
X0113495Y0038270D01*
X0113495Y0037800D01*
X0113025Y0037330D01*
X0112095Y0037330D01*
X0111625Y0037800D01*
X0111625Y0038740D01*
X0112565Y0039670D01*
X0113495Y0040140D01*
X0114385Y0038740D02*
X0116255Y0038740D01*
X0117155Y0039670D02*
X0117615Y0040140D01*
X0118555Y0040140D01*
X0119025Y0039670D01*
X0117155Y0037800D01*
X0117615Y0037330D01*
X0118555Y0037330D01*
X0119025Y0037800D01*
X0119025Y0039670D01*
X0119915Y0039200D02*
X0120845Y0040140D01*
X0120845Y0037330D01*
X0119915Y0037330D02*
X0121785Y0037330D01*
X0117155Y0037800D02*
X0117155Y0039670D01*
X0102445Y0039670D02*
X0102445Y0038740D01*
X0101975Y0038270D01*
X0100575Y0038270D01*
X0100575Y0037330D02*
X0100575Y0040140D01*
X0101975Y0040140D01*
X0102445Y0039670D01*
X0099685Y0039670D02*
X0099215Y0040140D01*
X0098285Y0040140D01*
X0097815Y0039670D01*
X0097815Y0039200D01*
X0098285Y0038740D01*
X0099215Y0038740D01*
X0099685Y0038270D01*
X0099685Y0037800D01*
X0099215Y0037330D01*
X0098285Y0037330D01*
X0097815Y0037800D01*
X0096925Y0037330D02*
X0095055Y0037330D01*
X0095055Y0040140D01*
X0096925Y0040140D01*
X0095985Y0038740D02*
X0095055Y0038740D01*
D67*
X0074325Y0015980D02*
X0076825Y0013480D01*
X0081825Y0013480D01*
X0084325Y0015980D01*
X0086825Y0013480D01*
X0091825Y0013480D01*
X0094325Y0015980D01*
X0094325Y0020980D01*
X0091825Y0023480D01*
X0086825Y0023480D01*
X0084325Y0020980D01*
X0084325Y0015980D01*
X0084325Y0020980D02*
X0081825Y0023480D01*
X0076825Y0023480D01*
X0074325Y0020980D01*
X0074325Y0015980D01*
X0094325Y0015980D02*
X0096825Y0013480D01*
X0101825Y0013480D01*
X0104325Y0015980D01*
X0106825Y0013480D01*
X0111825Y0013480D01*
X0114325Y0015980D01*
X0114325Y0020980D01*
X0111825Y0023480D01*
X0106825Y0023480D01*
X0104325Y0020980D01*
X0104325Y0015980D01*
X0104325Y0020980D02*
X0101825Y0023480D01*
X0096825Y0023480D01*
X0094325Y0020980D01*
X0118135Y0058420D02*
X0118135Y0063580D01*
X0122305Y0063580D01*
X0122615Y0058380D02*
X0125995Y0058380D01*
X0126545Y0063580D02*
X0130515Y0063580D01*
X0130515Y0058420D01*
X0131825Y0023480D02*
X0126825Y0023480D01*
X0124325Y0020980D01*
X0124325Y0015980D01*
X0126825Y0013480D01*
X0131825Y0013480D01*
X0134325Y0015980D01*
X0134325Y0020980D01*
X0131825Y0023480D01*
X0074325Y0166335D02*
G75*
%LPD*%
D67*
X0081625Y0244205D02*
X0097025Y0244205D01*
X0097025Y0278305D01*
X0081625Y0278305D01*
X0081625Y0244205D01*
X0083415Y0275755D02*
X0083435Y0275985D01*
X0083495Y0276215D01*
X0083585Y0276425D01*
X0083715Y0276625D01*
X0083875Y0276795D01*
X0084055Y0276935D01*
X0084255Y0277045D01*
X0084475Y0277125D01*
X0084705Y0277165D01*
X0084945Y0277165D01*
X0085175Y0277125D01*
X0085395Y0277045D01*
X0085595Y0276935D01*
X0085775Y0276795D01*
X0085935Y0276625D01*
X0086065Y0276425D01*
X0086155Y0276215D01*
X0086215Y0275985D01*
X0086235Y0275755D01*
X0086215Y0275525D01*
X0086155Y0275295D01*
X0086065Y0275085D01*
X0085935Y0274885D01*
X0085775Y0274715D01*
X0085595Y0274575D01*
X0085395Y0274465D01*
X0085175Y0274385D01*
X0084945Y0274345D01*
X0084705Y0274345D01*
X0084475Y0274385D01*
X0084255Y0274465D01*
X0084055Y0274575D01*
X0083875Y0274715D01*
X0083715Y0274885D01*
X0083585Y0275085D01*
X0083495Y0275295D01*
X0083435Y0275525D01*
X0083415Y0275755D01*
X0106425Y0267755D02*
X0106425Y0254755D01*
X0132225Y0254755D01*
X0132225Y0267755D01*
X0106425Y0267755D01*
D67*
X0117915Y0299505D02*
X0117915Y0319545D01*
X0117915Y0319585D02*
X0119875Y0319545D02*
X0119875Y0299505D01*
X0117915Y0299505D01*
X0092125Y0299505D01*
X0092125Y0319545D01*
X0092125Y0319585D02*
X0121525Y0303535D02*
X0121545Y0304035D01*
X0121605Y0304525D01*
X0121705Y0305015D01*
X0121835Y0305495D01*
X0122005Y0305965D01*
X0122215Y0306415D01*
X0122465Y0306855D01*
X0122735Y0307265D01*
X0123045Y0307655D01*
X0123385Y0308025D01*
X0123755Y0308365D01*
X0124145Y0308675D01*
X0124555Y0308945D01*
X0124995Y0309195D01*
X0125445Y0309405D01*
X0125915Y0309575D01*
X0126395Y0309705D01*
X0126885Y0309805D01*
X0127375Y0309865D01*
X0127875Y0309885D01*
X0128375Y0309865D01*
X0128865Y0309805D01*
X0129355Y0309705D01*
X0129835Y0309575D01*
X0130305Y0309405D01*
X0130755Y0309195D01*
X0131195Y0308945D01*
X0131605Y0308675D01*
X0131995Y0308365D01*
X0132365Y0308025D01*
X0132705Y0307655D01*
X0133015Y0307265D01*
X0133285Y0306855D01*
X0133535Y0306415D01*
X0133745Y0305965D01*
X0133915Y0305495D01*
X0134045Y0305015D01*
X0134145Y0304525D01*
X0134205Y0304035D01*
X0134225Y0303535D01*
X0134205Y0303035D01*
X0134145Y0302545D01*
X0134045Y0302055D01*
X0133915Y0301575D01*
X0133745Y0301105D01*
X0133535Y0300655D01*
X0133285Y0300215D01*
X0133015Y0299805D01*
X0132705Y0299415D01*
X0132365Y0299045D01*
X0131995Y0298705D01*
X0131605Y0298395D01*
X0131195Y0298125D01*
X0130755Y0297875D01*
X0130305Y0297665D01*
X0129835Y0297495D01*
X0129355Y0297365D01*
X0128865Y0297265D01*
X0128375Y0297205D01*
X0127875Y0297185D01*
X0127375Y0297205D01*
X0126885Y0297265D01*
X0126395Y0297365D01*
X0125915Y0297495D01*
X0125445Y0297665D01*
X0124995Y0297875D01*
X0124555Y0298125D01*
X0124145Y0298395D01*
X0123755Y0298705D01*
X0123385Y0299045D01*
X0123045Y0299415D01*
X0122735Y0299805D01*
X0122465Y0300215D01*
X0122215Y0300655D01*
X0122005Y0301105D01*
X0121835Y0301575D01*
X0121705Y0302055D01*
X0121605Y0302545D01*
X0121545Y0303035D01*
X0121525Y0303535D01*
X0092125Y0299505D02*
X0089955Y0299505D01*
X0089955Y0319545D01*
X0089955Y0319585D02*
X0075855Y0303535D02*
X0075875Y0304035D01*
X0075935Y0304525D01*
X0076035Y0305015D01*
X0076165Y0305495D01*
X0076335Y0305965D01*
X0076545Y0306415D01*
X0076795Y0306855D01*
X0077065Y0307265D01*
X0077375Y0307655D01*
X0077715Y0308025D01*
X0078085Y0308365D01*
X0078475Y0308675D01*
X0078885Y0308945D01*
X0079325Y0309195D01*
X0079775Y0309405D01*
X0080245Y0309575D01*
X0080725Y0309705D01*
X0081215Y0309805D01*
X0081705Y0309865D01*
X0082205Y0309885D01*
X0082705Y0309865D01*
X0083195Y0309805D01*
X0083685Y0309705D01*
X0084165Y0309575D01*
X0084635Y0309405D01*
X0085085Y0309195D01*
X0085525Y0308945D01*
X0085935Y0308675D01*
X0086325Y0308365D01*
X0086695Y0308025D01*
X0087035Y0307655D01*
X0087345Y0307265D01*
X0087615Y0306855D01*
X0087865Y0306415D01*
X0088075Y0305965D01*
X0088245Y0305495D01*
X0088375Y0305015D01*
X0088475Y0304525D01*
X0088535Y0304035D01*
X0088555Y0303535D01*
X0088535Y0303035D01*
X0088475Y0302545D01*
X0088375Y0302055D01*
X0088245Y0301575D01*
X0088075Y0301105D01*
X0087865Y0300655D01*
X0087615Y0300215D01*
X0087345Y0299805D01*
X0087035Y0299415D01*
X0086695Y0299045D01*
X0086325Y0298705D01*
X0085935Y0298395D01*
X0085525Y0298125D01*
X0085085Y0297875D01*
X0084635Y0297665D01*
X0084165Y0297495D01*
X0083685Y0297365D01*
X0083195Y0297265D01*
X0082705Y0297205D01*
X0082205Y0297185D01*
X0081705Y0297205D01*
X0081215Y0297265D01*
X0080725Y0297365D01*
X0080245Y0297495D01*
X0079775Y0297665D01*
X0079325Y0297875D01*
X0078885Y0298125D01*
X0078475Y0298395D01*
X0078085Y0298705D01*
X0077715Y0299045D01*
X0077375Y0299415D01*
X0077065Y0299805D01*
X0076795Y0300215D01*
X0076545Y0300655D01*
X0076335Y0301105D01*
X0076165Y0301575D01*
X0076035Y0302055D01*
X0075935Y0302545D01*
X0075875Y0303035D01*
X0075855Y0303535D01*
X0076325Y0205445D02*
X0084325Y0205445D01*
X0084325Y0195445D01*
X0094325Y0195445D01*
X0094325Y0205445D01*
X0132325Y0205445D01*
X0132675Y0205275D02*
X0132675Y0185505D01*
X0076375Y0185505D01*
X0076375Y0205275D01*
X0084325Y0205445D02*
X0094325Y0205445D01*
X0101825Y0203555D02*
X0102025Y0203805D01*
X0102265Y0204045D01*
X0102515Y0204255D01*
X0102795Y0204425D01*
X0103095Y0204575D01*
X0103405Y0204675D01*
X0103735Y0204755D01*
X0104055Y0204795D01*
X0104395Y0204795D01*
X0104715Y0204755D01*
X0105045Y0204675D01*
X0105355Y0204575D01*
X0105655Y0204425D01*
X0105935Y0204255D01*
X0106185Y0204045D01*
X0106425Y0203805D01*
X0106625Y0203555D01*
X0105825Y0202845D02*
X0105655Y0203055D01*
X0105465Y0203235D01*
X0105245Y0203385D01*
X0105005Y0203515D01*
X0104755Y0203605D01*
X0104495Y0203655D01*
X0104225Y0203675D01*
X0103955Y0203655D01*
X0103695Y0203605D01*
X0103445Y0203515D01*
X0103205Y0203385D01*
X0102985Y0203235D01*
X0102795Y0203055D01*
X0102625Y0202845D01*
X0103425Y0202145D02*
X0103545Y0202285D01*
X0103685Y0202395D01*
X0103835Y0202485D01*
X0104005Y0202545D01*
X0104185Y0202585D01*
X0104365Y0202585D01*
X0104545Y0202545D01*
X0104715Y0202485D01*
X0104865Y0202395D01*
X0105005Y0202285D01*
X0105125Y0202145D01*
X0104105Y0201145D02*
X0104125Y0201235D01*
X0104175Y0201305D01*
X0104255Y0201355D01*
X0104345Y0201365D01*
X0104435Y0201335D01*
X0104505Y0201275D01*
X0104545Y0201195D01*
X0104545Y0201095D01*
X0104505Y0201015D01*
X0104435Y0200955D01*
X0104345Y0200925D01*
X0104255Y0200935D01*
X0104175Y0200985D01*
X0104125Y0201055D01*
X0104105Y0201145D01*
D67*
X0103805Y0196475D02*
X0104745Y0196475D01*
X0105205Y0196005D01*
X0105205Y0195535D01*
X0104745Y0195075D01*
X0103805Y0195075D01*
X0103345Y0195535D01*
X0103345Y0196005D01*
X0103805Y0196475D01*
X0103805Y0195075D02*
X0103345Y0194605D01*
X0103345Y0194135D01*
X0103805Y0193665D01*
X0104745Y0193665D01*
X0105205Y0194135D01*
X0105205Y0194605D01*
X0104745Y0195075D01*
X0106105Y0196005D02*
X0106565Y0196475D01*
X0107505Y0196475D01*
X0107975Y0196005D01*
X0107975Y0195535D01*
X0106105Y0193665D01*
X0107975Y0193665D01*
X0108865Y0194135D02*
X0109335Y0193665D01*
X0110265Y0193665D01*
X0110735Y0194135D01*
X0110735Y0194605D01*
X0110265Y0195075D01*
X0108865Y0195075D01*
X0108865Y0194135D01*
X0108865Y0195075D02*
X0109795Y0196005D01*
X0110735Y0196475D01*
X0111625Y0195075D02*
X0113025Y0195075D01*
X0113495Y0194605D01*
X0113495Y0194135D01*
X0113025Y0193665D01*
X0112095Y0193665D01*
X0111625Y0194135D01*
X0111625Y0195075D01*
X0112565Y0196005D01*
X0113495Y0196475D01*
X0114385Y0195075D02*
X0116255Y0195075D01*
X0117155Y0196005D02*
X0117615Y0196475D01*
X0118555Y0196475D01*
X0119025Y0196005D01*
X0117155Y0194135D01*
X0117615Y0193665D01*
X0118555Y0193665D01*
X0119025Y0194135D01*
X0119025Y0196005D01*
X0119915Y0195535D02*
X0120845Y0196475D01*
X0120845Y0193665D01*
X0119915Y0193665D02*
X0121785Y0193665D01*
X0117155Y0194135D02*
X0117155Y0196005D01*
X0102445Y0196005D02*
X0102445Y0195075D01*
X0101975Y0194605D01*
X0100575Y0194605D01*
X0100575Y0193665D02*
X0100575Y0196475D01*
X0101975Y0196475D01*
X0102445Y0196005D01*
X0099685Y0196005D02*
X0099215Y0196475D01*
X0098285Y0196475D01*
X0097815Y0196005D01*
X0097815Y0195535D01*
X0098285Y0195075D01*
X0099215Y0195075D01*
X0099685Y0194605D01*
X0099685Y0194135D01*
X0099215Y0193665D01*
X0098285Y0193665D01*
X0097815Y0194135D01*
X0096925Y0193665D02*
X0095055Y0193665D01*
X0095055Y0196475D01*
X0096925Y0196475D01*
X0095985Y0195075D02*
X0095055Y0195075D01*
D67*
X0074325Y0172315D02*
X0076825Y0169815D01*
X0081825Y0169815D01*
X0084325Y0172315D01*
X0086825Y0169815D01*
X0091825Y0169815D01*
X0094325Y0172315D01*
X0094325Y0177315D01*
X0091825Y0179815D01*
X0086825Y0179815D01*
X0084325Y0177315D01*
X0084325Y0172315D01*
X0084325Y0177315D02*
X0081825Y0179815D01*
X0076825Y0179815D01*
X0074325Y0177315D01*
X0074325Y0172315D01*
X0094325Y0172315D02*
X0096825Y0169815D01*
X0101825Y0169815D01*
X0104325Y0172315D01*
X0106825Y0169815D01*
X0111825Y0169815D01*
X0114325Y0172315D01*
X0114325Y0177315D01*
X0111825Y0179815D01*
X0106825Y0179815D01*
X0104325Y0177315D01*
X0104325Y0172315D01*
X0104325Y0177315D02*
X0101825Y0179815D01*
X0096825Y0179815D01*
X0094325Y0177315D01*
X0118135Y0214755D02*
X0118135Y0219915D01*
X0122305Y0219915D01*
X0122615Y0214715D02*
X0125995Y0214715D01*
X0126545Y0219915D02*
X0130515Y0219915D01*
X0130515Y0214755D01*
X0131825Y0179815D02*
X0126825Y0179815D01*
X0124325Y0177315D01*
X0124325Y0172315D01*
X0126825Y0169815D01*
X0131825Y0169815D01*
X0134325Y0172315D01*
X0134325Y0177315D01*
X0131825Y0179815D01*
X0138650Y0010000D02*
G75*
%LPD*%
D67*
X0145950Y0087870D02*
X0161350Y0087870D01*
X0161350Y0121970D01*
X0145950Y0121970D01*
X0145950Y0087870D01*
X0147740Y0119420D02*
X0147760Y0119650D01*
X0147820Y0119880D01*
X0147910Y0120090D01*
X0148040Y0120290D01*
X0148200Y0120460D01*
X0148380Y0120600D01*
X0148580Y0120710D01*
X0148800Y0120790D01*
X0149030Y0120830D01*
X0149270Y0120830D01*
X0149500Y0120790D01*
X0149720Y0120710D01*
X0149920Y0120600D01*
X0150100Y0120460D01*
X0150260Y0120290D01*
X0150390Y0120090D01*
X0150480Y0119880D01*
X0150540Y0119650D01*
X0150560Y0119420D01*
X0150540Y0119190D01*
X0150480Y0118960D01*
X0150390Y0118750D01*
X0150260Y0118550D01*
X0150100Y0118380D01*
X0149920Y0118240D01*
X0149720Y0118130D01*
X0149500Y0118050D01*
X0149270Y0118010D01*
X0149030Y0118010D01*
X0148800Y0118050D01*
X0148580Y0118130D01*
X0148380Y0118240D01*
X0148200Y0118380D01*
X0148040Y0118550D01*
X0147910Y0118750D01*
X0147820Y0118960D01*
X0147760Y0119190D01*
X0147740Y0119420D01*
X0170750Y0111420D02*
X0170750Y0098420D01*
X0196550Y0098420D01*
X0196550Y0111420D01*
X0170750Y0111420D01*
D67*
X0182240Y0143170D02*
X0182240Y0163210D01*
X0182240Y0163250D02*
X0184200Y0163210D02*
X0184200Y0143170D01*
X0182240Y0143170D01*
X0156450Y0143170D01*
X0156450Y0163210D01*
X0156450Y0163250D02*
X0185850Y0147200D02*
X0185870Y0147700D01*
X0185930Y0148190D01*
X0186030Y0148680D01*
X0186160Y0149160D01*
X0186330Y0149630D01*
X0186540Y0150080D01*
X0186790Y0150520D01*
X0187060Y0150930D01*
X0187370Y0151320D01*
X0187710Y0151690D01*
X0188080Y0152030D01*
X0188470Y0152340D01*
X0188880Y0152610D01*
X0189320Y0152860D01*
X0189770Y0153070D01*
X0190240Y0153240D01*
X0190720Y0153370D01*
X0191210Y0153470D01*
X0191700Y0153530D01*
X0192200Y0153550D01*
X0192700Y0153530D01*
X0193190Y0153470D01*
X0193680Y0153370D01*
X0194160Y0153240D01*
X0194630Y0153070D01*
X0195080Y0152860D01*
X0195520Y0152610D01*
X0195930Y0152340D01*
X0196320Y0152030D01*
X0196690Y0151690D01*
X0197030Y0151320D01*
X0197340Y0150930D01*
X0197610Y0150520D01*
X0197860Y0150080D01*
X0198070Y0149630D01*
X0198240Y0149160D01*
X0198370Y0148680D01*
X0198470Y0148190D01*
X0198530Y0147700D01*
X0198550Y0147200D01*
X0198530Y0146700D01*
X0198470Y0146210D01*
X0198370Y0145720D01*
X0198240Y0145240D01*
X0198070Y0144770D01*
X0197860Y0144320D01*
X0197610Y0143880D01*
X0197340Y0143470D01*
X0197030Y0143080D01*
X0196690Y0142710D01*
X0196320Y0142370D01*
X0195930Y0142060D01*
X0195520Y0141790D01*
X0195080Y0141540D01*
X0194630Y0141330D01*
X0194160Y0141160D01*
X0193680Y0141030D01*
X0193190Y0140930D01*
X0192700Y0140870D01*
X0192200Y0140850D01*
X0191700Y0140870D01*
X0191210Y0140930D01*
X0190720Y0141030D01*
X0190240Y0141160D01*
X0189770Y0141330D01*
X0189320Y0141540D01*
X0188880Y0141790D01*
X0188470Y0142060D01*
X0188080Y0142370D01*
X0187710Y0142710D01*
X0187370Y0143080D01*
X0187060Y0143470D01*
X0186790Y0143880D01*
X0186540Y0144320D01*
X0186330Y0144770D01*
X0186160Y0145240D01*
X0186030Y0145720D01*
X0185930Y0146210D01*
X0185870Y0146700D01*
X0185850Y0147200D01*
X0156450Y0143170D02*
X0154280Y0143170D01*
X0154280Y0163210D01*
X0154280Y0163250D02*
X0140180Y0147200D02*
X0140200Y0147700D01*
X0140260Y0148190D01*
X0140360Y0148680D01*
X0140490Y0149160D01*
X0140660Y0149630D01*
X0140870Y0150080D01*
X0141120Y0150520D01*
X0141390Y0150930D01*
X0141700Y0151320D01*
X0142040Y0151690D01*
X0142410Y0152030D01*
X0142800Y0152340D01*
X0143210Y0152610D01*
X0143650Y0152860D01*
X0144100Y0153070D01*
X0144570Y0153240D01*
X0145050Y0153370D01*
X0145540Y0153470D01*
X0146030Y0153530D01*
X0146530Y0153550D01*
X0147030Y0153530D01*
X0147520Y0153470D01*
X0148010Y0153370D01*
X0148490Y0153240D01*
X0148960Y0153070D01*
X0149410Y0152860D01*
X0149850Y0152610D01*
X0150260Y0152340D01*
X0150650Y0152030D01*
X0151020Y0151690D01*
X0151360Y0151320D01*
X0151670Y0150930D01*
X0151940Y0150520D01*
X0152190Y0150080D01*
X0152400Y0149630D01*
X0152570Y0149160D01*
X0152700Y0148680D01*
X0152800Y0148190D01*
X0152860Y0147700D01*
X0152880Y0147200D01*
X0152860Y0146700D01*
X0152800Y0146210D01*
X0152700Y0145720D01*
X0152570Y0145240D01*
X0152400Y0144770D01*
X0152190Y0144320D01*
X0151940Y0143880D01*
X0151670Y0143470D01*
X0151360Y0143080D01*
X0151020Y0142710D01*
X0150650Y0142370D01*
X0150260Y0142060D01*
X0149850Y0141790D01*
X0149410Y0141540D01*
X0148960Y0141330D01*
X0148490Y0141160D01*
X0148010Y0141030D01*
X0147520Y0140930D01*
X0147030Y0140870D01*
X0146530Y0140850D01*
X0146030Y0140870D01*
X0145540Y0140930D01*
X0145050Y0141030D01*
X0144570Y0141160D01*
X0144100Y0141330D01*
X0143650Y0141540D01*
X0143210Y0141790D01*
X0142800Y0142060D01*
X0142410Y0142370D01*
X0142040Y0142710D01*
X0141700Y0143080D01*
X0141390Y0143470D01*
X0141120Y0143880D01*
X0140870Y0144320D01*
X0140660Y0144770D01*
X0140490Y0145240D01*
X0140360Y0145720D01*
X0140260Y0146210D01*
X0140200Y0146700D01*
X0140180Y0147200D01*
X0140650Y0049110D02*
X0148650Y0049110D01*
X0148650Y0039110D01*
X0158650Y0039110D01*
X0158650Y0049110D01*
X0196650Y0049110D01*
X0197000Y0048940D02*
X0197000Y0029170D01*
X0140700Y0029170D01*
X0140700Y0048940D01*
X0148650Y0049110D02*
X0158650Y0049110D01*
X0166150Y0047220D02*
X0166350Y0047470D01*
X0166590Y0047710D01*
X0166840Y0047920D01*
X0167120Y0048090D01*
X0167420Y0048240D01*
X0167730Y0048340D01*
X0168060Y0048420D01*
X0168380Y0048460D01*
X0168720Y0048460D01*
X0169040Y0048420D01*
X0169370Y0048340D01*
X0169680Y0048240D01*
X0169980Y0048090D01*
X0170260Y0047920D01*
X0170510Y0047710D01*
X0170750Y0047470D01*
X0170950Y0047220D01*
X0170150Y0046510D02*
X0169980Y0046720D01*
X0169790Y0046900D01*
X0169570Y0047050D01*
X0169330Y0047180D01*
X0169080Y0047270D01*
X0168820Y0047320D01*
X0168550Y0047340D01*
X0168280Y0047320D01*
X0168020Y0047270D01*
X0167770Y0047180D01*
X0167530Y0047050D01*
X0167310Y0046900D01*
X0167120Y0046720D01*
X0166950Y0046510D01*
X0167750Y0045810D02*
X0167870Y0045950D01*
X0168010Y0046060D01*
X0168160Y0046150D01*
X0168330Y0046210D01*
X0168510Y0046250D01*
X0168690Y0046250D01*
X0168870Y0046210D01*
X0169040Y0046150D01*
X0169190Y0046060D01*
X0169330Y0045950D01*
X0169450Y0045810D01*
X0168430Y0044810D02*
X0168450Y0044900D01*
X0168500Y0044970D01*
X0168580Y0045020D01*
X0168670Y0045030D01*
X0168760Y0045000D01*
X0168830Y0044940D01*
X0168870Y0044860D01*
X0168870Y0044760D01*
X0168830Y0044680D01*
X0168760Y0044620D01*
X0168670Y0044590D01*
X0168580Y0044600D01*
X0168500Y0044650D01*
X0168450Y0044720D01*
X0168430Y0044810D01*
D67*
X0168130Y0040140D02*
X0169070Y0040140D01*
X0169530Y0039670D01*
X0169530Y0039200D01*
X0169070Y0038740D01*
X0168130Y0038740D01*
X0167670Y0039200D01*
X0167670Y0039670D01*
X0168130Y0040140D01*
X0168130Y0038740D02*
X0167670Y0038270D01*
X0167670Y0037800D01*
X0168130Y0037330D01*
X0169070Y0037330D01*
X0169530Y0037800D01*
X0169530Y0038270D01*
X0169070Y0038740D01*
X0170430Y0039670D02*
X0170890Y0040140D01*
X0171830Y0040140D01*
X0172300Y0039670D01*
X0172300Y0039200D01*
X0170430Y0037330D01*
X0172300Y0037330D01*
X0173190Y0037800D02*
X0173660Y0037330D01*
X0174590Y0037330D01*
X0175060Y0037800D01*
X0175060Y0038270D01*
X0174590Y0038740D01*
X0173190Y0038740D01*
X0173190Y0037800D01*
X0173190Y0038740D02*
X0174120Y0039670D01*
X0175060Y0040140D01*
X0175950Y0038740D02*
X0177350Y0038740D01*
X0177820Y0038270D01*
X0177820Y0037800D01*
X0177350Y0037330D01*
X0176420Y0037330D01*
X0175950Y0037800D01*
X0175950Y0038740D01*
X0176890Y0039670D01*
X0177820Y0040140D01*
X0178710Y0038740D02*
X0180580Y0038740D01*
X0181480Y0039670D02*
X0181940Y0040140D01*
X0182880Y0040140D01*
X0183350Y0039670D01*
X0181480Y0037800D01*
X0181940Y0037330D01*
X0182880Y0037330D01*
X0183350Y0037800D01*
X0183350Y0039670D01*
X0184240Y0039200D02*
X0185170Y0040140D01*
X0185170Y0037330D01*
X0184240Y0037330D02*
X0186110Y0037330D01*
X0181480Y0037800D02*
X0181480Y0039670D01*
X0166770Y0039670D02*
X0166770Y0038740D01*
X0166300Y0038270D01*
X0164900Y0038270D01*
X0164900Y0037330D02*
X0164900Y0040140D01*
X0166300Y0040140D01*
X0166770Y0039670D01*
X0164010Y0039670D02*
X0163540Y0040140D01*
X0162610Y0040140D01*
X0162140Y0039670D01*
X0162140Y0039200D01*
X0162610Y0038740D01*
X0163540Y0038740D01*
X0164010Y0038270D01*
X0164010Y0037800D01*
X0163540Y0037330D01*
X0162610Y0037330D01*
X0162140Y0037800D01*
X0161250Y0037330D02*
X0159380Y0037330D01*
X0159380Y0040140D01*
X0161250Y0040140D01*
X0160310Y0038740D02*
X0159380Y0038740D01*
D67*
X0138650Y0015980D02*
X0141150Y0013480D01*
X0146150Y0013480D01*
X0148650Y0015980D01*
X0151150Y0013480D01*
X0156150Y0013480D01*
X0158650Y0015980D01*
X0158650Y0020980D01*
X0156150Y0023480D01*
X0151150Y0023480D01*
X0148650Y0020980D01*
X0148650Y0015980D01*
X0148650Y0020980D02*
X0146150Y0023480D01*
X0141150Y0023480D01*
X0138650Y0020980D01*
X0138650Y0015980D01*
X0158650Y0015980D02*
X0161150Y0013480D01*
X0166150Y0013480D01*
X0168650Y0015980D01*
X0171150Y0013480D01*
X0176150Y0013480D01*
X0178650Y0015980D01*
X0178650Y0020980D01*
X0176150Y0023480D01*
X0171150Y0023480D01*
X0168650Y0020980D01*
X0168650Y0015980D01*
X0168650Y0020980D02*
X0166150Y0023480D01*
X0161150Y0023480D01*
X0158650Y0020980D01*
X0182460Y0058420D02*
X0182460Y0063580D01*
X0186630Y0063580D01*
X0186940Y0058380D02*
X0190320Y0058380D01*
X0190870Y0063580D02*
X0194840Y0063580D01*
X0194840Y0058420D01*
X0196150Y0023480D02*
X0191150Y0023480D01*
X0188650Y0020980D01*
X0188650Y0015980D01*
X0191150Y0013480D01*
X0196150Y0013480D01*
X0198650Y0015980D01*
X0198650Y0020980D01*
X0196150Y0023480D01*
X0138650Y0166335D02*
G75*
%LPD*%
D67*
X0145950Y0244205D02*
X0161350Y0244205D01*
X0161350Y0278305D01*
X0145950Y0278305D01*
X0145950Y0244205D01*
X0147740Y0275755D02*
X0147760Y0275985D01*
X0147820Y0276215D01*
X0147910Y0276425D01*
X0148040Y0276625D01*
X0148200Y0276795D01*
X0148380Y0276935D01*
X0148580Y0277045D01*
X0148800Y0277125D01*
X0149030Y0277165D01*
X0149270Y0277165D01*
X0149500Y0277125D01*
X0149720Y0277045D01*
X0149920Y0276935D01*
X0150100Y0276795D01*
X0150260Y0276625D01*
X0150390Y0276425D01*
X0150480Y0276215D01*
X0150540Y0275985D01*
X0150560Y0275755D01*
X0150540Y0275525D01*
X0150480Y0275295D01*
X0150390Y0275085D01*
X0150260Y0274885D01*
X0150100Y0274715D01*
X0149920Y0274575D01*
X0149720Y0274465D01*
X0149500Y0274385D01*
X0149270Y0274345D01*
X0149030Y0274345D01*
X0148800Y0274385D01*
X0148580Y0274465D01*
X0148380Y0274575D01*
X0148200Y0274715D01*
X0148040Y0274885D01*
X0147910Y0275085D01*
X0147820Y0275295D01*
X0147760Y0275525D01*
X0147740Y0275755D01*
X0170750Y0267755D02*
X0170750Y0254755D01*
X0196550Y0254755D01*
X0196550Y0267755D01*
X0170750Y0267755D01*
D67*
X0182240Y0299505D02*
X0182240Y0319545D01*
X0182240Y0319585D02*
X0184200Y0319545D02*
X0184200Y0299505D01*
X0182240Y0299505D01*
X0156450Y0299505D01*
X0156450Y0319545D01*
X0156450Y0319585D02*
X0185850Y0303535D02*
X0185870Y0304035D01*
X0185930Y0304525D01*
X0186030Y0305015D01*
X0186160Y0305495D01*
X0186330Y0305965D01*
X0186540Y0306415D01*
X0186790Y0306855D01*
X0187060Y0307265D01*
X0187370Y0307655D01*
X0187710Y0308025D01*
X0188080Y0308365D01*
X0188470Y0308675D01*
X0188880Y0308945D01*
X0189320Y0309195D01*
X0189770Y0309405D01*
X0190240Y0309575D01*
X0190720Y0309705D01*
X0191210Y0309805D01*
X0191700Y0309865D01*
X0192200Y0309885D01*
X0192700Y0309865D01*
X0193190Y0309805D01*
X0193680Y0309705D01*
X0194160Y0309575D01*
X0194630Y0309405D01*
X0195080Y0309195D01*
X0195520Y0308945D01*
X0195930Y0308675D01*
X0196320Y0308365D01*
X0196690Y0308025D01*
X0197030Y0307655D01*
X0197340Y0307265D01*
X0197610Y0306855D01*
X0197860Y0306415D01*
X0198070Y0305965D01*
X0198240Y0305495D01*
X0198370Y0305015D01*
X0198470Y0304525D01*
X0198530Y0304035D01*
X0198550Y0303535D01*
X0198530Y0303035D01*
X0198470Y0302545D01*
X0198370Y0302055D01*
X0198240Y0301575D01*
X0198070Y0301105D01*
X0197860Y0300655D01*
X0197610Y0300215D01*
X0197340Y0299805D01*
X0197030Y0299415D01*
X0196690Y0299045D01*
X0196320Y0298705D01*
X0195930Y0298395D01*
X0195520Y0298125D01*
X0195080Y0297875D01*
X0194630Y0297665D01*
X0194160Y0297495D01*
X0193680Y0297365D01*
X0193190Y0297265D01*
X0192700Y0297205D01*
X0192200Y0297185D01*
X0191700Y0297205D01*
X0191210Y0297265D01*
X0190720Y0297365D01*
X0190240Y0297495D01*
X0189770Y0297665D01*
X0189320Y0297875D01*
X0188880Y0298125D01*
X0188470Y0298395D01*
X0188080Y0298705D01*
X0187710Y0299045D01*
X0187370Y0299415D01*
X0187060Y0299805D01*
X0186790Y0300215D01*
X0186540Y0300655D01*
X0186330Y0301105D01*
X0186160Y0301575D01*
X0186030Y0302055D01*
X0185930Y0302545D01*
X0185870Y0303035D01*
X0185850Y0303535D01*
X0156450Y0299505D02*
X0154280Y0299505D01*
X0154280Y0319545D01*
X0154280Y0319585D02*
X0140180Y0303535D02*
X0140200Y0304035D01*
X0140260Y0304525D01*
X0140360Y0305015D01*
X0140490Y0305495D01*
X0140660Y0305965D01*
X0140870Y0306415D01*
X0141120Y0306855D01*
X0141390Y0307265D01*
X0141700Y0307655D01*
X0142040Y0308025D01*
X0142410Y0308365D01*
X0142800Y0308675D01*
X0143210Y0308945D01*
X0143650Y0309195D01*
X0144100Y0309405D01*
X0144570Y0309575D01*
X0145050Y0309705D01*
X0145540Y0309805D01*
X0146030Y0309865D01*
X0146530Y0309885D01*
X0147030Y0309865D01*
X0147520Y0309805D01*
X0148010Y0309705D01*
X0148490Y0309575D01*
X0148960Y0309405D01*
X0149410Y0309195D01*
X0149850Y0308945D01*
X0150260Y0308675D01*
X0150650Y0308365D01*
X0151020Y0308025D01*
X0151360Y0307655D01*
X0151670Y0307265D01*
X0151940Y0306855D01*
X0152190Y0306415D01*
X0152400Y0305965D01*
X0152570Y0305495D01*
X0152700Y0305015D01*
X0152800Y0304525D01*
X0152860Y0304035D01*
X0152880Y0303535D01*
X0152860Y0303035D01*
X0152800Y0302545D01*
X0152700Y0302055D01*
X0152570Y0301575D01*
X0152400Y0301105D01*
X0152190Y0300655D01*
X0151940Y0300215D01*
X0151670Y0299805D01*
X0151360Y0299415D01*
X0151020Y0299045D01*
X0150650Y0298705D01*
X0150260Y0298395D01*
X0149850Y0298125D01*
X0149410Y0297875D01*
X0148960Y0297665D01*
X0148490Y0297495D01*
X0148010Y0297365D01*
X0147520Y0297265D01*
X0147030Y0297205D01*
X0146530Y0297185D01*
X0146030Y0297205D01*
X0145540Y0297265D01*
X0145050Y0297365D01*
X0144570Y0297495D01*
X0144100Y0297665D01*
X0143650Y0297875D01*
X0143210Y0298125D01*
X0142800Y0298395D01*
X0142410Y0298705D01*
X0142040Y0299045D01*
X0141700Y0299415D01*
X0141390Y0299805D01*
X0141120Y0300215D01*
X0140870Y0300655D01*
X0140660Y0301105D01*
X0140490Y0301575D01*
X0140360Y0302055D01*
X0140260Y0302545D01*
X0140200Y0303035D01*
X0140180Y0303535D01*
X0140650Y0205445D02*
X0148650Y0205445D01*
X0148650Y0195445D01*
X0158650Y0195445D01*
X0158650Y0205445D01*
X0196650Y0205445D01*
X0197000Y0205275D02*
X0197000Y0185505D01*
X0140700Y0185505D01*
X0140700Y0205275D01*
X0148650Y0205445D02*
X0158650Y0205445D01*
X0166150Y0203555D02*
X0166350Y0203805D01*
X0166590Y0204045D01*
X0166840Y0204255D01*
X0167120Y0204425D01*
X0167420Y0204575D01*
X0167730Y0204675D01*
X0168060Y0204755D01*
X0168380Y0204795D01*
X0168720Y0204795D01*
X0169040Y0204755D01*
X0169370Y0204675D01*
X0169680Y0204575D01*
X0169980Y0204425D01*
X0170260Y0204255D01*
X0170510Y0204045D01*
X0170750Y0203805D01*
X0170950Y0203555D01*
X0170150Y0202845D02*
X0169980Y0203055D01*
X0169790Y0203235D01*
X0169570Y0203385D01*
X0169330Y0203515D01*
X0169080Y0203605D01*
X0168820Y0203655D01*
X0168550Y0203675D01*
X0168280Y0203655D01*
X0168020Y0203605D01*
X0167770Y0203515D01*
X0167530Y0203385D01*
X0167310Y0203235D01*
X0167120Y0203055D01*
X0166950Y0202845D01*
X0167750Y0202145D02*
X0167870Y0202285D01*
X0168010Y0202395D01*
X0168160Y0202485D01*
X0168330Y0202545D01*
X0168510Y0202585D01*
X0168690Y0202585D01*
X0168870Y0202545D01*
X0169040Y0202485D01*
X0169190Y0202395D01*
X0169330Y0202285D01*
X0169450Y0202145D01*
X0168430Y0201145D02*
X0168450Y0201235D01*
X0168500Y0201305D01*
X0168580Y0201355D01*
X0168670Y0201365D01*
X0168760Y0201335D01*
X0168830Y0201275D01*
X0168870Y0201195D01*
X0168870Y0201095D01*
X0168830Y0201015D01*
X0168760Y0200955D01*
X0168670Y0200925D01*
X0168580Y0200935D01*
X0168500Y0200985D01*
X0168450Y0201055D01*
X0168430Y0201145D01*
D67*
X0168130Y0196475D02*
X0169070Y0196475D01*
X0169530Y0196005D01*
X0169530Y0195535D01*
X0169070Y0195075D01*
X0168130Y0195075D01*
X0167670Y0195535D01*
X0167670Y0196005D01*
X0168130Y0196475D01*
X0168130Y0195075D02*
X0167670Y0194605D01*
X0167670Y0194135D01*
X0168130Y0193665D01*
X0169070Y0193665D01*
X0169530Y0194135D01*
X0169530Y0194605D01*
X0169070Y0195075D01*
X0170430Y0196005D02*
X0170890Y0196475D01*
X0171830Y0196475D01*
X0172300Y0196005D01*
X0172300Y0195535D01*
X0170430Y0193665D01*
X0172300Y0193665D01*
X0173190Y0194135D02*
X0173660Y0193665D01*
X0174590Y0193665D01*
X0175060Y0194135D01*
X0175060Y0194605D01*
X0174590Y0195075D01*
X0173190Y0195075D01*
X0173190Y0194135D01*
X0173190Y0195075D02*
X0174120Y0196005D01*
X0175060Y0196475D01*
X0175950Y0195075D02*
X0177350Y0195075D01*
X0177820Y0194605D01*
X0177820Y0194135D01*
X0177350Y0193665D01*
X0176420Y0193665D01*
X0175950Y0194135D01*
X0175950Y0195075D01*
X0176890Y0196005D01*
X0177820Y0196475D01*
X0178710Y0195075D02*
X0180580Y0195075D01*
X0181480Y0196005D02*
X0181940Y0196475D01*
X0182880Y0196475D01*
X0183350Y0196005D01*
X0181480Y0194135D01*
X0181940Y0193665D01*
X0182880Y0193665D01*
X0183350Y0194135D01*
X0183350Y0196005D01*
X0184240Y0195535D02*
X0185170Y0196475D01*
X0185170Y0193665D01*
X0184240Y0193665D02*
X0186110Y0193665D01*
X0181480Y0194135D02*
X0181480Y0196005D01*
X0166770Y0196005D02*
X0166770Y0195075D01*
X0166300Y0194605D01*
X0164900Y0194605D01*
X0164900Y0193665D02*
X0164900Y0196475D01*
X0166300Y0196475D01*
X0166770Y0196005D01*
X0164010Y0196005D02*
X0163540Y0196475D01*
X0162610Y0196475D01*
X0162140Y0196005D01*
X0162140Y0195535D01*
X0162610Y0195075D01*
X0163540Y0195075D01*
X0164010Y0194605D01*
X0164010Y0194135D01*
X0163540Y0193665D01*
X0162610Y0193665D01*
X0162140Y0194135D01*
X0161250Y0193665D02*
X0159380Y0193665D01*
X0159380Y0196475D01*
X0161250Y0196475D01*
X0160310Y0195075D02*
X0159380Y0195075D01*
D67*
X0138650Y0172315D02*
X0141150Y0169815D01*
X0146150Y0169815D01*
X0148650Y0172315D01*
X0151150Y0169815D01*
X0156150Y0169815D01*
X0158650Y0172315D01*
X0158650Y0177315D01*
X0156150Y0179815D01*
X0151150Y0179815D01*
X0148650Y0177315D01*
X0148650Y0172315D01*
X0148650Y0177315D02*
X0146150Y0179815D01*
X0141150Y0179815D01*
X0138650Y0177315D01*
X0138650Y0172315D01*
X0158650Y0172315D02*
X0161150Y0169815D01*
X0166150Y0169815D01*
X0168650Y0172315D01*
X0171150Y0169815D01*
X0176150Y0169815D01*
X0178650Y0172315D01*
X0178650Y0177315D01*
X0176150Y0179815D01*
X0171150Y0179815D01*
X0168650Y0177315D01*
X0168650Y0172315D01*
X0168650Y0177315D02*
X0166150Y0179815D01*
X0161150Y0179815D01*
X0158650Y0177315D01*
X0182460Y0214755D02*
X0182460Y0219915D01*
X0186630Y0219915D01*
X0186940Y0214715D02*
X0190320Y0214715D01*
X0190870Y0219915D02*
X0194840Y0219915D01*
X0194840Y0214755D01*
X0196150Y0179815D02*
X0191150Y0179815D01*
X0188650Y0177315D01*
X0188650Y0172315D01*
X0191150Y0169815D01*
X0196150Y0169815D01*
X0198650Y0172315D01*
X0198650Y0177315D01*
X0196150Y0179815D01*
X0202975Y0010000D02*
G75*
%LPD*%
D67*
X0210275Y0087870D02*
X0225675Y0087870D01*
X0225675Y0121970D01*
X0210275Y0121970D01*
X0210275Y0087870D01*
X0212065Y0119420D02*
X0212085Y0119650D01*
X0212145Y0119880D01*
X0212235Y0120090D01*
X0212365Y0120290D01*
X0212525Y0120460D01*
X0212705Y0120600D01*
X0212905Y0120710D01*
X0213125Y0120790D01*
X0213355Y0120830D01*
X0213595Y0120830D01*
X0213825Y0120790D01*
X0214045Y0120710D01*
X0214245Y0120600D01*
X0214425Y0120460D01*
X0214585Y0120290D01*
X0214715Y0120090D01*
X0214805Y0119880D01*
X0214865Y0119650D01*
X0214885Y0119420D01*
X0214865Y0119190D01*
X0214805Y0118960D01*
X0214715Y0118750D01*
X0214585Y0118550D01*
X0214425Y0118380D01*
X0214245Y0118240D01*
X0214045Y0118130D01*
X0213825Y0118050D01*
X0213595Y0118010D01*
X0213355Y0118010D01*
X0213125Y0118050D01*
X0212905Y0118130D01*
X0212705Y0118240D01*
X0212525Y0118380D01*
X0212365Y0118550D01*
X0212235Y0118750D01*
X0212145Y0118960D01*
X0212085Y0119190D01*
X0212065Y0119420D01*
X0235075Y0111420D02*
X0235075Y0098420D01*
X0260875Y0098420D01*
X0260875Y0111420D01*
X0235075Y0111420D01*
D67*
X0246565Y0143170D02*
X0246565Y0163210D01*
X0246565Y0163250D02*
X0248525Y0163210D02*
X0248525Y0143170D01*
X0246565Y0143170D01*
X0220775Y0143170D01*
X0220775Y0163210D01*
X0220775Y0163250D02*
X0250175Y0147200D02*
X0250195Y0147700D01*
X0250255Y0148190D01*
X0250355Y0148680D01*
X0250485Y0149160D01*
X0250655Y0149630D01*
X0250865Y0150080D01*
X0251115Y0150520D01*
X0251385Y0150930D01*
X0251695Y0151320D01*
X0252035Y0151690D01*
X0252405Y0152030D01*
X0252795Y0152340D01*
X0253205Y0152610D01*
X0253645Y0152860D01*
X0254095Y0153070D01*
X0254565Y0153240D01*
X0255045Y0153370D01*
X0255535Y0153470D01*
X0256025Y0153530D01*
X0256525Y0153550D01*
X0257025Y0153530D01*
X0257515Y0153470D01*
X0258005Y0153370D01*
X0258485Y0153240D01*
X0258955Y0153070D01*
X0259405Y0152860D01*
X0259845Y0152610D01*
X0260255Y0152340D01*
X0260645Y0152030D01*
X0261015Y0151690D01*
X0261355Y0151320D01*
X0261665Y0150930D01*
X0261935Y0150520D01*
X0262185Y0150080D01*
X0262395Y0149630D01*
X0262565Y0149160D01*
X0262695Y0148680D01*
X0262795Y0148190D01*
X0262855Y0147700D01*
X0262875Y0147200D01*
X0262855Y0146700D01*
X0262795Y0146210D01*
X0262695Y0145720D01*
X0262565Y0145240D01*
X0262395Y0144770D01*
X0262185Y0144320D01*
X0261935Y0143880D01*
X0261665Y0143470D01*
X0261355Y0143080D01*
X0261015Y0142710D01*
X0260645Y0142370D01*
X0260255Y0142060D01*
X0259845Y0141790D01*
X0259405Y0141540D01*
X0258955Y0141330D01*
X0258485Y0141160D01*
X0258005Y0141030D01*
X0257515Y0140930D01*
X0257025Y0140870D01*
X0256525Y0140850D01*
X0256025Y0140870D01*
X0255535Y0140930D01*
X0255045Y0141030D01*
X0254565Y0141160D01*
X0254095Y0141330D01*
X0253645Y0141540D01*
X0253205Y0141790D01*
X0252795Y0142060D01*
X0252405Y0142370D01*
X0252035Y0142710D01*
X0251695Y0143080D01*
X0251385Y0143470D01*
X0251115Y0143880D01*
X0250865Y0144320D01*
X0250655Y0144770D01*
X0250485Y0145240D01*
X0250355Y0145720D01*
X0250255Y0146210D01*
X0250195Y0146700D01*
X0250175Y0147200D01*
X0220775Y0143170D02*
X0218605Y0143170D01*
X0218605Y0163210D01*
X0218605Y0163250D02*
X0204505Y0147200D02*
X0204525Y0147700D01*
X0204585Y0148190D01*
X0204685Y0148680D01*
X0204815Y0149160D01*
X0204985Y0149630D01*
X0205195Y0150080D01*
X0205445Y0150520D01*
X0205715Y0150930D01*
X0206025Y0151320D01*
X0206365Y0151690D01*
X0206735Y0152030D01*
X0207125Y0152340D01*
X0207535Y0152610D01*
X0207975Y0152860D01*
X0208425Y0153070D01*
X0208895Y0153240D01*
X0209375Y0153370D01*
X0209865Y0153470D01*
X0210355Y0153530D01*
X0210855Y0153550D01*
X0211355Y0153530D01*
X0211845Y0153470D01*
X0212335Y0153370D01*
X0212815Y0153240D01*
X0213285Y0153070D01*
X0213735Y0152860D01*
X0214175Y0152610D01*
X0214585Y0152340D01*
X0214975Y0152030D01*
X0215345Y0151690D01*
X0215685Y0151320D01*
X0215995Y0150930D01*
X0216265Y0150520D01*
X0216515Y0150080D01*
X0216725Y0149630D01*
X0216895Y0149160D01*
X0217025Y0148680D01*
X0217125Y0148190D01*
X0217185Y0147700D01*
X0217205Y0147200D01*
X0217185Y0146700D01*
X0217125Y0146210D01*
X0217025Y0145720D01*
X0216895Y0145240D01*
X0216725Y0144770D01*
X0216515Y0144320D01*
X0216265Y0143880D01*
X0215995Y0143470D01*
X0215685Y0143080D01*
X0215345Y0142710D01*
X0214975Y0142370D01*
X0214585Y0142060D01*
X0214175Y0141790D01*
X0213735Y0141540D01*
X0213285Y0141330D01*
X0212815Y0141160D01*
X0212335Y0141030D01*
X0211845Y0140930D01*
X0211355Y0140870D01*
X0210855Y0140850D01*
X0210355Y0140870D01*
X0209865Y0140930D01*
X0209375Y0141030D01*
X0208895Y0141160D01*
X0208425Y0141330D01*
X0207975Y0141540D01*
X0207535Y0141790D01*
X0207125Y0142060D01*
X0206735Y0142370D01*
X0206365Y0142710D01*
X0206025Y0143080D01*
X0205715Y0143470D01*
X0205445Y0143880D01*
X0205195Y0144320D01*
X0204985Y0144770D01*
X0204815Y0145240D01*
X0204685Y0145720D01*
X0204585Y0146210D01*
X0204525Y0146700D01*
X0204505Y0147200D01*
X0204975Y0049110D02*
X0212975Y0049110D01*
X0212975Y0039110D01*
X0222975Y0039110D01*
X0222975Y0049110D01*
X0260975Y0049110D01*
X0261325Y0048940D02*
X0261325Y0029170D01*
X0205025Y0029170D01*
X0205025Y0048940D01*
X0212975Y0049110D02*
X0222975Y0049110D01*
X0230475Y0047220D02*
X0230675Y0047470D01*
X0230915Y0047710D01*
X0231165Y0047920D01*
X0231445Y0048090D01*
X0231745Y0048240D01*
X0232055Y0048340D01*
X0232385Y0048420D01*
X0232705Y0048460D01*
X0233045Y0048460D01*
X0233365Y0048420D01*
X0233695Y0048340D01*
X0234005Y0048240D01*
X0234305Y0048090D01*
X0234585Y0047920D01*
X0234835Y0047710D01*
X0235075Y0047470D01*
X0235275Y0047220D01*
X0234475Y0046510D02*
X0234305Y0046720D01*
X0234115Y0046900D01*
X0233895Y0047050D01*
X0233655Y0047180D01*
X0233405Y0047270D01*
X0233145Y0047320D01*
X0232875Y0047340D01*
X0232605Y0047320D01*
X0232345Y0047270D01*
X0232095Y0047180D01*
X0231855Y0047050D01*
X0231635Y0046900D01*
X0231445Y0046720D01*
X0231275Y0046510D01*
X0232075Y0045810D02*
X0232195Y0045950D01*
X0232335Y0046060D01*
X0232485Y0046150D01*
X0232655Y0046210D01*
X0232835Y0046250D01*
X0233015Y0046250D01*
X0233195Y0046210D01*
X0233365Y0046150D01*
X0233515Y0046060D01*
X0233655Y0045950D01*
X0233775Y0045810D01*
X0232755Y0044810D02*
X0232775Y0044900D01*
X0232825Y0044970D01*
X0232905Y0045020D01*
X0232995Y0045030D01*
X0233085Y0045000D01*
X0233155Y0044940D01*
X0233195Y0044860D01*
X0233195Y0044760D01*
X0233155Y0044680D01*
X0233085Y0044620D01*
X0232995Y0044590D01*
X0232905Y0044600D01*
X0232825Y0044650D01*
X0232775Y0044720D01*
X0232755Y0044810D01*
D67*
X0232455Y0040140D02*
X0233395Y0040140D01*
X0233855Y0039670D01*
X0233855Y0039200D01*
X0233395Y0038740D01*
X0232455Y0038740D01*
X0231995Y0039200D01*
X0231995Y0039670D01*
X0232455Y0040140D01*
X0232455Y0038740D02*
X0231995Y0038270D01*
X0231995Y0037800D01*
X0232455Y0037330D01*
X0233395Y0037330D01*
X0233855Y0037800D01*
X0233855Y0038270D01*
X0233395Y0038740D01*
X0234755Y0039670D02*
X0235215Y0040140D01*
X0236155Y0040140D01*
X0236625Y0039670D01*
X0236625Y0039200D01*
X0234755Y0037330D01*
X0236625Y0037330D01*
X0237515Y0037800D02*
X0237985Y0037330D01*
X0238915Y0037330D01*
X0239385Y0037800D01*
X0239385Y0038270D01*
X0238915Y0038740D01*
X0237515Y0038740D01*
X0237515Y0037800D01*
X0237515Y0038740D02*
X0238445Y0039670D01*
X0239385Y0040140D01*
X0240275Y0038740D02*
X0241675Y0038740D01*
X0242145Y0038270D01*
X0242145Y0037800D01*
X0241675Y0037330D01*
X0240745Y0037330D01*
X0240275Y0037800D01*
X0240275Y0038740D01*
X0241215Y0039670D01*
X0242145Y0040140D01*
X0243035Y0038740D02*
X0244905Y0038740D01*
X0245805Y0039670D02*
X0246265Y0040140D01*
X0247205Y0040140D01*
X0247675Y0039670D01*
X0245805Y0037800D01*
X0246265Y0037330D01*
X0247205Y0037330D01*
X0247675Y0037800D01*
X0247675Y0039670D01*
X0248565Y0039200D02*
X0249495Y0040140D01*
X0249495Y0037330D01*
X0248565Y0037330D02*
X0250435Y0037330D01*
X0245805Y0037800D02*
X0245805Y0039670D01*
X0231095Y0039670D02*
X0231095Y0038740D01*
X0230625Y0038270D01*
X0229225Y0038270D01*
X0229225Y0037330D02*
X0229225Y0040140D01*
X0230625Y0040140D01*
X0231095Y0039670D01*
X0228335Y0039670D02*
X0227865Y0040140D01*
X0226935Y0040140D01*
X0226465Y0039670D01*
X0226465Y0039200D01*
X0226935Y0038740D01*
X0227865Y0038740D01*
X0228335Y0038270D01*
X0228335Y0037800D01*
X0227865Y0037330D01*
X0226935Y0037330D01*
X0226465Y0037800D01*
X0225575Y0037330D02*
X0223705Y0037330D01*
X0223705Y0040140D01*
X0225575Y0040140D01*
X0224635Y0038740D02*
X0223705Y0038740D01*
D67*
X0202975Y0015980D02*
X0205475Y0013480D01*
X0210475Y0013480D01*
X0212975Y0015980D01*
X0215475Y0013480D01*
X0220475Y0013480D01*
X0222975Y0015980D01*
X0222975Y0020980D01*
X0220475Y0023480D01*
X0215475Y0023480D01*
X0212975Y0020980D01*
X0212975Y0015980D01*
X0212975Y0020980D02*
X0210475Y0023480D01*
X0205475Y0023480D01*
X0202975Y0020980D01*
X0202975Y0015980D01*
X0222975Y0015980D02*
X0225475Y0013480D01*
X0230475Y0013480D01*
X0232975Y0015980D01*
X0235475Y0013480D01*
X0240475Y0013480D01*
X0242975Y0015980D01*
X0242975Y0020980D01*
X0240475Y0023480D01*
X0235475Y0023480D01*
X0232975Y0020980D01*
X0232975Y0015980D01*
X0232975Y0020980D02*
X0230475Y0023480D01*
X0225475Y0023480D01*
X0222975Y0020980D01*
X0246785Y0058420D02*
X0246785Y0063580D01*
X0250955Y0063580D01*
X0251265Y0058380D02*
X0254645Y0058380D01*
X0255195Y0063580D02*
X0259165Y0063580D01*
X0259165Y0058420D01*
X0260475Y0023480D02*
X0255475Y0023480D01*
X0252975Y0020980D01*
X0252975Y0015980D01*
X0255475Y0013480D01*
X0260475Y0013480D01*
X0262975Y0015980D01*
X0262975Y0020980D01*
X0260475Y0023480D01*
X0202975Y0166335D02*
G75*
%LPD*%
D67*
X0210275Y0244205D02*
X0225675Y0244205D01*
X0225675Y0278305D01*
X0210275Y0278305D01*
X0210275Y0244205D01*
X0212065Y0275755D02*
X0212085Y0275985D01*
X0212145Y0276215D01*
X0212235Y0276425D01*
X0212365Y0276625D01*
X0212525Y0276795D01*
X0212705Y0276935D01*
X0212905Y0277045D01*
X0213125Y0277125D01*
X0213355Y0277165D01*
X0213595Y0277165D01*
X0213825Y0277125D01*
X0214045Y0277045D01*
X0214245Y0276935D01*
X0214425Y0276795D01*
X0214585Y0276625D01*
X0214715Y0276425D01*
X0214805Y0276215D01*
X0214865Y0275985D01*
X0214885Y0275755D01*
X0214865Y0275525D01*
X0214805Y0275295D01*
X0214715Y0275085D01*
X0214585Y0274885D01*
X0214425Y0274715D01*
X0214245Y0274575D01*
X0214045Y0274465D01*
X0213825Y0274385D01*
X0213595Y0274345D01*
X0213355Y0274345D01*
X0213125Y0274385D01*
X0212905Y0274465D01*
X0212705Y0274575D01*
X0212525Y0274715D01*
X0212365Y0274885D01*
X0212235Y0275085D01*
X0212145Y0275295D01*
X0212085Y0275525D01*
X0212065Y0275755D01*
X0235075Y0267755D02*
X0235075Y0254755D01*
X0260875Y0254755D01*
X0260875Y0267755D01*
X0235075Y0267755D01*
D67*
X0246565Y0299505D02*
X0246565Y0319545D01*
X0246565Y0319585D02*
X0248525Y0319545D02*
X0248525Y0299505D01*
X0246565Y0299505D01*
X0220775Y0299505D01*
X0220775Y0319545D01*
X0220775Y0319585D02*
X0250175Y0303535D02*
X0250195Y0304035D01*
X0250255Y0304525D01*
X0250355Y0305015D01*
X0250485Y0305495D01*
X0250655Y0305965D01*
X0250865Y0306415D01*
X0251115Y0306855D01*
X0251385Y0307265D01*
X0251695Y0307655D01*
X0252035Y0308025D01*
X0252405Y0308365D01*
X0252795Y0308675D01*
X0253205Y0308945D01*
X0253645Y0309195D01*
X0254095Y0309405D01*
X0254565Y0309575D01*
X0255045Y0309705D01*
X0255535Y0309805D01*
X0256025Y0309865D01*
X0256525Y0309885D01*
X0257025Y0309865D01*
X0257515Y0309805D01*
X0258005Y0309705D01*
X0258485Y0309575D01*
X0258955Y0309405D01*
X0259405Y0309195D01*
X0259845Y0308945D01*
X0260255Y0308675D01*
X0260645Y0308365D01*
X0261015Y0308025D01*
X0261355Y0307655D01*
X0261665Y0307265D01*
X0261935Y0306855D01*
X0262185Y0306415D01*
X0262395Y0305965D01*
X0262565Y0305495D01*
X0262695Y0305015D01*
X0262795Y0304525D01*
X0262855Y0304035D01*
X0262875Y0303535D01*
X0262855Y0303035D01*
X0262795Y0302545D01*
X0262695Y0302055D01*
X0262565Y0301575D01*
X0262395Y0301105D01*
X0262185Y0300655D01*
X0261935Y0300215D01*
X0261665Y0299805D01*
X0261355Y0299415D01*
X0261015Y0299045D01*
X0260645Y0298705D01*
X0260255Y0298395D01*
X0259845Y0298125D01*
X0259405Y0297875D01*
X0258955Y0297665D01*
X0258485Y0297495D01*
X0258005Y0297365D01*
X0257515Y0297265D01*
X0257025Y0297205D01*
X0256525Y0297185D01*
X0256025Y0297205D01*
X0255535Y0297265D01*
X0255045Y0297365D01*
X0254565Y0297495D01*
X0254095Y0297665D01*
X0253645Y0297875D01*
X0253205Y0298125D01*
X0252795Y0298395D01*
X0252405Y0298705D01*
X0252035Y0299045D01*
X0251695Y0299415D01*
X0251385Y0299805D01*
X0251115Y0300215D01*
X0250865Y0300655D01*
X0250655Y0301105D01*
X0250485Y0301575D01*
X0250355Y0302055D01*
X0250255Y0302545D01*
X0250195Y0303035D01*
X0250175Y0303535D01*
X0220775Y0299505D02*
X0218605Y0299505D01*
X0218605Y0319545D01*
X0218605Y0319585D02*
X0204505Y0303535D02*
X0204525Y0304035D01*
X0204585Y0304525D01*
X0204685Y0305015D01*
X0204815Y0305495D01*
X0204985Y0305965D01*
X0205195Y0306415D01*
X0205445Y0306855D01*
X0205715Y0307265D01*
X0206025Y0307655D01*
X0206365Y0308025D01*
X0206735Y0308365D01*
X0207125Y0308675D01*
X0207535Y0308945D01*
X0207975Y0309195D01*
X0208425Y0309405D01*
X0208895Y0309575D01*
X0209375Y0309705D01*
X0209865Y0309805D01*
X0210355Y0309865D01*
X0210855Y0309885D01*
X0211355Y0309865D01*
X0211845Y0309805D01*
X0212335Y0309705D01*
X0212815Y0309575D01*
X0213285Y0309405D01*
X0213735Y0309195D01*
X0214175Y0308945D01*
X0214585Y0308675D01*
X0214975Y0308365D01*
X0215345Y0308025D01*
X0215685Y0307655D01*
X0215995Y0307265D01*
X0216265Y0306855D01*
X0216515Y0306415D01*
X0216725Y0305965D01*
X0216895Y0305495D01*
X0217025Y0305015D01*
X0217125Y0304525D01*
X0217185Y0304035D01*
X0217205Y0303535D01*
X0217185Y0303035D01*
X0217125Y0302545D01*
X0217025Y0302055D01*
X0216895Y0301575D01*
X0216725Y0301105D01*
X0216515Y0300655D01*
X0216265Y0300215D01*
X0215995Y0299805D01*
X0215685Y0299415D01*
X0215345Y0299045D01*
X0214975Y0298705D01*
X0214585Y0298395D01*
X0214175Y0298125D01*
X0213735Y0297875D01*
X0213285Y0297665D01*
X0212815Y0297495D01*
X0212335Y0297365D01*
X0211845Y0297265D01*
X0211355Y0297205D01*
X0210855Y0297185D01*
X0210355Y0297205D01*
X0209865Y0297265D01*
X0209375Y0297365D01*
X0208895Y0297495D01*
X0208425Y0297665D01*
X0207975Y0297875D01*
X0207535Y0298125D01*
X0207125Y0298395D01*
X0206735Y0298705D01*
X0206365Y0299045D01*
X0206025Y0299415D01*
X0205715Y0299805D01*
X0205445Y0300215D01*
X0205195Y0300655D01*
X0204985Y0301105D01*
X0204815Y0301575D01*
X0204685Y0302055D01*
X0204585Y0302545D01*
X0204525Y0303035D01*
X0204505Y0303535D01*
X0204975Y0205445D02*
X0212975Y0205445D01*
X0212975Y0195445D01*
X0222975Y0195445D01*
X0222975Y0205445D01*
X0260975Y0205445D01*
X0261325Y0205275D02*
X0261325Y0185505D01*
X0205025Y0185505D01*
X0205025Y0205275D01*
X0212975Y0205445D02*
X0222975Y0205445D01*
X0230475Y0203555D02*
X0230675Y0203805D01*
X0230915Y0204045D01*
X0231165Y0204255D01*
X0231445Y0204425D01*
X0231745Y0204575D01*
X0232055Y0204675D01*
X0232385Y0204755D01*
X0232705Y0204795D01*
X0233045Y0204795D01*
X0233365Y0204755D01*
X0233695Y0204675D01*
X0234005Y0204575D01*
X0234305Y0204425D01*
X0234585Y0204255D01*
X0234835Y0204045D01*
X0235075Y0203805D01*
X0235275Y0203555D01*
X0234475Y0202845D02*
X0234305Y0203055D01*
X0234115Y0203235D01*
X0233895Y0203385D01*
X0233655Y0203515D01*
X0233405Y0203605D01*
X0233145Y0203655D01*
X0232875Y0203675D01*
X0232605Y0203655D01*
X0232345Y0203605D01*
X0232095Y0203515D01*
X0231855Y0203385D01*
X0231635Y0203235D01*
X0231445Y0203055D01*
X0231275Y0202845D01*
X0232075Y0202145D02*
X0232195Y0202285D01*
X0232335Y0202395D01*
X0232485Y0202485D01*
X0232655Y0202545D01*
X0232835Y0202585D01*
X0233015Y0202585D01*
X0233195Y0202545D01*
X0233365Y0202485D01*
X0233515Y0202395D01*
X0233655Y0202285D01*
X0233775Y0202145D01*
X0232755Y0201145D02*
X0232775Y0201235D01*
X0232825Y0201305D01*
X0232905Y0201355D01*
X0232995Y0201365D01*
X0233085Y0201335D01*
X0233155Y0201275D01*
X0233195Y0201195D01*
X0233195Y0201095D01*
X0233155Y0201015D01*
X0233085Y0200955D01*
X0232995Y0200925D01*
X0232905Y0200935D01*
X0232825Y0200985D01*
X0232775Y0201055D01*
X0232755Y0201145D01*
D67*
X0232455Y0196475D02*
X0233395Y0196475D01*
X0233855Y0196005D01*
X0233855Y0195535D01*
X0233395Y0195075D01*
X0232455Y0195075D01*
X0231995Y0195535D01*
X0231995Y0196005D01*
X0232455Y0196475D01*
X0232455Y0195075D02*
X0231995Y0194605D01*
X0231995Y0194135D01*
X0232455Y0193665D01*
X0233395Y0193665D01*
X0233855Y0194135D01*
X0233855Y0194605D01*
X0233395Y0195075D01*
X0234755Y0196005D02*
X0235215Y0196475D01*
X0236155Y0196475D01*
X0236625Y0196005D01*
X0236625Y0195535D01*
X0234755Y0193665D01*
X0236625Y0193665D01*
X0237515Y0194135D02*
X0237985Y0193665D01*
X0238915Y0193665D01*
X0239385Y0194135D01*
X0239385Y0194605D01*
X0238915Y0195075D01*
X0237515Y0195075D01*
X0237515Y0194135D01*
X0237515Y0195075D02*
X0238445Y0196005D01*
X0239385Y0196475D01*
X0240275Y0195075D02*
X0241675Y0195075D01*
X0242145Y0194605D01*
X0242145Y0194135D01*
X0241675Y0193665D01*
X0240745Y0193665D01*
X0240275Y0194135D01*
X0240275Y0195075D01*
X0241215Y0196005D01*
X0242145Y0196475D01*
X0243035Y0195075D02*
X0244905Y0195075D01*
X0245805Y0196005D02*
X0246265Y0196475D01*
X0247205Y0196475D01*
X0247675Y0196005D01*
X0245805Y0194135D01*
X0246265Y0193665D01*
X0247205Y0193665D01*
X0247675Y0194135D01*
X0247675Y0196005D01*
X0248565Y0195535D02*
X0249495Y0196475D01*
X0249495Y0193665D01*
X0248565Y0193665D02*
X0250435Y0193665D01*
X0245805Y0194135D02*
X0245805Y0196005D01*
X0231095Y0196005D02*
X0231095Y0195075D01*
X0230625Y0194605D01*
X0229225Y0194605D01*
X0229225Y0193665D02*
X0229225Y0196475D01*
X0230625Y0196475D01*
X0231095Y0196005D01*
X0228335Y0196005D02*
X0227865Y0196475D01*
X0226935Y0196475D01*
X0226465Y0196005D01*
X0226465Y0195535D01*
X0226935Y0195075D01*
X0227865Y0195075D01*
X0228335Y0194605D01*
X0228335Y0194135D01*
X0227865Y0193665D01*
X0226935Y0193665D01*
X0226465Y0194135D01*
X0225575Y0193665D02*
X0223705Y0193665D01*
X0223705Y0196475D01*
X0225575Y0196475D01*
X0224635Y0195075D02*
X0223705Y0195075D01*
D67*
X0202975Y0172315D02*
X0205475Y0169815D01*
X0210475Y0169815D01*
X0212975Y0172315D01*
X0215475Y0169815D01*
X0220475Y0169815D01*
X0222975Y0172315D01*
X0222975Y0177315D01*
X0220475Y0179815D01*
X0215475Y0179815D01*
X0212975Y0177315D01*
X0212975Y0172315D01*
X0212975Y0177315D02*
X0210475Y0179815D01*
X0205475Y0179815D01*
X0202975Y0177315D01*
X0202975Y0172315D01*
X0222975Y0172315D02*
X0225475Y0169815D01*
X0230475Y0169815D01*
X0232975Y0172315D01*
X0235475Y0169815D01*
X0240475Y0169815D01*
X0242975Y0172315D01*
X0242975Y0177315D01*
X0240475Y0179815D01*
X0235475Y0179815D01*
X0232975Y0177315D01*
X0232975Y0172315D01*
X0232975Y0177315D02*
X0230475Y0179815D01*
X0225475Y0179815D01*
X0222975Y0177315D01*
X0246785Y0214755D02*
X0246785Y0219915D01*
X0250955Y0219915D01*
X0251265Y0214715D02*
X0254645Y0214715D01*
X0255195Y0219915D02*
X0259165Y0219915D01*
X0259165Y0214755D01*
X0260475Y0179815D02*
X0255475Y0179815D01*
X0252975Y0177315D01*
X0252975Y0172315D01*
X0255475Y0169815D01*
X0260475Y0169815D01*
X0262975Y0172315D01*
X0262975Y0177315D01*
X0260475Y0179815D01*
X0267300Y0010000D02*
G75*
%LPD*%
D67*
X0274600Y0087870D02*
X0290000Y0087870D01*
X0290000Y0121970D01*
X0274600Y0121970D01*
X0274600Y0087870D01*
X0276390Y0119420D02*
X0276410Y0119650D01*
X0276470Y0119880D01*
X0276560Y0120090D01*
X0276690Y0120290D01*
X0276850Y0120460D01*
X0277030Y0120600D01*
X0277230Y0120710D01*
X0277450Y0120790D01*
X0277680Y0120830D01*
X0277920Y0120830D01*
X0278150Y0120790D01*
X0278370Y0120710D01*
X0278570Y0120600D01*
X0278750Y0120460D01*
X0278910Y0120290D01*
X0279040Y0120090D01*
X0279130Y0119880D01*
X0279190Y0119650D01*
X0279210Y0119420D01*
X0279190Y0119190D01*
X0279130Y0118960D01*
X0279040Y0118750D01*
X0278910Y0118550D01*
X0278750Y0118380D01*
X0278570Y0118240D01*
X0278370Y0118130D01*
X0278150Y0118050D01*
X0277920Y0118010D01*
X0277680Y0118010D01*
X0277450Y0118050D01*
X0277230Y0118130D01*
X0277030Y0118240D01*
X0276850Y0118380D01*
X0276690Y0118550D01*
X0276560Y0118750D01*
X0276470Y0118960D01*
X0276410Y0119190D01*
X0276390Y0119420D01*
X0299400Y0111420D02*
X0299400Y0098420D01*
X0325200Y0098420D01*
X0325200Y0111420D01*
X0299400Y0111420D01*
D67*
X0310890Y0143170D02*
X0310890Y0163210D01*
X0310890Y0163250D02*
X0312850Y0163210D02*
X0312850Y0143170D01*
X0310890Y0143170D01*
X0285100Y0143170D01*
X0285100Y0163210D01*
X0285100Y0163250D02*
X0314500Y0147200D02*
X0314520Y0147700D01*
X0314580Y0148190D01*
X0314680Y0148680D01*
X0314810Y0149160D01*
X0314980Y0149630D01*
X0315190Y0150080D01*
X0315440Y0150520D01*
X0315710Y0150930D01*
X0316020Y0151320D01*
X0316360Y0151690D01*
X0316730Y0152030D01*
X0317120Y0152340D01*
X0317530Y0152610D01*
X0317970Y0152860D01*
X0318420Y0153070D01*
X0318890Y0153240D01*
X0319370Y0153370D01*
X0319860Y0153470D01*
X0320350Y0153530D01*
X0320850Y0153550D01*
X0321350Y0153530D01*
X0321840Y0153470D01*
X0322330Y0153370D01*
X0322810Y0153240D01*
X0323280Y0153070D01*
X0323730Y0152860D01*
X0324170Y0152610D01*
X0324580Y0152340D01*
X0324970Y0152030D01*
X0325340Y0151690D01*
X0325680Y0151320D01*
X0325990Y0150930D01*
X0326260Y0150520D01*
X0326510Y0150080D01*
X0326720Y0149630D01*
X0326890Y0149160D01*
X0327020Y0148680D01*
X0327120Y0148190D01*
X0327180Y0147700D01*
X0327200Y0147200D01*
X0327180Y0146700D01*
X0327120Y0146210D01*
X0327020Y0145720D01*
X0326890Y0145240D01*
X0326720Y0144770D01*
X0326510Y0144320D01*
X0326260Y0143880D01*
X0325990Y0143470D01*
X0325680Y0143080D01*
X0325340Y0142710D01*
X0324970Y0142370D01*
X0324580Y0142060D01*
X0324170Y0141790D01*
X0323730Y0141540D01*
X0323280Y0141330D01*
X0322810Y0141160D01*
X0322330Y0141030D01*
X0321840Y0140930D01*
X0321350Y0140870D01*
X0320850Y0140850D01*
X0320350Y0140870D01*
X0319860Y0140930D01*
X0319370Y0141030D01*
X0318890Y0141160D01*
X0318420Y0141330D01*
X0317970Y0141540D01*
X0317530Y0141790D01*
X0317120Y0142060D01*
X0316730Y0142370D01*
X0316360Y0142710D01*
X0316020Y0143080D01*
X0315710Y0143470D01*
X0315440Y0143880D01*
X0315190Y0144320D01*
X0314980Y0144770D01*
X0314810Y0145240D01*
X0314680Y0145720D01*
X0314580Y0146210D01*
X0314520Y0146700D01*
X0314500Y0147200D01*
X0285100Y0143170D02*
X0282930Y0143170D01*
X0282930Y0163210D01*
X0282930Y0163250D02*
X0268830Y0147200D02*
X0268850Y0147700D01*
X0268910Y0148190D01*
X0269010Y0148680D01*
X0269140Y0149160D01*
X0269310Y0149630D01*
X0269520Y0150080D01*
X0269770Y0150520D01*
X0270040Y0150930D01*
X0270350Y0151320D01*
X0270690Y0151690D01*
X0271060Y0152030D01*
X0271450Y0152340D01*
X0271860Y0152610D01*
X0272300Y0152860D01*
X0272750Y0153070D01*
X0273220Y0153240D01*
X0273700Y0153370D01*
X0274190Y0153470D01*
X0274680Y0153530D01*
X0275180Y0153550D01*
X0275680Y0153530D01*
X0276170Y0153470D01*
X0276660Y0153370D01*
X0277140Y0153240D01*
X0277610Y0153070D01*
X0278060Y0152860D01*
X0278500Y0152610D01*
X0278910Y0152340D01*
X0279300Y0152030D01*
X0279670Y0151690D01*
X0280010Y0151320D01*
X0280320Y0150930D01*
X0280590Y0150520D01*
X0280840Y0150080D01*
X0281050Y0149630D01*
X0281220Y0149160D01*
X0281350Y0148680D01*
X0281450Y0148190D01*
X0281510Y0147700D01*
X0281530Y0147200D01*
X0281510Y0146700D01*
X0281450Y0146210D01*
X0281350Y0145720D01*
X0281220Y0145240D01*
X0281050Y0144770D01*
X0280840Y0144320D01*
X0280590Y0143880D01*
X0280320Y0143470D01*
X0280010Y0143080D01*
X0279670Y0142710D01*
X0279300Y0142370D01*
X0278910Y0142060D01*
X0278500Y0141790D01*
X0278060Y0141540D01*
X0277610Y0141330D01*
X0277140Y0141160D01*
X0276660Y0141030D01*
X0276170Y0140930D01*
X0275680Y0140870D01*
X0275180Y0140850D01*
X0274680Y0140870D01*
X0274190Y0140930D01*
X0273700Y0141030D01*
X0273220Y0141160D01*
X0272750Y0141330D01*
X0272300Y0141540D01*
X0271860Y0141790D01*
X0271450Y0142060D01*
X0271060Y0142370D01*
X0270690Y0142710D01*
X0270350Y0143080D01*
X0270040Y0143470D01*
X0269770Y0143880D01*
X0269520Y0144320D01*
X0269310Y0144770D01*
X0269140Y0145240D01*
X0269010Y0145720D01*
X0268910Y0146210D01*
X0268850Y0146700D01*
X0268830Y0147200D01*
X0269300Y0049110D02*
X0277300Y0049110D01*
X0277300Y0039110D01*
X0287300Y0039110D01*
X0287300Y0049110D01*
X0325300Y0049110D01*
X0325650Y0048940D02*
X0325650Y0029170D01*
X0269350Y0029170D01*
X0269350Y0048940D01*
X0277300Y0049110D02*
X0287300Y0049110D01*
X0294800Y0047220D02*
X0295000Y0047470D01*
X0295240Y0047710D01*
X0295490Y0047920D01*
X0295770Y0048090D01*
X0296070Y0048240D01*
X0296380Y0048340D01*
X0296710Y0048420D01*
X0297030Y0048460D01*
X0297370Y0048460D01*
X0297690Y0048420D01*
X0298020Y0048340D01*
X0298330Y0048240D01*
X0298630Y0048090D01*
X0298910Y0047920D01*
X0299160Y0047710D01*
X0299400Y0047470D01*
X0299600Y0047220D01*
X0298800Y0046510D02*
X0298630Y0046720D01*
X0298440Y0046900D01*
X0298220Y0047050D01*
X0297980Y0047180D01*
X0297730Y0047270D01*
X0297470Y0047320D01*
X0297200Y0047340D01*
X0296930Y0047320D01*
X0296670Y0047270D01*
X0296420Y0047180D01*
X0296180Y0047050D01*
X0295960Y0046900D01*
X0295770Y0046720D01*
X0295600Y0046510D01*
X0296400Y0045810D02*
X0296520Y0045950D01*
X0296660Y0046060D01*
X0296810Y0046150D01*
X0296980Y0046210D01*
X0297160Y0046250D01*
X0297340Y0046250D01*
X0297520Y0046210D01*
X0297690Y0046150D01*
X0297840Y0046060D01*
X0297980Y0045950D01*
X0298100Y0045810D01*
X0297080Y0044810D02*
X0297100Y0044900D01*
X0297150Y0044970D01*
X0297230Y0045020D01*
X0297320Y0045030D01*
X0297410Y0045000D01*
X0297480Y0044940D01*
X0297520Y0044860D01*
X0297520Y0044760D01*
X0297480Y0044680D01*
X0297410Y0044620D01*
X0297320Y0044590D01*
X0297230Y0044600D01*
X0297150Y0044650D01*
X0297100Y0044720D01*
X0297080Y0044810D01*
D67*
X0296780Y0040140D02*
X0297720Y0040140D01*
X0298180Y0039670D01*
X0298180Y0039200D01*
X0297720Y0038740D01*
X0296780Y0038740D01*
X0296320Y0039200D01*
X0296320Y0039670D01*
X0296780Y0040140D01*
X0296780Y0038740D02*
X0296320Y0038270D01*
X0296320Y0037800D01*
X0296780Y0037330D01*
X0297720Y0037330D01*
X0298180Y0037800D01*
X0298180Y0038270D01*
X0297720Y0038740D01*
X0299080Y0039670D02*
X0299540Y0040140D01*
X0300480Y0040140D01*
X0300950Y0039670D01*
X0300950Y0039200D01*
X0299080Y0037330D01*
X0300950Y0037330D01*
X0301840Y0037800D02*
X0302310Y0037330D01*
X0303240Y0037330D01*
X0303710Y0037800D01*
X0303710Y0038270D01*
X0303240Y0038740D01*
X0301840Y0038740D01*
X0301840Y0037800D01*
X0301840Y0038740D02*
X0302770Y0039670D01*
X0303710Y0040140D01*
X0304600Y0038740D02*
X0306000Y0038740D01*
X0306470Y0038270D01*
X0306470Y0037800D01*
X0306000Y0037330D01*
X0305070Y0037330D01*
X0304600Y0037800D01*
X0304600Y0038740D01*
X0305540Y0039670D01*
X0306470Y0040140D01*
X0307360Y0038740D02*
X0309230Y0038740D01*
X0310130Y0039670D02*
X0310590Y0040140D01*
X0311530Y0040140D01*
X0312000Y0039670D01*
X0310130Y0037800D01*
X0310590Y0037330D01*
X0311530Y0037330D01*
X0312000Y0037800D01*
X0312000Y0039670D01*
X0312890Y0039200D02*
X0313820Y0040140D01*
X0313820Y0037330D01*
X0312890Y0037330D02*
X0314760Y0037330D01*
X0310130Y0037800D02*
X0310130Y0039670D01*
X0295420Y0039670D02*
X0295420Y0038740D01*
X0294950Y0038270D01*
X0293550Y0038270D01*
X0293550Y0037330D02*
X0293550Y0040140D01*
X0294950Y0040140D01*
X0295420Y0039670D01*
X0292660Y0039670D02*
X0292190Y0040140D01*
X0291260Y0040140D01*
X0290790Y0039670D01*
X0290790Y0039200D01*
X0291260Y0038740D01*
X0292190Y0038740D01*
X0292660Y0038270D01*
X0292660Y0037800D01*
X0292190Y0037330D01*
X0291260Y0037330D01*
X0290790Y0037800D01*
X0289900Y0037330D02*
X0288030Y0037330D01*
X0288030Y0040140D01*
X0289900Y0040140D01*
X0288960Y0038740D02*
X0288030Y0038740D01*
D67*
X0267300Y0015980D02*
X0269800Y0013480D01*
X0274800Y0013480D01*
X0277300Y0015980D01*
X0279800Y0013480D01*
X0284800Y0013480D01*
X0287300Y0015980D01*
X0287300Y0020980D01*
X0284800Y0023480D01*
X0279800Y0023480D01*
X0277300Y0020980D01*
X0277300Y0015980D01*
X0277300Y0020980D02*
X0274800Y0023480D01*
X0269800Y0023480D01*
X0267300Y0020980D01*
X0267300Y0015980D01*
X0287300Y0015980D02*
X0289800Y0013480D01*
X0294800Y0013480D01*
X0297300Y0015980D01*
X0299800Y0013480D01*
X0304800Y0013480D01*
X0307300Y0015980D01*
X0307300Y0020980D01*
X0304800Y0023480D01*
X0299800Y0023480D01*
X0297300Y0020980D01*
X0297300Y0015980D01*
X0297300Y0020980D02*
X0294800Y0023480D01*
X0289800Y0023480D01*
X0287300Y0020980D01*
X0311110Y0058420D02*
X0311110Y0063580D01*
X0315280Y0063580D01*
X0315590Y0058380D02*
X0318970Y0058380D01*
X0319520Y0063580D02*
X0323490Y0063580D01*
X0323490Y0058420D01*
X0324800Y0023480D02*
X0319800Y0023480D01*
X0317300Y0020980D01*
X0317300Y0015980D01*
X0319800Y0013480D01*
X0324800Y0013480D01*
X0327300Y0015980D01*
X0327300Y0020980D01*
X0324800Y0023480D01*
X0267300Y0166335D02*
G75*
%LPD*%
D67*
X0274600Y0244205D02*
X0290000Y0244205D01*
X0290000Y0278305D01*
X0274600Y0278305D01*
X0274600Y0244205D01*
X0276390Y0275755D02*
X0276410Y0275985D01*
X0276470Y0276215D01*
X0276560Y0276425D01*
X0276690Y0276625D01*
X0276850Y0276795D01*
X0277030Y0276935D01*
X0277230Y0277045D01*
X0277450Y0277125D01*
X0277680Y0277165D01*
X0277920Y0277165D01*
X0278150Y0277125D01*
X0278370Y0277045D01*
X0278570Y0276935D01*
X0278750Y0276795D01*
X0278910Y0276625D01*
X0279040Y0276425D01*
X0279130Y0276215D01*
X0279190Y0275985D01*
X0279210Y0275755D01*
X0279190Y0275525D01*
X0279130Y0275295D01*
X0279040Y0275085D01*
X0278910Y0274885D01*
X0278750Y0274715D01*
X0278570Y0274575D01*
X0278370Y0274465D01*
X0278150Y0274385D01*
X0277920Y0274345D01*
X0277680Y0274345D01*
X0277450Y0274385D01*
X0277230Y0274465D01*
X0277030Y0274575D01*
X0276850Y0274715D01*
X0276690Y0274885D01*
X0276560Y0275085D01*
X0276470Y0275295D01*
X0276410Y0275525D01*
X0276390Y0275755D01*
X0299400Y0267755D02*
X0299400Y0254755D01*
X0325200Y0254755D01*
X0325200Y0267755D01*
X0299400Y0267755D01*
D67*
X0310890Y0299505D02*
X0310890Y0319545D01*
X0310890Y0319585D02*
X0312850Y0319545D02*
X0312850Y0299505D01*
X0310890Y0299505D01*
X0285100Y0299505D01*
X0285100Y0319545D01*
X0285100Y0319585D02*
X0314500Y0303535D02*
X0314520Y0304035D01*
X0314580Y0304525D01*
X0314680Y0305015D01*
X0314810Y0305495D01*
X0314980Y0305965D01*
X0315190Y0306415D01*
X0315440Y0306855D01*
X0315710Y0307265D01*
X0316020Y0307655D01*
X0316360Y0308025D01*
X0316730Y0308365D01*
X0317120Y0308675D01*
X0317530Y0308945D01*
X0317970Y0309195D01*
X0318420Y0309405D01*
X0318890Y0309575D01*
X0319370Y0309705D01*
X0319860Y0309805D01*
X0320350Y0309865D01*
X0320850Y0309885D01*
X0321350Y0309865D01*
X0321840Y0309805D01*
X0322330Y0309705D01*
X0322810Y0309575D01*
X0323280Y0309405D01*
X0323730Y0309195D01*
X0324170Y0308945D01*
X0324580Y0308675D01*
X0324970Y0308365D01*
X0325340Y0308025D01*
X0325680Y0307655D01*
X0325990Y0307265D01*
X0326260Y0306855D01*
X0326510Y0306415D01*
X0326720Y0305965D01*
X0326890Y0305495D01*
X0327020Y0305015D01*
X0327120Y0304525D01*
X0327180Y0304035D01*
X0327200Y0303535D01*
X0327180Y0303035D01*
X0327120Y0302545D01*
X0327020Y0302055D01*
X0326890Y0301575D01*
X0326720Y0301105D01*
X0326510Y0300655D01*
X0326260Y0300215D01*
X0325990Y0299805D01*
X0325680Y0299415D01*
X0325340Y0299045D01*
X0324970Y0298705D01*
X0324580Y0298395D01*
X0324170Y0298125D01*
X0323730Y0297875D01*
X0323280Y0297665D01*
X0322810Y0297495D01*
X0322330Y0297365D01*
X0321840Y0297265D01*
X0321350Y0297205D01*
X0320850Y0297185D01*
X0320350Y0297205D01*
X0319860Y0297265D01*
X0319370Y0297365D01*
X0318890Y0297495D01*
X0318420Y0297665D01*
X0317970Y0297875D01*
X0317530Y0298125D01*
X0317120Y0298395D01*
X0316730Y0298705D01*
X0316360Y0299045D01*
X0316020Y0299415D01*
X0315710Y0299805D01*
X0315440Y0300215D01*
X0315190Y0300655D01*
X0314980Y0301105D01*
X0314810Y0301575D01*
X0314680Y0302055D01*
X0314580Y0302545D01*
X0314520Y0303035D01*
X0314500Y0303535D01*
X0285100Y0299505D02*
X0282930Y0299505D01*
X0282930Y0319545D01*
X0282930Y0319585D02*
X0268830Y0303535D02*
X0268850Y0304035D01*
X0268910Y0304525D01*
X0269010Y0305015D01*
X0269140Y0305495D01*
X0269310Y0305965D01*
X0269520Y0306415D01*
X0269770Y0306855D01*
X0270040Y0307265D01*
X0270350Y0307655D01*
X0270690Y0308025D01*
X0271060Y0308365D01*
X0271450Y0308675D01*
X0271860Y0308945D01*
X0272300Y0309195D01*
X0272750Y0309405D01*
X0273220Y0309575D01*
X0273700Y0309705D01*
X0274190Y0309805D01*
X0274680Y0309865D01*
X0275180Y0309885D01*
X0275680Y0309865D01*
X0276170Y0309805D01*
X0276660Y0309705D01*
X0277140Y0309575D01*
X0277610Y0309405D01*
X0278060Y0309195D01*
X0278500Y0308945D01*
X0278910Y0308675D01*
X0279300Y0308365D01*
X0279670Y0308025D01*
X0280010Y0307655D01*
X0280320Y0307265D01*
X0280590Y0306855D01*
X0280840Y0306415D01*
X0281050Y0305965D01*
X0281220Y0305495D01*
X0281350Y0305015D01*
X0281450Y0304525D01*
X0281510Y0304035D01*
X0281530Y0303535D01*
X0281510Y0303035D01*
X0281450Y0302545D01*
X0281350Y0302055D01*
X0281220Y0301575D01*
X0281050Y0301105D01*
X0280840Y0300655D01*
X0280590Y0300215D01*
X0280320Y0299805D01*
X0280010Y0299415D01*
X0279670Y0299045D01*
X0279300Y0298705D01*
X0278910Y0298395D01*
X0278500Y0298125D01*
X0278060Y0297875D01*
X0277610Y0297665D01*
X0277140Y0297495D01*
X0276660Y0297365D01*
X0276170Y0297265D01*
X0275680Y0297205D01*
X0275180Y0297185D01*
X0274680Y0297205D01*
X0274190Y0297265D01*
X0273700Y0297365D01*
X0273220Y0297495D01*
X0272750Y0297665D01*
X0272300Y0297875D01*
X0271860Y0298125D01*
X0271450Y0298395D01*
X0271060Y0298705D01*
X0270690Y0299045D01*
X0270350Y0299415D01*
X0270040Y0299805D01*
X0269770Y0300215D01*
X0269520Y0300655D01*
X0269310Y0301105D01*
X0269140Y0301575D01*
X0269010Y0302055D01*
X0268910Y0302545D01*
X0268850Y0303035D01*
X0268830Y0303535D01*
X0269300Y0205445D02*
X0277300Y0205445D01*
X0277300Y0195445D01*
X0287300Y0195445D01*
X0287300Y0205445D01*
X0325300Y0205445D01*
X0325650Y0205275D02*
X0325650Y0185505D01*
X0269350Y0185505D01*
X0269350Y0205275D01*
X0277300Y0205445D02*
X0287300Y0205445D01*
X0294800Y0203555D02*
X0295000Y0203805D01*
X0295240Y0204045D01*
X0295490Y0204255D01*
X0295770Y0204425D01*
X0296070Y0204575D01*
X0296380Y0204675D01*
X0296710Y0204755D01*
X0297030Y0204795D01*
X0297370Y0204795D01*
X0297690Y0204755D01*
X0298020Y0204675D01*
X0298330Y0204575D01*
X0298630Y0204425D01*
X0298910Y0204255D01*
X0299160Y0204045D01*
X0299400Y0203805D01*
X0299600Y0203555D01*
X0298800Y0202845D02*
X0298630Y0203055D01*
X0298440Y0203235D01*
X0298220Y0203385D01*
X0297980Y0203515D01*
X0297730Y0203605D01*
X0297470Y0203655D01*
X0297200Y0203675D01*
X0296930Y0203655D01*
X0296670Y0203605D01*
X0296420Y0203515D01*
X0296180Y0203385D01*
X0295960Y0203235D01*
X0295770Y0203055D01*
X0295600Y0202845D01*
X0296400Y0202145D02*
X0296520Y0202285D01*
X0296660Y0202395D01*
X0296810Y0202485D01*
X0296980Y0202545D01*
X0297160Y0202585D01*
X0297340Y0202585D01*
X0297520Y0202545D01*
X0297690Y0202485D01*
X0297840Y0202395D01*
X0297980Y0202285D01*
X0298100Y0202145D01*
X0297080Y0201145D02*
X0297100Y0201235D01*
X0297150Y0201305D01*
X0297230Y0201355D01*
X0297320Y0201365D01*
X0297410Y0201335D01*
X0297480Y0201275D01*
X0297520Y0201195D01*
X0297520Y0201095D01*
X0297480Y0201015D01*
X0297410Y0200955D01*
X0297320Y0200925D01*
X0297230Y0200935D01*
X0297150Y0200985D01*
X0297100Y0201055D01*
X0297080Y0201145D01*
D67*
X0296780Y0196475D02*
X0297720Y0196475D01*
X0298180Y0196005D01*
X0298180Y0195535D01*
X0297720Y0195075D01*
X0296780Y0195075D01*
X0296320Y0195535D01*
X0296320Y0196005D01*
X0296780Y0196475D01*
X0296780Y0195075D02*
X0296320Y0194605D01*
X0296320Y0194135D01*
X0296780Y0193665D01*
X0297720Y0193665D01*
X0298180Y0194135D01*
X0298180Y0194605D01*
X0297720Y0195075D01*
X0299080Y0196005D02*
X0299540Y0196475D01*
X0300480Y0196475D01*
X0300950Y0196005D01*
X0300950Y0195535D01*
X0299080Y0193665D01*
X0300950Y0193665D01*
X0301840Y0194135D02*
X0302310Y0193665D01*
X0303240Y0193665D01*
X0303710Y0194135D01*
X0303710Y0194605D01*
X0303240Y0195075D01*
X0301840Y0195075D01*
X0301840Y0194135D01*
X0301840Y0195075D02*
X0302770Y0196005D01*
X0303710Y0196475D01*
X0304600Y0195075D02*
X0306000Y0195075D01*
X0306470Y0194605D01*
X0306470Y0194135D01*
X0306000Y0193665D01*
X0305070Y0193665D01*
X0304600Y0194135D01*
X0304600Y0195075D01*
X0305540Y0196005D01*
X0306470Y0196475D01*
X0307360Y0195075D02*
X0309230Y0195075D01*
X0310130Y0196005D02*
X0310590Y0196475D01*
X0311530Y0196475D01*
X0312000Y0196005D01*
X0310130Y0194135D01*
X0310590Y0193665D01*
X0311530Y0193665D01*
X0312000Y0194135D01*
X0312000Y0196005D01*
X0312890Y0195535D02*
X0313820Y0196475D01*
X0313820Y0193665D01*
X0312890Y0193665D02*
X0314760Y0193665D01*
X0310130Y0194135D02*
X0310130Y0196005D01*
X0295420Y0196005D02*
X0295420Y0195075D01*
X0294950Y0194605D01*
X0293550Y0194605D01*
X0293550Y0193665D02*
X0293550Y0196475D01*
X0294950Y0196475D01*
X0295420Y0196005D01*
X0292660Y0196005D02*
X0292190Y0196475D01*
X0291260Y0196475D01*
X0290790Y0196005D01*
X0290790Y0195535D01*
X0291260Y0195075D01*
X0292190Y0195075D01*
X0292660Y0194605D01*
X0292660Y0194135D01*
X0292190Y0193665D01*
X0291260Y0193665D01*
X0290790Y0194135D01*
X0289900Y0193665D02*
X0288030Y0193665D01*
X0288030Y0196475D01*
X0289900Y0196475D01*
X0288960Y0195075D02*
X0288030Y0195075D01*
D67*
X0267300Y0172315D02*
X0269800Y0169815D01*
X0274800Y0169815D01*
X0277300Y0172315D01*
X0279800Y0169815D01*
X0284800Y0169815D01*
X0287300Y0172315D01*
X0287300Y0177315D01*
X0284800Y0179815D01*
X0279800Y0179815D01*
X0277300Y0177315D01*
X0277300Y0172315D01*
X0277300Y0177315D02*
X0274800Y0179815D01*
X0269800Y0179815D01*
X0267300Y0177315D01*
X0267300Y0172315D01*
X0287300Y0172315D02*
X0289800Y0169815D01*
X0294800Y0169815D01*
X0297300Y0172315D01*
X0299800Y0169815D01*
X0304800Y0169815D01*
X0307300Y0172315D01*
X0307300Y0177315D01*
X0304800Y0179815D01*
X0299800Y0179815D01*
X0297300Y0177315D01*
X0297300Y0172315D01*
X0297300Y0177315D02*
X0294800Y0179815D01*
X0289800Y0179815D01*
X0287300Y0177315D01*
X0311110Y0214755D02*
X0311110Y0219915D01*
X0315280Y0219915D01*
X0315590Y0214715D02*
X0318970Y0214715D01*
X0319520Y0219915D02*
X0323490Y0219915D01*
X0323490Y0214755D01*
X0324800Y0179815D02*
X0319800Y0179815D01*
X0317300Y0177315D01*
X0317300Y0172315D01*
X0319800Y0169815D01*
X0324800Y0169815D01*
X0327300Y0172315D01*
X0327300Y0177315D01*
X0324800Y0179815D01*
X0331625Y0010000D02*
G75*
%LPD*%
D67*
X0338925Y0087870D02*
X0354325Y0087870D01*
X0354325Y0121970D01*
X0338925Y0121970D01*
X0338925Y0087870D01*
X0340715Y0119420D02*
X0340735Y0119650D01*
X0340795Y0119880D01*
X0340885Y0120090D01*
X0341015Y0120290D01*
X0341175Y0120460D01*
X0341355Y0120600D01*
X0341555Y0120710D01*
X0341775Y0120790D01*
X0342005Y0120830D01*
X0342245Y0120830D01*
X0342475Y0120790D01*
X0342695Y0120710D01*
X0342895Y0120600D01*
X0343075Y0120460D01*
X0343235Y0120290D01*
X0343365Y0120090D01*
X0343455Y0119880D01*
X0343515Y0119650D01*
X0343535Y0119420D01*
X0343515Y0119190D01*
X0343455Y0118960D01*
X0343365Y0118750D01*
X0343235Y0118550D01*
X0343075Y0118380D01*
X0342895Y0118240D01*
X0342695Y0118130D01*
X0342475Y0118050D01*
X0342245Y0118010D01*
X0342005Y0118010D01*
X0341775Y0118050D01*
X0341555Y0118130D01*
X0341355Y0118240D01*
X0341175Y0118380D01*
X0341015Y0118550D01*
X0340885Y0118750D01*
X0340795Y0118960D01*
X0340735Y0119190D01*
X0340715Y0119420D01*
X0363725Y0111420D02*
X0363725Y0098420D01*
X0389525Y0098420D01*
X0389525Y0111420D01*
X0363725Y0111420D01*
D67*
X0375215Y0143170D02*
X0375215Y0163210D01*
X0375215Y0163250D02*
X0377175Y0163210D02*
X0377175Y0143170D01*
X0375215Y0143170D01*
X0349425Y0143170D01*
X0349425Y0163210D01*
X0349425Y0163250D02*
X0378825Y0147200D02*
X0378845Y0147700D01*
X0378905Y0148190D01*
X0379005Y0148680D01*
X0379135Y0149160D01*
X0379305Y0149630D01*
X0379515Y0150080D01*
X0379765Y0150520D01*
X0380035Y0150930D01*
X0380345Y0151320D01*
X0380685Y0151690D01*
X0381055Y0152030D01*
X0381445Y0152340D01*
X0381855Y0152610D01*
X0382295Y0152860D01*
X0382745Y0153070D01*
X0383215Y0153240D01*
X0383695Y0153370D01*
X0384185Y0153470D01*
X0384675Y0153530D01*
X0385175Y0153550D01*
X0385675Y0153530D01*
X0386165Y0153470D01*
X0386655Y0153370D01*
X0387135Y0153240D01*
X0387605Y0153070D01*
X0388055Y0152860D01*
X0388495Y0152610D01*
X0388905Y0152340D01*
X0389295Y0152030D01*
X0389665Y0151690D01*
X0390005Y0151320D01*
X0390315Y0150930D01*
X0390585Y0150520D01*
X0390835Y0150080D01*
X0391045Y0149630D01*
X0391215Y0149160D01*
X0391345Y0148680D01*
X0391445Y0148190D01*
X0391505Y0147700D01*
X0391525Y0147200D01*
X0391505Y0146700D01*
X0391445Y0146210D01*
X0391345Y0145720D01*
X0391215Y0145240D01*
X0391045Y0144770D01*
X0390835Y0144320D01*
X0390585Y0143880D01*
X0390315Y0143470D01*
X0390005Y0143080D01*
X0389665Y0142710D01*
X0389295Y0142370D01*
X0388905Y0142060D01*
X0388495Y0141790D01*
X0388055Y0141540D01*
X0387605Y0141330D01*
X0387135Y0141160D01*
X0386655Y0141030D01*
X0386165Y0140930D01*
X0385675Y0140870D01*
X0385175Y0140850D01*
X0384675Y0140870D01*
X0384185Y0140930D01*
X0383695Y0141030D01*
X0383215Y0141160D01*
X0382745Y0141330D01*
X0382295Y0141540D01*
X0381855Y0141790D01*
X0381445Y0142060D01*
X0381055Y0142370D01*
X0380685Y0142710D01*
X0380345Y0143080D01*
X0380035Y0143470D01*
X0379765Y0143880D01*
X0379515Y0144320D01*
X0379305Y0144770D01*
X0379135Y0145240D01*
X0379005Y0145720D01*
X0378905Y0146210D01*
X0378845Y0146700D01*
X0378825Y0147200D01*
X0349425Y0143170D02*
X0347255Y0143170D01*
X0347255Y0163210D01*
X0347255Y0163250D02*
X0333155Y0147200D02*
X0333175Y0147700D01*
X0333235Y0148190D01*
X0333335Y0148680D01*
X0333465Y0149160D01*
X0333635Y0149630D01*
X0333845Y0150080D01*
X0334095Y0150520D01*
X0334365Y0150930D01*
X0334675Y0151320D01*
X0335015Y0151690D01*
X0335385Y0152030D01*
X0335775Y0152340D01*
X0336185Y0152610D01*
X0336625Y0152860D01*
X0337075Y0153070D01*
X0337545Y0153240D01*
X0338025Y0153370D01*
X0338515Y0153470D01*
X0339005Y0153530D01*
X0339505Y0153550D01*
X0340005Y0153530D01*
X0340495Y0153470D01*
X0340985Y0153370D01*
X0341465Y0153240D01*
X0341935Y0153070D01*
X0342385Y0152860D01*
X0342825Y0152610D01*
X0343235Y0152340D01*
X0343625Y0152030D01*
X0343995Y0151690D01*
X0344335Y0151320D01*
X0344645Y0150930D01*
X0344915Y0150520D01*
X0345165Y0150080D01*
X0345375Y0149630D01*
X0345545Y0149160D01*
X0345675Y0148680D01*
X0345775Y0148190D01*
X0345835Y0147700D01*
X0345855Y0147200D01*
X0345835Y0146700D01*
X0345775Y0146210D01*
X0345675Y0145720D01*
X0345545Y0145240D01*
X0345375Y0144770D01*
X0345165Y0144320D01*
X0344915Y0143880D01*
X0344645Y0143470D01*
X0344335Y0143080D01*
X0343995Y0142710D01*
X0343625Y0142370D01*
X0343235Y0142060D01*
X0342825Y0141790D01*
X0342385Y0141540D01*
X0341935Y0141330D01*
X0341465Y0141160D01*
X0340985Y0141030D01*
X0340495Y0140930D01*
X0340005Y0140870D01*
X0339505Y0140850D01*
X0339005Y0140870D01*
X0338515Y0140930D01*
X0338025Y0141030D01*
X0337545Y0141160D01*
X0337075Y0141330D01*
X0336625Y0141540D01*
X0336185Y0141790D01*
X0335775Y0142060D01*
X0335385Y0142370D01*
X0335015Y0142710D01*
X0334675Y0143080D01*
X0334365Y0143470D01*
X0334095Y0143880D01*
X0333845Y0144320D01*
X0333635Y0144770D01*
X0333465Y0145240D01*
X0333335Y0145720D01*
X0333235Y0146210D01*
X0333175Y0146700D01*
X0333155Y0147200D01*
X0333625Y0049110D02*
X0341625Y0049110D01*
X0341625Y0039110D01*
X0351625Y0039110D01*
X0351625Y0049110D01*
X0389625Y0049110D01*
X0389975Y0048940D02*
X0389975Y0029170D01*
X0333675Y0029170D01*
X0333675Y0048940D01*
X0341625Y0049110D02*
X0351625Y0049110D01*
X0359125Y0047220D02*
X0359325Y0047470D01*
X0359565Y0047710D01*
X0359815Y0047920D01*
X0360095Y0048090D01*
X0360395Y0048240D01*
X0360705Y0048340D01*
X0361035Y0048420D01*
X0361355Y0048460D01*
X0361695Y0048460D01*
X0362015Y0048420D01*
X0362345Y0048340D01*
X0362655Y0048240D01*
X0362955Y0048090D01*
X0363235Y0047920D01*
X0363485Y0047710D01*
X0363725Y0047470D01*
X0363925Y0047220D01*
X0363125Y0046510D02*
X0362955Y0046720D01*
X0362765Y0046900D01*
X0362545Y0047050D01*
X0362305Y0047180D01*
X0362055Y0047270D01*
X0361795Y0047320D01*
X0361525Y0047340D01*
X0361255Y0047320D01*
X0360995Y0047270D01*
X0360745Y0047180D01*
X0360505Y0047050D01*
X0360285Y0046900D01*
X0360095Y0046720D01*
X0359925Y0046510D01*
X0360725Y0045810D02*
X0360845Y0045950D01*
X0360985Y0046060D01*
X0361135Y0046150D01*
X0361305Y0046210D01*
X0361485Y0046250D01*
X0361665Y0046250D01*
X0361845Y0046210D01*
X0362015Y0046150D01*
X0362165Y0046060D01*
X0362305Y0045950D01*
X0362425Y0045810D01*
X0361405Y0044810D02*
X0361425Y0044900D01*
X0361475Y0044970D01*
X0361555Y0045020D01*
X0361645Y0045030D01*
X0361735Y0045000D01*
X0361805Y0044940D01*
X0361845Y0044860D01*
X0361845Y0044760D01*
X0361805Y0044680D01*
X0361735Y0044620D01*
X0361645Y0044590D01*
X0361555Y0044600D01*
X0361475Y0044650D01*
X0361425Y0044720D01*
X0361405Y0044810D01*
D67*
X0361105Y0040140D02*
X0362045Y0040140D01*
X0362505Y0039670D01*
X0362505Y0039200D01*
X0362045Y0038740D01*
X0361105Y0038740D01*
X0360645Y0039200D01*
X0360645Y0039670D01*
X0361105Y0040140D01*
X0361105Y0038740D02*
X0360645Y0038270D01*
X0360645Y0037800D01*
X0361105Y0037330D01*
X0362045Y0037330D01*
X0362505Y0037800D01*
X0362505Y0038270D01*
X0362045Y0038740D01*
X0363405Y0039670D02*
X0363865Y0040140D01*
X0364805Y0040140D01*
X0365275Y0039670D01*
X0365275Y0039200D01*
X0363405Y0037330D01*
X0365275Y0037330D01*
X0366165Y0037800D02*
X0366635Y0037330D01*
X0367565Y0037330D01*
X0368035Y0037800D01*
X0368035Y0038270D01*
X0367565Y0038740D01*
X0366165Y0038740D01*
X0366165Y0037800D01*
X0366165Y0038740D02*
X0367095Y0039670D01*
X0368035Y0040140D01*
X0368925Y0038740D02*
X0370325Y0038740D01*
X0370795Y0038270D01*
X0370795Y0037800D01*
X0370325Y0037330D01*
X0369395Y0037330D01*
X0368925Y0037800D01*
X0368925Y0038740D01*
X0369865Y0039670D01*
X0370795Y0040140D01*
X0371685Y0038740D02*
X0373555Y0038740D01*
X0374455Y0039670D02*
X0374915Y0040140D01*
X0375855Y0040140D01*
X0376325Y0039670D01*
X0374455Y0037800D01*
X0374915Y0037330D01*
X0375855Y0037330D01*
X0376325Y0037800D01*
X0376325Y0039670D01*
X0377215Y0039200D02*
X0378145Y0040140D01*
X0378145Y0037330D01*
X0377215Y0037330D02*
X0379085Y0037330D01*
X0374455Y0037800D02*
X0374455Y0039670D01*
X0359745Y0039670D02*
X0359745Y0038740D01*
X0359275Y0038270D01*
X0357875Y0038270D01*
X0357875Y0037330D02*
X0357875Y0040140D01*
X0359275Y0040140D01*
X0359745Y0039670D01*
X0356985Y0039670D02*
X0356515Y0040140D01*
X0355585Y0040140D01*
X0355115Y0039670D01*
X0355115Y0039200D01*
X0355585Y0038740D01*
X0356515Y0038740D01*
X0356985Y0038270D01*
X0356985Y0037800D01*
X0356515Y0037330D01*
X0355585Y0037330D01*
X0355115Y0037800D01*
X0354225Y0037330D02*
X0352355Y0037330D01*
X0352355Y0040140D01*
X0354225Y0040140D01*
X0353285Y0038740D02*
X0352355Y0038740D01*
D67*
X0331625Y0015980D02*
X0334125Y0013480D01*
X0339125Y0013480D01*
X0341625Y0015980D01*
X0344125Y0013480D01*
X0349125Y0013480D01*
X0351625Y0015980D01*
X0351625Y0020980D01*
X0349125Y0023480D01*
X0344125Y0023480D01*
X0341625Y0020980D01*
X0341625Y0015980D01*
X0341625Y0020980D02*
X0339125Y0023480D01*
X0334125Y0023480D01*
X0331625Y0020980D01*
X0331625Y0015980D01*
X0351625Y0015980D02*
X0354125Y0013480D01*
X0359125Y0013480D01*
X0361625Y0015980D01*
X0364125Y0013480D01*
X0369125Y0013480D01*
X0371625Y0015980D01*
X0371625Y0020980D01*
X0369125Y0023480D01*
X0364125Y0023480D01*
X0361625Y0020980D01*
X0361625Y0015980D01*
X0361625Y0020980D02*
X0359125Y0023480D01*
X0354125Y0023480D01*
X0351625Y0020980D01*
X0375435Y0058420D02*
X0375435Y0063580D01*
X0379605Y0063580D01*
X0379915Y0058380D02*
X0383295Y0058380D01*
X0383845Y0063580D02*
X0387815Y0063580D01*
X0387815Y0058420D01*
X0389125Y0023480D02*
X0384125Y0023480D01*
X0381625Y0020980D01*
X0381625Y0015980D01*
X0384125Y0013480D01*
X0389125Y0013480D01*
X0391625Y0015980D01*
X0391625Y0020980D01*
X0389125Y0023480D01*
X0331625Y0166335D02*
G75*
%LPD*%
D67*
X0338925Y0244205D02*
X0354325Y0244205D01*
X0354325Y0278305D01*
X0338925Y0278305D01*
X0338925Y0244205D01*
X0340715Y0275755D02*
X0340735Y0275985D01*
X0340795Y0276215D01*
X0340885Y0276425D01*
X0341015Y0276625D01*
X0341175Y0276795D01*
X0341355Y0276935D01*
X0341555Y0277045D01*
X0341775Y0277125D01*
X0342005Y0277165D01*
X0342245Y0277165D01*
X0342475Y0277125D01*
X0342695Y0277045D01*
X0342895Y0276935D01*
X0343075Y0276795D01*
X0343235Y0276625D01*
X0343365Y0276425D01*
X0343455Y0276215D01*
X0343515Y0275985D01*
X0343535Y0275755D01*
X0343515Y0275525D01*
X0343455Y0275295D01*
X0343365Y0275085D01*
X0343235Y0274885D01*
X0343075Y0274715D01*
X0342895Y0274575D01*
X0342695Y0274465D01*
X0342475Y0274385D01*
X0342245Y0274345D01*
X0342005Y0274345D01*
X0341775Y0274385D01*
X0341555Y0274465D01*
X0341355Y0274575D01*
X0341175Y0274715D01*
X0341015Y0274885D01*
X0340885Y0275085D01*
X0340795Y0275295D01*
X0340735Y0275525D01*
X0340715Y0275755D01*
X0363725Y0267755D02*
X0363725Y0254755D01*
X0389525Y0254755D01*
X0389525Y0267755D01*
X0363725Y0267755D01*
D67*
X0375215Y0299505D02*
X0375215Y0319545D01*
X0375215Y0319585D02*
X0377175Y0319545D02*
X0377175Y0299505D01*
X0375215Y0299505D01*
X0349425Y0299505D01*
X0349425Y0319545D01*
X0349425Y0319585D02*
X0378825Y0303535D02*
X0378845Y0304035D01*
X0378905Y0304525D01*
X0379005Y0305015D01*
X0379135Y0305495D01*
X0379305Y0305965D01*
X0379515Y0306415D01*
X0379765Y0306855D01*
X0380035Y0307265D01*
X0380345Y0307655D01*
X0380685Y0308025D01*
X0381055Y0308365D01*
X0381445Y0308675D01*
X0381855Y0308945D01*
X0382295Y0309195D01*
X0382745Y0309405D01*
X0383215Y0309575D01*
X0383695Y0309705D01*
X0384185Y0309805D01*
X0384675Y0309865D01*
X0385175Y0309885D01*
X0385675Y0309865D01*
X0386165Y0309805D01*
X0386655Y0309705D01*
X0387135Y0309575D01*
X0387605Y0309405D01*
X0388055Y0309195D01*
X0388495Y0308945D01*
X0388905Y0308675D01*
X0389295Y0308365D01*
X0389665Y0308025D01*
X0390005Y0307655D01*
X0390315Y0307265D01*
X0390585Y0306855D01*
X0390835Y0306415D01*
X0391045Y0305965D01*
X0391215Y0305495D01*
X0391345Y0305015D01*
X0391445Y0304525D01*
X0391505Y0304035D01*
X0391525Y0303535D01*
X0391505Y0303035D01*
X0391445Y0302545D01*
X0391345Y0302055D01*
X0391215Y0301575D01*
X0391045Y0301105D01*
X0390835Y0300655D01*
X0390585Y0300215D01*
X0390315Y0299805D01*
X0390005Y0299415D01*
X0389665Y0299045D01*
X0389295Y0298705D01*
X0388905Y0298395D01*
X0388495Y0298125D01*
X0388055Y0297875D01*
X0387605Y0297665D01*
X0387135Y0297495D01*
X0386655Y0297365D01*
X0386165Y0297265D01*
X0385675Y0297205D01*
X0385175Y0297185D01*
X0384675Y0297205D01*
X0384185Y0297265D01*
X0383695Y0297365D01*
X0383215Y0297495D01*
X0382745Y0297665D01*
X0382295Y0297875D01*
X0381855Y0298125D01*
X0381445Y0298395D01*
X0381055Y0298705D01*
X0380685Y0299045D01*
X0380345Y0299415D01*
X0380035Y0299805D01*
X0379765Y0300215D01*
X0379515Y0300655D01*
X0379305Y0301105D01*
X0379135Y0301575D01*
X0379005Y0302055D01*
X0378905Y0302545D01*
X0378845Y0303035D01*
X0378825Y0303535D01*
X0349425Y0299505D02*
X0347255Y0299505D01*
X0347255Y0319545D01*
X0347255Y0319585D02*
X0333155Y0303535D02*
X0333175Y0304035D01*
X0333235Y0304525D01*
X0333335Y0305015D01*
X0333465Y0305495D01*
X0333635Y0305965D01*
X0333845Y0306415D01*
X0334095Y0306855D01*
X0334365Y0307265D01*
X0334675Y0307655D01*
X0335015Y0308025D01*
X0335385Y0308365D01*
X0335775Y0308675D01*
X0336185Y0308945D01*
X0336625Y0309195D01*
X0337075Y0309405D01*
X0337545Y0309575D01*
X0338025Y0309705D01*
X0338515Y0309805D01*
X0339005Y0309865D01*
X0339505Y0309885D01*
X0340005Y0309865D01*
X0340495Y0309805D01*
X0340985Y0309705D01*
X0341465Y0309575D01*
X0341935Y0309405D01*
X0342385Y0309195D01*
X0342825Y0308945D01*
X0343235Y0308675D01*
X0343625Y0308365D01*
X0343995Y0308025D01*
X0344335Y0307655D01*
X0344645Y0307265D01*
X0344915Y0306855D01*
X0345165Y0306415D01*
X0345375Y0305965D01*
X0345545Y0305495D01*
X0345675Y0305015D01*
X0345775Y0304525D01*
X0345835Y0304035D01*
X0345855Y0303535D01*
X0345835Y0303035D01*
X0345775Y0302545D01*
X0345675Y0302055D01*
X0345545Y0301575D01*
X0345375Y0301105D01*
X0345165Y0300655D01*
X0344915Y0300215D01*
X0344645Y0299805D01*
X0344335Y0299415D01*
X0343995Y0299045D01*
X0343625Y0298705D01*
X0343235Y0298395D01*
X0342825Y0298125D01*
X0342385Y0297875D01*
X0341935Y0297665D01*
X0341465Y0297495D01*
X0340985Y0297365D01*
X0340495Y0297265D01*
X0340005Y0297205D01*
X0339505Y0297185D01*
X0339005Y0297205D01*
X0338515Y0297265D01*
X0338025Y0297365D01*
X0337545Y0297495D01*
X0337075Y0297665D01*
X0336625Y0297875D01*
X0336185Y0298125D01*
X0335775Y0298395D01*
X0335385Y0298705D01*
X0335015Y0299045D01*
X0334675Y0299415D01*
X0334365Y0299805D01*
X0334095Y0300215D01*
X0333845Y0300655D01*
X0333635Y0301105D01*
X0333465Y0301575D01*
X0333335Y0302055D01*
X0333235Y0302545D01*
X0333175Y0303035D01*
X0333155Y0303535D01*
X0333625Y0205445D02*
X0341625Y0205445D01*
X0341625Y0195445D01*
X0351625Y0195445D01*
X0351625Y0205445D01*
X0389625Y0205445D01*
X0389975Y0205275D02*
X0389975Y0185505D01*
X0333675Y0185505D01*
X0333675Y0205275D01*
X0341625Y0205445D02*
X0351625Y0205445D01*
X0359125Y0203555D02*
X0359325Y0203805D01*
X0359565Y0204045D01*
X0359815Y0204255D01*
X0360095Y0204425D01*
X0360395Y0204575D01*
X0360705Y0204675D01*
X0361035Y0204755D01*
X0361355Y0204795D01*
X0361695Y0204795D01*
X0362015Y0204755D01*
X0362345Y0204675D01*
X0362655Y0204575D01*
X0362955Y0204425D01*
X0363235Y0204255D01*
X0363485Y0204045D01*
X0363725Y0203805D01*
X0363925Y0203555D01*
X0363125Y0202845D02*
X0362955Y0203055D01*
X0362765Y0203235D01*
X0362545Y0203385D01*
X0362305Y0203515D01*
X0362055Y0203605D01*
X0361795Y0203655D01*
X0361525Y0203675D01*
X0361255Y0203655D01*
X0360995Y0203605D01*
X0360745Y0203515D01*
X0360505Y0203385D01*
X0360285Y0203235D01*
X0360095Y0203055D01*
X0359925Y0202845D01*
X0360725Y0202145D02*
X0360845Y0202285D01*
X0360985Y0202395D01*
X0361135Y0202485D01*
X0361305Y0202545D01*
X0361485Y0202585D01*
X0361665Y0202585D01*
X0361845Y0202545D01*
X0362015Y0202485D01*
X0362165Y0202395D01*
X0362305Y0202285D01*
X0362425Y0202145D01*
X0361405Y0201145D02*
X0361425Y0201235D01*
X0361475Y0201305D01*
X0361555Y0201355D01*
X0361645Y0201365D01*
X0361735Y0201335D01*
X0361805Y0201275D01*
X0361845Y0201195D01*
X0361845Y0201095D01*
X0361805Y0201015D01*
X0361735Y0200955D01*
X0361645Y0200925D01*
X0361555Y0200935D01*
X0361475Y0200985D01*
X0361425Y0201055D01*
X0361405Y0201145D01*
D67*
X0361105Y0196475D02*
X0362045Y0196475D01*
X0362505Y0196005D01*
X0362505Y0195535D01*
X0362045Y0195075D01*
X0361105Y0195075D01*
X0360645Y0195535D01*
X0360645Y0196005D01*
X0361105Y0196475D01*
X0361105Y0195075D02*
X0360645Y0194605D01*
X0360645Y0194135D01*
X0361105Y0193665D01*
X0362045Y0193665D01*
X0362505Y0194135D01*
X0362505Y0194605D01*
X0362045Y0195075D01*
X0363405Y0196005D02*
X0363865Y0196475D01*
X0364805Y0196475D01*
X0365275Y0196005D01*
X0365275Y0195535D01*
X0363405Y0193665D01*
X0365275Y0193665D01*
X0366165Y0194135D02*
X0366635Y0193665D01*
X0367565Y0193665D01*
X0368035Y0194135D01*
X0368035Y0194605D01*
X0367565Y0195075D01*
X0366165Y0195075D01*
X0366165Y0194135D01*
X0366165Y0195075D02*
X0367095Y0196005D01*
X0368035Y0196475D01*
X0368925Y0195075D02*
X0370325Y0195075D01*
X0370795Y0194605D01*
X0370795Y0194135D01*
X0370325Y0193665D01*
X0369395Y0193665D01*
X0368925Y0194135D01*
X0368925Y0195075D01*
X0369865Y0196005D01*
X0370795Y0196475D01*
X0371685Y0195075D02*
X0373555Y0195075D01*
X0374455Y0196005D02*
X0374915Y0196475D01*
X0375855Y0196475D01*
X0376325Y0196005D01*
X0374455Y0194135D01*
X0374915Y0193665D01*
X0375855Y0193665D01*
X0376325Y0194135D01*
X0376325Y0196005D01*
X0377215Y0195535D02*
X0378145Y0196475D01*
X0378145Y0193665D01*
X0377215Y0193665D02*
X0379085Y0193665D01*
X0374455Y0194135D02*
X0374455Y0196005D01*
X0359745Y0196005D02*
X0359745Y0195075D01*
X0359275Y0194605D01*
X0357875Y0194605D01*
X0357875Y0193665D02*
X0357875Y0196475D01*
X0359275Y0196475D01*
X0359745Y0196005D01*
X0356985Y0196005D02*
X0356515Y0196475D01*
X0355585Y0196475D01*
X0355115Y0196005D01*
X0355115Y0195535D01*
X0355585Y0195075D01*
X0356515Y0195075D01*
X0356985Y0194605D01*
X0356985Y0194135D01*
X0356515Y0193665D01*
X0355585Y0193665D01*
X0355115Y0194135D01*
X0354225Y0193665D02*
X0352355Y0193665D01*
X0352355Y0196475D01*
X0354225Y0196475D01*
X0353285Y0195075D02*
X0352355Y0195075D01*
D67*
X0331625Y0172315D02*
X0334125Y0169815D01*
X0339125Y0169815D01*
X0341625Y0172315D01*
X0344125Y0169815D01*
X0349125Y0169815D01*
X0351625Y0172315D01*
X0351625Y0177315D01*
X0349125Y0179815D01*
X0344125Y0179815D01*
X0341625Y0177315D01*
X0341625Y0172315D01*
X0341625Y0177315D02*
X0339125Y0179815D01*
X0334125Y0179815D01*
X0331625Y0177315D01*
X0331625Y0172315D01*
X0351625Y0172315D02*
X0354125Y0169815D01*
X0359125Y0169815D01*
X0361625Y0172315D01*
X0364125Y0169815D01*
X0369125Y0169815D01*
X0371625Y0172315D01*
X0371625Y0177315D01*
X0369125Y0179815D01*
X0364125Y0179815D01*
X0361625Y0177315D01*
X0361625Y0172315D01*
X0361625Y0177315D02*
X0359125Y0179815D01*
X0354125Y0179815D01*
X0351625Y0177315D01*
X0375435Y0214755D02*
X0375435Y0219915D01*
X0379605Y0219915D01*
X0379915Y0214715D02*
X0383295Y0214715D01*
X0383845Y0219915D02*
X0387815Y0219915D01*
X0387815Y0214755D01*
X0389125Y0179815D02*
X0384125Y0179815D01*
X0381625Y0177315D01*
X0381625Y0172315D01*
X0384125Y0169815D01*
X0389125Y0169815D01*
X0391625Y0172315D01*
X0391625Y0177315D01*
X0389125Y0179815D01*
%ADD10C,0.00100*%
D10*
X0010000Y0010000D02*
X0010000Y0319545D01*
X0392825Y0319545D01*
X0392825Y0010000D01*
X0010000Y0010000D01*
M02*
