G75*
G70*
%OFA0B0*%
%FSLAX25Y25*%
%IPPOS*%
%LPD*%
%AMOC8*
5,1,8,0,0,1.08239X$1,22.5*
%
%ADD100C,0.06400*%
%ADD101C,0.05550*%
%ADD108R,0.06340X0.06340*%
%ADD29OC8,0.06400*%
%ADD63C,0.01600*%
%ADD74C,0.04370*%
%ADD79C,0.06340*%
%ADD81C,0.00000*%
%ADD86C,0.02800*%
%ADD92C,0.01000*%
X0010000Y0010000D02*
G75*
%LPD*%
D81*
X0010000Y0010000D02*
X0010000Y0147460D01*
X0071200Y0147460D01*
X0071200Y0010000D01*
X0010000Y0010000D01*
X0024840Y0138050D02*
X0024840Y0141200D01*
X0024850Y0141200D02*
X0024860Y0141370D01*
X0024910Y0141540D01*
X0024980Y0141690D01*
X0025080Y0141830D01*
X0025200Y0141950D01*
X0025340Y0142050D01*
X0025490Y0142120D01*
X0025660Y0142170D01*
X0025830Y0142180D01*
X0026000Y0142170D01*
X0026170Y0142120D01*
X0026320Y0142050D01*
X0026460Y0141950D01*
X0026580Y0141830D01*
X0026680Y0141690D01*
X0026750Y0141540D01*
X0026800Y0141370D01*
X0026810Y0141200D01*
X0026810Y0138050D01*
X0025830Y0137070D02*
X0025660Y0137080D01*
X0025490Y0137130D01*
X0025340Y0137200D01*
X0025200Y0137300D01*
X0025080Y0137420D01*
X0024980Y0137560D01*
X0024910Y0137710D01*
X0024860Y0137880D01*
X0024850Y0138050D01*
X0025830Y0137070D02*
X0026000Y0137080D01*
X0026170Y0137130D01*
X0026320Y0137200D01*
X0026460Y0137300D01*
X0026580Y0137420D01*
X0026680Y0137560D01*
X0026750Y0137710D01*
X0026800Y0137880D01*
X0026810Y0138050D01*
X0053190Y0138050D02*
X0053190Y0141200D01*
X0053200Y0141370D01*
X0053250Y0141540D01*
X0053320Y0141690D01*
X0053420Y0141830D01*
X0053540Y0141950D01*
X0053680Y0142050D01*
X0053830Y0142120D01*
X0054000Y0142170D01*
X0054170Y0142180D01*
X0054340Y0142170D01*
X0054510Y0142120D01*
X0054660Y0142050D01*
X0054800Y0141950D01*
X0054920Y0141830D01*
X0055020Y0141690D01*
X0055090Y0141540D01*
X0055140Y0141370D01*
X0055150Y0141200D01*
X0055160Y0141200D02*
X0055160Y0138050D01*
X0054170Y0137070D02*
X0054000Y0137080D01*
X0053830Y0137130D01*
X0053680Y0137200D01*
X0053540Y0137300D01*
X0053420Y0137420D01*
X0053320Y0137560D01*
X0053250Y0137710D01*
X0053200Y0137880D01*
X0053190Y0138050D01*
X0054170Y0137070D02*
X0054340Y0137080D01*
X0054510Y0137130D01*
X0054660Y0137200D01*
X0054800Y0137300D01*
X0054920Y0137420D01*
X0055020Y0137560D01*
X0055090Y0137710D01*
X0055140Y0137880D01*
X0055150Y0138050D01*
D108*
X0025000Y0043130D03*
D79*
X0025000Y0033130D03*
X0035000Y0033130D03*
X0035000Y0043130D03*
X0045000Y0043130D03*
X0045000Y0033130D03*
X0055000Y0033130D03*
X0055000Y0043130D03*
D100*
X0045000Y0020700D02*
X0045000Y0014300D01*
X0035000Y0014300D02*
X0035000Y0020700D01*
X0025000Y0020700D02*
X0025000Y0014300D01*
X0015000Y0014300D02*
X0015000Y0020700D01*
D29*
X0065000Y0017500D03*
D101*
X0049550Y0130180D03*
X0030450Y0130180D03*
D74*
X0025830Y0137440D02*
X0025830Y0141810D01*
X0054170Y0141810D02*
X0054170Y0137440D01*
D92*
X0038130Y0135000D02*
X0038130Y0123750D01*
X0036880Y0122500D01*
X0036880Y0123130D01*
X0031250Y0123130D01*
X0026250Y0128130D01*
X0026250Y0131250D01*
X0021250Y0136250D01*
X0019380Y0111250D02*
X0020000Y0110000D01*
X0025000Y0105000D01*
X0025000Y0067500D01*
X0030000Y0067500D01*
X0030000Y0068130D01*
X0032500Y0073130D02*
X0032500Y0056250D01*
X0031880Y0056250D01*
X0035000Y0053130D01*
X0035000Y0043130D01*
X0040000Y0038130D02*
X0040000Y0022500D01*
X0035000Y0017500D01*
X0045000Y0017500D02*
X0050000Y0022500D01*
X0050000Y0049380D01*
X0050630Y0050000D01*
X0050630Y0070000D01*
X0047500Y0073130D01*
X0032500Y0073130D01*
X0038130Y0081880D02*
X0038130Y0086880D01*
X0040000Y0088750D01*
X0040000Y0092500D02*
X0027500Y0105000D01*
X0027500Y0108750D01*
X0026880Y0109380D01*
X0022500Y0108130D02*
X0019380Y0111250D01*
X0019380Y0101880D02*
X0019380Y0057500D01*
X0030000Y0046880D01*
X0030000Y0038130D01*
X0025000Y0033130D01*
X0040000Y0038130D02*
X0045000Y0043130D01*
X0055000Y0043130D02*
X0055000Y0094380D01*
X0048750Y0100630D01*
X0045630Y0103130D02*
X0048130Y0105630D01*
X0045630Y0103130D02*
X0045630Y0085000D01*
X0042500Y0081880D01*
X0038130Y0081880D01*
D86*
X0041250Y0085000D03*
X0040000Y0088750D03*
X0040000Y0092500D03*
X0040000Y0096880D03*
X0048130Y0105630D03*
X0048750Y0100630D03*
X0040630Y0121880D03*
X0036880Y0122500D03*
X0038130Y0135000D03*
X0045000Y0135000D03*
X0030630Y0106250D03*
X0026880Y0109380D03*
X0019380Y0111250D03*
X0019380Y0101880D03*
X0018750Y0133130D03*
X0021250Y0136250D03*
X0030000Y0068130D03*
X0031880Y0056250D03*
X0060000Y0056880D03*
X0065630Y0080630D03*
D63*
X0065000Y0080630D01*
X0065000Y0093130D01*
X0047810Y0110310D01*
X0043130Y0105630D01*
X0043130Y0086880D01*
X0041250Y0085000D01*
X0040000Y0096880D02*
X0030630Y0106250D01*
X0038130Y0119380D02*
X0016250Y0119380D01*
X0016250Y0133130D01*
X0018750Y0133130D01*
X0016250Y0119380D02*
X0016250Y0051880D01*
X0020310Y0047810D01*
X0020000Y0047500D01*
X0020000Y0022500D01*
X0025000Y0017500D01*
X0025000Y0043130D02*
X0020310Y0047810D01*
X0055000Y0033130D02*
X0060000Y0038130D01*
X0060000Y0056880D01*
X0065000Y0080630D02*
X0065000Y0017500D01*
X0047810Y0110310D02*
X0045000Y0113130D01*
X0045000Y0135000D01*
X0040630Y0121880D02*
X0038130Y0119380D01*
X0077450Y0010000D02*
G75*
%LPD*%
D81*
X0077450Y0010000D02*
X0077450Y0147460D01*
X0138650Y0147460D01*
X0138650Y0010000D01*
X0077450Y0010000D01*
X0092290Y0138050D02*
X0092290Y0141200D01*
X0092300Y0141200D02*
X0092310Y0141370D01*
X0092360Y0141540D01*
X0092430Y0141690D01*
X0092530Y0141830D01*
X0092650Y0141950D01*
X0092790Y0142050D01*
X0092940Y0142120D01*
X0093110Y0142170D01*
X0093280Y0142180D01*
X0093450Y0142170D01*
X0093620Y0142120D01*
X0093770Y0142050D01*
X0093910Y0141950D01*
X0094030Y0141830D01*
X0094130Y0141690D01*
X0094200Y0141540D01*
X0094250Y0141370D01*
X0094260Y0141200D01*
X0094260Y0138050D01*
X0093280Y0137070D02*
X0093110Y0137080D01*
X0092940Y0137130D01*
X0092790Y0137200D01*
X0092650Y0137300D01*
X0092530Y0137420D01*
X0092430Y0137560D01*
X0092360Y0137710D01*
X0092310Y0137880D01*
X0092300Y0138050D01*
X0093280Y0137070D02*
X0093450Y0137080D01*
X0093620Y0137130D01*
X0093770Y0137200D01*
X0093910Y0137300D01*
X0094030Y0137420D01*
X0094130Y0137560D01*
X0094200Y0137710D01*
X0094250Y0137880D01*
X0094260Y0138050D01*
X0120640Y0138050D02*
X0120640Y0141200D01*
X0120650Y0141370D01*
X0120700Y0141540D01*
X0120770Y0141690D01*
X0120870Y0141830D01*
X0120990Y0141950D01*
X0121130Y0142050D01*
X0121280Y0142120D01*
X0121450Y0142170D01*
X0121620Y0142180D01*
X0121790Y0142170D01*
X0121960Y0142120D01*
X0122110Y0142050D01*
X0122250Y0141950D01*
X0122370Y0141830D01*
X0122470Y0141690D01*
X0122540Y0141540D01*
X0122590Y0141370D01*
X0122600Y0141200D01*
X0122610Y0141200D02*
X0122610Y0138050D01*
X0121620Y0137070D02*
X0121450Y0137080D01*
X0121280Y0137130D01*
X0121130Y0137200D01*
X0120990Y0137300D01*
X0120870Y0137420D01*
X0120770Y0137560D01*
X0120700Y0137710D01*
X0120650Y0137880D01*
X0120640Y0138050D01*
X0121620Y0137070D02*
X0121790Y0137080D01*
X0121960Y0137130D01*
X0122110Y0137200D01*
X0122250Y0137300D01*
X0122370Y0137420D01*
X0122470Y0137560D01*
X0122540Y0137710D01*
X0122590Y0137880D01*
X0122600Y0138050D01*
D108*
X0092450Y0043130D03*
D79*
X0092450Y0033130D03*
X0102450Y0033130D03*
X0102450Y0043130D03*
X0112450Y0043130D03*
X0112450Y0033130D03*
X0122450Y0033130D03*
X0122450Y0043130D03*
D100*
X0112450Y0020700D02*
X0112450Y0014300D01*
X0102450Y0014300D02*
X0102450Y0020700D01*
X0092450Y0020700D02*
X0092450Y0014300D01*
X0082450Y0014300D02*
X0082450Y0020700D01*
D29*
X0132450Y0017500D03*
D101*
X0117000Y0130180D03*
X0097900Y0130180D03*
D74*
X0093280Y0137440D02*
X0093280Y0141810D01*
X0121620Y0141810D02*
X0121620Y0137440D01*
D92*
X0105580Y0135000D02*
X0105580Y0123750D01*
X0104330Y0122500D01*
X0104330Y0123130D01*
X0098700Y0123130D01*
X0093700Y0128130D01*
X0093700Y0131250D01*
X0088700Y0136250D01*
X0086830Y0111250D02*
X0087450Y0110000D01*
X0092450Y0105000D01*
X0092450Y0067500D01*
X0097450Y0067500D01*
X0097450Y0068130D01*
X0099950Y0073130D02*
X0099950Y0056250D01*
X0099330Y0056250D01*
X0102450Y0053130D01*
X0102450Y0043130D01*
X0107450Y0038130D02*
X0107450Y0022500D01*
X0102450Y0017500D01*
X0112450Y0017500D02*
X0117450Y0022500D01*
X0117450Y0049380D01*
X0118080Y0050000D01*
X0118080Y0070000D01*
X0114950Y0073130D01*
X0099950Y0073130D01*
X0105580Y0081880D02*
X0105580Y0086880D01*
X0107450Y0088750D01*
X0107450Y0092500D02*
X0094950Y0105000D01*
X0094950Y0108750D01*
X0094330Y0109380D01*
X0089950Y0108130D02*
X0086830Y0111250D01*
X0086830Y0101880D02*
X0086830Y0057500D01*
X0097450Y0046880D01*
X0097450Y0038130D01*
X0092450Y0033130D01*
X0107450Y0038130D02*
X0112450Y0043130D01*
X0122450Y0043130D02*
X0122450Y0094380D01*
X0116200Y0100630D01*
X0113080Y0103130D02*
X0115580Y0105630D01*
X0113080Y0103130D02*
X0113080Y0085000D01*
X0109950Y0081880D01*
X0105580Y0081880D01*
D86*
X0108700Y0085000D03*
X0107450Y0088750D03*
X0107450Y0092500D03*
X0107450Y0096880D03*
X0115580Y0105630D03*
X0116200Y0100630D03*
X0108080Y0121880D03*
X0104330Y0122500D03*
X0105580Y0135000D03*
X0112450Y0135000D03*
X0098080Y0106250D03*
X0094330Y0109380D03*
X0086830Y0111250D03*
X0086830Y0101880D03*
X0086200Y0133130D03*
X0088700Y0136250D03*
X0097450Y0068130D03*
X0099330Y0056250D03*
X0127450Y0056880D03*
X0133080Y0080630D03*
D63*
X0132450Y0080630D01*
X0132450Y0093130D01*
X0115260Y0110310D01*
X0110580Y0105630D01*
X0110580Y0086880D01*
X0108700Y0085000D01*
X0107450Y0096880D02*
X0098080Y0106250D01*
X0105580Y0119380D02*
X0083700Y0119380D01*
X0083700Y0133130D01*
X0086200Y0133130D01*
X0083700Y0119380D02*
X0083700Y0051880D01*
X0087760Y0047810D01*
X0087450Y0047500D01*
X0087450Y0022500D01*
X0092450Y0017500D01*
X0092450Y0043130D02*
X0087760Y0047810D01*
X0122450Y0033130D02*
X0127450Y0038130D01*
X0127450Y0056880D01*
X0132450Y0080630D02*
X0132450Y0017500D01*
X0115260Y0110310D02*
X0112450Y0113130D01*
X0112450Y0135000D01*
X0108080Y0121880D02*
X0105580Y0119380D01*
X0144900Y0010000D02*
G75*
%LPD*%
D81*
X0144900Y0010000D02*
X0144900Y0147460D01*
X0206100Y0147460D01*
X0206100Y0010000D01*
X0144900Y0010000D01*
X0159740Y0138050D02*
X0159740Y0141200D01*
X0159750Y0141200D02*
X0159760Y0141370D01*
X0159810Y0141540D01*
X0159880Y0141690D01*
X0159980Y0141830D01*
X0160100Y0141950D01*
X0160240Y0142050D01*
X0160390Y0142120D01*
X0160560Y0142170D01*
X0160730Y0142180D01*
X0160900Y0142170D01*
X0161070Y0142120D01*
X0161220Y0142050D01*
X0161360Y0141950D01*
X0161480Y0141830D01*
X0161580Y0141690D01*
X0161650Y0141540D01*
X0161700Y0141370D01*
X0161710Y0141200D01*
X0161710Y0138050D01*
X0160730Y0137070D02*
X0160560Y0137080D01*
X0160390Y0137130D01*
X0160240Y0137200D01*
X0160100Y0137300D01*
X0159980Y0137420D01*
X0159880Y0137560D01*
X0159810Y0137710D01*
X0159760Y0137880D01*
X0159750Y0138050D01*
X0160730Y0137070D02*
X0160900Y0137080D01*
X0161070Y0137130D01*
X0161220Y0137200D01*
X0161360Y0137300D01*
X0161480Y0137420D01*
X0161580Y0137560D01*
X0161650Y0137710D01*
X0161700Y0137880D01*
X0161710Y0138050D01*
X0188090Y0138050D02*
X0188090Y0141200D01*
X0188100Y0141370D01*
X0188150Y0141540D01*
X0188220Y0141690D01*
X0188320Y0141830D01*
X0188440Y0141950D01*
X0188580Y0142050D01*
X0188730Y0142120D01*
X0188900Y0142170D01*
X0189070Y0142180D01*
X0189240Y0142170D01*
X0189410Y0142120D01*
X0189560Y0142050D01*
X0189700Y0141950D01*
X0189820Y0141830D01*
X0189920Y0141690D01*
X0189990Y0141540D01*
X0190040Y0141370D01*
X0190050Y0141200D01*
X0190060Y0141200D02*
X0190060Y0138050D01*
X0189070Y0137070D02*
X0188900Y0137080D01*
X0188730Y0137130D01*
X0188580Y0137200D01*
X0188440Y0137300D01*
X0188320Y0137420D01*
X0188220Y0137560D01*
X0188150Y0137710D01*
X0188100Y0137880D01*
X0188090Y0138050D01*
X0189070Y0137070D02*
X0189240Y0137080D01*
X0189410Y0137130D01*
X0189560Y0137200D01*
X0189700Y0137300D01*
X0189820Y0137420D01*
X0189920Y0137560D01*
X0189990Y0137710D01*
X0190040Y0137880D01*
X0190050Y0138050D01*
D108*
X0159900Y0043130D03*
D79*
X0159900Y0033130D03*
X0169900Y0033130D03*
X0169900Y0043130D03*
X0179900Y0043130D03*
X0179900Y0033130D03*
X0189900Y0033130D03*
X0189900Y0043130D03*
D100*
X0179900Y0020700D02*
X0179900Y0014300D01*
X0169900Y0014300D02*
X0169900Y0020700D01*
X0159900Y0020700D02*
X0159900Y0014300D01*
X0149900Y0014300D02*
X0149900Y0020700D01*
D29*
X0199900Y0017500D03*
D101*
X0184450Y0130180D03*
X0165350Y0130180D03*
D74*
X0160730Y0137440D02*
X0160730Y0141810D01*
X0189070Y0141810D02*
X0189070Y0137440D01*
D92*
X0173030Y0135000D02*
X0173030Y0123750D01*
X0171780Y0122500D01*
X0171780Y0123130D01*
X0166150Y0123130D01*
X0161150Y0128130D01*
X0161150Y0131250D01*
X0156150Y0136250D01*
X0154280Y0111250D02*
X0154900Y0110000D01*
X0159900Y0105000D01*
X0159900Y0067500D01*
X0164900Y0067500D01*
X0164900Y0068130D01*
X0167400Y0073130D02*
X0167400Y0056250D01*
X0166780Y0056250D01*
X0169900Y0053130D01*
X0169900Y0043130D01*
X0174900Y0038130D02*
X0174900Y0022500D01*
X0169900Y0017500D01*
X0179900Y0017500D02*
X0184900Y0022500D01*
X0184900Y0049380D01*
X0185530Y0050000D01*
X0185530Y0070000D01*
X0182400Y0073130D01*
X0167400Y0073130D01*
X0173030Y0081880D02*
X0173030Y0086880D01*
X0174900Y0088750D01*
X0174900Y0092500D02*
X0162400Y0105000D01*
X0162400Y0108750D01*
X0161780Y0109380D01*
X0157400Y0108130D02*
X0154280Y0111250D01*
X0154280Y0101880D02*
X0154280Y0057500D01*
X0164900Y0046880D01*
X0164900Y0038130D01*
X0159900Y0033130D01*
X0174900Y0038130D02*
X0179900Y0043130D01*
X0189900Y0043130D02*
X0189900Y0094380D01*
X0183650Y0100630D01*
X0180530Y0103130D02*
X0183030Y0105630D01*
X0180530Y0103130D02*
X0180530Y0085000D01*
X0177400Y0081880D01*
X0173030Y0081880D01*
D86*
X0176150Y0085000D03*
X0174900Y0088750D03*
X0174900Y0092500D03*
X0174900Y0096880D03*
X0183030Y0105630D03*
X0183650Y0100630D03*
X0175530Y0121880D03*
X0171780Y0122500D03*
X0173030Y0135000D03*
X0179900Y0135000D03*
X0165530Y0106250D03*
X0161780Y0109380D03*
X0154280Y0111250D03*
X0154280Y0101880D03*
X0153650Y0133130D03*
X0156150Y0136250D03*
X0164900Y0068130D03*
X0166780Y0056250D03*
X0194900Y0056880D03*
X0200530Y0080630D03*
D63*
X0199900Y0080630D01*
X0199900Y0093130D01*
X0182710Y0110310D01*
X0178030Y0105630D01*
X0178030Y0086880D01*
X0176150Y0085000D01*
X0174900Y0096880D02*
X0165530Y0106250D01*
X0173030Y0119380D02*
X0151150Y0119380D01*
X0151150Y0133130D01*
X0153650Y0133130D01*
X0151150Y0119380D02*
X0151150Y0051880D01*
X0155210Y0047810D01*
X0154900Y0047500D01*
X0154900Y0022500D01*
X0159900Y0017500D01*
X0159900Y0043130D02*
X0155210Y0047810D01*
X0189900Y0033130D02*
X0194900Y0038130D01*
X0194900Y0056880D01*
X0199900Y0080630D02*
X0199900Y0017500D01*
X0182710Y0110310D02*
X0179900Y0113130D01*
X0179900Y0135000D01*
X0175530Y0121880D02*
X0173030Y0119380D01*
%ADD10C,0.00100*%
D10*
X0010000Y0010000D02*
X0010000Y0147460D01*
X0206100Y0147460D01*
X0206100Y0010000D01*
X0010000Y0010000D01*
M02*
