G75*
%MOIN*%
%OFA0B0*%
%FSLAX24Y24*%
%IPPOS*%
%LPD*%
%AMOC8*
5,1,8,0,0,1.08239X$1,22.5*
%
%ADD10C,0.0050*%
D10*
X003157Y010835D02*
X003518Y010835D01*
X003698Y011015D01*
X003518Y011196D01*
X003157Y011196D01*
X003428Y011379D02*
X003428Y011739D01*
X003608Y011922D02*
X003247Y011922D01*
X003157Y012013D01*
X003157Y012193D01*
X003247Y012283D01*
X003157Y012466D02*
X003608Y012466D01*
X003698Y012556D01*
X003698Y012737D01*
X003608Y012827D01*
X003157Y012827D01*
X003157Y013010D02*
X003157Y013371D01*
X003157Y013190D02*
X003698Y013190D01*
X003608Y012283D02*
X003698Y012193D01*
X003698Y012013D01*
X003608Y011922D01*
X003428Y014098D02*
X003428Y014458D01*
X003428Y014641D02*
X003428Y015002D01*
X003698Y015185D02*
X003428Y015546D01*
X003157Y015185D01*
X008259Y024614D02*
X008440Y024795D01*
X008440Y025155D01*
X008623Y024885D02*
X008983Y024885D01*
X009167Y025065D02*
X009167Y024705D01*
X009257Y024614D01*
X009437Y024614D01*
X009527Y024705D01*
X009710Y024705D02*
X009800Y024614D01*
X009981Y024614D01*
X010071Y024705D01*
X010071Y025155D01*
X010254Y025155D02*
X010615Y025155D01*
X010434Y025155D02*
X010434Y024614D01*
X009710Y024705D02*
X009710Y025155D01*
X009527Y025065D02*
X009437Y025155D01*
X009257Y025155D01*
X009167Y025065D01*
X008259Y024614D02*
X008079Y024795D01*
X008079Y025155D01*
X006097Y025279D02*
X005736Y025008D01*
X005553Y025279D02*
X005192Y025279D01*
X005009Y025279D02*
X004649Y025279D01*
X003922Y025549D02*
X003561Y025549D01*
X003742Y025549D02*
X003742Y025008D01*
X003378Y025098D02*
X003378Y025549D01*
X003017Y025549D02*
X003017Y025098D01*
X003108Y025008D01*
X003288Y025008D01*
X003378Y025098D01*
X002834Y025098D02*
X002744Y025008D01*
X002564Y025008D01*
X002474Y025098D01*
X002474Y025459D01*
X002564Y025549D01*
X002744Y025549D01*
X002834Y025459D01*
X002291Y025279D02*
X001930Y025279D01*
X001747Y025188D02*
X001747Y025549D01*
X001747Y025188D02*
X001566Y025008D01*
X001386Y025188D01*
X001386Y025549D01*
X005736Y025549D02*
X006097Y025279D01*
X011342Y024885D02*
X011702Y024885D01*
X011885Y024885D02*
X012246Y024885D01*
X012429Y025155D02*
X012790Y024885D01*
X012429Y024614D01*
X014378Y024762D02*
X014378Y024401D01*
X014559Y024221D01*
X014739Y024401D01*
X014739Y024762D01*
X014922Y024491D02*
X015283Y024491D01*
X015466Y024311D02*
X015466Y024672D01*
X015556Y024762D01*
X015736Y024762D01*
X015826Y024672D01*
X016010Y024762D02*
X016010Y024311D01*
X016100Y024221D01*
X016280Y024221D01*
X016370Y024311D01*
X016370Y024762D01*
X016553Y024762D02*
X016914Y024762D01*
X016734Y024762D02*
X016734Y024221D01*
X017641Y024491D02*
X018002Y024491D01*
X018185Y024491D02*
X018545Y024491D01*
X018728Y024221D02*
X019089Y024491D01*
X018728Y024762D01*
X021071Y024762D02*
X021071Y024401D01*
X021251Y024221D01*
X021432Y024401D01*
X021432Y024762D01*
X021615Y024491D02*
X021976Y024491D01*
X022159Y024311D02*
X022249Y024221D01*
X022429Y024221D01*
X022519Y024311D01*
X022702Y024311D02*
X022702Y024762D01*
X022519Y024672D02*
X022429Y024762D01*
X022249Y024762D01*
X022159Y024672D01*
X022159Y024311D01*
X022702Y024311D02*
X022793Y024221D01*
X022973Y024221D01*
X023063Y024311D01*
X023063Y024762D01*
X023246Y024762D02*
X023607Y024762D01*
X023427Y024762D02*
X023427Y024221D01*
X024334Y024491D02*
X024694Y024491D01*
X024878Y024491D02*
X025238Y024491D01*
X025421Y024221D02*
X025782Y024491D01*
X025421Y024762D01*
X027370Y024762D02*
X027370Y024401D01*
X027551Y024221D01*
X027731Y024401D01*
X027731Y024762D01*
X027914Y024491D02*
X028275Y024491D01*
X028458Y024311D02*
X028548Y024221D01*
X028728Y024221D01*
X028819Y024311D01*
X029002Y024311D02*
X029002Y024762D01*
X028819Y024672D02*
X028728Y024762D01*
X028548Y024762D01*
X028458Y024672D01*
X028458Y024311D01*
X029002Y024311D02*
X029092Y024221D01*
X029272Y024221D01*
X029362Y024311D01*
X029362Y024762D01*
X029545Y024762D02*
X029906Y024762D01*
X029726Y024762D02*
X029726Y024221D01*
X030633Y024491D02*
X030994Y024491D01*
X031177Y024491D02*
X031537Y024491D01*
X031721Y024221D02*
X032081Y024491D01*
X031721Y024762D01*
X036499Y015546D02*
X036769Y015185D01*
X036499Y015002D02*
X036499Y014641D01*
X036499Y014458D02*
X036499Y014098D01*
X036228Y013371D02*
X036228Y013010D01*
X036228Y013190D02*
X036769Y013190D01*
X036679Y012827D02*
X036228Y012827D01*
X036228Y012466D02*
X036679Y012466D01*
X036769Y012556D01*
X036769Y012737D01*
X036679Y012827D01*
X036679Y012283D02*
X036769Y012193D01*
X036769Y012013D01*
X036679Y011922D01*
X036318Y011922D01*
X036228Y012013D01*
X036228Y012193D01*
X036318Y012283D01*
X036499Y011739D02*
X036499Y011379D01*
X036589Y011196D02*
X036228Y011196D01*
X036589Y011196D02*
X036769Y011015D01*
X036589Y010835D01*
X036228Y010835D01*
X036228Y015185D02*
X036499Y015546D01*
X015826Y024311D02*
X015736Y024221D01*
X015556Y024221D01*
X015466Y024311D01*
M02*
