G75*
%MOIN*%
%OFA0B0*%
%FSLAX25Y25*%
%IPPOS*%
%LPD*%
%AMOC8*
5,1,8,0,0,1.08239X$1,22.5*
%
%ADD10C,0.00000*%
%ADD11C,0.00300*%
%ADD12C,0.00500*%
%ADD13C,0.00001*%
%ADD14R,0.03200X0.00800*%
%ADD15R,0.02400X0.00800*%
%ADD16R,0.05600X0.00800*%
%ADD17R,0.06400X0.00800*%
%ADD18R,0.08000X0.00800*%
%ADD19R,0.07200X0.00800*%
%ADD20R,0.04800X0.00800*%
%ADD21R,0.04000X0.00800*%
%ADD22R,0.01600X0.00800*%
%ADD23R,0.00800X0.00800*%
%ADD24R,0.08800X0.00800*%
%ADD25R,0.10400X0.00800*%
%ADD26R,0.11200X0.00800*%
%ADD27R,0.13600X0.00800*%
%ADD28R,0.16000X0.00800*%
%ADD29R,0.18400X0.00800*%
%ADD30R,0.42400X0.00800*%
%ADD31R,0.38400X0.00800*%
%ADD32R,0.36800X0.00800*%
%ADD33R,0.36000X0.00800*%
%ADD34R,0.33600X0.00800*%
%ADD35R,0.31200X0.00800*%
%ADD36R,0.28800X0.00800*%
%ADD37R,0.20800X0.00800*%
%ADD38R,0.20000X0.00800*%
%ADD39R,0.12000X0.00800*%
D10*
X0001800Y0001800D02*
X0001800Y0158296D01*
X0038119Y0144517D02*
X0038121Y0144594D01*
X0038127Y0144670D01*
X0038137Y0144746D01*
X0038151Y0144821D01*
X0038168Y0144896D01*
X0038190Y0144969D01*
X0038215Y0145042D01*
X0038245Y0145113D01*
X0038277Y0145182D01*
X0038314Y0145249D01*
X0038353Y0145315D01*
X0038396Y0145378D01*
X0038443Y0145439D01*
X0038492Y0145498D01*
X0038545Y0145554D01*
X0038600Y0145607D01*
X0038658Y0145657D01*
X0038718Y0145704D01*
X0038781Y0145748D01*
X0038846Y0145789D01*
X0038913Y0145826D01*
X0038982Y0145860D01*
X0039052Y0145890D01*
X0039124Y0145916D01*
X0039198Y0145938D01*
X0039272Y0145957D01*
X0039347Y0145972D01*
X0039423Y0145983D01*
X0039499Y0145990D01*
X0039576Y0145993D01*
X0039652Y0145992D01*
X0039729Y0145987D01*
X0039805Y0145978D01*
X0039881Y0145965D01*
X0039955Y0145948D01*
X0040029Y0145928D01*
X0040102Y0145903D01*
X0040173Y0145875D01*
X0040243Y0145843D01*
X0040311Y0145808D01*
X0040377Y0145769D01*
X0040441Y0145727D01*
X0040502Y0145681D01*
X0040562Y0145632D01*
X0040618Y0145581D01*
X0040672Y0145526D01*
X0040723Y0145469D01*
X0040771Y0145409D01*
X0040816Y0145347D01*
X0040857Y0145282D01*
X0040895Y0145216D01*
X0040930Y0145148D01*
X0040960Y0145077D01*
X0040988Y0145006D01*
X0041011Y0144933D01*
X0041031Y0144859D01*
X0041047Y0144784D01*
X0041059Y0144708D01*
X0041067Y0144632D01*
X0041071Y0144555D01*
X0041071Y0144479D01*
X0041067Y0144402D01*
X0041059Y0144326D01*
X0041047Y0144250D01*
X0041031Y0144175D01*
X0041011Y0144101D01*
X0040988Y0144028D01*
X0040960Y0143957D01*
X0040930Y0143886D01*
X0040895Y0143818D01*
X0040857Y0143752D01*
X0040816Y0143687D01*
X0040771Y0143625D01*
X0040723Y0143565D01*
X0040672Y0143508D01*
X0040618Y0143453D01*
X0040562Y0143402D01*
X0040502Y0143353D01*
X0040441Y0143307D01*
X0040377Y0143265D01*
X0040311Y0143226D01*
X0040243Y0143191D01*
X0040173Y0143159D01*
X0040102Y0143131D01*
X0040029Y0143106D01*
X0039955Y0143086D01*
X0039881Y0143069D01*
X0039805Y0143056D01*
X0039729Y0143047D01*
X0039652Y0143042D01*
X0039576Y0143041D01*
X0039499Y0143044D01*
X0039423Y0143051D01*
X0039347Y0143062D01*
X0039272Y0143077D01*
X0039198Y0143096D01*
X0039124Y0143118D01*
X0039052Y0143144D01*
X0038982Y0143174D01*
X0038913Y0143208D01*
X0038846Y0143245D01*
X0038781Y0143286D01*
X0038718Y0143330D01*
X0038658Y0143377D01*
X0038600Y0143427D01*
X0038545Y0143480D01*
X0038492Y0143536D01*
X0038443Y0143595D01*
X0038396Y0143656D01*
X0038353Y0143719D01*
X0038314Y0143785D01*
X0038277Y0143852D01*
X0038245Y0143921D01*
X0038215Y0143992D01*
X0038190Y0144065D01*
X0038168Y0144138D01*
X0038151Y0144213D01*
X0038137Y0144288D01*
X0038127Y0144364D01*
X0038121Y0144440D01*
X0038119Y0144517D01*
X0001800Y0158295D02*
X0092352Y0158295D01*
X0092351Y0158296D02*
X0092351Y0001800D01*
X0001800Y0001800D01*
X0017039Y0021141D02*
X0016935Y0021437D01*
X0016900Y0021748D01*
X0016936Y0022095D01*
X0017056Y0022423D01*
X0017252Y0022711D01*
X0017513Y0022942D01*
X0017823Y0023103D01*
X0018162Y0023182D01*
X0018511Y0023176D01*
X0018848Y0023085D01*
X0019152Y0022914D01*
X0019405Y0022674D01*
X0019591Y0022379D01*
X0019700Y0022048D01*
X0019726Y0021735D01*
X0019683Y0021424D01*
X0019573Y0021130D01*
X0019401Y0020868D01*
X0019176Y0020649D01*
X0018909Y0020484D01*
X0018612Y0020383D01*
X0018300Y0020348D01*
X0017988Y0020383D01*
X0017693Y0020487D01*
X0017427Y0020653D01*
X0017205Y0020875D01*
X0017039Y0021141D01*
X0053080Y0144517D02*
X0053082Y0144594D01*
X0053088Y0144670D01*
X0053098Y0144746D01*
X0053112Y0144821D01*
X0053129Y0144896D01*
X0053151Y0144969D01*
X0053176Y0145042D01*
X0053206Y0145113D01*
X0053238Y0145182D01*
X0053275Y0145249D01*
X0053314Y0145315D01*
X0053357Y0145378D01*
X0053404Y0145439D01*
X0053453Y0145498D01*
X0053506Y0145554D01*
X0053561Y0145607D01*
X0053619Y0145657D01*
X0053679Y0145704D01*
X0053742Y0145748D01*
X0053807Y0145789D01*
X0053874Y0145826D01*
X0053943Y0145860D01*
X0054013Y0145890D01*
X0054085Y0145916D01*
X0054159Y0145938D01*
X0054233Y0145957D01*
X0054308Y0145972D01*
X0054384Y0145983D01*
X0054460Y0145990D01*
X0054537Y0145993D01*
X0054613Y0145992D01*
X0054690Y0145987D01*
X0054766Y0145978D01*
X0054842Y0145965D01*
X0054916Y0145948D01*
X0054990Y0145928D01*
X0055063Y0145903D01*
X0055134Y0145875D01*
X0055204Y0145843D01*
X0055272Y0145808D01*
X0055338Y0145769D01*
X0055402Y0145727D01*
X0055463Y0145681D01*
X0055523Y0145632D01*
X0055579Y0145581D01*
X0055633Y0145526D01*
X0055684Y0145469D01*
X0055732Y0145409D01*
X0055777Y0145347D01*
X0055818Y0145282D01*
X0055856Y0145216D01*
X0055891Y0145148D01*
X0055921Y0145077D01*
X0055949Y0145006D01*
X0055972Y0144933D01*
X0055992Y0144859D01*
X0056008Y0144784D01*
X0056020Y0144708D01*
X0056028Y0144632D01*
X0056032Y0144555D01*
X0056032Y0144479D01*
X0056028Y0144402D01*
X0056020Y0144326D01*
X0056008Y0144250D01*
X0055992Y0144175D01*
X0055972Y0144101D01*
X0055949Y0144028D01*
X0055921Y0143957D01*
X0055891Y0143886D01*
X0055856Y0143818D01*
X0055818Y0143752D01*
X0055777Y0143687D01*
X0055732Y0143625D01*
X0055684Y0143565D01*
X0055633Y0143508D01*
X0055579Y0143453D01*
X0055523Y0143402D01*
X0055463Y0143353D01*
X0055402Y0143307D01*
X0055338Y0143265D01*
X0055272Y0143226D01*
X0055204Y0143191D01*
X0055134Y0143159D01*
X0055063Y0143131D01*
X0054990Y0143106D01*
X0054916Y0143086D01*
X0054842Y0143069D01*
X0054766Y0143056D01*
X0054690Y0143047D01*
X0054613Y0143042D01*
X0054537Y0143041D01*
X0054460Y0143044D01*
X0054384Y0143051D01*
X0054308Y0143062D01*
X0054233Y0143077D01*
X0054159Y0143096D01*
X0054085Y0143118D01*
X0054013Y0143144D01*
X0053943Y0143174D01*
X0053874Y0143208D01*
X0053807Y0143245D01*
X0053742Y0143286D01*
X0053679Y0143330D01*
X0053619Y0143377D01*
X0053561Y0143427D01*
X0053506Y0143480D01*
X0053453Y0143536D01*
X0053404Y0143595D01*
X0053357Y0143656D01*
X0053314Y0143719D01*
X0053275Y0143785D01*
X0053238Y0143852D01*
X0053206Y0143921D01*
X0053176Y0143992D01*
X0053151Y0144065D01*
X0053129Y0144138D01*
X0053112Y0144213D01*
X0053098Y0144288D01*
X0053088Y0144364D01*
X0053082Y0144440D01*
X0053080Y0144517D01*
D11*
X0057743Y0090496D02*
X0057743Y0086793D01*
X0057126Y0086793D02*
X0058361Y0086793D01*
X0059575Y0088027D02*
X0062044Y0088027D01*
X0062044Y0087410D02*
X0062044Y0088644D01*
X0061427Y0089261D01*
X0060192Y0089261D01*
X0059575Y0088644D01*
X0059575Y0088027D01*
X0060192Y0086793D02*
X0061427Y0086793D01*
X0062044Y0087410D01*
X0058361Y0090496D02*
X0057743Y0090496D01*
X0055905Y0088644D02*
X0055905Y0087410D01*
X0055288Y0086793D01*
X0054054Y0086793D01*
X0053436Y0088027D02*
X0053436Y0088644D01*
X0054054Y0089261D01*
X0055288Y0089261D01*
X0055905Y0088644D01*
X0055905Y0088027D02*
X0053436Y0088027D01*
X0052222Y0088644D02*
X0052222Y0087410D01*
X0051605Y0086793D01*
X0049753Y0086793D01*
X0049753Y0089261D02*
X0051605Y0089261D01*
X0052222Y0088644D01*
X0048539Y0089261D02*
X0047304Y0089261D01*
X0047922Y0089878D02*
X0047922Y0087410D01*
X0047304Y0086793D01*
X0046083Y0086793D02*
X0046083Y0089261D01*
X0046083Y0088027D02*
X0044849Y0089261D01*
X0044232Y0089261D01*
X0043014Y0089261D02*
X0042397Y0089261D01*
X0042397Y0086793D01*
X0043014Y0086793D02*
X0041780Y0086793D01*
X0040559Y0087410D02*
X0040559Y0088644D01*
X0039942Y0089261D01*
X0038090Y0089261D01*
X0036876Y0089261D02*
X0035024Y0089261D01*
X0034407Y0088644D01*
X0034407Y0087410D01*
X0035024Y0086793D01*
X0036876Y0086793D01*
X0038090Y0086793D02*
X0039942Y0086793D01*
X0040559Y0087410D01*
X0042397Y0090496D02*
X0042397Y0091113D01*
X0036876Y0089261D02*
X0036876Y0085558D01*
X0033192Y0086793D02*
X0031958Y0086793D01*
X0032575Y0086793D02*
X0032575Y0089261D01*
X0033192Y0089261D01*
X0032575Y0090496D02*
X0032575Y0091113D01*
X0030737Y0089261D02*
X0030737Y0086793D01*
X0030737Y0089261D02*
X0028885Y0089261D01*
X0028268Y0088644D01*
X0028268Y0086793D01*
X0027054Y0086793D02*
X0027054Y0090496D01*
X0025202Y0089261D02*
X0027054Y0088027D01*
X0025202Y0086793D01*
X0025463Y0077948D02*
X0024011Y0077948D01*
X0023528Y0077464D01*
X0023528Y0075529D01*
X0024011Y0075045D01*
X0025463Y0075045D01*
X0025463Y0077948D01*
X0026474Y0077948D02*
X0026474Y0075045D01*
X0028409Y0077948D01*
X0028409Y0075045D01*
X0029421Y0075529D02*
X0029421Y0076497D01*
X0030388Y0076497D01*
X0029421Y0077464D02*
X0029904Y0077948D01*
X0030872Y0077948D01*
X0031356Y0077464D01*
X0031356Y0075529D01*
X0030872Y0075045D01*
X0029904Y0075045D01*
X0029421Y0075529D01*
X0029904Y0070074D02*
X0029421Y0069590D01*
X0029421Y0067655D01*
X0029904Y0067171D01*
X0030872Y0067171D01*
X0031356Y0067655D01*
X0031356Y0069590D01*
X0030872Y0070074D01*
X0029904Y0070074D01*
X0028409Y0069106D02*
X0027442Y0070074D01*
X0027442Y0067171D01*
X0028409Y0067171D02*
X0026474Y0067171D01*
X0025463Y0067655D02*
X0024979Y0067171D01*
X0024011Y0067171D01*
X0023528Y0067655D01*
X0023528Y0068622D01*
X0024011Y0069106D01*
X0024495Y0069106D01*
X0025463Y0068622D01*
X0025463Y0070074D01*
X0023528Y0070074D01*
X0024011Y0062200D02*
X0024979Y0062200D01*
X0025463Y0061716D01*
X0026474Y0061716D02*
X0026474Y0059781D01*
X0026958Y0059297D01*
X0027925Y0059297D01*
X0028409Y0059781D01*
X0028409Y0061716D01*
X0027925Y0062200D01*
X0026958Y0062200D01*
X0026474Y0061716D01*
X0025463Y0059297D02*
X0023528Y0061232D01*
X0023528Y0061716D01*
X0024011Y0062200D01*
X0023528Y0059297D02*
X0025463Y0059297D01*
X0024979Y0054326D02*
X0024011Y0054326D01*
X0023528Y0053842D01*
X0025463Y0051907D01*
X0024979Y0051423D01*
X0024011Y0051423D01*
X0023528Y0051907D01*
X0023528Y0053842D01*
X0024979Y0054326D02*
X0025463Y0053842D01*
X0025463Y0051907D01*
X0026474Y0051907D02*
X0026474Y0053842D01*
X0026958Y0054326D01*
X0027925Y0054326D01*
X0028409Y0053842D01*
X0028409Y0051907D01*
X0027925Y0051423D01*
X0026958Y0051423D01*
X0026474Y0051907D01*
X0029406Y0051423D02*
X0030374Y0051423D01*
X0029890Y0051423D02*
X0029890Y0054326D01*
X0030374Y0054326D02*
X0029406Y0054326D01*
X0031385Y0053842D02*
X0031385Y0052874D01*
X0031869Y0052391D01*
X0033320Y0052391D01*
X0033320Y0051423D02*
X0033320Y0054326D01*
X0031869Y0054326D01*
X0031385Y0053842D01*
X0034332Y0053842D02*
X0034815Y0054326D01*
X0035783Y0054326D01*
X0036267Y0053842D01*
X0036267Y0051907D01*
X0035783Y0051423D01*
X0034815Y0051423D01*
X0034332Y0051907D01*
X0034332Y0052874D01*
X0035299Y0052874D01*
X0034815Y0046452D02*
X0035783Y0046452D01*
X0036267Y0045968D01*
X0036267Y0044033D01*
X0035783Y0043549D01*
X0034815Y0043549D01*
X0034332Y0044033D01*
X0034332Y0045000D01*
X0035299Y0045000D01*
X0034332Y0045968D02*
X0034815Y0046452D01*
X0033320Y0046452D02*
X0031869Y0046452D01*
X0031385Y0045968D01*
X0031385Y0045000D01*
X0031869Y0044517D01*
X0033320Y0044517D01*
X0033320Y0043549D02*
X0033320Y0046452D01*
X0030374Y0046452D02*
X0029406Y0046452D01*
X0029890Y0046452D02*
X0029890Y0043549D01*
X0030374Y0043549D02*
X0029406Y0043549D01*
X0028409Y0044033D02*
X0027925Y0043549D01*
X0026958Y0043549D01*
X0026474Y0044033D01*
X0026474Y0045968D01*
X0026958Y0046452D01*
X0027925Y0046452D01*
X0028409Y0045968D01*
X0028409Y0044033D01*
X0025463Y0044033D02*
X0024979Y0043549D01*
X0024011Y0043549D01*
X0023528Y0044033D01*
X0023528Y0045000D01*
X0024011Y0045484D01*
X0024495Y0045484D01*
X0025463Y0045000D01*
X0025463Y0046452D01*
X0023528Y0046452D01*
X0024011Y0038578D02*
X0025463Y0037126D01*
X0023528Y0037126D01*
X0024011Y0035675D02*
X0024011Y0038578D01*
X0026474Y0038094D02*
X0026474Y0036159D01*
X0026958Y0035675D01*
X0027925Y0035675D01*
X0028409Y0036159D01*
X0028409Y0038094D01*
X0027925Y0038578D01*
X0026958Y0038578D01*
X0026474Y0038094D01*
X0029406Y0038578D02*
X0030374Y0038578D01*
X0029890Y0038578D02*
X0029890Y0035675D01*
X0030374Y0035675D02*
X0029406Y0035675D01*
X0031385Y0037126D02*
X0031385Y0038094D01*
X0031869Y0038578D01*
X0033320Y0038578D01*
X0033320Y0035675D01*
X0033320Y0036643D02*
X0031869Y0036643D01*
X0031385Y0037126D01*
X0034332Y0037126D02*
X0035299Y0037126D01*
X0034332Y0037126D02*
X0034332Y0036159D01*
X0034815Y0035675D01*
X0035783Y0035675D01*
X0036267Y0036159D01*
X0036267Y0038094D01*
X0035783Y0038578D01*
X0034815Y0038578D01*
X0034332Y0038094D01*
X0031356Y0030704D02*
X0029904Y0030704D01*
X0029421Y0030220D01*
X0029421Y0029252D01*
X0029904Y0028769D01*
X0031356Y0028769D01*
X0030388Y0028769D02*
X0029421Y0027801D01*
X0028409Y0027801D02*
X0026474Y0030704D01*
X0025463Y0030704D02*
X0025463Y0027801D01*
X0024011Y0027801D01*
X0023528Y0028285D01*
X0023528Y0030220D01*
X0024011Y0030704D01*
X0025463Y0030704D01*
X0028409Y0030704D02*
X0026474Y0027801D01*
X0026474Y0022830D02*
X0028409Y0019927D01*
X0026474Y0019927D02*
X0028409Y0022830D01*
X0029421Y0022830D02*
X0031356Y0022830D01*
X0030388Y0022830D02*
X0030388Y0019927D01*
X0025463Y0019927D02*
X0024011Y0019927D01*
X0023528Y0020411D01*
X0023528Y0022346D01*
X0024011Y0022830D01*
X0025463Y0022830D01*
X0025463Y0019927D01*
X0031356Y0027801D02*
X0031356Y0030704D01*
X0030374Y0059297D02*
X0029406Y0059297D01*
X0029890Y0059297D02*
X0029890Y0062200D01*
X0030374Y0062200D02*
X0029406Y0062200D01*
X0031385Y0061716D02*
X0031385Y0060748D01*
X0031869Y0060265D01*
X0033320Y0060265D01*
X0033320Y0059297D02*
X0033320Y0062200D01*
X0031869Y0062200D01*
X0031385Y0061716D01*
X0034332Y0061716D02*
X0034815Y0062200D01*
X0035783Y0062200D01*
X0036267Y0061716D01*
X0036267Y0059781D01*
X0035783Y0059297D01*
X0034815Y0059297D01*
X0034332Y0059781D01*
X0034332Y0060748D01*
X0035299Y0060748D01*
X0036267Y0067171D02*
X0036267Y0070074D01*
X0034815Y0070074D01*
X0034332Y0069590D01*
X0034332Y0068622D01*
X0034815Y0068139D01*
X0036267Y0068139D01*
X0037278Y0068622D02*
X0038246Y0068622D01*
X0037278Y0068622D02*
X0037278Y0067655D01*
X0037762Y0067171D01*
X0038729Y0067171D01*
X0039213Y0067655D01*
X0039213Y0069590D01*
X0038729Y0070074D01*
X0037762Y0070074D01*
X0037278Y0069590D01*
X0033320Y0070074D02*
X0032353Y0070074D01*
X0032836Y0070074D02*
X0032836Y0067171D01*
X0032353Y0067171D02*
X0033320Y0067171D01*
X0055059Y0067655D02*
X0055543Y0067171D01*
X0056510Y0067171D01*
X0056994Y0067655D01*
X0058006Y0067171D02*
X0059941Y0067171D01*
X0058973Y0067171D02*
X0058973Y0070074D01*
X0059941Y0069106D01*
X0060952Y0069590D02*
X0060952Y0067655D01*
X0061436Y0067171D01*
X0062403Y0067171D01*
X0062887Y0067655D01*
X0062887Y0069590D01*
X0062403Y0070074D01*
X0061436Y0070074D01*
X0060952Y0069590D01*
X0063884Y0070074D02*
X0064851Y0070074D01*
X0064368Y0070074D02*
X0064368Y0067171D01*
X0064851Y0067171D02*
X0063884Y0067171D01*
X0065863Y0068622D02*
X0066347Y0068139D01*
X0067798Y0068139D01*
X0067798Y0067171D02*
X0067798Y0070074D01*
X0066347Y0070074D01*
X0065863Y0069590D01*
X0065863Y0068622D01*
X0066347Y0075045D02*
X0065863Y0075529D01*
X0066347Y0075045D02*
X0067314Y0075045D01*
X0067798Y0075529D01*
X0067798Y0077464D01*
X0067314Y0077948D01*
X0066347Y0077948D01*
X0065863Y0077464D01*
X0064851Y0077464D02*
X0064851Y0075529D01*
X0064368Y0075045D01*
X0063400Y0075045D01*
X0062916Y0075529D01*
X0062916Y0077464D02*
X0063400Y0077948D01*
X0064368Y0077948D01*
X0064851Y0077464D01*
X0068810Y0077948D02*
X0068810Y0076013D01*
X0069777Y0075045D01*
X0070744Y0076013D01*
X0070744Y0077948D01*
X0070261Y0070074D02*
X0069293Y0070074D01*
X0068810Y0069590D01*
X0068810Y0068622D02*
X0069777Y0068622D01*
X0068810Y0068622D02*
X0068810Y0067655D01*
X0069293Y0067171D01*
X0070261Y0067171D01*
X0070744Y0067655D01*
X0070744Y0069590D01*
X0070261Y0070074D01*
X0070261Y0062200D02*
X0069293Y0062200D01*
X0068810Y0061716D01*
X0068810Y0060748D02*
X0069777Y0060748D01*
X0068810Y0060748D02*
X0068810Y0059781D01*
X0069293Y0059297D01*
X0070261Y0059297D01*
X0070744Y0059781D01*
X0070744Y0061716D01*
X0070261Y0062200D01*
X0067798Y0062200D02*
X0067798Y0059297D01*
X0067798Y0060265D02*
X0066347Y0060265D01*
X0065863Y0060748D01*
X0065863Y0061716D01*
X0066347Y0062200D01*
X0067798Y0062200D01*
X0064851Y0062200D02*
X0063884Y0062200D01*
X0064368Y0062200D02*
X0064368Y0059297D01*
X0064851Y0059297D02*
X0063884Y0059297D01*
X0062887Y0059781D02*
X0062887Y0061716D01*
X0062403Y0062200D01*
X0061436Y0062200D01*
X0060952Y0061716D01*
X0060952Y0059781D01*
X0061436Y0059297D01*
X0062403Y0059297D01*
X0062887Y0059781D01*
X0059941Y0059297D02*
X0058006Y0059297D01*
X0058973Y0059297D02*
X0058973Y0062200D01*
X0059941Y0061232D01*
X0056994Y0061716D02*
X0056510Y0062200D01*
X0055543Y0062200D01*
X0055059Y0061716D01*
X0055059Y0061232D01*
X0056994Y0059297D01*
X0055059Y0059297D01*
X0055543Y0054326D02*
X0056994Y0052874D01*
X0055059Y0052874D01*
X0055543Y0051423D02*
X0055543Y0054326D01*
X0058006Y0051423D02*
X0059941Y0051423D01*
X0058973Y0051423D02*
X0058973Y0054326D01*
X0059941Y0053358D01*
X0060952Y0053842D02*
X0060952Y0051907D01*
X0061436Y0051423D01*
X0062403Y0051423D01*
X0062887Y0051907D01*
X0062887Y0053842D01*
X0062403Y0054326D01*
X0061436Y0054326D01*
X0060952Y0053842D01*
X0063884Y0054326D02*
X0064851Y0054326D01*
X0064368Y0054326D02*
X0064368Y0051423D01*
X0064851Y0051423D02*
X0063884Y0051423D01*
X0065863Y0052874D02*
X0066347Y0052391D01*
X0067798Y0052391D01*
X0067798Y0051423D02*
X0067798Y0054326D01*
X0066347Y0054326D01*
X0065863Y0053842D01*
X0065863Y0052874D01*
X0068810Y0052874D02*
X0068810Y0051907D01*
X0069293Y0051423D01*
X0070261Y0051423D01*
X0070744Y0051907D01*
X0070744Y0053842D01*
X0070261Y0054326D01*
X0069293Y0054326D01*
X0068810Y0053842D01*
X0068810Y0052874D02*
X0069777Y0052874D01*
X0069293Y0046452D02*
X0070261Y0046452D01*
X0070744Y0045968D01*
X0070744Y0044033D01*
X0070261Y0043549D01*
X0069293Y0043549D01*
X0068810Y0044033D01*
X0068810Y0045000D01*
X0069777Y0045000D01*
X0068810Y0045968D02*
X0069293Y0046452D01*
X0067798Y0046452D02*
X0066347Y0046452D01*
X0065863Y0045968D01*
X0065863Y0045000D01*
X0066347Y0044517D01*
X0067798Y0044517D01*
X0067798Y0043549D02*
X0067798Y0046452D01*
X0064851Y0046452D02*
X0063884Y0046452D01*
X0064368Y0046452D02*
X0064368Y0043549D01*
X0064851Y0043549D02*
X0063884Y0043549D01*
X0062887Y0044033D02*
X0062403Y0043549D01*
X0061436Y0043549D01*
X0060952Y0044033D01*
X0060952Y0045968D01*
X0061436Y0046452D01*
X0062403Y0046452D01*
X0062887Y0045968D01*
X0062887Y0044033D01*
X0059941Y0043549D02*
X0058006Y0043549D01*
X0058973Y0043549D02*
X0058973Y0046452D01*
X0059941Y0045484D01*
X0056994Y0045000D02*
X0056994Y0044033D01*
X0056510Y0043549D01*
X0055543Y0043549D01*
X0055059Y0044033D01*
X0055059Y0044517D01*
X0055543Y0045000D01*
X0056994Y0045000D01*
X0056027Y0045968D01*
X0055059Y0046452D01*
X0057507Y0038578D02*
X0057023Y0038094D01*
X0057023Y0036159D01*
X0057507Y0035675D01*
X0058958Y0035675D01*
X0058958Y0038578D01*
X0057507Y0038578D01*
X0059970Y0038094D02*
X0059970Y0037126D01*
X0060454Y0036643D01*
X0061905Y0036643D01*
X0061905Y0035675D02*
X0061905Y0038578D01*
X0060454Y0038578D01*
X0059970Y0038094D01*
X0062916Y0035191D02*
X0064851Y0035191D01*
X0065863Y0035675D02*
X0065863Y0038578D01*
X0065863Y0037126D02*
X0067798Y0037126D01*
X0068810Y0036159D02*
X0069293Y0035675D01*
X0070261Y0035675D01*
X0070744Y0036159D01*
X0070744Y0038094D01*
X0070261Y0038578D01*
X0069293Y0038578D01*
X0068810Y0038094D01*
X0067798Y0038578D02*
X0067798Y0035675D01*
X0067798Y0030704D02*
X0066347Y0030704D01*
X0065863Y0030220D01*
X0065863Y0028285D01*
X0066347Y0027801D01*
X0067798Y0027801D01*
X0067798Y0030704D01*
X0068810Y0029736D02*
X0068810Y0027801D01*
X0068810Y0029252D02*
X0070744Y0029252D01*
X0070744Y0029736D02*
X0070744Y0027801D01*
X0070744Y0029736D02*
X0069777Y0030704D01*
X0068810Y0029736D01*
X0064851Y0030220D02*
X0064851Y0028285D01*
X0064368Y0027801D01*
X0063400Y0027801D01*
X0062916Y0028285D01*
X0062916Y0030220D02*
X0063400Y0030704D01*
X0064368Y0030704D01*
X0064851Y0030220D01*
X0064851Y0022830D02*
X0062916Y0022830D01*
X0063884Y0022830D02*
X0063884Y0019927D01*
X0065863Y0020411D02*
X0066347Y0019927D01*
X0067314Y0019927D01*
X0067798Y0020411D01*
X0067314Y0021378D02*
X0066347Y0021378D01*
X0065863Y0020895D01*
X0065863Y0020411D01*
X0065863Y0022346D02*
X0066347Y0022830D01*
X0067314Y0022830D01*
X0067798Y0022346D01*
X0067798Y0021862D01*
X0067314Y0021378D01*
X0068810Y0021378D02*
X0069293Y0020895D01*
X0070744Y0020895D01*
X0069777Y0020895D02*
X0068810Y0019927D01*
X0068810Y0021378D02*
X0068810Y0022346D01*
X0069293Y0022830D01*
X0070744Y0022830D01*
X0070744Y0019927D01*
X0055059Y0067655D02*
X0055059Y0068139D01*
X0055543Y0068622D01*
X0056027Y0068622D01*
X0055543Y0068622D02*
X0055059Y0069106D01*
X0055059Y0069590D01*
X0055543Y0070074D01*
X0056510Y0070074D01*
X0056994Y0069590D01*
D12*
X0047279Y0013283D02*
X0047279Y0012381D01*
X0047279Y0010578D02*
X0047279Y0006971D01*
X0048180Y0006971D02*
X0046377Y0006971D01*
X0044555Y0006971D02*
X0044555Y0010578D01*
X0041850Y0010578D01*
X0040948Y0009676D01*
X0040948Y0006971D01*
X0039118Y0007873D02*
X0038216Y0006971D01*
X0036412Y0006971D01*
X0035511Y0007873D01*
X0035511Y0009676D01*
X0036412Y0010578D01*
X0038216Y0010578D01*
X0039118Y0009676D01*
X0039118Y0007873D01*
X0033680Y0009676D02*
X0030073Y0009676D01*
X0028242Y0006971D02*
X0028242Y0012381D01*
X0026439Y0010578D01*
X0024635Y0012381D01*
X0024635Y0006971D01*
X0022804Y0006971D02*
X0019198Y0010578D01*
X0019198Y0011480D01*
X0020099Y0012381D01*
X0021903Y0012381D01*
X0022804Y0011480D01*
X0022804Y0006971D02*
X0019198Y0006971D01*
X0047279Y0010578D02*
X0048180Y0010578D01*
X0050011Y0010578D02*
X0050011Y0006971D01*
X0052716Y0006971D01*
X0053618Y0007873D01*
X0053618Y0010578D01*
X0055449Y0010578D02*
X0058154Y0010578D01*
X0059056Y0009676D01*
X0059056Y0007873D01*
X0058154Y0006971D01*
X0055449Y0006971D01*
X0055449Y0012381D01*
X0060887Y0011480D02*
X0060887Y0009676D01*
X0061788Y0008775D01*
X0064493Y0008775D01*
X0064493Y0006971D02*
X0064493Y0012381D01*
X0061788Y0012381D01*
X0060887Y0011480D01*
X0066324Y0011480D02*
X0067226Y0012381D01*
X0069030Y0012381D01*
X0069931Y0011480D01*
X0069931Y0010578D01*
X0069030Y0009676D01*
X0067226Y0009676D01*
X0066324Y0008775D01*
X0066324Y0007873D01*
X0067226Y0006971D01*
X0069030Y0006971D01*
X0069931Y0007873D01*
X0071762Y0006971D02*
X0075369Y0006971D01*
X0075369Y0012381D01*
X0071762Y0012381D01*
X0073566Y0009676D02*
X0075369Y0009676D01*
D13*
X0019721Y0021800D02*
X0016905Y0021800D01*
D14*
X0064200Y0093848D03*
X0066600Y0092248D03*
X0053000Y0120248D03*
X0053000Y0121048D03*
X0047400Y0121848D03*
X0047400Y0139448D03*
D15*
X0047000Y0125048D03*
X0052600Y0121848D03*
X0056600Y0117848D03*
X0056600Y0117048D03*
X0056600Y0116248D03*
X0057400Y0113048D03*
X0057400Y0112248D03*
X0064600Y0093048D03*
X0039800Y0121048D03*
X0032600Y0129048D03*
X0032600Y0138648D03*
X0025400Y0129848D03*
D16*
X0039000Y0125048D03*
X0039000Y0121848D03*
X0063000Y0101848D03*
X0063800Y0102648D03*
X0065400Y0105848D03*
X0065400Y0106648D03*
X0065400Y0107448D03*
X0066200Y0108248D03*
X0067000Y0110648D03*
X0063000Y0094648D03*
D17*
X0062600Y0095448D03*
X0061800Y0096248D03*
X0062600Y0100248D03*
X0062600Y0101048D03*
X0065800Y0109048D03*
X0066600Y0109848D03*
X0067400Y0111448D03*
X0066600Y0114648D03*
X0066600Y0117848D03*
X0065800Y0118648D03*
X0065800Y0119448D03*
X0039400Y0122648D03*
X0039400Y0123448D03*
X0039400Y0124248D03*
D18*
X0062600Y0097048D03*
X0066600Y0117048D03*
X0064200Y0121848D03*
X0064200Y0122648D03*
X0064200Y0123448D03*
D19*
X0064600Y0121048D03*
X0065400Y0120248D03*
X0067000Y0116248D03*
X0067000Y0115448D03*
X0067000Y0113848D03*
X0067000Y0113048D03*
X0067000Y0112248D03*
X0062200Y0099448D03*
X0062200Y0098648D03*
X0062200Y0097848D03*
D20*
X0064200Y0103448D03*
X0047400Y0123448D03*
X0039400Y0125848D03*
D21*
X0032600Y0129848D03*
X0047000Y0124248D03*
X0047800Y0122648D03*
X0064600Y0105048D03*
X0064600Y0104248D03*
D22*
X0057800Y0113848D03*
X0053000Y0119448D03*
X0042600Y0139448D03*
X0036200Y0138648D03*
X0039400Y0126648D03*
X0025000Y0126648D03*
X0065800Y0132248D03*
D23*
X0067800Y0127448D03*
X0058200Y0125048D03*
X0056600Y0115448D03*
X0036600Y0130648D03*
X0024600Y0129048D03*
X0024600Y0128248D03*
X0024600Y0127448D03*
D24*
X0063800Y0125048D03*
X0063800Y0124248D03*
D25*
X0063000Y0125848D03*
X0061400Y0127448D03*
D26*
X0061000Y0128248D03*
X0062600Y0126648D03*
X0029800Y0130648D03*
D27*
X0059000Y0129048D03*
D28*
X0058600Y0129848D03*
D29*
X0056600Y0130648D03*
D30*
X0045400Y0131448D03*
D31*
X0043400Y0132248D03*
D32*
X0043400Y0133048D03*
D33*
X0043800Y0133848D03*
D34*
X0044200Y0134648D03*
D35*
X0043000Y0135448D03*
D36*
X0042600Y0136248D03*
D37*
X0043400Y0137048D03*
D38*
X0042200Y0137848D03*
D39*
X0044600Y0138648D03*
M02*
