G75*
%MOIN*%
%OFA0B0*%
%FSLAX24Y24*%
%IPPOS*%
%LPD*%
%AMOC8*
5,1,8,0,0,1.08239X$1,22.5*
%
%ADD10C,0.0000*%
%ADD11C,0.0555*%
%ADD12C,0.0437*%
%ADD13C,0.0591*%
%ADD14R,0.0591X0.0591*%
%ADD15C,0.0520*%
%ADD16C,0.0280*%
%ADD17C,0.0160*%
%ADD18C,0.0100*%
%ADD19C,0.0120*%
D10*
X000881Y000911D02*
X000881Y029051D01*
X037433Y029051D01*
X037433Y000911D01*
X000881Y000911D01*
X003893Y013966D02*
X003893Y014281D01*
X003894Y014298D01*
X003899Y014315D01*
X003906Y014330D01*
X003916Y014344D01*
X003928Y014356D01*
X003942Y014366D01*
X003957Y014373D01*
X003974Y014378D01*
X003991Y014379D01*
X004008Y014378D01*
X004025Y014373D01*
X004040Y014366D01*
X004054Y014356D01*
X004066Y014344D01*
X004076Y014330D01*
X004083Y014315D01*
X004088Y014298D01*
X004089Y014281D01*
X004090Y014281D02*
X004090Y013966D01*
X003991Y013868D02*
X003974Y013869D01*
X003957Y013874D01*
X003942Y013881D01*
X003928Y013891D01*
X003916Y013903D01*
X003906Y013917D01*
X003899Y013932D01*
X003894Y013949D01*
X003893Y013966D01*
X003991Y013868D02*
X004008Y013869D01*
X004025Y013874D01*
X004040Y013881D01*
X004054Y013891D01*
X004066Y013903D01*
X004076Y013917D01*
X004083Y013932D01*
X004088Y013949D01*
X004089Y013966D01*
X006728Y013966D02*
X006728Y014281D01*
X006729Y014298D01*
X006734Y014315D01*
X006741Y014330D01*
X006751Y014344D01*
X006763Y014356D01*
X006777Y014366D01*
X006792Y014373D01*
X006809Y014378D01*
X006826Y014379D01*
X006843Y014378D01*
X006860Y014373D01*
X006875Y014366D01*
X006889Y014356D01*
X006901Y014344D01*
X006911Y014330D01*
X006918Y014315D01*
X006923Y014298D01*
X006924Y014281D01*
X006924Y013966D01*
X006826Y013868D02*
X006809Y013869D01*
X006792Y013874D01*
X006777Y013881D01*
X006763Y013891D01*
X006751Y013903D01*
X006741Y013917D01*
X006734Y013932D01*
X006729Y013949D01*
X006728Y013966D01*
X006826Y013868D02*
X006843Y013869D01*
X006860Y013874D01*
X006875Y013881D01*
X006889Y013891D01*
X006901Y013903D01*
X006911Y013917D01*
X006918Y013932D01*
X006923Y013949D01*
X006924Y013966D01*
X013070Y013966D02*
X013070Y014281D01*
X013071Y014281D02*
X013072Y014298D01*
X013077Y014315D01*
X013084Y014330D01*
X013094Y014344D01*
X013106Y014356D01*
X013120Y014366D01*
X013135Y014373D01*
X013152Y014378D01*
X013169Y014379D01*
X013186Y014378D01*
X013203Y014373D01*
X013218Y014366D01*
X013232Y014356D01*
X013244Y014344D01*
X013254Y014330D01*
X013261Y014315D01*
X013266Y014298D01*
X013267Y014281D01*
X013267Y013966D01*
X013169Y013868D02*
X013152Y013869D01*
X013135Y013874D01*
X013120Y013881D01*
X013106Y013891D01*
X013094Y013903D01*
X013084Y013917D01*
X013077Y013932D01*
X013072Y013949D01*
X013071Y013966D01*
X013169Y013868D02*
X013186Y013869D01*
X013203Y013874D01*
X013218Y013881D01*
X013232Y013891D01*
X013244Y013903D01*
X013254Y013917D01*
X013261Y013932D01*
X013266Y013949D01*
X013267Y013966D01*
X015905Y013966D02*
X015905Y014281D01*
X015906Y014298D01*
X015911Y014315D01*
X015918Y014330D01*
X015928Y014344D01*
X015940Y014356D01*
X015954Y014366D01*
X015969Y014373D01*
X015986Y014378D01*
X016003Y014379D01*
X016020Y014378D01*
X016037Y014373D01*
X016052Y014366D01*
X016066Y014356D01*
X016078Y014344D01*
X016088Y014330D01*
X016095Y014315D01*
X016100Y014298D01*
X016101Y014281D01*
X016102Y014281D02*
X016102Y013966D01*
X016003Y013868D02*
X015986Y013869D01*
X015969Y013874D01*
X015954Y013881D01*
X015940Y013891D01*
X015928Y013903D01*
X015918Y013917D01*
X015911Y013932D01*
X015906Y013949D01*
X015905Y013966D01*
X016003Y013868D02*
X016020Y013869D01*
X016037Y013874D01*
X016052Y013881D01*
X016066Y013891D01*
X016078Y013903D01*
X016088Y013917D01*
X016095Y013932D01*
X016100Y013949D01*
X016101Y013966D01*
X022218Y013966D02*
X022218Y014281D01*
X022219Y014298D01*
X022224Y014315D01*
X022231Y014330D01*
X022241Y014344D01*
X022253Y014356D01*
X022267Y014366D01*
X022282Y014373D01*
X022299Y014378D01*
X022316Y014379D01*
X022333Y014378D01*
X022350Y014373D01*
X022365Y014366D01*
X022379Y014356D01*
X022391Y014344D01*
X022401Y014330D01*
X022408Y014315D01*
X022413Y014298D01*
X022414Y014281D01*
X022415Y014281D02*
X022415Y013966D01*
X022316Y013868D02*
X022299Y013869D01*
X022282Y013874D01*
X022267Y013881D01*
X022253Y013891D01*
X022241Y013903D01*
X022231Y013917D01*
X022224Y013932D01*
X022219Y013949D01*
X022218Y013966D01*
X022316Y013868D02*
X022333Y013869D01*
X022350Y013874D01*
X022365Y013881D01*
X022379Y013891D01*
X022391Y013903D01*
X022401Y013917D01*
X022408Y013932D01*
X022413Y013949D01*
X022414Y013966D01*
X025052Y013966D02*
X025052Y014281D01*
X025053Y014281D02*
X025054Y014298D01*
X025059Y014315D01*
X025066Y014330D01*
X025076Y014344D01*
X025088Y014356D01*
X025102Y014366D01*
X025117Y014373D01*
X025134Y014378D01*
X025151Y014379D01*
X025168Y014378D01*
X025185Y014373D01*
X025200Y014366D01*
X025214Y014356D01*
X025226Y014344D01*
X025236Y014330D01*
X025243Y014315D01*
X025248Y014298D01*
X025249Y014281D01*
X025249Y013966D01*
X025151Y013868D02*
X025134Y013869D01*
X025117Y013874D01*
X025102Y013881D01*
X025088Y013891D01*
X025076Y013903D01*
X025066Y013917D01*
X025059Y013932D01*
X025054Y013949D01*
X025053Y013966D01*
X025151Y013868D02*
X025168Y013869D01*
X025185Y013874D01*
X025200Y013881D01*
X025214Y013891D01*
X025226Y013903D01*
X025236Y013917D01*
X025243Y013932D01*
X025248Y013949D01*
X025249Y013966D01*
X031390Y013966D02*
X031390Y014281D01*
X031391Y014298D01*
X031396Y014315D01*
X031403Y014330D01*
X031413Y014344D01*
X031425Y014356D01*
X031439Y014366D01*
X031454Y014373D01*
X031471Y014378D01*
X031488Y014379D01*
X031505Y014378D01*
X031522Y014373D01*
X031537Y014366D01*
X031551Y014356D01*
X031563Y014344D01*
X031573Y014330D01*
X031580Y014315D01*
X031585Y014298D01*
X031586Y014281D01*
X031586Y013966D01*
X031488Y013868D02*
X031471Y013869D01*
X031454Y013874D01*
X031439Y013881D01*
X031425Y013891D01*
X031413Y013903D01*
X031403Y013917D01*
X031396Y013932D01*
X031391Y013949D01*
X031390Y013966D01*
X031488Y013868D02*
X031505Y013869D01*
X031522Y013874D01*
X031537Y013881D01*
X031551Y013891D01*
X031563Y013903D01*
X031573Y013917D01*
X031580Y013932D01*
X031585Y013949D01*
X031586Y013966D01*
X034224Y013966D02*
X034224Y014281D01*
X034225Y014281D02*
X034226Y014298D01*
X034231Y014315D01*
X034238Y014330D01*
X034248Y014344D01*
X034260Y014356D01*
X034274Y014366D01*
X034289Y014373D01*
X034306Y014378D01*
X034323Y014379D01*
X034340Y014378D01*
X034357Y014373D01*
X034372Y014366D01*
X034386Y014356D01*
X034398Y014344D01*
X034408Y014330D01*
X034415Y014315D01*
X034420Y014298D01*
X034421Y014281D01*
X034421Y013966D01*
X034323Y013868D02*
X034306Y013869D01*
X034289Y013874D01*
X034274Y013881D01*
X034260Y013891D01*
X034248Y013903D01*
X034238Y013917D01*
X034231Y013932D01*
X034226Y013949D01*
X034225Y013966D01*
X034323Y013868D02*
X034340Y013869D01*
X034357Y013874D01*
X034372Y013881D01*
X034386Y013891D01*
X034398Y013903D01*
X034408Y013917D01*
X034415Y013932D01*
X034420Y013949D01*
X034421Y013966D01*
X034421Y028110D02*
X034421Y028425D01*
X034323Y028523D02*
X034306Y028522D01*
X034289Y028517D01*
X034274Y028510D01*
X034260Y028500D01*
X034248Y028488D01*
X034238Y028474D01*
X034231Y028459D01*
X034226Y028442D01*
X034225Y028425D01*
X034224Y028425D02*
X034224Y028110D01*
X034225Y028110D02*
X034226Y028093D01*
X034231Y028076D01*
X034238Y028061D01*
X034248Y028047D01*
X034260Y028035D01*
X034274Y028025D01*
X034289Y028018D01*
X034306Y028013D01*
X034323Y028012D01*
X034340Y028013D01*
X034357Y028018D01*
X034372Y028025D01*
X034386Y028035D01*
X034398Y028047D01*
X034408Y028061D01*
X034415Y028076D01*
X034420Y028093D01*
X034421Y028110D01*
X034421Y028425D02*
X034420Y028442D01*
X034415Y028459D01*
X034408Y028474D01*
X034398Y028488D01*
X034386Y028500D01*
X034372Y028510D01*
X034357Y028517D01*
X034340Y028522D01*
X034323Y028523D01*
X031586Y028425D02*
X031586Y028110D01*
X031488Y028012D02*
X031471Y028013D01*
X031454Y028018D01*
X031439Y028025D01*
X031425Y028035D01*
X031413Y028047D01*
X031403Y028061D01*
X031396Y028076D01*
X031391Y028093D01*
X031390Y028110D01*
X031390Y028425D01*
X031391Y028442D01*
X031396Y028459D01*
X031403Y028474D01*
X031413Y028488D01*
X031425Y028500D01*
X031439Y028510D01*
X031454Y028517D01*
X031471Y028522D01*
X031488Y028523D01*
X031505Y028522D01*
X031522Y028517D01*
X031537Y028510D01*
X031551Y028500D01*
X031563Y028488D01*
X031573Y028474D01*
X031580Y028459D01*
X031585Y028442D01*
X031586Y028425D01*
X031586Y028110D02*
X031585Y028093D01*
X031580Y028076D01*
X031573Y028061D01*
X031563Y028047D01*
X031551Y028035D01*
X031537Y028025D01*
X031522Y028018D01*
X031505Y028013D01*
X031488Y028012D01*
X025249Y028110D02*
X025249Y028425D01*
X025151Y028523D02*
X025134Y028522D01*
X025117Y028517D01*
X025102Y028510D01*
X025088Y028500D01*
X025076Y028488D01*
X025066Y028474D01*
X025059Y028459D01*
X025054Y028442D01*
X025053Y028425D01*
X025052Y028425D02*
X025052Y028110D01*
X025053Y028110D02*
X025054Y028093D01*
X025059Y028076D01*
X025066Y028061D01*
X025076Y028047D01*
X025088Y028035D01*
X025102Y028025D01*
X025117Y028018D01*
X025134Y028013D01*
X025151Y028012D01*
X025168Y028013D01*
X025185Y028018D01*
X025200Y028025D01*
X025214Y028035D01*
X025226Y028047D01*
X025236Y028061D01*
X025243Y028076D01*
X025248Y028093D01*
X025249Y028110D01*
X025249Y028425D02*
X025248Y028442D01*
X025243Y028459D01*
X025236Y028474D01*
X025226Y028488D01*
X025214Y028500D01*
X025200Y028510D01*
X025185Y028517D01*
X025168Y028522D01*
X025151Y028523D01*
X022415Y028425D02*
X022415Y028110D01*
X022316Y028012D02*
X022299Y028013D01*
X022282Y028018D01*
X022267Y028025D01*
X022253Y028035D01*
X022241Y028047D01*
X022231Y028061D01*
X022224Y028076D01*
X022219Y028093D01*
X022218Y028110D01*
X022218Y028425D01*
X022219Y028442D01*
X022224Y028459D01*
X022231Y028474D01*
X022241Y028488D01*
X022253Y028500D01*
X022267Y028510D01*
X022282Y028517D01*
X022299Y028522D01*
X022316Y028523D01*
X022333Y028522D01*
X022350Y028517D01*
X022365Y028510D01*
X022379Y028500D01*
X022391Y028488D01*
X022401Y028474D01*
X022408Y028459D01*
X022413Y028442D01*
X022414Y028425D01*
X022414Y028110D02*
X022413Y028093D01*
X022408Y028076D01*
X022401Y028061D01*
X022391Y028047D01*
X022379Y028035D01*
X022365Y028025D01*
X022350Y028018D01*
X022333Y028013D01*
X022316Y028012D01*
X016102Y028110D02*
X016102Y028425D01*
X016003Y028523D02*
X015986Y028522D01*
X015969Y028517D01*
X015954Y028510D01*
X015940Y028500D01*
X015928Y028488D01*
X015918Y028474D01*
X015911Y028459D01*
X015906Y028442D01*
X015905Y028425D01*
X015905Y028110D01*
X015906Y028093D01*
X015911Y028076D01*
X015918Y028061D01*
X015928Y028047D01*
X015940Y028035D01*
X015954Y028025D01*
X015969Y028018D01*
X015986Y028013D01*
X016003Y028012D01*
X016020Y028013D01*
X016037Y028018D01*
X016052Y028025D01*
X016066Y028035D01*
X016078Y028047D01*
X016088Y028061D01*
X016095Y028076D01*
X016100Y028093D01*
X016101Y028110D01*
X016101Y028425D02*
X016100Y028442D01*
X016095Y028459D01*
X016088Y028474D01*
X016078Y028488D01*
X016066Y028500D01*
X016052Y028510D01*
X016037Y028517D01*
X016020Y028522D01*
X016003Y028523D01*
X013267Y028425D02*
X013267Y028110D01*
X013169Y028012D02*
X013152Y028013D01*
X013135Y028018D01*
X013120Y028025D01*
X013106Y028035D01*
X013094Y028047D01*
X013084Y028061D01*
X013077Y028076D01*
X013072Y028093D01*
X013071Y028110D01*
X013070Y028110D02*
X013070Y028425D01*
X013071Y028425D02*
X013072Y028442D01*
X013077Y028459D01*
X013084Y028474D01*
X013094Y028488D01*
X013106Y028500D01*
X013120Y028510D01*
X013135Y028517D01*
X013152Y028522D01*
X013169Y028523D01*
X013186Y028522D01*
X013203Y028517D01*
X013218Y028510D01*
X013232Y028500D01*
X013244Y028488D01*
X013254Y028474D01*
X013261Y028459D01*
X013266Y028442D01*
X013267Y028425D01*
X013267Y028110D02*
X013266Y028093D01*
X013261Y028076D01*
X013254Y028061D01*
X013244Y028047D01*
X013232Y028035D01*
X013218Y028025D01*
X013203Y028018D01*
X013186Y028013D01*
X013169Y028012D01*
X006924Y028110D02*
X006924Y028425D01*
X006826Y028523D02*
X006809Y028522D01*
X006792Y028517D01*
X006777Y028510D01*
X006763Y028500D01*
X006751Y028488D01*
X006741Y028474D01*
X006734Y028459D01*
X006729Y028442D01*
X006728Y028425D01*
X006728Y028110D01*
X006729Y028093D01*
X006734Y028076D01*
X006741Y028061D01*
X006751Y028047D01*
X006763Y028035D01*
X006777Y028025D01*
X006792Y028018D01*
X006809Y028013D01*
X006826Y028012D01*
X006843Y028013D01*
X006860Y028018D01*
X006875Y028025D01*
X006889Y028035D01*
X006901Y028047D01*
X006911Y028061D01*
X006918Y028076D01*
X006923Y028093D01*
X006924Y028110D01*
X006924Y028425D02*
X006923Y028442D01*
X006918Y028459D01*
X006911Y028474D01*
X006901Y028488D01*
X006889Y028500D01*
X006875Y028510D01*
X006860Y028517D01*
X006843Y028522D01*
X006826Y028523D01*
X004090Y028425D02*
X004090Y028110D01*
X003991Y028012D02*
X003974Y028013D01*
X003957Y028018D01*
X003942Y028025D01*
X003928Y028035D01*
X003916Y028047D01*
X003906Y028061D01*
X003899Y028076D01*
X003894Y028093D01*
X003893Y028110D01*
X003893Y028425D01*
X003894Y028442D01*
X003899Y028459D01*
X003906Y028474D01*
X003916Y028488D01*
X003928Y028500D01*
X003942Y028510D01*
X003957Y028517D01*
X003974Y028522D01*
X003991Y028523D01*
X004008Y028522D01*
X004025Y028517D01*
X004040Y028510D01*
X004054Y028500D01*
X004066Y028488D01*
X004076Y028474D01*
X004083Y028459D01*
X004088Y028442D01*
X004089Y028425D01*
X004089Y028110D02*
X004088Y028093D01*
X004083Y028076D01*
X004076Y028061D01*
X004066Y028047D01*
X004054Y028035D01*
X004040Y028025D01*
X004025Y028018D01*
X004008Y028013D01*
X003991Y028012D01*
D11*
X004454Y027322D03*
X006363Y027322D03*
X013631Y027322D03*
X015541Y027322D03*
X022779Y027322D03*
X024688Y027322D03*
X031951Y027322D03*
X033860Y027322D03*
X033860Y013179D03*
X031951Y013179D03*
X024688Y013179D03*
X022779Y013179D03*
X015541Y013179D03*
X013631Y013179D03*
X006363Y013179D03*
X004454Y013179D03*
D12*
X003991Y013905D02*
X003991Y014342D01*
X006826Y014342D02*
X006826Y013905D01*
X013169Y013905D02*
X013169Y014342D01*
X016003Y014342D02*
X016003Y013905D01*
X022316Y013905D02*
X022316Y014342D01*
X025151Y014342D02*
X025151Y013905D01*
X031488Y013905D02*
X031488Y014342D01*
X034323Y014342D02*
X034323Y013905D01*
X034323Y028049D02*
X034323Y028486D01*
X031488Y028486D02*
X031488Y028049D01*
X025151Y028049D02*
X025151Y028486D01*
X022316Y028486D02*
X022316Y028049D01*
X016003Y028049D02*
X016003Y028486D01*
X013169Y028486D02*
X013169Y028049D01*
X006826Y028049D02*
X006826Y028486D01*
X003991Y028486D02*
X003991Y028049D01*
D13*
X001381Y022955D03*
X001381Y021955D03*
X001381Y019905D03*
X001381Y018905D03*
X001381Y017905D03*
X001381Y016905D03*
X001381Y015905D03*
X009381Y015905D03*
X009381Y016905D03*
X010558Y016905D03*
X010558Y015905D03*
X010558Y017905D03*
X010558Y018905D03*
X010558Y019905D03*
X009381Y019905D03*
X009381Y018905D03*
X009381Y017905D03*
X009381Y020905D03*
X009381Y021905D03*
X009381Y022905D03*
X010558Y022955D03*
X010558Y021955D03*
X018558Y021905D03*
X018558Y022905D03*
X019706Y022955D03*
X019706Y021955D03*
X018558Y020905D03*
X018558Y019905D03*
X018558Y018905D03*
X018558Y017905D03*
X019706Y017905D03*
X019706Y018905D03*
X019706Y019905D03*
X019706Y016905D03*
X019706Y015905D03*
X018558Y015905D03*
X018558Y016905D03*
X027706Y016905D03*
X027706Y015905D03*
X028878Y015905D03*
X028878Y016905D03*
X028878Y017905D03*
X028878Y018905D03*
X028878Y019905D03*
X027706Y019905D03*
X027706Y018905D03*
X027706Y017905D03*
X027706Y020905D03*
X027706Y021905D03*
X027706Y022905D03*
X028878Y022955D03*
X028878Y021955D03*
X036878Y021905D03*
X036878Y022905D03*
X036878Y020905D03*
X036878Y019905D03*
X036878Y018905D03*
X036878Y017905D03*
X036878Y016905D03*
X036878Y015905D03*
X036878Y008761D03*
X036878Y007761D03*
X036878Y006761D03*
X036878Y005761D03*
X036878Y004761D03*
X036878Y003761D03*
X036878Y002761D03*
X036878Y001761D03*
X028878Y001761D03*
X027706Y001761D03*
X027706Y002761D03*
X027706Y003761D03*
X027706Y004761D03*
X028878Y004761D03*
X028878Y003761D03*
X028878Y002761D03*
X028878Y005761D03*
X027706Y005761D03*
X027706Y006761D03*
X027706Y007761D03*
X028878Y007811D03*
X028878Y008811D03*
X027706Y008761D03*
X019706Y008811D03*
X018558Y008761D03*
X018558Y007761D03*
X018558Y006761D03*
X018558Y005761D03*
X019706Y005761D03*
X019706Y004761D03*
X019706Y003761D03*
X019706Y002761D03*
X018558Y002761D03*
X018558Y003761D03*
X018558Y004761D03*
X018558Y001761D03*
X019706Y001761D03*
X019706Y007811D03*
X010558Y007811D03*
X009381Y007761D03*
X009381Y006761D03*
X009381Y005761D03*
X010558Y005761D03*
X010558Y004761D03*
X010558Y003761D03*
X010558Y002761D03*
X009381Y002761D03*
X009381Y003761D03*
X009381Y004761D03*
X009381Y001761D03*
X010558Y001761D03*
X010558Y008811D03*
X009381Y008761D03*
X001381Y008811D03*
X001381Y007811D03*
X001381Y005761D03*
X001381Y004761D03*
X001381Y003761D03*
X001381Y002761D03*
X001381Y001761D03*
D14*
X001381Y006761D03*
X010558Y006761D03*
X019706Y006761D03*
X028878Y006761D03*
X028878Y020905D03*
X019706Y020905D03*
X010558Y020905D03*
X001381Y020905D03*
D15*
X002013Y020987D02*
X002533Y020987D01*
X002533Y020200D02*
X002013Y020200D01*
X002013Y019412D02*
X002533Y019412D01*
X002533Y018625D02*
X002013Y018625D01*
X002013Y017837D02*
X002533Y017837D01*
X002533Y017050D02*
X002013Y017050D01*
X002013Y016263D02*
X002533Y016263D01*
X002533Y015475D02*
X002013Y015475D01*
X008241Y015475D02*
X008761Y015475D01*
X008761Y016263D02*
X008241Y016263D01*
X008241Y017050D02*
X008761Y017050D01*
X008761Y017837D02*
X008241Y017837D01*
X008241Y018625D02*
X008761Y018625D01*
X008761Y019412D02*
X008241Y019412D01*
X008241Y020200D02*
X008761Y020200D01*
X008761Y020987D02*
X008241Y020987D01*
X011190Y020987D02*
X011710Y020987D01*
X011710Y020200D02*
X011190Y020200D01*
X011190Y019412D02*
X011710Y019412D01*
X011710Y018625D02*
X011190Y018625D01*
X011190Y017837D02*
X011710Y017837D01*
X011710Y017050D02*
X011190Y017050D01*
X011190Y016263D02*
X011710Y016263D01*
X011710Y015475D02*
X011190Y015475D01*
X017419Y015475D02*
X017939Y015475D01*
X017939Y016263D02*
X017419Y016263D01*
X017419Y017050D02*
X017939Y017050D01*
X017939Y017837D02*
X017419Y017837D01*
X017419Y018625D02*
X017939Y018625D01*
X017939Y019412D02*
X017419Y019412D01*
X017419Y020200D02*
X017939Y020200D01*
X017939Y020987D02*
X017419Y020987D01*
X020337Y020987D02*
X020857Y020987D01*
X020857Y020200D02*
X020337Y020200D01*
X020337Y019412D02*
X020857Y019412D01*
X020857Y018625D02*
X020337Y018625D01*
X020337Y017837D02*
X020857Y017837D01*
X020857Y017050D02*
X020337Y017050D01*
X020337Y016263D02*
X020857Y016263D01*
X020857Y015475D02*
X020337Y015475D01*
X026566Y015475D02*
X027086Y015475D01*
X027086Y016263D02*
X026566Y016263D01*
X026566Y017050D02*
X027086Y017050D01*
X027086Y017837D02*
X026566Y017837D01*
X026566Y018625D02*
X027086Y018625D01*
X027086Y019412D02*
X026566Y019412D01*
X026566Y020200D02*
X027086Y020200D01*
X027086Y020987D02*
X026566Y020987D01*
X029509Y020987D02*
X030029Y020987D01*
X030029Y020200D02*
X029509Y020200D01*
X029509Y019412D02*
X030029Y019412D01*
X030029Y018625D02*
X029509Y018625D01*
X029509Y017837D02*
X030029Y017837D01*
X030029Y017050D02*
X029509Y017050D01*
X029509Y016263D02*
X030029Y016263D01*
X030029Y015475D02*
X029509Y015475D01*
X035738Y015475D02*
X036258Y015475D01*
X036258Y016263D02*
X035738Y016263D01*
X035738Y017050D02*
X036258Y017050D01*
X036258Y017837D02*
X035738Y017837D01*
X035738Y018625D02*
X036258Y018625D01*
X036258Y019412D02*
X035738Y019412D01*
X035738Y020200D02*
X036258Y020200D01*
X036258Y020987D02*
X035738Y020987D01*
X035738Y006843D02*
X036258Y006843D01*
X036258Y006056D02*
X035738Y006056D01*
X035738Y005269D02*
X036258Y005269D01*
X036258Y004481D02*
X035738Y004481D01*
X035738Y003694D02*
X036258Y003694D01*
X036258Y002906D02*
X035738Y002906D01*
X035738Y002119D02*
X036258Y002119D01*
X036258Y001331D02*
X035738Y001331D01*
X030029Y001331D02*
X029509Y001331D01*
X029509Y002119D02*
X030029Y002119D01*
X030029Y002906D02*
X029509Y002906D01*
X029509Y003694D02*
X030029Y003694D01*
X030029Y004481D02*
X029509Y004481D01*
X029509Y005269D02*
X030029Y005269D01*
X030029Y006056D02*
X029509Y006056D01*
X029509Y006843D02*
X030029Y006843D01*
X027086Y006843D02*
X026566Y006843D01*
X026566Y006056D02*
X027086Y006056D01*
X027086Y005269D02*
X026566Y005269D01*
X026566Y004481D02*
X027086Y004481D01*
X027086Y003694D02*
X026566Y003694D01*
X026566Y002906D02*
X027086Y002906D01*
X027086Y002119D02*
X026566Y002119D01*
X026566Y001331D02*
X027086Y001331D01*
X020857Y001331D02*
X020337Y001331D01*
X020337Y002119D02*
X020857Y002119D01*
X020857Y002906D02*
X020337Y002906D01*
X020337Y003694D02*
X020857Y003694D01*
X020857Y004481D02*
X020337Y004481D01*
X020337Y005269D02*
X020857Y005269D01*
X020857Y006056D02*
X020337Y006056D01*
X020337Y006843D02*
X020857Y006843D01*
X017939Y006843D02*
X017419Y006843D01*
X017419Y006056D02*
X017939Y006056D01*
X017939Y005269D02*
X017419Y005269D01*
X017419Y004481D02*
X017939Y004481D01*
X017939Y003694D02*
X017419Y003694D01*
X017419Y002906D02*
X017939Y002906D01*
X017939Y002119D02*
X017419Y002119D01*
X017419Y001331D02*
X017939Y001331D01*
X011710Y001331D02*
X011190Y001331D01*
X011190Y002119D02*
X011710Y002119D01*
X011710Y002906D02*
X011190Y002906D01*
X011190Y003694D02*
X011710Y003694D01*
X011710Y004481D02*
X011190Y004481D01*
X011190Y005269D02*
X011710Y005269D01*
X011710Y006056D02*
X011190Y006056D01*
X011190Y006843D02*
X011710Y006843D01*
X008761Y006843D02*
X008241Y006843D01*
X008241Y006056D02*
X008761Y006056D01*
X008761Y005269D02*
X008241Y005269D01*
X008241Y004481D02*
X008761Y004481D01*
X008761Y003694D02*
X008241Y003694D01*
X008241Y002906D02*
X008761Y002906D01*
X008761Y002119D02*
X008241Y002119D01*
X008241Y001331D02*
X008761Y001331D01*
X002533Y001331D02*
X002013Y001331D01*
X002013Y002119D02*
X002533Y002119D01*
X002533Y002906D02*
X002013Y002906D01*
X002013Y003694D02*
X002533Y003694D01*
X002533Y004481D02*
X002013Y004481D01*
X002013Y005269D02*
X002533Y005269D01*
X002533Y006056D02*
X002013Y006056D01*
X002013Y006843D02*
X002533Y006843D01*
D16*
X003031Y006356D03*
X003411Y005626D03*
X004536Y005061D03*
X005969Y005403D03*
X005929Y003659D03*
X007491Y007426D03*
X007356Y008231D03*
X008656Y008096D03*
X008436Y009176D03*
X008486Y009921D03*
X008671Y010656D03*
X010688Y011251D03*
X011058Y012011D03*
X012458Y011061D03*
X012983Y011091D03*
X012983Y012036D03*
X014073Y010281D03*
X015953Y011946D03*
X017848Y010656D03*
X017663Y009921D03*
X017613Y009176D03*
X016533Y008231D03*
X016668Y007426D03*
X017833Y008096D03*
X020386Y008746D03*
X020946Y007591D03*
X021356Y006356D03*
X021736Y005626D03*
X022861Y005061D03*
X024294Y005403D03*
X024253Y003659D03*
X025816Y007426D03*
X025681Y008231D03*
X026761Y009176D03*
X026811Y009921D03*
X026996Y010656D03*
X029008Y011251D03*
X029378Y012011D03*
X030778Y011061D03*
X031303Y011091D03*
X031303Y012036D03*
X032393Y010281D03*
X034273Y011946D03*
X036168Y010656D03*
X035983Y009921D03*
X035933Y009176D03*
X034853Y008231D03*
X034988Y007426D03*
X036153Y008096D03*
X033465Y005403D03*
X032033Y005061D03*
X030908Y005626D03*
X030528Y006356D03*
X030118Y007591D03*
X029558Y008746D03*
X026981Y008096D03*
X023221Y010281D03*
X022131Y011091D03*
X021606Y011061D03*
X022131Y012036D03*
X020206Y012011D03*
X019836Y011251D03*
X020106Y013431D03*
X020016Y013791D03*
X021186Y013791D03*
X022856Y013811D03*
X023076Y014466D03*
X025101Y011946D03*
X029188Y013791D03*
X029278Y013431D03*
X030358Y013791D03*
X032028Y013811D03*
X032248Y014466D03*
X033425Y017802D03*
X032033Y019205D03*
X030908Y019770D03*
X030528Y020500D03*
X030118Y021735D03*
X029558Y022890D03*
X026981Y022240D03*
X025816Y021570D03*
X025681Y022375D03*
X026761Y023320D03*
X026811Y024065D03*
X026996Y024800D03*
X029008Y025395D03*
X029378Y026155D03*
X030778Y025205D03*
X031303Y025235D03*
X031303Y026180D03*
X029278Y027575D03*
X029188Y027935D03*
X030358Y027935D03*
X032028Y027955D03*
X032248Y028610D03*
X034273Y026090D03*
X036168Y024800D03*
X035983Y024065D03*
X035933Y023320D03*
X034853Y022375D03*
X034988Y021570D03*
X036153Y022240D03*
X033465Y019546D03*
X032393Y024425D03*
X025101Y026090D03*
X023221Y024425D03*
X022131Y025235D03*
X021606Y025205D03*
X022131Y026180D03*
X020206Y026155D03*
X019836Y025395D03*
X017848Y024800D03*
X017663Y024065D03*
X017613Y023320D03*
X016533Y022375D03*
X016668Y021570D03*
X017833Y022240D03*
X020386Y022890D03*
X020946Y021735D03*
X021356Y020500D03*
X021736Y019770D03*
X022861Y019205D03*
X024294Y019546D03*
X024253Y017802D03*
X015106Y017802D03*
X013713Y019205D03*
X012588Y019770D03*
X012208Y020500D03*
X011798Y021735D03*
X011238Y022890D03*
X008656Y022240D03*
X007356Y022375D03*
X007491Y021570D03*
X008436Y023320D03*
X008486Y024065D03*
X008671Y024800D03*
X010688Y025395D03*
X011058Y026155D03*
X012458Y025205D03*
X012983Y025235D03*
X012983Y026180D03*
X010958Y027575D03*
X010868Y027935D03*
X012038Y027935D03*
X013708Y027955D03*
X013928Y028610D03*
X015953Y026090D03*
X014073Y024425D03*
X015146Y019546D03*
X013928Y014466D03*
X013708Y013811D03*
X012038Y013791D03*
X010958Y013431D03*
X010868Y013791D03*
X006776Y011946D03*
X004896Y010281D03*
X003806Y011091D03*
X003281Y011061D03*
X003806Y012036D03*
X001881Y012011D03*
X001511Y011251D03*
X001781Y013431D03*
X001691Y013791D03*
X002861Y013791D03*
X004531Y013811D03*
X004751Y014466D03*
X005929Y017802D03*
X004536Y019205D03*
X003411Y019770D03*
X003031Y020500D03*
X002621Y021735D03*
X002061Y022890D03*
X004896Y024425D03*
X003806Y025235D03*
X003281Y025205D03*
X003806Y026180D03*
X001881Y026155D03*
X001511Y025395D03*
X001781Y027575D03*
X001691Y027935D03*
X002861Y027935D03*
X004531Y027955D03*
X004751Y028610D03*
X006776Y026090D03*
X005969Y019546D03*
X002061Y008746D03*
X002621Y007591D03*
X011238Y008746D03*
X011798Y007591D03*
X012208Y006356D03*
X012588Y005626D03*
X013713Y005061D03*
X015146Y005403D03*
X015106Y003659D03*
X033425Y003659D03*
X020106Y027575D03*
X020016Y027935D03*
X021186Y027935D03*
X022856Y027955D03*
X023076Y028610D03*
D17*
X023316Y028055D02*
X022856Y027955D01*
X022851Y027925D01*
X022446Y027620D01*
X021051Y027620D01*
X020421Y028250D01*
X019881Y028250D01*
X019521Y027890D01*
X019521Y025280D01*
X019701Y025100D01*
X019701Y022985D01*
X019706Y022955D01*
X018558Y022905D02*
X018518Y022895D01*
X018318Y022490D01*
X017988Y021900D01*
X016458Y021900D01*
X014073Y024425D01*
X013298Y024425D01*
X013253Y024380D01*
X013253Y024155D01*
X012113Y022615D01*
X011253Y021965D01*
X011710Y020987D01*
X011798Y021735D02*
X015146Y019546D01*
X016668Y021570D02*
X017419Y020987D01*
X017393Y021005D01*
X017613Y023320D02*
X017663Y024065D01*
X017848Y024800D02*
X015953Y026090D01*
X015098Y027125D01*
X014168Y028055D01*
X013708Y027955D01*
X013703Y027925D01*
X013298Y027620D01*
X011903Y027620D01*
X011273Y028250D01*
X010733Y028250D01*
X010373Y027890D01*
X010373Y025280D01*
X010553Y025100D01*
X010553Y022985D01*
X010558Y022955D01*
X009381Y022905D02*
X009341Y022895D01*
X009141Y022490D01*
X008811Y021900D01*
X007281Y021900D01*
X004896Y024425D01*
X004121Y024425D01*
X004076Y024380D01*
X004076Y024155D01*
X002936Y022615D01*
X002076Y021965D01*
X002533Y020987D01*
X002621Y021735D02*
X005969Y019546D01*
X007491Y021570D02*
X008241Y020987D01*
X008216Y021005D01*
X008436Y023320D02*
X008486Y024065D01*
X008671Y024800D02*
X006776Y026090D01*
X005921Y027125D01*
X004991Y028055D01*
X004531Y027955D01*
X004526Y027925D01*
X004121Y027620D01*
X002726Y027620D01*
X002096Y028250D01*
X001556Y028250D01*
X001196Y027890D01*
X001196Y025280D01*
X001376Y025100D01*
X001376Y022985D01*
X001381Y022955D01*
X003356Y025190D02*
X004121Y024425D01*
X003806Y025235D02*
X003806Y026180D01*
X002411Y027575D01*
X001781Y027575D01*
X001881Y026155D02*
X003281Y025205D01*
X003356Y025190D01*
X011058Y026155D02*
X012458Y025205D01*
X012533Y025190D01*
X013298Y024425D01*
X012983Y025235D02*
X012983Y026180D01*
X011588Y027575D01*
X010958Y027575D01*
X020106Y027575D02*
X020736Y027575D01*
X022131Y026180D01*
X022131Y025235D01*
X021681Y025190D02*
X021606Y025205D01*
X020206Y026155D01*
X021681Y025190D02*
X022446Y024425D01*
X022401Y024380D01*
X022401Y024155D01*
X021261Y022615D01*
X020401Y021965D01*
X020857Y020987D01*
X020946Y021735D02*
X024294Y019546D01*
X025816Y021570D02*
X026566Y020987D01*
X026541Y021005D01*
X027136Y021900D02*
X025606Y021900D01*
X023221Y024425D01*
X022446Y024425D01*
X025101Y026090D02*
X024246Y027125D01*
X023316Y028055D01*
X025101Y026090D02*
X026996Y024800D01*
X026811Y024065D02*
X026761Y023320D01*
X027666Y022895D02*
X027706Y022905D01*
X027666Y022895D02*
X027466Y022490D01*
X027136Y021900D01*
X028878Y022955D02*
X028873Y022985D01*
X028873Y025100D01*
X028693Y025280D01*
X028693Y027890D01*
X029053Y028250D01*
X029593Y028250D01*
X030223Y027620D01*
X031618Y027620D01*
X032023Y027925D01*
X032028Y027955D01*
X032488Y028055D01*
X033418Y027125D01*
X034273Y026090D01*
X036168Y024800D01*
X035983Y024065D02*
X035933Y023320D01*
X036838Y022895D02*
X036878Y022905D01*
X036838Y022895D02*
X036638Y022490D01*
X036308Y021900D01*
X034778Y021900D01*
X032393Y024425D01*
X031618Y024425D01*
X031573Y024380D01*
X031573Y024155D01*
X030433Y022615D01*
X029573Y021965D01*
X030029Y020987D01*
X030118Y021735D02*
X033465Y019546D01*
X034988Y021570D02*
X035738Y020987D01*
X035713Y021005D01*
X031618Y024425D02*
X030853Y025190D01*
X030778Y025205D01*
X029378Y026155D01*
X029278Y027575D02*
X029908Y027575D01*
X031303Y026180D01*
X031303Y025235D01*
X029593Y014106D02*
X029053Y014106D01*
X028693Y013746D01*
X028693Y011136D01*
X028873Y010956D01*
X028873Y008841D01*
X028878Y008811D01*
X027706Y008761D02*
X027666Y008751D01*
X027466Y008346D01*
X027136Y007756D01*
X025606Y007756D01*
X023221Y010281D01*
X022446Y010281D01*
X022401Y010236D01*
X022401Y010011D01*
X021261Y008471D01*
X020401Y007821D01*
X020857Y006843D01*
X020946Y007591D02*
X024294Y005403D01*
X025816Y007426D02*
X026566Y006843D01*
X026541Y006861D01*
X029573Y007821D02*
X030029Y006843D01*
X030118Y007591D02*
X033465Y005403D01*
X034988Y007426D02*
X035738Y006843D01*
X035713Y006861D01*
X036308Y007756D02*
X034778Y007756D01*
X032393Y010281D01*
X031618Y010281D01*
X031573Y010236D01*
X031573Y010011D01*
X030433Y008471D01*
X029573Y007821D01*
X026761Y009176D02*
X026811Y009921D01*
X026996Y010656D02*
X025101Y011946D01*
X024246Y012981D01*
X023316Y013911D01*
X022856Y013811D01*
X022851Y013781D01*
X022446Y013476D01*
X021051Y013476D01*
X020421Y014106D01*
X019881Y014106D01*
X019521Y013746D01*
X019521Y011136D01*
X019701Y010956D01*
X019701Y008841D01*
X019706Y008811D01*
X018558Y008761D02*
X018518Y008751D01*
X018318Y008346D01*
X017988Y007756D01*
X016458Y007756D01*
X014073Y010281D01*
X013298Y010281D01*
X013253Y010236D01*
X013253Y010011D01*
X012113Y008471D01*
X011253Y007821D01*
X011710Y006843D01*
X011798Y007591D02*
X015146Y005403D01*
X016668Y007426D02*
X017419Y006843D01*
X017393Y006861D01*
X017613Y009176D02*
X017663Y009921D01*
X017848Y010656D02*
X015953Y011946D01*
X015098Y012981D01*
X014168Y013911D01*
X013708Y013811D01*
X013703Y013781D01*
X013298Y013476D01*
X011903Y013476D01*
X011273Y014106D01*
X010733Y014106D01*
X010373Y013746D01*
X010373Y011136D01*
X010553Y010956D01*
X010553Y008841D01*
X010558Y008811D01*
X009381Y008761D02*
X009341Y008751D01*
X009141Y008346D01*
X008811Y007756D01*
X007281Y007756D01*
X004896Y010281D01*
X004121Y010281D01*
X004076Y010236D01*
X004076Y010011D01*
X002936Y008471D01*
X002076Y007821D01*
X002533Y006843D01*
X002621Y007591D02*
X005969Y005403D01*
X007491Y007426D02*
X008241Y006843D01*
X008216Y006861D01*
X008436Y009176D02*
X008486Y009921D01*
X008671Y010656D02*
X006776Y011946D01*
X005921Y012981D01*
X004991Y013911D01*
X004531Y013811D01*
X004526Y013781D01*
X004121Y013476D01*
X002726Y013476D01*
X002096Y014106D01*
X001556Y014106D01*
X001196Y013746D01*
X001196Y011136D01*
X001376Y010956D01*
X001376Y008841D01*
X001381Y008811D01*
X003281Y011061D02*
X003356Y011046D01*
X004121Y010281D01*
X003806Y011091D02*
X003806Y012036D01*
X002411Y013431D01*
X001781Y013431D01*
X001881Y012011D02*
X003281Y011061D01*
X011058Y012011D02*
X012458Y011061D01*
X012533Y011046D01*
X013298Y010281D01*
X012983Y011091D02*
X012983Y012036D01*
X011588Y013431D01*
X010958Y013431D01*
X020106Y013431D02*
X020736Y013431D01*
X022131Y012036D01*
X022131Y011091D01*
X021681Y011046D02*
X021606Y011061D01*
X020206Y012011D01*
X021681Y011046D02*
X022446Y010281D01*
X029378Y012011D02*
X030778Y011061D01*
X030853Y011046D01*
X031618Y010281D01*
X031303Y011091D02*
X031303Y012036D01*
X029908Y013431D01*
X029278Y013431D01*
X029593Y014106D02*
X030223Y013476D01*
X031618Y013476D01*
X032023Y013781D01*
X032028Y013811D01*
X032488Y013911D01*
X033418Y012981D01*
X034273Y011946D01*
X036168Y010656D01*
X035983Y009921D02*
X035933Y009176D01*
X036838Y008751D02*
X036878Y008761D01*
X036838Y008751D02*
X036638Y008346D01*
X036308Y007756D01*
D18*
X036153Y008096D02*
X036108Y008226D01*
X036008Y008456D01*
X036848Y009356D01*
X036878Y012351D01*
X034453Y014736D01*
X031303Y014736D01*
X030358Y013791D01*
X029188Y013791D02*
X029008Y013611D01*
X029008Y011251D01*
X029053Y011226D01*
X029568Y010151D01*
X029558Y008746D01*
X027676Y009356D02*
X026836Y008456D01*
X026936Y008226D01*
X026981Y008096D01*
X026181Y008121D02*
X025681Y008231D01*
X026181Y008121D02*
X027436Y009426D01*
X027486Y011001D01*
X024021Y014466D01*
X023076Y014466D01*
X022131Y014736D02*
X025281Y014736D01*
X027706Y012351D01*
X027676Y009356D01*
X030528Y006356D02*
X031475Y005609D01*
X033425Y003659D01*
X032975Y004109D01*
X033425Y003659D02*
X035713Y001371D01*
X035738Y001331D01*
X030908Y005626D02*
X030043Y004521D01*
X030029Y004481D01*
X026541Y001371D02*
X026566Y001331D01*
X026541Y001371D02*
X024253Y003659D01*
X023803Y004109D01*
X024253Y003659D02*
X022303Y005609D01*
X021356Y006356D01*
X021736Y005626D02*
X020871Y004521D01*
X020857Y004481D01*
X017393Y001371D02*
X017419Y001331D01*
X017393Y001371D02*
X015106Y003659D01*
X014656Y004109D01*
X015106Y003659D02*
X013156Y005609D01*
X012208Y006356D01*
X012588Y005626D02*
X011723Y004521D01*
X011710Y004481D01*
X008216Y001371D02*
X008241Y001331D01*
X008216Y001371D02*
X005929Y003659D01*
X005479Y004109D01*
X005929Y003659D02*
X003979Y005609D01*
X003031Y006356D01*
X003411Y005626D02*
X002546Y004521D01*
X002533Y004481D01*
X007356Y008231D02*
X007856Y008121D01*
X009111Y009426D01*
X009161Y011001D01*
X005696Y014466D01*
X004751Y014466D01*
X003806Y014736D02*
X006956Y014736D01*
X009381Y012351D01*
X009351Y009356D01*
X008511Y008456D01*
X008611Y008226D01*
X008656Y008096D01*
X011238Y008746D02*
X011248Y010151D01*
X010733Y011226D01*
X010688Y011251D01*
X010688Y013611D01*
X010868Y013791D01*
X012038Y013791D02*
X012983Y014736D01*
X016133Y014736D01*
X018558Y012351D01*
X018528Y009356D01*
X017688Y008456D01*
X017788Y008226D01*
X017833Y008096D01*
X017033Y008121D02*
X016533Y008231D01*
X017033Y008121D02*
X018288Y009426D01*
X018338Y011001D01*
X014873Y014466D01*
X013928Y014466D01*
X015106Y017802D02*
X017393Y015515D01*
X017419Y015475D01*
X019836Y013611D02*
X019836Y011251D01*
X019881Y011226D01*
X020396Y010151D01*
X020386Y008746D01*
X019836Y013611D02*
X020016Y013791D01*
X021186Y013791D02*
X022131Y014736D01*
X024253Y017802D02*
X023803Y018252D01*
X024253Y017802D02*
X022303Y019752D01*
X021356Y020500D01*
X021736Y019770D02*
X020871Y018665D01*
X020857Y018625D01*
X024253Y017802D02*
X026541Y015515D01*
X026566Y015475D01*
X030029Y018625D02*
X030043Y018665D01*
X030908Y019770D01*
X031475Y019752D02*
X030528Y020500D01*
X031475Y019752D02*
X033425Y017802D01*
X032975Y018252D01*
X033425Y017802D02*
X035713Y015515D01*
X035738Y015475D01*
X033193Y014466D02*
X036658Y011001D01*
X036608Y009426D01*
X035353Y008121D01*
X034853Y008231D01*
X033193Y014466D02*
X032248Y014466D01*
X034853Y022375D02*
X035353Y022265D01*
X036608Y023570D01*
X036658Y025145D01*
X033193Y028610D01*
X032248Y028610D01*
X031303Y028880D02*
X034453Y028880D01*
X036878Y026495D01*
X036848Y023500D01*
X036008Y022600D01*
X036108Y022370D01*
X036153Y022240D01*
X029558Y022890D02*
X029568Y024295D01*
X029053Y025370D01*
X029008Y025395D01*
X029008Y027755D01*
X029188Y027935D01*
X030358Y027935D02*
X031303Y028880D01*
X027706Y026495D02*
X027676Y023500D01*
X026836Y022600D01*
X026936Y022370D01*
X026981Y022240D01*
X026181Y022265D02*
X025681Y022375D01*
X026181Y022265D02*
X027436Y023570D01*
X027486Y025145D01*
X024021Y028610D01*
X023076Y028610D01*
X022131Y028880D02*
X025281Y028880D01*
X027706Y026495D01*
X022131Y028880D02*
X021186Y027935D01*
X020016Y027935D02*
X019836Y027755D01*
X019836Y025395D01*
X019881Y025370D01*
X020396Y024295D01*
X020386Y022890D01*
X018528Y023500D02*
X017688Y022600D01*
X017788Y022370D01*
X017833Y022240D01*
X017033Y022265D02*
X016533Y022375D01*
X017033Y022265D02*
X018288Y023570D01*
X018338Y025145D01*
X014873Y028610D01*
X013928Y028610D01*
X012983Y028880D02*
X016133Y028880D01*
X018558Y026495D01*
X018528Y023500D01*
X013156Y019752D02*
X012208Y020500D01*
X012588Y019770D02*
X011723Y018665D01*
X011710Y018625D01*
X013156Y019752D02*
X015106Y017802D01*
X014656Y018252D01*
X011238Y022890D02*
X011248Y024295D01*
X010733Y025370D01*
X010688Y025395D01*
X010688Y027755D01*
X010868Y027935D01*
X012038Y027935D02*
X012983Y028880D01*
X009381Y026495D02*
X009351Y023500D01*
X008511Y022600D01*
X008611Y022370D01*
X008656Y022240D01*
X007856Y022265D02*
X007356Y022375D01*
X007856Y022265D02*
X009111Y023570D01*
X009161Y025145D01*
X005696Y028610D01*
X004751Y028610D01*
X003806Y028880D02*
X006956Y028880D01*
X009381Y026495D01*
X003806Y028880D02*
X002861Y027935D01*
X001691Y027935D02*
X001511Y027755D01*
X001511Y025395D01*
X001556Y025370D01*
X002071Y024295D01*
X002061Y022890D01*
X003031Y020500D02*
X003979Y019752D01*
X005929Y017802D01*
X005479Y018252D01*
X005929Y017802D02*
X008216Y015515D01*
X008241Y015475D01*
X003806Y014736D02*
X002861Y013791D01*
X001691Y013791D02*
X001511Y013611D01*
X001511Y011251D01*
X001556Y011226D01*
X002071Y010151D01*
X002061Y008746D01*
X002533Y018625D02*
X002546Y018665D01*
X003411Y019770D01*
D19*
X003979Y019752D02*
X004536Y019205D01*
X013156Y019752D02*
X013713Y019205D01*
X022303Y019752D02*
X022861Y019205D01*
X031475Y019752D02*
X032033Y019205D01*
X031475Y005609D02*
X032033Y005061D01*
X022861Y005061D02*
X022303Y005609D01*
X013713Y005061D02*
X013156Y005609D01*
X004536Y005061D02*
X003979Y005609D01*
M02*
