G75*
%MOIN*%
%OFA0B0*%
%FSLAX24Y24*%
%IPPOS*%
%LPD*%
%AMOC8*
5,1,8,0,0,1.08239X$1,22.5*
%
%ADD10C,0.0000*%
%ADD11C,0.0200*%
%ADD12C,0.0050*%
D10*
X000881Y000911D02*
X000881Y029051D01*
X037433Y029051D01*
X037433Y000911D01*
X000881Y000911D01*
X003893Y013966D02*
X003893Y014281D01*
X003894Y014298D01*
X003899Y014315D01*
X003906Y014330D01*
X003916Y014344D01*
X003928Y014356D01*
X003942Y014366D01*
X003957Y014373D01*
X003974Y014378D01*
X003991Y014379D01*
X004008Y014378D01*
X004025Y014373D01*
X004040Y014366D01*
X004054Y014356D01*
X004066Y014344D01*
X004076Y014330D01*
X004083Y014315D01*
X004088Y014298D01*
X004089Y014281D01*
X004090Y014281D02*
X004090Y013966D01*
X003991Y013868D02*
X003974Y013869D01*
X003957Y013874D01*
X003942Y013881D01*
X003928Y013891D01*
X003916Y013903D01*
X003906Y013917D01*
X003899Y013932D01*
X003894Y013949D01*
X003893Y013966D01*
X003991Y013868D02*
X004008Y013869D01*
X004025Y013874D01*
X004040Y013881D01*
X004054Y013891D01*
X004066Y013903D01*
X004076Y013917D01*
X004083Y013932D01*
X004088Y013949D01*
X004089Y013966D01*
X006728Y013966D02*
X006728Y014281D01*
X006729Y014298D01*
X006734Y014315D01*
X006741Y014330D01*
X006751Y014344D01*
X006763Y014356D01*
X006777Y014366D01*
X006792Y014373D01*
X006809Y014378D01*
X006826Y014379D01*
X006843Y014378D01*
X006860Y014373D01*
X006875Y014366D01*
X006889Y014356D01*
X006901Y014344D01*
X006911Y014330D01*
X006918Y014315D01*
X006923Y014298D01*
X006924Y014281D01*
X006924Y013966D01*
X006826Y013868D02*
X006809Y013869D01*
X006792Y013874D01*
X006777Y013881D01*
X006763Y013891D01*
X006751Y013903D01*
X006741Y013917D01*
X006734Y013932D01*
X006729Y013949D01*
X006728Y013966D01*
X006826Y013868D02*
X006843Y013869D01*
X006860Y013874D01*
X006875Y013881D01*
X006889Y013891D01*
X006901Y013903D01*
X006911Y013917D01*
X006918Y013932D01*
X006923Y013949D01*
X006924Y013966D01*
X013070Y013966D02*
X013070Y014281D01*
X013071Y014281D02*
X013072Y014298D01*
X013077Y014315D01*
X013084Y014330D01*
X013094Y014344D01*
X013106Y014356D01*
X013120Y014366D01*
X013135Y014373D01*
X013152Y014378D01*
X013169Y014379D01*
X013186Y014378D01*
X013203Y014373D01*
X013218Y014366D01*
X013232Y014356D01*
X013244Y014344D01*
X013254Y014330D01*
X013261Y014315D01*
X013266Y014298D01*
X013267Y014281D01*
X013267Y013966D01*
X013169Y013868D02*
X013152Y013869D01*
X013135Y013874D01*
X013120Y013881D01*
X013106Y013891D01*
X013094Y013903D01*
X013084Y013917D01*
X013077Y013932D01*
X013072Y013949D01*
X013071Y013966D01*
X013169Y013868D02*
X013186Y013869D01*
X013203Y013874D01*
X013218Y013881D01*
X013232Y013891D01*
X013244Y013903D01*
X013254Y013917D01*
X013261Y013932D01*
X013266Y013949D01*
X013267Y013966D01*
X015905Y013966D02*
X015905Y014281D01*
X015906Y014298D01*
X015911Y014315D01*
X015918Y014330D01*
X015928Y014344D01*
X015940Y014356D01*
X015954Y014366D01*
X015969Y014373D01*
X015986Y014378D01*
X016003Y014379D01*
X016020Y014378D01*
X016037Y014373D01*
X016052Y014366D01*
X016066Y014356D01*
X016078Y014344D01*
X016088Y014330D01*
X016095Y014315D01*
X016100Y014298D01*
X016101Y014281D01*
X016102Y014281D02*
X016102Y013966D01*
X016003Y013868D02*
X015986Y013869D01*
X015969Y013874D01*
X015954Y013881D01*
X015940Y013891D01*
X015928Y013903D01*
X015918Y013917D01*
X015911Y013932D01*
X015906Y013949D01*
X015905Y013966D01*
X016003Y013868D02*
X016020Y013869D01*
X016037Y013874D01*
X016052Y013881D01*
X016066Y013891D01*
X016078Y013903D01*
X016088Y013917D01*
X016095Y013932D01*
X016100Y013949D01*
X016101Y013966D01*
X022218Y013966D02*
X022218Y014281D01*
X022219Y014298D01*
X022224Y014315D01*
X022231Y014330D01*
X022241Y014344D01*
X022253Y014356D01*
X022267Y014366D01*
X022282Y014373D01*
X022299Y014378D01*
X022316Y014379D01*
X022333Y014378D01*
X022350Y014373D01*
X022365Y014366D01*
X022379Y014356D01*
X022391Y014344D01*
X022401Y014330D01*
X022408Y014315D01*
X022413Y014298D01*
X022414Y014281D01*
X022415Y014281D02*
X022415Y013966D01*
X022316Y013868D02*
X022299Y013869D01*
X022282Y013874D01*
X022267Y013881D01*
X022253Y013891D01*
X022241Y013903D01*
X022231Y013917D01*
X022224Y013932D01*
X022219Y013949D01*
X022218Y013966D01*
X022316Y013868D02*
X022333Y013869D01*
X022350Y013874D01*
X022365Y013881D01*
X022379Y013891D01*
X022391Y013903D01*
X022401Y013917D01*
X022408Y013932D01*
X022413Y013949D01*
X022414Y013966D01*
X025052Y013966D02*
X025052Y014281D01*
X025053Y014281D02*
X025054Y014298D01*
X025059Y014315D01*
X025066Y014330D01*
X025076Y014344D01*
X025088Y014356D01*
X025102Y014366D01*
X025117Y014373D01*
X025134Y014378D01*
X025151Y014379D01*
X025168Y014378D01*
X025185Y014373D01*
X025200Y014366D01*
X025214Y014356D01*
X025226Y014344D01*
X025236Y014330D01*
X025243Y014315D01*
X025248Y014298D01*
X025249Y014281D01*
X025249Y013966D01*
X025151Y013868D02*
X025134Y013869D01*
X025117Y013874D01*
X025102Y013881D01*
X025088Y013891D01*
X025076Y013903D01*
X025066Y013917D01*
X025059Y013932D01*
X025054Y013949D01*
X025053Y013966D01*
X025151Y013868D02*
X025168Y013869D01*
X025185Y013874D01*
X025200Y013881D01*
X025214Y013891D01*
X025226Y013903D01*
X025236Y013917D01*
X025243Y013932D01*
X025248Y013949D01*
X025249Y013966D01*
X031390Y013966D02*
X031390Y014281D01*
X031391Y014298D01*
X031396Y014315D01*
X031403Y014330D01*
X031413Y014344D01*
X031425Y014356D01*
X031439Y014366D01*
X031454Y014373D01*
X031471Y014378D01*
X031488Y014379D01*
X031505Y014378D01*
X031522Y014373D01*
X031537Y014366D01*
X031551Y014356D01*
X031563Y014344D01*
X031573Y014330D01*
X031580Y014315D01*
X031585Y014298D01*
X031586Y014281D01*
X031586Y013966D01*
X031488Y013868D02*
X031471Y013869D01*
X031454Y013874D01*
X031439Y013881D01*
X031425Y013891D01*
X031413Y013903D01*
X031403Y013917D01*
X031396Y013932D01*
X031391Y013949D01*
X031390Y013966D01*
X031488Y013868D02*
X031505Y013869D01*
X031522Y013874D01*
X031537Y013881D01*
X031551Y013891D01*
X031563Y013903D01*
X031573Y013917D01*
X031580Y013932D01*
X031585Y013949D01*
X031586Y013966D01*
X034224Y013966D02*
X034224Y014281D01*
X034225Y014281D02*
X034226Y014298D01*
X034231Y014315D01*
X034238Y014330D01*
X034248Y014344D01*
X034260Y014356D01*
X034274Y014366D01*
X034289Y014373D01*
X034306Y014378D01*
X034323Y014379D01*
X034340Y014378D01*
X034357Y014373D01*
X034372Y014366D01*
X034386Y014356D01*
X034398Y014344D01*
X034408Y014330D01*
X034415Y014315D01*
X034420Y014298D01*
X034421Y014281D01*
X034421Y013966D01*
X034323Y013868D02*
X034306Y013869D01*
X034289Y013874D01*
X034274Y013881D01*
X034260Y013891D01*
X034248Y013903D01*
X034238Y013917D01*
X034231Y013932D01*
X034226Y013949D01*
X034225Y013966D01*
X034323Y013868D02*
X034340Y013869D01*
X034357Y013874D01*
X034372Y013881D01*
X034386Y013891D01*
X034398Y013903D01*
X034408Y013917D01*
X034415Y013932D01*
X034420Y013949D01*
X034421Y013966D01*
X034421Y028110D02*
X034421Y028425D01*
X034323Y028523D02*
X034306Y028522D01*
X034289Y028517D01*
X034274Y028510D01*
X034260Y028500D01*
X034248Y028488D01*
X034238Y028474D01*
X034231Y028459D01*
X034226Y028442D01*
X034225Y028425D01*
X034224Y028425D02*
X034224Y028110D01*
X034225Y028110D02*
X034226Y028093D01*
X034231Y028076D01*
X034238Y028061D01*
X034248Y028047D01*
X034260Y028035D01*
X034274Y028025D01*
X034289Y028018D01*
X034306Y028013D01*
X034323Y028012D01*
X034340Y028013D01*
X034357Y028018D01*
X034372Y028025D01*
X034386Y028035D01*
X034398Y028047D01*
X034408Y028061D01*
X034415Y028076D01*
X034420Y028093D01*
X034421Y028110D01*
X034421Y028425D02*
X034420Y028442D01*
X034415Y028459D01*
X034408Y028474D01*
X034398Y028488D01*
X034386Y028500D01*
X034372Y028510D01*
X034357Y028517D01*
X034340Y028522D01*
X034323Y028523D01*
X031586Y028425D02*
X031586Y028110D01*
X031488Y028012D02*
X031471Y028013D01*
X031454Y028018D01*
X031439Y028025D01*
X031425Y028035D01*
X031413Y028047D01*
X031403Y028061D01*
X031396Y028076D01*
X031391Y028093D01*
X031390Y028110D01*
X031390Y028425D01*
X031391Y028442D01*
X031396Y028459D01*
X031403Y028474D01*
X031413Y028488D01*
X031425Y028500D01*
X031439Y028510D01*
X031454Y028517D01*
X031471Y028522D01*
X031488Y028523D01*
X031505Y028522D01*
X031522Y028517D01*
X031537Y028510D01*
X031551Y028500D01*
X031563Y028488D01*
X031573Y028474D01*
X031580Y028459D01*
X031585Y028442D01*
X031586Y028425D01*
X031586Y028110D02*
X031585Y028093D01*
X031580Y028076D01*
X031573Y028061D01*
X031563Y028047D01*
X031551Y028035D01*
X031537Y028025D01*
X031522Y028018D01*
X031505Y028013D01*
X031488Y028012D01*
X025249Y028110D02*
X025249Y028425D01*
X025151Y028523D02*
X025134Y028522D01*
X025117Y028517D01*
X025102Y028510D01*
X025088Y028500D01*
X025076Y028488D01*
X025066Y028474D01*
X025059Y028459D01*
X025054Y028442D01*
X025053Y028425D01*
X025052Y028425D02*
X025052Y028110D01*
X025053Y028110D02*
X025054Y028093D01*
X025059Y028076D01*
X025066Y028061D01*
X025076Y028047D01*
X025088Y028035D01*
X025102Y028025D01*
X025117Y028018D01*
X025134Y028013D01*
X025151Y028012D01*
X025168Y028013D01*
X025185Y028018D01*
X025200Y028025D01*
X025214Y028035D01*
X025226Y028047D01*
X025236Y028061D01*
X025243Y028076D01*
X025248Y028093D01*
X025249Y028110D01*
X025249Y028425D02*
X025248Y028442D01*
X025243Y028459D01*
X025236Y028474D01*
X025226Y028488D01*
X025214Y028500D01*
X025200Y028510D01*
X025185Y028517D01*
X025168Y028522D01*
X025151Y028523D01*
X022415Y028425D02*
X022415Y028110D01*
X022316Y028012D02*
X022299Y028013D01*
X022282Y028018D01*
X022267Y028025D01*
X022253Y028035D01*
X022241Y028047D01*
X022231Y028061D01*
X022224Y028076D01*
X022219Y028093D01*
X022218Y028110D01*
X022218Y028425D01*
X022219Y028442D01*
X022224Y028459D01*
X022231Y028474D01*
X022241Y028488D01*
X022253Y028500D01*
X022267Y028510D01*
X022282Y028517D01*
X022299Y028522D01*
X022316Y028523D01*
X022333Y028522D01*
X022350Y028517D01*
X022365Y028510D01*
X022379Y028500D01*
X022391Y028488D01*
X022401Y028474D01*
X022408Y028459D01*
X022413Y028442D01*
X022414Y028425D01*
X022414Y028110D02*
X022413Y028093D01*
X022408Y028076D01*
X022401Y028061D01*
X022391Y028047D01*
X022379Y028035D01*
X022365Y028025D01*
X022350Y028018D01*
X022333Y028013D01*
X022316Y028012D01*
X016102Y028110D02*
X016102Y028425D01*
X016003Y028523D02*
X015986Y028522D01*
X015969Y028517D01*
X015954Y028510D01*
X015940Y028500D01*
X015928Y028488D01*
X015918Y028474D01*
X015911Y028459D01*
X015906Y028442D01*
X015905Y028425D01*
X015905Y028110D01*
X015906Y028093D01*
X015911Y028076D01*
X015918Y028061D01*
X015928Y028047D01*
X015940Y028035D01*
X015954Y028025D01*
X015969Y028018D01*
X015986Y028013D01*
X016003Y028012D01*
X016020Y028013D01*
X016037Y028018D01*
X016052Y028025D01*
X016066Y028035D01*
X016078Y028047D01*
X016088Y028061D01*
X016095Y028076D01*
X016100Y028093D01*
X016101Y028110D01*
X016101Y028425D02*
X016100Y028442D01*
X016095Y028459D01*
X016088Y028474D01*
X016078Y028488D01*
X016066Y028500D01*
X016052Y028510D01*
X016037Y028517D01*
X016020Y028522D01*
X016003Y028523D01*
X013267Y028425D02*
X013267Y028110D01*
X013169Y028012D02*
X013152Y028013D01*
X013135Y028018D01*
X013120Y028025D01*
X013106Y028035D01*
X013094Y028047D01*
X013084Y028061D01*
X013077Y028076D01*
X013072Y028093D01*
X013071Y028110D01*
X013070Y028110D02*
X013070Y028425D01*
X013071Y028425D02*
X013072Y028442D01*
X013077Y028459D01*
X013084Y028474D01*
X013094Y028488D01*
X013106Y028500D01*
X013120Y028510D01*
X013135Y028517D01*
X013152Y028522D01*
X013169Y028523D01*
X013186Y028522D01*
X013203Y028517D01*
X013218Y028510D01*
X013232Y028500D01*
X013244Y028488D01*
X013254Y028474D01*
X013261Y028459D01*
X013266Y028442D01*
X013267Y028425D01*
X013267Y028110D02*
X013266Y028093D01*
X013261Y028076D01*
X013254Y028061D01*
X013244Y028047D01*
X013232Y028035D01*
X013218Y028025D01*
X013203Y028018D01*
X013186Y028013D01*
X013169Y028012D01*
X006924Y028110D02*
X006924Y028425D01*
X006826Y028523D02*
X006809Y028522D01*
X006792Y028517D01*
X006777Y028510D01*
X006763Y028500D01*
X006751Y028488D01*
X006741Y028474D01*
X006734Y028459D01*
X006729Y028442D01*
X006728Y028425D01*
X006728Y028110D01*
X006729Y028093D01*
X006734Y028076D01*
X006741Y028061D01*
X006751Y028047D01*
X006763Y028035D01*
X006777Y028025D01*
X006792Y028018D01*
X006809Y028013D01*
X006826Y028012D01*
X006843Y028013D01*
X006860Y028018D01*
X006875Y028025D01*
X006889Y028035D01*
X006901Y028047D01*
X006911Y028061D01*
X006918Y028076D01*
X006923Y028093D01*
X006924Y028110D01*
X006924Y028425D02*
X006923Y028442D01*
X006918Y028459D01*
X006911Y028474D01*
X006901Y028488D01*
X006889Y028500D01*
X006875Y028510D01*
X006860Y028517D01*
X006843Y028522D01*
X006826Y028523D01*
X004090Y028425D02*
X004090Y028110D01*
X003991Y028012D02*
X003974Y028013D01*
X003957Y028018D01*
X003942Y028025D01*
X003928Y028035D01*
X003916Y028047D01*
X003906Y028061D01*
X003899Y028076D01*
X003894Y028093D01*
X003893Y028110D01*
X003893Y028425D01*
X003894Y028442D01*
X003899Y028459D01*
X003906Y028474D01*
X003916Y028488D01*
X003928Y028500D01*
X003942Y028510D01*
X003957Y028517D01*
X003974Y028522D01*
X003991Y028523D01*
X004008Y028522D01*
X004025Y028517D01*
X004040Y028510D01*
X004054Y028500D01*
X004066Y028488D01*
X004076Y028474D01*
X004083Y028459D01*
X004088Y028442D01*
X004089Y028425D01*
X004089Y028110D02*
X004088Y028093D01*
X004083Y028076D01*
X004076Y028061D01*
X004066Y028047D01*
X004054Y028035D01*
X004040Y028025D01*
X004025Y028018D01*
X004008Y028013D01*
X003991Y028012D01*
D11*
X009977Y029383D02*
X009977Y000200D01*
X019131Y000212D02*
X019131Y029395D01*
X028271Y029387D02*
X028353Y000224D01*
X037997Y014987D02*
X000200Y014987D01*
D12*
X006605Y029269D02*
X006802Y029466D01*
X006802Y029860D01*
X006998Y029564D02*
X007391Y029564D01*
X007587Y029368D02*
X007685Y029269D01*
X007882Y029269D01*
X007981Y029368D01*
X008176Y029368D02*
X008275Y029269D01*
X008570Y029269D01*
X008570Y029564D01*
X008472Y029663D01*
X008275Y029663D01*
X008275Y029466D02*
X008570Y029466D01*
X008766Y029466D02*
X008963Y029663D01*
X009061Y029663D01*
X009257Y029663D02*
X009454Y029269D01*
X009650Y029663D01*
X009846Y029564D02*
X009944Y029663D01*
X010141Y029663D01*
X010240Y029564D01*
X010240Y029466D01*
X009846Y029466D01*
X009846Y029368D02*
X009846Y029564D01*
X009846Y029368D02*
X009944Y029269D01*
X010141Y029269D01*
X008766Y029269D02*
X008766Y029663D01*
X008275Y029466D02*
X008176Y029368D01*
X007981Y029761D02*
X007882Y029860D01*
X007685Y029860D01*
X007587Y029761D01*
X007587Y029368D01*
X006605Y029269D02*
X006408Y029466D01*
X006408Y029860D01*
X015673Y029869D02*
X015673Y029475D01*
X015869Y029279D01*
X016066Y029475D01*
X016066Y029869D01*
X016262Y029574D02*
X016656Y029574D01*
X016851Y029771D02*
X016851Y029377D01*
X016950Y029279D01*
X017146Y029279D01*
X017245Y029377D01*
X017441Y029377D02*
X017539Y029279D01*
X017834Y029279D01*
X017834Y029574D01*
X017736Y029672D01*
X017539Y029672D01*
X017539Y029475D02*
X017834Y029475D01*
X018030Y029475D02*
X018227Y029672D01*
X018325Y029672D01*
X018521Y029672D02*
X018718Y029279D01*
X018915Y029672D01*
X019110Y029574D02*
X019209Y029672D01*
X019405Y029672D01*
X019504Y029574D01*
X019504Y029475D01*
X019110Y029475D01*
X019110Y029377D02*
X019110Y029574D01*
X019110Y029377D02*
X019209Y029279D01*
X019405Y029279D01*
X018030Y029279D02*
X018030Y029672D01*
X017539Y029475D02*
X017441Y029377D01*
X017245Y029771D02*
X017146Y029869D01*
X016950Y029869D01*
X016851Y029771D01*
X024382Y029826D02*
X024382Y029432D01*
X024579Y029235D01*
X024776Y029432D01*
X024776Y029826D01*
X024971Y029530D02*
X025365Y029530D01*
X025561Y029334D02*
X025659Y029235D01*
X025856Y029235D01*
X025954Y029334D01*
X026150Y029334D02*
X026248Y029235D01*
X026544Y029235D01*
X026544Y029530D01*
X026445Y029629D01*
X026248Y029629D01*
X026248Y029432D02*
X026544Y029432D01*
X026739Y029432D02*
X026936Y029629D01*
X027035Y029629D01*
X027230Y029629D02*
X027427Y029235D01*
X027624Y029629D01*
X027820Y029530D02*
X027918Y029629D01*
X028115Y029629D01*
X028213Y029530D01*
X028213Y029432D01*
X027820Y029432D01*
X027820Y029334D02*
X027820Y029530D01*
X027820Y029334D02*
X027918Y029235D01*
X028115Y029235D01*
X026739Y029235D02*
X026739Y029629D01*
X026248Y029432D02*
X026150Y029334D01*
X025954Y029727D02*
X025856Y029826D01*
X025659Y029826D01*
X025561Y029727D01*
X025561Y029334D01*
X037816Y015224D02*
X037914Y015224D01*
X037914Y014830D01*
X038012Y014830D02*
X037816Y014830D01*
X037717Y014929D01*
X037717Y015126D01*
X037816Y015224D01*
X038111Y015126D02*
X038111Y014929D01*
X038012Y014830D01*
X037717Y014635D02*
X038111Y014438D01*
X037717Y014241D01*
X037717Y014045D02*
X037717Y013947D01*
X037914Y013750D01*
X037914Y013554D02*
X037914Y013259D01*
X038012Y013161D01*
X038111Y013259D01*
X038111Y013554D01*
X037816Y013554D01*
X037717Y013456D01*
X037717Y013259D01*
X037619Y012965D02*
X037520Y012867D01*
X037520Y012670D01*
X037619Y012571D01*
X038012Y012571D01*
X038111Y012670D01*
X038111Y012867D01*
X038012Y012965D01*
X037816Y012376D02*
X037816Y011982D01*
X037914Y011786D02*
X037520Y011786D01*
X037914Y011786D02*
X038111Y011590D01*
X037914Y011393D01*
X037520Y011393D01*
X037717Y013750D02*
X038111Y013750D01*
M02*
