G75*
%MOIN*%
%OFA0B0*%
%FSLAX25Y25*%
%IPPOS*%
%LPD*%
%AMOC8*
5,1,8,0,0,1.08239X$1,22.5*
%
%ADD10C,0.00000*%
D10*
X0031918Y0148847D02*
X0031918Y0151997D01*
X0031920Y0152059D01*
X0031926Y0152120D01*
X0031935Y0152181D01*
X0031949Y0152242D01*
X0031966Y0152301D01*
X0031987Y0152359D01*
X0032012Y0152416D01*
X0032040Y0152471D01*
X0032071Y0152524D01*
X0032106Y0152575D01*
X0032144Y0152624D01*
X0032185Y0152671D01*
X0032228Y0152714D01*
X0032275Y0152755D01*
X0032324Y0152793D01*
X0032375Y0152828D01*
X0032428Y0152859D01*
X0032483Y0152887D01*
X0032540Y0152912D01*
X0032598Y0152933D01*
X0032657Y0152950D01*
X0032718Y0152964D01*
X0032779Y0152973D01*
X0032840Y0152979D01*
X0032902Y0152981D01*
X0032964Y0152979D01*
X0033025Y0152973D01*
X0033086Y0152964D01*
X0033147Y0152950D01*
X0033206Y0152933D01*
X0033264Y0152912D01*
X0033321Y0152887D01*
X0033376Y0152859D01*
X0033429Y0152828D01*
X0033480Y0152793D01*
X0033529Y0152755D01*
X0033576Y0152714D01*
X0033619Y0152671D01*
X0033660Y0152624D01*
X0033698Y0152575D01*
X0033733Y0152524D01*
X0033764Y0152471D01*
X0033792Y0152416D01*
X0033817Y0152359D01*
X0033838Y0152301D01*
X0033855Y0152242D01*
X0033869Y0152181D01*
X0033878Y0152120D01*
X0033884Y0152059D01*
X0033886Y0151997D01*
X0033887Y0151997D02*
X0033887Y0148847D01*
X0032902Y0147863D02*
X0032840Y0147865D01*
X0032779Y0147871D01*
X0032718Y0147880D01*
X0032657Y0147894D01*
X0032598Y0147911D01*
X0032540Y0147932D01*
X0032483Y0147957D01*
X0032428Y0147985D01*
X0032375Y0148016D01*
X0032324Y0148051D01*
X0032275Y0148089D01*
X0032228Y0148130D01*
X0032185Y0148173D01*
X0032144Y0148220D01*
X0032106Y0148269D01*
X0032071Y0148320D01*
X0032040Y0148373D01*
X0032012Y0148428D01*
X0031987Y0148485D01*
X0031966Y0148543D01*
X0031949Y0148602D01*
X0031935Y0148663D01*
X0031926Y0148724D01*
X0031920Y0148785D01*
X0031918Y0148847D01*
X0032902Y0147863D02*
X0032964Y0147865D01*
X0033025Y0147871D01*
X0033086Y0147880D01*
X0033147Y0147894D01*
X0033206Y0147911D01*
X0033264Y0147932D01*
X0033321Y0147957D01*
X0033376Y0147985D01*
X0033429Y0148016D01*
X0033480Y0148051D01*
X0033529Y0148089D01*
X0033576Y0148130D01*
X0033619Y0148173D01*
X0033660Y0148220D01*
X0033698Y0148269D01*
X0033733Y0148320D01*
X0033764Y0148373D01*
X0033792Y0148428D01*
X0033817Y0148485D01*
X0033838Y0148543D01*
X0033855Y0148602D01*
X0033869Y0148663D01*
X0033878Y0148724D01*
X0033884Y0148785D01*
X0033886Y0148847D01*
X0060265Y0148847D02*
X0060265Y0151997D01*
X0060267Y0152059D01*
X0060273Y0152120D01*
X0060282Y0152181D01*
X0060296Y0152242D01*
X0060313Y0152301D01*
X0060334Y0152359D01*
X0060359Y0152416D01*
X0060387Y0152471D01*
X0060418Y0152524D01*
X0060453Y0152575D01*
X0060491Y0152624D01*
X0060532Y0152671D01*
X0060575Y0152714D01*
X0060622Y0152755D01*
X0060671Y0152793D01*
X0060722Y0152828D01*
X0060775Y0152859D01*
X0060830Y0152887D01*
X0060887Y0152912D01*
X0060945Y0152933D01*
X0061004Y0152950D01*
X0061065Y0152964D01*
X0061126Y0152973D01*
X0061187Y0152979D01*
X0061249Y0152981D01*
X0061311Y0152979D01*
X0061372Y0152973D01*
X0061433Y0152964D01*
X0061494Y0152950D01*
X0061553Y0152933D01*
X0061611Y0152912D01*
X0061668Y0152887D01*
X0061723Y0152859D01*
X0061776Y0152828D01*
X0061827Y0152793D01*
X0061876Y0152755D01*
X0061923Y0152714D01*
X0061966Y0152671D01*
X0062007Y0152624D01*
X0062045Y0152575D01*
X0062080Y0152524D01*
X0062111Y0152471D01*
X0062139Y0152416D01*
X0062164Y0152359D01*
X0062185Y0152301D01*
X0062202Y0152242D01*
X0062216Y0152181D01*
X0062225Y0152120D01*
X0062231Y0152059D01*
X0062233Y0151997D01*
X0062233Y0148847D01*
X0061249Y0147863D02*
X0061187Y0147865D01*
X0061126Y0147871D01*
X0061065Y0147880D01*
X0061004Y0147894D01*
X0060945Y0147911D01*
X0060887Y0147932D01*
X0060830Y0147957D01*
X0060775Y0147985D01*
X0060722Y0148016D01*
X0060671Y0148051D01*
X0060622Y0148089D01*
X0060575Y0148130D01*
X0060532Y0148173D01*
X0060491Y0148220D01*
X0060453Y0148269D01*
X0060418Y0148320D01*
X0060387Y0148373D01*
X0060359Y0148428D01*
X0060334Y0148485D01*
X0060313Y0148543D01*
X0060296Y0148602D01*
X0060282Y0148663D01*
X0060273Y0148724D01*
X0060267Y0148785D01*
X0060265Y0148847D01*
X0061249Y0147863D02*
X0061311Y0147865D01*
X0061372Y0147871D01*
X0061433Y0147880D01*
X0061494Y0147894D01*
X0061553Y0147911D01*
X0061611Y0147932D01*
X0061668Y0147957D01*
X0061723Y0147985D01*
X0061776Y0148016D01*
X0061827Y0148051D01*
X0061876Y0148089D01*
X0061923Y0148130D01*
X0061966Y0148173D01*
X0062007Y0148220D01*
X0062045Y0148269D01*
X0062080Y0148320D01*
X0062111Y0148373D01*
X0062139Y0148428D01*
X0062164Y0148485D01*
X0062185Y0148543D01*
X0062202Y0148602D01*
X0062216Y0148663D01*
X0062225Y0148724D01*
X0062231Y0148785D01*
X0062233Y0148847D01*
M02*
