G75*
%MOIN*%
%OFA0B0*%
%FSLAX25Y25*%
%IPPOS*%
%LPD*%
%AMOC8*
5,1,8,0,0,1.08239X$1,22.5*
%
%ADD10C,0.00000*%
%ADD11R,0.04337X0.04731*%
%ADD12R,0.04731X0.04337*%
%ADD13R,0.04900X0.01900*%
%ADD14R,0.02762X0.03156*%
%ADD15R,0.05200X0.09200*%
%ADD16R,0.14573X0.09061*%
%ADD17R,0.02762X0.05715*%
%ADD18R,0.01975X0.05321*%
%ADD19C,0.05518*%
%ADD20C,0.04731*%
%ADD21C,0.03353*%
%ADD22C,0.06306*%
%ADD23R,0.06306X0.06306*%
%ADD24C,0.05124*%
%ADD25R,0.05000X0.06700*%
%ADD26C,0.00500*%
D10*
X0001800Y0001800D02*
X0001800Y0158296D01*
X0038119Y0144517D02*
X0038121Y0144594D01*
X0038127Y0144670D01*
X0038137Y0144746D01*
X0038151Y0144821D01*
X0038168Y0144896D01*
X0038190Y0144969D01*
X0038215Y0145042D01*
X0038245Y0145113D01*
X0038277Y0145182D01*
X0038314Y0145249D01*
X0038353Y0145315D01*
X0038396Y0145378D01*
X0038443Y0145439D01*
X0038492Y0145498D01*
X0038545Y0145554D01*
X0038600Y0145607D01*
X0038658Y0145657D01*
X0038718Y0145704D01*
X0038781Y0145748D01*
X0038846Y0145789D01*
X0038913Y0145826D01*
X0038982Y0145860D01*
X0039052Y0145890D01*
X0039124Y0145916D01*
X0039198Y0145938D01*
X0039272Y0145957D01*
X0039347Y0145972D01*
X0039423Y0145983D01*
X0039499Y0145990D01*
X0039576Y0145993D01*
X0039652Y0145992D01*
X0039729Y0145987D01*
X0039805Y0145978D01*
X0039881Y0145965D01*
X0039955Y0145948D01*
X0040029Y0145928D01*
X0040102Y0145903D01*
X0040173Y0145875D01*
X0040243Y0145843D01*
X0040311Y0145808D01*
X0040377Y0145769D01*
X0040441Y0145727D01*
X0040502Y0145681D01*
X0040562Y0145632D01*
X0040618Y0145581D01*
X0040672Y0145526D01*
X0040723Y0145469D01*
X0040771Y0145409D01*
X0040816Y0145347D01*
X0040857Y0145282D01*
X0040895Y0145216D01*
X0040930Y0145148D01*
X0040960Y0145077D01*
X0040988Y0145006D01*
X0041011Y0144933D01*
X0041031Y0144859D01*
X0041047Y0144784D01*
X0041059Y0144708D01*
X0041067Y0144632D01*
X0041071Y0144555D01*
X0041071Y0144479D01*
X0041067Y0144402D01*
X0041059Y0144326D01*
X0041047Y0144250D01*
X0041031Y0144175D01*
X0041011Y0144101D01*
X0040988Y0144028D01*
X0040960Y0143957D01*
X0040930Y0143886D01*
X0040895Y0143818D01*
X0040857Y0143752D01*
X0040816Y0143687D01*
X0040771Y0143625D01*
X0040723Y0143565D01*
X0040672Y0143508D01*
X0040618Y0143453D01*
X0040562Y0143402D01*
X0040502Y0143353D01*
X0040441Y0143307D01*
X0040377Y0143265D01*
X0040311Y0143226D01*
X0040243Y0143191D01*
X0040173Y0143159D01*
X0040102Y0143131D01*
X0040029Y0143106D01*
X0039955Y0143086D01*
X0039881Y0143069D01*
X0039805Y0143056D01*
X0039729Y0143047D01*
X0039652Y0143042D01*
X0039576Y0143041D01*
X0039499Y0143044D01*
X0039423Y0143051D01*
X0039347Y0143062D01*
X0039272Y0143077D01*
X0039198Y0143096D01*
X0039124Y0143118D01*
X0039052Y0143144D01*
X0038982Y0143174D01*
X0038913Y0143208D01*
X0038846Y0143245D01*
X0038781Y0143286D01*
X0038718Y0143330D01*
X0038658Y0143377D01*
X0038600Y0143427D01*
X0038545Y0143480D01*
X0038492Y0143536D01*
X0038443Y0143595D01*
X0038396Y0143656D01*
X0038353Y0143719D01*
X0038314Y0143785D01*
X0038277Y0143852D01*
X0038245Y0143921D01*
X0038215Y0143992D01*
X0038190Y0144065D01*
X0038168Y0144138D01*
X0038151Y0144213D01*
X0038137Y0144288D01*
X0038127Y0144364D01*
X0038121Y0144440D01*
X0038119Y0144517D01*
X0001800Y0158295D02*
X0092352Y0158295D01*
X0092351Y0158296D02*
X0092351Y0001800D01*
X0001800Y0001800D01*
X0053080Y0144517D02*
X0053082Y0144594D01*
X0053088Y0144670D01*
X0053098Y0144746D01*
X0053112Y0144821D01*
X0053129Y0144896D01*
X0053151Y0144969D01*
X0053176Y0145042D01*
X0053206Y0145113D01*
X0053238Y0145182D01*
X0053275Y0145249D01*
X0053314Y0145315D01*
X0053357Y0145378D01*
X0053404Y0145439D01*
X0053453Y0145498D01*
X0053506Y0145554D01*
X0053561Y0145607D01*
X0053619Y0145657D01*
X0053679Y0145704D01*
X0053742Y0145748D01*
X0053807Y0145789D01*
X0053874Y0145826D01*
X0053943Y0145860D01*
X0054013Y0145890D01*
X0054085Y0145916D01*
X0054159Y0145938D01*
X0054233Y0145957D01*
X0054308Y0145972D01*
X0054384Y0145983D01*
X0054460Y0145990D01*
X0054537Y0145993D01*
X0054613Y0145992D01*
X0054690Y0145987D01*
X0054766Y0145978D01*
X0054842Y0145965D01*
X0054916Y0145948D01*
X0054990Y0145928D01*
X0055063Y0145903D01*
X0055134Y0145875D01*
X0055204Y0145843D01*
X0055272Y0145808D01*
X0055338Y0145769D01*
X0055402Y0145727D01*
X0055463Y0145681D01*
X0055523Y0145632D01*
X0055579Y0145581D01*
X0055633Y0145526D01*
X0055684Y0145469D01*
X0055732Y0145409D01*
X0055777Y0145347D01*
X0055818Y0145282D01*
X0055856Y0145216D01*
X0055891Y0145148D01*
X0055921Y0145077D01*
X0055949Y0145006D01*
X0055972Y0144933D01*
X0055992Y0144859D01*
X0056008Y0144784D01*
X0056020Y0144708D01*
X0056028Y0144632D01*
X0056032Y0144555D01*
X0056032Y0144479D01*
X0056028Y0144402D01*
X0056020Y0144326D01*
X0056008Y0144250D01*
X0055992Y0144175D01*
X0055972Y0144101D01*
X0055949Y0144028D01*
X0055921Y0143957D01*
X0055891Y0143886D01*
X0055856Y0143818D01*
X0055818Y0143752D01*
X0055777Y0143687D01*
X0055732Y0143625D01*
X0055684Y0143565D01*
X0055633Y0143508D01*
X0055579Y0143453D01*
X0055523Y0143402D01*
X0055463Y0143353D01*
X0055402Y0143307D01*
X0055338Y0143265D01*
X0055272Y0143226D01*
X0055204Y0143191D01*
X0055134Y0143159D01*
X0055063Y0143131D01*
X0054990Y0143106D01*
X0054916Y0143086D01*
X0054842Y0143069D01*
X0054766Y0143056D01*
X0054690Y0143047D01*
X0054613Y0143042D01*
X0054537Y0143041D01*
X0054460Y0143044D01*
X0054384Y0143051D01*
X0054308Y0143062D01*
X0054233Y0143077D01*
X0054159Y0143096D01*
X0054085Y0143118D01*
X0054013Y0143144D01*
X0053943Y0143174D01*
X0053874Y0143208D01*
X0053807Y0143245D01*
X0053742Y0143286D01*
X0053679Y0143330D01*
X0053619Y0143377D01*
X0053561Y0143427D01*
X0053506Y0143480D01*
X0053453Y0143536D01*
X0053404Y0143595D01*
X0053357Y0143656D01*
X0053314Y0143719D01*
X0053275Y0143785D01*
X0053238Y0143852D01*
X0053206Y0143921D01*
X0053176Y0143992D01*
X0053151Y0144065D01*
X0053129Y0144138D01*
X0053112Y0144213D01*
X0053098Y0144288D01*
X0053088Y0144364D01*
X0053082Y0144440D01*
X0053080Y0144517D01*
D11*
X0047076Y0115383D03*
X0047076Y0108690D03*
X0056918Y0093729D03*
X0056918Y0087036D03*
X0066761Y0087036D03*
X0066761Y0093729D03*
X0076603Y0093729D03*
X0076603Y0087036D03*
X0086446Y0087036D03*
X0086446Y0093729D03*
X0077981Y0139595D03*
X0071288Y0139595D03*
X0037233Y0115383D03*
X0037233Y0108690D03*
X0017391Y0093729D03*
X0017391Y0087036D03*
X0007548Y0087036D03*
X0007548Y0093729D03*
D12*
X0027233Y0093729D03*
X0027233Y0087036D03*
X0037076Y0087036D03*
X0037076Y0093729D03*
X0046918Y0093729D03*
X0046918Y0087036D03*
X0056918Y0108690D03*
X0056918Y0115383D03*
X0047076Y0124438D03*
X0047076Y0131131D03*
X0037233Y0131131D03*
X0037233Y0124438D03*
D13*
X0027878Y0123952D03*
X0027878Y0121452D03*
X0027878Y0118952D03*
X0027878Y0116452D03*
X0027878Y0113952D03*
X0027878Y0111452D03*
X0027878Y0108952D03*
X0027878Y0126452D03*
X0027878Y0128952D03*
X0027878Y0131452D03*
X0006778Y0131452D03*
X0006778Y0128952D03*
X0006778Y0126452D03*
X0006778Y0123952D03*
X0006778Y0121452D03*
X0006778Y0118952D03*
X0006778Y0116452D03*
X0006778Y0113952D03*
X0006778Y0111452D03*
X0006778Y0108952D03*
D14*
X0017745Y0141564D03*
X0021485Y0149438D03*
X0025225Y0141564D03*
X0053965Y0125028D03*
X0057706Y0132902D03*
X0061446Y0125028D03*
D15*
X0068700Y0106631D03*
X0077800Y0106631D03*
X0086900Y0106631D03*
D16*
X0077800Y0131032D03*
D17*
X0050225Y0151603D03*
X0043926Y0151603D03*
D18*
X0044517Y0141072D03*
X0047076Y0141072D03*
X0049635Y0141072D03*
X0052194Y0141072D03*
X0041957Y0141072D03*
D19*
X0034083Y0140973D03*
X0060068Y0140973D03*
D20*
X0061249Y0148257D02*
X0061249Y0152587D01*
X0032902Y0152587D02*
X0032902Y0148257D01*
D21*
X0039595Y0144517D03*
X0054556Y0144517D03*
D22*
X0086800Y0146048D03*
X0086800Y0076048D03*
X0086800Y0066048D03*
X0086800Y0056048D03*
X0086800Y0046048D03*
X0086800Y0036048D03*
X0086800Y0026048D03*
X0086800Y0016048D03*
X0006800Y0016048D03*
X0006800Y0026048D03*
X0006800Y0036048D03*
X0006800Y0046048D03*
X0006800Y0056048D03*
X0006800Y0066048D03*
X0006800Y0146048D03*
D23*
X0006800Y0076048D03*
D24*
X0013591Y0076871D02*
X0018316Y0076871D01*
X0018316Y0068997D02*
X0013591Y0068997D01*
X0013591Y0061123D02*
X0018316Y0061123D01*
X0018316Y0053249D02*
X0013591Y0053249D01*
X0013591Y0045375D02*
X0018316Y0045375D01*
X0018316Y0037501D02*
X0013591Y0037501D01*
X0013591Y0029627D02*
X0018316Y0029627D01*
X0018316Y0021753D02*
X0013591Y0021753D01*
X0075402Y0021753D02*
X0080127Y0021753D01*
X0080127Y0029627D02*
X0075402Y0029627D01*
X0075402Y0037501D02*
X0080127Y0037501D01*
X0080127Y0045375D02*
X0075402Y0045375D01*
X0075402Y0053249D02*
X0080127Y0053249D01*
X0080127Y0061123D02*
X0075402Y0061123D01*
X0075402Y0068997D02*
X0080127Y0068997D01*
X0080127Y0076871D02*
X0075402Y0076871D01*
D25*
X0077398Y0148847D03*
X0071398Y0148847D03*
D26*
X0073298Y0148861D02*
X0075398Y0148861D01*
X0075398Y0149359D02*
X0073298Y0149359D01*
X0073298Y0149547D02*
X0073298Y0148147D01*
X0075398Y0148147D01*
X0075398Y0149547D01*
X0073298Y0149547D01*
X0073298Y0148362D02*
X0075398Y0148362D01*
M02*
