G75*
%MOIN*%
%OFA0B0*%
%FSLAX24Y24*%
%IPPOS*%
%LPD*%
%AMOC8*
5,1,8,0,0,1.08239X$1,22.5*
%
%ADD10C,0.0000*%
%ADD11R,0.0394X0.0433*%
%ADD12R,0.0433X0.0394*%
%ADD13R,0.0450X0.0150*%
%ADD14R,0.0236X0.0276*%
%ADD15R,0.0480X0.0880*%
%ADD16R,0.1417X0.0866*%
%ADD17R,0.0236X0.0531*%
%ADD18R,0.0157X0.0492*%
%ADD19C,0.0555*%
%ADD20C,0.0437*%
%ADD21C,0.0591*%
%ADD22R,0.0591X0.0591*%
%ADD23C,0.0520*%
%ADD24C,0.0100*%
%ADD25C,0.0160*%
%ADD26C,0.0280*%
%ADD27C,0.0120*%
D10*
X000881Y000911D02*
X000881Y029051D01*
X037433Y029051D01*
X037433Y000911D01*
X000881Y000911D01*
X003893Y013966D02*
X003893Y014281D01*
X003894Y014298D01*
X003899Y014315D01*
X003906Y014330D01*
X003916Y014344D01*
X003928Y014356D01*
X003942Y014366D01*
X003957Y014373D01*
X003974Y014378D01*
X003991Y014379D01*
X004008Y014378D01*
X004025Y014373D01*
X004040Y014366D01*
X004054Y014356D01*
X004066Y014344D01*
X004076Y014330D01*
X004083Y014315D01*
X004088Y014298D01*
X004089Y014281D01*
X004090Y014281D02*
X004090Y013966D01*
X003991Y013868D02*
X003974Y013869D01*
X003957Y013874D01*
X003942Y013881D01*
X003928Y013891D01*
X003916Y013903D01*
X003906Y013917D01*
X003899Y013932D01*
X003894Y013949D01*
X003893Y013966D01*
X003991Y013868D02*
X004008Y013869D01*
X004025Y013874D01*
X004040Y013881D01*
X004054Y013891D01*
X004066Y013903D01*
X004076Y013917D01*
X004083Y013932D01*
X004088Y013949D01*
X004089Y013966D01*
X006728Y013966D02*
X006728Y014281D01*
X006729Y014298D01*
X006734Y014315D01*
X006741Y014330D01*
X006751Y014344D01*
X006763Y014356D01*
X006777Y014366D01*
X006792Y014373D01*
X006809Y014378D01*
X006826Y014379D01*
X006843Y014378D01*
X006860Y014373D01*
X006875Y014366D01*
X006889Y014356D01*
X006901Y014344D01*
X006911Y014330D01*
X006918Y014315D01*
X006923Y014298D01*
X006924Y014281D01*
X006924Y013966D01*
X006826Y013868D02*
X006809Y013869D01*
X006792Y013874D01*
X006777Y013881D01*
X006763Y013891D01*
X006751Y013903D01*
X006741Y013917D01*
X006734Y013932D01*
X006729Y013949D01*
X006728Y013966D01*
X006826Y013868D02*
X006843Y013869D01*
X006860Y013874D01*
X006875Y013881D01*
X006889Y013891D01*
X006901Y013903D01*
X006911Y013917D01*
X006918Y013932D01*
X006923Y013949D01*
X006924Y013966D01*
X013070Y013966D02*
X013070Y014281D01*
X013071Y014281D02*
X013072Y014298D01*
X013077Y014315D01*
X013084Y014330D01*
X013094Y014344D01*
X013106Y014356D01*
X013120Y014366D01*
X013135Y014373D01*
X013152Y014378D01*
X013169Y014379D01*
X013186Y014378D01*
X013203Y014373D01*
X013218Y014366D01*
X013232Y014356D01*
X013244Y014344D01*
X013254Y014330D01*
X013261Y014315D01*
X013266Y014298D01*
X013267Y014281D01*
X013267Y013966D01*
X013169Y013868D02*
X013152Y013869D01*
X013135Y013874D01*
X013120Y013881D01*
X013106Y013891D01*
X013094Y013903D01*
X013084Y013917D01*
X013077Y013932D01*
X013072Y013949D01*
X013071Y013966D01*
X013169Y013868D02*
X013186Y013869D01*
X013203Y013874D01*
X013218Y013881D01*
X013232Y013891D01*
X013244Y013903D01*
X013254Y013917D01*
X013261Y013932D01*
X013266Y013949D01*
X013267Y013966D01*
X015905Y013966D02*
X015905Y014281D01*
X015906Y014298D01*
X015911Y014315D01*
X015918Y014330D01*
X015928Y014344D01*
X015940Y014356D01*
X015954Y014366D01*
X015969Y014373D01*
X015986Y014378D01*
X016003Y014379D01*
X016020Y014378D01*
X016037Y014373D01*
X016052Y014366D01*
X016066Y014356D01*
X016078Y014344D01*
X016088Y014330D01*
X016095Y014315D01*
X016100Y014298D01*
X016101Y014281D01*
X016102Y014281D02*
X016102Y013966D01*
X016003Y013868D02*
X015986Y013869D01*
X015969Y013874D01*
X015954Y013881D01*
X015940Y013891D01*
X015928Y013903D01*
X015918Y013917D01*
X015911Y013932D01*
X015906Y013949D01*
X015905Y013966D01*
X016003Y013868D02*
X016020Y013869D01*
X016037Y013874D01*
X016052Y013881D01*
X016066Y013891D01*
X016078Y013903D01*
X016088Y013917D01*
X016095Y013932D01*
X016100Y013949D01*
X016101Y013966D01*
X022218Y013966D02*
X022218Y014281D01*
X022219Y014298D01*
X022224Y014315D01*
X022231Y014330D01*
X022241Y014344D01*
X022253Y014356D01*
X022267Y014366D01*
X022282Y014373D01*
X022299Y014378D01*
X022316Y014379D01*
X022333Y014378D01*
X022350Y014373D01*
X022365Y014366D01*
X022379Y014356D01*
X022391Y014344D01*
X022401Y014330D01*
X022408Y014315D01*
X022413Y014298D01*
X022414Y014281D01*
X022415Y014281D02*
X022415Y013966D01*
X022316Y013868D02*
X022299Y013869D01*
X022282Y013874D01*
X022267Y013881D01*
X022253Y013891D01*
X022241Y013903D01*
X022231Y013917D01*
X022224Y013932D01*
X022219Y013949D01*
X022218Y013966D01*
X022316Y013868D02*
X022333Y013869D01*
X022350Y013874D01*
X022365Y013881D01*
X022379Y013891D01*
X022391Y013903D01*
X022401Y013917D01*
X022408Y013932D01*
X022413Y013949D01*
X022414Y013966D01*
X025052Y013966D02*
X025052Y014281D01*
X025053Y014281D02*
X025054Y014298D01*
X025059Y014315D01*
X025066Y014330D01*
X025076Y014344D01*
X025088Y014356D01*
X025102Y014366D01*
X025117Y014373D01*
X025134Y014378D01*
X025151Y014379D01*
X025168Y014378D01*
X025185Y014373D01*
X025200Y014366D01*
X025214Y014356D01*
X025226Y014344D01*
X025236Y014330D01*
X025243Y014315D01*
X025248Y014298D01*
X025249Y014281D01*
X025249Y013966D01*
X025151Y013868D02*
X025134Y013869D01*
X025117Y013874D01*
X025102Y013881D01*
X025088Y013891D01*
X025076Y013903D01*
X025066Y013917D01*
X025059Y013932D01*
X025054Y013949D01*
X025053Y013966D01*
X025151Y013868D02*
X025168Y013869D01*
X025185Y013874D01*
X025200Y013881D01*
X025214Y013891D01*
X025226Y013903D01*
X025236Y013917D01*
X025243Y013932D01*
X025248Y013949D01*
X025249Y013966D01*
X031390Y013966D02*
X031390Y014281D01*
X031391Y014298D01*
X031396Y014315D01*
X031403Y014330D01*
X031413Y014344D01*
X031425Y014356D01*
X031439Y014366D01*
X031454Y014373D01*
X031471Y014378D01*
X031488Y014379D01*
X031505Y014378D01*
X031522Y014373D01*
X031537Y014366D01*
X031551Y014356D01*
X031563Y014344D01*
X031573Y014330D01*
X031580Y014315D01*
X031585Y014298D01*
X031586Y014281D01*
X031586Y013966D01*
X031488Y013868D02*
X031471Y013869D01*
X031454Y013874D01*
X031439Y013881D01*
X031425Y013891D01*
X031413Y013903D01*
X031403Y013917D01*
X031396Y013932D01*
X031391Y013949D01*
X031390Y013966D01*
X031488Y013868D02*
X031505Y013869D01*
X031522Y013874D01*
X031537Y013881D01*
X031551Y013891D01*
X031563Y013903D01*
X031573Y013917D01*
X031580Y013932D01*
X031585Y013949D01*
X031586Y013966D01*
X034224Y013966D02*
X034224Y014281D01*
X034225Y014281D02*
X034226Y014298D01*
X034231Y014315D01*
X034238Y014330D01*
X034248Y014344D01*
X034260Y014356D01*
X034274Y014366D01*
X034289Y014373D01*
X034306Y014378D01*
X034323Y014379D01*
X034340Y014378D01*
X034357Y014373D01*
X034372Y014366D01*
X034386Y014356D01*
X034398Y014344D01*
X034408Y014330D01*
X034415Y014315D01*
X034420Y014298D01*
X034421Y014281D01*
X034421Y013966D01*
X034323Y013868D02*
X034306Y013869D01*
X034289Y013874D01*
X034274Y013881D01*
X034260Y013891D01*
X034248Y013903D01*
X034238Y013917D01*
X034231Y013932D01*
X034226Y013949D01*
X034225Y013966D01*
X034323Y013868D02*
X034340Y013869D01*
X034357Y013874D01*
X034372Y013881D01*
X034386Y013891D01*
X034398Y013903D01*
X034408Y013917D01*
X034415Y013932D01*
X034420Y013949D01*
X034421Y013966D01*
X034421Y028110D02*
X034421Y028425D01*
X034323Y028523D02*
X034306Y028522D01*
X034289Y028517D01*
X034274Y028510D01*
X034260Y028500D01*
X034248Y028488D01*
X034238Y028474D01*
X034231Y028459D01*
X034226Y028442D01*
X034225Y028425D01*
X034224Y028425D02*
X034224Y028110D01*
X034225Y028110D02*
X034226Y028093D01*
X034231Y028076D01*
X034238Y028061D01*
X034248Y028047D01*
X034260Y028035D01*
X034274Y028025D01*
X034289Y028018D01*
X034306Y028013D01*
X034323Y028012D01*
X034340Y028013D01*
X034357Y028018D01*
X034372Y028025D01*
X034386Y028035D01*
X034398Y028047D01*
X034408Y028061D01*
X034415Y028076D01*
X034420Y028093D01*
X034421Y028110D01*
X034421Y028425D02*
X034420Y028442D01*
X034415Y028459D01*
X034408Y028474D01*
X034398Y028488D01*
X034386Y028500D01*
X034372Y028510D01*
X034357Y028517D01*
X034340Y028522D01*
X034323Y028523D01*
X031586Y028425D02*
X031586Y028110D01*
X031488Y028012D02*
X031471Y028013D01*
X031454Y028018D01*
X031439Y028025D01*
X031425Y028035D01*
X031413Y028047D01*
X031403Y028061D01*
X031396Y028076D01*
X031391Y028093D01*
X031390Y028110D01*
X031390Y028425D01*
X031391Y028442D01*
X031396Y028459D01*
X031403Y028474D01*
X031413Y028488D01*
X031425Y028500D01*
X031439Y028510D01*
X031454Y028517D01*
X031471Y028522D01*
X031488Y028523D01*
X031505Y028522D01*
X031522Y028517D01*
X031537Y028510D01*
X031551Y028500D01*
X031563Y028488D01*
X031573Y028474D01*
X031580Y028459D01*
X031585Y028442D01*
X031586Y028425D01*
X031586Y028110D02*
X031585Y028093D01*
X031580Y028076D01*
X031573Y028061D01*
X031563Y028047D01*
X031551Y028035D01*
X031537Y028025D01*
X031522Y028018D01*
X031505Y028013D01*
X031488Y028012D01*
X025249Y028110D02*
X025249Y028425D01*
X025151Y028523D02*
X025134Y028522D01*
X025117Y028517D01*
X025102Y028510D01*
X025088Y028500D01*
X025076Y028488D01*
X025066Y028474D01*
X025059Y028459D01*
X025054Y028442D01*
X025053Y028425D01*
X025052Y028425D02*
X025052Y028110D01*
X025053Y028110D02*
X025054Y028093D01*
X025059Y028076D01*
X025066Y028061D01*
X025076Y028047D01*
X025088Y028035D01*
X025102Y028025D01*
X025117Y028018D01*
X025134Y028013D01*
X025151Y028012D01*
X025168Y028013D01*
X025185Y028018D01*
X025200Y028025D01*
X025214Y028035D01*
X025226Y028047D01*
X025236Y028061D01*
X025243Y028076D01*
X025248Y028093D01*
X025249Y028110D01*
X025249Y028425D02*
X025248Y028442D01*
X025243Y028459D01*
X025236Y028474D01*
X025226Y028488D01*
X025214Y028500D01*
X025200Y028510D01*
X025185Y028517D01*
X025168Y028522D01*
X025151Y028523D01*
X022415Y028425D02*
X022415Y028110D01*
X022316Y028012D02*
X022299Y028013D01*
X022282Y028018D01*
X022267Y028025D01*
X022253Y028035D01*
X022241Y028047D01*
X022231Y028061D01*
X022224Y028076D01*
X022219Y028093D01*
X022218Y028110D01*
X022218Y028425D01*
X022219Y028442D01*
X022224Y028459D01*
X022231Y028474D01*
X022241Y028488D01*
X022253Y028500D01*
X022267Y028510D01*
X022282Y028517D01*
X022299Y028522D01*
X022316Y028523D01*
X022333Y028522D01*
X022350Y028517D01*
X022365Y028510D01*
X022379Y028500D01*
X022391Y028488D01*
X022401Y028474D01*
X022408Y028459D01*
X022413Y028442D01*
X022414Y028425D01*
X022414Y028110D02*
X022413Y028093D01*
X022408Y028076D01*
X022401Y028061D01*
X022391Y028047D01*
X022379Y028035D01*
X022365Y028025D01*
X022350Y028018D01*
X022333Y028013D01*
X022316Y028012D01*
X016102Y028110D02*
X016102Y028425D01*
X016003Y028523D02*
X015986Y028522D01*
X015969Y028517D01*
X015954Y028510D01*
X015940Y028500D01*
X015928Y028488D01*
X015918Y028474D01*
X015911Y028459D01*
X015906Y028442D01*
X015905Y028425D01*
X015905Y028110D01*
X015906Y028093D01*
X015911Y028076D01*
X015918Y028061D01*
X015928Y028047D01*
X015940Y028035D01*
X015954Y028025D01*
X015969Y028018D01*
X015986Y028013D01*
X016003Y028012D01*
X016020Y028013D01*
X016037Y028018D01*
X016052Y028025D01*
X016066Y028035D01*
X016078Y028047D01*
X016088Y028061D01*
X016095Y028076D01*
X016100Y028093D01*
X016101Y028110D01*
X016101Y028425D02*
X016100Y028442D01*
X016095Y028459D01*
X016088Y028474D01*
X016078Y028488D01*
X016066Y028500D01*
X016052Y028510D01*
X016037Y028517D01*
X016020Y028522D01*
X016003Y028523D01*
X013267Y028425D02*
X013267Y028110D01*
X013169Y028012D02*
X013152Y028013D01*
X013135Y028018D01*
X013120Y028025D01*
X013106Y028035D01*
X013094Y028047D01*
X013084Y028061D01*
X013077Y028076D01*
X013072Y028093D01*
X013071Y028110D01*
X013070Y028110D02*
X013070Y028425D01*
X013071Y028425D02*
X013072Y028442D01*
X013077Y028459D01*
X013084Y028474D01*
X013094Y028488D01*
X013106Y028500D01*
X013120Y028510D01*
X013135Y028517D01*
X013152Y028522D01*
X013169Y028523D01*
X013186Y028522D01*
X013203Y028517D01*
X013218Y028510D01*
X013232Y028500D01*
X013244Y028488D01*
X013254Y028474D01*
X013261Y028459D01*
X013266Y028442D01*
X013267Y028425D01*
X013267Y028110D02*
X013266Y028093D01*
X013261Y028076D01*
X013254Y028061D01*
X013244Y028047D01*
X013232Y028035D01*
X013218Y028025D01*
X013203Y028018D01*
X013186Y028013D01*
X013169Y028012D01*
X006924Y028110D02*
X006924Y028425D01*
X006826Y028523D02*
X006809Y028522D01*
X006792Y028517D01*
X006777Y028510D01*
X006763Y028500D01*
X006751Y028488D01*
X006741Y028474D01*
X006734Y028459D01*
X006729Y028442D01*
X006728Y028425D01*
X006728Y028110D01*
X006729Y028093D01*
X006734Y028076D01*
X006741Y028061D01*
X006751Y028047D01*
X006763Y028035D01*
X006777Y028025D01*
X006792Y028018D01*
X006809Y028013D01*
X006826Y028012D01*
X006843Y028013D01*
X006860Y028018D01*
X006875Y028025D01*
X006889Y028035D01*
X006901Y028047D01*
X006911Y028061D01*
X006918Y028076D01*
X006923Y028093D01*
X006924Y028110D01*
X006924Y028425D02*
X006923Y028442D01*
X006918Y028459D01*
X006911Y028474D01*
X006901Y028488D01*
X006889Y028500D01*
X006875Y028510D01*
X006860Y028517D01*
X006843Y028522D01*
X006826Y028523D01*
X004090Y028425D02*
X004090Y028110D01*
X003991Y028012D02*
X003974Y028013D01*
X003957Y028018D01*
X003942Y028025D01*
X003928Y028035D01*
X003916Y028047D01*
X003906Y028061D01*
X003899Y028076D01*
X003894Y028093D01*
X003893Y028110D01*
X003893Y028425D01*
X003894Y028442D01*
X003899Y028459D01*
X003906Y028474D01*
X003916Y028488D01*
X003928Y028500D01*
X003942Y028510D01*
X003957Y028517D01*
X003974Y028522D01*
X003991Y028523D01*
X004008Y028522D01*
X004025Y028517D01*
X004040Y028510D01*
X004054Y028500D01*
X004066Y028488D01*
X004076Y028474D01*
X004083Y028459D01*
X004088Y028442D01*
X004089Y028425D01*
X004089Y028110D02*
X004088Y028093D01*
X004083Y028076D01*
X004076Y028061D01*
X004066Y028047D01*
X004054Y028035D01*
X004040Y028025D01*
X004025Y028018D01*
X004008Y028013D01*
X003991Y028012D01*
D11*
X004281Y024389D03*
X004281Y023720D03*
X003081Y023720D03*
X003081Y024389D03*
X003131Y022889D03*
X003131Y022220D03*
X005581Y023720D03*
X005581Y024389D03*
X006781Y024389D03*
X006781Y023720D03*
X008081Y023720D03*
X008081Y024389D03*
X009381Y024389D03*
X009381Y023720D03*
X008081Y022889D03*
X008081Y022220D03*
X012258Y023720D03*
X012258Y024389D03*
X013458Y024389D03*
X013458Y023720D03*
X014758Y023720D03*
X014758Y024389D03*
X015958Y024389D03*
X015958Y023720D03*
X017258Y023720D03*
X017258Y024389D03*
X018558Y024389D03*
X018558Y023720D03*
X017258Y022889D03*
X017258Y022220D03*
X021456Y022220D03*
X021456Y022889D03*
X021406Y023720D03*
X021406Y024389D03*
X022606Y024389D03*
X022606Y023720D03*
X023906Y023720D03*
X023906Y024389D03*
X025106Y024389D03*
X025106Y023720D03*
X026406Y023720D03*
X026406Y024389D03*
X027706Y024389D03*
X027706Y023720D03*
X026406Y022889D03*
X026406Y022220D03*
X030628Y022220D03*
X030628Y022889D03*
X030578Y023720D03*
X030578Y024389D03*
X031778Y024389D03*
X031778Y023720D03*
X033078Y023720D03*
X033078Y024389D03*
X034278Y024389D03*
X034278Y023720D03*
X035578Y023720D03*
X035578Y024389D03*
X036878Y024389D03*
X036878Y023720D03*
X035578Y022889D03*
X035578Y022220D03*
X035578Y010246D03*
X035578Y009576D03*
X035578Y008746D03*
X035578Y008076D03*
X036878Y009576D03*
X036878Y010246D03*
X034278Y010246D03*
X034278Y009576D03*
X033078Y009576D03*
X033078Y010246D03*
X031778Y010246D03*
X031778Y009576D03*
X030578Y009576D03*
X030578Y010246D03*
X030628Y008746D03*
X030628Y008076D03*
X027706Y009576D03*
X027706Y010246D03*
X026406Y010246D03*
X026406Y009576D03*
X026406Y008746D03*
X026406Y008076D03*
X025106Y009576D03*
X025106Y010246D03*
X023906Y010246D03*
X023906Y009576D03*
X022606Y009576D03*
X022606Y010246D03*
X021406Y010246D03*
X021406Y009576D03*
X021456Y008746D03*
X021456Y008076D03*
X018558Y009576D03*
X018558Y010246D03*
X017258Y010246D03*
X017258Y009576D03*
X017258Y008746D03*
X017258Y008076D03*
X015958Y009576D03*
X015958Y010246D03*
X014758Y010246D03*
X014758Y009576D03*
X013458Y009576D03*
X013458Y010246D03*
X012258Y010246D03*
X012258Y009576D03*
X012308Y008746D03*
X012308Y008076D03*
X009381Y009576D03*
X009381Y010246D03*
X008081Y010246D03*
X008081Y009576D03*
X008081Y008746D03*
X008081Y008076D03*
X006781Y009576D03*
X006781Y010246D03*
X005581Y010246D03*
X005581Y009576D03*
X004281Y009576D03*
X004281Y010246D03*
X003081Y010246D03*
X003081Y009576D03*
X003131Y008746D03*
X003131Y008076D03*
X012308Y022220D03*
X012308Y022889D03*
D12*
X013458Y022939D03*
X013458Y022270D03*
X014758Y022270D03*
X014758Y022939D03*
X015958Y022939D03*
X015958Y022270D03*
X015208Y025520D03*
X015208Y026189D03*
X014108Y026189D03*
X014108Y025520D03*
X006781Y022939D03*
X006781Y022270D03*
X005581Y022270D03*
X005581Y022939D03*
X004281Y022939D03*
X004281Y022270D03*
X004931Y025520D03*
X004931Y026189D03*
X006031Y026189D03*
X006031Y025520D03*
X022606Y022939D03*
X022606Y022270D03*
X023906Y022270D03*
X023906Y022939D03*
X025106Y022939D03*
X025106Y022270D03*
X024356Y025520D03*
X024356Y026189D03*
X023256Y026189D03*
X023256Y025520D03*
X031778Y022939D03*
X031778Y022270D03*
X033078Y022270D03*
X033078Y022939D03*
X034278Y022939D03*
X034278Y022270D03*
X033528Y025520D03*
X033528Y026189D03*
X032428Y026189D03*
X032428Y025520D03*
X032428Y012046D03*
X032428Y011376D03*
X033528Y011376D03*
X033528Y012046D03*
X033078Y008796D03*
X033078Y008126D03*
X034278Y008126D03*
X034278Y008796D03*
X031778Y008796D03*
X031778Y008126D03*
X025106Y008126D03*
X025106Y008796D03*
X023906Y008796D03*
X023906Y008126D03*
X022606Y008126D03*
X022606Y008796D03*
X023256Y011376D03*
X023256Y012046D03*
X024356Y012046D03*
X024356Y011376D03*
X015958Y008796D03*
X015958Y008126D03*
X014758Y008126D03*
X014758Y008796D03*
X013458Y008796D03*
X013458Y008126D03*
X014108Y011376D03*
X014108Y012046D03*
X015208Y012046D03*
X015208Y011376D03*
X006781Y008796D03*
X006781Y008126D03*
X005581Y008126D03*
X005581Y008796D03*
X004281Y008796D03*
X004281Y008126D03*
X004931Y011376D03*
X004931Y012046D03*
X006031Y012046D03*
X006031Y011376D03*
D13*
X003336Y011686D03*
X003336Y011936D03*
X003336Y012186D03*
X003336Y012436D03*
X003336Y012686D03*
X003336Y012936D03*
X003336Y013186D03*
X003336Y013436D03*
X003336Y013686D03*
X003336Y013936D03*
X001226Y013936D03*
X001226Y013686D03*
X001226Y013436D03*
X001226Y013186D03*
X001226Y012936D03*
X001226Y012686D03*
X001226Y012436D03*
X001226Y012186D03*
X001226Y011936D03*
X001226Y011686D03*
X010403Y011686D03*
X010403Y011936D03*
X010403Y012186D03*
X010403Y012436D03*
X010403Y012686D03*
X010403Y012936D03*
X010403Y013186D03*
X010403Y013436D03*
X010403Y013686D03*
X010403Y013936D03*
X012513Y013936D03*
X012513Y013686D03*
X012513Y013436D03*
X012513Y013186D03*
X012513Y012936D03*
X012513Y012686D03*
X012513Y012436D03*
X012513Y012186D03*
X012513Y011936D03*
X012513Y011686D03*
X019551Y011686D03*
X019551Y011936D03*
X019551Y012186D03*
X019551Y012436D03*
X019551Y012686D03*
X019551Y012936D03*
X019551Y013186D03*
X019551Y013436D03*
X019551Y013686D03*
X019551Y013936D03*
X021661Y013936D03*
X021661Y013686D03*
X021661Y013436D03*
X021661Y013186D03*
X021661Y012936D03*
X021661Y012686D03*
X021661Y012436D03*
X021661Y012186D03*
X021661Y011936D03*
X021661Y011686D03*
X028723Y011686D03*
X028723Y011936D03*
X028723Y012186D03*
X028723Y012436D03*
X028723Y012686D03*
X028723Y012936D03*
X028723Y013186D03*
X028723Y013436D03*
X028723Y013686D03*
X028723Y013936D03*
X030833Y013936D03*
X030833Y013686D03*
X030833Y013436D03*
X030833Y013186D03*
X030833Y012936D03*
X030833Y012686D03*
X030833Y012436D03*
X030833Y012186D03*
X030833Y011936D03*
X030833Y011686D03*
X030833Y025830D03*
X030833Y026080D03*
X030833Y026330D03*
X030833Y026580D03*
X030833Y026830D03*
X030833Y027080D03*
X030833Y027330D03*
X030833Y027580D03*
X030833Y027830D03*
X030833Y028080D03*
X028723Y028080D03*
X028723Y027830D03*
X028723Y027580D03*
X028723Y027330D03*
X028723Y027080D03*
X028723Y026830D03*
X028723Y026580D03*
X028723Y026330D03*
X028723Y026080D03*
X028723Y025830D03*
X021661Y025830D03*
X021661Y026080D03*
X021661Y026330D03*
X021661Y026580D03*
X021661Y026830D03*
X021661Y027080D03*
X021661Y027330D03*
X021661Y027580D03*
X021661Y027830D03*
X021661Y028080D03*
X019551Y028080D03*
X019551Y027830D03*
X019551Y027580D03*
X019551Y027330D03*
X019551Y027080D03*
X019551Y026830D03*
X019551Y026580D03*
X019551Y026330D03*
X019551Y026080D03*
X019551Y025830D03*
X012513Y025830D03*
X012513Y026080D03*
X012513Y026330D03*
X012513Y026580D03*
X012513Y026830D03*
X012513Y027080D03*
X012513Y027330D03*
X012513Y027580D03*
X012513Y027830D03*
X012513Y028080D03*
X010403Y028080D03*
X010403Y027830D03*
X010403Y027580D03*
X010403Y027330D03*
X010403Y027080D03*
X010403Y026830D03*
X010403Y026580D03*
X010403Y026330D03*
X010403Y026080D03*
X010403Y025830D03*
X003336Y025830D03*
X003336Y026080D03*
X003336Y026330D03*
X003336Y026580D03*
X003336Y026830D03*
X003336Y027080D03*
X003336Y027330D03*
X003336Y027580D03*
X003336Y027830D03*
X003336Y028080D03*
X001226Y028080D03*
X001226Y027830D03*
X001226Y027580D03*
X001226Y027330D03*
X001226Y027080D03*
X001226Y026830D03*
X001226Y026580D03*
X001226Y026330D03*
X001226Y026080D03*
X001226Y025830D03*
D14*
X001664Y024589D03*
X001290Y023802D03*
X002038Y023802D03*
X010467Y023802D03*
X011215Y023802D03*
X010841Y024589D03*
X019615Y023802D03*
X020363Y023802D03*
X019989Y024589D03*
X028787Y023802D03*
X029535Y023802D03*
X029161Y024589D03*
X029161Y010445D03*
X029535Y009658D03*
X028787Y009658D03*
X020363Y009658D03*
X019615Y009658D03*
X019989Y010445D03*
X011215Y009658D03*
X010467Y009658D03*
X010841Y010445D03*
X002038Y009658D03*
X001290Y009658D03*
X001664Y010445D03*
D15*
X007571Y011591D03*
X008481Y011591D03*
X009391Y011591D03*
X016748Y011591D03*
X017658Y011591D03*
X018568Y011591D03*
X025896Y011591D03*
X026806Y011591D03*
X027716Y011591D03*
X035068Y011591D03*
X035978Y011591D03*
X036888Y011591D03*
X036888Y025735D03*
X035978Y025735D03*
X035068Y025735D03*
X027716Y025735D03*
X026806Y025735D03*
X025896Y025735D03*
X018568Y025735D03*
X017658Y025735D03*
X016748Y025735D03*
X009391Y025735D03*
X008481Y025735D03*
X007571Y025735D03*
D16*
X008481Y028175D03*
X017658Y028175D03*
X026806Y028175D03*
X035978Y028175D03*
X035978Y014031D03*
X026806Y014031D03*
X017658Y014031D03*
X008481Y014031D03*
D17*
X005724Y014242D03*
X005094Y014242D03*
X014271Y014242D03*
X014901Y014242D03*
X023419Y014242D03*
X024048Y014242D03*
X032590Y014242D03*
X033220Y014242D03*
X033220Y028385D03*
X032590Y028385D03*
X024048Y028385D03*
X023419Y028385D03*
X014901Y028385D03*
X014271Y028385D03*
X005724Y028385D03*
X005094Y028385D03*
D18*
X005153Y027332D03*
X005409Y027332D03*
X005665Y027332D03*
X005920Y027332D03*
X004897Y027332D03*
X014074Y027332D03*
X014330Y027332D03*
X014586Y027332D03*
X014842Y027332D03*
X015098Y027332D03*
X023222Y027332D03*
X023478Y027332D03*
X023733Y027332D03*
X023989Y027332D03*
X024245Y027332D03*
X032394Y027332D03*
X032649Y027332D03*
X032905Y027332D03*
X033161Y027332D03*
X033417Y027332D03*
X033417Y013189D03*
X033161Y013189D03*
X032905Y013189D03*
X032649Y013189D03*
X032394Y013189D03*
X024245Y013189D03*
X023989Y013189D03*
X023733Y013189D03*
X023478Y013189D03*
X023222Y013189D03*
X015098Y013189D03*
X014842Y013189D03*
X014586Y013189D03*
X014330Y013189D03*
X014074Y013189D03*
X005920Y013189D03*
X005665Y013189D03*
X005409Y013189D03*
X005153Y013189D03*
X004897Y013189D03*
D19*
X004454Y013179D03*
X006363Y013179D03*
X013631Y013179D03*
X015541Y013179D03*
X022779Y013179D03*
X024688Y013179D03*
X031951Y013179D03*
X033860Y013179D03*
X033860Y027322D03*
X031951Y027322D03*
X024688Y027322D03*
X022779Y027322D03*
X015541Y027322D03*
X013631Y027322D03*
X006363Y027322D03*
X004454Y027322D03*
D20*
X003991Y028049D02*
X003991Y028486D01*
X006826Y028486D02*
X006826Y028049D01*
X013169Y028049D02*
X013169Y028486D01*
X016003Y028486D02*
X016003Y028049D01*
X022316Y028049D02*
X022316Y028486D01*
X025151Y028486D02*
X025151Y028049D01*
X031488Y028049D02*
X031488Y028486D01*
X034323Y028486D02*
X034323Y028049D01*
X034323Y014342D02*
X034323Y013905D01*
X031488Y013905D02*
X031488Y014342D01*
X025151Y014342D02*
X025151Y013905D01*
X022316Y013905D02*
X022316Y014342D01*
X016003Y014342D02*
X016003Y013905D01*
X013169Y013905D02*
X013169Y014342D01*
X006826Y014342D02*
X006826Y013905D01*
X003991Y013905D02*
X003991Y014342D01*
D21*
X001381Y015905D03*
X001381Y016905D03*
X001381Y017905D03*
X001381Y018905D03*
X001381Y019905D03*
X001381Y021955D03*
X001381Y022955D03*
X009381Y022905D03*
X009381Y021905D03*
X009381Y020905D03*
X010558Y021955D03*
X010558Y022955D03*
X010558Y019905D03*
X010558Y018905D03*
X010558Y017905D03*
X009381Y017905D03*
X009381Y018905D03*
X009381Y019905D03*
X009381Y016905D03*
X009381Y015905D03*
X010558Y015905D03*
X010558Y016905D03*
X018558Y016905D03*
X018558Y015905D03*
X019706Y015905D03*
X019706Y016905D03*
X019706Y017905D03*
X019706Y018905D03*
X019706Y019905D03*
X018558Y019905D03*
X018558Y018905D03*
X018558Y017905D03*
X018558Y020905D03*
X018558Y021905D03*
X018558Y022905D03*
X019706Y022955D03*
X019706Y021955D03*
X027706Y021905D03*
X027706Y022905D03*
X028878Y022955D03*
X028878Y021955D03*
X027706Y020905D03*
X027706Y019905D03*
X027706Y018905D03*
X027706Y017905D03*
X028878Y017905D03*
X028878Y018905D03*
X028878Y019905D03*
X028878Y016905D03*
X028878Y015905D03*
X027706Y015905D03*
X027706Y016905D03*
X036878Y016905D03*
X036878Y015905D03*
X036878Y017905D03*
X036878Y018905D03*
X036878Y019905D03*
X036878Y020905D03*
X036878Y021905D03*
X036878Y022905D03*
X036878Y008761D03*
X036878Y007761D03*
X036878Y006761D03*
X036878Y005761D03*
X036878Y004761D03*
X036878Y003761D03*
X036878Y002761D03*
X036878Y001761D03*
X028878Y001761D03*
X027706Y001761D03*
X027706Y002761D03*
X027706Y003761D03*
X027706Y004761D03*
X028878Y004761D03*
X028878Y003761D03*
X028878Y002761D03*
X028878Y005761D03*
X027706Y005761D03*
X027706Y006761D03*
X027706Y007761D03*
X028878Y007811D03*
X028878Y008811D03*
X027706Y008761D03*
X019706Y008811D03*
X018558Y008761D03*
X018558Y007761D03*
X018558Y006761D03*
X018558Y005761D03*
X019706Y005761D03*
X019706Y004761D03*
X019706Y003761D03*
X019706Y002761D03*
X018558Y002761D03*
X018558Y003761D03*
X018558Y004761D03*
X018558Y001761D03*
X019706Y001761D03*
X019706Y007811D03*
X010558Y007811D03*
X009381Y007761D03*
X009381Y006761D03*
X009381Y005761D03*
X010558Y005761D03*
X010558Y004761D03*
X010558Y003761D03*
X010558Y002761D03*
X009381Y002761D03*
X009381Y003761D03*
X009381Y004761D03*
X009381Y001761D03*
X010558Y001761D03*
X010558Y008811D03*
X009381Y008761D03*
X001381Y008811D03*
X001381Y007811D03*
X001381Y005761D03*
X001381Y004761D03*
X001381Y003761D03*
X001381Y002761D03*
X001381Y001761D03*
D22*
X001381Y006761D03*
X010558Y006761D03*
X019706Y006761D03*
X028878Y006761D03*
X028878Y020905D03*
X019706Y020905D03*
X010558Y020905D03*
X001381Y020905D03*
D23*
X002013Y020987D02*
X002533Y020987D01*
X002533Y020200D02*
X002013Y020200D01*
X002013Y019412D02*
X002533Y019412D01*
X002533Y018625D02*
X002013Y018625D01*
X002013Y017837D02*
X002533Y017837D01*
X002533Y017050D02*
X002013Y017050D01*
X002013Y016263D02*
X002533Y016263D01*
X002533Y015475D02*
X002013Y015475D01*
X008241Y015475D02*
X008761Y015475D01*
X008761Y016263D02*
X008241Y016263D01*
X008241Y017050D02*
X008761Y017050D01*
X008761Y017837D02*
X008241Y017837D01*
X008241Y018625D02*
X008761Y018625D01*
X008761Y019412D02*
X008241Y019412D01*
X008241Y020200D02*
X008761Y020200D01*
X008761Y020987D02*
X008241Y020987D01*
X011190Y020987D02*
X011710Y020987D01*
X011710Y020200D02*
X011190Y020200D01*
X011190Y019412D02*
X011710Y019412D01*
X011710Y018625D02*
X011190Y018625D01*
X011190Y017837D02*
X011710Y017837D01*
X011710Y017050D02*
X011190Y017050D01*
X011190Y016263D02*
X011710Y016263D01*
X011710Y015475D02*
X011190Y015475D01*
X017419Y015475D02*
X017939Y015475D01*
X017939Y016263D02*
X017419Y016263D01*
X017419Y017050D02*
X017939Y017050D01*
X017939Y017837D02*
X017419Y017837D01*
X017419Y018625D02*
X017939Y018625D01*
X017939Y019412D02*
X017419Y019412D01*
X017419Y020200D02*
X017939Y020200D01*
X017939Y020987D02*
X017419Y020987D01*
X020337Y020987D02*
X020857Y020987D01*
X020857Y020200D02*
X020337Y020200D01*
X020337Y019412D02*
X020857Y019412D01*
X020857Y018625D02*
X020337Y018625D01*
X020337Y017837D02*
X020857Y017837D01*
X020857Y017050D02*
X020337Y017050D01*
X020337Y016263D02*
X020857Y016263D01*
X020857Y015475D02*
X020337Y015475D01*
X026566Y015475D02*
X027086Y015475D01*
X027086Y016263D02*
X026566Y016263D01*
X026566Y017050D02*
X027086Y017050D01*
X027086Y017837D02*
X026566Y017837D01*
X026566Y018625D02*
X027086Y018625D01*
X027086Y019412D02*
X026566Y019412D01*
X026566Y020200D02*
X027086Y020200D01*
X027086Y020987D02*
X026566Y020987D01*
X029509Y020987D02*
X030029Y020987D01*
X030029Y020200D02*
X029509Y020200D01*
X029509Y019412D02*
X030029Y019412D01*
X030029Y018625D02*
X029509Y018625D01*
X029509Y017837D02*
X030029Y017837D01*
X030029Y017050D02*
X029509Y017050D01*
X029509Y016263D02*
X030029Y016263D01*
X030029Y015475D02*
X029509Y015475D01*
X035738Y015475D02*
X036258Y015475D01*
X036258Y016263D02*
X035738Y016263D01*
X035738Y017050D02*
X036258Y017050D01*
X036258Y017837D02*
X035738Y017837D01*
X035738Y018625D02*
X036258Y018625D01*
X036258Y019412D02*
X035738Y019412D01*
X035738Y020200D02*
X036258Y020200D01*
X036258Y020987D02*
X035738Y020987D01*
X035738Y006843D02*
X036258Y006843D01*
X036258Y006056D02*
X035738Y006056D01*
X035738Y005269D02*
X036258Y005269D01*
X036258Y004481D02*
X035738Y004481D01*
X035738Y003694D02*
X036258Y003694D01*
X036258Y002906D02*
X035738Y002906D01*
X035738Y002119D02*
X036258Y002119D01*
X036258Y001331D02*
X035738Y001331D01*
X030029Y001331D02*
X029509Y001331D01*
X029509Y002119D02*
X030029Y002119D01*
X030029Y002906D02*
X029509Y002906D01*
X029509Y003694D02*
X030029Y003694D01*
X030029Y004481D02*
X029509Y004481D01*
X029509Y005269D02*
X030029Y005269D01*
X030029Y006056D02*
X029509Y006056D01*
X029509Y006843D02*
X030029Y006843D01*
X027086Y006843D02*
X026566Y006843D01*
X026566Y006056D02*
X027086Y006056D01*
X027086Y005269D02*
X026566Y005269D01*
X026566Y004481D02*
X027086Y004481D01*
X027086Y003694D02*
X026566Y003694D01*
X026566Y002906D02*
X027086Y002906D01*
X027086Y002119D02*
X026566Y002119D01*
X026566Y001331D02*
X027086Y001331D01*
X020857Y001331D02*
X020337Y001331D01*
X020337Y002119D02*
X020857Y002119D01*
X020857Y002906D02*
X020337Y002906D01*
X020337Y003694D02*
X020857Y003694D01*
X020857Y004481D02*
X020337Y004481D01*
X020337Y005269D02*
X020857Y005269D01*
X020857Y006056D02*
X020337Y006056D01*
X020337Y006843D02*
X020857Y006843D01*
X017939Y006843D02*
X017419Y006843D01*
X017419Y006056D02*
X017939Y006056D01*
X017939Y005269D02*
X017419Y005269D01*
X017419Y004481D02*
X017939Y004481D01*
X017939Y003694D02*
X017419Y003694D01*
X017419Y002906D02*
X017939Y002906D01*
X017939Y002119D02*
X017419Y002119D01*
X017419Y001331D02*
X017939Y001331D01*
X011710Y001331D02*
X011190Y001331D01*
X011190Y002119D02*
X011710Y002119D01*
X011710Y002906D02*
X011190Y002906D01*
X011190Y003694D02*
X011710Y003694D01*
X011710Y004481D02*
X011190Y004481D01*
X011190Y005269D02*
X011710Y005269D01*
X011710Y006056D02*
X011190Y006056D01*
X011190Y006843D02*
X011710Y006843D01*
X008761Y006843D02*
X008241Y006843D01*
X008241Y006056D02*
X008761Y006056D01*
X008761Y005269D02*
X008241Y005269D01*
X008241Y004481D02*
X008761Y004481D01*
X008761Y003694D02*
X008241Y003694D01*
X008241Y002906D02*
X008761Y002906D01*
X008761Y002119D02*
X008241Y002119D01*
X008241Y001331D02*
X008761Y001331D01*
X002533Y001331D02*
X002013Y001331D01*
X002013Y002119D02*
X002533Y002119D01*
X002533Y002906D02*
X002013Y002906D01*
X002013Y003694D02*
X002533Y003694D01*
X002533Y004481D02*
X002013Y004481D01*
X002013Y005269D02*
X002533Y005269D01*
X002533Y006056D02*
X002013Y006056D01*
X002013Y006843D02*
X002533Y006843D01*
D24*
X003031Y006356D02*
X003041Y008076D01*
X003131Y008076D01*
X003131Y008746D02*
X002996Y008751D01*
X002816Y008751D01*
X002061Y008746D01*
X002006Y009246D02*
X002771Y009246D01*
X002906Y009111D01*
X003466Y009111D01*
X004211Y008166D01*
X004281Y008126D01*
X004166Y008076D01*
X003581Y007491D01*
X003411Y005626D01*
X003626Y005196D02*
X002591Y005196D01*
X002533Y005269D01*
X002501Y005196D01*
X002141Y005196D01*
X001736Y004791D01*
X001421Y004791D01*
X001381Y004761D01*
X002231Y004476D02*
X002501Y004476D01*
X002533Y004481D01*
X002231Y004476D02*
X001556Y003801D01*
X001421Y003801D01*
X001381Y003761D01*
X002186Y003666D02*
X001421Y002901D01*
X001421Y002766D01*
X001381Y002761D01*
X001421Y002091D02*
X002231Y002901D01*
X002501Y002901D01*
X002533Y002906D01*
X002951Y002136D02*
X002951Y001776D01*
X002546Y001371D01*
X002533Y001331D01*
X001421Y001776D02*
X001381Y001761D01*
X001421Y001776D02*
X001421Y002091D01*
X002186Y003666D02*
X002501Y003666D01*
X002533Y003694D01*
X002546Y005196D02*
X002533Y005269D01*
X002501Y006051D02*
X001691Y006051D01*
X001421Y005781D01*
X001381Y005761D01*
X002501Y006051D02*
X002533Y006056D01*
X003626Y005196D02*
X003851Y005421D01*
X004031Y005591D01*
X005471Y007221D01*
X005471Y008121D01*
X005581Y008126D01*
X006776Y008121D02*
X006781Y008126D01*
X006776Y008121D02*
X004536Y005061D01*
X005881Y004861D02*
X005929Y003659D01*
X005881Y004861D02*
X008181Y007361D01*
X008731Y007361D01*
X009381Y007761D01*
X009071Y006051D02*
X008261Y006051D01*
X008241Y006056D01*
X009071Y006051D02*
X009341Y005781D01*
X009381Y005761D01*
X008891Y005241D02*
X009341Y004791D01*
X009381Y004761D01*
X008891Y005241D02*
X008261Y005241D01*
X008241Y005269D01*
X008241Y004481D02*
X008261Y004476D01*
X008666Y004476D01*
X009381Y003761D01*
X008576Y003666D02*
X009341Y002901D01*
X009341Y002766D01*
X009381Y002761D01*
X009026Y002091D02*
X008261Y002091D01*
X008241Y002119D01*
X009026Y002091D02*
X009341Y001776D01*
X009381Y001761D01*
X010558Y001761D02*
X010598Y001776D01*
X010598Y002091D01*
X011408Y002901D01*
X011678Y002901D01*
X011710Y002906D01*
X012128Y002136D02*
X012128Y001776D01*
X011723Y001371D01*
X011710Y001331D01*
X010598Y002766D02*
X010558Y002761D01*
X010598Y002766D02*
X010598Y002901D01*
X011363Y003666D01*
X011678Y003666D01*
X011710Y003694D01*
X011678Y004476D02*
X011408Y004476D01*
X010733Y003801D01*
X010598Y003801D01*
X010558Y003761D01*
X010558Y004761D02*
X010598Y004791D01*
X010913Y004791D01*
X011318Y005196D01*
X011678Y005196D01*
X011710Y005269D01*
X011768Y005196D01*
X012803Y005196D01*
X013028Y005421D01*
X013208Y005591D01*
X014648Y007221D01*
X014648Y008121D01*
X014758Y008126D01*
X015953Y008121D02*
X015958Y008126D01*
X015953Y008121D02*
X013713Y005061D01*
X012588Y005626D02*
X012758Y007491D01*
X013343Y008076D01*
X013458Y008126D01*
X013388Y008166D01*
X012643Y009111D01*
X012083Y009111D01*
X011948Y009246D01*
X011183Y009246D01*
X010778Y009651D01*
X010508Y009651D01*
X010467Y009658D01*
X010841Y010445D02*
X010823Y010461D01*
X010823Y011091D01*
X010688Y011226D01*
X010688Y011251D01*
X012128Y011586D02*
X012263Y011451D01*
X013028Y011451D01*
X013803Y010676D01*
X013803Y009821D01*
X014423Y009201D01*
X014918Y009201D01*
X015323Y009206D01*
X015323Y011361D01*
X015208Y011376D01*
X014648Y011551D02*
X014063Y012036D01*
X014108Y012046D01*
X014063Y012081D01*
X014063Y012396D01*
X014558Y012891D01*
X014558Y013161D01*
X014586Y013189D01*
X014842Y013189D02*
X014873Y013161D01*
X014873Y012891D01*
X015223Y012391D01*
X015223Y012031D01*
X015208Y012046D01*
X015218Y012036D01*
X015953Y011451D01*
X015953Y010281D01*
X015958Y010246D01*
X014758Y010246D02*
X014648Y010381D01*
X014648Y011551D01*
X014108Y011376D02*
X014018Y011406D01*
X013343Y011406D01*
X013073Y011676D01*
X012533Y011676D01*
X012513Y011686D01*
X012488Y011901D02*
X012218Y011901D01*
X012128Y011811D01*
X012128Y011586D01*
X012488Y011901D02*
X012513Y011936D01*
X011408Y013161D02*
X012038Y013791D01*
X012513Y013936D02*
X012533Y013971D01*
X012533Y014241D01*
X012983Y014691D01*
X013703Y014691D01*
X013928Y014466D01*
X012128Y015920D02*
X011723Y015515D01*
X011710Y015475D01*
X012128Y015920D02*
X012128Y016280D01*
X011710Y017050D02*
X011678Y017045D01*
X011408Y017045D01*
X010598Y016235D01*
X010598Y015920D01*
X010558Y015905D01*
X010558Y016905D02*
X010598Y016910D01*
X010598Y017045D01*
X011363Y017810D01*
X011678Y017810D01*
X011710Y017837D01*
X011678Y018620D02*
X011408Y018620D01*
X010733Y017945D01*
X010598Y017945D01*
X010558Y017905D01*
X010558Y018905D02*
X010598Y018935D01*
X010913Y018935D01*
X011318Y019340D01*
X011678Y019340D01*
X011710Y019412D01*
X011768Y019340D01*
X012803Y019340D01*
X013028Y019565D01*
X013208Y019735D01*
X014648Y021365D01*
X014648Y022265D01*
X014758Y022270D01*
X015953Y022265D02*
X015958Y022270D01*
X015953Y022265D02*
X013713Y019205D01*
X012588Y019770D02*
X012758Y021635D01*
X013343Y022220D01*
X013458Y022270D01*
X013388Y022310D01*
X012643Y023255D01*
X012083Y023255D01*
X011948Y023390D01*
X011183Y023390D01*
X010778Y023795D01*
X010508Y023795D01*
X010467Y023802D01*
X010841Y024589D02*
X010823Y024605D01*
X010823Y025235D01*
X010688Y025370D01*
X010688Y025395D01*
X012128Y025730D02*
X012263Y025595D01*
X013028Y025595D01*
X013803Y024820D01*
X013803Y023965D01*
X014423Y023345D01*
X014918Y023345D01*
X015323Y023350D01*
X015323Y025505D01*
X015208Y025520D01*
X014648Y025695D02*
X014063Y026180D01*
X014108Y026189D01*
X014063Y026225D01*
X014063Y026540D01*
X014558Y027035D01*
X014558Y027305D01*
X014586Y027332D01*
X014842Y027332D02*
X014873Y027305D01*
X014873Y027035D01*
X015223Y026535D01*
X015223Y026175D01*
X015208Y026189D01*
X015218Y026180D01*
X015953Y025595D01*
X015953Y024425D01*
X015958Y024389D01*
X014758Y024389D02*
X014648Y024525D01*
X014648Y025695D01*
X014108Y025520D02*
X014018Y025550D01*
X013343Y025550D01*
X013073Y025820D01*
X012533Y025820D01*
X012513Y025830D01*
X012488Y026045D02*
X012218Y026045D01*
X012128Y025955D01*
X012128Y025730D01*
X012488Y026045D02*
X012513Y026080D01*
X011408Y027305D02*
X012038Y027935D01*
X012513Y028080D02*
X012533Y028115D01*
X012533Y028385D01*
X012983Y028835D01*
X013703Y028835D01*
X013928Y028610D01*
X011408Y027305D02*
X010418Y027305D01*
X010403Y027330D01*
X010418Y028070D02*
X010403Y028080D01*
X010418Y028070D02*
X010733Y028070D01*
X010868Y027935D01*
X006776Y025595D02*
X006041Y026180D01*
X006031Y026189D01*
X006046Y026175D01*
X006046Y026535D01*
X005696Y027035D01*
X005696Y027305D01*
X005665Y027332D01*
X005409Y027332D02*
X005381Y027305D01*
X005381Y027035D01*
X004886Y026540D01*
X004886Y026225D01*
X004931Y026189D01*
X004886Y026180D01*
X005471Y025695D01*
X005471Y024525D01*
X005581Y024389D01*
X004626Y023965D02*
X004626Y024820D01*
X003851Y025595D01*
X003086Y025595D01*
X002951Y025730D01*
X002951Y025955D01*
X003041Y026045D01*
X003311Y026045D01*
X003336Y026080D01*
X003336Y025830D02*
X003356Y025820D01*
X003896Y025820D01*
X004166Y025550D01*
X004841Y025550D01*
X004931Y025520D01*
X006031Y025520D02*
X006146Y025505D01*
X006146Y023350D01*
X005741Y023345D01*
X005246Y023345D01*
X004626Y023965D01*
X003466Y023255D02*
X004211Y022310D01*
X004281Y022270D01*
X004166Y022220D01*
X003581Y021635D01*
X003411Y019770D01*
X003626Y019340D02*
X002591Y019340D01*
X002533Y019412D01*
X002501Y019340D01*
X002141Y019340D01*
X001736Y018935D01*
X001421Y018935D01*
X001381Y018905D01*
X002231Y018620D02*
X002501Y018620D01*
X002533Y018625D01*
X002231Y018620D02*
X001556Y017945D01*
X001421Y017945D01*
X001381Y017905D01*
X002186Y017810D02*
X001421Y017045D01*
X001421Y016910D01*
X001381Y016905D01*
X001421Y016235D02*
X001421Y015920D01*
X001381Y015905D01*
X001421Y016235D02*
X002231Y017045D01*
X002501Y017045D01*
X002533Y017050D01*
X002501Y017810D02*
X002186Y017810D01*
X002501Y017810D02*
X002533Y017837D01*
X002546Y019340D02*
X002533Y019412D01*
X002501Y020195D02*
X001691Y020195D01*
X001421Y019925D01*
X001381Y019905D01*
X002501Y020195D02*
X002533Y020200D01*
X003031Y020500D02*
X003041Y022220D01*
X003131Y022220D01*
X003131Y022889D02*
X002996Y022895D01*
X002816Y022895D01*
X002061Y022890D01*
X002006Y023390D02*
X002771Y023390D01*
X002906Y023255D01*
X003466Y023255D01*
X002006Y023390D02*
X001601Y023795D01*
X001331Y023795D01*
X001290Y023802D01*
X001664Y024589D02*
X001646Y024605D01*
X001646Y025235D01*
X001511Y025370D01*
X001511Y025395D01*
X001241Y027305D02*
X001226Y027330D01*
X001241Y027305D02*
X002231Y027305D01*
X002861Y027935D01*
X003336Y028080D02*
X003356Y028115D01*
X003356Y028385D01*
X003806Y028835D01*
X004526Y028835D01*
X004751Y028610D01*
X001691Y027935D02*
X001556Y028070D01*
X001241Y028070D01*
X001226Y028080D01*
X006776Y025595D02*
X006776Y024425D01*
X006781Y024389D01*
X007356Y022375D02*
X007146Y021640D01*
X006776Y022265D02*
X006781Y022270D01*
X006776Y022265D02*
X004536Y019205D01*
X004031Y019735D02*
X003851Y019565D01*
X003626Y019340D01*
X004031Y019735D02*
X005471Y021365D01*
X005471Y022265D01*
X005581Y022270D01*
X008181Y021505D02*
X005881Y019005D01*
X005929Y017802D01*
X008241Y017837D02*
X008261Y017810D01*
X008576Y017810D01*
X009341Y017045D01*
X009341Y016910D01*
X009381Y016905D01*
X009026Y016235D02*
X009341Y015920D01*
X009381Y015905D01*
X009026Y016235D02*
X008261Y016235D01*
X008241Y016263D01*
X009381Y017905D02*
X008666Y018620D01*
X008261Y018620D01*
X008241Y018625D01*
X008261Y019385D02*
X008241Y019412D01*
X008261Y019385D02*
X008891Y019385D01*
X009341Y018935D01*
X009381Y018905D01*
X009381Y019905D02*
X009341Y019925D01*
X009071Y020195D01*
X008261Y020195D01*
X008241Y020200D01*
X008181Y021505D02*
X008731Y021505D01*
X009381Y021905D01*
X011238Y022890D02*
X011993Y022895D01*
X012173Y022895D01*
X012308Y022889D01*
X012308Y022220D02*
X012218Y022220D01*
X012208Y020500D01*
X011710Y020200D02*
X011678Y020195D01*
X010868Y020195D01*
X010598Y019925D01*
X010558Y019905D01*
X011710Y019412D02*
X011723Y019340D01*
X011710Y018625D02*
X011678Y018620D01*
X015058Y019005D02*
X015106Y017802D01*
X015058Y019005D02*
X017358Y021505D01*
X017908Y021505D01*
X018558Y021905D01*
X020386Y022890D02*
X021141Y022895D01*
X021321Y022895D01*
X021456Y022889D01*
X021231Y023255D02*
X021791Y023255D01*
X022536Y022310D01*
X022606Y022270D01*
X022491Y022220D01*
X021906Y021635D01*
X021736Y019770D01*
X021951Y019340D02*
X020916Y019340D01*
X020857Y019412D01*
X020826Y019340D01*
X020466Y019340D01*
X020061Y018935D01*
X019746Y018935D01*
X019706Y018905D01*
X020556Y018620D02*
X020826Y018620D01*
X020857Y018625D01*
X020556Y018620D02*
X019881Y017945D01*
X019746Y017945D01*
X019706Y017905D01*
X020511Y017810D02*
X019746Y017045D01*
X019746Y016910D01*
X019706Y016905D01*
X019746Y016235D02*
X019746Y015920D01*
X019706Y015905D01*
X019746Y016235D02*
X020556Y017045D01*
X020826Y017045D01*
X020857Y017050D01*
X020826Y017810D02*
X020511Y017810D01*
X020826Y017810D02*
X020857Y017837D01*
X020871Y019340D02*
X020857Y019412D01*
X020826Y020195D02*
X020016Y020195D01*
X019746Y019925D01*
X019706Y019905D01*
X018558Y019905D02*
X018518Y019925D01*
X018248Y020195D01*
X017438Y020195D01*
X017419Y020200D01*
X017419Y019412D02*
X017438Y019385D01*
X018068Y019385D01*
X018518Y018935D01*
X018558Y018905D01*
X017843Y018620D02*
X018558Y017905D01*
X017753Y017810D02*
X018518Y017045D01*
X018518Y016910D01*
X018558Y016905D01*
X018203Y016235D02*
X018518Y015920D01*
X018558Y015905D01*
X018203Y016235D02*
X017438Y016235D01*
X017419Y016263D01*
X017438Y017810D02*
X017419Y017837D01*
X017438Y017810D02*
X017753Y017810D01*
X017843Y018620D02*
X017438Y018620D01*
X017419Y018625D01*
X020826Y020195D02*
X020857Y020200D01*
X021356Y020500D02*
X021366Y022220D01*
X021456Y022220D01*
X021231Y023255D02*
X021096Y023390D01*
X020331Y023390D01*
X019926Y023795D01*
X019656Y023795D01*
X019615Y023802D01*
X019989Y024589D02*
X019971Y024605D01*
X019971Y025235D01*
X019836Y025370D01*
X019836Y025395D01*
X021276Y025730D02*
X021411Y025595D01*
X022176Y025595D01*
X022951Y024820D01*
X022951Y023965D01*
X023571Y023345D01*
X024066Y023345D01*
X024471Y023350D01*
X024471Y025505D01*
X024356Y025520D01*
X023796Y025695D02*
X023211Y026180D01*
X023256Y026189D01*
X023211Y026225D01*
X023211Y026540D01*
X023706Y027035D01*
X023706Y027305D01*
X023733Y027332D01*
X023989Y027332D02*
X024021Y027305D01*
X024021Y027035D01*
X024371Y026535D01*
X024371Y026175D01*
X024356Y026189D01*
X024366Y026180D01*
X025101Y025595D01*
X025101Y024425D01*
X025106Y024389D01*
X023906Y024389D02*
X023796Y024525D01*
X023796Y025695D01*
X023256Y025520D02*
X023166Y025550D01*
X022491Y025550D01*
X022221Y025820D01*
X021681Y025820D01*
X021661Y025830D01*
X021636Y026045D02*
X021366Y026045D01*
X021276Y025955D01*
X021276Y025730D01*
X021636Y026045D02*
X021661Y026080D01*
X020556Y027305D02*
X021186Y027935D01*
X021661Y028080D02*
X021681Y028115D01*
X021681Y028385D01*
X022131Y028835D01*
X022851Y028835D01*
X023076Y028610D01*
X020556Y027305D02*
X019566Y027305D01*
X019551Y027330D01*
X019566Y028070D02*
X019551Y028080D01*
X019566Y028070D02*
X019881Y028070D01*
X020016Y027935D01*
X016533Y022375D02*
X016323Y021640D01*
X021951Y019340D02*
X022176Y019565D01*
X022356Y019735D01*
X023796Y021365D01*
X023796Y022265D01*
X023906Y022270D01*
X025101Y022265D02*
X025106Y022270D01*
X025101Y022265D02*
X022861Y019205D01*
X024206Y019005D02*
X024253Y017802D01*
X024206Y019005D02*
X026506Y021505D01*
X027056Y021505D01*
X027706Y021905D01*
X029558Y022890D02*
X030313Y022895D01*
X030493Y022895D01*
X030628Y022889D01*
X030403Y023255D02*
X030963Y023255D01*
X031708Y022310D01*
X031778Y022270D01*
X031663Y022220D01*
X031078Y021635D01*
X030908Y019770D01*
X031123Y019340D02*
X030088Y019340D01*
X030029Y019412D01*
X029998Y019340D01*
X029638Y019340D01*
X029233Y018935D01*
X028918Y018935D01*
X028878Y018905D01*
X029728Y018620D02*
X029998Y018620D01*
X030029Y018625D01*
X029728Y018620D02*
X029053Y017945D01*
X028918Y017945D01*
X028878Y017905D01*
X029683Y017810D02*
X028918Y017045D01*
X028918Y016910D01*
X028878Y016905D01*
X028918Y016235D02*
X028918Y015920D01*
X028878Y015905D01*
X028918Y016235D02*
X029728Y017045D01*
X029998Y017045D01*
X030029Y017050D01*
X029998Y017810D02*
X029683Y017810D01*
X029998Y017810D02*
X030029Y017837D01*
X030043Y019340D02*
X030029Y019412D01*
X029998Y020195D02*
X030029Y020200D01*
X029998Y020195D02*
X029188Y020195D01*
X028918Y019925D01*
X028878Y019905D01*
X027706Y019905D02*
X027666Y019925D01*
X027396Y020195D01*
X026586Y020195D01*
X026566Y020200D01*
X026566Y019412D02*
X026586Y019385D01*
X027216Y019385D01*
X027666Y018935D01*
X027706Y018905D01*
X026991Y018620D02*
X027706Y017905D01*
X026991Y018620D02*
X026586Y018620D01*
X026566Y018625D01*
X026566Y017837D02*
X026586Y017810D01*
X026901Y017810D01*
X027666Y017045D01*
X027666Y016910D01*
X027706Y016905D01*
X027351Y016235D02*
X027666Y015920D01*
X027706Y015905D01*
X027351Y016235D02*
X026586Y016235D01*
X026566Y016263D01*
X028723Y013936D02*
X028738Y013926D01*
X029053Y013926D01*
X029188Y013791D01*
X028723Y013186D02*
X028738Y013161D01*
X029728Y013161D01*
X030358Y013791D01*
X030833Y013936D02*
X030853Y013971D01*
X030853Y014241D01*
X031303Y014691D01*
X032023Y014691D01*
X032248Y014466D01*
X032905Y013189D02*
X032878Y013161D01*
X032878Y012891D01*
X032383Y012396D01*
X032383Y012081D01*
X032428Y012046D01*
X032383Y012036D01*
X032968Y011551D01*
X032968Y010381D01*
X033078Y010246D01*
X032123Y009821D02*
X032743Y009201D01*
X033238Y009201D01*
X033643Y009206D01*
X033643Y011361D01*
X033528Y011376D01*
X033543Y012031D02*
X033528Y012046D01*
X033538Y012036D01*
X034273Y011451D01*
X034273Y010281D01*
X034278Y010246D01*
X032428Y011376D02*
X032338Y011406D01*
X031663Y011406D01*
X031393Y011676D01*
X030853Y011676D01*
X030833Y011686D01*
X030808Y011901D02*
X030538Y011901D01*
X030448Y011811D01*
X030448Y011586D01*
X030583Y011451D01*
X031348Y011451D01*
X032123Y010676D01*
X032123Y009821D01*
X030963Y009111D02*
X031708Y008166D01*
X031778Y008126D01*
X031663Y008076D01*
X031078Y007491D01*
X030908Y005626D01*
X031123Y005196D02*
X030088Y005196D01*
X030029Y005269D01*
X029998Y005196D01*
X029638Y005196D01*
X029233Y004791D01*
X028918Y004791D01*
X028878Y004761D01*
X029728Y004476D02*
X029998Y004476D01*
X030029Y004481D01*
X029728Y004476D02*
X029053Y003801D01*
X028918Y003801D01*
X028878Y003761D01*
X029683Y003666D02*
X028918Y002901D01*
X028918Y002766D01*
X028878Y002761D01*
X028918Y002091D02*
X029728Y002901D01*
X029998Y002901D01*
X030029Y002906D01*
X030448Y002136D02*
X030448Y001776D01*
X030043Y001371D01*
X030029Y001331D01*
X028918Y001776D02*
X028878Y001761D01*
X028918Y001776D02*
X028918Y002091D01*
X027706Y001761D02*
X027666Y001776D01*
X027351Y002091D01*
X026586Y002091D01*
X026566Y002119D01*
X027666Y002766D02*
X027706Y002761D01*
X027666Y002766D02*
X027666Y002901D01*
X026901Y003666D01*
X026586Y003666D01*
X026566Y003694D01*
X026586Y004476D02*
X026566Y004481D01*
X026586Y004476D02*
X026991Y004476D01*
X027706Y003761D01*
X027706Y004761D02*
X027666Y004791D01*
X027216Y005241D01*
X026586Y005241D01*
X026566Y005269D01*
X027396Y006051D02*
X027666Y005781D01*
X027706Y005761D01*
X027396Y006051D02*
X026586Y006051D01*
X026566Y006056D01*
X026506Y007361D02*
X024206Y004861D01*
X024253Y003659D01*
X022861Y005061D02*
X025101Y008121D01*
X025106Y008126D01*
X025681Y008231D02*
X025471Y007496D01*
X026506Y007361D02*
X027056Y007361D01*
X027706Y007761D01*
X029558Y008746D02*
X030313Y008751D01*
X030493Y008751D01*
X030628Y008746D01*
X030403Y009111D02*
X030268Y009246D01*
X029503Y009246D01*
X029098Y009651D01*
X028828Y009651D01*
X028787Y009658D01*
X029161Y010445D02*
X029143Y010461D01*
X029143Y011091D01*
X029008Y011226D01*
X029008Y011251D01*
X030808Y011901D02*
X030833Y011936D01*
X033193Y012891D02*
X033193Y013161D01*
X033161Y013189D01*
X033193Y012891D02*
X033543Y012391D01*
X033543Y012031D01*
X030963Y009111D02*
X030403Y009111D01*
X030538Y008076D02*
X030628Y008076D01*
X030538Y008076D02*
X030528Y006356D01*
X030029Y006056D02*
X029998Y006051D01*
X029188Y006051D01*
X028918Y005781D01*
X028878Y005761D01*
X030029Y005269D02*
X030043Y005196D01*
X031123Y005196D02*
X031348Y005421D01*
X031528Y005591D01*
X032968Y007221D01*
X032968Y008121D01*
X033078Y008126D01*
X034273Y008121D02*
X034278Y008126D01*
X034273Y008121D02*
X032033Y005061D01*
X033378Y004861D02*
X033425Y003659D01*
X033378Y004861D02*
X035678Y007361D01*
X036228Y007361D01*
X036878Y007761D01*
X036568Y006051D02*
X035758Y006051D01*
X035738Y006056D01*
X035738Y005269D02*
X035758Y005241D01*
X036388Y005241D01*
X036838Y004791D01*
X036878Y004761D01*
X036163Y004476D02*
X036878Y003761D01*
X036073Y003666D02*
X036838Y002901D01*
X036838Y002766D01*
X036878Y002761D01*
X036523Y002091D02*
X035758Y002091D01*
X035738Y002119D01*
X036523Y002091D02*
X036838Y001776D01*
X036878Y001761D01*
X036073Y003666D02*
X035758Y003666D01*
X035738Y003694D01*
X035758Y004476D02*
X035738Y004481D01*
X035758Y004476D02*
X036163Y004476D01*
X036838Y005781D02*
X036878Y005761D01*
X036838Y005781D02*
X036568Y006051D01*
X034643Y007496D02*
X034853Y008231D01*
X030029Y003694D02*
X029998Y003666D01*
X029683Y003666D01*
X023906Y008126D02*
X023796Y008121D01*
X023796Y007221D01*
X022356Y005591D01*
X022176Y005421D01*
X021951Y005196D01*
X020916Y005196D01*
X020857Y005269D01*
X020826Y005196D01*
X020466Y005196D01*
X020061Y004791D01*
X019746Y004791D01*
X019706Y004761D01*
X020556Y004476D02*
X020826Y004476D01*
X020857Y004481D01*
X020556Y004476D02*
X019881Y003801D01*
X019746Y003801D01*
X019706Y003761D01*
X020511Y003666D02*
X019746Y002901D01*
X019746Y002766D01*
X019706Y002761D01*
X019746Y002091D02*
X020556Y002901D01*
X020826Y002901D01*
X020857Y002906D01*
X021276Y002136D02*
X021276Y001776D01*
X020871Y001371D01*
X020857Y001331D01*
X019746Y001776D02*
X019706Y001761D01*
X019746Y001776D02*
X019746Y002091D01*
X018558Y001761D02*
X018518Y001776D01*
X018203Y002091D01*
X017438Y002091D01*
X017419Y002119D01*
X018518Y002766D02*
X018558Y002761D01*
X018518Y002766D02*
X018518Y002901D01*
X017753Y003666D01*
X017438Y003666D01*
X017419Y003694D01*
X017438Y004476D02*
X017419Y004481D01*
X017438Y004476D02*
X017843Y004476D01*
X018558Y003761D01*
X018558Y004761D02*
X018518Y004791D01*
X018068Y005241D01*
X017438Y005241D01*
X017419Y005269D01*
X017438Y006051D02*
X017419Y006056D01*
X017438Y006051D02*
X018248Y006051D01*
X018518Y005781D01*
X018558Y005761D01*
X019706Y005761D02*
X019746Y005781D01*
X020016Y006051D01*
X020826Y006051D01*
X020857Y006056D01*
X021356Y006356D02*
X021366Y008076D01*
X021456Y008076D01*
X021456Y008746D02*
X021321Y008751D01*
X021141Y008751D01*
X020386Y008746D01*
X020331Y009246D02*
X021096Y009246D01*
X021231Y009111D01*
X021791Y009111D01*
X022536Y008166D01*
X022606Y008126D01*
X022491Y008076D01*
X021906Y007491D01*
X021736Y005626D01*
X020857Y005269D02*
X020871Y005196D01*
X020857Y003694D02*
X020826Y003666D01*
X020511Y003666D01*
X017908Y007361D02*
X017358Y007361D01*
X015058Y004861D01*
X015106Y003659D01*
X011710Y004481D02*
X011678Y004476D01*
X011723Y005196D02*
X011710Y005269D01*
X011678Y006051D02*
X010868Y006051D01*
X010598Y005781D01*
X010558Y005761D01*
X011678Y006051D02*
X011710Y006056D01*
X012208Y006356D02*
X012218Y008076D01*
X012308Y008076D01*
X012308Y008746D02*
X012173Y008751D01*
X011993Y008751D01*
X011238Y008746D01*
X007356Y008231D02*
X007146Y007496D01*
X006146Y009206D02*
X005741Y009201D01*
X005246Y009201D01*
X004626Y009821D01*
X004626Y010676D01*
X003851Y011451D01*
X003086Y011451D01*
X002951Y011586D01*
X002951Y011811D01*
X003041Y011901D01*
X003311Y011901D01*
X003336Y011936D01*
X003336Y011686D02*
X003356Y011676D01*
X003896Y011676D01*
X004166Y011406D01*
X004841Y011406D01*
X004931Y011376D01*
X005471Y011551D02*
X004886Y012036D01*
X004931Y012046D01*
X004886Y012081D01*
X004886Y012396D01*
X005381Y012891D01*
X005381Y013161D01*
X005409Y013189D01*
X005665Y013189D02*
X005696Y013161D01*
X005696Y012891D01*
X006046Y012391D01*
X006046Y012031D01*
X006031Y012046D01*
X006041Y012036D01*
X006776Y011451D01*
X006776Y010281D01*
X006781Y010246D01*
X005581Y010246D02*
X005471Y010381D01*
X005471Y011551D01*
X006031Y011376D02*
X006146Y011361D01*
X006146Y009206D01*
X002006Y009246D02*
X001601Y009651D01*
X001331Y009651D01*
X001290Y009658D01*
X001664Y010445D02*
X001646Y010461D01*
X001646Y011091D01*
X001511Y011226D01*
X001511Y011251D01*
X001241Y013161D02*
X001226Y013186D01*
X001241Y013161D02*
X002231Y013161D01*
X002861Y013791D01*
X003336Y013936D02*
X003356Y013971D01*
X003356Y014241D01*
X003806Y014691D01*
X004526Y014691D01*
X004751Y014466D01*
X002951Y015920D02*
X002546Y015515D01*
X002533Y015475D01*
X002951Y015920D02*
X002951Y016280D01*
X001556Y013926D02*
X001241Y013926D01*
X001226Y013936D01*
X001556Y013926D02*
X001691Y013791D01*
X010403Y013936D02*
X010418Y013926D01*
X010733Y013926D01*
X010868Y013791D01*
X010403Y013186D02*
X010418Y013161D01*
X011408Y013161D01*
X016533Y008231D02*
X016323Y007496D01*
X017908Y007361D02*
X018558Y007761D01*
X020331Y009246D02*
X019926Y009651D01*
X019656Y009651D01*
X019615Y009658D01*
X019989Y010445D02*
X019971Y010461D01*
X019971Y011091D01*
X019836Y011226D01*
X019836Y011251D01*
X021276Y011586D02*
X021411Y011451D01*
X022176Y011451D01*
X022951Y010676D01*
X022951Y009821D01*
X023571Y009201D01*
X024066Y009201D01*
X024471Y009206D01*
X024471Y011361D01*
X024356Y011376D01*
X023796Y011551D02*
X023211Y012036D01*
X023256Y012046D01*
X023211Y012081D01*
X023211Y012396D01*
X023706Y012891D01*
X023706Y013161D01*
X023733Y013189D01*
X023989Y013189D02*
X024021Y013161D01*
X024021Y012891D01*
X024371Y012391D01*
X024371Y012031D01*
X024356Y012046D01*
X024366Y012036D01*
X025101Y011451D01*
X025101Y010281D01*
X025106Y010246D01*
X023906Y010246D02*
X023796Y010381D01*
X023796Y011551D01*
X023256Y011376D02*
X023166Y011406D01*
X022491Y011406D01*
X022221Y011676D01*
X021681Y011676D01*
X021661Y011686D01*
X021636Y011901D02*
X021366Y011901D01*
X021276Y011811D01*
X021276Y011586D01*
X021636Y011901D02*
X021661Y011936D01*
X020556Y013161D02*
X021186Y013791D01*
X021661Y013936D02*
X021681Y013971D01*
X021681Y014241D01*
X022131Y014691D01*
X022851Y014691D01*
X023076Y014466D01*
X021276Y015920D02*
X020871Y015515D01*
X020857Y015475D01*
X021276Y015920D02*
X021276Y016280D01*
X019881Y013926D02*
X019566Y013926D01*
X019551Y013936D01*
X019881Y013926D02*
X020016Y013791D01*
X019551Y013186D02*
X019566Y013161D01*
X020556Y013161D01*
X030029Y015475D02*
X030043Y015515D01*
X030448Y015920D01*
X030448Y016280D01*
X033425Y017802D02*
X033378Y019005D01*
X035678Y021505D01*
X036228Y021505D01*
X036878Y021905D01*
X034853Y022375D02*
X034643Y021640D01*
X034273Y022265D02*
X034278Y022270D01*
X034273Y022265D02*
X032033Y019205D01*
X031528Y019735D02*
X031348Y019565D01*
X031123Y019340D01*
X031528Y019735D02*
X032968Y021365D01*
X032968Y022265D01*
X033078Y022270D01*
X033238Y023345D02*
X032743Y023345D01*
X032123Y023965D01*
X032123Y024820D01*
X031348Y025595D01*
X030583Y025595D01*
X030448Y025730D01*
X030448Y025955D01*
X030538Y026045D01*
X030808Y026045D01*
X030833Y026080D01*
X030833Y025830D02*
X030853Y025820D01*
X031393Y025820D01*
X031663Y025550D01*
X032338Y025550D01*
X032428Y025520D01*
X032968Y025695D02*
X032383Y026180D01*
X032428Y026189D01*
X032383Y026225D01*
X032383Y026540D01*
X032878Y027035D01*
X032878Y027305D01*
X032905Y027332D01*
X033161Y027332D02*
X033193Y027305D01*
X033193Y027035D01*
X033543Y026535D01*
X033543Y026175D01*
X033528Y026189D01*
X033538Y026180D01*
X034273Y025595D01*
X034273Y024425D01*
X034278Y024389D01*
X033078Y024389D02*
X032968Y024525D01*
X032968Y025695D01*
X033528Y025520D02*
X033643Y025505D01*
X033643Y023350D01*
X033238Y023345D01*
X030403Y023255D02*
X030268Y023390D01*
X029503Y023390D01*
X029098Y023795D01*
X028828Y023795D01*
X028787Y023802D01*
X029161Y024589D02*
X029143Y024605D01*
X029143Y025235D01*
X029008Y025370D01*
X029008Y025395D01*
X028738Y027305D02*
X028723Y027330D01*
X028738Y027305D02*
X029728Y027305D01*
X030358Y027935D01*
X030833Y028080D02*
X030853Y028115D01*
X030853Y028385D01*
X031303Y028835D01*
X032023Y028835D01*
X032248Y028610D01*
X029188Y027935D02*
X029053Y028070D01*
X028738Y028070D01*
X028723Y028080D01*
X025681Y022375D02*
X025471Y021640D01*
X030538Y022220D02*
X030528Y020500D01*
X030538Y022220D02*
X030628Y022220D01*
X035738Y020200D02*
X035758Y020195D01*
X036568Y020195D01*
X036838Y019925D01*
X036878Y019905D01*
X036388Y019385D02*
X036838Y018935D01*
X036878Y018905D01*
X036163Y018620D02*
X036878Y017905D01*
X036073Y017810D02*
X036838Y017045D01*
X036838Y016910D01*
X036878Y016905D01*
X036523Y016235D02*
X035758Y016235D01*
X035738Y016263D01*
X036523Y016235D02*
X036838Y015920D01*
X036878Y015905D01*
X036073Y017810D02*
X035758Y017810D01*
X035738Y017837D01*
X035758Y018620D02*
X035738Y018625D01*
X035758Y018620D02*
X036163Y018620D01*
X036388Y019385D02*
X035758Y019385D01*
X035738Y019412D01*
X008576Y003666D02*
X008261Y003666D01*
X008241Y003694D01*
D25*
X008216Y002946D02*
X007771Y002971D01*
X007811Y006321D01*
X008171Y006681D01*
X008241Y006843D01*
X008801Y006771D01*
X009341Y006771D01*
X009381Y006761D01*
X008731Y006737D02*
X008261Y006816D01*
X008241Y006843D01*
X008216Y006816D01*
X008231Y006761D01*
X007491Y007426D02*
X007681Y007911D01*
X007681Y008751D01*
X008081Y008751D01*
X008081Y008746D01*
X008126Y008796D01*
X008436Y009176D01*
X008801Y008796D02*
X008846Y008751D01*
X009341Y008751D01*
X009381Y008761D01*
X008801Y008796D02*
X008801Y009576D01*
X008081Y009576D01*
X007571Y009576D01*
X007571Y011591D01*
X007571Y012621D01*
X006431Y013761D01*
X004901Y013761D01*
X004901Y013189D01*
X004897Y013189D01*
X004531Y013811D02*
X004011Y013431D01*
X004011Y012681D01*
X004006Y012686D01*
X003336Y012686D01*
X002656Y012686D01*
X002581Y012611D01*
X002581Y011511D01*
X003081Y010246D01*
X003086Y009606D02*
X003081Y009606D01*
X003086Y009606D02*
X003081Y009576D01*
X003086Y009606D02*
X003631Y009606D01*
X003631Y010711D01*
X003281Y011061D01*
X003806Y011091D02*
X004266Y010631D01*
X004266Y010181D01*
X004281Y010246D01*
X004896Y010281D02*
X005471Y009606D01*
X005581Y009576D01*
X005561Y008796D02*
X005581Y008796D01*
X005471Y008796D01*
X004211Y008796D01*
X004281Y008796D01*
X004281Y009576D02*
X004166Y009606D01*
X003631Y009606D01*
X005561Y008796D02*
X006776Y008796D01*
X006781Y008796D01*
X006821Y008751D01*
X007681Y008751D01*
X008306Y008346D02*
X008081Y008121D01*
X008081Y008076D01*
X008306Y008346D02*
X008351Y008346D01*
X008801Y008796D01*
X008801Y009576D02*
X009381Y009576D01*
X009431Y009516D01*
X009381Y010246D02*
X009381Y011591D01*
X009391Y011591D01*
X009386Y011631D01*
X008671Y010656D01*
X008126Y010281D02*
X008081Y010246D01*
X008171Y010236D01*
X008486Y009921D01*
X008081Y010236D02*
X008081Y010246D01*
X008126Y010281D02*
X008126Y011271D01*
X008441Y011586D01*
X008481Y011591D01*
X006776Y011946D02*
X005921Y012981D01*
X005921Y013161D01*
X005920Y013189D01*
X003806Y012036D02*
X003671Y012171D01*
X003356Y012171D01*
X003336Y012186D01*
X003356Y012261D01*
X003356Y012396D01*
X003336Y012436D01*
X003336Y012936D02*
X001881Y012941D01*
X001881Y012681D01*
X001881Y012011D01*
X001881Y012681D02*
X001226Y012686D01*
X001241Y013431D02*
X001226Y013436D01*
X001241Y013431D02*
X001781Y013431D01*
X006771Y009577D02*
X006781Y009576D01*
X006771Y009577D02*
X007521Y009577D01*
X007571Y009576D01*
X010558Y007811D02*
X011208Y007831D01*
X011798Y007591D01*
X011678Y006861D02*
X011708Y006761D01*
X011723Y006816D02*
X011710Y006843D01*
X011633Y006771D01*
X010598Y006771D01*
X010558Y006761D01*
X011678Y006861D02*
X011710Y006843D01*
X013388Y008796D02*
X013458Y008796D01*
X013388Y008796D02*
X014648Y008796D01*
X014758Y008796D01*
X014738Y008796D01*
X015953Y008796D01*
X015958Y008796D01*
X015998Y008751D01*
X016858Y008751D01*
X016858Y007911D01*
X016668Y007426D01*
X017258Y008076D02*
X017258Y008121D01*
X017483Y008346D01*
X017528Y008346D01*
X017978Y008796D01*
X018023Y008751D01*
X018518Y008751D01*
X018558Y008761D01*
X017978Y008796D02*
X017978Y009576D01*
X017258Y009576D01*
X016748Y009576D01*
X016748Y011591D01*
X016748Y012621D01*
X015608Y013761D01*
X014078Y013761D01*
X014078Y013189D01*
X014074Y013189D01*
X013708Y013811D02*
X013188Y013431D01*
X013188Y012681D01*
X013183Y012686D01*
X012513Y012686D01*
X011833Y012686D01*
X011758Y012611D01*
X011758Y011511D01*
X012258Y010246D01*
X012263Y009606D02*
X012258Y009606D01*
X012263Y009606D02*
X012258Y009576D01*
X012263Y009606D02*
X012808Y009606D01*
X012808Y010711D01*
X012458Y011061D01*
X012983Y011091D02*
X013443Y010631D01*
X013443Y010181D01*
X013458Y010246D01*
X014073Y010281D02*
X014648Y009606D01*
X014758Y009576D01*
X015948Y009577D02*
X015958Y009576D01*
X015948Y009577D02*
X016698Y009577D01*
X016748Y009576D01*
X017258Y010236D02*
X017258Y010246D01*
X017348Y010236D01*
X017663Y009921D01*
X017978Y009576D02*
X018558Y009576D01*
X018608Y009516D01*
X018558Y010246D02*
X018558Y011591D01*
X018568Y011591D01*
X018563Y011631D01*
X017848Y010656D01*
X017303Y010281D02*
X017258Y010246D01*
X017303Y010281D02*
X017303Y011271D01*
X017618Y011586D01*
X017658Y011591D01*
X015953Y011946D02*
X015098Y012981D01*
X015098Y013161D01*
X015098Y013189D01*
X012983Y012036D02*
X012848Y012171D01*
X012533Y012171D01*
X012513Y012186D01*
X012533Y012261D01*
X012533Y012396D01*
X012513Y012436D01*
X012513Y012936D02*
X011058Y012941D01*
X011058Y012681D01*
X011058Y012011D01*
X011058Y012681D02*
X010403Y012686D01*
X010418Y013431D02*
X010403Y013436D01*
X010418Y013431D02*
X010958Y013431D01*
X008241Y017050D02*
X008216Y017090D01*
X007771Y017115D01*
X007811Y020465D01*
X008171Y020825D01*
X008241Y020987D01*
X008801Y020915D01*
X009341Y020915D01*
X009381Y020905D01*
X008731Y020881D02*
X008261Y020960D01*
X008241Y020987D01*
X008216Y020960D01*
X008231Y020905D01*
X007491Y021570D02*
X007681Y022055D01*
X007681Y022895D01*
X008081Y022895D01*
X008081Y022889D01*
X008126Y022940D01*
X008436Y023320D01*
X008801Y022940D02*
X008801Y023720D01*
X008081Y023720D01*
X007571Y023720D01*
X007571Y025735D01*
X007571Y026765D01*
X006431Y027905D01*
X004901Y027905D01*
X004901Y027332D01*
X004897Y027332D01*
X004531Y027955D02*
X004011Y027575D01*
X004011Y026825D01*
X004006Y026830D01*
X003336Y026830D01*
X002656Y026830D01*
X002581Y026755D01*
X002581Y025655D01*
X003081Y024389D01*
X003086Y023750D02*
X003081Y023750D01*
X003086Y023750D02*
X003081Y023720D01*
X003086Y023750D02*
X003631Y023750D01*
X003631Y024855D01*
X003281Y025205D01*
X003806Y025235D02*
X004266Y024775D01*
X004266Y024325D01*
X004281Y024389D01*
X004896Y024425D02*
X005471Y023750D01*
X005581Y023720D01*
X005561Y022940D02*
X005581Y022939D01*
X005471Y022940D01*
X004211Y022940D01*
X004281Y022939D01*
X004281Y023720D02*
X004166Y023750D01*
X003631Y023750D01*
X005561Y022940D02*
X006776Y022940D01*
X006781Y022939D01*
X006821Y022895D01*
X007681Y022895D01*
X008306Y022490D02*
X008081Y022265D01*
X008081Y022220D01*
X008306Y022490D02*
X008351Y022490D01*
X008801Y022940D01*
X008846Y022895D01*
X009341Y022895D01*
X009381Y022905D01*
X009431Y023660D02*
X009381Y023720D01*
X008801Y023720D01*
X008486Y024065D02*
X008171Y024380D01*
X008081Y024389D01*
X008126Y024425D01*
X008126Y025415D01*
X008441Y025730D01*
X008481Y025735D01*
X009381Y025735D02*
X009381Y024389D01*
X008671Y024800D02*
X009386Y025775D01*
X009391Y025735D01*
X009381Y025735D01*
X010403Y026830D02*
X011058Y026825D01*
X011058Y026155D01*
X011058Y026825D02*
X011058Y027085D01*
X012513Y027080D01*
X012513Y026830D02*
X013183Y026830D01*
X013188Y026825D01*
X013188Y027575D01*
X013708Y027955D01*
X014078Y027905D02*
X015608Y027905D01*
X016748Y026765D01*
X016748Y025735D01*
X016748Y023720D01*
X016698Y023721D01*
X015948Y023721D01*
X015958Y023720D01*
X016748Y023720D02*
X017258Y023720D01*
X017978Y023720D01*
X017978Y022940D01*
X018023Y022895D01*
X018518Y022895D01*
X018558Y022905D01*
X017978Y022940D02*
X017528Y022490D01*
X017483Y022490D01*
X017258Y022265D01*
X017258Y022220D01*
X016858Y022055D02*
X016858Y022895D01*
X017258Y022895D01*
X017258Y022889D01*
X017303Y022940D01*
X017613Y023320D01*
X017978Y023720D02*
X018558Y023720D01*
X018608Y023660D01*
X018558Y024389D02*
X018558Y025735D01*
X018568Y025735D01*
X018563Y025775D01*
X017848Y024800D01*
X017348Y024380D02*
X017258Y024389D01*
X017303Y024425D01*
X017303Y025415D01*
X017618Y025730D01*
X017658Y025735D01*
X015953Y026090D02*
X015098Y027125D01*
X015098Y027305D01*
X015098Y027332D01*
X014078Y027332D02*
X014078Y027905D01*
X014074Y027332D02*
X014078Y027332D01*
X012983Y026180D02*
X012848Y026315D01*
X012533Y026315D01*
X012513Y026330D01*
X012533Y026405D01*
X012533Y026540D01*
X012513Y026580D01*
X012513Y026830D02*
X011833Y026830D01*
X011758Y026755D01*
X011758Y025655D01*
X012258Y024389D01*
X012263Y023750D02*
X012258Y023750D01*
X012263Y023750D02*
X012258Y023720D01*
X012263Y023750D02*
X012808Y023750D01*
X012808Y024855D01*
X012458Y025205D01*
X012983Y025235D02*
X013443Y024775D01*
X013443Y024325D01*
X013458Y024389D01*
X014073Y024425D02*
X014648Y023750D01*
X014758Y023720D01*
X014738Y022940D02*
X014758Y022939D01*
X014648Y022940D01*
X013388Y022940D01*
X013458Y022939D01*
X013458Y023720D02*
X013343Y023750D01*
X012808Y023750D01*
X014738Y022940D02*
X015953Y022940D01*
X015958Y022939D01*
X015998Y022895D01*
X016858Y022895D01*
X016858Y022055D02*
X016668Y021570D01*
X017393Y020960D02*
X017419Y020987D01*
X017978Y020915D01*
X018518Y020915D01*
X018558Y020905D01*
X017908Y020881D02*
X017438Y020960D01*
X017419Y020987D01*
X017348Y020825D01*
X016988Y020465D01*
X016948Y017115D01*
X017393Y017090D01*
X017419Y017050D01*
X014700Y019022D02*
X015146Y019546D01*
X017408Y020905D02*
X017393Y020960D01*
X019706Y020905D02*
X019746Y020915D01*
X020781Y020915D01*
X020857Y020987D01*
X020826Y021005D01*
X020856Y020905D01*
X020871Y020960D02*
X020857Y020987D01*
X020946Y021735D02*
X020356Y021975D01*
X019706Y021955D01*
X021406Y023720D02*
X021411Y023750D01*
X021406Y023750D01*
X021411Y023750D02*
X021956Y023750D01*
X021956Y024855D01*
X021606Y025205D01*
X022131Y025235D02*
X022591Y024775D01*
X022591Y024325D01*
X022606Y024389D01*
X023221Y024425D02*
X023796Y023750D01*
X023906Y023720D01*
X023886Y022940D02*
X023906Y022939D01*
X023796Y022940D01*
X022536Y022940D01*
X022606Y022939D01*
X022606Y023720D02*
X022491Y023750D01*
X021956Y023750D01*
X021406Y024389D02*
X020906Y025655D01*
X020906Y026755D01*
X020981Y026830D01*
X021661Y026830D01*
X022331Y026830D01*
X022336Y026825D01*
X022336Y027575D01*
X022856Y027955D01*
X023226Y027905D02*
X024756Y027905D01*
X025896Y026765D01*
X025896Y025735D01*
X025896Y023720D01*
X025846Y023721D01*
X025096Y023721D01*
X025106Y023720D01*
X025896Y023720D02*
X026406Y023720D01*
X027126Y023720D01*
X027126Y022940D01*
X027171Y022895D01*
X027666Y022895D01*
X027706Y022905D01*
X027126Y022940D02*
X026676Y022490D01*
X026631Y022490D01*
X026406Y022265D01*
X026406Y022220D01*
X026006Y022055D02*
X026006Y022895D01*
X026406Y022895D01*
X026406Y022889D01*
X026451Y022940D01*
X026761Y023320D01*
X027126Y023720D02*
X027706Y023720D01*
X027756Y023660D01*
X027706Y024389D02*
X027706Y025735D01*
X027716Y025735D01*
X027711Y025775D01*
X026996Y024800D01*
X026496Y024380D02*
X026406Y024389D01*
X026451Y024425D01*
X026451Y025415D01*
X026766Y025730D01*
X026806Y025735D01*
X025101Y026090D02*
X024246Y027125D01*
X024246Y027305D01*
X024245Y027332D01*
X023226Y027332D02*
X023226Y027905D01*
X023222Y027332D02*
X023226Y027332D01*
X022131Y026180D02*
X021996Y026315D01*
X021681Y026315D01*
X021661Y026330D01*
X021681Y026405D01*
X021681Y026540D01*
X021661Y026580D01*
X021661Y027080D02*
X020206Y027085D01*
X020206Y026825D01*
X020206Y026155D01*
X020206Y026825D02*
X019551Y026830D01*
X019566Y027575D02*
X019551Y027580D01*
X019566Y027575D02*
X020106Y027575D01*
X017348Y024380D02*
X017663Y024065D01*
X017258Y024380D02*
X017258Y024389D01*
X011798Y021735D02*
X011208Y021975D01*
X010558Y021955D01*
X010598Y020915D02*
X010558Y020905D01*
X010598Y020915D02*
X011633Y020915D01*
X011710Y020987D01*
X011678Y021005D01*
X011708Y020905D01*
X011723Y020960D02*
X011710Y020987D01*
X007571Y023720D02*
X007521Y023721D01*
X006771Y023721D01*
X006781Y023720D01*
X008081Y024380D02*
X008081Y024389D01*
X006776Y026090D02*
X005921Y027125D01*
X005921Y027305D01*
X005920Y027332D01*
X003806Y026180D02*
X003671Y026315D01*
X003356Y026315D01*
X003336Y026330D01*
X003356Y026405D01*
X003356Y026540D01*
X003336Y026580D01*
X003336Y027080D02*
X001881Y027085D01*
X001881Y026825D01*
X001881Y026155D01*
X001881Y026825D02*
X001226Y026830D01*
X001241Y027575D02*
X001226Y027580D01*
X001241Y027575D02*
X001781Y027575D01*
X002031Y021975D02*
X001381Y021955D01*
X002031Y021975D02*
X002621Y021735D01*
X002501Y021005D02*
X002531Y020905D01*
X002546Y020960D02*
X002533Y020987D01*
X002456Y020915D01*
X001421Y020915D01*
X001381Y020905D01*
X002501Y021005D02*
X002533Y020987D01*
X005522Y019022D02*
X005969Y019546D01*
X010403Y027580D02*
X010418Y027575D01*
X010958Y027575D01*
X023886Y022940D02*
X025101Y022940D01*
X025106Y022939D01*
X025146Y022895D01*
X026006Y022895D01*
X026006Y022055D02*
X025816Y021570D01*
X026541Y020960D02*
X026566Y020987D01*
X027126Y020915D01*
X027666Y020915D01*
X027706Y020905D01*
X027056Y020881D02*
X026586Y020960D01*
X026566Y020987D01*
X026496Y020825D01*
X026136Y020465D01*
X026096Y017115D01*
X026541Y017090D01*
X026566Y017050D01*
X023847Y019022D02*
X024294Y019546D01*
X026556Y020905D02*
X026541Y020960D01*
X028878Y020905D02*
X028918Y020915D01*
X029953Y020915D01*
X030029Y020987D01*
X029998Y021005D01*
X030028Y020905D01*
X030043Y020960D02*
X030029Y020987D01*
X030118Y021735D02*
X029528Y021975D01*
X028878Y021955D01*
X030578Y023720D02*
X030583Y023750D01*
X030578Y023750D01*
X030583Y023750D02*
X031128Y023750D01*
X031128Y024855D01*
X030778Y025205D01*
X031303Y025235D02*
X031763Y024775D01*
X031763Y024325D01*
X031778Y024389D01*
X032393Y024425D02*
X032968Y023750D01*
X033078Y023720D01*
X033058Y022940D02*
X033078Y022939D01*
X032968Y022940D01*
X031708Y022940D01*
X031778Y022939D01*
X031778Y023720D02*
X031663Y023750D01*
X031128Y023750D01*
X030578Y024389D02*
X030078Y025655D01*
X030078Y026755D01*
X030153Y026830D01*
X030833Y026830D01*
X031503Y026830D01*
X031508Y026825D01*
X031508Y027575D01*
X032028Y027955D01*
X032398Y027905D02*
X033928Y027905D01*
X035068Y026765D01*
X035068Y025735D01*
X035068Y023720D01*
X035018Y023721D01*
X034268Y023721D01*
X034278Y023720D01*
X035068Y023720D02*
X035578Y023720D01*
X036298Y023720D01*
X036298Y022940D01*
X036343Y022895D01*
X036838Y022895D01*
X036878Y022905D01*
X036298Y022940D02*
X035848Y022490D01*
X035803Y022490D01*
X035578Y022265D01*
X035578Y022220D01*
X035178Y022055D02*
X035178Y022895D01*
X035578Y022895D01*
X035578Y022889D01*
X035623Y022940D01*
X035933Y023320D01*
X036298Y023720D02*
X036878Y023720D01*
X036928Y023660D01*
X036878Y024389D02*
X036878Y025735D01*
X036888Y025735D01*
X036883Y025775D01*
X036168Y024800D01*
X035668Y024380D02*
X035578Y024389D01*
X035623Y024425D01*
X035623Y025415D01*
X035938Y025730D01*
X035978Y025735D01*
X034273Y026090D02*
X033418Y027125D01*
X033418Y027305D01*
X033417Y027332D01*
X032398Y027332D02*
X032398Y027905D01*
X032394Y027332D02*
X032398Y027332D01*
X031303Y026180D02*
X031168Y026315D01*
X030853Y026315D01*
X030833Y026330D01*
X030853Y026405D01*
X030853Y026540D01*
X030833Y026580D01*
X030833Y027080D02*
X029378Y027085D01*
X029378Y026825D01*
X029378Y026155D01*
X029378Y026825D02*
X028723Y026830D01*
X028738Y027575D02*
X028723Y027580D01*
X028738Y027575D02*
X029278Y027575D01*
X026496Y024380D02*
X026811Y024065D01*
X026406Y024380D02*
X026406Y024389D01*
X033058Y022940D02*
X034273Y022940D01*
X034278Y022939D01*
X034318Y022895D01*
X035178Y022895D01*
X035178Y022055D02*
X034988Y021570D01*
X035713Y020960D02*
X035738Y020987D01*
X036298Y020915D01*
X036838Y020915D01*
X036878Y020905D01*
X036228Y020881D02*
X035758Y020960D01*
X035738Y020987D01*
X035668Y020825D01*
X035308Y020465D01*
X035268Y017115D01*
X035713Y017090D01*
X035738Y017050D01*
X033019Y019022D02*
X033465Y019546D01*
X035728Y020905D02*
X035713Y020960D01*
X035983Y024065D02*
X035668Y024380D01*
X035578Y024380D02*
X035578Y024389D01*
X033928Y013761D02*
X032398Y013761D01*
X032398Y013189D01*
X032394Y013189D01*
X032028Y013811D02*
X031508Y013431D01*
X031508Y012681D01*
X031503Y012686D01*
X030833Y012686D01*
X030153Y012686D01*
X030078Y012611D01*
X030078Y011511D01*
X030578Y010246D01*
X030583Y009606D02*
X030578Y009606D01*
X030583Y009606D02*
X030578Y009576D01*
X030583Y009606D02*
X031128Y009606D01*
X031128Y010711D01*
X030778Y011061D01*
X031303Y011091D02*
X031763Y010631D01*
X031763Y010181D01*
X031778Y010246D01*
X032393Y010281D02*
X032968Y009606D01*
X033078Y009576D01*
X033058Y008796D02*
X033078Y008796D01*
X032968Y008796D01*
X031708Y008796D01*
X031778Y008796D01*
X031778Y009576D02*
X031663Y009606D01*
X031128Y009606D01*
X033058Y008796D02*
X034273Y008796D01*
X034278Y008796D01*
X034318Y008751D01*
X035178Y008751D01*
X035178Y007911D01*
X034988Y007426D01*
X035578Y008076D02*
X035578Y008121D01*
X035803Y008346D01*
X035848Y008346D01*
X036298Y008796D01*
X036343Y008751D01*
X036838Y008751D01*
X036878Y008761D01*
X036298Y008796D02*
X036298Y009576D01*
X035578Y009576D01*
X035068Y009576D01*
X035068Y011591D01*
X035068Y012621D01*
X033928Y013761D01*
X033417Y013189D02*
X033418Y013161D01*
X033418Y012981D01*
X034273Y011946D01*
X035623Y011271D02*
X035938Y011586D01*
X035978Y011591D01*
X035623Y011271D02*
X035623Y010281D01*
X035578Y010246D01*
X035668Y010236D01*
X035983Y009921D01*
X036298Y009576D02*
X036878Y009576D01*
X036928Y009516D01*
X036878Y010246D02*
X036878Y011591D01*
X036888Y011591D01*
X036883Y011631D01*
X036168Y010656D01*
X035578Y010246D02*
X035578Y010236D01*
X035068Y009576D02*
X035018Y009577D01*
X034268Y009577D01*
X034278Y009576D01*
X035178Y008751D02*
X035578Y008751D01*
X035578Y008746D01*
X035623Y008796D01*
X035933Y009176D01*
X035738Y006843D02*
X036298Y006771D01*
X036838Y006771D01*
X036878Y006761D01*
X036228Y006737D02*
X035758Y006816D01*
X035738Y006843D01*
X035713Y006816D01*
X035728Y006761D01*
X035738Y006843D02*
X035668Y006681D01*
X035308Y006321D01*
X035268Y002971D01*
X035713Y002946D01*
X035738Y002906D01*
X033019Y004879D02*
X033465Y005403D01*
X030028Y006761D02*
X029998Y006861D01*
X030029Y006843D01*
X029953Y006771D01*
X028918Y006771D01*
X028878Y006761D01*
X028878Y007811D02*
X029528Y007831D01*
X030118Y007591D01*
X030029Y006843D02*
X030043Y006816D01*
X027706Y006761D02*
X027666Y006771D01*
X027126Y006771D01*
X026566Y006843D01*
X026541Y006816D01*
X026556Y006761D01*
X026586Y006816D02*
X027056Y006737D01*
X026586Y006816D02*
X026566Y006843D01*
X026496Y006681D01*
X026136Y006321D01*
X026096Y002971D01*
X026541Y002946D01*
X026566Y002906D01*
X023847Y004879D02*
X024294Y005403D01*
X025816Y007426D02*
X026006Y007911D01*
X026006Y008751D01*
X026406Y008751D01*
X026406Y008746D01*
X026451Y008796D01*
X026761Y009176D01*
X027126Y008796D02*
X027171Y008751D01*
X027666Y008751D01*
X027706Y008761D01*
X027126Y008796D02*
X027126Y009576D01*
X026406Y009576D01*
X025896Y009576D01*
X025896Y011591D01*
X025896Y012621D01*
X024756Y013761D01*
X023226Y013761D01*
X023226Y013189D01*
X023222Y013189D01*
X022856Y013811D02*
X022336Y013431D01*
X022336Y012681D01*
X022331Y012686D01*
X021661Y012686D01*
X020981Y012686D01*
X020906Y012611D01*
X020906Y011511D01*
X021406Y010246D01*
X021411Y009606D02*
X021406Y009606D01*
X021411Y009606D02*
X021406Y009576D01*
X021411Y009606D02*
X021956Y009606D01*
X021956Y010711D01*
X021606Y011061D01*
X022131Y011091D02*
X022591Y010631D01*
X022591Y010181D01*
X022606Y010246D01*
X023221Y010281D02*
X023796Y009606D01*
X023906Y009576D01*
X023886Y008796D02*
X023906Y008796D01*
X023796Y008796D01*
X022536Y008796D01*
X022606Y008796D01*
X022606Y009576D02*
X022491Y009606D01*
X021956Y009606D01*
X023886Y008796D02*
X025101Y008796D01*
X025106Y008796D01*
X025146Y008751D01*
X026006Y008751D01*
X026631Y008346D02*
X026406Y008121D01*
X026406Y008076D01*
X026631Y008346D02*
X026676Y008346D01*
X027126Y008796D01*
X027126Y009576D02*
X027706Y009576D01*
X027756Y009516D01*
X027706Y010246D02*
X027706Y011591D01*
X027716Y011591D01*
X027711Y011631D01*
X026996Y010656D01*
X026496Y010236D02*
X026406Y010246D01*
X026451Y010281D01*
X026451Y011271D01*
X026766Y011586D01*
X026806Y011591D01*
X025101Y011946D02*
X024246Y012981D01*
X024246Y013161D01*
X024245Y013189D01*
X022131Y012036D02*
X021996Y012171D01*
X021681Y012171D01*
X021661Y012186D01*
X021681Y012261D01*
X021681Y012396D01*
X021661Y012436D01*
X021661Y012936D02*
X020206Y012941D01*
X020206Y012681D01*
X020206Y012011D01*
X020206Y012681D02*
X019551Y012686D01*
X019566Y013431D02*
X019551Y013436D01*
X019566Y013431D02*
X020106Y013431D01*
X025096Y009577D02*
X025106Y009576D01*
X025096Y009577D02*
X025846Y009577D01*
X025896Y009576D01*
X026406Y010236D02*
X026406Y010246D01*
X026496Y010236D02*
X026811Y009921D01*
X029378Y012011D02*
X029378Y012681D01*
X028723Y012686D01*
X029378Y012681D02*
X029378Y012941D01*
X030833Y012936D01*
X030833Y012436D02*
X030853Y012396D01*
X030853Y012261D01*
X030833Y012186D01*
X030853Y012171D01*
X031168Y012171D01*
X031303Y012036D01*
X029278Y013431D02*
X028738Y013431D01*
X028723Y013436D01*
X020946Y007591D02*
X020356Y007831D01*
X019706Y007811D01*
X019746Y006771D02*
X019706Y006761D01*
X019746Y006771D02*
X020781Y006771D01*
X020857Y006843D01*
X020826Y006861D01*
X020856Y006761D01*
X020871Y006816D02*
X020857Y006843D01*
X018558Y006761D02*
X018518Y006771D01*
X017978Y006771D01*
X017419Y006843D01*
X017393Y006816D01*
X017408Y006761D01*
X017438Y006816D02*
X017908Y006737D01*
X017438Y006816D02*
X017419Y006843D01*
X017348Y006681D01*
X016988Y006321D01*
X016948Y002971D01*
X017393Y002946D01*
X017419Y002906D01*
X014700Y004879D02*
X015146Y005403D01*
X016858Y008751D02*
X017258Y008751D01*
X017258Y008746D01*
X017303Y008796D01*
X017613Y009176D01*
X013458Y009576D02*
X013343Y009606D01*
X012808Y009606D01*
X005969Y005403D02*
X005522Y004879D01*
X008216Y002946D02*
X008241Y002906D01*
X002531Y006761D02*
X002501Y006861D01*
X002533Y006843D01*
X002456Y006771D01*
X001421Y006771D01*
X001381Y006761D01*
X001381Y007811D02*
X002031Y007831D01*
X002621Y007591D01*
X002533Y006843D02*
X002546Y006816D01*
D26*
X003031Y006356D03*
X003411Y005626D03*
X004536Y005061D03*
X005969Y005403D03*
X005929Y003659D03*
X007491Y007426D03*
X007356Y008231D03*
X008656Y008096D03*
X008436Y009176D03*
X008486Y009921D03*
X008671Y010656D03*
X010688Y011251D03*
X011058Y012011D03*
X012458Y011061D03*
X012983Y011091D03*
X012983Y012036D03*
X014073Y010281D03*
X015953Y011946D03*
X017848Y010656D03*
X017663Y009921D03*
X017613Y009176D03*
X016533Y008231D03*
X016668Y007426D03*
X017833Y008096D03*
X020386Y008746D03*
X020946Y007591D03*
X021356Y006356D03*
X021736Y005626D03*
X022861Y005061D03*
X024294Y005403D03*
X024253Y003659D03*
X025816Y007426D03*
X025681Y008231D03*
X026761Y009176D03*
X026811Y009921D03*
X026996Y010656D03*
X029008Y011251D03*
X029378Y012011D03*
X030778Y011061D03*
X031303Y011091D03*
X031303Y012036D03*
X032393Y010281D03*
X034273Y011946D03*
X036168Y010656D03*
X035983Y009921D03*
X035933Y009176D03*
X034853Y008231D03*
X034988Y007426D03*
X036153Y008096D03*
X033465Y005403D03*
X032033Y005061D03*
X030908Y005626D03*
X030528Y006356D03*
X030118Y007591D03*
X029558Y008746D03*
X026981Y008096D03*
X023221Y010281D03*
X022131Y011091D03*
X021606Y011061D03*
X022131Y012036D03*
X020206Y012011D03*
X019836Y011251D03*
X020106Y013431D03*
X020016Y013791D03*
X021186Y013791D03*
X022856Y013811D03*
X023076Y014466D03*
X025101Y011946D03*
X029188Y013791D03*
X029278Y013431D03*
X030358Y013791D03*
X032028Y013811D03*
X032248Y014466D03*
X033425Y017802D03*
X032033Y019205D03*
X030908Y019770D03*
X030528Y020500D03*
X030118Y021735D03*
X029558Y022890D03*
X026981Y022240D03*
X025816Y021570D03*
X025681Y022375D03*
X026761Y023320D03*
X026811Y024065D03*
X026996Y024800D03*
X029008Y025395D03*
X029378Y026155D03*
X030778Y025205D03*
X031303Y025235D03*
X031303Y026180D03*
X029278Y027575D03*
X029188Y027935D03*
X030358Y027935D03*
X032028Y027955D03*
X032248Y028610D03*
X034273Y026090D03*
X036168Y024800D03*
X035983Y024065D03*
X035933Y023320D03*
X034853Y022375D03*
X034988Y021570D03*
X036153Y022240D03*
X033465Y019546D03*
X032393Y024425D03*
X025101Y026090D03*
X023221Y024425D03*
X022131Y025235D03*
X021606Y025205D03*
X022131Y026180D03*
X020206Y026155D03*
X019836Y025395D03*
X017848Y024800D03*
X017663Y024065D03*
X017613Y023320D03*
X016533Y022375D03*
X016668Y021570D03*
X017833Y022240D03*
X020386Y022890D03*
X020946Y021735D03*
X021356Y020500D03*
X021736Y019770D03*
X022861Y019205D03*
X024294Y019546D03*
X024253Y017802D03*
X015106Y017802D03*
X013713Y019205D03*
X012588Y019770D03*
X012208Y020500D03*
X011798Y021735D03*
X011238Y022890D03*
X008656Y022240D03*
X007356Y022375D03*
X007491Y021570D03*
X008436Y023320D03*
X008486Y024065D03*
X008671Y024800D03*
X010688Y025395D03*
X011058Y026155D03*
X012458Y025205D03*
X012983Y025235D03*
X012983Y026180D03*
X010958Y027575D03*
X010868Y027935D03*
X012038Y027935D03*
X013708Y027955D03*
X013928Y028610D03*
X015953Y026090D03*
X014073Y024425D03*
X015146Y019546D03*
X013928Y014466D03*
X013708Y013811D03*
X012038Y013791D03*
X010958Y013431D03*
X010868Y013791D03*
X006776Y011946D03*
X004896Y010281D03*
X003806Y011091D03*
X003281Y011061D03*
X003806Y012036D03*
X001881Y012011D03*
X001511Y011251D03*
X001781Y013431D03*
X001691Y013791D03*
X002861Y013791D03*
X004531Y013811D03*
X004751Y014466D03*
X005929Y017802D03*
X004536Y019205D03*
X003411Y019770D03*
X003031Y020500D03*
X002621Y021735D03*
X002061Y022890D03*
X004896Y024425D03*
X003806Y025235D03*
X003281Y025205D03*
X003806Y026180D03*
X001881Y026155D03*
X001511Y025395D03*
X001781Y027575D03*
X001691Y027935D03*
X002861Y027935D03*
X004531Y027955D03*
X004751Y028610D03*
X006776Y026090D03*
X005969Y019546D03*
X002061Y008746D03*
X002621Y007591D03*
X011238Y008746D03*
X011798Y007591D03*
X012208Y006356D03*
X012588Y005626D03*
X013713Y005061D03*
X015146Y005403D03*
X015106Y003659D03*
X033425Y003659D03*
X020106Y027575D03*
X020016Y027935D03*
X021186Y027935D03*
X022856Y027955D03*
X023076Y028610D03*
D27*
X026981Y022240D02*
X026956Y021805D01*
X026456Y021805D01*
X023847Y019022D01*
X024294Y019546D02*
X021276Y016280D01*
X020857Y016263D02*
X025471Y021640D01*
X030029Y016263D02*
X034643Y021640D01*
X035628Y021805D02*
X033019Y019022D01*
X033465Y019546D02*
X030448Y016280D01*
X035628Y021805D02*
X036128Y021805D01*
X036153Y022240D01*
X036153Y008096D02*
X036128Y007661D01*
X035628Y007661D01*
X033019Y004879D01*
X033465Y005403D02*
X030448Y002136D01*
X030029Y002119D02*
X034643Y007496D01*
X026981Y008096D02*
X026956Y007661D01*
X026456Y007661D01*
X023847Y004879D01*
X024294Y005403D02*
X021276Y002136D01*
X020857Y002119D02*
X025471Y007496D01*
X017833Y008096D02*
X017808Y007661D01*
X017308Y007661D01*
X014700Y004879D01*
X015146Y005403D02*
X012128Y002136D01*
X011710Y002119D02*
X016323Y007496D01*
X008656Y008096D02*
X008631Y007661D01*
X008131Y007661D01*
X005522Y004879D01*
X005969Y005403D02*
X002951Y002136D01*
X002533Y002119D02*
X007146Y007496D01*
X002951Y016280D02*
X005969Y019546D01*
X005522Y019022D02*
X008131Y021805D01*
X008631Y021805D01*
X008656Y022240D01*
X007146Y021640D02*
X002533Y016263D01*
X011710Y016263D02*
X016323Y021640D01*
X017308Y021805D02*
X014700Y019022D01*
X015146Y019546D02*
X012128Y016280D01*
X017308Y021805D02*
X017808Y021805D01*
X017833Y022240D01*
M02*
