G75*
%MOIN*%
%OFA0B0*%
%FSLAX25Y25*%
%IPPOS*%
%LPD*%
%AMOC8*
5,1,8,0,0,1.08239X$1,22.5*
%
%ADD10C,0.00000*%
%ADD11C,0.00200*%
%ADD12C,0.01000*%
%ADD13C,0.00800*%
%ADD14C,0.00600*%
%ADD15C,0.00500*%
%ADD16C,0.00400*%
%ADD17C,0.01200*%
%ADD18C,0.00300*%
D10*
X0001800Y0001800D02*
X0001800Y0158296D01*
X0038119Y0144517D02*
X0038121Y0144594D01*
X0038127Y0144670D01*
X0038137Y0144746D01*
X0038151Y0144821D01*
X0038168Y0144896D01*
X0038190Y0144969D01*
X0038215Y0145042D01*
X0038245Y0145113D01*
X0038277Y0145182D01*
X0038314Y0145249D01*
X0038353Y0145315D01*
X0038396Y0145378D01*
X0038443Y0145439D01*
X0038492Y0145498D01*
X0038545Y0145554D01*
X0038600Y0145607D01*
X0038658Y0145657D01*
X0038718Y0145704D01*
X0038781Y0145748D01*
X0038846Y0145789D01*
X0038913Y0145826D01*
X0038982Y0145860D01*
X0039052Y0145890D01*
X0039124Y0145916D01*
X0039198Y0145938D01*
X0039272Y0145957D01*
X0039347Y0145972D01*
X0039423Y0145983D01*
X0039499Y0145990D01*
X0039576Y0145993D01*
X0039652Y0145992D01*
X0039729Y0145987D01*
X0039805Y0145978D01*
X0039881Y0145965D01*
X0039955Y0145948D01*
X0040029Y0145928D01*
X0040102Y0145903D01*
X0040173Y0145875D01*
X0040243Y0145843D01*
X0040311Y0145808D01*
X0040377Y0145769D01*
X0040441Y0145727D01*
X0040502Y0145681D01*
X0040562Y0145632D01*
X0040618Y0145581D01*
X0040672Y0145526D01*
X0040723Y0145469D01*
X0040771Y0145409D01*
X0040816Y0145347D01*
X0040857Y0145282D01*
X0040895Y0145216D01*
X0040930Y0145148D01*
X0040960Y0145077D01*
X0040988Y0145006D01*
X0041011Y0144933D01*
X0041031Y0144859D01*
X0041047Y0144784D01*
X0041059Y0144708D01*
X0041067Y0144632D01*
X0041071Y0144555D01*
X0041071Y0144479D01*
X0041067Y0144402D01*
X0041059Y0144326D01*
X0041047Y0144250D01*
X0041031Y0144175D01*
X0041011Y0144101D01*
X0040988Y0144028D01*
X0040960Y0143957D01*
X0040930Y0143886D01*
X0040895Y0143818D01*
X0040857Y0143752D01*
X0040816Y0143687D01*
X0040771Y0143625D01*
X0040723Y0143565D01*
X0040672Y0143508D01*
X0040618Y0143453D01*
X0040562Y0143402D01*
X0040502Y0143353D01*
X0040441Y0143307D01*
X0040377Y0143265D01*
X0040311Y0143226D01*
X0040243Y0143191D01*
X0040173Y0143159D01*
X0040102Y0143131D01*
X0040029Y0143106D01*
X0039955Y0143086D01*
X0039881Y0143069D01*
X0039805Y0143056D01*
X0039729Y0143047D01*
X0039652Y0143042D01*
X0039576Y0143041D01*
X0039499Y0143044D01*
X0039423Y0143051D01*
X0039347Y0143062D01*
X0039272Y0143077D01*
X0039198Y0143096D01*
X0039124Y0143118D01*
X0039052Y0143144D01*
X0038982Y0143174D01*
X0038913Y0143208D01*
X0038846Y0143245D01*
X0038781Y0143286D01*
X0038718Y0143330D01*
X0038658Y0143377D01*
X0038600Y0143427D01*
X0038545Y0143480D01*
X0038492Y0143536D01*
X0038443Y0143595D01*
X0038396Y0143656D01*
X0038353Y0143719D01*
X0038314Y0143785D01*
X0038277Y0143852D01*
X0038245Y0143921D01*
X0038215Y0143992D01*
X0038190Y0144065D01*
X0038168Y0144138D01*
X0038151Y0144213D01*
X0038137Y0144288D01*
X0038127Y0144364D01*
X0038121Y0144440D01*
X0038119Y0144517D01*
X0001800Y0158295D02*
X0092352Y0158295D01*
X0092351Y0158296D02*
X0092351Y0001800D01*
X0001800Y0001800D01*
X0053080Y0144517D02*
X0053082Y0144594D01*
X0053088Y0144670D01*
X0053098Y0144746D01*
X0053112Y0144821D01*
X0053129Y0144896D01*
X0053151Y0144969D01*
X0053176Y0145042D01*
X0053206Y0145113D01*
X0053238Y0145182D01*
X0053275Y0145249D01*
X0053314Y0145315D01*
X0053357Y0145378D01*
X0053404Y0145439D01*
X0053453Y0145498D01*
X0053506Y0145554D01*
X0053561Y0145607D01*
X0053619Y0145657D01*
X0053679Y0145704D01*
X0053742Y0145748D01*
X0053807Y0145789D01*
X0053874Y0145826D01*
X0053943Y0145860D01*
X0054013Y0145890D01*
X0054085Y0145916D01*
X0054159Y0145938D01*
X0054233Y0145957D01*
X0054308Y0145972D01*
X0054384Y0145983D01*
X0054460Y0145990D01*
X0054537Y0145993D01*
X0054613Y0145992D01*
X0054690Y0145987D01*
X0054766Y0145978D01*
X0054842Y0145965D01*
X0054916Y0145948D01*
X0054990Y0145928D01*
X0055063Y0145903D01*
X0055134Y0145875D01*
X0055204Y0145843D01*
X0055272Y0145808D01*
X0055338Y0145769D01*
X0055402Y0145727D01*
X0055463Y0145681D01*
X0055523Y0145632D01*
X0055579Y0145581D01*
X0055633Y0145526D01*
X0055684Y0145469D01*
X0055732Y0145409D01*
X0055777Y0145347D01*
X0055818Y0145282D01*
X0055856Y0145216D01*
X0055891Y0145148D01*
X0055921Y0145077D01*
X0055949Y0145006D01*
X0055972Y0144933D01*
X0055992Y0144859D01*
X0056008Y0144784D01*
X0056020Y0144708D01*
X0056028Y0144632D01*
X0056032Y0144555D01*
X0056032Y0144479D01*
X0056028Y0144402D01*
X0056020Y0144326D01*
X0056008Y0144250D01*
X0055992Y0144175D01*
X0055972Y0144101D01*
X0055949Y0144028D01*
X0055921Y0143957D01*
X0055891Y0143886D01*
X0055856Y0143818D01*
X0055818Y0143752D01*
X0055777Y0143687D01*
X0055732Y0143625D01*
X0055684Y0143565D01*
X0055633Y0143508D01*
X0055579Y0143453D01*
X0055523Y0143402D01*
X0055463Y0143353D01*
X0055402Y0143307D01*
X0055338Y0143265D01*
X0055272Y0143226D01*
X0055204Y0143191D01*
X0055134Y0143159D01*
X0055063Y0143131D01*
X0054990Y0143106D01*
X0054916Y0143086D01*
X0054842Y0143069D01*
X0054766Y0143056D01*
X0054690Y0143047D01*
X0054613Y0143042D01*
X0054537Y0143041D01*
X0054460Y0143044D01*
X0054384Y0143051D01*
X0054308Y0143062D01*
X0054233Y0143077D01*
X0054159Y0143096D01*
X0054085Y0143118D01*
X0054013Y0143144D01*
X0053943Y0143174D01*
X0053874Y0143208D01*
X0053807Y0143245D01*
X0053742Y0143286D01*
X0053679Y0143330D01*
X0053619Y0143377D01*
X0053561Y0143427D01*
X0053506Y0143480D01*
X0053453Y0143536D01*
X0053404Y0143595D01*
X0053357Y0143656D01*
X0053314Y0143719D01*
X0053275Y0143785D01*
X0053238Y0143852D01*
X0053206Y0143921D01*
X0053176Y0143992D01*
X0053151Y0144065D01*
X0053129Y0144138D01*
X0053112Y0144213D01*
X0053098Y0144288D01*
X0053088Y0144364D01*
X0053082Y0144440D01*
X0053080Y0144517D01*
D11*
X0065392Y0144534D02*
X0066860Y0144534D01*
X0067594Y0145268D01*
X0066860Y0146002D01*
X0065392Y0146002D01*
X0065392Y0146744D02*
X0067227Y0146744D01*
X0067594Y0147111D01*
X0067594Y0147845D01*
X0067227Y0148212D01*
X0065392Y0148212D01*
X0065759Y0148954D02*
X0066126Y0148954D01*
X0066493Y0149321D01*
X0066493Y0150055D01*
X0066860Y0150422D01*
X0067227Y0150422D01*
X0067594Y0150055D01*
X0067594Y0149321D01*
X0067227Y0148954D01*
X0067594Y0151163D02*
X0067594Y0152264D01*
X0067227Y0152631D01*
X0066860Y0152631D01*
X0066493Y0152264D01*
X0066493Y0151163D01*
X0065759Y0150422D02*
X0065392Y0150055D01*
X0065392Y0149321D01*
X0065759Y0148954D01*
X0065392Y0151163D02*
X0065392Y0152264D01*
X0065759Y0152631D01*
X0066126Y0152631D01*
X0066493Y0152264D01*
X0067594Y0151163D02*
X0065392Y0151163D01*
X0067570Y0154148D02*
X0069038Y0154148D01*
X0069780Y0154515D02*
X0070147Y0154148D01*
X0070881Y0154148D01*
X0071248Y0154515D01*
X0071248Y0154882D01*
X0070881Y0155249D01*
X0070147Y0155249D01*
X0069780Y0155616D01*
X0069780Y0155983D01*
X0070147Y0156350D01*
X0070881Y0156350D01*
X0071248Y0155983D01*
X0071990Y0156350D02*
X0071990Y0154148D01*
X0071990Y0154882D02*
X0073091Y0154882D01*
X0073458Y0155249D01*
X0073458Y0155983D01*
X0073091Y0156350D01*
X0071990Y0156350D01*
X0074200Y0155249D02*
X0074200Y0154515D01*
X0074567Y0154148D01*
X0075668Y0154148D01*
X0075668Y0156350D01*
X0075668Y0155616D02*
X0074567Y0155616D01*
X0074200Y0155249D01*
X0076410Y0155616D02*
X0076410Y0154515D01*
X0076777Y0154148D01*
X0077878Y0154148D01*
X0077878Y0155616D01*
X0078619Y0155616D02*
X0078986Y0155616D01*
X0078986Y0154148D01*
X0078619Y0154148D02*
X0079353Y0154148D01*
X0080093Y0154148D02*
X0080093Y0155616D01*
X0081194Y0155616D01*
X0081561Y0155249D01*
X0081561Y0154148D01*
X0082303Y0154515D02*
X0082303Y0155249D01*
X0082670Y0155616D01*
X0083404Y0155616D01*
X0083771Y0155249D01*
X0083771Y0154515D01*
X0083404Y0154148D01*
X0082670Y0154148D01*
X0082303Y0154515D01*
X0084512Y0155249D02*
X0085980Y0155249D01*
X0086722Y0154148D02*
X0086722Y0156350D01*
X0087456Y0155616D01*
X0088190Y0156350D01*
X0088190Y0154148D01*
X0088932Y0154148D02*
X0090400Y0155616D01*
X0090400Y0155983D01*
X0090033Y0156350D01*
X0089299Y0156350D01*
X0088932Y0155983D01*
X0088932Y0154148D02*
X0090400Y0154148D01*
X0089413Y0142527D02*
X0089413Y0140325D01*
X0087945Y0142527D01*
X0087945Y0140325D01*
X0087206Y0140325D02*
X0086472Y0140325D01*
X0086839Y0140325D02*
X0086839Y0142527D01*
X0086472Y0142527D02*
X0087206Y0142527D01*
X0085730Y0142527D02*
X0085730Y0141059D01*
X0084996Y0140325D01*
X0084262Y0141059D01*
X0084262Y0142527D01*
X0078986Y0156350D02*
X0078986Y0156717D01*
X0069038Y0156350D02*
X0067570Y0156350D01*
X0067570Y0154148D01*
X0067570Y0155249D02*
X0068304Y0155249D01*
X0066294Y0140389D02*
X0065827Y0140389D01*
X0065827Y0138521D01*
X0066294Y0137627D02*
X0065827Y0137159D01*
X0065827Y0135758D01*
X0068629Y0135758D01*
X0067695Y0135758D02*
X0067695Y0137159D01*
X0067228Y0137627D01*
X0066294Y0137627D01*
X0067695Y0136692D02*
X0068629Y0137627D01*
X0068629Y0138521D02*
X0068162Y0138521D01*
X0066294Y0140389D01*
X0070275Y0121984D02*
X0070275Y0119181D01*
X0072143Y0119181D01*
X0073037Y0119181D02*
X0073037Y0121984D01*
X0073971Y0121050D01*
X0074906Y0121984D01*
X0074906Y0119181D01*
X0075800Y0119181D02*
X0077668Y0119181D01*
X0078562Y0119181D02*
X0080430Y0119181D01*
X0081324Y0119181D02*
X0083193Y0119181D01*
X0084087Y0119181D02*
X0084087Y0119649D01*
X0085955Y0121517D01*
X0085955Y0121984D01*
X0084087Y0121984D01*
X0082259Y0121984D02*
X0082259Y0119181D01*
X0081324Y0121050D02*
X0082259Y0121984D01*
X0079496Y0121984D02*
X0079496Y0119181D01*
X0078562Y0121050D02*
X0079496Y0121984D01*
X0076734Y0121984D02*
X0076734Y0119181D01*
X0075800Y0121050D02*
X0076734Y0121984D01*
X0076376Y0100128D02*
X0075909Y0099661D01*
X0075909Y0099193D01*
X0076376Y0098726D01*
X0077310Y0098726D01*
X0077778Y0098259D01*
X0077778Y0097792D01*
X0077310Y0097325D01*
X0076376Y0097325D01*
X0075909Y0097792D01*
X0075909Y0098259D01*
X0076376Y0098726D01*
X0077310Y0098726D02*
X0077778Y0099193D01*
X0077778Y0099661D01*
X0077310Y0100128D01*
X0076376Y0100128D01*
X0075015Y0099661D02*
X0074548Y0100128D01*
X0073614Y0100128D01*
X0073147Y0099661D01*
X0073147Y0097792D01*
X0073614Y0097325D01*
X0074548Y0097325D01*
X0075015Y0097792D01*
X0067935Y0097792D02*
X0067935Y0098259D01*
X0067468Y0098726D01*
X0066067Y0098726D01*
X0066067Y0097792D01*
X0066534Y0097325D01*
X0067468Y0097325D01*
X0067935Y0097792D01*
X0066067Y0098726D02*
X0067001Y0099661D01*
X0067935Y0100128D01*
X0065173Y0099661D02*
X0064706Y0100128D01*
X0063771Y0100128D01*
X0063304Y0099661D01*
X0063304Y0097792D01*
X0063771Y0097325D01*
X0064706Y0097325D01*
X0065173Y0097792D01*
X0058093Y0097792D02*
X0057625Y0097325D01*
X0056691Y0097325D01*
X0056224Y0097792D01*
X0055330Y0097792D02*
X0054863Y0097325D01*
X0053929Y0097325D01*
X0053462Y0097792D01*
X0053462Y0099661D01*
X0053929Y0100128D01*
X0054863Y0100128D01*
X0055330Y0099661D01*
X0056224Y0100128D02*
X0056224Y0098726D01*
X0057158Y0099193D01*
X0057625Y0099193D01*
X0058093Y0098726D01*
X0058093Y0097792D01*
X0058093Y0100128D02*
X0056224Y0100128D01*
X0050061Y0100128D02*
X0048193Y0100128D01*
X0048193Y0098726D01*
X0049127Y0099193D01*
X0049594Y0099193D01*
X0050061Y0098726D01*
X0050061Y0097792D01*
X0049594Y0097325D01*
X0048660Y0097325D01*
X0048193Y0097792D01*
X0047299Y0097325D02*
X0046365Y0098259D01*
X0046832Y0098259D02*
X0045430Y0098259D01*
X0045430Y0097325D02*
X0045430Y0100128D01*
X0046832Y0100128D01*
X0047299Y0099661D01*
X0047299Y0098726D01*
X0046832Y0098259D01*
X0046989Y0103231D02*
X0046055Y0103231D01*
X0045588Y0103698D01*
X0045588Y0105566D01*
X0046055Y0106033D01*
X0046989Y0106033D01*
X0047456Y0105566D01*
X0048350Y0104632D02*
X0050218Y0104632D01*
X0049751Y0103231D02*
X0049751Y0106033D01*
X0048350Y0104632D01*
X0047456Y0103698D02*
X0046989Y0103231D01*
X0040376Y0103383D02*
X0039909Y0102916D01*
X0038975Y0102916D01*
X0038508Y0103383D01*
X0037614Y0103383D02*
X0037147Y0102916D01*
X0036212Y0102916D01*
X0035745Y0103383D01*
X0035745Y0105251D01*
X0036212Y0105718D01*
X0037147Y0105718D01*
X0037614Y0105251D01*
X0038508Y0105251D02*
X0038975Y0105718D01*
X0039909Y0105718D01*
X0040376Y0105251D01*
X0040376Y0104784D01*
X0039909Y0104317D01*
X0040376Y0103850D01*
X0040376Y0103383D01*
X0039909Y0104317D02*
X0039442Y0104317D01*
X0037783Y0100128D02*
X0036382Y0098726D01*
X0038250Y0098726D01*
X0037783Y0097325D02*
X0037783Y0100128D01*
X0035488Y0099661D02*
X0035488Y0098726D01*
X0035021Y0098259D01*
X0033619Y0098259D01*
X0033619Y0097325D02*
X0033619Y0100128D01*
X0035021Y0100128D01*
X0035488Y0099661D01*
X0034554Y0098259D02*
X0035488Y0097325D01*
X0028407Y0097792D02*
X0027940Y0097325D01*
X0027006Y0097325D01*
X0026539Y0097792D01*
X0025645Y0097325D02*
X0024711Y0098259D01*
X0025178Y0098259D02*
X0023777Y0098259D01*
X0023777Y0097325D02*
X0023777Y0100128D01*
X0025178Y0100128D01*
X0025645Y0099661D01*
X0025645Y0098726D01*
X0025178Y0098259D01*
X0026539Y0099661D02*
X0027006Y0100128D01*
X0027940Y0100128D01*
X0028407Y0099661D01*
X0028407Y0099193D01*
X0027940Y0098726D01*
X0028407Y0098259D01*
X0028407Y0097792D01*
X0027940Y0098726D02*
X0027473Y0098726D01*
X0018565Y0099193D02*
X0018565Y0099661D01*
X0018098Y0100128D01*
X0017164Y0100128D01*
X0016697Y0099661D01*
X0015803Y0099661D02*
X0015336Y0100128D01*
X0014401Y0100128D01*
X0013934Y0099661D01*
X0013934Y0097792D01*
X0014401Y0097325D01*
X0015336Y0097325D01*
X0015803Y0097792D01*
X0016697Y0097325D02*
X0018565Y0099193D01*
X0018565Y0097325D02*
X0016697Y0097325D01*
X0008879Y0097108D02*
X0007011Y0097108D01*
X0007945Y0097108D02*
X0007945Y0099910D01*
X0007011Y0098976D01*
X0006117Y0099443D02*
X0005650Y0099910D01*
X0004715Y0099910D01*
X0004248Y0099443D01*
X0004248Y0097575D01*
X0004715Y0097108D01*
X0005650Y0097108D01*
X0006117Y0097575D01*
X0005795Y0072150D02*
X0007263Y0069948D01*
X0007263Y0072150D01*
X0008005Y0072150D02*
X0009106Y0072150D01*
X0009473Y0071783D01*
X0009473Y0070315D01*
X0009106Y0069948D01*
X0008005Y0069948D01*
X0008005Y0072150D01*
X0005795Y0072150D02*
X0005795Y0069948D01*
X0005053Y0070315D02*
X0005053Y0071049D01*
X0004319Y0071049D01*
X0003585Y0071783D02*
X0003952Y0072150D01*
X0004686Y0072150D01*
X0005053Y0071783D01*
X0005053Y0070315D02*
X0004686Y0069948D01*
X0003952Y0069948D01*
X0003585Y0070315D01*
X0003585Y0071783D01*
X0006162Y0062150D02*
X0006896Y0062150D01*
X0007263Y0061783D01*
X0005795Y0060315D01*
X0006162Y0059948D01*
X0006896Y0059948D01*
X0007263Y0060315D01*
X0007263Y0061783D01*
X0006162Y0062150D02*
X0005795Y0061783D01*
X0005795Y0060315D01*
X0006162Y0052150D02*
X0005795Y0051783D01*
X0006162Y0052150D02*
X0006896Y0052150D01*
X0007263Y0051783D01*
X0007263Y0051416D01*
X0005795Y0049948D01*
X0007263Y0049948D01*
X0006896Y0042150D02*
X0005795Y0041049D01*
X0007263Y0041049D01*
X0006896Y0039948D02*
X0006896Y0042150D01*
X0007263Y0032150D02*
X0005795Y0032150D01*
X0005795Y0031049D01*
X0006529Y0031416D01*
X0006896Y0031416D01*
X0007263Y0031049D01*
X0007263Y0030315D01*
X0006896Y0029948D01*
X0006162Y0029948D01*
X0005795Y0030315D01*
X0005791Y0022150D02*
X0004690Y0022150D01*
X0004690Y0019948D01*
X0004690Y0020682D02*
X0005791Y0020682D01*
X0006158Y0021049D01*
X0006158Y0021783D01*
X0005791Y0022150D01*
X0006900Y0022150D02*
X0008368Y0019948D01*
X0006900Y0019948D02*
X0008368Y0022150D01*
X0006158Y0019948D02*
X0005424Y0020682D01*
X0005424Y0012150D02*
X0005424Y0009948D01*
X0004690Y0012150D02*
X0006158Y0012150D01*
X0006900Y0012150D02*
X0008368Y0009948D01*
X0006900Y0009948D02*
X0008368Y0012150D01*
X0023531Y0075787D02*
X0024265Y0075787D01*
X0024632Y0076154D01*
X0024632Y0076888D01*
X0023898Y0076888D01*
X0023164Y0076154D02*
X0023531Y0075787D01*
X0023164Y0076154D02*
X0023164Y0077622D01*
X0023531Y0077989D01*
X0024265Y0077989D01*
X0024632Y0077622D01*
X0025374Y0077989D02*
X0026842Y0075787D01*
X0026842Y0077989D01*
X0027584Y0077989D02*
X0027584Y0075787D01*
X0028685Y0075787D01*
X0029052Y0076154D01*
X0029052Y0077622D01*
X0028685Y0077989D01*
X0027584Y0077989D01*
X0025374Y0077989D02*
X0025374Y0075787D01*
X0035745Y0118979D02*
X0035745Y0121781D01*
X0037147Y0121781D01*
X0037614Y0121314D01*
X0037614Y0120380D01*
X0037147Y0119913D01*
X0035745Y0119913D01*
X0036679Y0119913D02*
X0037614Y0118979D01*
X0038508Y0118979D02*
X0040376Y0120847D01*
X0040376Y0121314D01*
X0039909Y0121781D01*
X0038975Y0121781D01*
X0038508Y0121314D01*
X0038508Y0118979D02*
X0040376Y0118979D01*
X0045588Y0118979D02*
X0045588Y0121781D01*
X0046989Y0121781D01*
X0047456Y0121314D01*
X0047456Y0120380D01*
X0046989Y0119913D01*
X0045588Y0119913D01*
X0046522Y0119913D02*
X0047456Y0118979D01*
X0048350Y0118979D02*
X0050218Y0118979D01*
X0049284Y0118979D02*
X0049284Y0121781D01*
X0048350Y0120847D01*
X0053462Y0121781D02*
X0053462Y0118979D01*
X0053462Y0119913D02*
X0054863Y0119913D01*
X0055330Y0120380D01*
X0055330Y0121314D01*
X0054863Y0121781D01*
X0053462Y0121781D01*
X0054396Y0119913D02*
X0055330Y0118979D01*
X0056224Y0119446D02*
X0056691Y0118979D01*
X0057625Y0118979D01*
X0058093Y0119446D01*
X0058093Y0119913D01*
X0057625Y0120380D01*
X0056224Y0120380D01*
X0056224Y0119446D01*
X0056224Y0120380D02*
X0057158Y0121314D01*
X0058093Y0121781D01*
X0082989Y0099661D02*
X0082989Y0097792D01*
X0083457Y0097325D01*
X0084391Y0097325D01*
X0084858Y0097792D01*
X0085752Y0097792D02*
X0085752Y0097325D01*
X0085752Y0097792D02*
X0087620Y0099661D01*
X0087620Y0100128D01*
X0085752Y0100128D01*
X0084858Y0099661D02*
X0084391Y0100128D01*
X0083457Y0100128D01*
X0082989Y0099661D01*
X0085057Y0072150D02*
X0085791Y0072150D01*
X0086158Y0071783D01*
X0086158Y0071416D01*
X0085791Y0071049D01*
X0086158Y0070682D01*
X0086158Y0070315D01*
X0085791Y0069948D01*
X0085057Y0069948D01*
X0084690Y0070315D01*
X0085424Y0071049D02*
X0085791Y0071049D01*
X0086900Y0071416D02*
X0087634Y0069948D01*
X0088368Y0071416D01*
X0085057Y0072150D02*
X0084690Y0071783D01*
X0085424Y0062150D02*
X0085424Y0059948D01*
X0084690Y0059948D02*
X0086158Y0059948D01*
X0086900Y0059948D02*
X0088368Y0061416D01*
X0088368Y0061783D01*
X0088001Y0062150D01*
X0087267Y0062150D01*
X0086900Y0061783D01*
X0086900Y0059948D02*
X0088368Y0059948D01*
X0085424Y0062150D02*
X0084690Y0061416D01*
X0085424Y0052150D02*
X0084690Y0051416D01*
X0085424Y0052150D02*
X0085424Y0049948D01*
X0084690Y0049948D02*
X0086158Y0049948D01*
X0086900Y0050315D02*
X0087267Y0049948D01*
X0088001Y0049948D01*
X0088368Y0050315D01*
X0088368Y0050682D01*
X0088001Y0051049D01*
X0087634Y0051049D01*
X0088001Y0051049D02*
X0088368Y0051416D01*
X0088368Y0051783D01*
X0088001Y0052150D01*
X0087267Y0052150D01*
X0086900Y0051783D01*
X0088001Y0042150D02*
X0086900Y0041049D01*
X0088368Y0041049D01*
X0088001Y0039948D02*
X0088001Y0042150D01*
X0086158Y0039948D02*
X0084690Y0039948D01*
X0085424Y0039948D02*
X0085424Y0042150D01*
X0084690Y0041416D01*
X0085424Y0032150D02*
X0084690Y0031416D01*
X0085424Y0032150D02*
X0085424Y0029948D01*
X0084690Y0029948D02*
X0086158Y0029948D01*
X0086900Y0030315D02*
X0086900Y0031049D01*
X0088001Y0031049D01*
X0088368Y0030682D01*
X0088368Y0030315D01*
X0088001Y0029948D01*
X0087267Y0029948D01*
X0086900Y0030315D01*
X0086900Y0031049D02*
X0087634Y0031783D01*
X0088368Y0032150D01*
X0088001Y0022150D02*
X0087267Y0022150D01*
X0086900Y0021783D01*
X0086900Y0020315D01*
X0088368Y0021783D01*
X0088368Y0020315D01*
X0088001Y0019948D01*
X0087267Y0019948D01*
X0086900Y0020315D01*
X0086158Y0019948D02*
X0086158Y0021416D01*
X0085424Y0022150D01*
X0084690Y0021416D01*
X0084690Y0019948D01*
X0084690Y0021049D02*
X0086158Y0021049D01*
X0088001Y0022150D02*
X0088368Y0021783D01*
X0088005Y0012150D02*
X0089473Y0012150D01*
X0088739Y0012150D02*
X0088739Y0009948D01*
X0087263Y0010315D02*
X0086896Y0009948D01*
X0086162Y0009948D01*
X0085795Y0010315D01*
X0086162Y0011049D02*
X0086896Y0011049D01*
X0087263Y0010682D01*
X0087263Y0010315D01*
X0086162Y0011049D02*
X0085795Y0011416D01*
X0085795Y0011783D01*
X0086162Y0012150D01*
X0086896Y0012150D01*
X0087263Y0011783D01*
X0085053Y0011783D02*
X0085053Y0011049D01*
X0084686Y0010682D01*
X0083585Y0010682D01*
X0083585Y0009948D02*
X0083585Y0012150D01*
X0084686Y0012150D01*
X0085053Y0011783D01*
X0084319Y0010682D02*
X0085053Y0009948D01*
X0009429Y0140443D02*
X0009796Y0140810D01*
X0009796Y0142278D01*
X0009429Y0142645D01*
X0008328Y0142645D01*
X0008328Y0140443D01*
X0009429Y0140443D01*
X0007586Y0140443D02*
X0007586Y0142645D01*
X0006118Y0142645D02*
X0007586Y0140443D01*
X0006118Y0140443D02*
X0006118Y0142645D01*
X0005376Y0142278D02*
X0005009Y0142645D01*
X0004275Y0142645D01*
X0003908Y0142278D01*
X0003908Y0140810D01*
X0004275Y0140443D01*
X0005009Y0140443D01*
X0005376Y0140810D01*
X0005376Y0141544D01*
X0004642Y0141544D01*
X0005496Y0154266D02*
X0005129Y0154633D01*
X0005129Y0155367D01*
X0005496Y0155734D01*
X0006230Y0155734D01*
X0006597Y0155367D01*
X0006597Y0155000D01*
X0005129Y0155000D01*
X0005496Y0154266D02*
X0006230Y0154266D01*
X0007339Y0154266D02*
X0008073Y0154266D01*
X0007706Y0154266D02*
X0007706Y0156468D01*
X0007339Y0156468D01*
X0008812Y0155367D02*
X0008812Y0154633D01*
X0009179Y0154266D01*
X0009913Y0154266D01*
X0010280Y0155000D02*
X0008812Y0155000D01*
X0008812Y0155367D02*
X0009179Y0155734D01*
X0009913Y0155734D01*
X0010280Y0155367D01*
X0010280Y0155000D01*
X0011022Y0155367D02*
X0011022Y0154633D01*
X0011389Y0154266D01*
X0012490Y0154266D01*
X0013599Y0154633D02*
X0013599Y0156101D01*
X0013232Y0155734D02*
X0013966Y0155734D01*
X0014705Y0155734D02*
X0014705Y0154266D01*
X0014705Y0155000D02*
X0015439Y0155734D01*
X0015806Y0155734D01*
X0016547Y0155734D02*
X0016914Y0155734D01*
X0016914Y0154266D01*
X0016547Y0154266D02*
X0017281Y0154266D01*
X0018020Y0154633D02*
X0018020Y0155367D01*
X0018387Y0155734D01*
X0019488Y0155734D01*
X0020230Y0155734D02*
X0020230Y0153532D01*
X0020230Y0154266D02*
X0021331Y0154266D01*
X0021698Y0154633D01*
X0021698Y0155367D01*
X0021331Y0155734D01*
X0020230Y0155734D01*
X0019488Y0154266D02*
X0018387Y0154266D01*
X0018020Y0154633D01*
X0016914Y0156468D02*
X0016914Y0156835D01*
X0013966Y0154266D02*
X0013599Y0154633D01*
X0012490Y0155734D02*
X0011389Y0155734D01*
X0011022Y0155367D01*
X0019190Y0146995D02*
X0019190Y0144192D01*
X0020591Y0144192D01*
X0021059Y0144659D01*
X0021059Y0146528D01*
X0020591Y0146995D01*
X0019190Y0146995D01*
X0021953Y0146528D02*
X0022420Y0146995D01*
X0023354Y0146995D01*
X0023821Y0146528D01*
X0023821Y0146061D01*
X0021953Y0144192D01*
X0023821Y0144192D01*
X0023913Y0154266D02*
X0023913Y0155734D01*
X0025014Y0155734D01*
X0025381Y0155367D01*
X0025381Y0154266D01*
X0026123Y0154266D02*
X0026123Y0156468D01*
X0027224Y0155734D02*
X0026123Y0155000D01*
X0027224Y0154266D01*
X0023174Y0154266D02*
X0022440Y0154266D01*
X0022807Y0154266D02*
X0022807Y0155734D01*
X0022440Y0155734D01*
X0022807Y0156468D02*
X0022807Y0156835D01*
D12*
X0011643Y0151406D02*
X0011643Y0139595D01*
X0001800Y0139595D01*
X0001800Y0151406D01*
X0011643Y0151406D01*
X0082509Y0151406D02*
X0082509Y0139595D01*
X0092351Y0139595D01*
X0092351Y0151406D01*
X0082509Y0151406D01*
D13*
X0090700Y0125331D02*
X0064900Y0125331D01*
X0064900Y0112331D01*
X0090700Y0112331D01*
X0090700Y0125331D01*
X0025028Y0137252D02*
X0025028Y0103152D01*
X0009628Y0103152D01*
X0009628Y0137252D01*
X0025028Y0137252D01*
X0020414Y0105702D02*
X0020416Y0105777D01*
X0020422Y0105851D01*
X0020432Y0105925D01*
X0020445Y0105998D01*
X0020463Y0106071D01*
X0020484Y0106142D01*
X0020509Y0106213D01*
X0020538Y0106282D01*
X0020571Y0106349D01*
X0020607Y0106414D01*
X0020646Y0106478D01*
X0020688Y0106539D01*
X0020734Y0106598D01*
X0020783Y0106655D01*
X0020835Y0106708D01*
X0020889Y0106759D01*
X0020946Y0106808D01*
X0021006Y0106852D01*
X0021068Y0106894D01*
X0021132Y0106933D01*
X0021198Y0106968D01*
X0021265Y0106999D01*
X0021335Y0107027D01*
X0021405Y0107051D01*
X0021477Y0107072D01*
X0021550Y0107088D01*
X0021623Y0107101D01*
X0021698Y0107110D01*
X0021772Y0107115D01*
X0021847Y0107116D01*
X0021921Y0107113D01*
X0021996Y0107106D01*
X0022069Y0107095D01*
X0022143Y0107081D01*
X0022215Y0107062D01*
X0022286Y0107040D01*
X0022356Y0107014D01*
X0022425Y0106984D01*
X0022491Y0106951D01*
X0022556Y0106914D01*
X0022619Y0106874D01*
X0022680Y0106830D01*
X0022738Y0106784D01*
X0022794Y0106734D01*
X0022847Y0106682D01*
X0022898Y0106627D01*
X0022945Y0106569D01*
X0022989Y0106509D01*
X0023030Y0106446D01*
X0023068Y0106382D01*
X0023102Y0106316D01*
X0023133Y0106247D01*
X0023160Y0106178D01*
X0023183Y0106107D01*
X0023202Y0106035D01*
X0023218Y0105962D01*
X0023230Y0105888D01*
X0023238Y0105814D01*
X0023242Y0105739D01*
X0023242Y0105665D01*
X0023238Y0105590D01*
X0023230Y0105516D01*
X0023218Y0105442D01*
X0023202Y0105369D01*
X0023183Y0105297D01*
X0023160Y0105226D01*
X0023133Y0105157D01*
X0023102Y0105088D01*
X0023068Y0105022D01*
X0023030Y0104958D01*
X0022989Y0104895D01*
X0022945Y0104835D01*
X0022898Y0104777D01*
X0022847Y0104722D01*
X0022794Y0104670D01*
X0022738Y0104620D01*
X0022680Y0104574D01*
X0022619Y0104530D01*
X0022556Y0104490D01*
X0022491Y0104453D01*
X0022425Y0104420D01*
X0022356Y0104390D01*
X0022286Y0104364D01*
X0022215Y0104342D01*
X0022143Y0104323D01*
X0022069Y0104309D01*
X0021996Y0104298D01*
X0021921Y0104291D01*
X0021847Y0104288D01*
X0021772Y0104289D01*
X0021698Y0104294D01*
X0021623Y0104303D01*
X0021550Y0104316D01*
X0021477Y0104332D01*
X0021405Y0104353D01*
X0021335Y0104377D01*
X0021265Y0104405D01*
X0021198Y0104436D01*
X0021132Y0104471D01*
X0021068Y0104510D01*
X0021006Y0104552D01*
X0020946Y0104596D01*
X0020889Y0104645D01*
X0020835Y0104696D01*
X0020783Y0104749D01*
X0020734Y0104806D01*
X0020688Y0104865D01*
X0020646Y0104926D01*
X0020607Y0104990D01*
X0020571Y0105055D01*
X0020538Y0105122D01*
X0020509Y0105191D01*
X0020484Y0105262D01*
X0020463Y0105333D01*
X0020445Y0105406D01*
X0020432Y0105479D01*
X0020422Y0105553D01*
X0020416Y0105627D01*
X0020414Y0105702D01*
D14*
X0019767Y0142901D02*
X0023148Y0142901D01*
X0023704Y0148101D02*
X0027676Y0148101D01*
X0027676Y0142932D01*
X0019463Y0148101D02*
X0015294Y0148101D01*
X0015294Y0142932D01*
X0051515Y0131565D02*
X0051515Y0126397D01*
X0051515Y0131565D02*
X0055683Y0131565D01*
X0055987Y0126365D02*
X0059369Y0126365D01*
X0059924Y0131565D02*
X0063896Y0131565D01*
X0063896Y0126397D01*
X0068898Y0144847D02*
X0079898Y0144847D01*
X0079958Y0144849D01*
X0080019Y0144854D01*
X0080078Y0144863D01*
X0080137Y0144876D01*
X0080196Y0144892D01*
X0080253Y0144912D01*
X0080308Y0144935D01*
X0080363Y0144962D01*
X0080415Y0144991D01*
X0080466Y0145024D01*
X0080515Y0145060D01*
X0080561Y0145098D01*
X0080605Y0145140D01*
X0080647Y0145184D01*
X0080685Y0145230D01*
X0080721Y0145279D01*
X0080754Y0145330D01*
X0080783Y0145382D01*
X0080810Y0145437D01*
X0080833Y0145492D01*
X0080853Y0145549D01*
X0080869Y0145608D01*
X0080882Y0145667D01*
X0080891Y0145726D01*
X0080896Y0145787D01*
X0080898Y0145847D01*
X0080898Y0151847D01*
X0080896Y0151907D01*
X0080891Y0151968D01*
X0080882Y0152027D01*
X0080869Y0152086D01*
X0080853Y0152145D01*
X0080833Y0152202D01*
X0080810Y0152257D01*
X0080783Y0152312D01*
X0080754Y0152364D01*
X0080721Y0152415D01*
X0080685Y0152464D01*
X0080647Y0152510D01*
X0080605Y0152554D01*
X0080561Y0152596D01*
X0080515Y0152634D01*
X0080466Y0152670D01*
X0080415Y0152703D01*
X0080363Y0152732D01*
X0080308Y0152759D01*
X0080253Y0152782D01*
X0080196Y0152802D01*
X0080137Y0152818D01*
X0080078Y0152831D01*
X0080019Y0152840D01*
X0079958Y0152845D01*
X0079898Y0152847D01*
X0068898Y0152847D01*
X0068838Y0152845D01*
X0068777Y0152840D01*
X0068718Y0152831D01*
X0068659Y0152818D01*
X0068600Y0152802D01*
X0068543Y0152782D01*
X0068488Y0152759D01*
X0068433Y0152732D01*
X0068381Y0152703D01*
X0068330Y0152670D01*
X0068281Y0152634D01*
X0068235Y0152596D01*
X0068191Y0152554D01*
X0068149Y0152510D01*
X0068111Y0152464D01*
X0068075Y0152415D01*
X0068042Y0152364D01*
X0068013Y0152312D01*
X0067986Y0152257D01*
X0067963Y0152202D01*
X0067943Y0152145D01*
X0067927Y0152086D01*
X0067914Y0152027D01*
X0067905Y0151968D01*
X0067900Y0151907D01*
X0067898Y0151847D01*
X0067898Y0145847D01*
X0067900Y0145787D01*
X0067905Y0145726D01*
X0067914Y0145667D01*
X0067927Y0145608D01*
X0067943Y0145549D01*
X0067963Y0145492D01*
X0067986Y0145437D01*
X0068013Y0145382D01*
X0068042Y0145330D01*
X0068075Y0145279D01*
X0068111Y0145230D01*
X0068149Y0145184D01*
X0068191Y0145140D01*
X0068235Y0145098D01*
X0068281Y0145060D01*
X0068330Y0145024D01*
X0068381Y0144991D01*
X0068433Y0144962D01*
X0068488Y0144935D01*
X0068543Y0144912D01*
X0068600Y0144892D01*
X0068659Y0144876D01*
X0068718Y0144863D01*
X0068777Y0144854D01*
X0068838Y0144849D01*
X0068898Y0144847D01*
D15*
X0062036Y0138217D02*
X0062036Y0158296D01*
X0060068Y0158296D01*
X0060068Y0138217D01*
X0034280Y0138217D01*
X0034280Y0158296D01*
X0060068Y0158296D01*
X0060068Y0138217D02*
X0062036Y0138217D01*
X0034280Y0138217D02*
X0032115Y0138217D01*
X0032115Y0158296D01*
X0034280Y0158296D01*
X0031048Y0082776D02*
X0031048Y0072934D01*
X0014300Y0072934D01*
X0011300Y0069548D02*
X0011300Y0059548D01*
X0011300Y0049548D01*
X0011300Y0039548D01*
X0011300Y0029548D01*
X0011300Y0019048D01*
X0001800Y0019048D01*
X0001800Y0029548D01*
X0001800Y0039548D01*
X0001800Y0049548D01*
X0001800Y0059548D01*
X0001800Y0069548D01*
X0011300Y0069548D01*
X0011300Y0081048D01*
X0001800Y0081048D01*
X0001800Y0069548D01*
X0001800Y0059548D02*
X0011300Y0059548D01*
X0011300Y0049548D02*
X0001800Y0049548D01*
X0001800Y0039548D02*
X0011300Y0039548D01*
X0011300Y0029548D02*
X0001800Y0029548D01*
X0001800Y0019548D02*
X0001800Y0009048D01*
X0011300Y0009048D01*
X0011300Y0019548D01*
X0014300Y0007816D02*
X0014300Y0082776D01*
X0078292Y0082776D01*
X0078292Y0007816D01*
X0014300Y0007816D01*
X0082300Y0009048D02*
X0091800Y0009048D01*
X0091800Y0019548D01*
X0091800Y0019048D02*
X0091800Y0029548D01*
X0091800Y0039548D01*
X0091800Y0049548D01*
X0082300Y0049548D01*
X0082300Y0039548D01*
X0082300Y0029548D01*
X0082300Y0019048D01*
X0091800Y0019048D01*
X0091800Y0029548D02*
X0082300Y0029548D01*
X0082300Y0039548D02*
X0091800Y0039548D01*
X0091800Y0049548D02*
X0091800Y0059548D01*
X0082300Y0059548D01*
X0082300Y0049548D01*
X0082300Y0059548D02*
X0082300Y0069548D01*
X0091800Y0069548D01*
X0091800Y0059548D01*
X0091800Y0069548D02*
X0091800Y0080048D01*
X0082300Y0080048D01*
X0082300Y0069548D01*
X0082300Y0019548D02*
X0082300Y0009048D01*
D16*
X0049440Y0029188D02*
X0049440Y0032658D01*
X0048573Y0034344D02*
X0049440Y0035212D01*
X0049440Y0036947D01*
X0048573Y0037814D01*
X0047705Y0037814D01*
X0046838Y0036947D01*
X0046838Y0035212D01*
X0045971Y0034344D01*
X0045103Y0034344D01*
X0044236Y0035212D01*
X0044236Y0036947D01*
X0045103Y0037814D01*
X0044236Y0039501D02*
X0044236Y0042103D01*
X0045103Y0042970D01*
X0046838Y0042970D01*
X0047705Y0042103D01*
X0047705Y0039501D01*
X0049440Y0039501D02*
X0044236Y0039501D01*
X0045103Y0044657D02*
X0044236Y0045524D01*
X0044236Y0047259D01*
X0045103Y0048127D01*
X0045971Y0048127D01*
X0046838Y0047259D01*
X0046838Y0045524D01*
X0045971Y0044657D01*
X0045103Y0044657D01*
X0046838Y0045524D02*
X0047705Y0044657D01*
X0048573Y0044657D01*
X0049440Y0045524D01*
X0049440Y0047259D01*
X0048573Y0048127D01*
X0047705Y0048127D01*
X0046838Y0047259D01*
X0045103Y0049813D02*
X0044236Y0050681D01*
X0044236Y0052416D01*
X0045103Y0053283D01*
X0045971Y0053283D01*
X0049440Y0049813D01*
X0049440Y0053283D01*
X0048573Y0054970D02*
X0049440Y0055837D01*
X0049440Y0057572D01*
X0048573Y0058440D01*
X0047705Y0058440D01*
X0046838Y0057572D01*
X0046838Y0054970D01*
X0048573Y0054970D01*
X0046838Y0054970D02*
X0045103Y0056705D01*
X0044236Y0058440D01*
X0046838Y0060126D02*
X0045103Y0061861D01*
X0044236Y0063596D01*
X0046838Y0062729D02*
X0046838Y0060126D01*
X0048573Y0060126D01*
X0049440Y0060994D01*
X0049440Y0062729D01*
X0048573Y0063596D01*
X0047705Y0063596D01*
X0046838Y0062729D01*
X0046838Y0065283D02*
X0046838Y0068752D01*
X0045971Y0070439D02*
X0044236Y0072174D01*
X0049440Y0072174D01*
X0049440Y0070439D02*
X0049440Y0073909D01*
X0049440Y0075595D02*
X0045971Y0079065D01*
X0045103Y0079065D01*
X0044236Y0078198D01*
X0044236Y0076463D01*
X0045103Y0075595D01*
X0049440Y0075595D02*
X0049440Y0079065D01*
X0044236Y0032658D02*
X0044236Y0029188D01*
X0049440Y0029188D01*
X0046838Y0029188D02*
X0046838Y0030923D01*
D17*
X0044559Y0026537D02*
X0044622Y0026452D01*
X0044688Y0026369D01*
X0044756Y0026289D01*
X0044828Y0026211D01*
X0044902Y0026136D01*
X0044979Y0026063D01*
X0045059Y0025994D01*
X0045141Y0025927D01*
X0045226Y0025864D01*
X0045313Y0025804D01*
X0045402Y0025747D01*
X0045493Y0025693D01*
X0045586Y0025642D01*
X0045681Y0025596D01*
X0045777Y0025552D01*
X0045875Y0025512D01*
X0045974Y0025476D01*
X0046075Y0025444D01*
X0046177Y0025415D01*
X0046280Y0025390D01*
X0046383Y0025368D01*
X0046487Y0025351D01*
X0046592Y0025337D01*
X0046698Y0025328D01*
X0046803Y0025322D01*
X0046909Y0025320D01*
X0047015Y0025322D01*
X0047120Y0025328D01*
X0047226Y0025337D01*
X0047331Y0025351D01*
X0047435Y0025368D01*
X0047538Y0025390D01*
X0047641Y0025415D01*
X0047743Y0025444D01*
X0047844Y0025476D01*
X0047943Y0025512D01*
X0048041Y0025552D01*
X0048137Y0025596D01*
X0048232Y0025642D01*
X0048325Y0025693D01*
X0048416Y0025747D01*
X0048505Y0025804D01*
X0048592Y0025864D01*
X0048677Y0025927D01*
X0048759Y0025994D01*
X0048839Y0026063D01*
X0048916Y0026136D01*
X0048990Y0026211D01*
X0049062Y0026289D01*
X0049130Y0026369D01*
X0049196Y0026452D01*
X0049259Y0026537D01*
X0052859Y0023637D02*
X0052761Y0023490D01*
X0052660Y0023344D01*
X0052555Y0023202D01*
X0052447Y0023061D01*
X0052335Y0022924D01*
X0052220Y0022789D01*
X0052101Y0022657D01*
X0051980Y0022528D01*
X0051855Y0022403D01*
X0051727Y0022280D01*
X0051597Y0022160D01*
X0051463Y0022044D01*
X0051327Y0021931D01*
X0051187Y0021821D01*
X0051046Y0021715D01*
X0050901Y0021612D01*
X0050754Y0021513D01*
X0050605Y0021417D01*
X0050454Y0021325D01*
X0050300Y0021237D01*
X0050144Y0021153D01*
X0049986Y0021073D01*
X0049826Y0020996D01*
X0049665Y0020923D01*
X0049501Y0020855D01*
X0049336Y0020790D01*
X0049170Y0020729D01*
X0049002Y0020673D01*
X0048833Y0020621D01*
X0048662Y0020573D01*
X0048490Y0020529D01*
X0048318Y0020489D01*
X0048144Y0020453D01*
X0047970Y0020422D01*
X0047795Y0020395D01*
X0047619Y0020372D01*
X0047443Y0020354D01*
X0047266Y0020340D01*
X0047089Y0020330D01*
X0046912Y0020325D01*
X0046735Y0020324D01*
X0046558Y0020328D01*
X0046380Y0020335D01*
X0046204Y0020347D01*
X0046027Y0020364D01*
X0045851Y0020384D01*
X0045676Y0020409D01*
X0045501Y0020439D01*
X0045327Y0020472D01*
X0045154Y0020510D01*
X0044982Y0020552D01*
X0044811Y0020598D01*
X0044641Y0020649D01*
X0044472Y0020703D01*
X0044305Y0020762D01*
X0044139Y0020825D01*
X0043975Y0020892D01*
X0043813Y0020962D01*
X0043652Y0021037D01*
X0043493Y0021116D01*
X0043337Y0021198D01*
X0043182Y0021285D01*
X0043029Y0021375D01*
X0042879Y0021469D01*
X0042731Y0021566D01*
X0042586Y0021668D01*
X0042443Y0021772D01*
X0042302Y0021880D01*
X0042165Y0021992D01*
X0042030Y0022107D01*
X0041898Y0022225D01*
X0041769Y0022346D01*
X0041642Y0022471D01*
X0041519Y0022598D01*
X0041400Y0022729D01*
X0041283Y0022862D01*
X0041170Y0022999D01*
X0041060Y0023137D01*
X0046459Y0027737D02*
X0046461Y0027777D01*
X0046467Y0027816D01*
X0046477Y0027855D01*
X0046490Y0027892D01*
X0046508Y0027928D01*
X0046529Y0027962D01*
X0046553Y0027994D01*
X0046580Y0028023D01*
X0046610Y0028050D01*
X0046642Y0028073D01*
X0046677Y0028093D01*
X0046713Y0028109D01*
X0046751Y0028122D01*
X0046790Y0028131D01*
X0046829Y0028136D01*
X0046869Y0028137D01*
X0046909Y0028134D01*
X0046948Y0028127D01*
X0046986Y0028116D01*
X0047024Y0028102D01*
X0047059Y0028083D01*
X0047092Y0028062D01*
X0047124Y0028037D01*
X0047152Y0028009D01*
X0047178Y0027979D01*
X0047200Y0027946D01*
X0047219Y0027911D01*
X0047235Y0027874D01*
X0047247Y0027836D01*
X0047255Y0027797D01*
X0047259Y0027757D01*
X0047259Y0027717D01*
X0047255Y0027677D01*
X0047247Y0027638D01*
X0047235Y0027600D01*
X0047219Y0027563D01*
X0047200Y0027528D01*
X0047178Y0027495D01*
X0047152Y0027465D01*
X0047124Y0027437D01*
X0047092Y0027412D01*
X0047059Y0027391D01*
X0047024Y0027372D01*
X0046986Y0027358D01*
X0046948Y0027347D01*
X0046909Y0027340D01*
X0046869Y0027337D01*
X0046829Y0027338D01*
X0046790Y0027343D01*
X0046751Y0027352D01*
X0046713Y0027365D01*
X0046677Y0027381D01*
X0046642Y0027401D01*
X0046610Y0027424D01*
X0046580Y0027451D01*
X0046553Y0027480D01*
X0046529Y0027512D01*
X0046508Y0027546D01*
X0046490Y0027582D01*
X0046477Y0027619D01*
X0046467Y0027658D01*
X0046461Y0027697D01*
X0046459Y0027737D01*
X0042859Y0024837D02*
X0042949Y0024728D01*
X0043042Y0024621D01*
X0043138Y0024517D01*
X0043237Y0024416D01*
X0043339Y0024318D01*
X0043443Y0024223D01*
X0043550Y0024130D01*
X0043660Y0024041D01*
X0043772Y0023954D01*
X0043886Y0023871D01*
X0044003Y0023792D01*
X0044122Y0023715D01*
X0044243Y0023642D01*
X0044366Y0023572D01*
X0044491Y0023506D01*
X0044617Y0023443D01*
X0044746Y0023384D01*
X0044876Y0023329D01*
X0045007Y0023277D01*
X0045140Y0023229D01*
X0045275Y0023185D01*
X0045410Y0023144D01*
X0045547Y0023107D01*
X0045684Y0023075D01*
X0045823Y0023046D01*
X0045962Y0023021D01*
X0046102Y0022999D01*
X0046242Y0022982D01*
X0046383Y0022969D01*
X0046524Y0022960D01*
X0046665Y0022954D01*
X0046806Y0022953D01*
X0046948Y0022956D01*
X0047089Y0022962D01*
X0047230Y0022973D01*
X0047371Y0022987D01*
X0047511Y0023006D01*
X0047650Y0023028D01*
X0047789Y0023055D01*
X0047927Y0023085D01*
X0048065Y0023119D01*
X0048201Y0023157D01*
X0048336Y0023199D01*
X0048470Y0023244D01*
X0048602Y0023294D01*
X0048733Y0023347D01*
X0048863Y0023403D01*
X0048991Y0023464D01*
X0049117Y0023528D01*
X0049241Y0023595D01*
X0049364Y0023666D01*
X0049484Y0023740D01*
X0049602Y0023818D01*
X0049718Y0023899D01*
X0049832Y0023983D01*
X0049943Y0024070D01*
X0050052Y0024160D01*
X0050158Y0024254D01*
X0050261Y0024350D01*
X0050362Y0024449D01*
X0050460Y0024551D01*
X0050555Y0024656D01*
X0050647Y0024764D01*
X0050736Y0024873D01*
X0050822Y0024986D01*
X0050904Y0025101D01*
X0050984Y0025218D01*
X0051060Y0025337D01*
D18*
X0056871Y0126653D02*
X0056871Y0128455D01*
X0056871Y0127554D02*
X0059574Y0127554D01*
X0058673Y0128455D01*
X0059574Y0129415D02*
X0059574Y0131217D01*
X0059574Y0130316D02*
X0056871Y0130316D01*
M02*
