G75*
%MOIN*%
%OFA0B0*%
%FSLAX24Y24*%
%IPPOS*%
%LPD*%
%AMOC8*
5,1,8,0,0,1.08239X$1,22.5*
%
%ADD10C,0.0000*%
%ADD11C,0.0020*%
%ADD12C,0.0080*%
%ADD13C,0.0060*%
%ADD14C,0.0050*%
%ADD15C,0.0040*%
%ADD16C,0.0120*%
D10*
X000881Y000911D02*
X000881Y029051D01*
X037433Y029051D01*
X037433Y000911D01*
X000881Y000911D01*
X003893Y013966D02*
X003893Y014281D01*
X003894Y014298D01*
X003899Y014315D01*
X003906Y014330D01*
X003916Y014344D01*
X003928Y014356D01*
X003942Y014366D01*
X003957Y014373D01*
X003974Y014378D01*
X003991Y014379D01*
X004008Y014378D01*
X004025Y014373D01*
X004040Y014366D01*
X004054Y014356D01*
X004066Y014344D01*
X004076Y014330D01*
X004083Y014315D01*
X004088Y014298D01*
X004089Y014281D01*
X004090Y014281D02*
X004090Y013966D01*
X003991Y013868D02*
X003974Y013869D01*
X003957Y013874D01*
X003942Y013881D01*
X003928Y013891D01*
X003916Y013903D01*
X003906Y013917D01*
X003899Y013932D01*
X003894Y013949D01*
X003893Y013966D01*
X003991Y013868D02*
X004008Y013869D01*
X004025Y013874D01*
X004040Y013881D01*
X004054Y013891D01*
X004066Y013903D01*
X004076Y013917D01*
X004083Y013932D01*
X004088Y013949D01*
X004089Y013966D01*
X006728Y013966D02*
X006728Y014281D01*
X006729Y014298D01*
X006734Y014315D01*
X006741Y014330D01*
X006751Y014344D01*
X006763Y014356D01*
X006777Y014366D01*
X006792Y014373D01*
X006809Y014378D01*
X006826Y014379D01*
X006843Y014378D01*
X006860Y014373D01*
X006875Y014366D01*
X006889Y014356D01*
X006901Y014344D01*
X006911Y014330D01*
X006918Y014315D01*
X006923Y014298D01*
X006924Y014281D01*
X006924Y013966D01*
X006826Y013868D02*
X006809Y013869D01*
X006792Y013874D01*
X006777Y013881D01*
X006763Y013891D01*
X006751Y013903D01*
X006741Y013917D01*
X006734Y013932D01*
X006729Y013949D01*
X006728Y013966D01*
X006826Y013868D02*
X006843Y013869D01*
X006860Y013874D01*
X006875Y013881D01*
X006889Y013891D01*
X006901Y013903D01*
X006911Y013917D01*
X006918Y013932D01*
X006923Y013949D01*
X006924Y013966D01*
X013070Y013966D02*
X013070Y014281D01*
X013071Y014281D02*
X013072Y014298D01*
X013077Y014315D01*
X013084Y014330D01*
X013094Y014344D01*
X013106Y014356D01*
X013120Y014366D01*
X013135Y014373D01*
X013152Y014378D01*
X013169Y014379D01*
X013186Y014378D01*
X013203Y014373D01*
X013218Y014366D01*
X013232Y014356D01*
X013244Y014344D01*
X013254Y014330D01*
X013261Y014315D01*
X013266Y014298D01*
X013267Y014281D01*
X013267Y013966D01*
X013169Y013868D02*
X013152Y013869D01*
X013135Y013874D01*
X013120Y013881D01*
X013106Y013891D01*
X013094Y013903D01*
X013084Y013917D01*
X013077Y013932D01*
X013072Y013949D01*
X013071Y013966D01*
X013169Y013868D02*
X013186Y013869D01*
X013203Y013874D01*
X013218Y013881D01*
X013232Y013891D01*
X013244Y013903D01*
X013254Y013917D01*
X013261Y013932D01*
X013266Y013949D01*
X013267Y013966D01*
X015905Y013966D02*
X015905Y014281D01*
X015906Y014298D01*
X015911Y014315D01*
X015918Y014330D01*
X015928Y014344D01*
X015940Y014356D01*
X015954Y014366D01*
X015969Y014373D01*
X015986Y014378D01*
X016003Y014379D01*
X016020Y014378D01*
X016037Y014373D01*
X016052Y014366D01*
X016066Y014356D01*
X016078Y014344D01*
X016088Y014330D01*
X016095Y014315D01*
X016100Y014298D01*
X016101Y014281D01*
X016102Y014281D02*
X016102Y013966D01*
X016003Y013868D02*
X015986Y013869D01*
X015969Y013874D01*
X015954Y013881D01*
X015940Y013891D01*
X015928Y013903D01*
X015918Y013917D01*
X015911Y013932D01*
X015906Y013949D01*
X015905Y013966D01*
X016003Y013868D02*
X016020Y013869D01*
X016037Y013874D01*
X016052Y013881D01*
X016066Y013891D01*
X016078Y013903D01*
X016088Y013917D01*
X016095Y013932D01*
X016100Y013949D01*
X016101Y013966D01*
X022218Y013966D02*
X022218Y014281D01*
X022219Y014298D01*
X022224Y014315D01*
X022231Y014330D01*
X022241Y014344D01*
X022253Y014356D01*
X022267Y014366D01*
X022282Y014373D01*
X022299Y014378D01*
X022316Y014379D01*
X022333Y014378D01*
X022350Y014373D01*
X022365Y014366D01*
X022379Y014356D01*
X022391Y014344D01*
X022401Y014330D01*
X022408Y014315D01*
X022413Y014298D01*
X022414Y014281D01*
X022415Y014281D02*
X022415Y013966D01*
X022316Y013868D02*
X022299Y013869D01*
X022282Y013874D01*
X022267Y013881D01*
X022253Y013891D01*
X022241Y013903D01*
X022231Y013917D01*
X022224Y013932D01*
X022219Y013949D01*
X022218Y013966D01*
X022316Y013868D02*
X022333Y013869D01*
X022350Y013874D01*
X022365Y013881D01*
X022379Y013891D01*
X022391Y013903D01*
X022401Y013917D01*
X022408Y013932D01*
X022413Y013949D01*
X022414Y013966D01*
X025052Y013966D02*
X025052Y014281D01*
X025053Y014281D02*
X025054Y014298D01*
X025059Y014315D01*
X025066Y014330D01*
X025076Y014344D01*
X025088Y014356D01*
X025102Y014366D01*
X025117Y014373D01*
X025134Y014378D01*
X025151Y014379D01*
X025168Y014378D01*
X025185Y014373D01*
X025200Y014366D01*
X025214Y014356D01*
X025226Y014344D01*
X025236Y014330D01*
X025243Y014315D01*
X025248Y014298D01*
X025249Y014281D01*
X025249Y013966D01*
X025151Y013868D02*
X025134Y013869D01*
X025117Y013874D01*
X025102Y013881D01*
X025088Y013891D01*
X025076Y013903D01*
X025066Y013917D01*
X025059Y013932D01*
X025054Y013949D01*
X025053Y013966D01*
X025151Y013868D02*
X025168Y013869D01*
X025185Y013874D01*
X025200Y013881D01*
X025214Y013891D01*
X025226Y013903D01*
X025236Y013917D01*
X025243Y013932D01*
X025248Y013949D01*
X025249Y013966D01*
X031390Y013966D02*
X031390Y014281D01*
X031391Y014298D01*
X031396Y014315D01*
X031403Y014330D01*
X031413Y014344D01*
X031425Y014356D01*
X031439Y014366D01*
X031454Y014373D01*
X031471Y014378D01*
X031488Y014379D01*
X031505Y014378D01*
X031522Y014373D01*
X031537Y014366D01*
X031551Y014356D01*
X031563Y014344D01*
X031573Y014330D01*
X031580Y014315D01*
X031585Y014298D01*
X031586Y014281D01*
X031586Y013966D01*
X031488Y013868D02*
X031471Y013869D01*
X031454Y013874D01*
X031439Y013881D01*
X031425Y013891D01*
X031413Y013903D01*
X031403Y013917D01*
X031396Y013932D01*
X031391Y013949D01*
X031390Y013966D01*
X031488Y013868D02*
X031505Y013869D01*
X031522Y013874D01*
X031537Y013881D01*
X031551Y013891D01*
X031563Y013903D01*
X031573Y013917D01*
X031580Y013932D01*
X031585Y013949D01*
X031586Y013966D01*
X034224Y013966D02*
X034224Y014281D01*
X034225Y014281D02*
X034226Y014298D01*
X034231Y014315D01*
X034238Y014330D01*
X034248Y014344D01*
X034260Y014356D01*
X034274Y014366D01*
X034289Y014373D01*
X034306Y014378D01*
X034323Y014379D01*
X034340Y014378D01*
X034357Y014373D01*
X034372Y014366D01*
X034386Y014356D01*
X034398Y014344D01*
X034408Y014330D01*
X034415Y014315D01*
X034420Y014298D01*
X034421Y014281D01*
X034421Y013966D01*
X034323Y013868D02*
X034306Y013869D01*
X034289Y013874D01*
X034274Y013881D01*
X034260Y013891D01*
X034248Y013903D01*
X034238Y013917D01*
X034231Y013932D01*
X034226Y013949D01*
X034225Y013966D01*
X034323Y013868D02*
X034340Y013869D01*
X034357Y013874D01*
X034372Y013881D01*
X034386Y013891D01*
X034398Y013903D01*
X034408Y013917D01*
X034415Y013932D01*
X034420Y013949D01*
X034421Y013966D01*
X034421Y028110D02*
X034421Y028425D01*
X034323Y028523D02*
X034306Y028522D01*
X034289Y028517D01*
X034274Y028510D01*
X034260Y028500D01*
X034248Y028488D01*
X034238Y028474D01*
X034231Y028459D01*
X034226Y028442D01*
X034225Y028425D01*
X034224Y028425D02*
X034224Y028110D01*
X034225Y028110D02*
X034226Y028093D01*
X034231Y028076D01*
X034238Y028061D01*
X034248Y028047D01*
X034260Y028035D01*
X034274Y028025D01*
X034289Y028018D01*
X034306Y028013D01*
X034323Y028012D01*
X034340Y028013D01*
X034357Y028018D01*
X034372Y028025D01*
X034386Y028035D01*
X034398Y028047D01*
X034408Y028061D01*
X034415Y028076D01*
X034420Y028093D01*
X034421Y028110D01*
X034421Y028425D02*
X034420Y028442D01*
X034415Y028459D01*
X034408Y028474D01*
X034398Y028488D01*
X034386Y028500D01*
X034372Y028510D01*
X034357Y028517D01*
X034340Y028522D01*
X034323Y028523D01*
X031586Y028425D02*
X031586Y028110D01*
X031488Y028012D02*
X031471Y028013D01*
X031454Y028018D01*
X031439Y028025D01*
X031425Y028035D01*
X031413Y028047D01*
X031403Y028061D01*
X031396Y028076D01*
X031391Y028093D01*
X031390Y028110D01*
X031390Y028425D01*
X031391Y028442D01*
X031396Y028459D01*
X031403Y028474D01*
X031413Y028488D01*
X031425Y028500D01*
X031439Y028510D01*
X031454Y028517D01*
X031471Y028522D01*
X031488Y028523D01*
X031505Y028522D01*
X031522Y028517D01*
X031537Y028510D01*
X031551Y028500D01*
X031563Y028488D01*
X031573Y028474D01*
X031580Y028459D01*
X031585Y028442D01*
X031586Y028425D01*
X031586Y028110D02*
X031585Y028093D01*
X031580Y028076D01*
X031573Y028061D01*
X031563Y028047D01*
X031551Y028035D01*
X031537Y028025D01*
X031522Y028018D01*
X031505Y028013D01*
X031488Y028012D01*
X025249Y028110D02*
X025249Y028425D01*
X025151Y028523D02*
X025134Y028522D01*
X025117Y028517D01*
X025102Y028510D01*
X025088Y028500D01*
X025076Y028488D01*
X025066Y028474D01*
X025059Y028459D01*
X025054Y028442D01*
X025053Y028425D01*
X025052Y028425D02*
X025052Y028110D01*
X025053Y028110D02*
X025054Y028093D01*
X025059Y028076D01*
X025066Y028061D01*
X025076Y028047D01*
X025088Y028035D01*
X025102Y028025D01*
X025117Y028018D01*
X025134Y028013D01*
X025151Y028012D01*
X025168Y028013D01*
X025185Y028018D01*
X025200Y028025D01*
X025214Y028035D01*
X025226Y028047D01*
X025236Y028061D01*
X025243Y028076D01*
X025248Y028093D01*
X025249Y028110D01*
X025249Y028425D02*
X025248Y028442D01*
X025243Y028459D01*
X025236Y028474D01*
X025226Y028488D01*
X025214Y028500D01*
X025200Y028510D01*
X025185Y028517D01*
X025168Y028522D01*
X025151Y028523D01*
X022415Y028425D02*
X022415Y028110D01*
X022316Y028012D02*
X022299Y028013D01*
X022282Y028018D01*
X022267Y028025D01*
X022253Y028035D01*
X022241Y028047D01*
X022231Y028061D01*
X022224Y028076D01*
X022219Y028093D01*
X022218Y028110D01*
X022218Y028425D01*
X022219Y028442D01*
X022224Y028459D01*
X022231Y028474D01*
X022241Y028488D01*
X022253Y028500D01*
X022267Y028510D01*
X022282Y028517D01*
X022299Y028522D01*
X022316Y028523D01*
X022333Y028522D01*
X022350Y028517D01*
X022365Y028510D01*
X022379Y028500D01*
X022391Y028488D01*
X022401Y028474D01*
X022408Y028459D01*
X022413Y028442D01*
X022414Y028425D01*
X022414Y028110D02*
X022413Y028093D01*
X022408Y028076D01*
X022401Y028061D01*
X022391Y028047D01*
X022379Y028035D01*
X022365Y028025D01*
X022350Y028018D01*
X022333Y028013D01*
X022316Y028012D01*
X016102Y028110D02*
X016102Y028425D01*
X016003Y028523D02*
X015986Y028522D01*
X015969Y028517D01*
X015954Y028510D01*
X015940Y028500D01*
X015928Y028488D01*
X015918Y028474D01*
X015911Y028459D01*
X015906Y028442D01*
X015905Y028425D01*
X015905Y028110D01*
X015906Y028093D01*
X015911Y028076D01*
X015918Y028061D01*
X015928Y028047D01*
X015940Y028035D01*
X015954Y028025D01*
X015969Y028018D01*
X015986Y028013D01*
X016003Y028012D01*
X016020Y028013D01*
X016037Y028018D01*
X016052Y028025D01*
X016066Y028035D01*
X016078Y028047D01*
X016088Y028061D01*
X016095Y028076D01*
X016100Y028093D01*
X016101Y028110D01*
X016101Y028425D02*
X016100Y028442D01*
X016095Y028459D01*
X016088Y028474D01*
X016078Y028488D01*
X016066Y028500D01*
X016052Y028510D01*
X016037Y028517D01*
X016020Y028522D01*
X016003Y028523D01*
X013267Y028425D02*
X013267Y028110D01*
X013169Y028012D02*
X013152Y028013D01*
X013135Y028018D01*
X013120Y028025D01*
X013106Y028035D01*
X013094Y028047D01*
X013084Y028061D01*
X013077Y028076D01*
X013072Y028093D01*
X013071Y028110D01*
X013070Y028110D02*
X013070Y028425D01*
X013071Y028425D02*
X013072Y028442D01*
X013077Y028459D01*
X013084Y028474D01*
X013094Y028488D01*
X013106Y028500D01*
X013120Y028510D01*
X013135Y028517D01*
X013152Y028522D01*
X013169Y028523D01*
X013186Y028522D01*
X013203Y028517D01*
X013218Y028510D01*
X013232Y028500D01*
X013244Y028488D01*
X013254Y028474D01*
X013261Y028459D01*
X013266Y028442D01*
X013267Y028425D01*
X013267Y028110D02*
X013266Y028093D01*
X013261Y028076D01*
X013254Y028061D01*
X013244Y028047D01*
X013232Y028035D01*
X013218Y028025D01*
X013203Y028018D01*
X013186Y028013D01*
X013169Y028012D01*
X006924Y028110D02*
X006924Y028425D01*
X006826Y028523D02*
X006809Y028522D01*
X006792Y028517D01*
X006777Y028510D01*
X006763Y028500D01*
X006751Y028488D01*
X006741Y028474D01*
X006734Y028459D01*
X006729Y028442D01*
X006728Y028425D01*
X006728Y028110D01*
X006729Y028093D01*
X006734Y028076D01*
X006741Y028061D01*
X006751Y028047D01*
X006763Y028035D01*
X006777Y028025D01*
X006792Y028018D01*
X006809Y028013D01*
X006826Y028012D01*
X006843Y028013D01*
X006860Y028018D01*
X006875Y028025D01*
X006889Y028035D01*
X006901Y028047D01*
X006911Y028061D01*
X006918Y028076D01*
X006923Y028093D01*
X006924Y028110D01*
X006924Y028425D02*
X006923Y028442D01*
X006918Y028459D01*
X006911Y028474D01*
X006901Y028488D01*
X006889Y028500D01*
X006875Y028510D01*
X006860Y028517D01*
X006843Y028522D01*
X006826Y028523D01*
X004090Y028425D02*
X004090Y028110D01*
X003991Y028012D02*
X003974Y028013D01*
X003957Y028018D01*
X003942Y028025D01*
X003928Y028035D01*
X003916Y028047D01*
X003906Y028061D01*
X003899Y028076D01*
X003894Y028093D01*
X003893Y028110D01*
X003893Y028425D01*
X003894Y028442D01*
X003899Y028459D01*
X003906Y028474D01*
X003916Y028488D01*
X003928Y028500D01*
X003942Y028510D01*
X003957Y028517D01*
X003974Y028522D01*
X003991Y028523D01*
X004008Y028522D01*
X004025Y028517D01*
X004040Y028510D01*
X004054Y028500D01*
X004066Y028488D01*
X004076Y028474D01*
X004083Y028459D01*
X004088Y028442D01*
X004089Y028425D01*
X004089Y028110D02*
X004088Y028093D01*
X004083Y028076D01*
X004076Y028061D01*
X004066Y028047D01*
X004054Y028035D01*
X004040Y028025D01*
X004025Y028018D01*
X004008Y028013D01*
X003991Y028012D01*
D11*
X004664Y026745D02*
X004804Y026745D01*
X004850Y026698D01*
X004850Y026605D01*
X004804Y026558D01*
X004664Y026558D01*
X004757Y026558D02*
X004850Y026465D01*
X004940Y026465D02*
X005127Y026652D01*
X005127Y026698D01*
X005080Y026745D01*
X004987Y026745D01*
X004940Y026698D01*
X004940Y026465D02*
X005127Y026465D01*
X004664Y026465D02*
X004664Y026745D01*
X005841Y026745D02*
X005841Y026465D01*
X005841Y026558D02*
X005981Y026558D01*
X006028Y026605D01*
X006028Y026698D01*
X005981Y026745D01*
X005841Y026745D01*
X005935Y026558D02*
X006028Y026465D01*
X006117Y026465D02*
X006304Y026465D01*
X006211Y026465D02*
X006211Y026745D01*
X006117Y026652D01*
X007729Y026990D02*
X007915Y026990D01*
X008005Y026990D02*
X008005Y027270D01*
X008098Y027177D01*
X008192Y027270D01*
X008192Y026990D01*
X008281Y026990D02*
X008468Y026990D01*
X008557Y026990D02*
X008744Y026990D01*
X008834Y026990D02*
X009020Y026990D01*
X009110Y026990D02*
X009110Y027036D01*
X009297Y027223D01*
X009297Y027270D01*
X009110Y027270D01*
X008927Y027270D02*
X008927Y026990D01*
X008834Y027177D02*
X008927Y027270D01*
X008651Y027270D02*
X008651Y026990D01*
X008557Y027177D02*
X008651Y027270D01*
X008374Y027270D02*
X008374Y026990D01*
X008281Y027177D02*
X008374Y027270D01*
X007729Y027270D02*
X007729Y026990D01*
X007835Y024995D02*
X007789Y024948D01*
X007789Y024761D01*
X007835Y024715D01*
X007929Y024715D01*
X007975Y024761D01*
X008065Y024761D02*
X008065Y024808D01*
X008112Y024855D01*
X008205Y024855D01*
X008252Y024808D01*
X008252Y024761D01*
X008205Y024715D01*
X008112Y024715D01*
X008065Y024761D01*
X008112Y024855D02*
X008065Y024902D01*
X008065Y024948D01*
X008112Y024995D01*
X008205Y024995D01*
X008252Y024948D01*
X008252Y024902D01*
X008205Y024855D01*
X007975Y024948D02*
X007929Y024995D01*
X007835Y024995D01*
X006954Y024905D02*
X006767Y024905D01*
X006907Y025045D01*
X006907Y024765D01*
X006678Y024811D02*
X006631Y024765D01*
X006538Y024765D01*
X006491Y024811D01*
X006491Y024998D01*
X006538Y025045D01*
X006631Y025045D01*
X006678Y024998D01*
X005714Y024911D02*
X005714Y024864D01*
X005667Y024817D01*
X005714Y024771D01*
X005714Y024724D01*
X005667Y024677D01*
X005574Y024677D01*
X005527Y024724D01*
X005438Y024724D02*
X005391Y024677D01*
X005298Y024677D01*
X005251Y024724D01*
X005251Y024911D01*
X005298Y024957D01*
X005391Y024957D01*
X005438Y024911D01*
X005527Y024911D02*
X005574Y024957D01*
X005667Y024957D01*
X005714Y024911D01*
X005667Y024817D02*
X005621Y024817D01*
X004504Y024855D02*
X004504Y024761D01*
X004457Y024715D01*
X004364Y024715D01*
X004317Y024761D01*
X004228Y024761D02*
X004181Y024715D01*
X004088Y024715D01*
X004041Y024761D01*
X004041Y024948D01*
X004088Y024995D01*
X004181Y024995D01*
X004228Y024948D01*
X004317Y024995D02*
X004317Y024855D01*
X004411Y024902D01*
X004457Y024902D01*
X004504Y024855D01*
X004504Y024995D02*
X004317Y024995D01*
X003214Y024727D02*
X003027Y024727D01*
X003121Y024727D02*
X003121Y025007D01*
X003027Y024914D01*
X002938Y024961D02*
X002891Y025007D01*
X002798Y025007D01*
X002751Y024961D01*
X002751Y024774D01*
X002798Y024727D01*
X002891Y024727D01*
X002938Y024774D01*
X001835Y024793D02*
X001648Y024793D01*
X001835Y024980D01*
X001835Y025026D01*
X001788Y025073D01*
X001695Y025073D01*
X001648Y025026D01*
X001559Y025026D02*
X001512Y025073D01*
X001372Y025073D01*
X001372Y024793D01*
X001512Y024793D01*
X001559Y024839D01*
X001559Y025026D01*
X002838Y021920D02*
X002791Y021873D01*
X002791Y021686D01*
X002838Y021640D01*
X002931Y021640D01*
X002978Y021686D01*
X003067Y021686D02*
X003114Y021640D01*
X003207Y021640D01*
X003254Y021686D01*
X003254Y021733D01*
X003207Y021780D01*
X003067Y021780D01*
X003067Y021686D01*
X003067Y021780D02*
X003161Y021873D01*
X003254Y021920D01*
X002978Y021873D02*
X002931Y021920D01*
X002838Y021920D01*
X003054Y021099D02*
X003018Y021062D01*
X003018Y020915D01*
X003054Y020879D01*
X003128Y020879D01*
X003164Y020915D01*
X003164Y020989D01*
X003091Y020989D01*
X003164Y021062D02*
X003128Y021099D01*
X003054Y021099D01*
X003238Y021099D02*
X003385Y020879D01*
X003385Y021099D01*
X003459Y021099D02*
X003570Y021099D01*
X003606Y021062D01*
X003606Y020915D01*
X003570Y020879D01*
X003459Y020879D01*
X003459Y021099D01*
X003238Y021099D02*
X003238Y020879D01*
X003991Y021715D02*
X003991Y021995D01*
X004131Y021995D01*
X004178Y021948D01*
X004178Y021855D01*
X004131Y021808D01*
X003991Y021808D01*
X004085Y021808D02*
X004178Y021715D01*
X004267Y021761D02*
X004314Y021715D01*
X004407Y021715D01*
X004454Y021761D01*
X004454Y021808D01*
X004407Y021855D01*
X004361Y021855D01*
X004407Y021855D02*
X004454Y021902D01*
X004454Y021948D01*
X004407Y021995D01*
X004314Y021995D01*
X004267Y021948D01*
X005341Y021995D02*
X005341Y021715D01*
X005341Y021808D02*
X005481Y021808D01*
X005528Y021855D01*
X005528Y021948D01*
X005481Y021995D01*
X005341Y021995D01*
X005435Y021808D02*
X005528Y021715D01*
X005617Y021855D02*
X005804Y021855D01*
X005757Y021715D02*
X005757Y021995D01*
X005617Y021855D01*
X006441Y021808D02*
X006581Y021808D01*
X006628Y021855D01*
X006628Y021948D01*
X006581Y021995D01*
X006441Y021995D01*
X006441Y021715D01*
X006535Y021808D02*
X006628Y021715D01*
X006717Y021761D02*
X006764Y021715D01*
X006857Y021715D01*
X006904Y021761D01*
X006904Y021855D01*
X006857Y021902D01*
X006811Y021902D01*
X006717Y021855D01*
X006717Y021995D01*
X006904Y021995D01*
X007941Y021898D02*
X007941Y021711D01*
X007988Y021665D01*
X008081Y021665D01*
X008128Y021711D01*
X008217Y021665D02*
X008404Y021852D01*
X008404Y021898D01*
X008357Y021945D01*
X008264Y021945D01*
X008217Y021898D01*
X008128Y021898D02*
X008081Y021945D01*
X007988Y021945D01*
X007941Y021898D01*
X008217Y021665D02*
X008404Y021665D01*
X009135Y024715D02*
X009229Y024715D01*
X009275Y024761D01*
X009365Y024761D02*
X009365Y024715D01*
X009365Y024761D02*
X009552Y024948D01*
X009552Y024995D01*
X009365Y024995D01*
X009275Y024948D02*
X009229Y024995D01*
X009135Y024995D01*
X009089Y024948D01*
X009089Y024761D01*
X009135Y024715D01*
X010549Y024793D02*
X010689Y024793D01*
X010736Y024839D01*
X010736Y025026D01*
X010689Y025073D01*
X010549Y025073D01*
X010549Y024793D01*
X010825Y024793D02*
X011012Y024980D01*
X011012Y025026D01*
X010965Y025073D01*
X010872Y025073D01*
X010825Y025026D01*
X010825Y024793D02*
X011012Y024793D01*
X011928Y024774D02*
X011975Y024727D01*
X012068Y024727D01*
X012115Y024774D01*
X012205Y024727D02*
X012391Y024727D01*
X012298Y024727D02*
X012298Y025007D01*
X012205Y024914D01*
X012115Y024961D02*
X012068Y025007D01*
X011975Y025007D01*
X011928Y024961D01*
X011928Y024774D01*
X013218Y024761D02*
X013265Y024715D01*
X013358Y024715D01*
X013405Y024761D01*
X013495Y024761D02*
X013541Y024715D01*
X013635Y024715D01*
X013681Y024761D01*
X013681Y024855D01*
X013635Y024902D01*
X013588Y024902D01*
X013495Y024855D01*
X013495Y024995D01*
X013681Y024995D01*
X013405Y024948D02*
X013358Y024995D01*
X013265Y024995D01*
X013218Y024948D01*
X013218Y024761D01*
X014428Y024724D02*
X014475Y024677D01*
X014568Y024677D01*
X014615Y024724D01*
X014705Y024724D02*
X014751Y024677D01*
X014845Y024677D01*
X014891Y024724D01*
X014891Y024771D01*
X014845Y024817D01*
X014798Y024817D01*
X014845Y024817D02*
X014891Y024864D01*
X014891Y024911D01*
X014845Y024957D01*
X014751Y024957D01*
X014705Y024911D01*
X014615Y024911D02*
X014568Y024957D01*
X014475Y024957D01*
X014428Y024911D01*
X014428Y024724D01*
X015668Y024811D02*
X015715Y024765D01*
X015808Y024765D01*
X015855Y024811D01*
X015945Y024905D02*
X016131Y024905D01*
X016085Y025045D02*
X015945Y024905D01*
X015855Y024998D02*
X015808Y025045D01*
X015715Y025045D01*
X015668Y024998D01*
X015668Y024811D01*
X016085Y024765D02*
X016085Y025045D01*
X016966Y024948D02*
X016966Y024761D01*
X017013Y024715D01*
X017106Y024715D01*
X017153Y024761D01*
X017242Y024761D02*
X017242Y024808D01*
X017289Y024855D01*
X017382Y024855D01*
X017429Y024808D01*
X017429Y024761D01*
X017382Y024715D01*
X017289Y024715D01*
X017242Y024761D01*
X017289Y024855D02*
X017242Y024902D01*
X017242Y024948D01*
X017289Y024995D01*
X017382Y024995D01*
X017429Y024948D01*
X017429Y024902D01*
X017382Y024855D01*
X017153Y024948D02*
X017106Y024995D01*
X017013Y024995D01*
X016966Y024948D01*
X018266Y024948D02*
X018266Y024761D01*
X018313Y024715D01*
X018406Y024715D01*
X018453Y024761D01*
X018542Y024761D02*
X018729Y024948D01*
X018729Y024995D01*
X018542Y024995D01*
X018453Y024948D02*
X018406Y024995D01*
X018313Y024995D01*
X018266Y024948D01*
X018542Y024761D02*
X018542Y024715D01*
X019697Y024793D02*
X019837Y024793D01*
X019883Y024839D01*
X019883Y025026D01*
X019837Y025073D01*
X019697Y025073D01*
X019697Y024793D01*
X019973Y024793D02*
X020160Y024980D01*
X020160Y025026D01*
X020113Y025073D01*
X020019Y025073D01*
X019973Y025026D01*
X019973Y024793D02*
X020160Y024793D01*
X021076Y024774D02*
X021123Y024727D01*
X021216Y024727D01*
X021263Y024774D01*
X021352Y024727D02*
X021539Y024727D01*
X021446Y024727D02*
X021446Y025007D01*
X021352Y024914D01*
X021263Y024961D02*
X021216Y025007D01*
X021123Y025007D01*
X021076Y024961D01*
X021076Y024774D01*
X022366Y024761D02*
X022413Y024715D01*
X022506Y024715D01*
X022553Y024761D01*
X022642Y024761D02*
X022689Y024715D01*
X022782Y024715D01*
X022829Y024761D01*
X022829Y024855D01*
X022782Y024902D01*
X022736Y024902D01*
X022642Y024855D01*
X022642Y024995D01*
X022829Y024995D01*
X022553Y024948D02*
X022506Y024995D01*
X022413Y024995D01*
X022366Y024948D01*
X022366Y024761D01*
X023576Y024724D02*
X023623Y024677D01*
X023716Y024677D01*
X023763Y024724D01*
X023852Y024724D02*
X023899Y024677D01*
X023992Y024677D01*
X024039Y024724D01*
X024039Y024771D01*
X023992Y024817D01*
X023946Y024817D01*
X023992Y024817D02*
X024039Y024864D01*
X024039Y024911D01*
X023992Y024957D01*
X023899Y024957D01*
X023852Y024911D01*
X023763Y024911D02*
X023716Y024957D01*
X023623Y024957D01*
X023576Y024911D01*
X023576Y024724D01*
X024816Y024811D02*
X024863Y024765D01*
X024956Y024765D01*
X025003Y024811D01*
X025092Y024905D02*
X025279Y024905D01*
X025232Y025045D02*
X025092Y024905D01*
X025003Y024998D02*
X024956Y025045D01*
X024863Y025045D01*
X024816Y024998D01*
X024816Y024811D01*
X025232Y024765D02*
X025232Y025045D01*
X026113Y024948D02*
X026113Y024761D01*
X026160Y024715D01*
X026254Y024715D01*
X026300Y024761D01*
X026390Y024761D02*
X026390Y024808D01*
X026436Y024855D01*
X026530Y024855D01*
X026576Y024808D01*
X026576Y024761D01*
X026530Y024715D01*
X026436Y024715D01*
X026390Y024761D01*
X026436Y024855D02*
X026390Y024902D01*
X026390Y024948D01*
X026436Y024995D01*
X026530Y024995D01*
X026576Y024948D01*
X026576Y024902D01*
X026530Y024855D01*
X026300Y024948D02*
X026254Y024995D01*
X026160Y024995D01*
X026113Y024948D01*
X027413Y024948D02*
X027413Y024761D01*
X027460Y024715D01*
X027554Y024715D01*
X027600Y024761D01*
X027690Y024761D02*
X027876Y024948D01*
X027876Y024995D01*
X027690Y024995D01*
X027600Y024948D02*
X027554Y024995D01*
X027460Y024995D01*
X027413Y024948D01*
X027690Y024761D02*
X027690Y024715D01*
X028868Y024793D02*
X029008Y024793D01*
X029055Y024839D01*
X029055Y025026D01*
X029008Y025073D01*
X028868Y025073D01*
X028868Y024793D01*
X029145Y024793D02*
X029331Y024980D01*
X029331Y025026D01*
X029285Y025073D01*
X029191Y025073D01*
X029145Y025026D01*
X029145Y024793D02*
X029331Y024793D01*
X030248Y024774D02*
X030294Y024727D01*
X030388Y024727D01*
X030435Y024774D01*
X030524Y024727D02*
X030711Y024727D01*
X030617Y024727D02*
X030617Y025007D01*
X030524Y024914D01*
X030435Y024961D02*
X030388Y025007D01*
X030294Y025007D01*
X030248Y024961D01*
X030248Y024774D01*
X031538Y024761D02*
X031584Y024715D01*
X031678Y024715D01*
X031725Y024761D01*
X031814Y024761D02*
X031861Y024715D01*
X031954Y024715D01*
X032001Y024761D01*
X032001Y024855D01*
X031954Y024902D01*
X031907Y024902D01*
X031814Y024855D01*
X031814Y024995D01*
X032001Y024995D01*
X031725Y024948D02*
X031678Y024995D01*
X031584Y024995D01*
X031538Y024948D01*
X031538Y024761D01*
X032748Y024724D02*
X032794Y024677D01*
X032888Y024677D01*
X032935Y024724D01*
X033024Y024724D02*
X033071Y024677D01*
X033164Y024677D01*
X033211Y024724D01*
X033211Y024771D01*
X033164Y024817D01*
X033117Y024817D01*
X033164Y024817D02*
X033211Y024864D01*
X033211Y024911D01*
X033164Y024957D01*
X033071Y024957D01*
X033024Y024911D01*
X032935Y024911D02*
X032888Y024957D01*
X032794Y024957D01*
X032748Y024911D01*
X032748Y024724D01*
X033988Y024811D02*
X034034Y024765D01*
X034128Y024765D01*
X034175Y024811D01*
X034264Y024905D02*
X034451Y024905D01*
X034404Y025045D02*
X034264Y024905D01*
X034175Y024998D02*
X034128Y025045D01*
X034034Y025045D01*
X033988Y024998D01*
X033988Y024811D01*
X034404Y024765D02*
X034404Y025045D01*
X035285Y024948D02*
X035285Y024761D01*
X035332Y024715D01*
X035425Y024715D01*
X035472Y024761D01*
X035562Y024761D02*
X035562Y024808D01*
X035608Y024855D01*
X035702Y024855D01*
X035748Y024808D01*
X035748Y024761D01*
X035702Y024715D01*
X035608Y024715D01*
X035562Y024761D01*
X035608Y024855D02*
X035562Y024902D01*
X035562Y024948D01*
X035608Y024995D01*
X035702Y024995D01*
X035748Y024948D01*
X035748Y024902D01*
X035702Y024855D01*
X035472Y024948D02*
X035425Y024995D01*
X035332Y024995D01*
X035285Y024948D01*
X036585Y024948D02*
X036585Y024761D01*
X036632Y024715D01*
X036725Y024715D01*
X036772Y024761D01*
X036862Y024761D02*
X036862Y024715D01*
X036862Y024761D02*
X037048Y024948D01*
X037048Y024995D01*
X036862Y024995D01*
X036772Y024948D02*
X036725Y024995D01*
X036632Y024995D01*
X036585Y024948D01*
X036606Y026990D02*
X036606Y027036D01*
X036793Y027223D01*
X036793Y027270D01*
X036606Y027270D01*
X036424Y027270D02*
X036424Y026990D01*
X036517Y026990D02*
X036330Y026990D01*
X036241Y026990D02*
X036054Y026990D01*
X035965Y026990D02*
X035778Y026990D01*
X035688Y026990D02*
X035688Y027270D01*
X035595Y027177D01*
X035501Y027270D01*
X035501Y026990D01*
X035412Y026990D02*
X035225Y026990D01*
X035225Y027270D01*
X035778Y027177D02*
X035871Y027270D01*
X035871Y026990D01*
X036054Y027177D02*
X036147Y027270D01*
X036147Y026990D01*
X036330Y027177D02*
X036424Y027270D01*
X033801Y026465D02*
X033614Y026465D01*
X033525Y026465D02*
X033431Y026558D01*
X033478Y026558D02*
X033338Y026558D01*
X033338Y026465D02*
X033338Y026745D01*
X033478Y026745D01*
X033525Y026698D01*
X033525Y026605D01*
X033478Y026558D01*
X033614Y026652D02*
X033707Y026745D01*
X033707Y026465D01*
X032623Y026465D02*
X032437Y026465D01*
X032623Y026652D01*
X032623Y026698D01*
X032577Y026745D01*
X032483Y026745D01*
X032437Y026698D01*
X032347Y026698D02*
X032347Y026605D01*
X032300Y026558D01*
X032160Y026558D01*
X032160Y026465D02*
X032160Y026745D01*
X032300Y026745D01*
X032347Y026698D01*
X032254Y026558D02*
X032347Y026465D01*
X027621Y027223D02*
X027435Y027036D01*
X027435Y026990D01*
X027345Y026990D02*
X027158Y026990D01*
X027069Y026990D02*
X026882Y026990D01*
X026793Y026990D02*
X026606Y026990D01*
X026516Y026990D02*
X026516Y027270D01*
X026423Y027177D01*
X026330Y027270D01*
X026330Y026990D01*
X026240Y026990D02*
X026053Y026990D01*
X026053Y027270D01*
X026606Y027177D02*
X026699Y027270D01*
X026699Y026990D01*
X026882Y027177D02*
X026976Y027270D01*
X026976Y026990D01*
X027158Y027177D02*
X027252Y027270D01*
X027252Y026990D01*
X027435Y027270D02*
X027621Y027270D01*
X027621Y027223D01*
X024629Y026465D02*
X024442Y026465D01*
X024353Y026465D02*
X024259Y026558D01*
X024306Y026558D02*
X024166Y026558D01*
X024166Y026465D02*
X024166Y026745D01*
X024306Y026745D01*
X024353Y026698D01*
X024353Y026605D01*
X024306Y026558D01*
X024442Y026652D02*
X024536Y026745D01*
X024536Y026465D01*
X023451Y026465D02*
X023265Y026465D01*
X023451Y026652D01*
X023451Y026698D01*
X023405Y026745D01*
X023311Y026745D01*
X023265Y026698D01*
X023175Y026698D02*
X023175Y026605D01*
X023129Y026558D01*
X022988Y026558D01*
X022988Y026465D02*
X022988Y026745D01*
X023129Y026745D01*
X023175Y026698D01*
X023082Y026558D02*
X023175Y026465D01*
X018474Y027223D02*
X018287Y027036D01*
X018287Y026990D01*
X018198Y026990D02*
X018011Y026990D01*
X017921Y026990D02*
X017734Y026990D01*
X017645Y026990D02*
X017458Y026990D01*
X017369Y026990D02*
X017369Y027270D01*
X017275Y027177D01*
X017182Y027270D01*
X017182Y026990D01*
X017093Y026990D02*
X016906Y026990D01*
X016906Y027270D01*
X017458Y027177D02*
X017552Y027270D01*
X017552Y026990D01*
X017734Y027177D02*
X017828Y027270D01*
X017828Y026990D01*
X018011Y027177D02*
X018104Y027270D01*
X018104Y026990D01*
X018287Y027270D02*
X018474Y027270D01*
X018474Y027223D01*
X015481Y026465D02*
X015295Y026465D01*
X015205Y026465D02*
X015112Y026558D01*
X015158Y026558D02*
X015018Y026558D01*
X015018Y026465D02*
X015018Y026745D01*
X015158Y026745D01*
X015205Y026698D01*
X015205Y026605D01*
X015158Y026558D01*
X015295Y026652D02*
X015388Y026745D01*
X015388Y026465D01*
X014304Y026465D02*
X014117Y026465D01*
X014304Y026652D01*
X014304Y026698D01*
X014257Y026745D01*
X014164Y026745D01*
X014117Y026698D01*
X014028Y026698D02*
X014028Y026605D01*
X013981Y026558D01*
X013841Y026558D01*
X013934Y026558D02*
X014028Y026465D01*
X013841Y026465D02*
X013841Y026745D01*
X013981Y026745D01*
X014028Y026698D01*
X013585Y021995D02*
X013631Y021948D01*
X013631Y021902D01*
X013585Y021855D01*
X013631Y021808D01*
X013631Y021761D01*
X013585Y021715D01*
X013491Y021715D01*
X013445Y021761D01*
X013355Y021715D02*
X013262Y021808D01*
X013308Y021808D02*
X013168Y021808D01*
X013168Y021715D02*
X013168Y021995D01*
X013308Y021995D01*
X013355Y021948D01*
X013355Y021855D01*
X013308Y021808D01*
X013445Y021948D02*
X013491Y021995D01*
X013585Y021995D01*
X013585Y021855D02*
X013538Y021855D01*
X014518Y021808D02*
X014658Y021808D01*
X014705Y021855D01*
X014705Y021948D01*
X014658Y021995D01*
X014518Y021995D01*
X014518Y021715D01*
X014612Y021808D02*
X014705Y021715D01*
X014795Y021855D02*
X014981Y021855D01*
X014935Y021995D02*
X014795Y021855D01*
X014935Y021715D02*
X014935Y021995D01*
X015618Y021995D02*
X015618Y021715D01*
X015618Y021808D02*
X015758Y021808D01*
X015805Y021855D01*
X015805Y021948D01*
X015758Y021995D01*
X015618Y021995D01*
X015712Y021808D02*
X015805Y021715D01*
X015895Y021761D02*
X015941Y021715D01*
X016035Y021715D01*
X016081Y021761D01*
X016081Y021855D01*
X016035Y021902D01*
X015988Y021902D01*
X015895Y021855D01*
X015895Y021995D01*
X016081Y021995D01*
X017118Y021898D02*
X017118Y021711D01*
X017165Y021665D01*
X017258Y021665D01*
X017305Y021711D01*
X017395Y021665D02*
X017581Y021852D01*
X017581Y021898D01*
X017535Y021945D01*
X017441Y021945D01*
X017395Y021898D01*
X017305Y021898D02*
X017258Y021945D01*
X017165Y021945D01*
X017118Y021898D01*
X017395Y021665D02*
X017581Y021665D01*
X021116Y021686D02*
X021163Y021640D01*
X021256Y021640D01*
X021303Y021686D01*
X021392Y021686D02*
X021439Y021640D01*
X021532Y021640D01*
X021579Y021686D01*
X021579Y021733D01*
X021532Y021780D01*
X021392Y021780D01*
X021392Y021686D01*
X021392Y021780D02*
X021486Y021873D01*
X021579Y021920D01*
X021303Y021873D02*
X021256Y021920D01*
X021163Y021920D01*
X021116Y021873D01*
X021116Y021686D01*
X021379Y021099D02*
X021342Y021062D01*
X021342Y020915D01*
X021379Y020879D01*
X021452Y020879D01*
X021489Y020915D01*
X021489Y020989D01*
X021416Y020989D01*
X021489Y021062D02*
X021452Y021099D01*
X021379Y021099D01*
X021563Y021099D02*
X021710Y020879D01*
X021710Y021099D01*
X021784Y021099D02*
X021894Y021099D01*
X021931Y021062D01*
X021931Y020915D01*
X021894Y020879D01*
X021784Y020879D01*
X021784Y021099D01*
X021563Y021099D02*
X021563Y020879D01*
X022316Y021715D02*
X022316Y021995D01*
X022456Y021995D01*
X022503Y021948D01*
X022503Y021855D01*
X022456Y021808D01*
X022316Y021808D01*
X022409Y021808D02*
X022503Y021715D01*
X022592Y021761D02*
X022639Y021715D01*
X022732Y021715D01*
X022779Y021761D01*
X022779Y021808D01*
X022732Y021855D01*
X022686Y021855D01*
X022732Y021855D02*
X022779Y021902D01*
X022779Y021948D01*
X022732Y021995D01*
X022639Y021995D01*
X022592Y021948D01*
X023666Y021995D02*
X023666Y021715D01*
X023666Y021808D02*
X023806Y021808D01*
X023853Y021855D01*
X023853Y021948D01*
X023806Y021995D01*
X023666Y021995D01*
X023759Y021808D02*
X023853Y021715D01*
X023942Y021855D02*
X024129Y021855D01*
X024082Y021995D02*
X023942Y021855D01*
X024082Y021715D02*
X024082Y021995D01*
X024766Y021995D02*
X024766Y021715D01*
X024766Y021808D02*
X024906Y021808D01*
X024953Y021855D01*
X024953Y021948D01*
X024906Y021995D01*
X024766Y021995D01*
X024859Y021808D02*
X024953Y021715D01*
X025042Y021761D02*
X025089Y021715D01*
X025182Y021715D01*
X025229Y021761D01*
X025229Y021855D01*
X025182Y021902D01*
X025136Y021902D01*
X025042Y021855D01*
X025042Y021995D01*
X025229Y021995D01*
X026266Y021898D02*
X026266Y021711D01*
X026313Y021665D01*
X026406Y021665D01*
X026453Y021711D01*
X026542Y021665D02*
X026729Y021852D01*
X026729Y021898D01*
X026682Y021945D01*
X026589Y021945D01*
X026542Y021898D01*
X026453Y021898D02*
X026406Y021945D01*
X026313Y021945D01*
X026266Y021898D01*
X026542Y021665D02*
X026729Y021665D01*
X030288Y021686D02*
X030334Y021640D01*
X030428Y021640D01*
X030475Y021686D01*
X030564Y021686D02*
X030611Y021640D01*
X030704Y021640D01*
X030751Y021686D01*
X030751Y021733D01*
X030704Y021780D01*
X030564Y021780D01*
X030564Y021686D01*
X030564Y021780D02*
X030657Y021873D01*
X030751Y021920D01*
X030475Y021873D02*
X030428Y021920D01*
X030334Y021920D01*
X030288Y021873D01*
X030288Y021686D01*
X030551Y021099D02*
X030514Y021062D01*
X030514Y020915D01*
X030551Y020879D01*
X030624Y020879D01*
X030661Y020915D01*
X030661Y020989D01*
X030588Y020989D01*
X030661Y021062D02*
X030624Y021099D01*
X030551Y021099D01*
X030735Y021099D02*
X030882Y020879D01*
X030882Y021099D01*
X030956Y021099D02*
X031066Y021099D01*
X031103Y021062D01*
X031103Y020915D01*
X031066Y020879D01*
X030956Y020879D01*
X030956Y021099D01*
X030735Y021099D02*
X030735Y020879D01*
X031488Y021715D02*
X031488Y021995D01*
X031628Y021995D01*
X031675Y021948D01*
X031675Y021855D01*
X031628Y021808D01*
X031488Y021808D01*
X031581Y021808D02*
X031675Y021715D01*
X031764Y021761D02*
X031811Y021715D01*
X031904Y021715D01*
X031951Y021761D01*
X031951Y021808D01*
X031904Y021855D01*
X031857Y021855D01*
X031904Y021855D02*
X031951Y021902D01*
X031951Y021948D01*
X031904Y021995D01*
X031811Y021995D01*
X031764Y021948D01*
X032838Y021995D02*
X032838Y021715D01*
X032838Y021808D02*
X032978Y021808D01*
X033025Y021855D01*
X033025Y021948D01*
X032978Y021995D01*
X032838Y021995D01*
X032931Y021808D02*
X033025Y021715D01*
X033114Y021855D02*
X033301Y021855D01*
X033254Y021995D02*
X033114Y021855D01*
X033254Y021715D02*
X033254Y021995D01*
X033938Y021995D02*
X033938Y021715D01*
X033938Y021808D02*
X034078Y021808D01*
X034125Y021855D01*
X034125Y021948D01*
X034078Y021995D01*
X033938Y021995D01*
X034031Y021808D02*
X034125Y021715D01*
X034214Y021761D02*
X034261Y021715D01*
X034354Y021715D01*
X034401Y021761D01*
X034401Y021855D01*
X034354Y021902D01*
X034307Y021902D01*
X034214Y021855D01*
X034214Y021995D01*
X034401Y021995D01*
X035438Y021898D02*
X035438Y021711D01*
X035484Y021665D01*
X035578Y021665D01*
X035625Y021711D01*
X035714Y021665D02*
X035901Y021852D01*
X035901Y021898D01*
X035854Y021945D01*
X035761Y021945D01*
X035714Y021898D01*
X035625Y021898D02*
X035578Y021945D01*
X035484Y021945D01*
X035438Y021898D01*
X035714Y021665D02*
X035901Y021665D01*
X035871Y013126D02*
X035871Y012846D01*
X035778Y012846D02*
X035965Y012846D01*
X036054Y012846D02*
X036241Y012846D01*
X036330Y012846D02*
X036517Y012846D01*
X036606Y012846D02*
X036606Y012893D01*
X036793Y013080D01*
X036793Y013126D01*
X036606Y013126D01*
X036424Y013126D02*
X036424Y012846D01*
X036330Y013033D02*
X036424Y013126D01*
X036147Y013126D02*
X036147Y012846D01*
X036054Y013033D02*
X036147Y013126D01*
X035871Y013126D02*
X035778Y013033D01*
X035688Y013126D02*
X035688Y012846D01*
X035501Y012846D02*
X035501Y013126D01*
X035595Y013033D01*
X035688Y013126D01*
X035412Y012846D02*
X035225Y012846D01*
X035225Y013126D01*
X033707Y012601D02*
X033707Y012321D01*
X033614Y012321D02*
X033801Y012321D01*
X033614Y012508D02*
X033707Y012601D01*
X033525Y012555D02*
X033525Y012461D01*
X033478Y012414D01*
X033338Y012414D01*
X033338Y012321D02*
X033338Y012601D01*
X033478Y012601D01*
X033525Y012555D01*
X033431Y012414D02*
X033525Y012321D01*
X032623Y012321D02*
X032437Y012321D01*
X032623Y012508D01*
X032623Y012555D01*
X032577Y012601D01*
X032483Y012601D01*
X032437Y012555D01*
X032347Y012555D02*
X032347Y012461D01*
X032300Y012414D01*
X032160Y012414D01*
X032160Y012321D02*
X032160Y012601D01*
X032300Y012601D01*
X032347Y012555D01*
X032254Y012414D02*
X032347Y012321D01*
X033988Y010855D02*
X034034Y010901D01*
X034128Y010901D01*
X034175Y010855D01*
X034264Y010761D02*
X034404Y010901D01*
X034404Y010621D01*
X034451Y010761D02*
X034264Y010761D01*
X034175Y010668D02*
X034128Y010621D01*
X034034Y010621D01*
X033988Y010668D01*
X033988Y010855D01*
X033211Y010767D02*
X033211Y010720D01*
X033164Y010674D01*
X033211Y010627D01*
X033211Y010580D01*
X033164Y010534D01*
X033071Y010534D01*
X033024Y010580D01*
X032935Y010580D02*
X032888Y010534D01*
X032794Y010534D01*
X032748Y010580D01*
X032748Y010767D01*
X032794Y010814D01*
X032888Y010814D01*
X032935Y010767D01*
X033024Y010767D02*
X033071Y010814D01*
X033164Y010814D01*
X033211Y010767D01*
X033164Y010674D02*
X033117Y010674D01*
X032001Y010711D02*
X032001Y010618D01*
X031954Y010571D01*
X031861Y010571D01*
X031814Y010618D01*
X031725Y010618D02*
X031678Y010571D01*
X031584Y010571D01*
X031538Y010618D01*
X031538Y010805D01*
X031584Y010851D01*
X031678Y010851D01*
X031725Y010805D01*
X031814Y010851D02*
X031814Y010711D01*
X031907Y010758D01*
X031954Y010758D01*
X032001Y010711D01*
X032001Y010851D02*
X031814Y010851D01*
X030711Y010584D02*
X030524Y010584D01*
X030617Y010584D02*
X030617Y010864D01*
X030524Y010770D01*
X030435Y010817D02*
X030388Y010864D01*
X030294Y010864D01*
X030248Y010817D01*
X030248Y010630D01*
X030294Y010584D01*
X030388Y010584D01*
X030435Y010630D01*
X029331Y010649D02*
X029145Y010649D01*
X029331Y010836D01*
X029331Y010883D01*
X029285Y010929D01*
X029191Y010929D01*
X029145Y010883D01*
X029055Y010883D02*
X029008Y010929D01*
X028868Y010929D01*
X028868Y010649D01*
X029008Y010649D01*
X029055Y010696D01*
X029055Y010883D01*
X027876Y010851D02*
X027876Y010805D01*
X027690Y010618D01*
X027690Y010571D01*
X027600Y010618D02*
X027554Y010571D01*
X027460Y010571D01*
X027413Y010618D01*
X027413Y010805D01*
X027460Y010851D01*
X027554Y010851D01*
X027600Y010805D01*
X027690Y010851D02*
X027876Y010851D01*
X026576Y010805D02*
X026576Y010758D01*
X026530Y010711D01*
X026576Y010664D01*
X026576Y010618D01*
X026530Y010571D01*
X026436Y010571D01*
X026390Y010618D01*
X026390Y010664D01*
X026436Y010711D01*
X026530Y010711D01*
X026436Y010711D02*
X026390Y010758D01*
X026390Y010805D01*
X026436Y010851D01*
X026530Y010851D01*
X026576Y010805D01*
X026300Y010805D02*
X026254Y010851D01*
X026160Y010851D01*
X026113Y010805D01*
X026113Y010618D01*
X026160Y010571D01*
X026254Y010571D01*
X026300Y010618D01*
X025279Y010761D02*
X025092Y010761D01*
X025232Y010901D01*
X025232Y010621D01*
X025003Y010668D02*
X024956Y010621D01*
X024863Y010621D01*
X024816Y010668D01*
X024816Y010855D01*
X024863Y010901D01*
X024956Y010901D01*
X025003Y010855D01*
X024039Y010767D02*
X024039Y010720D01*
X023992Y010674D01*
X024039Y010627D01*
X024039Y010580D01*
X023992Y010534D01*
X023899Y010534D01*
X023852Y010580D01*
X023763Y010580D02*
X023716Y010534D01*
X023623Y010534D01*
X023576Y010580D01*
X023576Y010767D01*
X023623Y010814D01*
X023716Y010814D01*
X023763Y010767D01*
X023852Y010767D02*
X023899Y010814D01*
X023992Y010814D01*
X024039Y010767D01*
X023992Y010674D02*
X023946Y010674D01*
X022829Y010711D02*
X022829Y010618D01*
X022782Y010571D01*
X022689Y010571D01*
X022642Y010618D01*
X022553Y010618D02*
X022506Y010571D01*
X022413Y010571D01*
X022366Y010618D01*
X022366Y010805D01*
X022413Y010851D01*
X022506Y010851D01*
X022553Y010805D01*
X022642Y010851D02*
X022642Y010711D01*
X022736Y010758D01*
X022782Y010758D01*
X022829Y010711D01*
X022829Y010851D02*
X022642Y010851D01*
X021539Y010584D02*
X021352Y010584D01*
X021446Y010584D02*
X021446Y010864D01*
X021352Y010770D01*
X021263Y010817D02*
X021216Y010864D01*
X021123Y010864D01*
X021076Y010817D01*
X021076Y010630D01*
X021123Y010584D01*
X021216Y010584D01*
X021263Y010630D01*
X020160Y010649D02*
X019973Y010649D01*
X020160Y010836D01*
X020160Y010883D01*
X020113Y010929D01*
X020019Y010929D01*
X019973Y010883D01*
X019883Y010883D02*
X019837Y010929D01*
X019697Y010929D01*
X019697Y010649D01*
X019837Y010649D01*
X019883Y010696D01*
X019883Y010883D01*
X018729Y010851D02*
X018729Y010805D01*
X018542Y010618D01*
X018542Y010571D01*
X018453Y010618D02*
X018406Y010571D01*
X018313Y010571D01*
X018266Y010618D01*
X018266Y010805D01*
X018313Y010851D01*
X018406Y010851D01*
X018453Y010805D01*
X018542Y010851D02*
X018729Y010851D01*
X017429Y010805D02*
X017429Y010758D01*
X017382Y010711D01*
X017289Y010711D01*
X017242Y010758D01*
X017242Y010805D01*
X017289Y010851D01*
X017382Y010851D01*
X017429Y010805D01*
X017382Y010711D02*
X017429Y010664D01*
X017429Y010618D01*
X017382Y010571D01*
X017289Y010571D01*
X017242Y010618D01*
X017242Y010664D01*
X017289Y010711D01*
X017153Y010618D02*
X017106Y010571D01*
X017013Y010571D01*
X016966Y010618D01*
X016966Y010805D01*
X017013Y010851D01*
X017106Y010851D01*
X017153Y010805D01*
X016131Y010761D02*
X015945Y010761D01*
X016085Y010901D01*
X016085Y010621D01*
X015855Y010668D02*
X015808Y010621D01*
X015715Y010621D01*
X015668Y010668D01*
X015668Y010855D01*
X015715Y010901D01*
X015808Y010901D01*
X015855Y010855D01*
X014891Y010767D02*
X014891Y010720D01*
X014845Y010674D01*
X014891Y010627D01*
X014891Y010580D01*
X014845Y010534D01*
X014751Y010534D01*
X014705Y010580D01*
X014615Y010580D02*
X014568Y010534D01*
X014475Y010534D01*
X014428Y010580D01*
X014428Y010767D01*
X014475Y010814D01*
X014568Y010814D01*
X014615Y010767D01*
X014705Y010767D02*
X014751Y010814D01*
X014845Y010814D01*
X014891Y010767D01*
X014845Y010674D02*
X014798Y010674D01*
X013681Y010711D02*
X013681Y010618D01*
X013635Y010571D01*
X013541Y010571D01*
X013495Y010618D01*
X013405Y010618D02*
X013358Y010571D01*
X013265Y010571D01*
X013218Y010618D01*
X013218Y010805D01*
X013265Y010851D01*
X013358Y010851D01*
X013405Y010805D01*
X013495Y010851D02*
X013495Y010711D01*
X013588Y010758D01*
X013635Y010758D01*
X013681Y010711D01*
X013681Y010851D02*
X013495Y010851D01*
X012391Y010584D02*
X012205Y010584D01*
X012298Y010584D02*
X012298Y010864D01*
X012205Y010770D01*
X012115Y010817D02*
X012068Y010864D01*
X011975Y010864D01*
X011928Y010817D01*
X011928Y010630D01*
X011975Y010584D01*
X012068Y010584D01*
X012115Y010630D01*
X011012Y010649D02*
X010825Y010649D01*
X011012Y010836D01*
X011012Y010883D01*
X010965Y010929D01*
X010872Y010929D01*
X010825Y010883D01*
X010736Y010883D02*
X010736Y010696D01*
X010689Y010649D01*
X010549Y010649D01*
X010549Y010929D01*
X010689Y010929D01*
X010736Y010883D01*
X009552Y010851D02*
X009552Y010805D01*
X009365Y010618D01*
X009365Y010571D01*
X009275Y010618D02*
X009229Y010571D01*
X009135Y010571D01*
X009089Y010618D01*
X009089Y010805D01*
X009135Y010851D01*
X009229Y010851D01*
X009275Y010805D01*
X009365Y010851D02*
X009552Y010851D01*
X008252Y010805D02*
X008252Y010758D01*
X008205Y010711D01*
X008112Y010711D01*
X008065Y010758D01*
X008065Y010805D01*
X008112Y010851D01*
X008205Y010851D01*
X008252Y010805D01*
X008205Y010711D02*
X008252Y010664D01*
X008252Y010618D01*
X008205Y010571D01*
X008112Y010571D01*
X008065Y010618D01*
X008065Y010664D01*
X008112Y010711D01*
X007975Y010618D02*
X007929Y010571D01*
X007835Y010571D01*
X007789Y010618D01*
X007789Y010805D01*
X007835Y010851D01*
X007929Y010851D01*
X007975Y010805D01*
X006954Y010761D02*
X006767Y010761D01*
X006907Y010901D01*
X006907Y010621D01*
X006678Y010668D02*
X006631Y010621D01*
X006538Y010621D01*
X006491Y010668D01*
X006491Y010855D01*
X006538Y010901D01*
X006631Y010901D01*
X006678Y010855D01*
X005714Y010767D02*
X005714Y010720D01*
X005667Y010674D01*
X005714Y010627D01*
X005714Y010580D01*
X005667Y010534D01*
X005574Y010534D01*
X005527Y010580D01*
X005438Y010580D02*
X005391Y010534D01*
X005298Y010534D01*
X005251Y010580D01*
X005251Y010767D01*
X005298Y010814D01*
X005391Y010814D01*
X005438Y010767D01*
X005527Y010767D02*
X005574Y010814D01*
X005667Y010814D01*
X005714Y010767D01*
X005667Y010674D02*
X005621Y010674D01*
X004504Y010711D02*
X004504Y010618D01*
X004457Y010571D01*
X004364Y010571D01*
X004317Y010618D01*
X004228Y010618D02*
X004181Y010571D01*
X004088Y010571D01*
X004041Y010618D01*
X004041Y010805D01*
X004088Y010851D01*
X004181Y010851D01*
X004228Y010805D01*
X004317Y010851D02*
X004317Y010711D01*
X004411Y010758D01*
X004457Y010758D01*
X004504Y010711D01*
X004504Y010851D02*
X004317Y010851D01*
X003214Y010584D02*
X003027Y010584D01*
X003121Y010584D02*
X003121Y010864D01*
X003027Y010770D01*
X002938Y010817D02*
X002891Y010864D01*
X002798Y010864D01*
X002751Y010817D01*
X002751Y010630D01*
X002798Y010584D01*
X002891Y010584D01*
X002938Y010630D01*
X001835Y010649D02*
X001648Y010649D01*
X001835Y010836D01*
X001835Y010883D01*
X001788Y010929D01*
X001695Y010929D01*
X001648Y010883D01*
X001559Y010883D02*
X001512Y010929D01*
X001372Y010929D01*
X001372Y010649D01*
X001512Y010649D01*
X001559Y010696D01*
X001559Y010883D01*
X004664Y012321D02*
X004664Y012601D01*
X004804Y012601D01*
X004850Y012555D01*
X004850Y012461D01*
X004804Y012414D01*
X004664Y012414D01*
X004757Y012414D02*
X004850Y012321D01*
X004940Y012321D02*
X005127Y012508D01*
X005127Y012555D01*
X005080Y012601D01*
X004987Y012601D01*
X004940Y012555D01*
X004940Y012321D02*
X005127Y012321D01*
X005841Y012321D02*
X005841Y012601D01*
X005981Y012601D01*
X006028Y012555D01*
X006028Y012461D01*
X005981Y012414D01*
X005841Y012414D01*
X005935Y012414D02*
X006028Y012321D01*
X006117Y012321D02*
X006304Y012321D01*
X006211Y012321D02*
X006211Y012601D01*
X006117Y012508D01*
X007729Y012846D02*
X007915Y012846D01*
X008005Y012846D02*
X008005Y013126D01*
X008098Y013033D01*
X008192Y013126D01*
X008192Y012846D01*
X008281Y012846D02*
X008468Y012846D01*
X008557Y012846D02*
X008744Y012846D01*
X008834Y012846D02*
X009020Y012846D01*
X009110Y012846D02*
X009110Y012893D01*
X009297Y013080D01*
X009297Y013126D01*
X009110Y013126D01*
X008927Y013126D02*
X008927Y012846D01*
X008834Y013033D02*
X008927Y013126D01*
X008651Y013126D02*
X008651Y012846D01*
X008557Y013033D02*
X008651Y013126D01*
X008374Y013126D02*
X008374Y012846D01*
X008281Y013033D02*
X008374Y013126D01*
X007729Y013126D02*
X007729Y012846D01*
X013841Y012601D02*
X013841Y012321D01*
X013841Y012414D02*
X013981Y012414D01*
X014028Y012461D01*
X014028Y012555D01*
X013981Y012601D01*
X013841Y012601D01*
X013934Y012414D02*
X014028Y012321D01*
X014117Y012321D02*
X014304Y012508D01*
X014304Y012555D01*
X014257Y012601D01*
X014164Y012601D01*
X014117Y012555D01*
X014117Y012321D02*
X014304Y012321D01*
X015018Y012321D02*
X015018Y012601D01*
X015158Y012601D01*
X015205Y012555D01*
X015205Y012461D01*
X015158Y012414D01*
X015018Y012414D01*
X015112Y012414D02*
X015205Y012321D01*
X015295Y012321D02*
X015481Y012321D01*
X015388Y012321D02*
X015388Y012601D01*
X015295Y012508D01*
X016906Y012846D02*
X017093Y012846D01*
X017182Y012846D02*
X017182Y013126D01*
X017275Y013033D01*
X017369Y013126D01*
X017369Y012846D01*
X017458Y012846D02*
X017645Y012846D01*
X017734Y012846D02*
X017921Y012846D01*
X018011Y012846D02*
X018198Y012846D01*
X018287Y012846D02*
X018287Y012893D01*
X018474Y013080D01*
X018474Y013126D01*
X018287Y013126D01*
X018104Y013126D02*
X018104Y012846D01*
X018011Y013033D02*
X018104Y013126D01*
X017828Y013126D02*
X017828Y012846D01*
X017734Y013033D02*
X017828Y013126D01*
X017552Y013126D02*
X017552Y012846D01*
X017458Y013033D02*
X017552Y013126D01*
X016906Y013126D02*
X016906Y012846D01*
X022988Y012601D02*
X022988Y012321D01*
X022988Y012414D02*
X023129Y012414D01*
X023175Y012461D01*
X023175Y012555D01*
X023129Y012601D01*
X022988Y012601D01*
X023082Y012414D02*
X023175Y012321D01*
X023265Y012321D02*
X023451Y012508D01*
X023451Y012555D01*
X023405Y012601D01*
X023311Y012601D01*
X023265Y012555D01*
X023265Y012321D02*
X023451Y012321D01*
X024166Y012321D02*
X024166Y012601D01*
X024306Y012601D01*
X024353Y012555D01*
X024353Y012461D01*
X024306Y012414D01*
X024166Y012414D01*
X024259Y012414D02*
X024353Y012321D01*
X024442Y012321D02*
X024629Y012321D01*
X024536Y012321D02*
X024536Y012601D01*
X024442Y012508D01*
X026053Y012846D02*
X026240Y012846D01*
X026330Y012846D02*
X026330Y013126D01*
X026423Y013033D01*
X026516Y013126D01*
X026516Y012846D01*
X026606Y012846D02*
X026793Y012846D01*
X026882Y012846D02*
X027069Y012846D01*
X027158Y012846D02*
X027345Y012846D01*
X027435Y012846D02*
X027435Y012893D01*
X027621Y013080D01*
X027621Y013126D01*
X027435Y013126D01*
X027252Y013126D02*
X027252Y012846D01*
X027158Y013033D02*
X027252Y013126D01*
X026976Y013126D02*
X026976Y012846D01*
X026882Y013033D02*
X026976Y013126D01*
X026699Y013126D02*
X026699Y012846D01*
X026606Y013033D02*
X026699Y013126D01*
X026053Y013126D02*
X026053Y012846D01*
X026313Y007801D02*
X026266Y007755D01*
X026266Y007568D01*
X026313Y007521D01*
X026406Y007521D01*
X026453Y007568D01*
X026542Y007521D02*
X026729Y007708D01*
X026729Y007755D01*
X026682Y007801D01*
X026589Y007801D01*
X026542Y007755D01*
X026453Y007755D02*
X026406Y007801D01*
X026313Y007801D01*
X026542Y007521D02*
X026729Y007521D01*
X025229Y007618D02*
X025182Y007571D01*
X025089Y007571D01*
X025042Y007618D01*
X025042Y007711D02*
X025136Y007758D01*
X025182Y007758D01*
X025229Y007711D01*
X025229Y007618D01*
X025042Y007711D02*
X025042Y007851D01*
X025229Y007851D01*
X024953Y007805D02*
X024953Y007711D01*
X024906Y007664D01*
X024766Y007664D01*
X024766Y007571D02*
X024766Y007851D01*
X024906Y007851D01*
X024953Y007805D01*
X024859Y007664D02*
X024953Y007571D01*
X024129Y007711D02*
X023942Y007711D01*
X024082Y007851D01*
X024082Y007571D01*
X023853Y007571D02*
X023759Y007664D01*
X023806Y007664D02*
X023666Y007664D01*
X023666Y007571D02*
X023666Y007851D01*
X023806Y007851D01*
X023853Y007805D01*
X023853Y007711D01*
X023806Y007664D01*
X022779Y007664D02*
X022779Y007618D01*
X022732Y007571D01*
X022639Y007571D01*
X022592Y007618D01*
X022503Y007571D02*
X022409Y007664D01*
X022456Y007664D02*
X022316Y007664D01*
X022316Y007571D02*
X022316Y007851D01*
X022456Y007851D01*
X022503Y007805D01*
X022503Y007711D01*
X022456Y007664D01*
X022592Y007805D02*
X022639Y007851D01*
X022732Y007851D01*
X022779Y007805D01*
X022779Y007758D01*
X022732Y007711D01*
X022779Y007664D01*
X022732Y007711D02*
X022686Y007711D01*
X021931Y006918D02*
X021894Y006955D01*
X021784Y006955D01*
X021784Y006735D01*
X021894Y006735D01*
X021931Y006772D01*
X021931Y006918D01*
X021710Y006955D02*
X021710Y006735D01*
X021563Y006955D01*
X021563Y006735D01*
X021489Y006772D02*
X021489Y006845D01*
X021416Y006845D01*
X021489Y006772D02*
X021452Y006735D01*
X021379Y006735D01*
X021342Y006772D01*
X021342Y006918D01*
X021379Y006955D01*
X021452Y006955D01*
X021489Y006918D01*
X021532Y007496D02*
X021439Y007496D01*
X021392Y007543D01*
X021392Y007636D01*
X021532Y007636D01*
X021579Y007589D01*
X021579Y007543D01*
X021532Y007496D01*
X021392Y007636D02*
X021486Y007730D01*
X021579Y007776D01*
X021303Y007730D02*
X021256Y007776D01*
X021163Y007776D01*
X021116Y007730D01*
X021116Y007543D01*
X021163Y007496D01*
X021256Y007496D01*
X021303Y007543D01*
X017581Y007521D02*
X017395Y007521D01*
X017581Y007708D01*
X017581Y007755D01*
X017535Y007801D01*
X017441Y007801D01*
X017395Y007755D01*
X017305Y007755D02*
X017258Y007801D01*
X017165Y007801D01*
X017118Y007755D01*
X017118Y007568D01*
X017165Y007521D01*
X017258Y007521D01*
X017305Y007568D01*
X016081Y007618D02*
X016035Y007571D01*
X015941Y007571D01*
X015895Y007618D01*
X015895Y007711D02*
X015988Y007758D01*
X016035Y007758D01*
X016081Y007711D01*
X016081Y007618D01*
X015895Y007711D02*
X015895Y007851D01*
X016081Y007851D01*
X015805Y007805D02*
X015805Y007711D01*
X015758Y007664D01*
X015618Y007664D01*
X015618Y007571D02*
X015618Y007851D01*
X015758Y007851D01*
X015805Y007805D01*
X015712Y007664D02*
X015805Y007571D01*
X014981Y007711D02*
X014795Y007711D01*
X014935Y007851D01*
X014935Y007571D01*
X014705Y007571D02*
X014612Y007664D01*
X014658Y007664D02*
X014518Y007664D01*
X014518Y007571D02*
X014518Y007851D01*
X014658Y007851D01*
X014705Y007805D01*
X014705Y007711D01*
X014658Y007664D01*
X013631Y007664D02*
X013631Y007618D01*
X013585Y007571D01*
X013491Y007571D01*
X013445Y007618D01*
X013355Y007571D02*
X013262Y007664D01*
X013308Y007664D02*
X013168Y007664D01*
X013168Y007571D02*
X013168Y007851D01*
X013308Y007851D01*
X013355Y007805D01*
X013355Y007711D01*
X013308Y007664D01*
X013445Y007805D02*
X013491Y007851D01*
X013585Y007851D01*
X013631Y007805D01*
X013631Y007758D01*
X013585Y007711D01*
X013631Y007664D01*
X013585Y007711D02*
X013538Y007711D01*
X012747Y006955D02*
X012637Y006955D01*
X012637Y006735D01*
X012747Y006735D01*
X012783Y006772D01*
X012783Y006918D01*
X012747Y006955D01*
X012562Y006955D02*
X012562Y006735D01*
X012416Y006955D01*
X012416Y006735D01*
X012341Y006772D02*
X012341Y006845D01*
X012268Y006845D01*
X012195Y006772D02*
X012231Y006735D01*
X012305Y006735D01*
X012341Y006772D01*
X012195Y006772D02*
X012195Y006918D01*
X012231Y006955D01*
X012305Y006955D01*
X012341Y006918D01*
X012385Y007496D02*
X012291Y007496D01*
X012245Y007543D01*
X012245Y007636D01*
X012385Y007636D01*
X012431Y007589D01*
X012431Y007543D01*
X012385Y007496D01*
X012245Y007636D02*
X012338Y007730D01*
X012431Y007776D01*
X012155Y007730D02*
X012108Y007776D01*
X012015Y007776D01*
X011968Y007730D01*
X011968Y007543D01*
X012015Y007496D01*
X012108Y007496D01*
X012155Y007543D01*
X008404Y007521D02*
X008217Y007521D01*
X008404Y007708D01*
X008404Y007755D01*
X008357Y007801D01*
X008264Y007801D01*
X008217Y007755D01*
X008128Y007755D02*
X008081Y007801D01*
X007988Y007801D01*
X007941Y007755D01*
X007941Y007568D01*
X007988Y007521D01*
X008081Y007521D01*
X008128Y007568D01*
X006904Y007618D02*
X006857Y007571D01*
X006764Y007571D01*
X006717Y007618D01*
X006717Y007711D02*
X006811Y007758D01*
X006857Y007758D01*
X006904Y007711D01*
X006904Y007618D01*
X006717Y007711D02*
X006717Y007851D01*
X006904Y007851D01*
X006628Y007805D02*
X006628Y007711D01*
X006581Y007664D01*
X006441Y007664D01*
X006441Y007571D02*
X006441Y007851D01*
X006581Y007851D01*
X006628Y007805D01*
X006535Y007664D02*
X006628Y007571D01*
X005804Y007711D02*
X005617Y007711D01*
X005757Y007851D01*
X005757Y007571D01*
X005528Y007571D02*
X005435Y007664D01*
X005481Y007664D02*
X005341Y007664D01*
X005341Y007571D02*
X005341Y007851D01*
X005481Y007851D01*
X005528Y007805D01*
X005528Y007711D01*
X005481Y007664D01*
X004454Y007664D02*
X004454Y007618D01*
X004407Y007571D01*
X004314Y007571D01*
X004267Y007618D01*
X004178Y007571D02*
X004085Y007664D01*
X004131Y007664D02*
X003991Y007664D01*
X003991Y007571D02*
X003991Y007851D01*
X004131Y007851D01*
X004178Y007805D01*
X004178Y007711D01*
X004131Y007664D01*
X004267Y007805D02*
X004314Y007851D01*
X004407Y007851D01*
X004454Y007805D01*
X004454Y007758D01*
X004407Y007711D01*
X004454Y007664D01*
X004407Y007711D02*
X004361Y007711D01*
X003570Y006955D02*
X003459Y006955D01*
X003459Y006735D01*
X003570Y006735D01*
X003606Y006772D01*
X003606Y006918D01*
X003570Y006955D01*
X003385Y006955D02*
X003385Y006735D01*
X003238Y006955D01*
X003238Y006735D01*
X003164Y006772D02*
X003164Y006845D01*
X003091Y006845D01*
X003164Y006772D02*
X003128Y006735D01*
X003054Y006735D01*
X003018Y006772D01*
X003018Y006918D01*
X003054Y006955D01*
X003128Y006955D01*
X003164Y006918D01*
X003207Y007496D02*
X003254Y007543D01*
X003254Y007589D01*
X003207Y007636D01*
X003067Y007636D01*
X003067Y007543D01*
X003114Y007496D01*
X003207Y007496D01*
X003067Y007636D02*
X003161Y007730D01*
X003254Y007776D01*
X002978Y007730D02*
X002931Y007776D01*
X002838Y007776D01*
X002791Y007730D01*
X002791Y007543D01*
X002838Y007496D01*
X002931Y007496D01*
X002978Y007543D01*
X012231Y020879D02*
X012305Y020879D01*
X012341Y020915D01*
X012341Y020989D01*
X012268Y020989D01*
X012195Y021062D02*
X012195Y020915D01*
X012231Y020879D01*
X012416Y020879D02*
X012416Y021099D01*
X012562Y020879D01*
X012562Y021099D01*
X012637Y021099D02*
X012747Y021099D01*
X012783Y021062D01*
X012783Y020915D01*
X012747Y020879D01*
X012637Y020879D01*
X012637Y021099D01*
X012341Y021062D02*
X012305Y021099D01*
X012231Y021099D01*
X012195Y021062D01*
X012108Y021640D02*
X012155Y021686D01*
X012108Y021640D02*
X012015Y021640D01*
X011968Y021686D01*
X011968Y021873D01*
X012015Y021920D01*
X012108Y021920D01*
X012155Y021873D01*
X012245Y021780D02*
X012385Y021780D01*
X012431Y021733D01*
X012431Y021686D01*
X012385Y021640D01*
X012291Y021640D01*
X012245Y021686D01*
X012245Y021780D01*
X012338Y021873D01*
X012431Y021920D01*
X030288Y007730D02*
X030288Y007543D01*
X030334Y007496D01*
X030428Y007496D01*
X030475Y007543D01*
X030564Y007543D02*
X030611Y007496D01*
X030704Y007496D01*
X030751Y007543D01*
X030751Y007589D01*
X030704Y007636D01*
X030564Y007636D01*
X030564Y007543D01*
X030564Y007636D02*
X030657Y007730D01*
X030751Y007776D01*
X030475Y007730D02*
X030428Y007776D01*
X030334Y007776D01*
X030288Y007730D01*
X030551Y006955D02*
X030514Y006918D01*
X030514Y006772D01*
X030551Y006735D01*
X030624Y006735D01*
X030661Y006772D01*
X030661Y006845D01*
X030588Y006845D01*
X030661Y006918D02*
X030624Y006955D01*
X030551Y006955D01*
X030735Y006955D02*
X030882Y006735D01*
X030882Y006955D01*
X030956Y006955D02*
X031066Y006955D01*
X031103Y006918D01*
X031103Y006772D01*
X031066Y006735D01*
X030956Y006735D01*
X030956Y006955D01*
X030735Y006955D02*
X030735Y006735D01*
X031488Y007571D02*
X031488Y007851D01*
X031628Y007851D01*
X031675Y007805D01*
X031675Y007711D01*
X031628Y007664D01*
X031488Y007664D01*
X031581Y007664D02*
X031675Y007571D01*
X031764Y007618D02*
X031811Y007571D01*
X031904Y007571D01*
X031951Y007618D01*
X031951Y007664D01*
X031904Y007711D01*
X031857Y007711D01*
X031904Y007711D02*
X031951Y007758D01*
X031951Y007805D01*
X031904Y007851D01*
X031811Y007851D01*
X031764Y007805D01*
X032838Y007851D02*
X032978Y007851D01*
X033025Y007805D01*
X033025Y007711D01*
X032978Y007664D01*
X032838Y007664D01*
X032838Y007571D02*
X032838Y007851D01*
X032931Y007664D02*
X033025Y007571D01*
X033114Y007711D02*
X033301Y007711D01*
X033254Y007571D02*
X033254Y007851D01*
X033114Y007711D01*
X033938Y007664D02*
X034078Y007664D01*
X034125Y007711D01*
X034125Y007805D01*
X034078Y007851D01*
X033938Y007851D01*
X033938Y007571D01*
X034031Y007664D02*
X034125Y007571D01*
X034214Y007618D02*
X034261Y007571D01*
X034354Y007571D01*
X034401Y007618D01*
X034401Y007711D01*
X034354Y007758D01*
X034307Y007758D01*
X034214Y007711D01*
X034214Y007851D01*
X034401Y007851D01*
X035438Y007755D02*
X035438Y007568D01*
X035484Y007521D01*
X035578Y007521D01*
X035625Y007568D01*
X035714Y007521D02*
X035901Y007708D01*
X035901Y007755D01*
X035854Y007801D01*
X035761Y007801D01*
X035714Y007755D01*
X035625Y007755D02*
X035578Y007801D01*
X035484Y007801D01*
X035438Y007755D01*
X035714Y007521D02*
X035901Y007521D01*
X035702Y010571D02*
X035608Y010571D01*
X035562Y010618D01*
X035562Y010664D01*
X035608Y010711D01*
X035702Y010711D01*
X035748Y010664D01*
X035748Y010618D01*
X035702Y010571D01*
X035702Y010711D02*
X035748Y010758D01*
X035748Y010805D01*
X035702Y010851D01*
X035608Y010851D01*
X035562Y010805D01*
X035562Y010758D01*
X035608Y010711D01*
X035472Y010618D02*
X035425Y010571D01*
X035332Y010571D01*
X035285Y010618D01*
X035285Y010805D01*
X035332Y010851D01*
X035425Y010851D01*
X035472Y010805D01*
X036585Y010805D02*
X036585Y010618D01*
X036632Y010571D01*
X036725Y010571D01*
X036772Y010618D01*
X036862Y010618D02*
X036862Y010571D01*
X036862Y010618D02*
X037048Y010805D01*
X037048Y010851D01*
X036862Y010851D01*
X036772Y010805D02*
X036725Y010851D01*
X036632Y010851D01*
X036585Y010805D01*
D12*
X037268Y012161D02*
X034688Y012161D01*
X034688Y013461D01*
X037268Y013461D01*
X037268Y012161D01*
X030548Y011106D02*
X030548Y014516D01*
X029008Y014516D01*
X029008Y011106D01*
X030548Y011106D01*
X028096Y012161D02*
X025516Y012161D01*
X025516Y013461D01*
X028096Y013461D01*
X028096Y012161D01*
X029187Y014261D02*
X029189Y014284D01*
X029195Y014307D01*
X029204Y014328D01*
X029217Y014348D01*
X029233Y014365D01*
X029251Y014379D01*
X029271Y014390D01*
X029293Y014398D01*
X029316Y014402D01*
X029340Y014402D01*
X029363Y014398D01*
X029385Y014390D01*
X029405Y014379D01*
X029423Y014365D01*
X029439Y014348D01*
X029452Y014328D01*
X029461Y014307D01*
X029467Y014284D01*
X029469Y014261D01*
X029467Y014238D01*
X029461Y014215D01*
X029452Y014194D01*
X029439Y014174D01*
X029423Y014157D01*
X029405Y014143D01*
X029385Y014132D01*
X029363Y014124D01*
X029340Y014120D01*
X029316Y014120D01*
X029293Y014124D01*
X029271Y014132D01*
X029251Y014143D01*
X029233Y014157D01*
X029217Y014174D01*
X029204Y014194D01*
X029195Y014215D01*
X029189Y014238D01*
X029187Y014261D01*
X021376Y014516D02*
X021376Y011106D01*
X019836Y011106D01*
X019836Y014516D01*
X021376Y014516D01*
X020015Y014261D02*
X020017Y014284D01*
X020023Y014307D01*
X020032Y014328D01*
X020045Y014348D01*
X020061Y014365D01*
X020079Y014379D01*
X020099Y014390D01*
X020121Y014398D01*
X020144Y014402D01*
X020168Y014402D01*
X020191Y014398D01*
X020213Y014390D01*
X020233Y014379D01*
X020251Y014365D01*
X020267Y014348D01*
X020280Y014328D01*
X020289Y014307D01*
X020295Y014284D01*
X020297Y014261D01*
X020295Y014238D01*
X020289Y014215D01*
X020280Y014194D01*
X020267Y014174D01*
X020251Y014157D01*
X020233Y014143D01*
X020213Y014132D01*
X020191Y014124D01*
X020168Y014120D01*
X020144Y014120D01*
X020121Y014124D01*
X020099Y014132D01*
X020079Y014143D01*
X020061Y014157D01*
X020045Y014174D01*
X020032Y014194D01*
X020023Y014215D01*
X020017Y014238D01*
X020015Y014261D01*
X018948Y013461D02*
X016368Y013461D01*
X016368Y012161D01*
X018948Y012161D01*
X018948Y013461D01*
X012228Y014516D02*
X012228Y011106D01*
X010688Y011106D01*
X010688Y014516D01*
X012228Y014516D01*
X010867Y014261D02*
X010869Y014284D01*
X010875Y014307D01*
X010884Y014328D01*
X010897Y014348D01*
X010913Y014365D01*
X010931Y014379D01*
X010951Y014390D01*
X010973Y014398D01*
X010996Y014402D01*
X011020Y014402D01*
X011043Y014398D01*
X011065Y014390D01*
X011085Y014379D01*
X011103Y014365D01*
X011119Y014348D01*
X011132Y014328D01*
X011141Y014307D01*
X011147Y014284D01*
X011149Y014261D01*
X011147Y014238D01*
X011141Y014215D01*
X011132Y014194D01*
X011119Y014174D01*
X011103Y014157D01*
X011085Y014143D01*
X011065Y014132D01*
X011043Y014124D01*
X011020Y014120D01*
X010996Y014120D01*
X010973Y014124D01*
X010951Y014132D01*
X010931Y014143D01*
X010913Y014157D01*
X010897Y014174D01*
X010884Y014194D01*
X010875Y014215D01*
X010869Y014238D01*
X010867Y014261D01*
X009771Y013461D02*
X007191Y013461D01*
X007191Y012161D01*
X009771Y012161D01*
X009771Y013461D01*
X003051Y014516D02*
X003051Y011106D01*
X001511Y011106D01*
X001511Y014516D01*
X003051Y014516D01*
X001690Y014261D02*
X001692Y014284D01*
X001698Y014307D01*
X001707Y014328D01*
X001720Y014348D01*
X001736Y014365D01*
X001754Y014379D01*
X001774Y014390D01*
X001796Y014398D01*
X001819Y014402D01*
X001843Y014402D01*
X001866Y014398D01*
X001888Y014390D01*
X001908Y014379D01*
X001926Y014365D01*
X001942Y014348D01*
X001955Y014328D01*
X001964Y014307D01*
X001970Y014284D01*
X001972Y014261D01*
X001970Y014238D01*
X001964Y014215D01*
X001955Y014194D01*
X001942Y014174D01*
X001926Y014157D01*
X001908Y014143D01*
X001888Y014132D01*
X001866Y014124D01*
X001843Y014120D01*
X001819Y014120D01*
X001796Y014124D01*
X001774Y014132D01*
X001754Y014143D01*
X001736Y014157D01*
X001720Y014174D01*
X001707Y014194D01*
X001698Y014215D01*
X001692Y014238D01*
X001690Y014261D01*
X001511Y025250D02*
X003051Y025250D01*
X003051Y028660D01*
X001511Y028660D01*
X001511Y025250D01*
X001690Y028405D02*
X001692Y028428D01*
X001698Y028451D01*
X001707Y028472D01*
X001720Y028492D01*
X001736Y028509D01*
X001754Y028523D01*
X001774Y028534D01*
X001796Y028542D01*
X001819Y028546D01*
X001843Y028546D01*
X001866Y028542D01*
X001888Y028534D01*
X001908Y028523D01*
X001926Y028509D01*
X001942Y028492D01*
X001955Y028472D01*
X001964Y028451D01*
X001970Y028428D01*
X001972Y028405D01*
X001970Y028382D01*
X001964Y028359D01*
X001955Y028338D01*
X001942Y028318D01*
X001926Y028301D01*
X001908Y028287D01*
X001888Y028276D01*
X001866Y028268D01*
X001843Y028264D01*
X001819Y028264D01*
X001796Y028268D01*
X001774Y028276D01*
X001754Y028287D01*
X001736Y028301D01*
X001720Y028318D01*
X001707Y028338D01*
X001698Y028359D01*
X001692Y028382D01*
X001690Y028405D01*
X007191Y027605D02*
X007191Y026305D01*
X009771Y026305D01*
X009771Y027605D01*
X007191Y027605D01*
X010688Y028660D02*
X010688Y025250D01*
X012228Y025250D01*
X012228Y028660D01*
X010688Y028660D01*
X010867Y028405D02*
X010869Y028428D01*
X010875Y028451D01*
X010884Y028472D01*
X010897Y028492D01*
X010913Y028509D01*
X010931Y028523D01*
X010951Y028534D01*
X010973Y028542D01*
X010996Y028546D01*
X011020Y028546D01*
X011043Y028542D01*
X011065Y028534D01*
X011085Y028523D01*
X011103Y028509D01*
X011119Y028492D01*
X011132Y028472D01*
X011141Y028451D01*
X011147Y028428D01*
X011149Y028405D01*
X011147Y028382D01*
X011141Y028359D01*
X011132Y028338D01*
X011119Y028318D01*
X011103Y028301D01*
X011085Y028287D01*
X011065Y028276D01*
X011043Y028268D01*
X011020Y028264D01*
X010996Y028264D01*
X010973Y028268D01*
X010951Y028276D01*
X010931Y028287D01*
X010913Y028301D01*
X010897Y028318D01*
X010884Y028338D01*
X010875Y028359D01*
X010869Y028382D01*
X010867Y028405D01*
X016368Y027605D02*
X016368Y026305D01*
X018948Y026305D01*
X018948Y027605D01*
X016368Y027605D01*
X019836Y028660D02*
X019836Y025250D01*
X021376Y025250D01*
X021376Y028660D01*
X019836Y028660D01*
X020015Y028405D02*
X020017Y028428D01*
X020023Y028451D01*
X020032Y028472D01*
X020045Y028492D01*
X020061Y028509D01*
X020079Y028523D01*
X020099Y028534D01*
X020121Y028542D01*
X020144Y028546D01*
X020168Y028546D01*
X020191Y028542D01*
X020213Y028534D01*
X020233Y028523D01*
X020251Y028509D01*
X020267Y028492D01*
X020280Y028472D01*
X020289Y028451D01*
X020295Y028428D01*
X020297Y028405D01*
X020295Y028382D01*
X020289Y028359D01*
X020280Y028338D01*
X020267Y028318D01*
X020251Y028301D01*
X020233Y028287D01*
X020213Y028276D01*
X020191Y028268D01*
X020168Y028264D01*
X020144Y028264D01*
X020121Y028268D01*
X020099Y028276D01*
X020079Y028287D01*
X020061Y028301D01*
X020045Y028318D01*
X020032Y028338D01*
X020023Y028359D01*
X020017Y028382D01*
X020015Y028405D01*
X025516Y027605D02*
X025516Y026305D01*
X028096Y026305D01*
X028096Y027605D01*
X025516Y027605D01*
X029008Y028660D02*
X029008Y025250D01*
X030548Y025250D01*
X030548Y028660D01*
X029008Y028660D01*
X029187Y028405D02*
X029189Y028428D01*
X029195Y028451D01*
X029204Y028472D01*
X029217Y028492D01*
X029233Y028509D01*
X029251Y028523D01*
X029271Y028534D01*
X029293Y028542D01*
X029316Y028546D01*
X029340Y028546D01*
X029363Y028542D01*
X029385Y028534D01*
X029405Y028523D01*
X029423Y028509D01*
X029439Y028492D01*
X029452Y028472D01*
X029461Y028451D01*
X029467Y028428D01*
X029469Y028405D01*
X029467Y028382D01*
X029461Y028359D01*
X029452Y028338D01*
X029439Y028318D01*
X029423Y028301D01*
X029405Y028287D01*
X029385Y028276D01*
X029363Y028268D01*
X029340Y028264D01*
X029316Y028264D01*
X029293Y028268D01*
X029271Y028276D01*
X029251Y028287D01*
X029233Y028301D01*
X029217Y028318D01*
X029204Y028338D01*
X029195Y028359D01*
X029189Y028382D01*
X029187Y028405D01*
X034688Y027605D02*
X034688Y026305D01*
X037268Y026305D01*
X037268Y027605D01*
X034688Y027605D01*
D13*
X029780Y024455D02*
X029780Y023938D01*
X029327Y023935D02*
X028989Y023935D01*
X028542Y023938D02*
X028542Y024455D01*
X028959Y024455D01*
X029383Y024455D02*
X029780Y024455D01*
X020608Y024455D02*
X020608Y023938D01*
X020155Y023935D02*
X019817Y023935D01*
X019370Y023938D02*
X019370Y024455D01*
X019787Y024455D01*
X020211Y024455D02*
X020608Y024455D01*
X011460Y024455D02*
X011460Y023938D01*
X011008Y023935D02*
X010670Y023935D01*
X010222Y023938D02*
X010222Y024455D01*
X010639Y024455D01*
X011063Y024455D02*
X011460Y024455D01*
X002283Y024455D02*
X002283Y023938D01*
X001830Y023935D02*
X001492Y023935D01*
X001045Y023938D02*
X001045Y024455D01*
X001462Y024455D01*
X001886Y024455D02*
X002283Y024455D01*
X002283Y010312D02*
X001886Y010312D01*
X002283Y010312D02*
X002283Y009795D01*
X001830Y009792D02*
X001492Y009792D01*
X001045Y009795D02*
X001045Y010312D01*
X001462Y010312D01*
X010222Y010312D02*
X010222Y009795D01*
X010670Y009792D02*
X011008Y009792D01*
X011460Y009795D02*
X011460Y010312D01*
X011063Y010312D01*
X010639Y010312D02*
X010222Y010312D01*
X019370Y010312D02*
X019370Y009795D01*
X019817Y009792D02*
X020155Y009792D01*
X020608Y009795D02*
X020608Y010312D01*
X020211Y010312D01*
X019787Y010312D02*
X019370Y010312D01*
X028542Y010312D02*
X028542Y009795D01*
X028989Y009792D02*
X029327Y009792D01*
X029780Y009795D02*
X029780Y010312D01*
X029383Y010312D01*
X028959Y010312D02*
X028542Y010312D01*
D14*
X031409Y012903D02*
X031409Y014911D01*
X031527Y014911D01*
X031626Y014911D01*
X031626Y012903D01*
X031409Y012903D01*
X031626Y012903D02*
X034205Y012903D01*
X034205Y014911D01*
X034283Y014911D01*
X034401Y014911D01*
X034401Y012903D01*
X034205Y012903D01*
X034205Y014911D02*
X031626Y014911D01*
X029628Y015081D02*
X029628Y021578D01*
X036027Y021578D01*
X036027Y015081D01*
X029628Y015081D01*
X029328Y015205D02*
X028378Y015205D01*
X028378Y016255D01*
X028378Y017255D01*
X028378Y018255D01*
X028378Y019255D01*
X028378Y020255D01*
X029328Y020255D01*
X029328Y019255D01*
X029328Y018255D01*
X029328Y017255D01*
X029328Y016255D01*
X029328Y015205D01*
X029328Y016255D02*
X028378Y016255D01*
X028206Y016255D02*
X028206Y015205D01*
X027256Y015205D01*
X027206Y015205D01*
X027256Y015205D02*
X027256Y016255D01*
X028206Y016255D01*
X028206Y017255D01*
X028206Y018255D01*
X027256Y018255D01*
X027256Y017255D01*
X027256Y016255D01*
X027256Y017255D02*
X028206Y017255D01*
X028378Y017255D02*
X029328Y017255D01*
X029328Y018255D02*
X028378Y018255D01*
X028206Y018255D02*
X028206Y019255D01*
X027256Y019255D01*
X027256Y018255D01*
X027256Y019255D02*
X027256Y020255D01*
X028206Y020255D01*
X028206Y019255D01*
X028378Y019255D02*
X029328Y019255D01*
X029328Y020255D02*
X029328Y021405D01*
X028378Y021405D01*
X028378Y020255D01*
X028206Y020255D02*
X028206Y021305D01*
X027256Y021305D01*
X027256Y020255D01*
X026855Y021578D02*
X026855Y015081D01*
X020456Y015081D01*
X020456Y021578D01*
X026855Y021578D01*
X029628Y020593D02*
X031303Y020593D01*
X031303Y021578D01*
X036428Y021305D02*
X036428Y020255D01*
X036428Y019255D01*
X036428Y018255D01*
X036428Y017255D01*
X036428Y016255D01*
X036428Y015205D01*
X036378Y015205D01*
X036428Y015205D02*
X037378Y015205D01*
X037378Y016255D01*
X037378Y017255D01*
X037378Y018255D01*
X036428Y018255D01*
X037378Y018255D02*
X037378Y019255D01*
X036428Y019255D01*
X037378Y019255D02*
X037378Y020255D01*
X036428Y020255D01*
X037378Y020255D02*
X037378Y021305D01*
X036428Y021305D01*
X036428Y017255D02*
X037378Y017255D01*
X037378Y016255D02*
X036428Y016255D01*
X036027Y007434D02*
X029628Y007434D01*
X029628Y000938D01*
X036027Y000938D01*
X036027Y007434D01*
X036428Y007161D02*
X037378Y007161D01*
X037378Y006111D01*
X037378Y005111D01*
X037378Y004111D01*
X037378Y003111D01*
X037378Y002111D01*
X037378Y001061D01*
X036428Y001061D01*
X036378Y001061D01*
X036428Y001061D02*
X036428Y002111D01*
X037378Y002111D01*
X036428Y002111D02*
X036428Y003111D01*
X037378Y003111D01*
X036428Y003111D02*
X036428Y004111D01*
X036428Y005111D01*
X036428Y006111D01*
X037378Y006111D01*
X036428Y006111D02*
X036428Y007161D01*
X036428Y005111D02*
X037378Y005111D01*
X037378Y004111D02*
X036428Y004111D01*
X031303Y006450D02*
X031303Y007434D01*
X031303Y006450D02*
X029628Y006450D01*
X029328Y006111D02*
X029328Y005111D01*
X029328Y004111D01*
X029328Y003111D01*
X029328Y002111D01*
X029328Y001061D01*
X028378Y001061D01*
X028378Y002111D01*
X028378Y003111D01*
X028378Y004111D01*
X028378Y005111D01*
X028378Y006111D01*
X029328Y006111D01*
X029328Y007261D01*
X028378Y007261D01*
X028378Y006111D01*
X028206Y006111D02*
X028206Y005111D01*
X028206Y004111D01*
X028206Y003111D01*
X028206Y002111D01*
X028206Y001061D01*
X027256Y001061D01*
X027206Y001061D01*
X027256Y001061D02*
X027256Y002111D01*
X028206Y002111D01*
X028378Y002111D02*
X029328Y002111D01*
X029328Y003111D02*
X028378Y003111D01*
X028206Y003111D02*
X027256Y003111D01*
X027256Y002111D01*
X026855Y000938D02*
X020456Y000938D01*
X020456Y007434D01*
X026855Y007434D01*
X026855Y000938D01*
X027256Y003111D02*
X027256Y004111D01*
X027256Y005111D01*
X027256Y006111D01*
X028206Y006111D01*
X028206Y007161D01*
X027256Y007161D01*
X027256Y006111D01*
X027256Y005111D02*
X028206Y005111D01*
X028378Y005111D02*
X029328Y005111D01*
X029328Y004111D02*
X028378Y004111D01*
X028206Y004111D02*
X027256Y004111D01*
X022131Y006450D02*
X022131Y007434D01*
X022131Y006450D02*
X020456Y006450D01*
X020156Y006111D02*
X020156Y005111D01*
X020156Y004111D01*
X020156Y003111D01*
X020156Y002111D01*
X020156Y001061D01*
X019206Y001061D01*
X019206Y002111D01*
X019206Y003111D01*
X019206Y004111D01*
X019206Y005111D01*
X019206Y006111D01*
X020156Y006111D01*
X020156Y007261D01*
X019206Y007261D01*
X019206Y006111D01*
X019058Y006111D02*
X019058Y005111D01*
X019058Y004111D01*
X019058Y003111D01*
X019058Y002111D01*
X019058Y001061D01*
X018108Y001061D01*
X018058Y001061D01*
X018108Y001061D02*
X018108Y002111D01*
X019058Y002111D01*
X019206Y002111D02*
X020156Y002111D01*
X020156Y003111D02*
X019206Y003111D01*
X019058Y003111D02*
X018108Y003111D01*
X018108Y002111D01*
X017707Y000938D02*
X011308Y000938D01*
X011308Y007434D01*
X017707Y007434D01*
X017707Y000938D01*
X018108Y003111D02*
X018108Y004111D01*
X018108Y005111D01*
X018108Y006111D01*
X019058Y006111D01*
X019058Y007161D01*
X018108Y007161D01*
X018108Y006111D01*
X018108Y005111D02*
X019058Y005111D01*
X019206Y005111D02*
X020156Y005111D01*
X020156Y004111D02*
X019206Y004111D01*
X019058Y004111D02*
X018108Y004111D01*
X012983Y006450D02*
X012983Y007434D01*
X012983Y006450D02*
X011308Y006450D01*
X011008Y006111D02*
X011008Y005111D01*
X011008Y004111D01*
X011008Y003111D01*
X011008Y002111D01*
X011008Y001061D01*
X010058Y001061D01*
X010058Y002111D01*
X010058Y003111D01*
X010058Y004111D01*
X010058Y005111D01*
X010058Y006111D01*
X011008Y006111D01*
X011008Y007261D01*
X010058Y007261D01*
X010058Y006111D01*
X009881Y006111D02*
X009881Y005111D01*
X009881Y004111D01*
X009881Y003111D01*
X009881Y002111D01*
X009881Y001061D01*
X008931Y001061D01*
X008881Y001061D01*
X008931Y001061D02*
X008931Y002111D01*
X009881Y002111D01*
X010058Y002111D02*
X011008Y002111D01*
X011008Y003111D02*
X010058Y003111D01*
X009881Y003111D02*
X008931Y003111D01*
X008931Y002111D01*
X008530Y000938D02*
X002131Y000938D01*
X002131Y007434D01*
X008530Y007434D01*
X008530Y000938D01*
X008931Y003111D02*
X008931Y004111D01*
X008931Y005111D01*
X008931Y006111D01*
X009881Y006111D01*
X009881Y007161D01*
X008931Y007161D01*
X008931Y006111D01*
X008931Y005111D02*
X009881Y005111D01*
X010058Y005111D02*
X011008Y005111D01*
X011008Y004111D02*
X010058Y004111D01*
X009881Y004111D02*
X008931Y004111D01*
X003806Y006450D02*
X003806Y007434D01*
X003806Y006450D02*
X002131Y006450D01*
X001831Y006111D02*
X001831Y005111D01*
X001831Y004111D01*
X001831Y003111D01*
X001831Y002111D01*
X001831Y001061D01*
X000881Y001061D01*
X000881Y002111D01*
X000881Y003111D01*
X000881Y004111D01*
X000881Y005111D01*
X000881Y006111D01*
X001831Y006111D01*
X001831Y007261D01*
X000881Y007261D01*
X000881Y006111D01*
X000881Y005111D02*
X001831Y005111D01*
X001831Y004111D02*
X000881Y004111D01*
X000881Y003111D02*
X001831Y003111D01*
X001831Y002111D02*
X000881Y002111D01*
X003913Y012903D02*
X003913Y014911D01*
X004031Y014911D01*
X004129Y014911D01*
X004129Y012903D01*
X003913Y012903D01*
X004129Y012903D02*
X006708Y012903D01*
X006708Y014911D01*
X006787Y014911D01*
X006905Y014911D01*
X006905Y012903D01*
X006708Y012903D01*
X006708Y014911D02*
X004129Y014911D01*
X002131Y015081D02*
X002131Y021578D01*
X008530Y021578D01*
X008530Y015081D01*
X002131Y015081D01*
X001831Y015205D02*
X000881Y015205D01*
X000881Y016255D01*
X000881Y017255D01*
X000881Y018255D01*
X000881Y019255D01*
X000881Y020255D01*
X001831Y020255D01*
X001831Y019255D01*
X001831Y018255D01*
X001831Y017255D01*
X001831Y016255D01*
X001831Y015205D01*
X001831Y016255D02*
X000881Y016255D01*
X000881Y017255D02*
X001831Y017255D01*
X001831Y018255D02*
X000881Y018255D01*
X000881Y019255D02*
X001831Y019255D01*
X001831Y020255D02*
X001831Y021405D01*
X000881Y021405D01*
X000881Y020255D01*
X002131Y020593D02*
X003806Y020593D01*
X003806Y021578D01*
X008931Y021305D02*
X008931Y020255D01*
X008931Y019255D01*
X008931Y018255D01*
X008931Y017255D01*
X008931Y016255D01*
X008931Y015205D01*
X008881Y015205D01*
X008931Y015205D02*
X009881Y015205D01*
X009881Y016255D01*
X009881Y017255D01*
X009881Y018255D01*
X008931Y018255D01*
X009881Y018255D02*
X009881Y019255D01*
X008931Y019255D01*
X009881Y019255D02*
X009881Y020255D01*
X008931Y020255D01*
X009881Y020255D02*
X009881Y021305D01*
X008931Y021305D01*
X010058Y021405D02*
X010058Y020255D01*
X010058Y019255D01*
X010058Y018255D01*
X010058Y017255D01*
X010058Y016255D01*
X010058Y015205D01*
X011008Y015205D01*
X011008Y016255D01*
X010058Y016255D01*
X009881Y016255D02*
X008931Y016255D01*
X008931Y017255D02*
X009881Y017255D01*
X010058Y017255D02*
X011008Y017255D01*
X011008Y016255D01*
X011008Y017255D02*
X011008Y018255D01*
X010058Y018255D01*
X011008Y018255D02*
X011008Y019255D01*
X010058Y019255D01*
X011008Y019255D02*
X011008Y020255D01*
X010058Y020255D01*
X011008Y020255D02*
X011008Y021405D01*
X010058Y021405D01*
X011308Y021578D02*
X011308Y015081D01*
X017707Y015081D01*
X017707Y021578D01*
X011308Y021578D01*
X011308Y020593D02*
X012983Y020593D01*
X012983Y021578D01*
X018108Y021305D02*
X018108Y020255D01*
X018108Y019255D01*
X018108Y018255D01*
X018108Y017255D01*
X018108Y016255D01*
X018108Y015205D01*
X018058Y015205D01*
X018108Y015205D02*
X019058Y015205D01*
X019058Y016255D01*
X019058Y017255D01*
X019058Y018255D01*
X018108Y018255D01*
X019058Y018255D02*
X019058Y019255D01*
X018108Y019255D01*
X019058Y019255D02*
X019058Y020255D01*
X018108Y020255D01*
X019058Y020255D02*
X019058Y021305D01*
X018108Y021305D01*
X019206Y021405D02*
X019206Y020255D01*
X019206Y019255D01*
X019206Y018255D01*
X019206Y017255D01*
X019206Y016255D01*
X019206Y015205D01*
X020156Y015205D01*
X020156Y016255D01*
X019206Y016255D01*
X019058Y016255D02*
X018108Y016255D01*
X018108Y017255D02*
X019058Y017255D01*
X019206Y017255D02*
X020156Y017255D01*
X020156Y016255D01*
X020156Y017255D02*
X020156Y018255D01*
X019206Y018255D01*
X020156Y018255D02*
X020156Y019255D01*
X019206Y019255D01*
X020156Y019255D02*
X020156Y020255D01*
X019206Y020255D01*
X020156Y020255D02*
X020156Y021405D01*
X019206Y021405D01*
X020456Y020593D02*
X022131Y020593D01*
X022131Y021578D01*
X022237Y027047D02*
X022237Y029055D01*
X022356Y029055D01*
X022454Y029055D01*
X022454Y027047D01*
X022237Y027047D01*
X022454Y027047D02*
X025033Y027047D01*
X025033Y029055D01*
X025111Y029055D01*
X025230Y029055D01*
X025230Y027047D01*
X025033Y027047D01*
X025033Y029055D02*
X022454Y029055D01*
X016082Y029055D02*
X016082Y027047D01*
X015885Y027047D01*
X015885Y029055D01*
X015964Y029055D01*
X016082Y029055D01*
X015885Y029055D02*
X013306Y029055D01*
X013306Y027047D01*
X013090Y027047D01*
X013090Y029055D01*
X013208Y029055D01*
X013306Y029055D01*
X013306Y027047D02*
X015885Y027047D01*
X006905Y027047D02*
X006708Y027047D01*
X006708Y029055D01*
X006787Y029055D01*
X006905Y029055D01*
X006905Y027047D01*
X006708Y027047D02*
X004129Y027047D01*
X004129Y029055D01*
X006708Y029055D01*
X004129Y029055D02*
X004031Y029055D01*
X003913Y029055D01*
X003913Y027047D01*
X004129Y027047D01*
X013090Y014911D02*
X013090Y012903D01*
X013306Y012903D01*
X013306Y014911D01*
X015885Y014911D01*
X015885Y012903D01*
X013306Y012903D01*
X013306Y014911D02*
X013208Y014911D01*
X013090Y014911D01*
X015885Y014911D02*
X015964Y014911D01*
X016082Y014911D01*
X016082Y012903D01*
X015885Y012903D01*
X022237Y012903D02*
X022237Y014911D01*
X022356Y014911D01*
X022454Y014911D01*
X022454Y012903D01*
X022237Y012903D01*
X022454Y012903D02*
X025033Y012903D01*
X025033Y014911D01*
X025111Y014911D01*
X025230Y014911D01*
X025230Y012903D01*
X025033Y012903D01*
X025033Y014911D02*
X022454Y014911D01*
X031409Y027047D02*
X031409Y029055D01*
X031527Y029055D01*
X031626Y029055D01*
X031626Y027047D01*
X031409Y027047D01*
X031626Y027047D02*
X034205Y027047D01*
X034205Y029055D01*
X034283Y029055D01*
X034401Y029055D01*
X034401Y027047D01*
X034205Y027047D01*
X034205Y029055D02*
X031626Y029055D01*
D15*
X032708Y021456D02*
X032621Y021370D01*
X032621Y021196D01*
X032708Y021109D01*
X032621Y020767D02*
X033142Y020767D01*
X033142Y020594D02*
X033142Y020941D01*
X033142Y021109D02*
X032795Y021456D01*
X032708Y021456D01*
X033142Y021456D02*
X033142Y021109D01*
X032795Y020594D02*
X032621Y020767D01*
X032882Y020425D02*
X032882Y020078D01*
X032968Y019910D02*
X032882Y019823D01*
X032882Y019563D01*
X033055Y019563D01*
X033142Y019649D01*
X033142Y019823D01*
X033055Y019910D01*
X032968Y019910D01*
X032708Y019736D02*
X032882Y019563D01*
X032968Y019394D02*
X032882Y019307D01*
X032882Y019047D01*
X033055Y019047D01*
X033142Y019134D01*
X033142Y019307D01*
X033055Y019394D01*
X032968Y019394D01*
X032708Y019220D02*
X032882Y019047D01*
X032795Y018878D02*
X032708Y018878D01*
X032621Y018791D01*
X032621Y018618D01*
X032708Y018531D01*
X032708Y018363D02*
X032621Y018276D01*
X032621Y018102D01*
X032708Y018016D01*
X032795Y018016D01*
X032882Y018102D01*
X032882Y018276D01*
X032968Y018363D01*
X033055Y018363D01*
X033142Y018276D01*
X033142Y018102D01*
X033055Y018016D01*
X032968Y018016D01*
X032882Y018102D01*
X032882Y018276D02*
X032795Y018363D01*
X032708Y018363D01*
X033142Y018531D02*
X032795Y018878D01*
X033142Y018878D02*
X033142Y018531D01*
X032882Y017847D02*
X032968Y017760D01*
X032968Y017500D01*
X032968Y017331D02*
X033055Y017331D01*
X033142Y017245D01*
X033142Y017071D01*
X033055Y016984D01*
X033142Y016816D02*
X033142Y016469D01*
X032621Y016469D01*
X032621Y016816D01*
X032708Y016984D02*
X032621Y017071D01*
X032621Y017245D01*
X032708Y017331D01*
X032621Y017500D02*
X032621Y017760D01*
X032708Y017847D01*
X032882Y017847D01*
X033142Y017500D02*
X032621Y017500D01*
X032882Y017245D02*
X032882Y017071D01*
X032795Y016984D01*
X032708Y016984D01*
X032882Y017245D02*
X032968Y017331D01*
X032882Y016642D02*
X032882Y016469D01*
X032708Y019220D02*
X032621Y019394D01*
X032708Y019736D02*
X032621Y019910D01*
X023970Y019823D02*
X023883Y019910D01*
X023796Y019910D01*
X023710Y019823D01*
X023710Y019563D01*
X023883Y019563D01*
X023970Y019649D01*
X023970Y019823D01*
X023710Y020078D02*
X023710Y020425D01*
X023623Y020594D02*
X023449Y020767D01*
X023970Y020767D01*
X023970Y020594D02*
X023970Y020941D01*
X023970Y021109D02*
X023623Y021456D01*
X023536Y021456D01*
X023449Y021370D01*
X023449Y021196D01*
X023536Y021109D01*
X023970Y021109D02*
X023970Y021456D01*
X023449Y019910D02*
X023536Y019736D01*
X023710Y019563D01*
X023796Y019394D02*
X023710Y019307D01*
X023710Y019047D01*
X023883Y019047D01*
X023970Y019134D01*
X023970Y019307D01*
X023883Y019394D01*
X023796Y019394D01*
X023536Y019220D02*
X023710Y019047D01*
X023623Y018878D02*
X023536Y018878D01*
X023449Y018791D01*
X023449Y018618D01*
X023536Y018531D01*
X023536Y018363D02*
X023449Y018276D01*
X023449Y018102D01*
X023536Y018016D01*
X023623Y018016D01*
X023710Y018102D01*
X023710Y018276D01*
X023796Y018363D01*
X023883Y018363D01*
X023970Y018276D01*
X023970Y018102D01*
X023883Y018016D01*
X023796Y018016D01*
X023710Y018102D01*
X023710Y018276D02*
X023623Y018363D01*
X023536Y018363D01*
X023970Y018531D02*
X023623Y018878D01*
X023970Y018878D02*
X023970Y018531D01*
X023710Y017847D02*
X023796Y017760D01*
X023796Y017500D01*
X023796Y017331D02*
X023883Y017331D01*
X023970Y017245D01*
X023970Y017071D01*
X023883Y016984D01*
X023970Y016816D02*
X023970Y016469D01*
X023449Y016469D01*
X023449Y016816D01*
X023536Y016984D02*
X023449Y017071D01*
X023449Y017245D01*
X023536Y017331D01*
X023449Y017500D02*
X023449Y017760D01*
X023536Y017847D01*
X023710Y017847D01*
X023970Y017500D02*
X023449Y017500D01*
X023710Y017245D02*
X023710Y017071D01*
X023623Y016984D01*
X023536Y016984D01*
X023710Y017245D02*
X023796Y017331D01*
X023710Y016642D02*
X023710Y016469D01*
X023536Y019220D02*
X023449Y019394D01*
X014822Y019307D02*
X014736Y019394D01*
X014649Y019394D01*
X014562Y019307D01*
X014562Y019047D01*
X014736Y019047D01*
X014822Y019134D01*
X014822Y019307D01*
X014736Y019563D02*
X014562Y019563D01*
X014562Y019823D01*
X014649Y019910D01*
X014736Y019910D01*
X014822Y019823D01*
X014822Y019649D01*
X014736Y019563D01*
X014562Y019563D02*
X014389Y019736D01*
X014302Y019910D01*
X014562Y020078D02*
X014562Y020425D01*
X014475Y020594D02*
X014302Y020767D01*
X014822Y020767D01*
X014822Y020594D02*
X014822Y020941D01*
X014822Y021109D02*
X014475Y021456D01*
X014389Y021456D01*
X014302Y021370D01*
X014302Y021196D01*
X014389Y021109D01*
X014822Y021109D02*
X014822Y021456D01*
X014302Y019394D02*
X014389Y019220D01*
X014562Y019047D01*
X014475Y018878D02*
X014389Y018878D01*
X014302Y018791D01*
X014302Y018618D01*
X014389Y018531D01*
X014389Y018363D02*
X014475Y018363D01*
X014562Y018276D01*
X014562Y018102D01*
X014475Y018016D01*
X014389Y018016D01*
X014302Y018102D01*
X014302Y018276D01*
X014389Y018363D01*
X014562Y018276D02*
X014649Y018363D01*
X014736Y018363D01*
X014822Y018276D01*
X014822Y018102D01*
X014736Y018016D01*
X014649Y018016D01*
X014562Y018102D01*
X014562Y017847D02*
X014649Y017760D01*
X014649Y017500D01*
X014649Y017331D02*
X014736Y017331D01*
X014822Y017245D01*
X014822Y017071D01*
X014736Y016984D01*
X014822Y016816D02*
X014822Y016469D01*
X014302Y016469D01*
X014302Y016816D01*
X014389Y016984D02*
X014475Y016984D01*
X014562Y017071D01*
X014562Y017245D01*
X014649Y017331D01*
X014822Y017500D02*
X014302Y017500D01*
X014302Y017760D01*
X014389Y017847D01*
X014562Y017847D01*
X014389Y017331D02*
X014302Y017245D01*
X014302Y017071D01*
X014389Y016984D01*
X014562Y016642D02*
X014562Y016469D01*
X014822Y018531D02*
X014475Y018878D01*
X014822Y018878D02*
X014822Y018531D01*
X005645Y018531D02*
X005298Y018878D01*
X005211Y018878D01*
X005125Y018791D01*
X005125Y018618D01*
X005211Y018531D01*
X005211Y018363D02*
X005298Y018363D01*
X005385Y018276D01*
X005385Y018102D01*
X005298Y018016D01*
X005211Y018016D01*
X005125Y018102D01*
X005125Y018276D01*
X005211Y018363D01*
X005385Y018276D02*
X005472Y018363D01*
X005558Y018363D01*
X005645Y018276D01*
X005645Y018102D01*
X005558Y018016D01*
X005472Y018016D01*
X005385Y018102D01*
X005385Y017847D02*
X005472Y017760D01*
X005472Y017500D01*
X005472Y017331D02*
X005558Y017331D01*
X005645Y017245D01*
X005645Y017071D01*
X005558Y016984D01*
X005645Y016816D02*
X005645Y016469D01*
X005125Y016469D01*
X005125Y016816D01*
X005211Y016984D02*
X005298Y016984D01*
X005385Y017071D01*
X005385Y017245D01*
X005472Y017331D01*
X005645Y017500D02*
X005125Y017500D01*
X005125Y017760D01*
X005211Y017847D01*
X005385Y017847D01*
X005211Y017331D02*
X005125Y017245D01*
X005125Y017071D01*
X005211Y016984D01*
X005385Y016642D02*
X005385Y016469D01*
X005645Y018531D02*
X005645Y018878D01*
X005558Y019047D02*
X005645Y019134D01*
X005645Y019307D01*
X005558Y019394D01*
X005472Y019394D01*
X005385Y019307D01*
X005385Y019047D01*
X005558Y019047D01*
X005385Y019047D02*
X005211Y019220D01*
X005125Y019394D01*
X005385Y019563D02*
X005211Y019736D01*
X005125Y019910D01*
X005385Y019823D02*
X005385Y019563D01*
X005558Y019563D01*
X005645Y019649D01*
X005645Y019823D01*
X005558Y019910D01*
X005472Y019910D01*
X005385Y019823D01*
X005385Y020078D02*
X005385Y020425D01*
X005298Y020594D02*
X005125Y020767D01*
X005645Y020767D01*
X005645Y020594D02*
X005645Y020941D01*
X005645Y021109D02*
X005298Y021456D01*
X005211Y021456D01*
X005125Y021370D01*
X005125Y021196D01*
X005211Y021109D01*
X005645Y021109D02*
X005645Y021456D01*
X005645Y007313D02*
X005645Y006966D01*
X005298Y007313D01*
X005211Y007313D01*
X005125Y007226D01*
X005125Y007053D01*
X005211Y006966D01*
X005645Y006797D02*
X005645Y006450D01*
X005645Y006624D02*
X005125Y006624D01*
X005298Y006450D01*
X005385Y006281D02*
X005385Y005934D01*
X005472Y005766D02*
X005385Y005679D01*
X005385Y005419D01*
X005558Y005419D01*
X005645Y005506D01*
X005645Y005679D01*
X005558Y005766D01*
X005472Y005766D01*
X005211Y005592D02*
X005385Y005419D01*
X005472Y005250D02*
X005385Y005163D01*
X005385Y004903D01*
X005558Y004903D01*
X005645Y004990D01*
X005645Y005163D01*
X005558Y005250D01*
X005472Y005250D01*
X005211Y005077D02*
X005385Y004903D01*
X005298Y004735D02*
X005211Y004735D01*
X005125Y004648D01*
X005125Y004474D01*
X005211Y004388D01*
X005211Y004219D02*
X005298Y004219D01*
X005385Y004132D01*
X005385Y003959D01*
X005298Y003872D01*
X005211Y003872D01*
X005125Y003959D01*
X005125Y004132D01*
X005211Y004219D01*
X005385Y004132D02*
X005472Y004219D01*
X005558Y004219D01*
X005645Y004132D01*
X005645Y003959D01*
X005558Y003872D01*
X005472Y003872D01*
X005385Y003959D01*
X005385Y003703D02*
X005211Y003703D01*
X005125Y003617D01*
X005125Y003356D01*
X005645Y003356D01*
X005472Y003356D02*
X005472Y003617D01*
X005385Y003703D01*
X005472Y003188D02*
X005558Y003188D01*
X005645Y003101D01*
X005645Y002927D01*
X005558Y002841D01*
X005645Y002672D02*
X005645Y002325D01*
X005125Y002325D01*
X005125Y002672D01*
X005211Y002841D02*
X005298Y002841D01*
X005385Y002927D01*
X005385Y003101D01*
X005472Y003188D01*
X005211Y003188D02*
X005125Y003101D01*
X005125Y002927D01*
X005211Y002841D01*
X005385Y002498D02*
X005385Y002325D01*
X005645Y004388D02*
X005298Y004735D01*
X005645Y004735D02*
X005645Y004388D01*
X005211Y005077D02*
X005125Y005250D01*
X005211Y005592D02*
X005125Y005766D01*
X014302Y005766D02*
X014389Y005592D01*
X014562Y005419D01*
X014562Y005679D01*
X014649Y005766D01*
X014736Y005766D01*
X014822Y005679D01*
X014822Y005506D01*
X014736Y005419D01*
X014562Y005419D01*
X014649Y005250D02*
X014562Y005163D01*
X014562Y004903D01*
X014736Y004903D01*
X014822Y004990D01*
X014822Y005163D01*
X014736Y005250D01*
X014649Y005250D01*
X014389Y005077D02*
X014562Y004903D01*
X014475Y004735D02*
X014389Y004735D01*
X014302Y004648D01*
X014302Y004474D01*
X014389Y004388D01*
X014389Y004219D02*
X014475Y004219D01*
X014562Y004132D01*
X014562Y003959D01*
X014475Y003872D01*
X014389Y003872D01*
X014302Y003959D01*
X014302Y004132D01*
X014389Y004219D01*
X014562Y004132D02*
X014649Y004219D01*
X014736Y004219D01*
X014822Y004132D01*
X014822Y003959D01*
X014736Y003872D01*
X014649Y003872D01*
X014562Y003959D01*
X014562Y003703D02*
X014649Y003617D01*
X014649Y003356D01*
X014649Y003188D02*
X014562Y003101D01*
X014562Y002927D01*
X014475Y002841D01*
X014389Y002841D01*
X014302Y002927D01*
X014302Y003101D01*
X014389Y003188D01*
X014302Y003356D02*
X014302Y003617D01*
X014389Y003703D01*
X014562Y003703D01*
X014822Y003356D02*
X014302Y003356D01*
X014649Y003188D02*
X014736Y003188D01*
X014822Y003101D01*
X014822Y002927D01*
X014736Y002841D01*
X014822Y002672D02*
X014822Y002325D01*
X014302Y002325D01*
X014302Y002672D01*
X014562Y002498D02*
X014562Y002325D01*
X014822Y004388D02*
X014475Y004735D01*
X014822Y004735D02*
X014822Y004388D01*
X014389Y005077D02*
X014302Y005250D01*
X014562Y005934D02*
X014562Y006281D01*
X014475Y006450D02*
X014302Y006624D01*
X014822Y006624D01*
X014822Y006797D02*
X014822Y006450D01*
X014822Y006966D02*
X014475Y007313D01*
X014389Y007313D01*
X014302Y007226D01*
X014302Y007053D01*
X014389Y006966D01*
X014822Y006966D02*
X014822Y007313D01*
X023449Y007226D02*
X023449Y007053D01*
X023536Y006966D01*
X023449Y007226D02*
X023536Y007313D01*
X023623Y007313D01*
X023970Y006966D01*
X023970Y007313D01*
X023970Y006797D02*
X023970Y006450D01*
X023970Y006624D02*
X023449Y006624D01*
X023623Y006450D01*
X023710Y006281D02*
X023710Y005934D01*
X023796Y005766D02*
X023710Y005679D01*
X023710Y005419D01*
X023883Y005419D01*
X023970Y005506D01*
X023970Y005679D01*
X023883Y005766D01*
X023796Y005766D01*
X023536Y005592D02*
X023710Y005419D01*
X023796Y005250D02*
X023710Y005163D01*
X023710Y004903D01*
X023883Y004903D01*
X023970Y004990D01*
X023970Y005163D01*
X023883Y005250D01*
X023796Y005250D01*
X023536Y005077D02*
X023710Y004903D01*
X023623Y004735D02*
X023536Y004735D01*
X023449Y004648D01*
X023449Y004474D01*
X023536Y004388D01*
X023536Y004219D02*
X023449Y004132D01*
X023449Y003959D01*
X023536Y003872D01*
X023623Y003872D01*
X023710Y003959D01*
X023710Y004132D01*
X023796Y004219D01*
X023883Y004219D01*
X023970Y004132D01*
X023970Y003959D01*
X023883Y003872D01*
X023796Y003872D01*
X023710Y003959D01*
X023710Y004132D02*
X023623Y004219D01*
X023536Y004219D01*
X023970Y004388D02*
X023623Y004735D01*
X023970Y004735D02*
X023970Y004388D01*
X023710Y003703D02*
X023796Y003617D01*
X023796Y003356D01*
X023796Y003188D02*
X023883Y003188D01*
X023970Y003101D01*
X023970Y002927D01*
X023883Y002841D01*
X023970Y002672D02*
X023970Y002325D01*
X023449Y002325D01*
X023449Y002672D01*
X023536Y002841D02*
X023449Y002927D01*
X023449Y003101D01*
X023536Y003188D01*
X023449Y003356D02*
X023449Y003617D01*
X023536Y003703D01*
X023710Y003703D01*
X023970Y003356D02*
X023449Y003356D01*
X023710Y003101D02*
X023796Y003188D01*
X023710Y003101D02*
X023710Y002927D01*
X023623Y002841D01*
X023536Y002841D01*
X023710Y002498D02*
X023710Y002325D01*
X023536Y005077D02*
X023449Y005250D01*
X023536Y005592D02*
X023449Y005766D01*
X032621Y005766D02*
X032708Y005592D01*
X032882Y005419D01*
X032882Y005679D01*
X032968Y005766D01*
X033055Y005766D01*
X033142Y005679D01*
X033142Y005506D01*
X033055Y005419D01*
X032882Y005419D01*
X032968Y005250D02*
X032882Y005163D01*
X032882Y004903D01*
X033055Y004903D01*
X033142Y004990D01*
X033142Y005163D01*
X033055Y005250D01*
X032968Y005250D01*
X032708Y005077D02*
X032882Y004903D01*
X032795Y004735D02*
X032708Y004735D01*
X032621Y004648D01*
X032621Y004474D01*
X032708Y004388D01*
X032708Y004219D02*
X032621Y004132D01*
X032621Y003959D01*
X032708Y003872D01*
X032795Y003872D01*
X032882Y003959D01*
X032882Y004132D01*
X032968Y004219D01*
X033055Y004219D01*
X033142Y004132D01*
X033142Y003959D01*
X033055Y003872D01*
X032968Y003872D01*
X032882Y003959D01*
X032882Y004132D02*
X032795Y004219D01*
X032708Y004219D01*
X033142Y004388D02*
X032795Y004735D01*
X033142Y004735D02*
X033142Y004388D01*
X032882Y003703D02*
X032968Y003617D01*
X032968Y003356D01*
X032968Y003188D02*
X033055Y003188D01*
X033142Y003101D01*
X033142Y002927D01*
X033055Y002841D01*
X033142Y002672D02*
X033142Y002325D01*
X032621Y002325D01*
X032621Y002672D01*
X032708Y002841D02*
X032621Y002927D01*
X032621Y003101D01*
X032708Y003188D01*
X032621Y003356D02*
X032621Y003617D01*
X032708Y003703D01*
X032882Y003703D01*
X033142Y003356D02*
X032621Y003356D01*
X032882Y003101D02*
X032968Y003188D01*
X032882Y003101D02*
X032882Y002927D01*
X032795Y002841D01*
X032708Y002841D01*
X032882Y002498D02*
X032882Y002325D01*
X032708Y005077D02*
X032621Y005250D01*
X032882Y005934D02*
X032882Y006281D01*
X032795Y006450D02*
X032621Y006624D01*
X033142Y006624D01*
X033142Y006797D02*
X033142Y006450D01*
X033142Y006966D02*
X032795Y007313D01*
X032708Y007313D01*
X032621Y007226D01*
X032621Y007053D01*
X032708Y006966D01*
X033142Y006966D02*
X033142Y007313D01*
D16*
X033124Y001810D02*
X033104Y001785D01*
X033081Y001762D01*
X033056Y001741D01*
X033029Y001724D01*
X032999Y001710D01*
X032969Y001699D01*
X032937Y001692D01*
X032905Y001688D01*
X032873Y001688D01*
X032841Y001692D01*
X032809Y001699D01*
X032779Y001710D01*
X032749Y001724D01*
X032722Y001741D01*
X032697Y001762D01*
X032674Y001785D01*
X032654Y001810D01*
X032304Y001469D02*
X032338Y001429D01*
X032374Y001390D01*
X032414Y001355D01*
X032456Y001322D01*
X032501Y001293D01*
X032547Y001267D01*
X032595Y001245D01*
X032645Y001226D01*
X032696Y001211D01*
X032748Y001199D01*
X032800Y001192D01*
X032853Y001188D01*
X032907Y001189D01*
X032960Y001193D01*
X033012Y001201D01*
X033064Y001213D01*
X033115Y001229D01*
X033164Y001248D01*
X033212Y001271D01*
X033258Y001297D01*
X033302Y001327D01*
X033344Y001360D01*
X033383Y001396D01*
X033420Y001435D01*
X033453Y001476D01*
X033484Y001519D01*
X032862Y001930D02*
X032864Y001939D01*
X032869Y001946D01*
X032877Y001951D01*
X032886Y001952D01*
X032895Y001949D01*
X032902Y001943D01*
X032906Y001935D01*
X032906Y001925D01*
X032902Y001917D01*
X032895Y001911D01*
X032886Y001908D01*
X032877Y001909D01*
X032869Y001914D01*
X032864Y001921D01*
X032862Y001930D01*
X032483Y001639D02*
X032512Y001607D01*
X032544Y001576D01*
X032578Y001549D01*
X032614Y001525D01*
X032652Y001503D01*
X032692Y001486D01*
X032734Y001472D01*
X032776Y001461D01*
X032819Y001454D01*
X032863Y001451D01*
X032907Y001452D01*
X032950Y001456D01*
X032993Y001465D01*
X033035Y001477D01*
X033076Y001492D01*
X033115Y001511D01*
X033153Y001534D01*
X033188Y001560D01*
X033221Y001588D01*
X033252Y001619D01*
X033279Y001653D01*
X033304Y001689D01*
X023952Y001810D02*
X023932Y001785D01*
X023909Y001762D01*
X023884Y001741D01*
X023857Y001724D01*
X023827Y001710D01*
X023797Y001699D01*
X023765Y001692D01*
X023733Y001688D01*
X023701Y001688D01*
X023669Y001692D01*
X023637Y001699D01*
X023607Y001710D01*
X023577Y001724D01*
X023550Y001741D01*
X023525Y001762D01*
X023502Y001785D01*
X023482Y001810D01*
X023132Y001469D02*
X023166Y001429D01*
X023202Y001390D01*
X023242Y001355D01*
X023284Y001322D01*
X023329Y001293D01*
X023375Y001267D01*
X023423Y001245D01*
X023473Y001226D01*
X023524Y001211D01*
X023576Y001199D01*
X023628Y001192D01*
X023681Y001188D01*
X023735Y001189D01*
X023788Y001193D01*
X023840Y001201D01*
X023892Y001213D01*
X023943Y001229D01*
X023992Y001248D01*
X024040Y001271D01*
X024086Y001297D01*
X024130Y001327D01*
X024172Y001360D01*
X024211Y001396D01*
X024248Y001435D01*
X024281Y001476D01*
X024312Y001519D01*
X023690Y001930D02*
X023692Y001939D01*
X023697Y001946D01*
X023705Y001951D01*
X023714Y001952D01*
X023723Y001949D01*
X023730Y001943D01*
X023734Y001935D01*
X023734Y001925D01*
X023730Y001917D01*
X023723Y001911D01*
X023714Y001908D01*
X023705Y001909D01*
X023697Y001914D01*
X023692Y001921D01*
X023690Y001930D01*
X023311Y001639D02*
X023340Y001607D01*
X023372Y001576D01*
X023406Y001549D01*
X023442Y001525D01*
X023480Y001503D01*
X023520Y001486D01*
X023562Y001472D01*
X023604Y001461D01*
X023647Y001454D01*
X023691Y001451D01*
X023735Y001452D01*
X023778Y001456D01*
X023821Y001465D01*
X023863Y001477D01*
X023904Y001492D01*
X023943Y001511D01*
X023981Y001534D01*
X024016Y001560D01*
X024049Y001588D01*
X024080Y001619D01*
X024107Y001653D01*
X024132Y001689D01*
X014804Y001810D02*
X014784Y001785D01*
X014761Y001762D01*
X014736Y001741D01*
X014709Y001724D01*
X014679Y001710D01*
X014649Y001699D01*
X014617Y001692D01*
X014585Y001688D01*
X014553Y001688D01*
X014521Y001692D01*
X014489Y001699D01*
X014459Y001710D01*
X014429Y001724D01*
X014402Y001741D01*
X014377Y001762D01*
X014354Y001785D01*
X014334Y001810D01*
X013985Y001469D02*
X014019Y001429D01*
X014055Y001390D01*
X014095Y001355D01*
X014137Y001322D01*
X014182Y001293D01*
X014228Y001267D01*
X014276Y001245D01*
X014326Y001226D01*
X014377Y001211D01*
X014429Y001199D01*
X014481Y001192D01*
X014534Y001188D01*
X014588Y001189D01*
X014641Y001193D01*
X014693Y001201D01*
X014745Y001213D01*
X014796Y001229D01*
X014845Y001248D01*
X014893Y001271D01*
X014939Y001297D01*
X014983Y001327D01*
X015025Y001360D01*
X015064Y001396D01*
X015101Y001435D01*
X015134Y001476D01*
X015165Y001519D01*
X014542Y001930D02*
X014544Y001939D01*
X014549Y001946D01*
X014557Y001951D01*
X014566Y001952D01*
X014575Y001949D01*
X014582Y001943D01*
X014586Y001935D01*
X014586Y001925D01*
X014582Y001917D01*
X014575Y001911D01*
X014566Y001908D01*
X014557Y001909D01*
X014549Y001914D01*
X014544Y001921D01*
X014542Y001930D01*
X014164Y001639D02*
X014193Y001607D01*
X014225Y001576D01*
X014259Y001549D01*
X014295Y001525D01*
X014333Y001503D01*
X014373Y001486D01*
X014415Y001472D01*
X014457Y001461D01*
X014500Y001454D01*
X014544Y001451D01*
X014588Y001452D01*
X014631Y001456D01*
X014674Y001465D01*
X014716Y001477D01*
X014757Y001492D01*
X014796Y001511D01*
X014834Y001534D01*
X014869Y001560D01*
X014902Y001588D01*
X014933Y001619D01*
X014960Y001653D01*
X014985Y001689D01*
X005627Y001810D02*
X005607Y001785D01*
X005584Y001762D01*
X005559Y001741D01*
X005532Y001724D01*
X005502Y001710D01*
X005472Y001699D01*
X005440Y001692D01*
X005408Y001688D01*
X005376Y001688D01*
X005344Y001692D01*
X005312Y001699D01*
X005282Y001710D01*
X005252Y001724D01*
X005225Y001741D01*
X005200Y001762D01*
X005177Y001785D01*
X005157Y001810D01*
X004807Y001469D02*
X004841Y001429D01*
X004877Y001390D01*
X004917Y001355D01*
X004959Y001322D01*
X005004Y001293D01*
X005050Y001267D01*
X005098Y001245D01*
X005148Y001226D01*
X005199Y001211D01*
X005251Y001199D01*
X005303Y001192D01*
X005356Y001188D01*
X005410Y001189D01*
X005463Y001193D01*
X005515Y001201D01*
X005567Y001213D01*
X005618Y001229D01*
X005667Y001248D01*
X005715Y001271D01*
X005761Y001297D01*
X005805Y001327D01*
X005847Y001360D01*
X005886Y001396D01*
X005923Y001435D01*
X005956Y001476D01*
X005987Y001519D01*
X005365Y001930D02*
X005367Y001939D01*
X005372Y001946D01*
X005380Y001951D01*
X005389Y001952D01*
X005398Y001949D01*
X005405Y001943D01*
X005409Y001935D01*
X005409Y001925D01*
X005405Y001917D01*
X005398Y001911D01*
X005389Y001908D01*
X005380Y001909D01*
X005372Y001914D01*
X005367Y001921D01*
X005365Y001930D01*
X004986Y001639D02*
X005015Y001607D01*
X005047Y001576D01*
X005081Y001549D01*
X005117Y001525D01*
X005155Y001503D01*
X005195Y001486D01*
X005237Y001472D01*
X005279Y001461D01*
X005322Y001454D01*
X005366Y001451D01*
X005410Y001452D01*
X005453Y001456D01*
X005496Y001465D01*
X005538Y001477D01*
X005579Y001492D01*
X005618Y001511D01*
X005656Y001534D01*
X005691Y001560D01*
X005724Y001588D01*
X005755Y001619D01*
X005782Y001653D01*
X005807Y001689D01*
X004807Y015613D02*
X004841Y015573D01*
X004877Y015534D01*
X004917Y015499D01*
X004959Y015466D01*
X005004Y015437D01*
X005050Y015411D01*
X005098Y015389D01*
X005148Y015370D01*
X005199Y015355D01*
X005251Y015343D01*
X005303Y015336D01*
X005356Y015332D01*
X005410Y015333D01*
X005463Y015337D01*
X005515Y015345D01*
X005567Y015357D01*
X005618Y015373D01*
X005667Y015392D01*
X005715Y015415D01*
X005761Y015441D01*
X005805Y015471D01*
X005847Y015504D01*
X005886Y015540D01*
X005923Y015579D01*
X005956Y015620D01*
X005987Y015663D01*
X005365Y016074D02*
X005367Y016083D01*
X005372Y016090D01*
X005380Y016095D01*
X005389Y016096D01*
X005398Y016093D01*
X005405Y016087D01*
X005409Y016079D01*
X005409Y016069D01*
X005405Y016061D01*
X005398Y016055D01*
X005389Y016052D01*
X005380Y016053D01*
X005372Y016058D01*
X005367Y016065D01*
X005365Y016074D01*
X004986Y015783D02*
X005015Y015751D01*
X005047Y015720D01*
X005081Y015693D01*
X005117Y015669D01*
X005155Y015647D01*
X005195Y015630D01*
X005237Y015616D01*
X005279Y015605D01*
X005322Y015598D01*
X005366Y015595D01*
X005410Y015596D01*
X005453Y015600D01*
X005496Y015609D01*
X005538Y015621D01*
X005579Y015636D01*
X005618Y015655D01*
X005656Y015678D01*
X005691Y015704D01*
X005724Y015732D01*
X005755Y015763D01*
X005782Y015797D01*
X005807Y015833D01*
X005627Y015954D02*
X005607Y015929D01*
X005584Y015906D01*
X005559Y015885D01*
X005532Y015868D01*
X005502Y015854D01*
X005472Y015843D01*
X005440Y015836D01*
X005408Y015832D01*
X005376Y015832D01*
X005344Y015836D01*
X005312Y015843D01*
X005282Y015854D01*
X005252Y015868D01*
X005225Y015885D01*
X005200Y015906D01*
X005177Y015929D01*
X005157Y015954D01*
X013985Y015613D02*
X014019Y015573D01*
X014055Y015534D01*
X014095Y015499D01*
X014137Y015466D01*
X014182Y015437D01*
X014228Y015411D01*
X014276Y015389D01*
X014326Y015370D01*
X014377Y015355D01*
X014429Y015343D01*
X014481Y015336D01*
X014534Y015332D01*
X014588Y015333D01*
X014641Y015337D01*
X014693Y015345D01*
X014745Y015357D01*
X014796Y015373D01*
X014845Y015392D01*
X014893Y015415D01*
X014939Y015441D01*
X014983Y015471D01*
X015025Y015504D01*
X015064Y015540D01*
X015101Y015579D01*
X015134Y015620D01*
X015165Y015663D01*
X014542Y016074D02*
X014544Y016083D01*
X014549Y016090D01*
X014557Y016095D01*
X014566Y016096D01*
X014575Y016093D01*
X014582Y016087D01*
X014586Y016079D01*
X014586Y016069D01*
X014582Y016061D01*
X014575Y016055D01*
X014566Y016052D01*
X014557Y016053D01*
X014549Y016058D01*
X014544Y016065D01*
X014542Y016074D01*
X014164Y015783D02*
X014193Y015751D01*
X014225Y015720D01*
X014259Y015693D01*
X014295Y015669D01*
X014333Y015647D01*
X014373Y015630D01*
X014415Y015616D01*
X014457Y015605D01*
X014500Y015598D01*
X014544Y015595D01*
X014588Y015596D01*
X014631Y015600D01*
X014674Y015609D01*
X014716Y015621D01*
X014757Y015636D01*
X014796Y015655D01*
X014834Y015678D01*
X014869Y015704D01*
X014902Y015732D01*
X014933Y015763D01*
X014960Y015797D01*
X014985Y015833D01*
X014804Y015954D02*
X014784Y015929D01*
X014761Y015906D01*
X014736Y015885D01*
X014709Y015868D01*
X014679Y015854D01*
X014649Y015843D01*
X014617Y015836D01*
X014585Y015832D01*
X014553Y015832D01*
X014521Y015836D01*
X014489Y015843D01*
X014459Y015854D01*
X014429Y015868D01*
X014402Y015885D01*
X014377Y015906D01*
X014354Y015929D01*
X014334Y015954D01*
X023132Y015613D02*
X023166Y015573D01*
X023202Y015534D01*
X023242Y015499D01*
X023284Y015466D01*
X023329Y015437D01*
X023375Y015411D01*
X023423Y015389D01*
X023473Y015370D01*
X023524Y015355D01*
X023576Y015343D01*
X023628Y015336D01*
X023681Y015332D01*
X023735Y015333D01*
X023788Y015337D01*
X023840Y015345D01*
X023892Y015357D01*
X023943Y015373D01*
X023992Y015392D01*
X024040Y015415D01*
X024086Y015441D01*
X024130Y015471D01*
X024172Y015504D01*
X024211Y015540D01*
X024248Y015579D01*
X024281Y015620D01*
X024312Y015663D01*
X023690Y016074D02*
X023692Y016083D01*
X023697Y016090D01*
X023705Y016095D01*
X023714Y016096D01*
X023723Y016093D01*
X023730Y016087D01*
X023734Y016079D01*
X023734Y016069D01*
X023730Y016061D01*
X023723Y016055D01*
X023714Y016052D01*
X023705Y016053D01*
X023697Y016058D01*
X023692Y016065D01*
X023690Y016074D01*
X023311Y015783D02*
X023340Y015751D01*
X023372Y015720D01*
X023406Y015693D01*
X023442Y015669D01*
X023480Y015647D01*
X023520Y015630D01*
X023562Y015616D01*
X023604Y015605D01*
X023647Y015598D01*
X023691Y015595D01*
X023735Y015596D01*
X023778Y015600D01*
X023821Y015609D01*
X023863Y015621D01*
X023904Y015636D01*
X023943Y015655D01*
X023981Y015678D01*
X024016Y015704D01*
X024049Y015732D01*
X024080Y015763D01*
X024107Y015797D01*
X024132Y015833D01*
X023952Y015954D02*
X023932Y015929D01*
X023909Y015906D01*
X023884Y015885D01*
X023857Y015868D01*
X023827Y015854D01*
X023797Y015843D01*
X023765Y015836D01*
X023733Y015832D01*
X023701Y015832D01*
X023669Y015836D01*
X023637Y015843D01*
X023607Y015854D01*
X023577Y015868D01*
X023550Y015885D01*
X023525Y015906D01*
X023502Y015929D01*
X023482Y015954D01*
X032304Y015613D02*
X032338Y015573D01*
X032374Y015534D01*
X032414Y015499D01*
X032456Y015466D01*
X032501Y015437D01*
X032547Y015411D01*
X032595Y015389D01*
X032645Y015370D01*
X032696Y015355D01*
X032748Y015343D01*
X032800Y015336D01*
X032853Y015332D01*
X032907Y015333D01*
X032960Y015337D01*
X033012Y015345D01*
X033064Y015357D01*
X033115Y015373D01*
X033164Y015392D01*
X033212Y015415D01*
X033258Y015441D01*
X033302Y015471D01*
X033344Y015504D01*
X033383Y015540D01*
X033420Y015579D01*
X033453Y015620D01*
X033484Y015663D01*
X032862Y016074D02*
X032864Y016083D01*
X032869Y016090D01*
X032877Y016095D01*
X032886Y016096D01*
X032895Y016093D01*
X032902Y016087D01*
X032906Y016079D01*
X032906Y016069D01*
X032902Y016061D01*
X032895Y016055D01*
X032886Y016052D01*
X032877Y016053D01*
X032869Y016058D01*
X032864Y016065D01*
X032862Y016074D01*
X032483Y015783D02*
X032512Y015751D01*
X032544Y015720D01*
X032578Y015693D01*
X032614Y015669D01*
X032652Y015647D01*
X032692Y015630D01*
X032734Y015616D01*
X032776Y015605D01*
X032819Y015598D01*
X032863Y015595D01*
X032907Y015596D01*
X032950Y015600D01*
X032993Y015609D01*
X033035Y015621D01*
X033076Y015636D01*
X033115Y015655D01*
X033153Y015678D01*
X033188Y015704D01*
X033221Y015732D01*
X033252Y015763D01*
X033279Y015797D01*
X033304Y015833D01*
X033124Y015954D02*
X033104Y015929D01*
X033081Y015906D01*
X033056Y015885D01*
X033029Y015868D01*
X032999Y015854D01*
X032969Y015843D01*
X032937Y015836D01*
X032905Y015832D01*
X032873Y015832D01*
X032841Y015836D01*
X032809Y015843D01*
X032779Y015854D01*
X032749Y015868D01*
X032722Y015885D01*
X032697Y015906D01*
X032674Y015929D01*
X032654Y015954D01*
M02*
