G75*
%MOIN*%
%OFA0B0*%
%FSLAX24Y24*%
%IPPOS*%
%LPD*%
%AMOC8*
5,1,8,0,0,1.08239X$1,22.5*
%
%ADD10C,0.0000*%
%ADD11R,0.0434X0.0473*%
%ADD12R,0.0473X0.0434*%
%ADD13R,0.0490X0.0190*%
%ADD14R,0.0276X0.0316*%
%ADD15R,0.0520X0.0920*%
%ADD16R,0.1457X0.0906*%
%ADD17R,0.0276X0.0571*%
%ADD18R,0.0197X0.0532*%
%ADD19C,0.0595*%
%ADD20C,0.0477*%
%ADD21C,0.0631*%
%ADD22R,0.0631X0.0631*%
%ADD23C,0.0560*%
D10*
X000881Y000911D02*
X000881Y029051D01*
X037433Y029051D01*
X037433Y000911D01*
X000881Y000911D01*
X003893Y013966D02*
X003893Y014281D01*
X003894Y014298D01*
X003899Y014315D01*
X003906Y014330D01*
X003916Y014344D01*
X003928Y014356D01*
X003942Y014366D01*
X003957Y014373D01*
X003974Y014378D01*
X003991Y014379D01*
X004008Y014378D01*
X004025Y014373D01*
X004040Y014366D01*
X004054Y014356D01*
X004066Y014344D01*
X004076Y014330D01*
X004083Y014315D01*
X004088Y014298D01*
X004089Y014281D01*
X004090Y014281D02*
X004090Y013966D01*
X003991Y013868D02*
X003974Y013869D01*
X003957Y013874D01*
X003942Y013881D01*
X003928Y013891D01*
X003916Y013903D01*
X003906Y013917D01*
X003899Y013932D01*
X003894Y013949D01*
X003893Y013966D01*
X003991Y013868D02*
X004008Y013869D01*
X004025Y013874D01*
X004040Y013881D01*
X004054Y013891D01*
X004066Y013903D01*
X004076Y013917D01*
X004083Y013932D01*
X004088Y013949D01*
X004089Y013966D01*
X006728Y013966D02*
X006728Y014281D01*
X006729Y014298D01*
X006734Y014315D01*
X006741Y014330D01*
X006751Y014344D01*
X006763Y014356D01*
X006777Y014366D01*
X006792Y014373D01*
X006809Y014378D01*
X006826Y014379D01*
X006843Y014378D01*
X006860Y014373D01*
X006875Y014366D01*
X006889Y014356D01*
X006901Y014344D01*
X006911Y014330D01*
X006918Y014315D01*
X006923Y014298D01*
X006924Y014281D01*
X006924Y013966D01*
X006826Y013868D02*
X006809Y013869D01*
X006792Y013874D01*
X006777Y013881D01*
X006763Y013891D01*
X006751Y013903D01*
X006741Y013917D01*
X006734Y013932D01*
X006729Y013949D01*
X006728Y013966D01*
X006826Y013868D02*
X006843Y013869D01*
X006860Y013874D01*
X006875Y013881D01*
X006889Y013891D01*
X006901Y013903D01*
X006911Y013917D01*
X006918Y013932D01*
X006923Y013949D01*
X006924Y013966D01*
X013070Y013966D02*
X013070Y014281D01*
X013071Y014281D02*
X013072Y014298D01*
X013077Y014315D01*
X013084Y014330D01*
X013094Y014344D01*
X013106Y014356D01*
X013120Y014366D01*
X013135Y014373D01*
X013152Y014378D01*
X013169Y014379D01*
X013186Y014378D01*
X013203Y014373D01*
X013218Y014366D01*
X013232Y014356D01*
X013244Y014344D01*
X013254Y014330D01*
X013261Y014315D01*
X013266Y014298D01*
X013267Y014281D01*
X013267Y013966D01*
X013169Y013868D02*
X013152Y013869D01*
X013135Y013874D01*
X013120Y013881D01*
X013106Y013891D01*
X013094Y013903D01*
X013084Y013917D01*
X013077Y013932D01*
X013072Y013949D01*
X013071Y013966D01*
X013169Y013868D02*
X013186Y013869D01*
X013203Y013874D01*
X013218Y013881D01*
X013232Y013891D01*
X013244Y013903D01*
X013254Y013917D01*
X013261Y013932D01*
X013266Y013949D01*
X013267Y013966D01*
X015905Y013966D02*
X015905Y014281D01*
X015906Y014298D01*
X015911Y014315D01*
X015918Y014330D01*
X015928Y014344D01*
X015940Y014356D01*
X015954Y014366D01*
X015969Y014373D01*
X015986Y014378D01*
X016003Y014379D01*
X016020Y014378D01*
X016037Y014373D01*
X016052Y014366D01*
X016066Y014356D01*
X016078Y014344D01*
X016088Y014330D01*
X016095Y014315D01*
X016100Y014298D01*
X016101Y014281D01*
X016102Y014281D02*
X016102Y013966D01*
X016003Y013868D02*
X015986Y013869D01*
X015969Y013874D01*
X015954Y013881D01*
X015940Y013891D01*
X015928Y013903D01*
X015918Y013917D01*
X015911Y013932D01*
X015906Y013949D01*
X015905Y013966D01*
X016003Y013868D02*
X016020Y013869D01*
X016037Y013874D01*
X016052Y013881D01*
X016066Y013891D01*
X016078Y013903D01*
X016088Y013917D01*
X016095Y013932D01*
X016100Y013949D01*
X016101Y013966D01*
X022218Y013966D02*
X022218Y014281D01*
X022219Y014298D01*
X022224Y014315D01*
X022231Y014330D01*
X022241Y014344D01*
X022253Y014356D01*
X022267Y014366D01*
X022282Y014373D01*
X022299Y014378D01*
X022316Y014379D01*
X022333Y014378D01*
X022350Y014373D01*
X022365Y014366D01*
X022379Y014356D01*
X022391Y014344D01*
X022401Y014330D01*
X022408Y014315D01*
X022413Y014298D01*
X022414Y014281D01*
X022415Y014281D02*
X022415Y013966D01*
X022316Y013868D02*
X022299Y013869D01*
X022282Y013874D01*
X022267Y013881D01*
X022253Y013891D01*
X022241Y013903D01*
X022231Y013917D01*
X022224Y013932D01*
X022219Y013949D01*
X022218Y013966D01*
X022316Y013868D02*
X022333Y013869D01*
X022350Y013874D01*
X022365Y013881D01*
X022379Y013891D01*
X022391Y013903D01*
X022401Y013917D01*
X022408Y013932D01*
X022413Y013949D01*
X022414Y013966D01*
X025052Y013966D02*
X025052Y014281D01*
X025053Y014281D02*
X025054Y014298D01*
X025059Y014315D01*
X025066Y014330D01*
X025076Y014344D01*
X025088Y014356D01*
X025102Y014366D01*
X025117Y014373D01*
X025134Y014378D01*
X025151Y014379D01*
X025168Y014378D01*
X025185Y014373D01*
X025200Y014366D01*
X025214Y014356D01*
X025226Y014344D01*
X025236Y014330D01*
X025243Y014315D01*
X025248Y014298D01*
X025249Y014281D01*
X025249Y013966D01*
X025151Y013868D02*
X025134Y013869D01*
X025117Y013874D01*
X025102Y013881D01*
X025088Y013891D01*
X025076Y013903D01*
X025066Y013917D01*
X025059Y013932D01*
X025054Y013949D01*
X025053Y013966D01*
X025151Y013868D02*
X025168Y013869D01*
X025185Y013874D01*
X025200Y013881D01*
X025214Y013891D01*
X025226Y013903D01*
X025236Y013917D01*
X025243Y013932D01*
X025248Y013949D01*
X025249Y013966D01*
X031390Y013966D02*
X031390Y014281D01*
X031391Y014298D01*
X031396Y014315D01*
X031403Y014330D01*
X031413Y014344D01*
X031425Y014356D01*
X031439Y014366D01*
X031454Y014373D01*
X031471Y014378D01*
X031488Y014379D01*
X031505Y014378D01*
X031522Y014373D01*
X031537Y014366D01*
X031551Y014356D01*
X031563Y014344D01*
X031573Y014330D01*
X031580Y014315D01*
X031585Y014298D01*
X031586Y014281D01*
X031586Y013966D01*
X031488Y013868D02*
X031471Y013869D01*
X031454Y013874D01*
X031439Y013881D01*
X031425Y013891D01*
X031413Y013903D01*
X031403Y013917D01*
X031396Y013932D01*
X031391Y013949D01*
X031390Y013966D01*
X031488Y013868D02*
X031505Y013869D01*
X031522Y013874D01*
X031537Y013881D01*
X031551Y013891D01*
X031563Y013903D01*
X031573Y013917D01*
X031580Y013932D01*
X031585Y013949D01*
X031586Y013966D01*
X034224Y013966D02*
X034224Y014281D01*
X034225Y014281D02*
X034226Y014298D01*
X034231Y014315D01*
X034238Y014330D01*
X034248Y014344D01*
X034260Y014356D01*
X034274Y014366D01*
X034289Y014373D01*
X034306Y014378D01*
X034323Y014379D01*
X034340Y014378D01*
X034357Y014373D01*
X034372Y014366D01*
X034386Y014356D01*
X034398Y014344D01*
X034408Y014330D01*
X034415Y014315D01*
X034420Y014298D01*
X034421Y014281D01*
X034421Y013966D01*
X034323Y013868D02*
X034306Y013869D01*
X034289Y013874D01*
X034274Y013881D01*
X034260Y013891D01*
X034248Y013903D01*
X034238Y013917D01*
X034231Y013932D01*
X034226Y013949D01*
X034225Y013966D01*
X034323Y013868D02*
X034340Y013869D01*
X034357Y013874D01*
X034372Y013881D01*
X034386Y013891D01*
X034398Y013903D01*
X034408Y013917D01*
X034415Y013932D01*
X034420Y013949D01*
X034421Y013966D01*
X034421Y028110D02*
X034421Y028425D01*
X034323Y028523D02*
X034306Y028522D01*
X034289Y028517D01*
X034274Y028510D01*
X034260Y028500D01*
X034248Y028488D01*
X034238Y028474D01*
X034231Y028459D01*
X034226Y028442D01*
X034225Y028425D01*
X034224Y028425D02*
X034224Y028110D01*
X034225Y028110D02*
X034226Y028093D01*
X034231Y028076D01*
X034238Y028061D01*
X034248Y028047D01*
X034260Y028035D01*
X034274Y028025D01*
X034289Y028018D01*
X034306Y028013D01*
X034323Y028012D01*
X034340Y028013D01*
X034357Y028018D01*
X034372Y028025D01*
X034386Y028035D01*
X034398Y028047D01*
X034408Y028061D01*
X034415Y028076D01*
X034420Y028093D01*
X034421Y028110D01*
X034421Y028425D02*
X034420Y028442D01*
X034415Y028459D01*
X034408Y028474D01*
X034398Y028488D01*
X034386Y028500D01*
X034372Y028510D01*
X034357Y028517D01*
X034340Y028522D01*
X034323Y028523D01*
X031586Y028425D02*
X031586Y028110D01*
X031488Y028012D02*
X031471Y028013D01*
X031454Y028018D01*
X031439Y028025D01*
X031425Y028035D01*
X031413Y028047D01*
X031403Y028061D01*
X031396Y028076D01*
X031391Y028093D01*
X031390Y028110D01*
X031390Y028425D01*
X031391Y028442D01*
X031396Y028459D01*
X031403Y028474D01*
X031413Y028488D01*
X031425Y028500D01*
X031439Y028510D01*
X031454Y028517D01*
X031471Y028522D01*
X031488Y028523D01*
X031505Y028522D01*
X031522Y028517D01*
X031537Y028510D01*
X031551Y028500D01*
X031563Y028488D01*
X031573Y028474D01*
X031580Y028459D01*
X031585Y028442D01*
X031586Y028425D01*
X031586Y028110D02*
X031585Y028093D01*
X031580Y028076D01*
X031573Y028061D01*
X031563Y028047D01*
X031551Y028035D01*
X031537Y028025D01*
X031522Y028018D01*
X031505Y028013D01*
X031488Y028012D01*
X025249Y028110D02*
X025249Y028425D01*
X025151Y028523D02*
X025134Y028522D01*
X025117Y028517D01*
X025102Y028510D01*
X025088Y028500D01*
X025076Y028488D01*
X025066Y028474D01*
X025059Y028459D01*
X025054Y028442D01*
X025053Y028425D01*
X025052Y028425D02*
X025052Y028110D01*
X025053Y028110D02*
X025054Y028093D01*
X025059Y028076D01*
X025066Y028061D01*
X025076Y028047D01*
X025088Y028035D01*
X025102Y028025D01*
X025117Y028018D01*
X025134Y028013D01*
X025151Y028012D01*
X025168Y028013D01*
X025185Y028018D01*
X025200Y028025D01*
X025214Y028035D01*
X025226Y028047D01*
X025236Y028061D01*
X025243Y028076D01*
X025248Y028093D01*
X025249Y028110D01*
X025249Y028425D02*
X025248Y028442D01*
X025243Y028459D01*
X025236Y028474D01*
X025226Y028488D01*
X025214Y028500D01*
X025200Y028510D01*
X025185Y028517D01*
X025168Y028522D01*
X025151Y028523D01*
X022415Y028425D02*
X022415Y028110D01*
X022316Y028012D02*
X022299Y028013D01*
X022282Y028018D01*
X022267Y028025D01*
X022253Y028035D01*
X022241Y028047D01*
X022231Y028061D01*
X022224Y028076D01*
X022219Y028093D01*
X022218Y028110D01*
X022218Y028425D01*
X022219Y028442D01*
X022224Y028459D01*
X022231Y028474D01*
X022241Y028488D01*
X022253Y028500D01*
X022267Y028510D01*
X022282Y028517D01*
X022299Y028522D01*
X022316Y028523D01*
X022333Y028522D01*
X022350Y028517D01*
X022365Y028510D01*
X022379Y028500D01*
X022391Y028488D01*
X022401Y028474D01*
X022408Y028459D01*
X022413Y028442D01*
X022414Y028425D01*
X022414Y028110D02*
X022413Y028093D01*
X022408Y028076D01*
X022401Y028061D01*
X022391Y028047D01*
X022379Y028035D01*
X022365Y028025D01*
X022350Y028018D01*
X022333Y028013D01*
X022316Y028012D01*
X016102Y028110D02*
X016102Y028425D01*
X016003Y028523D02*
X015986Y028522D01*
X015969Y028517D01*
X015954Y028510D01*
X015940Y028500D01*
X015928Y028488D01*
X015918Y028474D01*
X015911Y028459D01*
X015906Y028442D01*
X015905Y028425D01*
X015905Y028110D01*
X015906Y028093D01*
X015911Y028076D01*
X015918Y028061D01*
X015928Y028047D01*
X015940Y028035D01*
X015954Y028025D01*
X015969Y028018D01*
X015986Y028013D01*
X016003Y028012D01*
X016020Y028013D01*
X016037Y028018D01*
X016052Y028025D01*
X016066Y028035D01*
X016078Y028047D01*
X016088Y028061D01*
X016095Y028076D01*
X016100Y028093D01*
X016101Y028110D01*
X016101Y028425D02*
X016100Y028442D01*
X016095Y028459D01*
X016088Y028474D01*
X016078Y028488D01*
X016066Y028500D01*
X016052Y028510D01*
X016037Y028517D01*
X016020Y028522D01*
X016003Y028523D01*
X013267Y028425D02*
X013267Y028110D01*
X013169Y028012D02*
X013152Y028013D01*
X013135Y028018D01*
X013120Y028025D01*
X013106Y028035D01*
X013094Y028047D01*
X013084Y028061D01*
X013077Y028076D01*
X013072Y028093D01*
X013071Y028110D01*
X013070Y028110D02*
X013070Y028425D01*
X013071Y028425D02*
X013072Y028442D01*
X013077Y028459D01*
X013084Y028474D01*
X013094Y028488D01*
X013106Y028500D01*
X013120Y028510D01*
X013135Y028517D01*
X013152Y028522D01*
X013169Y028523D01*
X013186Y028522D01*
X013203Y028517D01*
X013218Y028510D01*
X013232Y028500D01*
X013244Y028488D01*
X013254Y028474D01*
X013261Y028459D01*
X013266Y028442D01*
X013267Y028425D01*
X013267Y028110D02*
X013266Y028093D01*
X013261Y028076D01*
X013254Y028061D01*
X013244Y028047D01*
X013232Y028035D01*
X013218Y028025D01*
X013203Y028018D01*
X013186Y028013D01*
X013169Y028012D01*
X006924Y028110D02*
X006924Y028425D01*
X006826Y028523D02*
X006809Y028522D01*
X006792Y028517D01*
X006777Y028510D01*
X006763Y028500D01*
X006751Y028488D01*
X006741Y028474D01*
X006734Y028459D01*
X006729Y028442D01*
X006728Y028425D01*
X006728Y028110D01*
X006729Y028093D01*
X006734Y028076D01*
X006741Y028061D01*
X006751Y028047D01*
X006763Y028035D01*
X006777Y028025D01*
X006792Y028018D01*
X006809Y028013D01*
X006826Y028012D01*
X006843Y028013D01*
X006860Y028018D01*
X006875Y028025D01*
X006889Y028035D01*
X006901Y028047D01*
X006911Y028061D01*
X006918Y028076D01*
X006923Y028093D01*
X006924Y028110D01*
X006924Y028425D02*
X006923Y028442D01*
X006918Y028459D01*
X006911Y028474D01*
X006901Y028488D01*
X006889Y028500D01*
X006875Y028510D01*
X006860Y028517D01*
X006843Y028522D01*
X006826Y028523D01*
X004090Y028425D02*
X004090Y028110D01*
X003991Y028012D02*
X003974Y028013D01*
X003957Y028018D01*
X003942Y028025D01*
X003928Y028035D01*
X003916Y028047D01*
X003906Y028061D01*
X003899Y028076D01*
X003894Y028093D01*
X003893Y028110D01*
X003893Y028425D01*
X003894Y028442D01*
X003899Y028459D01*
X003906Y028474D01*
X003916Y028488D01*
X003928Y028500D01*
X003942Y028510D01*
X003957Y028517D01*
X003974Y028522D01*
X003991Y028523D01*
X004008Y028522D01*
X004025Y028517D01*
X004040Y028510D01*
X004054Y028500D01*
X004066Y028488D01*
X004076Y028474D01*
X004083Y028459D01*
X004088Y028442D01*
X004089Y028425D01*
X004089Y028110D02*
X004088Y028093D01*
X004083Y028076D01*
X004076Y028061D01*
X004066Y028047D01*
X004054Y028035D01*
X004040Y028025D01*
X004025Y028018D01*
X004008Y028013D01*
X003991Y028012D01*
D11*
X004281Y024389D03*
X004281Y023720D03*
X003081Y023720D03*
X003081Y024389D03*
X003131Y022889D03*
X003131Y022220D03*
X005581Y023720D03*
X005581Y024389D03*
X006781Y024389D03*
X006781Y023720D03*
X008081Y023720D03*
X008081Y024389D03*
X009381Y024389D03*
X009381Y023720D03*
X008081Y022889D03*
X008081Y022220D03*
X012258Y023720D03*
X012258Y024389D03*
X013458Y024389D03*
X013458Y023720D03*
X014758Y023720D03*
X014758Y024389D03*
X015958Y024389D03*
X015958Y023720D03*
X017258Y023720D03*
X017258Y024389D03*
X018558Y024389D03*
X018558Y023720D03*
X017258Y022889D03*
X017258Y022220D03*
X021456Y022220D03*
X021456Y022889D03*
X021406Y023720D03*
X021406Y024389D03*
X022606Y024389D03*
X022606Y023720D03*
X023906Y023720D03*
X023906Y024389D03*
X025106Y024389D03*
X025106Y023720D03*
X026406Y023720D03*
X026406Y024389D03*
X027706Y024389D03*
X027706Y023720D03*
X026406Y022889D03*
X026406Y022220D03*
X030628Y022220D03*
X030628Y022889D03*
X030578Y023720D03*
X030578Y024389D03*
X031778Y024389D03*
X031778Y023720D03*
X033078Y023720D03*
X033078Y024389D03*
X034278Y024389D03*
X034278Y023720D03*
X035578Y023720D03*
X035578Y024389D03*
X036878Y024389D03*
X036878Y023720D03*
X035578Y022889D03*
X035578Y022220D03*
X035578Y010246D03*
X035578Y009576D03*
X035578Y008746D03*
X035578Y008076D03*
X036878Y009576D03*
X036878Y010246D03*
X034278Y010246D03*
X034278Y009576D03*
X033078Y009576D03*
X033078Y010246D03*
X031778Y010246D03*
X031778Y009576D03*
X030578Y009576D03*
X030578Y010246D03*
X030628Y008746D03*
X030628Y008076D03*
X027706Y009576D03*
X027706Y010246D03*
X026406Y010246D03*
X026406Y009576D03*
X026406Y008746D03*
X026406Y008076D03*
X025106Y009576D03*
X025106Y010246D03*
X023906Y010246D03*
X023906Y009576D03*
X022606Y009576D03*
X022606Y010246D03*
X021406Y010246D03*
X021406Y009576D03*
X021456Y008746D03*
X021456Y008076D03*
X018558Y009576D03*
X018558Y010246D03*
X017258Y010246D03*
X017258Y009576D03*
X017258Y008746D03*
X017258Y008076D03*
X015958Y009576D03*
X015958Y010246D03*
X014758Y010246D03*
X014758Y009576D03*
X013458Y009576D03*
X013458Y010246D03*
X012258Y010246D03*
X012258Y009576D03*
X012308Y008746D03*
X012308Y008076D03*
X009381Y009576D03*
X009381Y010246D03*
X008081Y010246D03*
X008081Y009576D03*
X008081Y008746D03*
X008081Y008076D03*
X006781Y009576D03*
X006781Y010246D03*
X005581Y010246D03*
X005581Y009576D03*
X004281Y009576D03*
X004281Y010246D03*
X003081Y010246D03*
X003081Y009576D03*
X003131Y008746D03*
X003131Y008076D03*
X012308Y022220D03*
X012308Y022889D03*
D12*
X013458Y022939D03*
X013458Y022270D03*
X014758Y022270D03*
X014758Y022939D03*
X015958Y022939D03*
X015958Y022270D03*
X015208Y025520D03*
X015208Y026189D03*
X014108Y026189D03*
X014108Y025520D03*
X006781Y022939D03*
X006781Y022270D03*
X005581Y022270D03*
X005581Y022939D03*
X004281Y022939D03*
X004281Y022270D03*
X004931Y025520D03*
X004931Y026189D03*
X006031Y026189D03*
X006031Y025520D03*
X022606Y022939D03*
X022606Y022270D03*
X023906Y022270D03*
X023906Y022939D03*
X025106Y022939D03*
X025106Y022270D03*
X024356Y025520D03*
X024356Y026189D03*
X023256Y026189D03*
X023256Y025520D03*
X031778Y022939D03*
X031778Y022270D03*
X033078Y022270D03*
X033078Y022939D03*
X034278Y022939D03*
X034278Y022270D03*
X033528Y025520D03*
X033528Y026189D03*
X032428Y026189D03*
X032428Y025520D03*
X032428Y012046D03*
X032428Y011376D03*
X033528Y011376D03*
X033528Y012046D03*
X033078Y008796D03*
X033078Y008126D03*
X034278Y008126D03*
X034278Y008796D03*
X031778Y008796D03*
X031778Y008126D03*
X025106Y008126D03*
X025106Y008796D03*
X023906Y008796D03*
X023906Y008126D03*
X022606Y008126D03*
X022606Y008796D03*
X023256Y011376D03*
X023256Y012046D03*
X024356Y012046D03*
X024356Y011376D03*
X015958Y008796D03*
X015958Y008126D03*
X014758Y008126D03*
X014758Y008796D03*
X013458Y008796D03*
X013458Y008126D03*
X014108Y011376D03*
X014108Y012046D03*
X015208Y012046D03*
X015208Y011376D03*
X006781Y008796D03*
X006781Y008126D03*
X005581Y008126D03*
X005581Y008796D03*
X004281Y008796D03*
X004281Y008126D03*
X004931Y011376D03*
X004931Y012046D03*
X006031Y012046D03*
X006031Y011376D03*
D13*
X003336Y011686D03*
X003336Y011936D03*
X003336Y012186D03*
X003336Y012436D03*
X003336Y012686D03*
X003336Y012936D03*
X003336Y013186D03*
X003336Y013436D03*
X003336Y013686D03*
X003336Y013936D03*
X001226Y013936D03*
X001226Y013686D03*
X001226Y013436D03*
X001226Y013186D03*
X001226Y012936D03*
X001226Y012686D03*
X001226Y012436D03*
X001226Y012186D03*
X001226Y011936D03*
X001226Y011686D03*
X010403Y011686D03*
X010403Y011936D03*
X010403Y012186D03*
X010403Y012436D03*
X010403Y012686D03*
X010403Y012936D03*
X010403Y013186D03*
X010403Y013436D03*
X010403Y013686D03*
X010403Y013936D03*
X012513Y013936D03*
X012513Y013686D03*
X012513Y013436D03*
X012513Y013186D03*
X012513Y012936D03*
X012513Y012686D03*
X012513Y012436D03*
X012513Y012186D03*
X012513Y011936D03*
X012513Y011686D03*
X019551Y011686D03*
X019551Y011936D03*
X019551Y012186D03*
X019551Y012436D03*
X019551Y012686D03*
X019551Y012936D03*
X019551Y013186D03*
X019551Y013436D03*
X019551Y013686D03*
X019551Y013936D03*
X021661Y013936D03*
X021661Y013686D03*
X021661Y013436D03*
X021661Y013186D03*
X021661Y012936D03*
X021661Y012686D03*
X021661Y012436D03*
X021661Y012186D03*
X021661Y011936D03*
X021661Y011686D03*
X028723Y011686D03*
X028723Y011936D03*
X028723Y012186D03*
X028723Y012436D03*
X028723Y012686D03*
X028723Y012936D03*
X028723Y013186D03*
X028723Y013436D03*
X028723Y013686D03*
X028723Y013936D03*
X030833Y013936D03*
X030833Y013686D03*
X030833Y013436D03*
X030833Y013186D03*
X030833Y012936D03*
X030833Y012686D03*
X030833Y012436D03*
X030833Y012186D03*
X030833Y011936D03*
X030833Y011686D03*
X030833Y025830D03*
X030833Y026080D03*
X030833Y026330D03*
X030833Y026580D03*
X030833Y026830D03*
X030833Y027080D03*
X030833Y027330D03*
X030833Y027580D03*
X030833Y027830D03*
X030833Y028080D03*
X028723Y028080D03*
X028723Y027830D03*
X028723Y027580D03*
X028723Y027330D03*
X028723Y027080D03*
X028723Y026830D03*
X028723Y026580D03*
X028723Y026330D03*
X028723Y026080D03*
X028723Y025830D03*
X021661Y025830D03*
X021661Y026080D03*
X021661Y026330D03*
X021661Y026580D03*
X021661Y026830D03*
X021661Y027080D03*
X021661Y027330D03*
X021661Y027580D03*
X021661Y027830D03*
X021661Y028080D03*
X019551Y028080D03*
X019551Y027830D03*
X019551Y027580D03*
X019551Y027330D03*
X019551Y027080D03*
X019551Y026830D03*
X019551Y026580D03*
X019551Y026330D03*
X019551Y026080D03*
X019551Y025830D03*
X012513Y025830D03*
X012513Y026080D03*
X012513Y026330D03*
X012513Y026580D03*
X012513Y026830D03*
X012513Y027080D03*
X012513Y027330D03*
X012513Y027580D03*
X012513Y027830D03*
X012513Y028080D03*
X010403Y028080D03*
X010403Y027830D03*
X010403Y027580D03*
X010403Y027330D03*
X010403Y027080D03*
X010403Y026830D03*
X010403Y026580D03*
X010403Y026330D03*
X010403Y026080D03*
X010403Y025830D03*
X003336Y025830D03*
X003336Y026080D03*
X003336Y026330D03*
X003336Y026580D03*
X003336Y026830D03*
X003336Y027080D03*
X003336Y027330D03*
X003336Y027580D03*
X003336Y027830D03*
X003336Y028080D03*
X001226Y028080D03*
X001226Y027830D03*
X001226Y027580D03*
X001226Y027330D03*
X001226Y027080D03*
X001226Y026830D03*
X001226Y026580D03*
X001226Y026330D03*
X001226Y026080D03*
X001226Y025830D03*
D14*
X001664Y024589D03*
X001290Y023802D03*
X002038Y023802D03*
X010467Y023802D03*
X011215Y023802D03*
X010841Y024589D03*
X019615Y023802D03*
X020363Y023802D03*
X019989Y024589D03*
X028787Y023802D03*
X029535Y023802D03*
X029161Y024589D03*
X029161Y010445D03*
X029535Y009658D03*
X028787Y009658D03*
X020363Y009658D03*
X019615Y009658D03*
X019989Y010445D03*
X011215Y009658D03*
X010467Y009658D03*
X010841Y010445D03*
X002038Y009658D03*
X001290Y009658D03*
X001664Y010445D03*
D15*
X007571Y011591D03*
X008481Y011591D03*
X009391Y011591D03*
X016748Y011591D03*
X017658Y011591D03*
X018568Y011591D03*
X025896Y011591D03*
X026806Y011591D03*
X027716Y011591D03*
X035068Y011591D03*
X035978Y011591D03*
X036888Y011591D03*
X036888Y025735D03*
X035978Y025735D03*
X035068Y025735D03*
X027716Y025735D03*
X026806Y025735D03*
X025896Y025735D03*
X018568Y025735D03*
X017658Y025735D03*
X016748Y025735D03*
X009391Y025735D03*
X008481Y025735D03*
X007571Y025735D03*
D16*
X008481Y028175D03*
X017658Y028175D03*
X026806Y028175D03*
X035978Y028175D03*
X035978Y014031D03*
X026806Y014031D03*
X017658Y014031D03*
X008481Y014031D03*
D17*
X005724Y014242D03*
X005094Y014242D03*
X014271Y014242D03*
X014901Y014242D03*
X023419Y014242D03*
X024048Y014242D03*
X032590Y014242D03*
X033220Y014242D03*
X033220Y028385D03*
X032590Y028385D03*
X024048Y028385D03*
X023419Y028385D03*
X014901Y028385D03*
X014271Y028385D03*
X005724Y028385D03*
X005094Y028385D03*
D18*
X005153Y027332D03*
X005409Y027332D03*
X005665Y027332D03*
X005920Y027332D03*
X004897Y027332D03*
X014074Y027332D03*
X014330Y027332D03*
X014586Y027332D03*
X014842Y027332D03*
X015098Y027332D03*
X023222Y027332D03*
X023478Y027332D03*
X023733Y027332D03*
X023989Y027332D03*
X024245Y027332D03*
X032394Y027332D03*
X032649Y027332D03*
X032905Y027332D03*
X033161Y027332D03*
X033417Y027332D03*
X033417Y013189D03*
X033161Y013189D03*
X032905Y013189D03*
X032649Y013189D03*
X032394Y013189D03*
X024245Y013189D03*
X023989Y013189D03*
X023733Y013189D03*
X023478Y013189D03*
X023222Y013189D03*
X015098Y013189D03*
X014842Y013189D03*
X014586Y013189D03*
X014330Y013189D03*
X014074Y013189D03*
X005920Y013189D03*
X005665Y013189D03*
X005409Y013189D03*
X005153Y013189D03*
X004897Y013189D03*
D19*
X004454Y013179D03*
X006363Y013179D03*
X013631Y013179D03*
X015541Y013179D03*
X022779Y013179D03*
X024688Y013179D03*
X031951Y013179D03*
X033860Y013179D03*
X033860Y027322D03*
X031951Y027322D03*
X024688Y027322D03*
X022779Y027322D03*
X015541Y027322D03*
X013631Y027322D03*
X006363Y027322D03*
X004454Y027322D03*
D20*
X003991Y028049D02*
X003991Y028486D01*
X006826Y028486D02*
X006826Y028049D01*
X013169Y028049D02*
X013169Y028486D01*
X016003Y028486D02*
X016003Y028049D01*
X022316Y028049D02*
X022316Y028486D01*
X025151Y028486D02*
X025151Y028049D01*
X031488Y028049D02*
X031488Y028486D01*
X034323Y028486D02*
X034323Y028049D01*
X034323Y014342D02*
X034323Y013905D01*
X031488Y013905D02*
X031488Y014342D01*
X025151Y014342D02*
X025151Y013905D01*
X022316Y013905D02*
X022316Y014342D01*
X016003Y014342D02*
X016003Y013905D01*
X013169Y013905D02*
X013169Y014342D01*
X006826Y014342D02*
X006826Y013905D01*
X003991Y013905D02*
X003991Y014342D01*
D21*
X001381Y015905D03*
X001381Y016905D03*
X001381Y017905D03*
X001381Y018905D03*
X001381Y019905D03*
X001381Y021955D03*
X001381Y022955D03*
X009381Y022905D03*
X009381Y021905D03*
X009381Y020905D03*
X010558Y021955D03*
X010558Y022955D03*
X010558Y019905D03*
X010558Y018905D03*
X010558Y017905D03*
X009381Y017905D03*
X009381Y018905D03*
X009381Y019905D03*
X009381Y016905D03*
X009381Y015905D03*
X010558Y015905D03*
X010558Y016905D03*
X018558Y016905D03*
X018558Y015905D03*
X019706Y015905D03*
X019706Y016905D03*
X019706Y017905D03*
X019706Y018905D03*
X019706Y019905D03*
X018558Y019905D03*
X018558Y018905D03*
X018558Y017905D03*
X018558Y020905D03*
X018558Y021905D03*
X018558Y022905D03*
X019706Y022955D03*
X019706Y021955D03*
X027706Y021905D03*
X027706Y022905D03*
X028878Y022955D03*
X028878Y021955D03*
X027706Y020905D03*
X027706Y019905D03*
X027706Y018905D03*
X027706Y017905D03*
X028878Y017905D03*
X028878Y018905D03*
X028878Y019905D03*
X028878Y016905D03*
X028878Y015905D03*
X027706Y015905D03*
X027706Y016905D03*
X036878Y016905D03*
X036878Y015905D03*
X036878Y017905D03*
X036878Y018905D03*
X036878Y019905D03*
X036878Y020905D03*
X036878Y021905D03*
X036878Y022905D03*
X036878Y008761D03*
X036878Y007761D03*
X036878Y006761D03*
X036878Y005761D03*
X036878Y004761D03*
X036878Y003761D03*
X036878Y002761D03*
X036878Y001761D03*
X028878Y001761D03*
X027706Y001761D03*
X027706Y002761D03*
X027706Y003761D03*
X027706Y004761D03*
X028878Y004761D03*
X028878Y003761D03*
X028878Y002761D03*
X028878Y005761D03*
X027706Y005761D03*
X027706Y006761D03*
X027706Y007761D03*
X028878Y007811D03*
X028878Y008811D03*
X027706Y008761D03*
X019706Y008811D03*
X018558Y008761D03*
X018558Y007761D03*
X018558Y006761D03*
X018558Y005761D03*
X019706Y005761D03*
X019706Y004761D03*
X019706Y003761D03*
X019706Y002761D03*
X018558Y002761D03*
X018558Y003761D03*
X018558Y004761D03*
X018558Y001761D03*
X019706Y001761D03*
X019706Y007811D03*
X010558Y007811D03*
X009381Y007761D03*
X009381Y006761D03*
X009381Y005761D03*
X010558Y005761D03*
X010558Y004761D03*
X010558Y003761D03*
X010558Y002761D03*
X009381Y002761D03*
X009381Y003761D03*
X009381Y004761D03*
X009381Y001761D03*
X010558Y001761D03*
X010558Y008811D03*
X009381Y008761D03*
X001381Y008811D03*
X001381Y007811D03*
X001381Y005761D03*
X001381Y004761D03*
X001381Y003761D03*
X001381Y002761D03*
X001381Y001761D03*
D22*
X001381Y006761D03*
X010558Y006761D03*
X019706Y006761D03*
X028878Y006761D03*
X028878Y020905D03*
X019706Y020905D03*
X010558Y020905D03*
X001381Y020905D03*
D23*
X002013Y020987D02*
X002533Y020987D01*
X002533Y020200D02*
X002013Y020200D01*
X002013Y019412D02*
X002533Y019412D01*
X002533Y018625D02*
X002013Y018625D01*
X002013Y017837D02*
X002533Y017837D01*
X002533Y017050D02*
X002013Y017050D01*
X002013Y016263D02*
X002533Y016263D01*
X002533Y015475D02*
X002013Y015475D01*
X008241Y015475D02*
X008761Y015475D01*
X008761Y016263D02*
X008241Y016263D01*
X008241Y017050D02*
X008761Y017050D01*
X008761Y017837D02*
X008241Y017837D01*
X008241Y018625D02*
X008761Y018625D01*
X008761Y019412D02*
X008241Y019412D01*
X008241Y020200D02*
X008761Y020200D01*
X008761Y020987D02*
X008241Y020987D01*
X011190Y020987D02*
X011710Y020987D01*
X011710Y020200D02*
X011190Y020200D01*
X011190Y019412D02*
X011710Y019412D01*
X011710Y018625D02*
X011190Y018625D01*
X011190Y017837D02*
X011710Y017837D01*
X011710Y017050D02*
X011190Y017050D01*
X011190Y016263D02*
X011710Y016263D01*
X011710Y015475D02*
X011190Y015475D01*
X017419Y015475D02*
X017939Y015475D01*
X017939Y016263D02*
X017419Y016263D01*
X017419Y017050D02*
X017939Y017050D01*
X017939Y017837D02*
X017419Y017837D01*
X017419Y018625D02*
X017939Y018625D01*
X017939Y019412D02*
X017419Y019412D01*
X017419Y020200D02*
X017939Y020200D01*
X017939Y020987D02*
X017419Y020987D01*
X020337Y020987D02*
X020857Y020987D01*
X020857Y020200D02*
X020337Y020200D01*
X020337Y019412D02*
X020857Y019412D01*
X020857Y018625D02*
X020337Y018625D01*
X020337Y017837D02*
X020857Y017837D01*
X020857Y017050D02*
X020337Y017050D01*
X020337Y016263D02*
X020857Y016263D01*
X020857Y015475D02*
X020337Y015475D01*
X026566Y015475D02*
X027086Y015475D01*
X027086Y016263D02*
X026566Y016263D01*
X026566Y017050D02*
X027086Y017050D01*
X027086Y017837D02*
X026566Y017837D01*
X026566Y018625D02*
X027086Y018625D01*
X027086Y019412D02*
X026566Y019412D01*
X026566Y020200D02*
X027086Y020200D01*
X027086Y020987D02*
X026566Y020987D01*
X029509Y020987D02*
X030029Y020987D01*
X030029Y020200D02*
X029509Y020200D01*
X029509Y019412D02*
X030029Y019412D01*
X030029Y018625D02*
X029509Y018625D01*
X029509Y017837D02*
X030029Y017837D01*
X030029Y017050D02*
X029509Y017050D01*
X029509Y016263D02*
X030029Y016263D01*
X030029Y015475D02*
X029509Y015475D01*
X035738Y015475D02*
X036258Y015475D01*
X036258Y016263D02*
X035738Y016263D01*
X035738Y017050D02*
X036258Y017050D01*
X036258Y017837D02*
X035738Y017837D01*
X035738Y018625D02*
X036258Y018625D01*
X036258Y019412D02*
X035738Y019412D01*
X035738Y020200D02*
X036258Y020200D01*
X036258Y020987D02*
X035738Y020987D01*
X035738Y006843D02*
X036258Y006843D01*
X036258Y006056D02*
X035738Y006056D01*
X035738Y005269D02*
X036258Y005269D01*
X036258Y004481D02*
X035738Y004481D01*
X035738Y003694D02*
X036258Y003694D01*
X036258Y002906D02*
X035738Y002906D01*
X035738Y002119D02*
X036258Y002119D01*
X036258Y001331D02*
X035738Y001331D01*
X030029Y001331D02*
X029509Y001331D01*
X029509Y002119D02*
X030029Y002119D01*
X030029Y002906D02*
X029509Y002906D01*
X029509Y003694D02*
X030029Y003694D01*
X030029Y004481D02*
X029509Y004481D01*
X029509Y005269D02*
X030029Y005269D01*
X030029Y006056D02*
X029509Y006056D01*
X029509Y006843D02*
X030029Y006843D01*
X027086Y006843D02*
X026566Y006843D01*
X026566Y006056D02*
X027086Y006056D01*
X027086Y005269D02*
X026566Y005269D01*
X026566Y004481D02*
X027086Y004481D01*
X027086Y003694D02*
X026566Y003694D01*
X026566Y002906D02*
X027086Y002906D01*
X027086Y002119D02*
X026566Y002119D01*
X026566Y001331D02*
X027086Y001331D01*
X020857Y001331D02*
X020337Y001331D01*
X020337Y002119D02*
X020857Y002119D01*
X020857Y002906D02*
X020337Y002906D01*
X020337Y003694D02*
X020857Y003694D01*
X020857Y004481D02*
X020337Y004481D01*
X020337Y005269D02*
X020857Y005269D01*
X020857Y006056D02*
X020337Y006056D01*
X020337Y006843D02*
X020857Y006843D01*
X017939Y006843D02*
X017419Y006843D01*
X017419Y006056D02*
X017939Y006056D01*
X017939Y005269D02*
X017419Y005269D01*
X017419Y004481D02*
X017939Y004481D01*
X017939Y003694D02*
X017419Y003694D01*
X017419Y002906D02*
X017939Y002906D01*
X017939Y002119D02*
X017419Y002119D01*
X017419Y001331D02*
X017939Y001331D01*
X011710Y001331D02*
X011190Y001331D01*
X011190Y002119D02*
X011710Y002119D01*
X011710Y002906D02*
X011190Y002906D01*
X011190Y003694D02*
X011710Y003694D01*
X011710Y004481D02*
X011190Y004481D01*
X011190Y005269D02*
X011710Y005269D01*
X011710Y006056D02*
X011190Y006056D01*
X011190Y006843D02*
X011710Y006843D01*
X008761Y006843D02*
X008241Y006843D01*
X008241Y006056D02*
X008761Y006056D01*
X008761Y005269D02*
X008241Y005269D01*
X008241Y004481D02*
X008761Y004481D01*
X008761Y003694D02*
X008241Y003694D01*
X008241Y002906D02*
X008761Y002906D01*
X008761Y002119D02*
X008241Y002119D01*
X008241Y001331D02*
X008761Y001331D01*
X002533Y001331D02*
X002013Y001331D01*
X002013Y002119D02*
X002533Y002119D01*
X002533Y002906D02*
X002013Y002906D01*
X002013Y003694D02*
X002533Y003694D01*
X002533Y004481D02*
X002013Y004481D01*
X002013Y005269D02*
X002533Y005269D01*
X002533Y006056D02*
X002013Y006056D01*
X002013Y006843D02*
X002533Y006843D01*
M02*
