%
M48
M72
T01C0.0120
T02C0.0197
T03C0.0280
T04C0.0315
T05C0.0350
T06C0.0394
%
T01
X1691Y27935
X1781Y27575
X2861Y27935
X4531Y27955
X4751Y28610
X6776Y26090
X8671Y24800
X8486Y24065
X8436Y23320
X7356Y22375
X7491Y21570
X8656Y22240
X11238Y22890
X11798Y21735
X12208Y20500
X12588Y19770
X13713Y19205
X15146Y19546
X15106Y17802
X13928Y14466
X13708Y13811
X12038Y13791
X10958Y13431
X10868Y13791
X11058Y12011
X10688Y11251
X12458Y11061
X12983Y11091
X12983Y12036
X14073Y10281
X15953Y11946
X17848Y10656
X17663Y9921
X17613Y9176
X16533Y8231
X16668Y7426
X17833Y8096
X20386Y8746
X20946Y7591
X21356Y6356
X21736Y5626
X22861Y5061
X24294Y5403
X24253Y3659
X25816Y7426
X25681Y8231
X26761Y9176
X26811Y9921
X26996Y10656
X29008Y11251
X29378Y12011
X30778Y11061
X31303Y11091
X31303Y12036
X32393Y10281
X34273Y11946
X36168Y10656
X35983Y9921
X35933Y9176
X34853Y8231
X34988Y7426
X36153Y8096
X33465Y5403
X32033Y5061
X30908Y5626
X30528Y6356
X30118Y7591
X29558Y8746
X26981Y8096
X23221Y10281
X22131Y11091
X21606Y11061
X22131Y12036
X20206Y12011
X19836Y11251
X20106Y13431
X20016Y13791
X21186Y13791
X22856Y13811
X23076Y14466
X25101Y11946
X29188Y13791
X29278Y13431
X30358Y13791
X32028Y13811
X32248Y14466
X33425Y17802
X32033Y19205
X30908Y19770
X30528Y20500
X30118Y21735
X29558Y22890
X26981Y22240
X25816Y21570
X25681Y22375
X26761Y23320
X26811Y24065
X26996Y24800
X29008Y25395
X29378Y26155
X30778Y25205
X31303Y25235
X31303Y26180
X29278Y27575
X29188Y27935
X30358Y27935
X32028Y27955
X32248Y28610
X34273Y26090
X36168Y24800
X35983Y24065
X35933Y23320
X34853Y22375
X34988Y21570
X36153Y22240
X33465Y19546
X32393Y24425
X25101Y26090
X23221Y24425
X22131Y25235
X21606Y25205
X22131Y26180
X20206Y26155
X19836Y25395
X17848Y24800
X17663Y24065
X17613Y23320
X16533Y22375
X16668Y21570
X17833Y22240
X20386Y22890
X20946Y21735
X21356Y20500
X21736Y19770
X22861Y19205
X24294Y19546
X24253Y17802
X11238Y8746
X11798Y7591
X12208Y6356
X12588Y5626
X13713Y5061
X15146Y5403
X15106Y3659
X8656Y8096
X7356Y8231
X7491Y7426
X8436Y9176
X8486Y9921
X8671Y10656
X6776Y11946
X4896Y10281
X3806Y11091
X3281Y11061
X3806Y12036
X1881Y12011
X1511Y11251
X1781Y13431
X1691Y13791
X2861Y13791
X4531Y13811
X4751Y14466
X5929Y17802
X4536Y19205
X3411Y19770
X3031Y20500
X2621Y21735
X2061Y22890
X4896Y24425
X3806Y25235
X3281Y25205
X3806Y26180
X1881Y26155
X1511Y25395
X5969Y19546
X12458Y25205
X12983Y25235
X12983Y26180
X11058Y26155
X10688Y25395
X10958Y27575
X10868Y27935
X12038Y27935
X13708Y27955
X13928Y28610
X15953Y26090
X14073Y24425
X20106Y27575
X20016Y27935
X21186Y27935
X22856Y27955
X23076Y28610
X2061Y8746
X2621Y7591
X3031Y6356
X3411Y5626
X4536Y5061
X5969Y5403
X5929Y3659
X33425Y3659
T02
X3991Y14124
X6826Y14124
X13169Y14124
X16003Y14124
X22316Y14124
X25151Y14124
X31488Y14124
X34323Y14124
X34323Y28267
X31488Y28267
X25151Y28267
X22316Y28267
X16003Y28267
X13169Y28267
X6826Y28267
X3991Y28267
T03
X35738Y20987
X35738Y20200
X35738Y19412
X35738Y18625
X35738Y17837
X35738Y17050
X35738Y16263
X35738Y15475
X30029Y15475
X30029Y16263
X30029Y17050
X30029Y17837
X30029Y18625
X30029Y19412
X30029Y20200
X30029Y20987
X26566Y20987
X26566Y20200
X26566Y19412
X26566Y18625
X26566Y17837
X26566Y17050
X26566Y16263
X26566Y15475
X20857Y15475
X20857Y16263
X20857Y17050
X20857Y17837
X20857Y18625
X20857Y19412
X20857Y20200
X20857Y20987
X17419Y20987
X17419Y20200
X17419Y19412
X17419Y18625
X17419Y17837
X17419Y17050
X17419Y16263
X17419Y15475
X11710Y15475
X11710Y16263
X11710Y17050
X11710Y17837
X11710Y18625
X11710Y19412
X11710Y20200
X11710Y20987
X8241Y20987
X8241Y20200
X8241Y19412
X8241Y18625
X8241Y17837
X8241Y17050
X8241Y16263
X8241Y15475
X2533Y15475
X2533Y16263
X2533Y17050
X2533Y17837
X2533Y18625
X2533Y19412
X2533Y20200
X2533Y20987
X2533Y6843
X2533Y6056
X2533Y5269
X2533Y4481
X2533Y3694
X2533Y2906
X2533Y2119
X2533Y1331
X8241Y1331
X8241Y2119
X8241Y2906
X8241Y3694
X8241Y4481
X8241Y5269
X8241Y6056
X8241Y6843
X11710Y6843
X11710Y6056
X11710Y5269
X11710Y4481
X11710Y3694
X11710Y2906
X11710Y2119
X11710Y1331
X17419Y1331
X17419Y2119
X17419Y2906
X17419Y3694
X17419Y4481
X17419Y5269
X17419Y6056
X17419Y6843
X20857Y6843
X20857Y6056
X20857Y5269
X20857Y4481
X20857Y3694
X20857Y2906
X20857Y2119
X20857Y1331
X26566Y1331
X26566Y2119
X26566Y2906
X26566Y3694
X26566Y4481
X26566Y5269
X26566Y6056
X26566Y6843
X30029Y6843
X30029Y6056
X30029Y5269
X30029Y4481
X30029Y3694
X30029Y2906
X30029Y2119
X30029Y1331
X35738Y1331
X35738Y2119
X35738Y2906
X35738Y3694
X35738Y4481
X35738Y5269
X35738Y6056
X35738Y6843
T04
X4454Y13179
X6363Y13179
X13631Y13179
X15541Y13179
X22779Y13179
X24688Y13179
X31951Y13179
X33860Y13179
X33860Y27322
X31951Y27322
X24688Y27322
X22779Y27322
X15541Y27322
X13631Y27322
X6363Y27322
X4454Y27322
T05
X36878Y20905
X36878Y19905
X36878Y18905
X36878Y17905
X36878Y16905
X36878Y15905
X28878Y15905
X28878Y16905
X27706Y16905
X27706Y15905
X27706Y17905
X27706Y18905
X27706Y19905
X28878Y19905
X28878Y18905
X28878Y17905
X28878Y20905
X27706Y20905
X19706Y20905
X18558Y20905
X18558Y19905
X18558Y18905
X18558Y17905
X19706Y17905
X19706Y18905
X19706Y19905
X19706Y16905
X19706Y15905
X18558Y15905
X18558Y16905
X10558Y15905
X10558Y16905
X9381Y16905
X9381Y15905
X1381Y15905
X1381Y16905
X1381Y17905
X1381Y18905
X1381Y19905
X1381Y20905
X9381Y20905
X10558Y20905
X10558Y19905
X10558Y18905
X10558Y17905
X9381Y17905
X9381Y18905
X9381Y19905
X27706Y6761
X27706Y5761
X28878Y5761
X28878Y6761
X28878Y4761
X28878Y3761
X28878Y2761
X27706Y2761
X27706Y3761
X27706Y4761
X27706Y1761
X28878Y1761
X36878Y1761
X36878Y2761
X36878Y3761
X36878Y4761
X36878Y5761
X36878Y6761
X19706Y6761
X19706Y5761
X18558Y5761
X18558Y6761
X18558Y4761
X18558Y3761
X18558Y2761
X19706Y2761
X19706Y3761
X19706Y4761
X19706Y1761
X18558Y1761
X10558Y1761
X9381Y1761
X9381Y2761
X9381Y3761
X9381Y4761
X10558Y4761
X10558Y3761
X10558Y2761
X10558Y5761
X10558Y6761
X9381Y6761
X9381Y5761
X1381Y5761
X1381Y6761
X1381Y4761
X1381Y3761
X1381Y2761
X1381Y1761
T06
X1381Y7811
X1381Y8811
X36878Y8761
X36878Y7761
X28878Y7811
X27706Y7761
X27706Y8761
X28878Y8811
X19706Y8811
X18558Y8761
X18558Y7761
X19706Y7811
X10558Y7811
X9381Y7761
X9381Y8761
X10558Y8811
X10558Y21955
X10558Y22955
X9381Y22905
X9381Y21905
X1381Y22955
X1381Y21955
X36878Y22905
X36878Y21905
X28878Y21955
X28878Y22955
X27706Y22905
X27706Y21905
X19706Y21955
X19706Y22955
X18558Y22905
X18558Y21905
M30
