%
M48
M72
T01C0.0100
T02C0.0280
T03C0.0295
T04C0.0350
T05C0.0354
%
T01
X7470Y14355
X6165Y11115
X5850Y9990
X5265Y8820
X5670Y8100
X6300Y7650
X6930Y7830
X7155Y8505
X7290Y10080
X5400Y13320
X4353Y12759
X5130Y9945
X4140Y10665
X3285Y11520
X2160Y11745
X1519Y11897
X1164Y11617
X765Y10575
X1164Y12759
X1530Y13095
X2070Y13635
X2565Y14535
X2340Y9045
X2160Y8595
X2070Y8235
X2475Y7650
X3240Y8280
T02
X1832Y7687
X1832Y6900
X1832Y6112
X1832Y5325
X1832Y4537
X1832Y3750
X1832Y2963
X1832Y2175
X7540Y2175
X7540Y2963
X7540Y3750
X7540Y4537
X7540Y5325
X7540Y6112
X7540Y6900
X7540Y7687
T03
X3960Y14452
X5456Y14452
T04
X8680Y14605
X680Y14605
X680Y7605
X680Y6605
X680Y5605
X680Y4605
X680Y3605
X680Y2605
X680Y1605
X8680Y1605
X8680Y2605
X8680Y3605
X8680Y4605
X8680Y5605
X8680Y6605
X8680Y7605
T05
X3290Y15042
X3408Y14097
X6007Y14097
X6125Y15042
M30
