G04 This is an RS-274x file exported by *
G04 gerbv version 2.6.0 *
G04 More information is available about gerbv at *
G04 http://gerbv.gpleda.org/ *
G04 --End of header info--*
%MOIN*%
%FSLAX34Y34*%
%IPPOS*%
G04 --Define apertures--*
%ADD10C,0.0010*%
%ADD11C,0.0050*%
%ADD12C,0.0000*%
G04 --Start main section--*
G54D10*
G01X0001000Y0001000D02*
G01X0001000Y0032612D01*
G01X0001000Y0032612D02*
G01X0038158Y0032612D01*
G01X0038158Y0032612D02*
G01X0038158Y0001000D01*
G01X0038158Y0001000D02*
G01X0001000Y0001000D01*
G01X0000000Y0000000D02*
G01X0001000Y0016806D02*
G01X0038158Y0016806D01*
G01X0010212Y0001000D02*
G01X0010212Y0032612D01*
G01X0019579Y0001000D02*
G01X0019579Y0032612D01*
G01X0028947Y0001000D02*
G01X0028947Y0032612D01*
G01X0000000Y0000000D02*
G54D11*
G01X0004338Y0010048D02*
G01X0004699Y0010048D01*
G01X0004699Y0010048D02*
G01X0004879Y0010228D01*
G01X0004879Y0010228D02*
G01X0004699Y0010408D01*
G01X0004699Y0010408D02*
G01X0004338Y0010408D01*
G01X0004609Y0010591D02*
G01X0004609Y0010952D01*
G01X0004429Y0011135D02*
G01X0004789Y0011135D01*
G01X0004789Y0011135D02*
G01X0004879Y0011225D01*
G01X0004879Y0011225D02*
G01X0004879Y0011406D01*
G01X0004879Y0011406D02*
G01X0004789Y0011496D01*
G01X0004789Y0011679D02*
G01X0004338Y0011679D01*
G01X0004429Y0011496D02*
G01X0004338Y0011406D01*
G01X0004338Y0011406D02*
G01X0004338Y0011225D01*
G01X0004338Y0011225D02*
G01X0004429Y0011135D01*
G01X0004789Y0011679D02*
G01X0004879Y0011769D01*
G01X0004879Y0011769D02*
G01X0004879Y0011949D01*
G01X0004879Y0011949D02*
G01X0004789Y0012040D01*
G01X0004789Y0012040D02*
G01X0004338Y0012040D01*
G01X0004338Y0012223D02*
G01X0004338Y0012583D01*
G01X0004338Y0012403D02*
G01X0004879Y0012403D01*
G01X0004609Y0013310D02*
G01X0004609Y0013671D01*
G01X0004609Y0013854D02*
G01X0004609Y0014215D01*
G01X0004338Y0014398D02*
G01X0004609Y0014758D01*
G01X0004609Y0014758D02*
G01X0004879Y0014398D01*
G01X0004529Y0025402D02*
G01X0004529Y0025943D01*
G01X0004349Y0025943D02*
G01X0004709Y0025943D01*
G01X0004166Y0025943D02*
G01X0004166Y0025492D01*
G01X0004166Y0025492D02*
G01X0004075Y0025402D01*
G01X0004075Y0025402D02*
G01X0003895Y0025402D01*
G01X0003895Y0025402D02*
G01X0003805Y0025492D01*
G01X0003805Y0025492D02*
G01X0003805Y0025943D01*
G01X0003622Y0025853D02*
G01X0003532Y0025943D01*
G01X0003532Y0025943D02*
G01X0003351Y0025943D01*
G01X0003351Y0025943D02*
G01X0003261Y0025853D01*
G01X0003261Y0025853D02*
G01X0003261Y0025492D01*
G01X0003261Y0025492D02*
G01X0003351Y0025402D01*
G01X0003351Y0025402D02*
G01X0003532Y0025402D01*
G01X0003532Y0025402D02*
G01X0003622Y0025492D01*
G01X0003078Y0025672D02*
G01X0002717Y0025672D01*
G01X0002534Y0025582D02*
G01X0002354Y0025402D01*
G01X0002354Y0025402D02*
G01X0002174Y0025582D01*
G01X0002174Y0025582D02*
G01X0002174Y0025943D01*
G01X0002534Y0025943D02*
G01X0002534Y0025582D01*
G01X0005436Y0025672D02*
G01X0005797Y0025672D01*
G01X0005980Y0025672D02*
G01X0006341Y0025672D01*
G01X0006524Y0025943D02*
G01X0006884Y0025672D01*
G01X0006884Y0025672D02*
G01X0006524Y0025402D01*
G01X0011622Y0025582D02*
G01X0011803Y0025402D01*
G01X0011803Y0025402D02*
G01X0011983Y0025582D01*
G01X0011983Y0025582D02*
G01X0011983Y0025943D01*
G01X0012166Y0025672D02*
G01X0012527Y0025672D01*
G01X0012710Y0025853D02*
G01X0012710Y0025492D01*
G01X0012710Y0025492D02*
G01X0012800Y0025402D01*
G01X0012800Y0025402D02*
G01X0012980Y0025402D01*
G01X0012980Y0025402D02*
G01X0013071Y0025492D01*
G01X0013254Y0025492D02*
G01X0013344Y0025402D01*
G01X0013344Y0025402D02*
G01X0013524Y0025402D01*
G01X0013524Y0025402D02*
G01X0013614Y0025492D01*
G01X0013614Y0025492D02*
G01X0013614Y0025943D01*
G01X0013797Y0025943D02*
G01X0014158Y0025943D01*
G01X0013978Y0025943D02*
G01X0013978Y0025402D01*
G01X0013254Y0025492D02*
G01X0013254Y0025943D01*
G01X0013071Y0025853D02*
G01X0012980Y0025943D01*
G01X0012980Y0025943D02*
G01X0012800Y0025943D01*
G01X0012800Y0025943D02*
G01X0012710Y0025853D01*
G01X0011622Y0025943D02*
G01X0011622Y0025582D01*
G01X0014885Y0025672D02*
G01X0015246Y0025672D01*
G01X0015429Y0025672D02*
G01X0015789Y0025672D01*
G01X0015973Y0025943D02*
G01X0016333Y0025672D01*
G01X0016333Y0025672D02*
G01X0015973Y0025402D01*
G01X0021465Y0025582D02*
G01X0021645Y0025402D01*
G01X0021645Y0025402D02*
G01X0021826Y0025582D01*
G01X0021826Y0025582D02*
G01X0021826Y0025943D01*
G01X0022009Y0025672D02*
G01X0022369Y0025672D01*
G01X0022552Y0025853D02*
G01X0022552Y0025492D01*
G01X0022552Y0025492D02*
G01X0022643Y0025402D01*
G01X0022643Y0025402D02*
G01X0022823Y0025402D01*
G01X0022823Y0025402D02*
G01X0022913Y0025492D01*
G01X0023096Y0025492D02*
G01X0023186Y0025402D01*
G01X0023186Y0025402D02*
G01X0023367Y0025402D01*
G01X0023367Y0025402D02*
G01X0023457Y0025492D01*
G01X0023457Y0025492D02*
G01X0023457Y0025943D01*
G01X0023640Y0025943D02*
G01X0024001Y0025943D01*
G01X0023820Y0025943D02*
G01X0023820Y0025402D01*
G01X0023096Y0025492D02*
G01X0023096Y0025943D01*
G01X0022913Y0025853D02*
G01X0022823Y0025943D01*
G01X0022823Y0025943D02*
G01X0022643Y0025943D01*
G01X0022643Y0025943D02*
G01X0022552Y0025853D01*
G01X0021465Y0025943D02*
G01X0021465Y0025582D01*
G01X0024728Y0025672D02*
G01X0025088Y0025672D01*
G01X0025271Y0025672D02*
G01X0025632Y0025672D01*
G01X0025815Y0025943D02*
G01X0026176Y0025672D01*
G01X0026176Y0025672D02*
G01X0025815Y0025402D01*
G01X0032955Y0014758D02*
G01X0033226Y0014398D01*
G01X0032955Y0014215D02*
G01X0032955Y0013854D01*
G01X0032955Y0013671D02*
G01X0032955Y0013310D01*
G01X0032685Y0012583D02*
G01X0032685Y0012223D01*
G01X0032685Y0012403D02*
G01X0033226Y0012403D01*
G01X0033136Y0012040D02*
G01X0032685Y0012040D01*
G01X0032685Y0011679D02*
G01X0033136Y0011679D01*
G01X0033136Y0011679D02*
G01X0033226Y0011769D01*
G01X0033226Y0011769D02*
G01X0033226Y0011949D01*
G01X0033226Y0011949D02*
G01X0033136Y0012040D01*
G01X0033136Y0011496D02*
G01X0033226Y0011406D01*
G01X0033226Y0011406D02*
G01X0033226Y0011225D01*
G01X0033226Y0011225D02*
G01X0033136Y0011135D01*
G01X0033136Y0011135D02*
G01X0032775Y0011135D01*
G01X0032775Y0011135D02*
G01X0032685Y0011225D01*
G01X0032685Y0011225D02*
G01X0032685Y0011406D01*
G01X0032685Y0011406D02*
G01X0032775Y0011496D01*
G01X0032955Y0010952D02*
G01X0032955Y0010591D01*
G01X0033046Y0010408D02*
G01X0032685Y0010408D01*
G01X0033046Y0010408D02*
G01X0033226Y0010228D01*
G01X0033226Y0010228D02*
G01X0033046Y0010048D01*
G01X0033046Y0010048D02*
G01X0032685Y0010048D01*
G01X0032685Y0014398D02*
G01X0032955Y0014758D01*
G01X0000000Y0000000D02*
G54D12*
G01X0004012Y0015705D02*
G01X0004012Y0016020D01*
G01X0004012Y0016020D02*
G01X0004012Y0016026D01*
G01X0004012Y0016026D02*
G01X0004013Y0016032D01*
G01X0004013Y0016032D02*
G01X0004014Y0016038D01*
G01X0004014Y0016038D02*
G01X0004015Y0016044D01*
G01X0004015Y0016044D02*
G01X0004017Y0016050D01*
G01X0004017Y0016050D02*
G01X0004019Y0016056D01*
G01X0004019Y0016056D02*
G01X0004021Y0016062D01*
G01X0004021Y0016062D02*
G01X0004024Y0016067D01*
G01X0004024Y0016067D02*
G01X0004027Y0016072D01*
G01X0004027Y0016072D02*
G01X0004031Y0016078D01*
G01X0004031Y0016078D02*
G01X0004034Y0016082D01*
G01X0004034Y0016082D02*
G01X0004039Y0016087D01*
G01X0004039Y0016087D02*
G01X0004043Y0016091D01*
G01X0004043Y0016091D02*
G01X0004048Y0016096D01*
G01X0004048Y0016096D02*
G01X0004052Y0016099D01*
G01X0004052Y0016099D02*
G01X0004058Y0016103D01*
G01X0004058Y0016103D02*
G01X0004063Y0016106D01*
G01X0004063Y0016106D02*
G01X0004068Y0016109D01*
G01X0004068Y0016109D02*
G01X0004074Y0016111D01*
G01X0004074Y0016111D02*
G01X0004080Y0016113D01*
G01X0004080Y0016113D02*
G01X0004086Y0016115D01*
G01X0004086Y0016115D02*
G01X0004092Y0016116D01*
G01X0004092Y0016116D02*
G01X0004098Y0016117D01*
G01X0004098Y0016117D02*
G01X0004104Y0016118D01*
G01X0004104Y0016118D02*
G01X0004110Y0016118D01*
G01X0004110Y0016118D02*
G01X0004116Y0016118D01*
G01X0004116Y0016118D02*
G01X0004123Y0016117D01*
G01X0004123Y0016117D02*
G01X0004129Y0016116D01*
G01X0004129Y0016116D02*
G01X0004135Y0016115D01*
G01X0004135Y0016115D02*
G01X0004141Y0016113D01*
G01X0004141Y0016113D02*
G01X0004146Y0016111D01*
G01X0004146Y0016111D02*
G01X0004152Y0016109D01*
G01X0004152Y0016109D02*
G01X0004158Y0016106D01*
G01X0004158Y0016106D02*
G01X0004163Y0016103D01*
G01X0004163Y0016103D02*
G01X0004168Y0016099D01*
G01X0004168Y0016099D02*
G01X0004173Y0016096D01*
G01X0004173Y0016096D02*
G01X0004178Y0016091D01*
G01X0004178Y0016091D02*
G01X0004182Y0016087D01*
G01X0004182Y0016087D02*
G01X0004186Y0016082D01*
G01X0004186Y0016082D02*
G01X0004190Y0016078D01*
G01X0004190Y0016078D02*
G01X0004193Y0016072D01*
G01X0004193Y0016072D02*
G01X0004196Y0016067D01*
G01X0004196Y0016067D02*
G01X0004199Y0016062D01*
G01X0004199Y0016062D02*
G01X0004202Y0016056D01*
G01X0004202Y0016056D02*
G01X0004204Y0016050D01*
G01X0004204Y0016050D02*
G01X0004206Y0016044D01*
G01X0004206Y0016044D02*
G01X0004207Y0016038D01*
G01X0004207Y0016038D02*
G01X0004208Y0016032D01*
G01X0004208Y0016032D02*
G01X0004208Y0016026D01*
G01X0004208Y0016026D02*
G01X0004209Y0016020D01*
G01X0004209Y0016020D02*
G01X0004209Y0015705D01*
G01X0004110Y0015606D02*
G01X0004104Y0015607D01*
G01X0004104Y0015607D02*
G01X0004098Y0015607D01*
G01X0004098Y0015607D02*
G01X0004092Y0015608D01*
G01X0004092Y0015608D02*
G01X0004086Y0015609D01*
G01X0004086Y0015609D02*
G01X0004080Y0015611D01*
G01X0004080Y0015611D02*
G01X0004074Y0015613D01*
G01X0004074Y0015613D02*
G01X0004068Y0015616D01*
G01X0004068Y0015616D02*
G01X0004063Y0015619D01*
G01X0004063Y0015619D02*
G01X0004058Y0015622D01*
G01X0004058Y0015622D02*
G01X0004052Y0015625D01*
G01X0004052Y0015625D02*
G01X0004048Y0015629D01*
G01X0004048Y0015629D02*
G01X0004043Y0015633D01*
G01X0004043Y0015633D02*
G01X0004039Y0015637D01*
G01X0004039Y0015637D02*
G01X0004034Y0015642D01*
G01X0004034Y0015642D02*
G01X0004031Y0015647D01*
G01X0004031Y0015647D02*
G01X0004027Y0015652D01*
G01X0004027Y0015652D02*
G01X0004024Y0015657D01*
G01X0004024Y0015657D02*
G01X0004021Y0015663D01*
G01X0004021Y0015663D02*
G01X0004019Y0015669D01*
G01X0004019Y0015669D02*
G01X0004017Y0015674D01*
G01X0004017Y0015674D02*
G01X0004015Y0015680D01*
G01X0004015Y0015680D02*
G01X0004014Y0015686D01*
G01X0004014Y0015686D02*
G01X0004013Y0015692D01*
G01X0004013Y0015692D02*
G01X0004012Y0015699D01*
G01X0004012Y0015699D02*
G01X0004012Y0015705D01*
G01X0004110Y0015606D02*
G01X0004116Y0015607D01*
G01X0004116Y0015607D02*
G01X0004123Y0015607D01*
G01X0004123Y0015607D02*
G01X0004129Y0015608D01*
G01X0004129Y0015608D02*
G01X0004135Y0015609D01*
G01X0004135Y0015609D02*
G01X0004141Y0015611D01*
G01X0004141Y0015611D02*
G01X0004146Y0015613D01*
G01X0004146Y0015613D02*
G01X0004152Y0015616D01*
G01X0004152Y0015616D02*
G01X0004158Y0015619D01*
G01X0004158Y0015619D02*
G01X0004163Y0015622D01*
G01X0004163Y0015622D02*
G01X0004168Y0015625D01*
G01X0004168Y0015625D02*
G01X0004173Y0015629D01*
G01X0004173Y0015629D02*
G01X0004178Y0015633D01*
G01X0004178Y0015633D02*
G01X0004182Y0015637D01*
G01X0004182Y0015637D02*
G01X0004186Y0015642D01*
G01X0004186Y0015642D02*
G01X0004190Y0015647D01*
G01X0004190Y0015647D02*
G01X0004193Y0015652D01*
G01X0004193Y0015652D02*
G01X0004196Y0015657D01*
G01X0004196Y0015657D02*
G01X0004199Y0015663D01*
G01X0004199Y0015663D02*
G01X0004202Y0015669D01*
G01X0004202Y0015669D02*
G01X0004204Y0015674D01*
G01X0004204Y0015674D02*
G01X0004206Y0015680D01*
G01X0004206Y0015680D02*
G01X0004207Y0015686D01*
G01X0004207Y0015686D02*
G01X0004208Y0015692D01*
G01X0004208Y0015692D02*
G01X0004208Y0015699D01*
G01X0004208Y0015699D02*
G01X0004209Y0015705D01*
G01X0006847Y0015705D02*
G01X0006847Y0016020D01*
G01X0006847Y0016020D02*
G01X0006847Y0016026D01*
G01X0006847Y0016026D02*
G01X0006847Y0016032D01*
G01X0006847Y0016032D02*
G01X0006848Y0016038D01*
G01X0006848Y0016038D02*
G01X0006850Y0016044D01*
G01X0006850Y0016044D02*
G01X0006851Y0016050D01*
G01X0006851Y0016050D02*
G01X0006853Y0016056D01*
G01X0006853Y0016056D02*
G01X0006856Y0016062D01*
G01X0006856Y0016062D02*
G01X0006859Y0016067D01*
G01X0006859Y0016067D02*
G01X0006862Y0016072D01*
G01X0006862Y0016072D02*
G01X0006865Y0016078D01*
G01X0006865Y0016078D02*
G01X0006869Y0016082D01*
G01X0006869Y0016082D02*
G01X0006873Y0016087D01*
G01X0006873Y0016087D02*
G01X0006878Y0016091D01*
G01X0006878Y0016091D02*
G01X0006882Y0016096D01*
G01X0006882Y0016096D02*
G01X0006887Y0016099D01*
G01X0006887Y0016099D02*
G01X0006892Y0016103D01*
G01X0006892Y0016103D02*
G01X0006898Y0016106D01*
G01X0006898Y0016106D02*
G01X0006903Y0016109D01*
G01X0006903Y0016109D02*
G01X0006909Y0016111D01*
G01X0006909Y0016111D02*
G01X0006915Y0016113D01*
G01X0006915Y0016113D02*
G01X0006920Y0016115D01*
G01X0006920Y0016115D02*
G01X0006927Y0016116D01*
G01X0006927Y0016116D02*
G01X0006933Y0016117D01*
G01X0006933Y0016117D02*
G01X0006939Y0016118D01*
G01X0006939Y0016118D02*
G01X0006945Y0016118D01*
G01X0006945Y0016118D02*
G01X0006951Y0016118D01*
G01X0006951Y0016118D02*
G01X0006957Y0016117D01*
G01X0006957Y0016117D02*
G01X0006963Y0016116D01*
G01X0006963Y0016116D02*
G01X0006969Y0016115D01*
G01X0006969Y0016115D02*
G01X0006975Y0016113D01*
G01X0006975Y0016113D02*
G01X0006981Y0016111D01*
G01X0006981Y0016111D02*
G01X0006987Y0016109D01*
G01X0006987Y0016109D02*
G01X0006992Y0016106D01*
G01X0006992Y0016106D02*
G01X0006998Y0016103D01*
G01X0006998Y0016103D02*
G01X0007003Y0016099D01*
G01X0007003Y0016099D02*
G01X0007008Y0016096D01*
G01X0007008Y0016096D02*
G01X0007012Y0016091D01*
G01X0007012Y0016091D02*
G01X0007017Y0016087D01*
G01X0007017Y0016087D02*
G01X0007021Y0016082D01*
G01X0007021Y0016082D02*
G01X0007025Y0016078D01*
G01X0007025Y0016078D02*
G01X0007028Y0016072D01*
G01X0007028Y0016072D02*
G01X0007031Y0016067D01*
G01X0007031Y0016067D02*
G01X0007034Y0016062D01*
G01X0007034Y0016062D02*
G01X0007036Y0016056D01*
G01X0007036Y0016056D02*
G01X0007039Y0016050D01*
G01X0007039Y0016050D02*
G01X0007040Y0016044D01*
G01X0007040Y0016044D02*
G01X0007042Y0016038D01*
G01X0007042Y0016038D02*
G01X0007043Y0016032D01*
G01X0007043Y0016032D02*
G01X0007043Y0016026D01*
G01X0007043Y0016026D02*
G01X0007043Y0016020D01*
G01X0007043Y0016020D02*
G01X0007043Y0015705D01*
G01X0006945Y0015606D02*
G01X0006939Y0015607D01*
G01X0006939Y0015607D02*
G01X0006933Y0015607D01*
G01X0006933Y0015607D02*
G01X0006927Y0015608D01*
G01X0006927Y0015608D02*
G01X0006920Y0015609D01*
G01X0006920Y0015609D02*
G01X0006915Y0015611D01*
G01X0006915Y0015611D02*
G01X0006909Y0015613D01*
G01X0006909Y0015613D02*
G01X0006903Y0015616D01*
G01X0006903Y0015616D02*
G01X0006898Y0015619D01*
G01X0006898Y0015619D02*
G01X0006892Y0015622D01*
G01X0006892Y0015622D02*
G01X0006887Y0015625D01*
G01X0006887Y0015625D02*
G01X0006882Y0015629D01*
G01X0006882Y0015629D02*
G01X0006878Y0015633D01*
G01X0006878Y0015633D02*
G01X0006873Y0015637D01*
G01X0006873Y0015637D02*
G01X0006869Y0015642D01*
G01X0006869Y0015642D02*
G01X0006865Y0015647D01*
G01X0006865Y0015647D02*
G01X0006862Y0015652D01*
G01X0006862Y0015652D02*
G01X0006859Y0015657D01*
G01X0006859Y0015657D02*
G01X0006856Y0015663D01*
G01X0006856Y0015663D02*
G01X0006853Y0015669D01*
G01X0006853Y0015669D02*
G01X0006851Y0015674D01*
G01X0006851Y0015674D02*
G01X0006850Y0015680D01*
G01X0006850Y0015680D02*
G01X0006848Y0015686D01*
G01X0006848Y0015686D02*
G01X0006847Y0015692D01*
G01X0006847Y0015692D02*
G01X0006847Y0015699D01*
G01X0006847Y0015699D02*
G01X0006847Y0015705D01*
G01X0006945Y0015606D02*
G01X0006951Y0015607D01*
G01X0006951Y0015607D02*
G01X0006957Y0015607D01*
G01X0006957Y0015607D02*
G01X0006963Y0015608D01*
G01X0006963Y0015608D02*
G01X0006969Y0015609D01*
G01X0006969Y0015609D02*
G01X0006975Y0015611D01*
G01X0006975Y0015611D02*
G01X0006981Y0015613D01*
G01X0006981Y0015613D02*
G01X0006987Y0015616D01*
G01X0006987Y0015616D02*
G01X0006992Y0015619D01*
G01X0006992Y0015619D02*
G01X0006998Y0015622D01*
G01X0006998Y0015622D02*
G01X0007003Y0015625D01*
G01X0007003Y0015625D02*
G01X0007008Y0015629D01*
G01X0007008Y0015629D02*
G01X0007012Y0015633D01*
G01X0007012Y0015633D02*
G01X0007017Y0015637D01*
G01X0007017Y0015637D02*
G01X0007021Y0015642D01*
G01X0007021Y0015642D02*
G01X0007025Y0015647D01*
G01X0007025Y0015647D02*
G01X0007028Y0015652D01*
G01X0007028Y0015652D02*
G01X0007031Y0015657D01*
G01X0007031Y0015657D02*
G01X0007034Y0015663D01*
G01X0007034Y0015663D02*
G01X0007036Y0015669D01*
G01X0007036Y0015669D02*
G01X0007039Y0015674D01*
G01X0007039Y0015674D02*
G01X0007040Y0015680D01*
G01X0007040Y0015680D02*
G01X0007042Y0015686D01*
G01X0007042Y0015686D02*
G01X0007043Y0015692D01*
G01X0007043Y0015692D02*
G01X0007043Y0015699D01*
G01X0007043Y0015699D02*
G01X0007043Y0015705D01*
G01X0004012Y0031667D02*
G01X0004012Y0031982D01*
G01X0004012Y0031982D02*
G01X0004012Y0031988D01*
G01X0004012Y0031988D02*
G01X0004013Y0031994D01*
G01X0004013Y0031994D02*
G01X0004014Y0032000D01*
G01X0004014Y0032000D02*
G01X0004015Y0032006D01*
G01X0004015Y0032006D02*
G01X0004017Y0032012D01*
G01X0004017Y0032012D02*
G01X0004019Y0032018D01*
G01X0004019Y0032018D02*
G01X0004021Y0032024D01*
G01X0004021Y0032024D02*
G01X0004024Y0032029D01*
G01X0004024Y0032029D02*
G01X0004027Y0032035D01*
G01X0004027Y0032035D02*
G01X0004031Y0032040D01*
G01X0004031Y0032040D02*
G01X0004034Y0032045D01*
G01X0004034Y0032045D02*
G01X0004039Y0032049D01*
G01X0004039Y0032049D02*
G01X0004043Y0032054D01*
G01X0004043Y0032054D02*
G01X0004048Y0032058D01*
G01X0004048Y0032058D02*
G01X0004052Y0032061D01*
G01X0004052Y0032061D02*
G01X0004058Y0032065D01*
G01X0004058Y0032065D02*
G01X0004063Y0032068D01*
G01X0004063Y0032068D02*
G01X0004068Y0032071D01*
G01X0004068Y0032071D02*
G01X0004074Y0032073D01*
G01X0004074Y0032073D02*
G01X0004080Y0032075D01*
G01X0004080Y0032075D02*
G01X0004086Y0032077D01*
G01X0004086Y0032077D02*
G01X0004092Y0032079D01*
G01X0004092Y0032079D02*
G01X0004098Y0032079D01*
G01X0004098Y0032079D02*
G01X0004104Y0032080D01*
G01X0004104Y0032080D02*
G01X0004110Y0032080D01*
G01X0004110Y0032080D02*
G01X0004116Y0032080D01*
G01X0004116Y0032080D02*
G01X0004123Y0032079D01*
G01X0004123Y0032079D02*
G01X0004129Y0032079D01*
G01X0004129Y0032079D02*
G01X0004135Y0032077D01*
G01X0004135Y0032077D02*
G01X0004141Y0032075D01*
G01X0004141Y0032075D02*
G01X0004146Y0032073D01*
G01X0004146Y0032073D02*
G01X0004152Y0032071D01*
G01X0004152Y0032071D02*
G01X0004158Y0032068D01*
G01X0004158Y0032068D02*
G01X0004163Y0032065D01*
G01X0004163Y0032065D02*
G01X0004168Y0032061D01*
G01X0004168Y0032061D02*
G01X0004173Y0032058D01*
G01X0004173Y0032058D02*
G01X0004178Y0032054D01*
G01X0004178Y0032054D02*
G01X0004182Y0032049D01*
G01X0004182Y0032049D02*
G01X0004186Y0032045D01*
G01X0004186Y0032045D02*
G01X0004190Y0032040D01*
G01X0004190Y0032040D02*
G01X0004193Y0032035D01*
G01X0004193Y0032035D02*
G01X0004196Y0032029D01*
G01X0004196Y0032029D02*
G01X0004199Y0032024D01*
G01X0004199Y0032024D02*
G01X0004202Y0032018D01*
G01X0004202Y0032018D02*
G01X0004204Y0032012D01*
G01X0004204Y0032012D02*
G01X0004206Y0032006D01*
G01X0004206Y0032006D02*
G01X0004207Y0032000D01*
G01X0004207Y0032000D02*
G01X0004208Y0031994D01*
G01X0004208Y0031994D02*
G01X0004208Y0031988D01*
G01X0004208Y0031988D02*
G01X0004209Y0031982D01*
G01X0004209Y0031982D02*
G01X0004209Y0031667D01*
G01X0004110Y0031568D02*
G01X0004104Y0031569D01*
G01X0004104Y0031569D02*
G01X0004098Y0031569D01*
G01X0004098Y0031569D02*
G01X0004092Y0031570D01*
G01X0004092Y0031570D02*
G01X0004086Y0031572D01*
G01X0004086Y0031572D02*
G01X0004080Y0031573D01*
G01X0004080Y0031573D02*
G01X0004074Y0031575D01*
G01X0004074Y0031575D02*
G01X0004068Y0031578D01*
G01X0004068Y0031578D02*
G01X0004063Y0031581D01*
G01X0004063Y0031581D02*
G01X0004058Y0031584D01*
G01X0004058Y0031584D02*
G01X0004052Y0031587D01*
G01X0004052Y0031587D02*
G01X0004048Y0031591D01*
G01X0004048Y0031591D02*
G01X0004043Y0031595D01*
G01X0004043Y0031595D02*
G01X0004039Y0031599D01*
G01X0004039Y0031599D02*
G01X0004034Y0031604D01*
G01X0004034Y0031604D02*
G01X0004031Y0031609D01*
G01X0004031Y0031609D02*
G01X0004027Y0031614D01*
G01X0004027Y0031614D02*
G01X0004024Y0031619D01*
G01X0004024Y0031619D02*
G01X0004021Y0031625D01*
G01X0004021Y0031625D02*
G01X0004019Y0031631D01*
G01X0004019Y0031631D02*
G01X0004017Y0031636D01*
G01X0004017Y0031636D02*
G01X0004015Y0031642D01*
G01X0004015Y0031642D02*
G01X0004014Y0031648D01*
G01X0004014Y0031648D02*
G01X0004013Y0031655D01*
G01X0004013Y0031655D02*
G01X0004012Y0031661D01*
G01X0004012Y0031661D02*
G01X0004012Y0031667D01*
G01X0004110Y0031568D02*
G01X0004116Y0031569D01*
G01X0004116Y0031569D02*
G01X0004123Y0031569D01*
G01X0004123Y0031569D02*
G01X0004129Y0031570D01*
G01X0004129Y0031570D02*
G01X0004135Y0031572D01*
G01X0004135Y0031572D02*
G01X0004141Y0031573D01*
G01X0004141Y0031573D02*
G01X0004146Y0031575D01*
G01X0004146Y0031575D02*
G01X0004152Y0031578D01*
G01X0004152Y0031578D02*
G01X0004158Y0031581D01*
G01X0004158Y0031581D02*
G01X0004163Y0031584D01*
G01X0004163Y0031584D02*
G01X0004168Y0031587D01*
G01X0004168Y0031587D02*
G01X0004173Y0031591D01*
G01X0004173Y0031591D02*
G01X0004178Y0031595D01*
G01X0004178Y0031595D02*
G01X0004182Y0031599D01*
G01X0004182Y0031599D02*
G01X0004186Y0031604D01*
G01X0004186Y0031604D02*
G01X0004190Y0031609D01*
G01X0004190Y0031609D02*
G01X0004193Y0031614D01*
G01X0004193Y0031614D02*
G01X0004196Y0031619D01*
G01X0004196Y0031619D02*
G01X0004199Y0031625D01*
G01X0004199Y0031625D02*
G01X0004202Y0031631D01*
G01X0004202Y0031631D02*
G01X0004204Y0031636D01*
G01X0004204Y0031636D02*
G01X0004206Y0031642D01*
G01X0004206Y0031642D02*
G01X0004207Y0031648D01*
G01X0004207Y0031648D02*
G01X0004208Y0031655D01*
G01X0004208Y0031655D02*
G01X0004208Y0031661D01*
G01X0004208Y0031661D02*
G01X0004209Y0031667D01*
G01X0006847Y0031667D02*
G01X0006847Y0031982D01*
G01X0006847Y0031982D02*
G01X0006847Y0031988D01*
G01X0006847Y0031988D02*
G01X0006847Y0031994D01*
G01X0006847Y0031994D02*
G01X0006848Y0032000D01*
G01X0006848Y0032000D02*
G01X0006850Y0032006D01*
G01X0006850Y0032006D02*
G01X0006851Y0032012D01*
G01X0006851Y0032012D02*
G01X0006853Y0032018D01*
G01X0006853Y0032018D02*
G01X0006856Y0032024D01*
G01X0006856Y0032024D02*
G01X0006859Y0032029D01*
G01X0006859Y0032029D02*
G01X0006862Y0032035D01*
G01X0006862Y0032035D02*
G01X0006865Y0032040D01*
G01X0006865Y0032040D02*
G01X0006869Y0032045D01*
G01X0006869Y0032045D02*
G01X0006873Y0032049D01*
G01X0006873Y0032049D02*
G01X0006878Y0032054D01*
G01X0006878Y0032054D02*
G01X0006882Y0032058D01*
G01X0006882Y0032058D02*
G01X0006887Y0032061D01*
G01X0006887Y0032061D02*
G01X0006892Y0032065D01*
G01X0006892Y0032065D02*
G01X0006898Y0032068D01*
G01X0006898Y0032068D02*
G01X0006903Y0032071D01*
G01X0006903Y0032071D02*
G01X0006909Y0032073D01*
G01X0006909Y0032073D02*
G01X0006915Y0032075D01*
G01X0006915Y0032075D02*
G01X0006920Y0032077D01*
G01X0006920Y0032077D02*
G01X0006927Y0032079D01*
G01X0006927Y0032079D02*
G01X0006933Y0032079D01*
G01X0006933Y0032079D02*
G01X0006939Y0032080D01*
G01X0006939Y0032080D02*
G01X0006945Y0032080D01*
G01X0006945Y0032080D02*
G01X0006951Y0032080D01*
G01X0006951Y0032080D02*
G01X0006957Y0032079D01*
G01X0006957Y0032079D02*
G01X0006963Y0032079D01*
G01X0006963Y0032079D02*
G01X0006969Y0032077D01*
G01X0006969Y0032077D02*
G01X0006975Y0032075D01*
G01X0006975Y0032075D02*
G01X0006981Y0032073D01*
G01X0006981Y0032073D02*
G01X0006987Y0032071D01*
G01X0006987Y0032071D02*
G01X0006992Y0032068D01*
G01X0006992Y0032068D02*
G01X0006998Y0032065D01*
G01X0006998Y0032065D02*
G01X0007003Y0032061D01*
G01X0007003Y0032061D02*
G01X0007008Y0032058D01*
G01X0007008Y0032058D02*
G01X0007012Y0032054D01*
G01X0007012Y0032054D02*
G01X0007017Y0032049D01*
G01X0007017Y0032049D02*
G01X0007021Y0032045D01*
G01X0007021Y0032045D02*
G01X0007025Y0032040D01*
G01X0007025Y0032040D02*
G01X0007028Y0032035D01*
G01X0007028Y0032035D02*
G01X0007031Y0032029D01*
G01X0007031Y0032029D02*
G01X0007034Y0032024D01*
G01X0007034Y0032024D02*
G01X0007036Y0032018D01*
G01X0007036Y0032018D02*
G01X0007039Y0032012D01*
G01X0007039Y0032012D02*
G01X0007040Y0032006D01*
G01X0007040Y0032006D02*
G01X0007042Y0032000D01*
G01X0007042Y0032000D02*
G01X0007043Y0031994D01*
G01X0007043Y0031994D02*
G01X0007043Y0031988D01*
G01X0007043Y0031988D02*
G01X0007043Y0031982D01*
G01X0007043Y0031982D02*
G01X0007043Y0031667D01*
G01X0006945Y0031568D02*
G01X0006939Y0031569D01*
G01X0006939Y0031569D02*
G01X0006933Y0031569D01*
G01X0006933Y0031569D02*
G01X0006927Y0031570D01*
G01X0006927Y0031570D02*
G01X0006920Y0031572D01*
G01X0006920Y0031572D02*
G01X0006915Y0031573D01*
G01X0006915Y0031573D02*
G01X0006909Y0031575D01*
G01X0006909Y0031575D02*
G01X0006903Y0031578D01*
G01X0006903Y0031578D02*
G01X0006898Y0031581D01*
G01X0006898Y0031581D02*
G01X0006892Y0031584D01*
G01X0006892Y0031584D02*
G01X0006887Y0031587D01*
G01X0006887Y0031587D02*
G01X0006882Y0031591D01*
G01X0006882Y0031591D02*
G01X0006878Y0031595D01*
G01X0006878Y0031595D02*
G01X0006873Y0031599D01*
G01X0006873Y0031599D02*
G01X0006869Y0031604D01*
G01X0006869Y0031604D02*
G01X0006865Y0031609D01*
G01X0006865Y0031609D02*
G01X0006862Y0031614D01*
G01X0006862Y0031614D02*
G01X0006859Y0031619D01*
G01X0006859Y0031619D02*
G01X0006856Y0031625D01*
G01X0006856Y0031625D02*
G01X0006853Y0031631D01*
G01X0006853Y0031631D02*
G01X0006851Y0031636D01*
G01X0006851Y0031636D02*
G01X0006850Y0031642D01*
G01X0006850Y0031642D02*
G01X0006848Y0031648D01*
G01X0006848Y0031648D02*
G01X0006847Y0031655D01*
G01X0006847Y0031655D02*
G01X0006847Y0031661D01*
G01X0006847Y0031661D02*
G01X0006847Y0031667D01*
G01X0006945Y0031568D02*
G01X0006951Y0031569D01*
G01X0006951Y0031569D02*
G01X0006957Y0031569D01*
G01X0006957Y0031569D02*
G01X0006963Y0031570D01*
G01X0006963Y0031570D02*
G01X0006969Y0031572D01*
G01X0006969Y0031572D02*
G01X0006975Y0031573D01*
G01X0006975Y0031573D02*
G01X0006981Y0031575D01*
G01X0006981Y0031575D02*
G01X0006987Y0031578D01*
G01X0006987Y0031578D02*
G01X0006992Y0031581D01*
G01X0006992Y0031581D02*
G01X0006998Y0031584D01*
G01X0006998Y0031584D02*
G01X0007003Y0031587D01*
G01X0007003Y0031587D02*
G01X0007008Y0031591D01*
G01X0007008Y0031591D02*
G01X0007012Y0031595D01*
G01X0007012Y0031595D02*
G01X0007017Y0031599D01*
G01X0007017Y0031599D02*
G01X0007021Y0031604D01*
G01X0007021Y0031604D02*
G01X0007025Y0031609D01*
G01X0007025Y0031609D02*
G01X0007028Y0031614D01*
G01X0007028Y0031614D02*
G01X0007031Y0031619D01*
G01X0007031Y0031619D02*
G01X0007034Y0031625D01*
G01X0007034Y0031625D02*
G01X0007036Y0031631D01*
G01X0007036Y0031631D02*
G01X0007039Y0031636D01*
G01X0007039Y0031636D02*
G01X0007040Y0031642D01*
G01X0007040Y0031642D02*
G01X0007042Y0031648D01*
G01X0007042Y0031648D02*
G01X0007043Y0031655D01*
G01X0007043Y0031655D02*
G01X0007043Y0031661D01*
G01X0007043Y0031661D02*
G01X0007043Y0031667D01*
G01X0013380Y0015705D02*
G01X0013380Y0016020D01*
G01X0013380Y0016020D02*
G01X0013380Y0016026D01*
G01X0013380Y0016026D02*
G01X0013380Y0016032D01*
G01X0013380Y0016032D02*
G01X0013381Y0016038D01*
G01X0013381Y0016038D02*
G01X0013383Y0016044D01*
G01X0013383Y0016044D02*
G01X0013384Y0016050D01*
G01X0013384Y0016050D02*
G01X0013386Y0016056D01*
G01X0013386Y0016056D02*
G01X0013389Y0016062D01*
G01X0013389Y0016062D02*
G01X0013392Y0016067D01*
G01X0013392Y0016067D02*
G01X0013395Y0016072D01*
G01X0013395Y0016072D02*
G01X0013398Y0016078D01*
G01X0013398Y0016078D02*
G01X0013402Y0016082D01*
G01X0013402Y0016082D02*
G01X0013406Y0016087D01*
G01X0013406Y0016087D02*
G01X0013411Y0016091D01*
G01X0013411Y0016091D02*
G01X0013415Y0016096D01*
G01X0013415Y0016096D02*
G01X0013420Y0016099D01*
G01X0013420Y0016099D02*
G01X0013425Y0016103D01*
G01X0013425Y0016103D02*
G01X0013431Y0016106D01*
G01X0013431Y0016106D02*
G01X0013436Y0016109D01*
G01X0013436Y0016109D02*
G01X0013442Y0016111D01*
G01X0013442Y0016111D02*
G01X0013447Y0016113D01*
G01X0013447Y0016113D02*
G01X0013453Y0016115D01*
G01X0013453Y0016115D02*
G01X0013460Y0016116D01*
G01X0013460Y0016116D02*
G01X0013466Y0016117D01*
G01X0013466Y0016117D02*
G01X0013472Y0016118D01*
G01X0013472Y0016118D02*
G01X0013478Y0016118D01*
G01X0013478Y0016118D02*
G01X0013484Y0016118D01*
G01X0013484Y0016118D02*
G01X0013490Y0016117D01*
G01X0013490Y0016117D02*
G01X0013496Y0016116D01*
G01X0013496Y0016116D02*
G01X0013502Y0016115D01*
G01X0013502Y0016115D02*
G01X0013508Y0016113D01*
G01X0013508Y0016113D02*
G01X0013514Y0016111D01*
G01X0013514Y0016111D02*
G01X0013520Y0016109D01*
G01X0013520Y0016109D02*
G01X0013525Y0016106D01*
G01X0013525Y0016106D02*
G01X0013531Y0016103D01*
G01X0013531Y0016103D02*
G01X0013536Y0016099D01*
G01X0013536Y0016099D02*
G01X0013541Y0016096D01*
G01X0013541Y0016096D02*
G01X0013545Y0016091D01*
G01X0013545Y0016091D02*
G01X0013550Y0016087D01*
G01X0013550Y0016087D02*
G01X0013554Y0016082D01*
G01X0013554Y0016082D02*
G01X0013558Y0016078D01*
G01X0013558Y0016078D02*
G01X0013561Y0016072D01*
G01X0013561Y0016072D02*
G01X0013564Y0016067D01*
G01X0013564Y0016067D02*
G01X0013567Y0016062D01*
G01X0013567Y0016062D02*
G01X0013569Y0016056D01*
G01X0013569Y0016056D02*
G01X0013572Y0016050D01*
G01X0013572Y0016050D02*
G01X0013573Y0016044D01*
G01X0013573Y0016044D02*
G01X0013575Y0016038D01*
G01X0013575Y0016038D02*
G01X0013576Y0016032D01*
G01X0013576Y0016032D02*
G01X0013576Y0016026D01*
G01X0013576Y0016026D02*
G01X0013576Y0016020D01*
G01X0013576Y0016020D02*
G01X0013576Y0015705D01*
G01X0013478Y0015606D02*
G01X0013472Y0015607D01*
G01X0013472Y0015607D02*
G01X0013466Y0015607D01*
G01X0013466Y0015607D02*
G01X0013460Y0015608D01*
G01X0013460Y0015608D02*
G01X0013453Y0015609D01*
G01X0013453Y0015609D02*
G01X0013447Y0015611D01*
G01X0013447Y0015611D02*
G01X0013442Y0015613D01*
G01X0013442Y0015613D02*
G01X0013436Y0015616D01*
G01X0013436Y0015616D02*
G01X0013431Y0015619D01*
G01X0013431Y0015619D02*
G01X0013425Y0015622D01*
G01X0013425Y0015622D02*
G01X0013420Y0015625D01*
G01X0013420Y0015625D02*
G01X0013415Y0015629D01*
G01X0013415Y0015629D02*
G01X0013411Y0015633D01*
G01X0013411Y0015633D02*
G01X0013406Y0015637D01*
G01X0013406Y0015637D02*
G01X0013402Y0015642D01*
G01X0013402Y0015642D02*
G01X0013398Y0015647D01*
G01X0013398Y0015647D02*
G01X0013395Y0015652D01*
G01X0013395Y0015652D02*
G01X0013392Y0015657D01*
G01X0013392Y0015657D02*
G01X0013389Y0015663D01*
G01X0013389Y0015663D02*
G01X0013386Y0015669D01*
G01X0013386Y0015669D02*
G01X0013384Y0015674D01*
G01X0013384Y0015674D02*
G01X0013383Y0015680D01*
G01X0013383Y0015680D02*
G01X0013381Y0015686D01*
G01X0013381Y0015686D02*
G01X0013380Y0015692D01*
G01X0013380Y0015692D02*
G01X0013380Y0015699D01*
G01X0013380Y0015699D02*
G01X0013380Y0015705D01*
G01X0013478Y0015606D02*
G01X0013484Y0015607D01*
G01X0013484Y0015607D02*
G01X0013490Y0015607D01*
G01X0013490Y0015607D02*
G01X0013496Y0015608D01*
G01X0013496Y0015608D02*
G01X0013502Y0015609D01*
G01X0013502Y0015609D02*
G01X0013508Y0015611D01*
G01X0013508Y0015611D02*
G01X0013514Y0015613D01*
G01X0013514Y0015613D02*
G01X0013520Y0015616D01*
G01X0013520Y0015616D02*
G01X0013525Y0015619D01*
G01X0013525Y0015619D02*
G01X0013531Y0015622D01*
G01X0013531Y0015622D02*
G01X0013536Y0015625D01*
G01X0013536Y0015625D02*
G01X0013541Y0015629D01*
G01X0013541Y0015629D02*
G01X0013545Y0015633D01*
G01X0013545Y0015633D02*
G01X0013550Y0015637D01*
G01X0013550Y0015637D02*
G01X0013554Y0015642D01*
G01X0013554Y0015642D02*
G01X0013558Y0015647D01*
G01X0013558Y0015647D02*
G01X0013561Y0015652D01*
G01X0013561Y0015652D02*
G01X0013564Y0015657D01*
G01X0013564Y0015657D02*
G01X0013567Y0015663D01*
G01X0013567Y0015663D02*
G01X0013569Y0015669D01*
G01X0013569Y0015669D02*
G01X0013572Y0015674D01*
G01X0013572Y0015674D02*
G01X0013573Y0015680D01*
G01X0013573Y0015680D02*
G01X0013575Y0015686D01*
G01X0013575Y0015686D02*
G01X0013576Y0015692D01*
G01X0013576Y0015692D02*
G01X0013576Y0015699D01*
G01X0013576Y0015699D02*
G01X0013576Y0015705D01*
G01X0016214Y0015705D02*
G01X0016214Y0016020D01*
G01X0016214Y0016020D02*
G01X0016214Y0016026D01*
G01X0016214Y0016026D02*
G01X0016215Y0016032D01*
G01X0016215Y0016032D02*
G01X0016216Y0016038D01*
G01X0016216Y0016038D02*
G01X0016217Y0016044D01*
G01X0016217Y0016044D02*
G01X0016219Y0016050D01*
G01X0016219Y0016050D02*
G01X0016221Y0016056D01*
G01X0016221Y0016056D02*
G01X0016224Y0016062D01*
G01X0016224Y0016062D02*
G01X0016226Y0016067D01*
G01X0016226Y0016067D02*
G01X0016229Y0016072D01*
G01X0016229Y0016072D02*
G01X0016233Y0016078D01*
G01X0016233Y0016078D02*
G01X0016237Y0016082D01*
G01X0016237Y0016082D02*
G01X0016241Y0016087D01*
G01X0016241Y0016087D02*
G01X0016245Y0016091D01*
G01X0016245Y0016091D02*
G01X0016250Y0016096D01*
G01X0016250Y0016096D02*
G01X0016255Y0016099D01*
G01X0016255Y0016099D02*
G01X0016260Y0016103D01*
G01X0016260Y0016103D02*
G01X0016265Y0016106D01*
G01X0016265Y0016106D02*
G01X0016271Y0016109D01*
G01X0016271Y0016109D02*
G01X0016276Y0016111D01*
G01X0016276Y0016111D02*
G01X0016282Y0016113D01*
G01X0016282Y0016113D02*
G01X0016288Y0016115D01*
G01X0016288Y0016115D02*
G01X0016294Y0016116D01*
G01X0016294Y0016116D02*
G01X0016300Y0016117D01*
G01X0016300Y0016117D02*
G01X0016306Y0016118D01*
G01X0016306Y0016118D02*
G01X0016313Y0016118D01*
G01X0016313Y0016118D02*
G01X0016319Y0016118D01*
G01X0016319Y0016118D02*
G01X0016325Y0016117D01*
G01X0016325Y0016117D02*
G01X0016331Y0016116D01*
G01X0016331Y0016116D02*
G01X0016337Y0016115D01*
G01X0016337Y0016115D02*
G01X0016343Y0016113D01*
G01X0016343Y0016113D02*
G01X0016349Y0016111D01*
G01X0016349Y0016111D02*
G01X0016355Y0016109D01*
G01X0016355Y0016109D02*
G01X0016360Y0016106D01*
G01X0016360Y0016106D02*
G01X0016365Y0016103D01*
G01X0016365Y0016103D02*
G01X0016370Y0016099D01*
G01X0016370Y0016099D02*
G01X0016375Y0016096D01*
G01X0016375Y0016096D02*
G01X0016380Y0016091D01*
G01X0016380Y0016091D02*
G01X0016384Y0016087D01*
G01X0016384Y0016087D02*
G01X0016388Y0016082D01*
G01X0016388Y0016082D02*
G01X0016392Y0016078D01*
G01X0016392Y0016078D02*
G01X0016396Y0016072D01*
G01X0016396Y0016072D02*
G01X0016399Y0016067D01*
G01X0016399Y0016067D02*
G01X0016402Y0016062D01*
G01X0016402Y0016062D02*
G01X0016404Y0016056D01*
G01X0016404Y0016056D02*
G01X0016406Y0016050D01*
G01X0016406Y0016050D02*
G01X0016408Y0016044D01*
G01X0016408Y0016044D02*
G01X0016409Y0016038D01*
G01X0016409Y0016038D02*
G01X0016410Y0016032D01*
G01X0016410Y0016032D02*
G01X0016411Y0016026D01*
G01X0016411Y0016026D02*
G01X0016411Y0016020D01*
G01X0016411Y0016020D02*
G01X0016411Y0015705D01*
G01X0016313Y0015606D02*
G01X0016306Y0015607D01*
G01X0016306Y0015607D02*
G01X0016300Y0015607D01*
G01X0016300Y0015607D02*
G01X0016294Y0015608D01*
G01X0016294Y0015608D02*
G01X0016288Y0015609D01*
G01X0016288Y0015609D02*
G01X0016282Y0015611D01*
G01X0016282Y0015611D02*
G01X0016276Y0015613D01*
G01X0016276Y0015613D02*
G01X0016271Y0015616D01*
G01X0016271Y0015616D02*
G01X0016265Y0015619D01*
G01X0016265Y0015619D02*
G01X0016260Y0015622D01*
G01X0016260Y0015622D02*
G01X0016255Y0015625D01*
G01X0016255Y0015625D02*
G01X0016250Y0015629D01*
G01X0016250Y0015629D02*
G01X0016245Y0015633D01*
G01X0016245Y0015633D02*
G01X0016241Y0015637D01*
G01X0016241Y0015637D02*
G01X0016237Y0015642D01*
G01X0016237Y0015642D02*
G01X0016233Y0015647D01*
G01X0016233Y0015647D02*
G01X0016229Y0015652D01*
G01X0016229Y0015652D02*
G01X0016226Y0015657D01*
G01X0016226Y0015657D02*
G01X0016224Y0015663D01*
G01X0016224Y0015663D02*
G01X0016221Y0015669D01*
G01X0016221Y0015669D02*
G01X0016219Y0015674D01*
G01X0016219Y0015674D02*
G01X0016217Y0015680D01*
G01X0016217Y0015680D02*
G01X0016216Y0015686D01*
G01X0016216Y0015686D02*
G01X0016215Y0015692D01*
G01X0016215Y0015692D02*
G01X0016214Y0015699D01*
G01X0016214Y0015699D02*
G01X0016214Y0015705D01*
G01X0016313Y0015606D02*
G01X0016319Y0015607D01*
G01X0016319Y0015607D02*
G01X0016325Y0015607D01*
G01X0016325Y0015607D02*
G01X0016331Y0015608D01*
G01X0016331Y0015608D02*
G01X0016337Y0015609D01*
G01X0016337Y0015609D02*
G01X0016343Y0015611D01*
G01X0016343Y0015611D02*
G01X0016349Y0015613D01*
G01X0016349Y0015613D02*
G01X0016355Y0015616D01*
G01X0016355Y0015616D02*
G01X0016360Y0015619D01*
G01X0016360Y0015619D02*
G01X0016365Y0015622D01*
G01X0016365Y0015622D02*
G01X0016370Y0015625D01*
G01X0016370Y0015625D02*
G01X0016375Y0015629D01*
G01X0016375Y0015629D02*
G01X0016380Y0015633D01*
G01X0016380Y0015633D02*
G01X0016384Y0015637D01*
G01X0016384Y0015637D02*
G01X0016388Y0015642D01*
G01X0016388Y0015642D02*
G01X0016392Y0015647D01*
G01X0016392Y0015647D02*
G01X0016396Y0015652D01*
G01X0016396Y0015652D02*
G01X0016399Y0015657D01*
G01X0016399Y0015657D02*
G01X0016402Y0015663D01*
G01X0016402Y0015663D02*
G01X0016404Y0015669D01*
G01X0016404Y0015669D02*
G01X0016406Y0015674D01*
G01X0016406Y0015674D02*
G01X0016408Y0015680D01*
G01X0016408Y0015680D02*
G01X0016409Y0015686D01*
G01X0016409Y0015686D02*
G01X0016410Y0015692D01*
G01X0016410Y0015692D02*
G01X0016411Y0015699D01*
G01X0016411Y0015699D02*
G01X0016411Y0015705D01*
G01X0013380Y0031667D02*
G01X0013380Y0031982D01*
G01X0013380Y0031982D02*
G01X0013380Y0031988D01*
G01X0013380Y0031988D02*
G01X0013380Y0031994D01*
G01X0013380Y0031994D02*
G01X0013381Y0032000D01*
G01X0013381Y0032000D02*
G01X0013383Y0032006D01*
G01X0013383Y0032006D02*
G01X0013384Y0032012D01*
G01X0013384Y0032012D02*
G01X0013386Y0032018D01*
G01X0013386Y0032018D02*
G01X0013389Y0032024D01*
G01X0013389Y0032024D02*
G01X0013392Y0032029D01*
G01X0013392Y0032029D02*
G01X0013395Y0032035D01*
G01X0013395Y0032035D02*
G01X0013398Y0032040D01*
G01X0013398Y0032040D02*
G01X0013402Y0032045D01*
G01X0013402Y0032045D02*
G01X0013406Y0032049D01*
G01X0013406Y0032049D02*
G01X0013411Y0032054D01*
G01X0013411Y0032054D02*
G01X0013415Y0032058D01*
G01X0013415Y0032058D02*
G01X0013420Y0032061D01*
G01X0013420Y0032061D02*
G01X0013425Y0032065D01*
G01X0013425Y0032065D02*
G01X0013431Y0032068D01*
G01X0013431Y0032068D02*
G01X0013436Y0032071D01*
G01X0013436Y0032071D02*
G01X0013442Y0032073D01*
G01X0013442Y0032073D02*
G01X0013447Y0032075D01*
G01X0013447Y0032075D02*
G01X0013453Y0032077D01*
G01X0013453Y0032077D02*
G01X0013460Y0032079D01*
G01X0013460Y0032079D02*
G01X0013466Y0032079D01*
G01X0013466Y0032079D02*
G01X0013472Y0032080D01*
G01X0013472Y0032080D02*
G01X0013478Y0032080D01*
G01X0013478Y0032080D02*
G01X0013484Y0032080D01*
G01X0013484Y0032080D02*
G01X0013490Y0032079D01*
G01X0013490Y0032079D02*
G01X0013496Y0032079D01*
G01X0013496Y0032079D02*
G01X0013502Y0032077D01*
G01X0013502Y0032077D02*
G01X0013508Y0032075D01*
G01X0013508Y0032075D02*
G01X0013514Y0032073D01*
G01X0013514Y0032073D02*
G01X0013520Y0032071D01*
G01X0013520Y0032071D02*
G01X0013525Y0032068D01*
G01X0013525Y0032068D02*
G01X0013531Y0032065D01*
G01X0013531Y0032065D02*
G01X0013536Y0032061D01*
G01X0013536Y0032061D02*
G01X0013541Y0032058D01*
G01X0013541Y0032058D02*
G01X0013545Y0032054D01*
G01X0013545Y0032054D02*
G01X0013550Y0032049D01*
G01X0013550Y0032049D02*
G01X0013554Y0032045D01*
G01X0013554Y0032045D02*
G01X0013558Y0032040D01*
G01X0013558Y0032040D02*
G01X0013561Y0032035D01*
G01X0013561Y0032035D02*
G01X0013564Y0032029D01*
G01X0013564Y0032029D02*
G01X0013567Y0032024D01*
G01X0013567Y0032024D02*
G01X0013569Y0032018D01*
G01X0013569Y0032018D02*
G01X0013572Y0032012D01*
G01X0013572Y0032012D02*
G01X0013573Y0032006D01*
G01X0013573Y0032006D02*
G01X0013575Y0032000D01*
G01X0013575Y0032000D02*
G01X0013576Y0031994D01*
G01X0013576Y0031994D02*
G01X0013576Y0031988D01*
G01X0013576Y0031988D02*
G01X0013576Y0031982D01*
G01X0013576Y0031982D02*
G01X0013576Y0031667D01*
G01X0013478Y0031568D02*
G01X0013472Y0031569D01*
G01X0013472Y0031569D02*
G01X0013466Y0031569D01*
G01X0013466Y0031569D02*
G01X0013460Y0031570D01*
G01X0013460Y0031570D02*
G01X0013453Y0031572D01*
G01X0013453Y0031572D02*
G01X0013447Y0031573D01*
G01X0013447Y0031573D02*
G01X0013442Y0031575D01*
G01X0013442Y0031575D02*
G01X0013436Y0031578D01*
G01X0013436Y0031578D02*
G01X0013431Y0031581D01*
G01X0013431Y0031581D02*
G01X0013425Y0031584D01*
G01X0013425Y0031584D02*
G01X0013420Y0031587D01*
G01X0013420Y0031587D02*
G01X0013415Y0031591D01*
G01X0013415Y0031591D02*
G01X0013411Y0031595D01*
G01X0013411Y0031595D02*
G01X0013406Y0031599D01*
G01X0013406Y0031599D02*
G01X0013402Y0031604D01*
G01X0013402Y0031604D02*
G01X0013398Y0031609D01*
G01X0013398Y0031609D02*
G01X0013395Y0031614D01*
G01X0013395Y0031614D02*
G01X0013392Y0031619D01*
G01X0013392Y0031619D02*
G01X0013389Y0031625D01*
G01X0013389Y0031625D02*
G01X0013386Y0031631D01*
G01X0013386Y0031631D02*
G01X0013384Y0031636D01*
G01X0013384Y0031636D02*
G01X0013383Y0031642D01*
G01X0013383Y0031642D02*
G01X0013381Y0031648D01*
G01X0013381Y0031648D02*
G01X0013380Y0031655D01*
G01X0013380Y0031655D02*
G01X0013380Y0031661D01*
G01X0013380Y0031661D02*
G01X0013380Y0031667D01*
G01X0013478Y0031568D02*
G01X0013484Y0031569D01*
G01X0013484Y0031569D02*
G01X0013490Y0031569D01*
G01X0013490Y0031569D02*
G01X0013496Y0031570D01*
G01X0013496Y0031570D02*
G01X0013502Y0031572D01*
G01X0013502Y0031572D02*
G01X0013508Y0031573D01*
G01X0013508Y0031573D02*
G01X0013514Y0031575D01*
G01X0013514Y0031575D02*
G01X0013520Y0031578D01*
G01X0013520Y0031578D02*
G01X0013525Y0031581D01*
G01X0013525Y0031581D02*
G01X0013531Y0031584D01*
G01X0013531Y0031584D02*
G01X0013536Y0031587D01*
G01X0013536Y0031587D02*
G01X0013541Y0031591D01*
G01X0013541Y0031591D02*
G01X0013545Y0031595D01*
G01X0013545Y0031595D02*
G01X0013550Y0031599D01*
G01X0013550Y0031599D02*
G01X0013554Y0031604D01*
G01X0013554Y0031604D02*
G01X0013558Y0031609D01*
G01X0013558Y0031609D02*
G01X0013561Y0031614D01*
G01X0013561Y0031614D02*
G01X0013564Y0031619D01*
G01X0013564Y0031619D02*
G01X0013567Y0031625D01*
G01X0013567Y0031625D02*
G01X0013569Y0031631D01*
G01X0013569Y0031631D02*
G01X0013572Y0031636D01*
G01X0013572Y0031636D02*
G01X0013573Y0031642D01*
G01X0013573Y0031642D02*
G01X0013575Y0031648D01*
G01X0013575Y0031648D02*
G01X0013576Y0031655D01*
G01X0013576Y0031655D02*
G01X0013576Y0031661D01*
G01X0013576Y0031661D02*
G01X0013576Y0031667D01*
G01X0016214Y0031667D02*
G01X0016214Y0031982D01*
G01X0016214Y0031982D02*
G01X0016214Y0031988D01*
G01X0016214Y0031988D02*
G01X0016215Y0031994D01*
G01X0016215Y0031994D02*
G01X0016216Y0032000D01*
G01X0016216Y0032000D02*
G01X0016217Y0032006D01*
G01X0016217Y0032006D02*
G01X0016219Y0032012D01*
G01X0016219Y0032012D02*
G01X0016221Y0032018D01*
G01X0016221Y0032018D02*
G01X0016224Y0032024D01*
G01X0016224Y0032024D02*
G01X0016226Y0032029D01*
G01X0016226Y0032029D02*
G01X0016229Y0032035D01*
G01X0016229Y0032035D02*
G01X0016233Y0032040D01*
G01X0016233Y0032040D02*
G01X0016237Y0032045D01*
G01X0016237Y0032045D02*
G01X0016241Y0032049D01*
G01X0016241Y0032049D02*
G01X0016245Y0032054D01*
G01X0016245Y0032054D02*
G01X0016250Y0032058D01*
G01X0016250Y0032058D02*
G01X0016255Y0032061D01*
G01X0016255Y0032061D02*
G01X0016260Y0032065D01*
G01X0016260Y0032065D02*
G01X0016265Y0032068D01*
G01X0016265Y0032068D02*
G01X0016271Y0032071D01*
G01X0016271Y0032071D02*
G01X0016276Y0032073D01*
G01X0016276Y0032073D02*
G01X0016282Y0032075D01*
G01X0016282Y0032075D02*
G01X0016288Y0032077D01*
G01X0016288Y0032077D02*
G01X0016294Y0032079D01*
G01X0016294Y0032079D02*
G01X0016300Y0032079D01*
G01X0016300Y0032079D02*
G01X0016306Y0032080D01*
G01X0016306Y0032080D02*
G01X0016313Y0032080D01*
G01X0016313Y0032080D02*
G01X0016319Y0032080D01*
G01X0016319Y0032080D02*
G01X0016325Y0032079D01*
G01X0016325Y0032079D02*
G01X0016331Y0032079D01*
G01X0016331Y0032079D02*
G01X0016337Y0032077D01*
G01X0016337Y0032077D02*
G01X0016343Y0032075D01*
G01X0016343Y0032075D02*
G01X0016349Y0032073D01*
G01X0016349Y0032073D02*
G01X0016355Y0032071D01*
G01X0016355Y0032071D02*
G01X0016360Y0032068D01*
G01X0016360Y0032068D02*
G01X0016365Y0032065D01*
G01X0016365Y0032065D02*
G01X0016370Y0032061D01*
G01X0016370Y0032061D02*
G01X0016375Y0032058D01*
G01X0016375Y0032058D02*
G01X0016380Y0032054D01*
G01X0016380Y0032054D02*
G01X0016384Y0032049D01*
G01X0016384Y0032049D02*
G01X0016388Y0032045D01*
G01X0016388Y0032045D02*
G01X0016392Y0032040D01*
G01X0016392Y0032040D02*
G01X0016396Y0032035D01*
G01X0016396Y0032035D02*
G01X0016399Y0032029D01*
G01X0016399Y0032029D02*
G01X0016402Y0032024D01*
G01X0016402Y0032024D02*
G01X0016404Y0032018D01*
G01X0016404Y0032018D02*
G01X0016406Y0032012D01*
G01X0016406Y0032012D02*
G01X0016408Y0032006D01*
G01X0016408Y0032006D02*
G01X0016409Y0032000D01*
G01X0016409Y0032000D02*
G01X0016410Y0031994D01*
G01X0016410Y0031994D02*
G01X0016411Y0031988D01*
G01X0016411Y0031988D02*
G01X0016411Y0031982D01*
G01X0016411Y0031982D02*
G01X0016411Y0031667D01*
G01X0016313Y0031568D02*
G01X0016306Y0031569D01*
G01X0016306Y0031569D02*
G01X0016300Y0031569D01*
G01X0016300Y0031569D02*
G01X0016294Y0031570D01*
G01X0016294Y0031570D02*
G01X0016288Y0031572D01*
G01X0016288Y0031572D02*
G01X0016282Y0031573D01*
G01X0016282Y0031573D02*
G01X0016276Y0031575D01*
G01X0016276Y0031575D02*
G01X0016271Y0031578D01*
G01X0016271Y0031578D02*
G01X0016265Y0031581D01*
G01X0016265Y0031581D02*
G01X0016260Y0031584D01*
G01X0016260Y0031584D02*
G01X0016255Y0031587D01*
G01X0016255Y0031587D02*
G01X0016250Y0031591D01*
G01X0016250Y0031591D02*
G01X0016245Y0031595D01*
G01X0016245Y0031595D02*
G01X0016241Y0031599D01*
G01X0016241Y0031599D02*
G01X0016237Y0031604D01*
G01X0016237Y0031604D02*
G01X0016233Y0031609D01*
G01X0016233Y0031609D02*
G01X0016229Y0031614D01*
G01X0016229Y0031614D02*
G01X0016226Y0031619D01*
G01X0016226Y0031619D02*
G01X0016224Y0031625D01*
G01X0016224Y0031625D02*
G01X0016221Y0031631D01*
G01X0016221Y0031631D02*
G01X0016219Y0031636D01*
G01X0016219Y0031636D02*
G01X0016217Y0031642D01*
G01X0016217Y0031642D02*
G01X0016216Y0031648D01*
G01X0016216Y0031648D02*
G01X0016215Y0031655D01*
G01X0016215Y0031655D02*
G01X0016214Y0031661D01*
G01X0016214Y0031661D02*
G01X0016214Y0031667D01*
G01X0016313Y0031568D02*
G01X0016319Y0031569D01*
G01X0016319Y0031569D02*
G01X0016325Y0031569D01*
G01X0016325Y0031569D02*
G01X0016331Y0031570D01*
G01X0016331Y0031570D02*
G01X0016337Y0031572D01*
G01X0016337Y0031572D02*
G01X0016343Y0031573D01*
G01X0016343Y0031573D02*
G01X0016349Y0031575D01*
G01X0016349Y0031575D02*
G01X0016355Y0031578D01*
G01X0016355Y0031578D02*
G01X0016360Y0031581D01*
G01X0016360Y0031581D02*
G01X0016365Y0031584D01*
G01X0016365Y0031584D02*
G01X0016370Y0031587D01*
G01X0016370Y0031587D02*
G01X0016375Y0031591D01*
G01X0016375Y0031591D02*
G01X0016380Y0031595D01*
G01X0016380Y0031595D02*
G01X0016384Y0031599D01*
G01X0016384Y0031599D02*
G01X0016388Y0031604D01*
G01X0016388Y0031604D02*
G01X0016392Y0031609D01*
G01X0016392Y0031609D02*
G01X0016396Y0031614D01*
G01X0016396Y0031614D02*
G01X0016399Y0031619D01*
G01X0016399Y0031619D02*
G01X0016402Y0031625D01*
G01X0016402Y0031625D02*
G01X0016404Y0031631D01*
G01X0016404Y0031631D02*
G01X0016406Y0031636D01*
G01X0016406Y0031636D02*
G01X0016408Y0031642D01*
G01X0016408Y0031642D02*
G01X0016409Y0031648D01*
G01X0016409Y0031648D02*
G01X0016410Y0031655D01*
G01X0016410Y0031655D02*
G01X0016411Y0031661D01*
G01X0016411Y0031661D02*
G01X0016411Y0031667D01*
G01X0022747Y0015705D02*
G01X0022747Y0016020D01*
G01X0022747Y0016020D02*
G01X0022747Y0016026D01*
G01X0022747Y0016026D02*
G01X0022748Y0016032D01*
G01X0022748Y0016032D02*
G01X0022749Y0016038D01*
G01X0022749Y0016038D02*
G01X0022750Y0016044D01*
G01X0022750Y0016044D02*
G01X0022752Y0016050D01*
G01X0022752Y0016050D02*
G01X0022754Y0016056D01*
G01X0022754Y0016056D02*
G01X0022757Y0016062D01*
G01X0022757Y0016062D02*
G01X0022759Y0016067D01*
G01X0022759Y0016067D02*
G01X0022763Y0016072D01*
G01X0022763Y0016072D02*
G01X0022766Y0016078D01*
G01X0022766Y0016078D02*
G01X0022770Y0016082D01*
G01X0022770Y0016082D02*
G01X0022774Y0016087D01*
G01X0022774Y0016087D02*
G01X0022778Y0016091D01*
G01X0022778Y0016091D02*
G01X0022783Y0016096D01*
G01X0022783Y0016096D02*
G01X0022788Y0016099D01*
G01X0022788Y0016099D02*
G01X0022793Y0016103D01*
G01X0022793Y0016103D02*
G01X0022798Y0016106D01*
G01X0022798Y0016106D02*
G01X0022804Y0016109D01*
G01X0022804Y0016109D02*
G01X0022809Y0016111D01*
G01X0022809Y0016111D02*
G01X0022815Y0016113D01*
G01X0022815Y0016113D02*
G01X0022821Y0016115D01*
G01X0022821Y0016115D02*
G01X0022827Y0016116D01*
G01X0022827Y0016116D02*
G01X0022833Y0016117D01*
G01X0022833Y0016117D02*
G01X0022839Y0016118D01*
G01X0022839Y0016118D02*
G01X0022846Y0016118D01*
G01X0022846Y0016118D02*
G01X0022852Y0016118D01*
G01X0022852Y0016118D02*
G01X0022858Y0016117D01*
G01X0022858Y0016117D02*
G01X0022864Y0016116D01*
G01X0022864Y0016116D02*
G01X0022870Y0016115D01*
G01X0022870Y0016115D02*
G01X0022876Y0016113D01*
G01X0022876Y0016113D02*
G01X0022882Y0016111D01*
G01X0022882Y0016111D02*
G01X0022888Y0016109D01*
G01X0022888Y0016109D02*
G01X0022893Y0016106D01*
G01X0022893Y0016106D02*
G01X0022898Y0016103D01*
G01X0022898Y0016103D02*
G01X0022903Y0016099D01*
G01X0022903Y0016099D02*
G01X0022908Y0016096D01*
G01X0022908Y0016096D02*
G01X0022913Y0016091D01*
G01X0022913Y0016091D02*
G01X0022917Y0016087D01*
G01X0022917Y0016087D02*
G01X0022921Y0016082D01*
G01X0022921Y0016082D02*
G01X0022925Y0016078D01*
G01X0022925Y0016078D02*
G01X0022929Y0016072D01*
G01X0022929Y0016072D02*
G01X0022932Y0016067D01*
G01X0022932Y0016067D02*
G01X0022935Y0016062D01*
G01X0022935Y0016062D02*
G01X0022937Y0016056D01*
G01X0022937Y0016056D02*
G01X0022939Y0016050D01*
G01X0022939Y0016050D02*
G01X0022941Y0016044D01*
G01X0022941Y0016044D02*
G01X0022942Y0016038D01*
G01X0022942Y0016038D02*
G01X0022943Y0016032D01*
G01X0022943Y0016032D02*
G01X0022944Y0016026D01*
G01X0022944Y0016026D02*
G01X0022944Y0016020D01*
G01X0022944Y0016020D02*
G01X0022944Y0015705D01*
G01X0022846Y0015606D02*
G01X0022839Y0015607D01*
G01X0022839Y0015607D02*
G01X0022833Y0015607D01*
G01X0022833Y0015607D02*
G01X0022827Y0015608D01*
G01X0022827Y0015608D02*
G01X0022821Y0015609D01*
G01X0022821Y0015609D02*
G01X0022815Y0015611D01*
G01X0022815Y0015611D02*
G01X0022809Y0015613D01*
G01X0022809Y0015613D02*
G01X0022804Y0015616D01*
G01X0022804Y0015616D02*
G01X0022798Y0015619D01*
G01X0022798Y0015619D02*
G01X0022793Y0015622D01*
G01X0022793Y0015622D02*
G01X0022788Y0015625D01*
G01X0022788Y0015625D02*
G01X0022783Y0015629D01*
G01X0022783Y0015629D02*
G01X0022778Y0015633D01*
G01X0022778Y0015633D02*
G01X0022774Y0015637D01*
G01X0022774Y0015637D02*
G01X0022770Y0015642D01*
G01X0022770Y0015642D02*
G01X0022766Y0015647D01*
G01X0022766Y0015647D02*
G01X0022763Y0015652D01*
G01X0022763Y0015652D02*
G01X0022759Y0015657D01*
G01X0022759Y0015657D02*
G01X0022757Y0015663D01*
G01X0022757Y0015663D02*
G01X0022754Y0015669D01*
G01X0022754Y0015669D02*
G01X0022752Y0015674D01*
G01X0022752Y0015674D02*
G01X0022750Y0015680D01*
G01X0022750Y0015680D02*
G01X0022749Y0015686D01*
G01X0022749Y0015686D02*
G01X0022748Y0015692D01*
G01X0022748Y0015692D02*
G01X0022747Y0015699D01*
G01X0022747Y0015699D02*
G01X0022747Y0015705D01*
G01X0022846Y0015606D02*
G01X0022852Y0015607D01*
G01X0022852Y0015607D02*
G01X0022858Y0015607D01*
G01X0022858Y0015607D02*
G01X0022864Y0015608D01*
G01X0022864Y0015608D02*
G01X0022870Y0015609D01*
G01X0022870Y0015609D02*
G01X0022876Y0015611D01*
G01X0022876Y0015611D02*
G01X0022882Y0015613D01*
G01X0022882Y0015613D02*
G01X0022888Y0015616D01*
G01X0022888Y0015616D02*
G01X0022893Y0015619D01*
G01X0022893Y0015619D02*
G01X0022898Y0015622D01*
G01X0022898Y0015622D02*
G01X0022903Y0015625D01*
G01X0022903Y0015625D02*
G01X0022908Y0015629D01*
G01X0022908Y0015629D02*
G01X0022913Y0015633D01*
G01X0022913Y0015633D02*
G01X0022917Y0015637D01*
G01X0022917Y0015637D02*
G01X0022921Y0015642D01*
G01X0022921Y0015642D02*
G01X0022925Y0015647D01*
G01X0022925Y0015647D02*
G01X0022929Y0015652D01*
G01X0022929Y0015652D02*
G01X0022932Y0015657D01*
G01X0022932Y0015657D02*
G01X0022935Y0015663D01*
G01X0022935Y0015663D02*
G01X0022937Y0015669D01*
G01X0022937Y0015669D02*
G01X0022939Y0015674D01*
G01X0022939Y0015674D02*
G01X0022941Y0015680D01*
G01X0022941Y0015680D02*
G01X0022942Y0015686D01*
G01X0022942Y0015686D02*
G01X0022943Y0015692D01*
G01X0022943Y0015692D02*
G01X0022944Y0015699D01*
G01X0022944Y0015699D02*
G01X0022944Y0015705D01*
G01X0025582Y0015705D02*
G01X0025582Y0016020D01*
G01X0025582Y0016020D02*
G01X0025582Y0016026D01*
G01X0025582Y0016026D02*
G01X0025583Y0016032D01*
G01X0025583Y0016032D02*
G01X0025584Y0016038D01*
G01X0025584Y0016038D02*
G01X0025585Y0016044D01*
G01X0025585Y0016044D02*
G01X0025587Y0016050D01*
G01X0025587Y0016050D02*
G01X0025589Y0016056D01*
G01X0025589Y0016056D02*
G01X0025591Y0016062D01*
G01X0025591Y0016062D02*
G01X0025594Y0016067D01*
G01X0025594Y0016067D02*
G01X0025597Y0016072D01*
G01X0025597Y0016072D02*
G01X0025601Y0016078D01*
G01X0025601Y0016078D02*
G01X0025605Y0016082D01*
G01X0025605Y0016082D02*
G01X0025609Y0016087D01*
G01X0025609Y0016087D02*
G01X0025613Y0016091D01*
G01X0025613Y0016091D02*
G01X0025618Y0016096D01*
G01X0025618Y0016096D02*
G01X0025623Y0016099D01*
G01X0025623Y0016099D02*
G01X0025628Y0016103D01*
G01X0025628Y0016103D02*
G01X0025633Y0016106D01*
G01X0025633Y0016106D02*
G01X0025638Y0016109D01*
G01X0025638Y0016109D02*
G01X0025644Y0016111D01*
G01X0025644Y0016111D02*
G01X0025650Y0016113D01*
G01X0025650Y0016113D02*
G01X0025656Y0016115D01*
G01X0025656Y0016115D02*
G01X0025662Y0016116D01*
G01X0025662Y0016116D02*
G01X0025668Y0016117D01*
G01X0025668Y0016117D02*
G01X0025674Y0016118D01*
G01X0025674Y0016118D02*
G01X0025680Y0016118D01*
G01X0025680Y0016118D02*
G01X0025687Y0016118D01*
G01X0025687Y0016118D02*
G01X0025693Y0016117D01*
G01X0025693Y0016117D02*
G01X0025699Y0016116D01*
G01X0025699Y0016116D02*
G01X0025705Y0016115D01*
G01X0025705Y0016115D02*
G01X0025711Y0016113D01*
G01X0025711Y0016113D02*
G01X0025717Y0016111D01*
G01X0025717Y0016111D02*
G01X0025722Y0016109D01*
G01X0025722Y0016109D02*
G01X0025728Y0016106D01*
G01X0025728Y0016106D02*
G01X0025733Y0016103D01*
G01X0025733Y0016103D02*
G01X0025738Y0016099D01*
G01X0025738Y0016099D02*
G01X0025743Y0016096D01*
G01X0025743Y0016096D02*
G01X0025748Y0016091D01*
G01X0025748Y0016091D02*
G01X0025752Y0016087D01*
G01X0025752Y0016087D02*
G01X0025756Y0016082D01*
G01X0025756Y0016082D02*
G01X0025760Y0016078D01*
G01X0025760Y0016078D02*
G01X0025763Y0016072D01*
G01X0025763Y0016072D02*
G01X0025767Y0016067D01*
G01X0025767Y0016067D02*
G01X0025769Y0016062D01*
G01X0025769Y0016062D02*
G01X0025772Y0016056D01*
G01X0025772Y0016056D02*
G01X0025774Y0016050D01*
G01X0025774Y0016050D02*
G01X0025776Y0016044D01*
G01X0025776Y0016044D02*
G01X0025777Y0016038D01*
G01X0025777Y0016038D02*
G01X0025778Y0016032D01*
G01X0025778Y0016032D02*
G01X0025779Y0016026D01*
G01X0025779Y0016026D02*
G01X0025779Y0016020D01*
G01X0025779Y0016020D02*
G01X0025779Y0015705D01*
G01X0025680Y0015606D02*
G01X0025674Y0015607D01*
G01X0025674Y0015607D02*
G01X0025668Y0015607D01*
G01X0025668Y0015607D02*
G01X0025662Y0015608D01*
G01X0025662Y0015608D02*
G01X0025656Y0015609D01*
G01X0025656Y0015609D02*
G01X0025650Y0015611D01*
G01X0025650Y0015611D02*
G01X0025644Y0015613D01*
G01X0025644Y0015613D02*
G01X0025638Y0015616D01*
G01X0025638Y0015616D02*
G01X0025633Y0015619D01*
G01X0025633Y0015619D02*
G01X0025628Y0015622D01*
G01X0025628Y0015622D02*
G01X0025623Y0015625D01*
G01X0025623Y0015625D02*
G01X0025618Y0015629D01*
G01X0025618Y0015629D02*
G01X0025613Y0015633D01*
G01X0025613Y0015633D02*
G01X0025609Y0015637D01*
G01X0025609Y0015637D02*
G01X0025605Y0015642D01*
G01X0025605Y0015642D02*
G01X0025601Y0015647D01*
G01X0025601Y0015647D02*
G01X0025597Y0015652D01*
G01X0025597Y0015652D02*
G01X0025594Y0015657D01*
G01X0025594Y0015657D02*
G01X0025591Y0015663D01*
G01X0025591Y0015663D02*
G01X0025589Y0015669D01*
G01X0025589Y0015669D02*
G01X0025587Y0015674D01*
G01X0025587Y0015674D02*
G01X0025585Y0015680D01*
G01X0025585Y0015680D02*
G01X0025584Y0015686D01*
G01X0025584Y0015686D02*
G01X0025583Y0015692D01*
G01X0025583Y0015692D02*
G01X0025582Y0015699D01*
G01X0025582Y0015699D02*
G01X0025582Y0015705D01*
G01X0025680Y0015606D02*
G01X0025687Y0015607D01*
G01X0025687Y0015607D02*
G01X0025693Y0015607D01*
G01X0025693Y0015607D02*
G01X0025699Y0015608D01*
G01X0025699Y0015608D02*
G01X0025705Y0015609D01*
G01X0025705Y0015609D02*
G01X0025711Y0015611D01*
G01X0025711Y0015611D02*
G01X0025717Y0015613D01*
G01X0025717Y0015613D02*
G01X0025722Y0015616D01*
G01X0025722Y0015616D02*
G01X0025728Y0015619D01*
G01X0025728Y0015619D02*
G01X0025733Y0015622D01*
G01X0025733Y0015622D02*
G01X0025738Y0015625D01*
G01X0025738Y0015625D02*
G01X0025743Y0015629D01*
G01X0025743Y0015629D02*
G01X0025748Y0015633D01*
G01X0025748Y0015633D02*
G01X0025752Y0015637D01*
G01X0025752Y0015637D02*
G01X0025756Y0015642D01*
G01X0025756Y0015642D02*
G01X0025760Y0015647D01*
G01X0025760Y0015647D02*
G01X0025763Y0015652D01*
G01X0025763Y0015652D02*
G01X0025767Y0015657D01*
G01X0025767Y0015657D02*
G01X0025769Y0015663D01*
G01X0025769Y0015663D02*
G01X0025772Y0015669D01*
G01X0025772Y0015669D02*
G01X0025774Y0015674D01*
G01X0025774Y0015674D02*
G01X0025776Y0015680D01*
G01X0025776Y0015680D02*
G01X0025777Y0015686D01*
G01X0025777Y0015686D02*
G01X0025778Y0015692D01*
G01X0025778Y0015692D02*
G01X0025779Y0015699D01*
G01X0025779Y0015699D02*
G01X0025779Y0015705D01*
G01X0022747Y0031667D02*
G01X0022747Y0031982D01*
G01X0022747Y0031982D02*
G01X0022747Y0031988D01*
G01X0022747Y0031988D02*
G01X0022748Y0031994D01*
G01X0022748Y0031994D02*
G01X0022749Y0032000D01*
G01X0022749Y0032000D02*
G01X0022750Y0032006D01*
G01X0022750Y0032006D02*
G01X0022752Y0032012D01*
G01X0022752Y0032012D02*
G01X0022754Y0032018D01*
G01X0022754Y0032018D02*
G01X0022757Y0032024D01*
G01X0022757Y0032024D02*
G01X0022759Y0032029D01*
G01X0022759Y0032029D02*
G01X0022763Y0032035D01*
G01X0022763Y0032035D02*
G01X0022766Y0032040D01*
G01X0022766Y0032040D02*
G01X0022770Y0032045D01*
G01X0022770Y0032045D02*
G01X0022774Y0032049D01*
G01X0022774Y0032049D02*
G01X0022778Y0032054D01*
G01X0022778Y0032054D02*
G01X0022783Y0032058D01*
G01X0022783Y0032058D02*
G01X0022788Y0032061D01*
G01X0022788Y0032061D02*
G01X0022793Y0032065D01*
G01X0022793Y0032065D02*
G01X0022798Y0032068D01*
G01X0022798Y0032068D02*
G01X0022804Y0032071D01*
G01X0022804Y0032071D02*
G01X0022809Y0032073D01*
G01X0022809Y0032073D02*
G01X0022815Y0032075D01*
G01X0022815Y0032075D02*
G01X0022821Y0032077D01*
G01X0022821Y0032077D02*
G01X0022827Y0032079D01*
G01X0022827Y0032079D02*
G01X0022833Y0032079D01*
G01X0022833Y0032079D02*
G01X0022839Y0032080D01*
G01X0022839Y0032080D02*
G01X0022846Y0032080D01*
G01X0022846Y0032080D02*
G01X0022852Y0032080D01*
G01X0022852Y0032080D02*
G01X0022858Y0032079D01*
G01X0022858Y0032079D02*
G01X0022864Y0032079D01*
G01X0022864Y0032079D02*
G01X0022870Y0032077D01*
G01X0022870Y0032077D02*
G01X0022876Y0032075D01*
G01X0022876Y0032075D02*
G01X0022882Y0032073D01*
G01X0022882Y0032073D02*
G01X0022888Y0032071D01*
G01X0022888Y0032071D02*
G01X0022893Y0032068D01*
G01X0022893Y0032068D02*
G01X0022898Y0032065D01*
G01X0022898Y0032065D02*
G01X0022903Y0032061D01*
G01X0022903Y0032061D02*
G01X0022908Y0032058D01*
G01X0022908Y0032058D02*
G01X0022913Y0032054D01*
G01X0022913Y0032054D02*
G01X0022917Y0032049D01*
G01X0022917Y0032049D02*
G01X0022921Y0032045D01*
G01X0022921Y0032045D02*
G01X0022925Y0032040D01*
G01X0022925Y0032040D02*
G01X0022929Y0032035D01*
G01X0022929Y0032035D02*
G01X0022932Y0032029D01*
G01X0022932Y0032029D02*
G01X0022935Y0032024D01*
G01X0022935Y0032024D02*
G01X0022937Y0032018D01*
G01X0022937Y0032018D02*
G01X0022939Y0032012D01*
G01X0022939Y0032012D02*
G01X0022941Y0032006D01*
G01X0022941Y0032006D02*
G01X0022942Y0032000D01*
G01X0022942Y0032000D02*
G01X0022943Y0031994D01*
G01X0022943Y0031994D02*
G01X0022944Y0031988D01*
G01X0022944Y0031988D02*
G01X0022944Y0031982D01*
G01X0022944Y0031982D02*
G01X0022944Y0031667D01*
G01X0022846Y0031568D02*
G01X0022839Y0031569D01*
G01X0022839Y0031569D02*
G01X0022833Y0031569D01*
G01X0022833Y0031569D02*
G01X0022827Y0031570D01*
G01X0022827Y0031570D02*
G01X0022821Y0031572D01*
G01X0022821Y0031572D02*
G01X0022815Y0031573D01*
G01X0022815Y0031573D02*
G01X0022809Y0031575D01*
G01X0022809Y0031575D02*
G01X0022804Y0031578D01*
G01X0022804Y0031578D02*
G01X0022798Y0031581D01*
G01X0022798Y0031581D02*
G01X0022793Y0031584D01*
G01X0022793Y0031584D02*
G01X0022788Y0031587D01*
G01X0022788Y0031587D02*
G01X0022783Y0031591D01*
G01X0022783Y0031591D02*
G01X0022778Y0031595D01*
G01X0022778Y0031595D02*
G01X0022774Y0031599D01*
G01X0022774Y0031599D02*
G01X0022770Y0031604D01*
G01X0022770Y0031604D02*
G01X0022766Y0031609D01*
G01X0022766Y0031609D02*
G01X0022763Y0031614D01*
G01X0022763Y0031614D02*
G01X0022759Y0031619D01*
G01X0022759Y0031619D02*
G01X0022757Y0031625D01*
G01X0022757Y0031625D02*
G01X0022754Y0031631D01*
G01X0022754Y0031631D02*
G01X0022752Y0031636D01*
G01X0022752Y0031636D02*
G01X0022750Y0031642D01*
G01X0022750Y0031642D02*
G01X0022749Y0031648D01*
G01X0022749Y0031648D02*
G01X0022748Y0031655D01*
G01X0022748Y0031655D02*
G01X0022747Y0031661D01*
G01X0022747Y0031661D02*
G01X0022747Y0031667D01*
G01X0022846Y0031568D02*
G01X0022852Y0031569D01*
G01X0022852Y0031569D02*
G01X0022858Y0031569D01*
G01X0022858Y0031569D02*
G01X0022864Y0031570D01*
G01X0022864Y0031570D02*
G01X0022870Y0031572D01*
G01X0022870Y0031572D02*
G01X0022876Y0031573D01*
G01X0022876Y0031573D02*
G01X0022882Y0031575D01*
G01X0022882Y0031575D02*
G01X0022888Y0031578D01*
G01X0022888Y0031578D02*
G01X0022893Y0031581D01*
G01X0022893Y0031581D02*
G01X0022898Y0031584D01*
G01X0022898Y0031584D02*
G01X0022903Y0031587D01*
G01X0022903Y0031587D02*
G01X0022908Y0031591D01*
G01X0022908Y0031591D02*
G01X0022913Y0031595D01*
G01X0022913Y0031595D02*
G01X0022917Y0031599D01*
G01X0022917Y0031599D02*
G01X0022921Y0031604D01*
G01X0022921Y0031604D02*
G01X0022925Y0031609D01*
G01X0022925Y0031609D02*
G01X0022929Y0031614D01*
G01X0022929Y0031614D02*
G01X0022932Y0031619D01*
G01X0022932Y0031619D02*
G01X0022935Y0031625D01*
G01X0022935Y0031625D02*
G01X0022937Y0031631D01*
G01X0022937Y0031631D02*
G01X0022939Y0031636D01*
G01X0022939Y0031636D02*
G01X0022941Y0031642D01*
G01X0022941Y0031642D02*
G01X0022942Y0031648D01*
G01X0022942Y0031648D02*
G01X0022943Y0031655D01*
G01X0022943Y0031655D02*
G01X0022944Y0031661D01*
G01X0022944Y0031661D02*
G01X0022944Y0031667D01*
G01X0025582Y0031667D02*
G01X0025582Y0031982D01*
G01X0025582Y0031982D02*
G01X0025582Y0031988D01*
G01X0025582Y0031988D02*
G01X0025583Y0031994D01*
G01X0025583Y0031994D02*
G01X0025584Y0032000D01*
G01X0025584Y0032000D02*
G01X0025585Y0032006D01*
G01X0025585Y0032006D02*
G01X0025587Y0032012D01*
G01X0025587Y0032012D02*
G01X0025589Y0032018D01*
G01X0025589Y0032018D02*
G01X0025591Y0032024D01*
G01X0025591Y0032024D02*
G01X0025594Y0032029D01*
G01X0025594Y0032029D02*
G01X0025597Y0032035D01*
G01X0025597Y0032035D02*
G01X0025601Y0032040D01*
G01X0025601Y0032040D02*
G01X0025605Y0032045D01*
G01X0025605Y0032045D02*
G01X0025609Y0032049D01*
G01X0025609Y0032049D02*
G01X0025613Y0032054D01*
G01X0025613Y0032054D02*
G01X0025618Y0032058D01*
G01X0025618Y0032058D02*
G01X0025623Y0032061D01*
G01X0025623Y0032061D02*
G01X0025628Y0032065D01*
G01X0025628Y0032065D02*
G01X0025633Y0032068D01*
G01X0025633Y0032068D02*
G01X0025638Y0032071D01*
G01X0025638Y0032071D02*
G01X0025644Y0032073D01*
G01X0025644Y0032073D02*
G01X0025650Y0032075D01*
G01X0025650Y0032075D02*
G01X0025656Y0032077D01*
G01X0025656Y0032077D02*
G01X0025662Y0032079D01*
G01X0025662Y0032079D02*
G01X0025668Y0032079D01*
G01X0025668Y0032079D02*
G01X0025674Y0032080D01*
G01X0025674Y0032080D02*
G01X0025680Y0032080D01*
G01X0025680Y0032080D02*
G01X0025687Y0032080D01*
G01X0025687Y0032080D02*
G01X0025693Y0032079D01*
G01X0025693Y0032079D02*
G01X0025699Y0032079D01*
G01X0025699Y0032079D02*
G01X0025705Y0032077D01*
G01X0025705Y0032077D02*
G01X0025711Y0032075D01*
G01X0025711Y0032075D02*
G01X0025717Y0032073D01*
G01X0025717Y0032073D02*
G01X0025722Y0032071D01*
G01X0025722Y0032071D02*
G01X0025728Y0032068D01*
G01X0025728Y0032068D02*
G01X0025733Y0032065D01*
G01X0025733Y0032065D02*
G01X0025738Y0032061D01*
G01X0025738Y0032061D02*
G01X0025743Y0032058D01*
G01X0025743Y0032058D02*
G01X0025748Y0032054D01*
G01X0025748Y0032054D02*
G01X0025752Y0032049D01*
G01X0025752Y0032049D02*
G01X0025756Y0032045D01*
G01X0025756Y0032045D02*
G01X0025760Y0032040D01*
G01X0025760Y0032040D02*
G01X0025763Y0032035D01*
G01X0025763Y0032035D02*
G01X0025767Y0032029D01*
G01X0025767Y0032029D02*
G01X0025769Y0032024D01*
G01X0025769Y0032024D02*
G01X0025772Y0032018D01*
G01X0025772Y0032018D02*
G01X0025774Y0032012D01*
G01X0025774Y0032012D02*
G01X0025776Y0032006D01*
G01X0025776Y0032006D02*
G01X0025777Y0032000D01*
G01X0025777Y0032000D02*
G01X0025778Y0031994D01*
G01X0025778Y0031994D02*
G01X0025779Y0031988D01*
G01X0025779Y0031988D02*
G01X0025779Y0031982D01*
G01X0025779Y0031982D02*
G01X0025779Y0031667D01*
G01X0025680Y0031568D02*
G01X0025674Y0031569D01*
G01X0025674Y0031569D02*
G01X0025668Y0031569D01*
G01X0025668Y0031569D02*
G01X0025662Y0031570D01*
G01X0025662Y0031570D02*
G01X0025656Y0031572D01*
G01X0025656Y0031572D02*
G01X0025650Y0031573D01*
G01X0025650Y0031573D02*
G01X0025644Y0031575D01*
G01X0025644Y0031575D02*
G01X0025638Y0031578D01*
G01X0025638Y0031578D02*
G01X0025633Y0031581D01*
G01X0025633Y0031581D02*
G01X0025628Y0031584D01*
G01X0025628Y0031584D02*
G01X0025623Y0031587D01*
G01X0025623Y0031587D02*
G01X0025618Y0031591D01*
G01X0025618Y0031591D02*
G01X0025613Y0031595D01*
G01X0025613Y0031595D02*
G01X0025609Y0031599D01*
G01X0025609Y0031599D02*
G01X0025605Y0031604D01*
G01X0025605Y0031604D02*
G01X0025601Y0031609D01*
G01X0025601Y0031609D02*
G01X0025597Y0031614D01*
G01X0025597Y0031614D02*
G01X0025594Y0031619D01*
G01X0025594Y0031619D02*
G01X0025591Y0031625D01*
G01X0025591Y0031625D02*
G01X0025589Y0031631D01*
G01X0025589Y0031631D02*
G01X0025587Y0031636D01*
G01X0025587Y0031636D02*
G01X0025585Y0031642D01*
G01X0025585Y0031642D02*
G01X0025584Y0031648D01*
G01X0025584Y0031648D02*
G01X0025583Y0031655D01*
G01X0025583Y0031655D02*
G01X0025582Y0031661D01*
G01X0025582Y0031661D02*
G01X0025582Y0031667D01*
G01X0025680Y0031568D02*
G01X0025687Y0031569D01*
G01X0025687Y0031569D02*
G01X0025693Y0031569D01*
G01X0025693Y0031569D02*
G01X0025699Y0031570D01*
G01X0025699Y0031570D02*
G01X0025705Y0031572D01*
G01X0025705Y0031572D02*
G01X0025711Y0031573D01*
G01X0025711Y0031573D02*
G01X0025717Y0031575D01*
G01X0025717Y0031575D02*
G01X0025722Y0031578D01*
G01X0025722Y0031578D02*
G01X0025728Y0031581D01*
G01X0025728Y0031581D02*
G01X0025733Y0031584D01*
G01X0025733Y0031584D02*
G01X0025738Y0031587D01*
G01X0025738Y0031587D02*
G01X0025743Y0031591D01*
G01X0025743Y0031591D02*
G01X0025748Y0031595D01*
G01X0025748Y0031595D02*
G01X0025752Y0031599D01*
G01X0025752Y0031599D02*
G01X0025756Y0031604D01*
G01X0025756Y0031604D02*
G01X0025760Y0031609D01*
G01X0025760Y0031609D02*
G01X0025763Y0031614D01*
G01X0025763Y0031614D02*
G01X0025767Y0031619D01*
G01X0025767Y0031619D02*
G01X0025769Y0031625D01*
G01X0025769Y0031625D02*
G01X0025772Y0031631D01*
G01X0025772Y0031631D02*
G01X0025774Y0031636D01*
G01X0025774Y0031636D02*
G01X0025776Y0031642D01*
G01X0025776Y0031642D02*
G01X0025777Y0031648D01*
G01X0025777Y0031648D02*
G01X0025778Y0031655D01*
G01X0025778Y0031655D02*
G01X0025779Y0031661D01*
G01X0025779Y0031661D02*
G01X0025779Y0031667D01*
G01X0032115Y0015705D02*
G01X0032115Y0016020D01*
G01X0032115Y0016020D02*
G01X0032115Y0016026D01*
G01X0032115Y0016026D02*
G01X0032116Y0016032D01*
G01X0032116Y0016032D02*
G01X0032117Y0016038D01*
G01X0032117Y0016038D02*
G01X0032118Y0016044D01*
G01X0032118Y0016044D02*
G01X0032120Y0016050D01*
G01X0032120Y0016050D02*
G01X0032122Y0016056D01*
G01X0032122Y0016056D02*
G01X0032124Y0016062D01*
G01X0032124Y0016062D02*
G01X0032127Y0016067D01*
G01X0032127Y0016067D02*
G01X0032130Y0016072D01*
G01X0032130Y0016072D02*
G01X0032134Y0016078D01*
G01X0032134Y0016078D02*
G01X0032138Y0016082D01*
G01X0032138Y0016082D02*
G01X0032142Y0016087D01*
G01X0032142Y0016087D02*
G01X0032146Y0016091D01*
G01X0032146Y0016091D02*
G01X0032151Y0016096D01*
G01X0032151Y0016096D02*
G01X0032156Y0016099D01*
G01X0032156Y0016099D02*
G01X0032161Y0016103D01*
G01X0032161Y0016103D02*
G01X0032166Y0016106D01*
G01X0032166Y0016106D02*
G01X0032171Y0016109D01*
G01X0032171Y0016109D02*
G01X0032177Y0016111D01*
G01X0032177Y0016111D02*
G01X0032183Y0016113D01*
G01X0032183Y0016113D02*
G01X0032189Y0016115D01*
G01X0032189Y0016115D02*
G01X0032195Y0016116D01*
G01X0032195Y0016116D02*
G01X0032201Y0016117D01*
G01X0032201Y0016117D02*
G01X0032207Y0016118D01*
G01X0032207Y0016118D02*
G01X0032213Y0016118D01*
G01X0032213Y0016118D02*
G01X0032220Y0016118D01*
G01X0032220Y0016118D02*
G01X0032226Y0016117D01*
G01X0032226Y0016117D02*
G01X0032232Y0016116D01*
G01X0032232Y0016116D02*
G01X0032238Y0016115D01*
G01X0032238Y0016115D02*
G01X0032244Y0016113D01*
G01X0032244Y0016113D02*
G01X0032250Y0016111D01*
G01X0032250Y0016111D02*
G01X0032255Y0016109D01*
G01X0032255Y0016109D02*
G01X0032261Y0016106D01*
G01X0032261Y0016106D02*
G01X0032266Y0016103D01*
G01X0032266Y0016103D02*
G01X0032271Y0016099D01*
G01X0032271Y0016099D02*
G01X0032276Y0016096D01*
G01X0032276Y0016096D02*
G01X0032281Y0016091D01*
G01X0032281Y0016091D02*
G01X0032285Y0016087D01*
G01X0032285Y0016087D02*
G01X0032289Y0016082D01*
G01X0032289Y0016082D02*
G01X0032293Y0016078D01*
G01X0032293Y0016078D02*
G01X0032296Y0016072D01*
G01X0032296Y0016072D02*
G01X0032300Y0016067D01*
G01X0032300Y0016067D02*
G01X0032302Y0016062D01*
G01X0032302Y0016062D02*
G01X0032305Y0016056D01*
G01X0032305Y0016056D02*
G01X0032307Y0016050D01*
G01X0032307Y0016050D02*
G01X0032309Y0016044D01*
G01X0032309Y0016044D02*
G01X0032310Y0016038D01*
G01X0032310Y0016038D02*
G01X0032311Y0016032D01*
G01X0032311Y0016032D02*
G01X0032312Y0016026D01*
G01X0032312Y0016026D02*
G01X0032312Y0016020D01*
G01X0032312Y0016020D02*
G01X0032312Y0015705D01*
G01X0032213Y0015606D02*
G01X0032207Y0015607D01*
G01X0032207Y0015607D02*
G01X0032201Y0015607D01*
G01X0032201Y0015607D02*
G01X0032195Y0015608D01*
G01X0032195Y0015608D02*
G01X0032189Y0015609D01*
G01X0032189Y0015609D02*
G01X0032183Y0015611D01*
G01X0032183Y0015611D02*
G01X0032177Y0015613D01*
G01X0032177Y0015613D02*
G01X0032171Y0015616D01*
G01X0032171Y0015616D02*
G01X0032166Y0015619D01*
G01X0032166Y0015619D02*
G01X0032161Y0015622D01*
G01X0032161Y0015622D02*
G01X0032156Y0015625D01*
G01X0032156Y0015625D02*
G01X0032151Y0015629D01*
G01X0032151Y0015629D02*
G01X0032146Y0015633D01*
G01X0032146Y0015633D02*
G01X0032142Y0015637D01*
G01X0032142Y0015637D02*
G01X0032138Y0015642D01*
G01X0032138Y0015642D02*
G01X0032134Y0015647D01*
G01X0032134Y0015647D02*
G01X0032130Y0015652D01*
G01X0032130Y0015652D02*
G01X0032127Y0015657D01*
G01X0032127Y0015657D02*
G01X0032124Y0015663D01*
G01X0032124Y0015663D02*
G01X0032122Y0015669D01*
G01X0032122Y0015669D02*
G01X0032120Y0015674D01*
G01X0032120Y0015674D02*
G01X0032118Y0015680D01*
G01X0032118Y0015680D02*
G01X0032117Y0015686D01*
G01X0032117Y0015686D02*
G01X0032116Y0015692D01*
G01X0032116Y0015692D02*
G01X0032115Y0015699D01*
G01X0032115Y0015699D02*
G01X0032115Y0015705D01*
G01X0032213Y0015606D02*
G01X0032220Y0015607D01*
G01X0032220Y0015607D02*
G01X0032226Y0015607D01*
G01X0032226Y0015607D02*
G01X0032232Y0015608D01*
G01X0032232Y0015608D02*
G01X0032238Y0015609D01*
G01X0032238Y0015609D02*
G01X0032244Y0015611D01*
G01X0032244Y0015611D02*
G01X0032250Y0015613D01*
G01X0032250Y0015613D02*
G01X0032255Y0015616D01*
G01X0032255Y0015616D02*
G01X0032261Y0015619D01*
G01X0032261Y0015619D02*
G01X0032266Y0015622D01*
G01X0032266Y0015622D02*
G01X0032271Y0015625D01*
G01X0032271Y0015625D02*
G01X0032276Y0015629D01*
G01X0032276Y0015629D02*
G01X0032281Y0015633D01*
G01X0032281Y0015633D02*
G01X0032285Y0015637D01*
G01X0032285Y0015637D02*
G01X0032289Y0015642D01*
G01X0032289Y0015642D02*
G01X0032293Y0015647D01*
G01X0032293Y0015647D02*
G01X0032296Y0015652D01*
G01X0032296Y0015652D02*
G01X0032300Y0015657D01*
G01X0032300Y0015657D02*
G01X0032302Y0015663D01*
G01X0032302Y0015663D02*
G01X0032305Y0015669D01*
G01X0032305Y0015669D02*
G01X0032307Y0015674D01*
G01X0032307Y0015674D02*
G01X0032309Y0015680D01*
G01X0032309Y0015680D02*
G01X0032310Y0015686D01*
G01X0032310Y0015686D02*
G01X0032311Y0015692D01*
G01X0032311Y0015692D02*
G01X0032312Y0015699D01*
G01X0032312Y0015699D02*
G01X0032312Y0015705D01*
G01X0034950Y0015705D02*
G01X0034950Y0016020D01*
G01X0034950Y0016020D02*
G01X0034950Y0016026D01*
G01X0034950Y0016026D02*
G01X0034950Y0016032D01*
G01X0034950Y0016032D02*
G01X0034951Y0016038D01*
G01X0034951Y0016038D02*
G01X0034953Y0016044D01*
G01X0034953Y0016044D02*
G01X0034954Y0016050D01*
G01X0034954Y0016050D02*
G01X0034957Y0016056D01*
G01X0034957Y0016056D02*
G01X0034959Y0016062D01*
G01X0034959Y0016062D02*
G01X0034962Y0016067D01*
G01X0034962Y0016067D02*
G01X0034965Y0016072D01*
G01X0034965Y0016072D02*
G01X0034968Y0016078D01*
G01X0034968Y0016078D02*
G01X0034972Y0016082D01*
G01X0034972Y0016082D02*
G01X0034976Y0016087D01*
G01X0034976Y0016087D02*
G01X0034981Y0016091D01*
G01X0034981Y0016091D02*
G01X0034985Y0016096D01*
G01X0034985Y0016096D02*
G01X0034990Y0016099D01*
G01X0034990Y0016099D02*
G01X0034995Y0016103D01*
G01X0034995Y0016103D02*
G01X0035001Y0016106D01*
G01X0035001Y0016106D02*
G01X0035006Y0016109D01*
G01X0035006Y0016109D02*
G01X0035012Y0016111D01*
G01X0035012Y0016111D02*
G01X0035018Y0016113D01*
G01X0035018Y0016113D02*
G01X0035024Y0016115D01*
G01X0035024Y0016115D02*
G01X0035030Y0016116D01*
G01X0035030Y0016116D02*
G01X0035036Y0016117D01*
G01X0035036Y0016117D02*
G01X0035042Y0016118D01*
G01X0035042Y0016118D02*
G01X0035048Y0016118D01*
G01X0035048Y0016118D02*
G01X0035054Y0016118D01*
G01X0035054Y0016118D02*
G01X0035060Y0016117D01*
G01X0035060Y0016117D02*
G01X0035066Y0016116D01*
G01X0035066Y0016116D02*
G01X0035073Y0016115D01*
G01X0035073Y0016115D02*
G01X0035078Y0016113D01*
G01X0035078Y0016113D02*
G01X0035084Y0016111D01*
G01X0035084Y0016111D02*
G01X0035090Y0016109D01*
G01X0035090Y0016109D02*
G01X0035095Y0016106D01*
G01X0035095Y0016106D02*
G01X0035101Y0016103D01*
G01X0035101Y0016103D02*
G01X0035106Y0016099D01*
G01X0035106Y0016099D02*
G01X0035111Y0016096D01*
G01X0035111Y0016096D02*
G01X0035115Y0016091D01*
G01X0035115Y0016091D02*
G01X0035120Y0016087D01*
G01X0035120Y0016087D02*
G01X0035124Y0016082D01*
G01X0035124Y0016082D02*
G01X0035128Y0016078D01*
G01X0035128Y0016078D02*
G01X0035131Y0016072D01*
G01X0035131Y0016072D02*
G01X0035134Y0016067D01*
G01X0035134Y0016067D02*
G01X0035137Y0016062D01*
G01X0035137Y0016062D02*
G01X0035140Y0016056D01*
G01X0035140Y0016056D02*
G01X0035142Y0016050D01*
G01X0035142Y0016050D02*
G01X0035143Y0016044D01*
G01X0035143Y0016044D02*
G01X0035145Y0016038D01*
G01X0035145Y0016038D02*
G01X0035146Y0016032D01*
G01X0035146Y0016032D02*
G01X0035146Y0016026D01*
G01X0035146Y0016026D02*
G01X0035146Y0016020D01*
G01X0035146Y0016020D02*
G01X0035146Y0015705D01*
G01X0035048Y0015606D02*
G01X0035042Y0015607D01*
G01X0035042Y0015607D02*
G01X0035036Y0015607D01*
G01X0035036Y0015607D02*
G01X0035030Y0015608D01*
G01X0035030Y0015608D02*
G01X0035024Y0015609D01*
G01X0035024Y0015609D02*
G01X0035018Y0015611D01*
G01X0035018Y0015611D02*
G01X0035012Y0015613D01*
G01X0035012Y0015613D02*
G01X0035006Y0015616D01*
G01X0035006Y0015616D02*
G01X0035001Y0015619D01*
G01X0035001Y0015619D02*
G01X0034995Y0015622D01*
G01X0034995Y0015622D02*
G01X0034990Y0015625D01*
G01X0034990Y0015625D02*
G01X0034985Y0015629D01*
G01X0034985Y0015629D02*
G01X0034981Y0015633D01*
G01X0034981Y0015633D02*
G01X0034976Y0015637D01*
G01X0034976Y0015637D02*
G01X0034972Y0015642D01*
G01X0034972Y0015642D02*
G01X0034968Y0015647D01*
G01X0034968Y0015647D02*
G01X0034965Y0015652D01*
G01X0034965Y0015652D02*
G01X0034962Y0015657D01*
G01X0034962Y0015657D02*
G01X0034959Y0015663D01*
G01X0034959Y0015663D02*
G01X0034957Y0015669D01*
G01X0034957Y0015669D02*
G01X0034954Y0015674D01*
G01X0034954Y0015674D02*
G01X0034953Y0015680D01*
G01X0034953Y0015680D02*
G01X0034951Y0015686D01*
G01X0034951Y0015686D02*
G01X0034950Y0015692D01*
G01X0034950Y0015692D02*
G01X0034950Y0015699D01*
G01X0034950Y0015699D02*
G01X0034950Y0015705D01*
G01X0035048Y0015606D02*
G01X0035054Y0015607D01*
G01X0035054Y0015607D02*
G01X0035060Y0015607D01*
G01X0035060Y0015607D02*
G01X0035066Y0015608D01*
G01X0035066Y0015608D02*
G01X0035073Y0015609D01*
G01X0035073Y0015609D02*
G01X0035078Y0015611D01*
G01X0035078Y0015611D02*
G01X0035084Y0015613D01*
G01X0035084Y0015613D02*
G01X0035090Y0015616D01*
G01X0035090Y0015616D02*
G01X0035095Y0015619D01*
G01X0035095Y0015619D02*
G01X0035101Y0015622D01*
G01X0035101Y0015622D02*
G01X0035106Y0015625D01*
G01X0035106Y0015625D02*
G01X0035111Y0015629D01*
G01X0035111Y0015629D02*
G01X0035115Y0015633D01*
G01X0035115Y0015633D02*
G01X0035120Y0015637D01*
G01X0035120Y0015637D02*
G01X0035124Y0015642D01*
G01X0035124Y0015642D02*
G01X0035128Y0015647D01*
G01X0035128Y0015647D02*
G01X0035131Y0015652D01*
G01X0035131Y0015652D02*
G01X0035134Y0015657D01*
G01X0035134Y0015657D02*
G01X0035137Y0015663D01*
G01X0035137Y0015663D02*
G01X0035140Y0015669D01*
G01X0035140Y0015669D02*
G01X0035142Y0015674D01*
G01X0035142Y0015674D02*
G01X0035143Y0015680D01*
G01X0035143Y0015680D02*
G01X0035145Y0015686D01*
G01X0035145Y0015686D02*
G01X0035146Y0015692D01*
G01X0035146Y0015692D02*
G01X0035146Y0015699D01*
G01X0035146Y0015699D02*
G01X0035146Y0015705D01*
G01X0032115Y0031667D02*
G01X0032115Y0031982D01*
G01X0032115Y0031982D02*
G01X0032115Y0031988D01*
G01X0032115Y0031988D02*
G01X0032116Y0031994D01*
G01X0032116Y0031994D02*
G01X0032117Y0032000D01*
G01X0032117Y0032000D02*
G01X0032118Y0032006D01*
G01X0032118Y0032006D02*
G01X0032120Y0032012D01*
G01X0032120Y0032012D02*
G01X0032122Y0032018D01*
G01X0032122Y0032018D02*
G01X0032124Y0032024D01*
G01X0032124Y0032024D02*
G01X0032127Y0032029D01*
G01X0032127Y0032029D02*
G01X0032130Y0032035D01*
G01X0032130Y0032035D02*
G01X0032134Y0032040D01*
G01X0032134Y0032040D02*
G01X0032138Y0032045D01*
G01X0032138Y0032045D02*
G01X0032142Y0032049D01*
G01X0032142Y0032049D02*
G01X0032146Y0032054D01*
G01X0032146Y0032054D02*
G01X0032151Y0032058D01*
G01X0032151Y0032058D02*
G01X0032156Y0032061D01*
G01X0032156Y0032061D02*
G01X0032161Y0032065D01*
G01X0032161Y0032065D02*
G01X0032166Y0032068D01*
G01X0032166Y0032068D02*
G01X0032171Y0032071D01*
G01X0032171Y0032071D02*
G01X0032177Y0032073D01*
G01X0032177Y0032073D02*
G01X0032183Y0032075D01*
G01X0032183Y0032075D02*
G01X0032189Y0032077D01*
G01X0032189Y0032077D02*
G01X0032195Y0032079D01*
G01X0032195Y0032079D02*
G01X0032201Y0032079D01*
G01X0032201Y0032079D02*
G01X0032207Y0032080D01*
G01X0032207Y0032080D02*
G01X0032213Y0032080D01*
G01X0032213Y0032080D02*
G01X0032220Y0032080D01*
G01X0032220Y0032080D02*
G01X0032226Y0032079D01*
G01X0032226Y0032079D02*
G01X0032232Y0032079D01*
G01X0032232Y0032079D02*
G01X0032238Y0032077D01*
G01X0032238Y0032077D02*
G01X0032244Y0032075D01*
G01X0032244Y0032075D02*
G01X0032250Y0032073D01*
G01X0032250Y0032073D02*
G01X0032255Y0032071D01*
G01X0032255Y0032071D02*
G01X0032261Y0032068D01*
G01X0032261Y0032068D02*
G01X0032266Y0032065D01*
G01X0032266Y0032065D02*
G01X0032271Y0032061D01*
G01X0032271Y0032061D02*
G01X0032276Y0032058D01*
G01X0032276Y0032058D02*
G01X0032281Y0032054D01*
G01X0032281Y0032054D02*
G01X0032285Y0032049D01*
G01X0032285Y0032049D02*
G01X0032289Y0032045D01*
G01X0032289Y0032045D02*
G01X0032293Y0032040D01*
G01X0032293Y0032040D02*
G01X0032296Y0032035D01*
G01X0032296Y0032035D02*
G01X0032300Y0032029D01*
G01X0032300Y0032029D02*
G01X0032302Y0032024D01*
G01X0032302Y0032024D02*
G01X0032305Y0032018D01*
G01X0032305Y0032018D02*
G01X0032307Y0032012D01*
G01X0032307Y0032012D02*
G01X0032309Y0032006D01*
G01X0032309Y0032006D02*
G01X0032310Y0032000D01*
G01X0032310Y0032000D02*
G01X0032311Y0031994D01*
G01X0032311Y0031994D02*
G01X0032312Y0031988D01*
G01X0032312Y0031988D02*
G01X0032312Y0031982D01*
G01X0032312Y0031982D02*
G01X0032312Y0031667D01*
G01X0032213Y0031568D02*
G01X0032207Y0031569D01*
G01X0032207Y0031569D02*
G01X0032201Y0031569D01*
G01X0032201Y0031569D02*
G01X0032195Y0031570D01*
G01X0032195Y0031570D02*
G01X0032189Y0031572D01*
G01X0032189Y0031572D02*
G01X0032183Y0031573D01*
G01X0032183Y0031573D02*
G01X0032177Y0031575D01*
G01X0032177Y0031575D02*
G01X0032171Y0031578D01*
G01X0032171Y0031578D02*
G01X0032166Y0031581D01*
G01X0032166Y0031581D02*
G01X0032161Y0031584D01*
G01X0032161Y0031584D02*
G01X0032156Y0031587D01*
G01X0032156Y0031587D02*
G01X0032151Y0031591D01*
G01X0032151Y0031591D02*
G01X0032146Y0031595D01*
G01X0032146Y0031595D02*
G01X0032142Y0031599D01*
G01X0032142Y0031599D02*
G01X0032138Y0031604D01*
G01X0032138Y0031604D02*
G01X0032134Y0031609D01*
G01X0032134Y0031609D02*
G01X0032130Y0031614D01*
G01X0032130Y0031614D02*
G01X0032127Y0031619D01*
G01X0032127Y0031619D02*
G01X0032124Y0031625D01*
G01X0032124Y0031625D02*
G01X0032122Y0031631D01*
G01X0032122Y0031631D02*
G01X0032120Y0031636D01*
G01X0032120Y0031636D02*
G01X0032118Y0031642D01*
G01X0032118Y0031642D02*
G01X0032117Y0031648D01*
G01X0032117Y0031648D02*
G01X0032116Y0031655D01*
G01X0032116Y0031655D02*
G01X0032115Y0031661D01*
G01X0032115Y0031661D02*
G01X0032115Y0031667D01*
G01X0032213Y0031568D02*
G01X0032220Y0031569D01*
G01X0032220Y0031569D02*
G01X0032226Y0031569D01*
G01X0032226Y0031569D02*
G01X0032232Y0031570D01*
G01X0032232Y0031570D02*
G01X0032238Y0031572D01*
G01X0032238Y0031572D02*
G01X0032244Y0031573D01*
G01X0032244Y0031573D02*
G01X0032250Y0031575D01*
G01X0032250Y0031575D02*
G01X0032255Y0031578D01*
G01X0032255Y0031578D02*
G01X0032261Y0031581D01*
G01X0032261Y0031581D02*
G01X0032266Y0031584D01*
G01X0032266Y0031584D02*
G01X0032271Y0031587D01*
G01X0032271Y0031587D02*
G01X0032276Y0031591D01*
G01X0032276Y0031591D02*
G01X0032281Y0031595D01*
G01X0032281Y0031595D02*
G01X0032285Y0031599D01*
G01X0032285Y0031599D02*
G01X0032289Y0031604D01*
G01X0032289Y0031604D02*
G01X0032293Y0031609D01*
G01X0032293Y0031609D02*
G01X0032296Y0031614D01*
G01X0032296Y0031614D02*
G01X0032300Y0031619D01*
G01X0032300Y0031619D02*
G01X0032302Y0031625D01*
G01X0032302Y0031625D02*
G01X0032305Y0031631D01*
G01X0032305Y0031631D02*
G01X0032307Y0031636D01*
G01X0032307Y0031636D02*
G01X0032309Y0031642D01*
G01X0032309Y0031642D02*
G01X0032310Y0031648D01*
G01X0032310Y0031648D02*
G01X0032311Y0031655D01*
G01X0032311Y0031655D02*
G01X0032312Y0031661D01*
G01X0032312Y0031661D02*
G01X0032312Y0031667D01*
G01X0034950Y0031667D02*
G01X0034950Y0031982D01*
G01X0034950Y0031982D02*
G01X0034950Y0031988D01*
G01X0034950Y0031988D02*
G01X0034950Y0031994D01*
G01X0034950Y0031994D02*
G01X0034951Y0032000D01*
G01X0034951Y0032000D02*
G01X0034953Y0032006D01*
G01X0034953Y0032006D02*
G01X0034954Y0032012D01*
G01X0034954Y0032012D02*
G01X0034957Y0032018D01*
G01X0034957Y0032018D02*
G01X0034959Y0032024D01*
G01X0034959Y0032024D02*
G01X0034962Y0032029D01*
G01X0034962Y0032029D02*
G01X0034965Y0032035D01*
G01X0034965Y0032035D02*
G01X0034968Y0032040D01*
G01X0034968Y0032040D02*
G01X0034972Y0032045D01*
G01X0034972Y0032045D02*
G01X0034976Y0032049D01*
G01X0034976Y0032049D02*
G01X0034981Y0032054D01*
G01X0034981Y0032054D02*
G01X0034985Y0032058D01*
G01X0034985Y0032058D02*
G01X0034990Y0032061D01*
G01X0034990Y0032061D02*
G01X0034995Y0032065D01*
G01X0034995Y0032065D02*
G01X0035001Y0032068D01*
G01X0035001Y0032068D02*
G01X0035006Y0032071D01*
G01X0035006Y0032071D02*
G01X0035012Y0032073D01*
G01X0035012Y0032073D02*
G01X0035018Y0032075D01*
G01X0035018Y0032075D02*
G01X0035024Y0032077D01*
G01X0035024Y0032077D02*
G01X0035030Y0032079D01*
G01X0035030Y0032079D02*
G01X0035036Y0032079D01*
G01X0035036Y0032079D02*
G01X0035042Y0032080D01*
G01X0035042Y0032080D02*
G01X0035048Y0032080D01*
G01X0035048Y0032080D02*
G01X0035054Y0032080D01*
G01X0035054Y0032080D02*
G01X0035060Y0032079D01*
G01X0035060Y0032079D02*
G01X0035066Y0032079D01*
G01X0035066Y0032079D02*
G01X0035073Y0032077D01*
G01X0035073Y0032077D02*
G01X0035078Y0032075D01*
G01X0035078Y0032075D02*
G01X0035084Y0032073D01*
G01X0035084Y0032073D02*
G01X0035090Y0032071D01*
G01X0035090Y0032071D02*
G01X0035095Y0032068D01*
G01X0035095Y0032068D02*
G01X0035101Y0032065D01*
G01X0035101Y0032065D02*
G01X0035106Y0032061D01*
G01X0035106Y0032061D02*
G01X0035111Y0032058D01*
G01X0035111Y0032058D02*
G01X0035115Y0032054D01*
G01X0035115Y0032054D02*
G01X0035120Y0032049D01*
G01X0035120Y0032049D02*
G01X0035124Y0032045D01*
G01X0035124Y0032045D02*
G01X0035128Y0032040D01*
G01X0035128Y0032040D02*
G01X0035131Y0032035D01*
G01X0035131Y0032035D02*
G01X0035134Y0032029D01*
G01X0035134Y0032029D02*
G01X0035137Y0032024D01*
G01X0035137Y0032024D02*
G01X0035140Y0032018D01*
G01X0035140Y0032018D02*
G01X0035142Y0032012D01*
G01X0035142Y0032012D02*
G01X0035143Y0032006D01*
G01X0035143Y0032006D02*
G01X0035145Y0032000D01*
G01X0035145Y0032000D02*
G01X0035146Y0031994D01*
G01X0035146Y0031994D02*
G01X0035146Y0031988D01*
G01X0035146Y0031988D02*
G01X0035146Y0031982D01*
G01X0035146Y0031982D02*
G01X0035146Y0031667D01*
G01X0035048Y0031568D02*
G01X0035042Y0031569D01*
G01X0035042Y0031569D02*
G01X0035036Y0031569D01*
G01X0035036Y0031569D02*
G01X0035030Y0031570D01*
G01X0035030Y0031570D02*
G01X0035024Y0031572D01*
G01X0035024Y0031572D02*
G01X0035018Y0031573D01*
G01X0035018Y0031573D02*
G01X0035012Y0031575D01*
G01X0035012Y0031575D02*
G01X0035006Y0031578D01*
G01X0035006Y0031578D02*
G01X0035001Y0031581D01*
G01X0035001Y0031581D02*
G01X0034995Y0031584D01*
G01X0034995Y0031584D02*
G01X0034990Y0031587D01*
G01X0034990Y0031587D02*
G01X0034985Y0031591D01*
G01X0034985Y0031591D02*
G01X0034981Y0031595D01*
G01X0034981Y0031595D02*
G01X0034976Y0031599D01*
G01X0034976Y0031599D02*
G01X0034972Y0031604D01*
G01X0034972Y0031604D02*
G01X0034968Y0031609D01*
G01X0034968Y0031609D02*
G01X0034965Y0031614D01*
G01X0034965Y0031614D02*
G01X0034962Y0031619D01*
G01X0034962Y0031619D02*
G01X0034959Y0031625D01*
G01X0034959Y0031625D02*
G01X0034957Y0031631D01*
G01X0034957Y0031631D02*
G01X0034954Y0031636D01*
G01X0034954Y0031636D02*
G01X0034953Y0031642D01*
G01X0034953Y0031642D02*
G01X0034951Y0031648D01*
G01X0034951Y0031648D02*
G01X0034950Y0031655D01*
G01X0034950Y0031655D02*
G01X0034950Y0031661D01*
G01X0034950Y0031661D02*
G01X0034950Y0031667D01*
G01X0035048Y0031568D02*
G01X0035054Y0031569D01*
G01X0035054Y0031569D02*
G01X0035060Y0031569D01*
G01X0035060Y0031569D02*
G01X0035066Y0031570D01*
G01X0035066Y0031570D02*
G01X0035073Y0031572D01*
G01X0035073Y0031572D02*
G01X0035078Y0031573D01*
G01X0035078Y0031573D02*
G01X0035084Y0031575D01*
G01X0035084Y0031575D02*
G01X0035090Y0031578D01*
G01X0035090Y0031578D02*
G01X0035095Y0031581D01*
G01X0035095Y0031581D02*
G01X0035101Y0031584D01*
G01X0035101Y0031584D02*
G01X0035106Y0031587D01*
G01X0035106Y0031587D02*
G01X0035111Y0031591D01*
G01X0035111Y0031591D02*
G01X0035115Y0031595D01*
G01X0035115Y0031595D02*
G01X0035120Y0031599D01*
G01X0035120Y0031599D02*
G01X0035124Y0031604D01*
G01X0035124Y0031604D02*
G01X0035128Y0031609D01*
G01X0035128Y0031609D02*
G01X0035131Y0031614D01*
G01X0035131Y0031614D02*
G01X0035134Y0031619D01*
G01X0035134Y0031619D02*
G01X0035137Y0031625D01*
G01X0035137Y0031625D02*
G01X0035140Y0031631D01*
G01X0035140Y0031631D02*
G01X0035142Y0031636D01*
G01X0035142Y0031636D02*
G01X0035143Y0031642D01*
G01X0035143Y0031642D02*
G01X0035145Y0031648D01*
G01X0035145Y0031648D02*
G01X0035146Y0031655D01*
G01X0035146Y0031655D02*
G01X0035146Y0031661D01*
G01X0035146Y0031661D02*
G01X0035146Y0031667D01*
M02*
