G75*
G70*
%OFA0B0*%
%FSLAX25Y25*%
%IPPOS*%
%LPD*%
%AMOC8*
5,1,8,0,0,1.08239X$1,22.5*
%
%ADD38C,0.00000*%
X0010000Y0010000D02*
G75*
%LPD*%
D38*
X0040118Y0157047D02*
X0040118Y0160197D01*
X0040120Y0160259D01*
X0040126Y0160320D01*
X0040135Y0160381D01*
X0040149Y0160442D01*
X0040166Y0160501D01*
X0040187Y0160559D01*
X0040212Y0160616D01*
X0040240Y0160671D01*
X0040271Y0160724D01*
X0040306Y0160775D01*
X0040344Y0160824D01*
X0040385Y0160871D01*
X0040428Y0160914D01*
X0040475Y0160955D01*
X0040524Y0160993D01*
X0040575Y0161028D01*
X0040628Y0161059D01*
X0040683Y0161087D01*
X0040740Y0161112D01*
X0040798Y0161133D01*
X0040857Y0161150D01*
X0040918Y0161164D01*
X0040979Y0161173D01*
X0041040Y0161179D01*
X0041102Y0161181D01*
X0041164Y0161179D01*
X0041225Y0161173D01*
X0041286Y0161164D01*
X0041347Y0161150D01*
X0041406Y0161133D01*
X0041464Y0161112D01*
X0041521Y0161087D01*
X0041576Y0161059D01*
X0041629Y0161028D01*
X0041680Y0160993D01*
X0041729Y0160955D01*
X0041776Y0160914D01*
X0041819Y0160871D01*
X0041860Y0160824D01*
X0041898Y0160775D01*
X0041933Y0160724D01*
X0041964Y0160671D01*
X0041992Y0160616D01*
X0042017Y0160559D01*
X0042038Y0160501D01*
X0042055Y0160442D01*
X0042069Y0160381D01*
X0042078Y0160320D01*
X0042084Y0160259D01*
X0042086Y0160197D01*
X0042087Y0160197D02*
X0042087Y0157047D01*
X0041102Y0156063D02*
X0041040Y0156065D01*
X0040979Y0156071D01*
X0040918Y0156080D01*
X0040857Y0156094D01*
X0040798Y0156111D01*
X0040740Y0156132D01*
X0040683Y0156157D01*
X0040628Y0156185D01*
X0040575Y0156216D01*
X0040524Y0156251D01*
X0040475Y0156289D01*
X0040428Y0156330D01*
X0040385Y0156373D01*
X0040344Y0156420D01*
X0040306Y0156469D01*
X0040271Y0156520D01*
X0040240Y0156573D01*
X0040212Y0156628D01*
X0040187Y0156685D01*
X0040166Y0156743D01*
X0040149Y0156802D01*
X0040135Y0156863D01*
X0040126Y0156924D01*
X0040120Y0156985D01*
X0040118Y0157047D01*
X0041102Y0156063D02*
X0041164Y0156065D01*
X0041225Y0156071D01*
X0041286Y0156080D01*
X0041347Y0156094D01*
X0041406Y0156111D01*
X0041464Y0156132D01*
X0041521Y0156157D01*
X0041576Y0156185D01*
X0041629Y0156216D01*
X0041680Y0156251D01*
X0041729Y0156289D01*
X0041776Y0156330D01*
X0041819Y0156373D01*
X0041860Y0156420D01*
X0041898Y0156469D01*
X0041933Y0156520D01*
X0041964Y0156573D01*
X0041992Y0156628D01*
X0042017Y0156685D01*
X0042038Y0156743D01*
X0042055Y0156802D01*
X0042069Y0156863D01*
X0042078Y0156924D01*
X0042084Y0156985D01*
X0042086Y0157047D01*
X0068465Y0157047D02*
X0068465Y0160197D01*
X0068467Y0160259D01*
X0068473Y0160320D01*
X0068482Y0160381D01*
X0068496Y0160442D01*
X0068513Y0160501D01*
X0068534Y0160559D01*
X0068559Y0160616D01*
X0068587Y0160671D01*
X0068618Y0160724D01*
X0068653Y0160775D01*
X0068691Y0160824D01*
X0068732Y0160871D01*
X0068775Y0160914D01*
X0068822Y0160955D01*
X0068871Y0160993D01*
X0068922Y0161028D01*
X0068975Y0161059D01*
X0069030Y0161087D01*
X0069087Y0161112D01*
X0069145Y0161133D01*
X0069204Y0161150D01*
X0069265Y0161164D01*
X0069326Y0161173D01*
X0069387Y0161179D01*
X0069449Y0161181D01*
X0069511Y0161179D01*
X0069572Y0161173D01*
X0069633Y0161164D01*
X0069694Y0161150D01*
X0069753Y0161133D01*
X0069811Y0161112D01*
X0069868Y0161087D01*
X0069923Y0161059D01*
X0069976Y0161028D01*
X0070027Y0160993D01*
X0070076Y0160955D01*
X0070123Y0160914D01*
X0070166Y0160871D01*
X0070207Y0160824D01*
X0070245Y0160775D01*
X0070280Y0160724D01*
X0070311Y0160671D01*
X0070339Y0160616D01*
X0070364Y0160559D01*
X0070385Y0160501D01*
X0070402Y0160442D01*
X0070416Y0160381D01*
X0070425Y0160320D01*
X0070431Y0160259D01*
X0070433Y0160197D01*
X0070433Y0157047D01*
X0069449Y0156063D02*
X0069387Y0156065D01*
X0069326Y0156071D01*
X0069265Y0156080D01*
X0069204Y0156094D01*
X0069145Y0156111D01*
X0069087Y0156132D01*
X0069030Y0156157D01*
X0068975Y0156185D01*
X0068922Y0156216D01*
X0068871Y0156251D01*
X0068822Y0156289D01*
X0068775Y0156330D01*
X0068732Y0156373D01*
X0068691Y0156420D01*
X0068653Y0156469D01*
X0068618Y0156520D01*
X0068587Y0156573D01*
X0068559Y0156628D01*
X0068534Y0156685D01*
X0068513Y0156743D01*
X0068496Y0156802D01*
X0068482Y0156863D01*
X0068473Y0156924D01*
X0068467Y0156985D01*
X0068465Y0157047D01*
X0069449Y0156063D02*
X0069511Y0156065D01*
X0069572Y0156071D01*
X0069633Y0156080D01*
X0069694Y0156094D01*
X0069753Y0156111D01*
X0069811Y0156132D01*
X0069868Y0156157D01*
X0069923Y0156185D01*
X0069976Y0156216D01*
X0070027Y0156251D01*
X0070076Y0156289D01*
X0070123Y0156330D01*
X0070166Y0156373D01*
X0070207Y0156420D01*
X0070245Y0156469D01*
X0070280Y0156520D01*
X0070311Y0156573D01*
X0070339Y0156628D01*
X0070364Y0156685D01*
X0070385Y0156743D01*
X0070402Y0156802D01*
X0070416Y0156863D01*
X0070425Y0156924D01*
X0070431Y0156985D01*
X0070433Y0157047D01*
X0010000Y0169621D02*
G75*
%LPD*%
D38*
X0040118Y0316668D02*
X0040118Y0319818D01*
X0040120Y0319880D01*
X0040126Y0319941D01*
X0040135Y0320002D01*
X0040149Y0320063D01*
X0040166Y0320122D01*
X0040187Y0320180D01*
X0040212Y0320237D01*
X0040240Y0320292D01*
X0040271Y0320345D01*
X0040306Y0320396D01*
X0040344Y0320445D01*
X0040385Y0320492D01*
X0040428Y0320535D01*
X0040475Y0320576D01*
X0040524Y0320614D01*
X0040575Y0320649D01*
X0040628Y0320680D01*
X0040683Y0320708D01*
X0040740Y0320733D01*
X0040798Y0320754D01*
X0040857Y0320771D01*
X0040918Y0320785D01*
X0040979Y0320794D01*
X0041040Y0320800D01*
X0041102Y0320802D01*
X0041164Y0320800D01*
X0041225Y0320794D01*
X0041286Y0320785D01*
X0041347Y0320771D01*
X0041406Y0320754D01*
X0041464Y0320733D01*
X0041521Y0320708D01*
X0041576Y0320680D01*
X0041629Y0320649D01*
X0041680Y0320614D01*
X0041729Y0320576D01*
X0041776Y0320535D01*
X0041819Y0320492D01*
X0041860Y0320445D01*
X0041898Y0320396D01*
X0041933Y0320345D01*
X0041964Y0320292D01*
X0041992Y0320237D01*
X0042017Y0320180D01*
X0042038Y0320122D01*
X0042055Y0320063D01*
X0042069Y0320002D01*
X0042078Y0319941D01*
X0042084Y0319880D01*
X0042086Y0319818D01*
X0042087Y0319818D02*
X0042087Y0316668D01*
X0041102Y0315684D02*
X0041040Y0315686D01*
X0040979Y0315692D01*
X0040918Y0315701D01*
X0040857Y0315715D01*
X0040798Y0315732D01*
X0040740Y0315753D01*
X0040683Y0315778D01*
X0040628Y0315806D01*
X0040575Y0315837D01*
X0040524Y0315872D01*
X0040475Y0315910D01*
X0040428Y0315951D01*
X0040385Y0315994D01*
X0040344Y0316041D01*
X0040306Y0316090D01*
X0040271Y0316141D01*
X0040240Y0316194D01*
X0040212Y0316249D01*
X0040187Y0316306D01*
X0040166Y0316364D01*
X0040149Y0316423D01*
X0040135Y0316484D01*
X0040126Y0316545D01*
X0040120Y0316606D01*
X0040118Y0316668D01*
X0041102Y0315684D02*
X0041164Y0315686D01*
X0041225Y0315692D01*
X0041286Y0315701D01*
X0041347Y0315715D01*
X0041406Y0315732D01*
X0041464Y0315753D01*
X0041521Y0315778D01*
X0041576Y0315806D01*
X0041629Y0315837D01*
X0041680Y0315872D01*
X0041729Y0315910D01*
X0041776Y0315951D01*
X0041819Y0315994D01*
X0041860Y0316041D01*
X0041898Y0316090D01*
X0041933Y0316141D01*
X0041964Y0316194D01*
X0041992Y0316249D01*
X0042017Y0316306D01*
X0042038Y0316364D01*
X0042055Y0316423D01*
X0042069Y0316484D01*
X0042078Y0316545D01*
X0042084Y0316606D01*
X0042086Y0316668D01*
X0068465Y0316668D02*
X0068465Y0319818D01*
X0068467Y0319880D01*
X0068473Y0319941D01*
X0068482Y0320002D01*
X0068496Y0320063D01*
X0068513Y0320122D01*
X0068534Y0320180D01*
X0068559Y0320237D01*
X0068587Y0320292D01*
X0068618Y0320345D01*
X0068653Y0320396D01*
X0068691Y0320445D01*
X0068732Y0320492D01*
X0068775Y0320535D01*
X0068822Y0320576D01*
X0068871Y0320614D01*
X0068922Y0320649D01*
X0068975Y0320680D01*
X0069030Y0320708D01*
X0069087Y0320733D01*
X0069145Y0320754D01*
X0069204Y0320771D01*
X0069265Y0320785D01*
X0069326Y0320794D01*
X0069387Y0320800D01*
X0069449Y0320802D01*
X0069511Y0320800D01*
X0069572Y0320794D01*
X0069633Y0320785D01*
X0069694Y0320771D01*
X0069753Y0320754D01*
X0069811Y0320733D01*
X0069868Y0320708D01*
X0069923Y0320680D01*
X0069976Y0320649D01*
X0070027Y0320614D01*
X0070076Y0320576D01*
X0070123Y0320535D01*
X0070166Y0320492D01*
X0070207Y0320445D01*
X0070245Y0320396D01*
X0070280Y0320345D01*
X0070311Y0320292D01*
X0070339Y0320237D01*
X0070364Y0320180D01*
X0070385Y0320122D01*
X0070402Y0320063D01*
X0070416Y0320002D01*
X0070425Y0319941D01*
X0070431Y0319880D01*
X0070433Y0319818D01*
X0070433Y0316668D01*
X0069449Y0315684D02*
X0069387Y0315686D01*
X0069326Y0315692D01*
X0069265Y0315701D01*
X0069204Y0315715D01*
X0069145Y0315732D01*
X0069087Y0315753D01*
X0069030Y0315778D01*
X0068975Y0315806D01*
X0068922Y0315837D01*
X0068871Y0315872D01*
X0068822Y0315910D01*
X0068775Y0315951D01*
X0068732Y0315994D01*
X0068691Y0316041D01*
X0068653Y0316090D01*
X0068618Y0316141D01*
X0068587Y0316194D01*
X0068559Y0316249D01*
X0068534Y0316306D01*
X0068513Y0316364D01*
X0068496Y0316423D01*
X0068482Y0316484D01*
X0068473Y0316545D01*
X0068467Y0316606D01*
X0068465Y0316668D01*
X0069449Y0315684D02*
X0069511Y0315686D01*
X0069572Y0315692D01*
X0069633Y0315701D01*
X0069694Y0315715D01*
X0069753Y0315732D01*
X0069811Y0315753D01*
X0069868Y0315778D01*
X0069923Y0315806D01*
X0069976Y0315837D01*
X0070027Y0315872D01*
X0070076Y0315910D01*
X0070123Y0315951D01*
X0070166Y0315994D01*
X0070207Y0316041D01*
X0070245Y0316090D01*
X0070280Y0316141D01*
X0070311Y0316194D01*
X0070339Y0316249D01*
X0070364Y0316306D01*
X0070385Y0316364D01*
X0070402Y0316423D01*
X0070416Y0316484D01*
X0070425Y0316545D01*
X0070431Y0316606D01*
X0070433Y0316668D01*
X0103677Y0010000D02*
G75*
%LPD*%
D38*
X0133795Y0157047D02*
X0133795Y0160197D01*
X0133797Y0160259D01*
X0133803Y0160320D01*
X0133812Y0160381D01*
X0133826Y0160442D01*
X0133843Y0160501D01*
X0133864Y0160559D01*
X0133889Y0160616D01*
X0133917Y0160671D01*
X0133948Y0160724D01*
X0133983Y0160775D01*
X0134021Y0160824D01*
X0134062Y0160871D01*
X0134105Y0160914D01*
X0134152Y0160955D01*
X0134201Y0160993D01*
X0134252Y0161028D01*
X0134305Y0161059D01*
X0134360Y0161087D01*
X0134417Y0161112D01*
X0134475Y0161133D01*
X0134534Y0161150D01*
X0134595Y0161164D01*
X0134656Y0161173D01*
X0134717Y0161179D01*
X0134779Y0161181D01*
X0134841Y0161179D01*
X0134902Y0161173D01*
X0134963Y0161164D01*
X0135024Y0161150D01*
X0135083Y0161133D01*
X0135141Y0161112D01*
X0135198Y0161087D01*
X0135253Y0161059D01*
X0135306Y0161028D01*
X0135357Y0160993D01*
X0135406Y0160955D01*
X0135453Y0160914D01*
X0135496Y0160871D01*
X0135537Y0160824D01*
X0135575Y0160775D01*
X0135610Y0160724D01*
X0135641Y0160671D01*
X0135669Y0160616D01*
X0135694Y0160559D01*
X0135715Y0160501D01*
X0135732Y0160442D01*
X0135746Y0160381D01*
X0135755Y0160320D01*
X0135761Y0160259D01*
X0135763Y0160197D01*
X0135764Y0160197D02*
X0135764Y0157047D01*
X0134779Y0156063D02*
X0134717Y0156065D01*
X0134656Y0156071D01*
X0134595Y0156080D01*
X0134534Y0156094D01*
X0134475Y0156111D01*
X0134417Y0156132D01*
X0134360Y0156157D01*
X0134305Y0156185D01*
X0134252Y0156216D01*
X0134201Y0156251D01*
X0134152Y0156289D01*
X0134105Y0156330D01*
X0134062Y0156373D01*
X0134021Y0156420D01*
X0133983Y0156469D01*
X0133948Y0156520D01*
X0133917Y0156573D01*
X0133889Y0156628D01*
X0133864Y0156685D01*
X0133843Y0156743D01*
X0133826Y0156802D01*
X0133812Y0156863D01*
X0133803Y0156924D01*
X0133797Y0156985D01*
X0133795Y0157047D01*
X0134779Y0156063D02*
X0134841Y0156065D01*
X0134902Y0156071D01*
X0134963Y0156080D01*
X0135024Y0156094D01*
X0135083Y0156111D01*
X0135141Y0156132D01*
X0135198Y0156157D01*
X0135253Y0156185D01*
X0135306Y0156216D01*
X0135357Y0156251D01*
X0135406Y0156289D01*
X0135453Y0156330D01*
X0135496Y0156373D01*
X0135537Y0156420D01*
X0135575Y0156469D01*
X0135610Y0156520D01*
X0135641Y0156573D01*
X0135669Y0156628D01*
X0135694Y0156685D01*
X0135715Y0156743D01*
X0135732Y0156802D01*
X0135746Y0156863D01*
X0135755Y0156924D01*
X0135761Y0156985D01*
X0135763Y0157047D01*
X0162142Y0157047D02*
X0162142Y0160197D01*
X0162144Y0160259D01*
X0162150Y0160320D01*
X0162159Y0160381D01*
X0162173Y0160442D01*
X0162190Y0160501D01*
X0162211Y0160559D01*
X0162236Y0160616D01*
X0162264Y0160671D01*
X0162295Y0160724D01*
X0162330Y0160775D01*
X0162368Y0160824D01*
X0162409Y0160871D01*
X0162452Y0160914D01*
X0162499Y0160955D01*
X0162548Y0160993D01*
X0162599Y0161028D01*
X0162652Y0161059D01*
X0162707Y0161087D01*
X0162764Y0161112D01*
X0162822Y0161133D01*
X0162881Y0161150D01*
X0162942Y0161164D01*
X0163003Y0161173D01*
X0163064Y0161179D01*
X0163126Y0161181D01*
X0163188Y0161179D01*
X0163249Y0161173D01*
X0163310Y0161164D01*
X0163371Y0161150D01*
X0163430Y0161133D01*
X0163488Y0161112D01*
X0163545Y0161087D01*
X0163600Y0161059D01*
X0163653Y0161028D01*
X0163704Y0160993D01*
X0163753Y0160955D01*
X0163800Y0160914D01*
X0163843Y0160871D01*
X0163884Y0160824D01*
X0163922Y0160775D01*
X0163957Y0160724D01*
X0163988Y0160671D01*
X0164016Y0160616D01*
X0164041Y0160559D01*
X0164062Y0160501D01*
X0164079Y0160442D01*
X0164093Y0160381D01*
X0164102Y0160320D01*
X0164108Y0160259D01*
X0164110Y0160197D01*
X0164110Y0157047D01*
X0163126Y0156063D02*
X0163064Y0156065D01*
X0163003Y0156071D01*
X0162942Y0156080D01*
X0162881Y0156094D01*
X0162822Y0156111D01*
X0162764Y0156132D01*
X0162707Y0156157D01*
X0162652Y0156185D01*
X0162599Y0156216D01*
X0162548Y0156251D01*
X0162499Y0156289D01*
X0162452Y0156330D01*
X0162409Y0156373D01*
X0162368Y0156420D01*
X0162330Y0156469D01*
X0162295Y0156520D01*
X0162264Y0156573D01*
X0162236Y0156628D01*
X0162211Y0156685D01*
X0162190Y0156743D01*
X0162173Y0156802D01*
X0162159Y0156863D01*
X0162150Y0156924D01*
X0162144Y0156985D01*
X0162142Y0157047D01*
X0163126Y0156063D02*
X0163188Y0156065D01*
X0163249Y0156071D01*
X0163310Y0156080D01*
X0163371Y0156094D01*
X0163430Y0156111D01*
X0163488Y0156132D01*
X0163545Y0156157D01*
X0163600Y0156185D01*
X0163653Y0156216D01*
X0163704Y0156251D01*
X0163753Y0156289D01*
X0163800Y0156330D01*
X0163843Y0156373D01*
X0163884Y0156420D01*
X0163922Y0156469D01*
X0163957Y0156520D01*
X0163988Y0156573D01*
X0164016Y0156628D01*
X0164041Y0156685D01*
X0164062Y0156743D01*
X0164079Y0156802D01*
X0164093Y0156863D01*
X0164102Y0156924D01*
X0164108Y0156985D01*
X0164110Y0157047D01*
X0103677Y0169621D02*
G75*
%LPD*%
D38*
X0133795Y0316668D02*
X0133795Y0319818D01*
X0133797Y0319880D01*
X0133803Y0319941D01*
X0133812Y0320002D01*
X0133826Y0320063D01*
X0133843Y0320122D01*
X0133864Y0320180D01*
X0133889Y0320237D01*
X0133917Y0320292D01*
X0133948Y0320345D01*
X0133983Y0320396D01*
X0134021Y0320445D01*
X0134062Y0320492D01*
X0134105Y0320535D01*
X0134152Y0320576D01*
X0134201Y0320614D01*
X0134252Y0320649D01*
X0134305Y0320680D01*
X0134360Y0320708D01*
X0134417Y0320733D01*
X0134475Y0320754D01*
X0134534Y0320771D01*
X0134595Y0320785D01*
X0134656Y0320794D01*
X0134717Y0320800D01*
X0134779Y0320802D01*
X0134841Y0320800D01*
X0134902Y0320794D01*
X0134963Y0320785D01*
X0135024Y0320771D01*
X0135083Y0320754D01*
X0135141Y0320733D01*
X0135198Y0320708D01*
X0135253Y0320680D01*
X0135306Y0320649D01*
X0135357Y0320614D01*
X0135406Y0320576D01*
X0135453Y0320535D01*
X0135496Y0320492D01*
X0135537Y0320445D01*
X0135575Y0320396D01*
X0135610Y0320345D01*
X0135641Y0320292D01*
X0135669Y0320237D01*
X0135694Y0320180D01*
X0135715Y0320122D01*
X0135732Y0320063D01*
X0135746Y0320002D01*
X0135755Y0319941D01*
X0135761Y0319880D01*
X0135763Y0319818D01*
X0135764Y0319818D02*
X0135764Y0316668D01*
X0134779Y0315684D02*
X0134717Y0315686D01*
X0134656Y0315692D01*
X0134595Y0315701D01*
X0134534Y0315715D01*
X0134475Y0315732D01*
X0134417Y0315753D01*
X0134360Y0315778D01*
X0134305Y0315806D01*
X0134252Y0315837D01*
X0134201Y0315872D01*
X0134152Y0315910D01*
X0134105Y0315951D01*
X0134062Y0315994D01*
X0134021Y0316041D01*
X0133983Y0316090D01*
X0133948Y0316141D01*
X0133917Y0316194D01*
X0133889Y0316249D01*
X0133864Y0316306D01*
X0133843Y0316364D01*
X0133826Y0316423D01*
X0133812Y0316484D01*
X0133803Y0316545D01*
X0133797Y0316606D01*
X0133795Y0316668D01*
X0134779Y0315684D02*
X0134841Y0315686D01*
X0134902Y0315692D01*
X0134963Y0315701D01*
X0135024Y0315715D01*
X0135083Y0315732D01*
X0135141Y0315753D01*
X0135198Y0315778D01*
X0135253Y0315806D01*
X0135306Y0315837D01*
X0135357Y0315872D01*
X0135406Y0315910D01*
X0135453Y0315951D01*
X0135496Y0315994D01*
X0135537Y0316041D01*
X0135575Y0316090D01*
X0135610Y0316141D01*
X0135641Y0316194D01*
X0135669Y0316249D01*
X0135694Y0316306D01*
X0135715Y0316364D01*
X0135732Y0316423D01*
X0135746Y0316484D01*
X0135755Y0316545D01*
X0135761Y0316606D01*
X0135763Y0316668D01*
X0162142Y0316668D02*
X0162142Y0319818D01*
X0162144Y0319880D01*
X0162150Y0319941D01*
X0162159Y0320002D01*
X0162173Y0320063D01*
X0162190Y0320122D01*
X0162211Y0320180D01*
X0162236Y0320237D01*
X0162264Y0320292D01*
X0162295Y0320345D01*
X0162330Y0320396D01*
X0162368Y0320445D01*
X0162409Y0320492D01*
X0162452Y0320535D01*
X0162499Y0320576D01*
X0162548Y0320614D01*
X0162599Y0320649D01*
X0162652Y0320680D01*
X0162707Y0320708D01*
X0162764Y0320733D01*
X0162822Y0320754D01*
X0162881Y0320771D01*
X0162942Y0320785D01*
X0163003Y0320794D01*
X0163064Y0320800D01*
X0163126Y0320802D01*
X0163188Y0320800D01*
X0163249Y0320794D01*
X0163310Y0320785D01*
X0163371Y0320771D01*
X0163430Y0320754D01*
X0163488Y0320733D01*
X0163545Y0320708D01*
X0163600Y0320680D01*
X0163653Y0320649D01*
X0163704Y0320614D01*
X0163753Y0320576D01*
X0163800Y0320535D01*
X0163843Y0320492D01*
X0163884Y0320445D01*
X0163922Y0320396D01*
X0163957Y0320345D01*
X0163988Y0320292D01*
X0164016Y0320237D01*
X0164041Y0320180D01*
X0164062Y0320122D01*
X0164079Y0320063D01*
X0164093Y0320002D01*
X0164102Y0319941D01*
X0164108Y0319880D01*
X0164110Y0319818D01*
X0164110Y0316668D01*
X0163126Y0315684D02*
X0163064Y0315686D01*
X0163003Y0315692D01*
X0162942Y0315701D01*
X0162881Y0315715D01*
X0162822Y0315732D01*
X0162764Y0315753D01*
X0162707Y0315778D01*
X0162652Y0315806D01*
X0162599Y0315837D01*
X0162548Y0315872D01*
X0162499Y0315910D01*
X0162452Y0315951D01*
X0162409Y0315994D01*
X0162368Y0316041D01*
X0162330Y0316090D01*
X0162295Y0316141D01*
X0162264Y0316194D01*
X0162236Y0316249D01*
X0162211Y0316306D01*
X0162190Y0316364D01*
X0162173Y0316423D01*
X0162159Y0316484D01*
X0162150Y0316545D01*
X0162144Y0316606D01*
X0162142Y0316668D01*
X0163126Y0315684D02*
X0163188Y0315686D01*
X0163249Y0315692D01*
X0163310Y0315701D01*
X0163371Y0315715D01*
X0163430Y0315732D01*
X0163488Y0315753D01*
X0163545Y0315778D01*
X0163600Y0315806D01*
X0163653Y0315837D01*
X0163704Y0315872D01*
X0163753Y0315910D01*
X0163800Y0315951D01*
X0163843Y0315994D01*
X0163884Y0316041D01*
X0163922Y0316090D01*
X0163957Y0316141D01*
X0163988Y0316194D01*
X0164016Y0316249D01*
X0164041Y0316306D01*
X0164062Y0316364D01*
X0164079Y0316423D01*
X0164093Y0316484D01*
X0164102Y0316545D01*
X0164108Y0316606D01*
X0164110Y0316668D01*
X0197354Y0010000D02*
G75*
%LPD*%
D38*
X0227472Y0157047D02*
X0227472Y0160197D01*
X0227474Y0160259D01*
X0227480Y0160320D01*
X0227489Y0160381D01*
X0227503Y0160442D01*
X0227520Y0160501D01*
X0227541Y0160559D01*
X0227566Y0160616D01*
X0227594Y0160671D01*
X0227625Y0160724D01*
X0227660Y0160775D01*
X0227698Y0160824D01*
X0227739Y0160871D01*
X0227782Y0160914D01*
X0227829Y0160955D01*
X0227878Y0160993D01*
X0227929Y0161028D01*
X0227982Y0161059D01*
X0228037Y0161087D01*
X0228094Y0161112D01*
X0228152Y0161133D01*
X0228211Y0161150D01*
X0228272Y0161164D01*
X0228333Y0161173D01*
X0228394Y0161179D01*
X0228456Y0161181D01*
X0228518Y0161179D01*
X0228579Y0161173D01*
X0228640Y0161164D01*
X0228701Y0161150D01*
X0228760Y0161133D01*
X0228818Y0161112D01*
X0228875Y0161087D01*
X0228930Y0161059D01*
X0228983Y0161028D01*
X0229034Y0160993D01*
X0229083Y0160955D01*
X0229130Y0160914D01*
X0229173Y0160871D01*
X0229214Y0160824D01*
X0229252Y0160775D01*
X0229287Y0160724D01*
X0229318Y0160671D01*
X0229346Y0160616D01*
X0229371Y0160559D01*
X0229392Y0160501D01*
X0229409Y0160442D01*
X0229423Y0160381D01*
X0229432Y0160320D01*
X0229438Y0160259D01*
X0229440Y0160197D01*
X0229441Y0160197D02*
X0229441Y0157047D01*
X0228456Y0156063D02*
X0228394Y0156065D01*
X0228333Y0156071D01*
X0228272Y0156080D01*
X0228211Y0156094D01*
X0228152Y0156111D01*
X0228094Y0156132D01*
X0228037Y0156157D01*
X0227982Y0156185D01*
X0227929Y0156216D01*
X0227878Y0156251D01*
X0227829Y0156289D01*
X0227782Y0156330D01*
X0227739Y0156373D01*
X0227698Y0156420D01*
X0227660Y0156469D01*
X0227625Y0156520D01*
X0227594Y0156573D01*
X0227566Y0156628D01*
X0227541Y0156685D01*
X0227520Y0156743D01*
X0227503Y0156802D01*
X0227489Y0156863D01*
X0227480Y0156924D01*
X0227474Y0156985D01*
X0227472Y0157047D01*
X0228456Y0156063D02*
X0228518Y0156065D01*
X0228579Y0156071D01*
X0228640Y0156080D01*
X0228701Y0156094D01*
X0228760Y0156111D01*
X0228818Y0156132D01*
X0228875Y0156157D01*
X0228930Y0156185D01*
X0228983Y0156216D01*
X0229034Y0156251D01*
X0229083Y0156289D01*
X0229130Y0156330D01*
X0229173Y0156373D01*
X0229214Y0156420D01*
X0229252Y0156469D01*
X0229287Y0156520D01*
X0229318Y0156573D01*
X0229346Y0156628D01*
X0229371Y0156685D01*
X0229392Y0156743D01*
X0229409Y0156802D01*
X0229423Y0156863D01*
X0229432Y0156924D01*
X0229438Y0156985D01*
X0229440Y0157047D01*
X0255819Y0157047D02*
X0255819Y0160197D01*
X0255821Y0160259D01*
X0255827Y0160320D01*
X0255836Y0160381D01*
X0255850Y0160442D01*
X0255867Y0160501D01*
X0255888Y0160559D01*
X0255913Y0160616D01*
X0255941Y0160671D01*
X0255972Y0160724D01*
X0256007Y0160775D01*
X0256045Y0160824D01*
X0256086Y0160871D01*
X0256129Y0160914D01*
X0256176Y0160955D01*
X0256225Y0160993D01*
X0256276Y0161028D01*
X0256329Y0161059D01*
X0256384Y0161087D01*
X0256441Y0161112D01*
X0256499Y0161133D01*
X0256558Y0161150D01*
X0256619Y0161164D01*
X0256680Y0161173D01*
X0256741Y0161179D01*
X0256803Y0161181D01*
X0256865Y0161179D01*
X0256926Y0161173D01*
X0256987Y0161164D01*
X0257048Y0161150D01*
X0257107Y0161133D01*
X0257165Y0161112D01*
X0257222Y0161087D01*
X0257277Y0161059D01*
X0257330Y0161028D01*
X0257381Y0160993D01*
X0257430Y0160955D01*
X0257477Y0160914D01*
X0257520Y0160871D01*
X0257561Y0160824D01*
X0257599Y0160775D01*
X0257634Y0160724D01*
X0257665Y0160671D01*
X0257693Y0160616D01*
X0257718Y0160559D01*
X0257739Y0160501D01*
X0257756Y0160442D01*
X0257770Y0160381D01*
X0257779Y0160320D01*
X0257785Y0160259D01*
X0257787Y0160197D01*
X0257787Y0157047D01*
X0256803Y0156063D02*
X0256741Y0156065D01*
X0256680Y0156071D01*
X0256619Y0156080D01*
X0256558Y0156094D01*
X0256499Y0156111D01*
X0256441Y0156132D01*
X0256384Y0156157D01*
X0256329Y0156185D01*
X0256276Y0156216D01*
X0256225Y0156251D01*
X0256176Y0156289D01*
X0256129Y0156330D01*
X0256086Y0156373D01*
X0256045Y0156420D01*
X0256007Y0156469D01*
X0255972Y0156520D01*
X0255941Y0156573D01*
X0255913Y0156628D01*
X0255888Y0156685D01*
X0255867Y0156743D01*
X0255850Y0156802D01*
X0255836Y0156863D01*
X0255827Y0156924D01*
X0255821Y0156985D01*
X0255819Y0157047D01*
X0256803Y0156063D02*
X0256865Y0156065D01*
X0256926Y0156071D01*
X0256987Y0156080D01*
X0257048Y0156094D01*
X0257107Y0156111D01*
X0257165Y0156132D01*
X0257222Y0156157D01*
X0257277Y0156185D01*
X0257330Y0156216D01*
X0257381Y0156251D01*
X0257430Y0156289D01*
X0257477Y0156330D01*
X0257520Y0156373D01*
X0257561Y0156420D01*
X0257599Y0156469D01*
X0257634Y0156520D01*
X0257665Y0156573D01*
X0257693Y0156628D01*
X0257718Y0156685D01*
X0257739Y0156743D01*
X0257756Y0156802D01*
X0257770Y0156863D01*
X0257779Y0156924D01*
X0257785Y0156985D01*
X0257787Y0157047D01*
X0197354Y0169621D02*
G75*
%LPD*%
D38*
X0227472Y0316668D02*
X0227472Y0319818D01*
X0227474Y0319880D01*
X0227480Y0319941D01*
X0227489Y0320002D01*
X0227503Y0320063D01*
X0227520Y0320122D01*
X0227541Y0320180D01*
X0227566Y0320237D01*
X0227594Y0320292D01*
X0227625Y0320345D01*
X0227660Y0320396D01*
X0227698Y0320445D01*
X0227739Y0320492D01*
X0227782Y0320535D01*
X0227829Y0320576D01*
X0227878Y0320614D01*
X0227929Y0320649D01*
X0227982Y0320680D01*
X0228037Y0320708D01*
X0228094Y0320733D01*
X0228152Y0320754D01*
X0228211Y0320771D01*
X0228272Y0320785D01*
X0228333Y0320794D01*
X0228394Y0320800D01*
X0228456Y0320802D01*
X0228518Y0320800D01*
X0228579Y0320794D01*
X0228640Y0320785D01*
X0228701Y0320771D01*
X0228760Y0320754D01*
X0228818Y0320733D01*
X0228875Y0320708D01*
X0228930Y0320680D01*
X0228983Y0320649D01*
X0229034Y0320614D01*
X0229083Y0320576D01*
X0229130Y0320535D01*
X0229173Y0320492D01*
X0229214Y0320445D01*
X0229252Y0320396D01*
X0229287Y0320345D01*
X0229318Y0320292D01*
X0229346Y0320237D01*
X0229371Y0320180D01*
X0229392Y0320122D01*
X0229409Y0320063D01*
X0229423Y0320002D01*
X0229432Y0319941D01*
X0229438Y0319880D01*
X0229440Y0319818D01*
X0229441Y0319818D02*
X0229441Y0316668D01*
X0228456Y0315684D02*
X0228394Y0315686D01*
X0228333Y0315692D01*
X0228272Y0315701D01*
X0228211Y0315715D01*
X0228152Y0315732D01*
X0228094Y0315753D01*
X0228037Y0315778D01*
X0227982Y0315806D01*
X0227929Y0315837D01*
X0227878Y0315872D01*
X0227829Y0315910D01*
X0227782Y0315951D01*
X0227739Y0315994D01*
X0227698Y0316041D01*
X0227660Y0316090D01*
X0227625Y0316141D01*
X0227594Y0316194D01*
X0227566Y0316249D01*
X0227541Y0316306D01*
X0227520Y0316364D01*
X0227503Y0316423D01*
X0227489Y0316484D01*
X0227480Y0316545D01*
X0227474Y0316606D01*
X0227472Y0316668D01*
X0228456Y0315684D02*
X0228518Y0315686D01*
X0228579Y0315692D01*
X0228640Y0315701D01*
X0228701Y0315715D01*
X0228760Y0315732D01*
X0228818Y0315753D01*
X0228875Y0315778D01*
X0228930Y0315806D01*
X0228983Y0315837D01*
X0229034Y0315872D01*
X0229083Y0315910D01*
X0229130Y0315951D01*
X0229173Y0315994D01*
X0229214Y0316041D01*
X0229252Y0316090D01*
X0229287Y0316141D01*
X0229318Y0316194D01*
X0229346Y0316249D01*
X0229371Y0316306D01*
X0229392Y0316364D01*
X0229409Y0316423D01*
X0229423Y0316484D01*
X0229432Y0316545D01*
X0229438Y0316606D01*
X0229440Y0316668D01*
X0255819Y0316668D02*
X0255819Y0319818D01*
X0255821Y0319880D01*
X0255827Y0319941D01*
X0255836Y0320002D01*
X0255850Y0320063D01*
X0255867Y0320122D01*
X0255888Y0320180D01*
X0255913Y0320237D01*
X0255941Y0320292D01*
X0255972Y0320345D01*
X0256007Y0320396D01*
X0256045Y0320445D01*
X0256086Y0320492D01*
X0256129Y0320535D01*
X0256176Y0320576D01*
X0256225Y0320614D01*
X0256276Y0320649D01*
X0256329Y0320680D01*
X0256384Y0320708D01*
X0256441Y0320733D01*
X0256499Y0320754D01*
X0256558Y0320771D01*
X0256619Y0320785D01*
X0256680Y0320794D01*
X0256741Y0320800D01*
X0256803Y0320802D01*
X0256865Y0320800D01*
X0256926Y0320794D01*
X0256987Y0320785D01*
X0257048Y0320771D01*
X0257107Y0320754D01*
X0257165Y0320733D01*
X0257222Y0320708D01*
X0257277Y0320680D01*
X0257330Y0320649D01*
X0257381Y0320614D01*
X0257430Y0320576D01*
X0257477Y0320535D01*
X0257520Y0320492D01*
X0257561Y0320445D01*
X0257599Y0320396D01*
X0257634Y0320345D01*
X0257665Y0320292D01*
X0257693Y0320237D01*
X0257718Y0320180D01*
X0257739Y0320122D01*
X0257756Y0320063D01*
X0257770Y0320002D01*
X0257779Y0319941D01*
X0257785Y0319880D01*
X0257787Y0319818D01*
X0257787Y0316668D01*
X0256803Y0315684D02*
X0256741Y0315686D01*
X0256680Y0315692D01*
X0256619Y0315701D01*
X0256558Y0315715D01*
X0256499Y0315732D01*
X0256441Y0315753D01*
X0256384Y0315778D01*
X0256329Y0315806D01*
X0256276Y0315837D01*
X0256225Y0315872D01*
X0256176Y0315910D01*
X0256129Y0315951D01*
X0256086Y0315994D01*
X0256045Y0316041D01*
X0256007Y0316090D01*
X0255972Y0316141D01*
X0255941Y0316194D01*
X0255913Y0316249D01*
X0255888Y0316306D01*
X0255867Y0316364D01*
X0255850Y0316423D01*
X0255836Y0316484D01*
X0255827Y0316545D01*
X0255821Y0316606D01*
X0255819Y0316668D01*
X0256803Y0315684D02*
X0256865Y0315686D01*
X0256926Y0315692D01*
X0256987Y0315701D01*
X0257048Y0315715D01*
X0257107Y0315732D01*
X0257165Y0315753D01*
X0257222Y0315778D01*
X0257277Y0315806D01*
X0257330Y0315837D01*
X0257381Y0315872D01*
X0257430Y0315910D01*
X0257477Y0315951D01*
X0257520Y0315994D01*
X0257561Y0316041D01*
X0257599Y0316090D01*
X0257634Y0316141D01*
X0257665Y0316194D01*
X0257693Y0316249D01*
X0257718Y0316306D01*
X0257739Y0316364D01*
X0257756Y0316423D01*
X0257770Y0316484D01*
X0257779Y0316545D01*
X0257785Y0316606D01*
X0257787Y0316668D01*
X0291031Y0010000D02*
G75*
%LPD*%
D38*
X0321149Y0157047D02*
X0321149Y0160197D01*
X0321151Y0160259D01*
X0321157Y0160320D01*
X0321166Y0160381D01*
X0321180Y0160442D01*
X0321197Y0160501D01*
X0321218Y0160559D01*
X0321243Y0160616D01*
X0321271Y0160671D01*
X0321302Y0160724D01*
X0321337Y0160775D01*
X0321375Y0160824D01*
X0321416Y0160871D01*
X0321459Y0160914D01*
X0321506Y0160955D01*
X0321555Y0160993D01*
X0321606Y0161028D01*
X0321659Y0161059D01*
X0321714Y0161087D01*
X0321771Y0161112D01*
X0321829Y0161133D01*
X0321888Y0161150D01*
X0321949Y0161164D01*
X0322010Y0161173D01*
X0322071Y0161179D01*
X0322133Y0161181D01*
X0322195Y0161179D01*
X0322256Y0161173D01*
X0322317Y0161164D01*
X0322378Y0161150D01*
X0322437Y0161133D01*
X0322495Y0161112D01*
X0322552Y0161087D01*
X0322607Y0161059D01*
X0322660Y0161028D01*
X0322711Y0160993D01*
X0322760Y0160955D01*
X0322807Y0160914D01*
X0322850Y0160871D01*
X0322891Y0160824D01*
X0322929Y0160775D01*
X0322964Y0160724D01*
X0322995Y0160671D01*
X0323023Y0160616D01*
X0323048Y0160559D01*
X0323069Y0160501D01*
X0323086Y0160442D01*
X0323100Y0160381D01*
X0323109Y0160320D01*
X0323115Y0160259D01*
X0323117Y0160197D01*
X0323118Y0160197D02*
X0323118Y0157047D01*
X0322133Y0156063D02*
X0322071Y0156065D01*
X0322010Y0156071D01*
X0321949Y0156080D01*
X0321888Y0156094D01*
X0321829Y0156111D01*
X0321771Y0156132D01*
X0321714Y0156157D01*
X0321659Y0156185D01*
X0321606Y0156216D01*
X0321555Y0156251D01*
X0321506Y0156289D01*
X0321459Y0156330D01*
X0321416Y0156373D01*
X0321375Y0156420D01*
X0321337Y0156469D01*
X0321302Y0156520D01*
X0321271Y0156573D01*
X0321243Y0156628D01*
X0321218Y0156685D01*
X0321197Y0156743D01*
X0321180Y0156802D01*
X0321166Y0156863D01*
X0321157Y0156924D01*
X0321151Y0156985D01*
X0321149Y0157047D01*
X0322133Y0156063D02*
X0322195Y0156065D01*
X0322256Y0156071D01*
X0322317Y0156080D01*
X0322378Y0156094D01*
X0322437Y0156111D01*
X0322495Y0156132D01*
X0322552Y0156157D01*
X0322607Y0156185D01*
X0322660Y0156216D01*
X0322711Y0156251D01*
X0322760Y0156289D01*
X0322807Y0156330D01*
X0322850Y0156373D01*
X0322891Y0156420D01*
X0322929Y0156469D01*
X0322964Y0156520D01*
X0322995Y0156573D01*
X0323023Y0156628D01*
X0323048Y0156685D01*
X0323069Y0156743D01*
X0323086Y0156802D01*
X0323100Y0156863D01*
X0323109Y0156924D01*
X0323115Y0156985D01*
X0323117Y0157047D01*
X0349496Y0157047D02*
X0349496Y0160197D01*
X0349498Y0160259D01*
X0349504Y0160320D01*
X0349513Y0160381D01*
X0349527Y0160442D01*
X0349544Y0160501D01*
X0349565Y0160559D01*
X0349590Y0160616D01*
X0349618Y0160671D01*
X0349649Y0160724D01*
X0349684Y0160775D01*
X0349722Y0160824D01*
X0349763Y0160871D01*
X0349806Y0160914D01*
X0349853Y0160955D01*
X0349902Y0160993D01*
X0349953Y0161028D01*
X0350006Y0161059D01*
X0350061Y0161087D01*
X0350118Y0161112D01*
X0350176Y0161133D01*
X0350235Y0161150D01*
X0350296Y0161164D01*
X0350357Y0161173D01*
X0350418Y0161179D01*
X0350480Y0161181D01*
X0350542Y0161179D01*
X0350603Y0161173D01*
X0350664Y0161164D01*
X0350725Y0161150D01*
X0350784Y0161133D01*
X0350842Y0161112D01*
X0350899Y0161087D01*
X0350954Y0161059D01*
X0351007Y0161028D01*
X0351058Y0160993D01*
X0351107Y0160955D01*
X0351154Y0160914D01*
X0351197Y0160871D01*
X0351238Y0160824D01*
X0351276Y0160775D01*
X0351311Y0160724D01*
X0351342Y0160671D01*
X0351370Y0160616D01*
X0351395Y0160559D01*
X0351416Y0160501D01*
X0351433Y0160442D01*
X0351447Y0160381D01*
X0351456Y0160320D01*
X0351462Y0160259D01*
X0351464Y0160197D01*
X0351464Y0157047D01*
X0350480Y0156063D02*
X0350418Y0156065D01*
X0350357Y0156071D01*
X0350296Y0156080D01*
X0350235Y0156094D01*
X0350176Y0156111D01*
X0350118Y0156132D01*
X0350061Y0156157D01*
X0350006Y0156185D01*
X0349953Y0156216D01*
X0349902Y0156251D01*
X0349853Y0156289D01*
X0349806Y0156330D01*
X0349763Y0156373D01*
X0349722Y0156420D01*
X0349684Y0156469D01*
X0349649Y0156520D01*
X0349618Y0156573D01*
X0349590Y0156628D01*
X0349565Y0156685D01*
X0349544Y0156743D01*
X0349527Y0156802D01*
X0349513Y0156863D01*
X0349504Y0156924D01*
X0349498Y0156985D01*
X0349496Y0157047D01*
X0350480Y0156063D02*
X0350542Y0156065D01*
X0350603Y0156071D01*
X0350664Y0156080D01*
X0350725Y0156094D01*
X0350784Y0156111D01*
X0350842Y0156132D01*
X0350899Y0156157D01*
X0350954Y0156185D01*
X0351007Y0156216D01*
X0351058Y0156251D01*
X0351107Y0156289D01*
X0351154Y0156330D01*
X0351197Y0156373D01*
X0351238Y0156420D01*
X0351276Y0156469D01*
X0351311Y0156520D01*
X0351342Y0156573D01*
X0351370Y0156628D01*
X0351395Y0156685D01*
X0351416Y0156743D01*
X0351433Y0156802D01*
X0351447Y0156863D01*
X0351456Y0156924D01*
X0351462Y0156985D01*
X0351464Y0157047D01*
X0291031Y0169621D02*
G75*
%LPD*%
D38*
X0321149Y0316668D02*
X0321149Y0319818D01*
X0321151Y0319880D01*
X0321157Y0319941D01*
X0321166Y0320002D01*
X0321180Y0320063D01*
X0321197Y0320122D01*
X0321218Y0320180D01*
X0321243Y0320237D01*
X0321271Y0320292D01*
X0321302Y0320345D01*
X0321337Y0320396D01*
X0321375Y0320445D01*
X0321416Y0320492D01*
X0321459Y0320535D01*
X0321506Y0320576D01*
X0321555Y0320614D01*
X0321606Y0320649D01*
X0321659Y0320680D01*
X0321714Y0320708D01*
X0321771Y0320733D01*
X0321829Y0320754D01*
X0321888Y0320771D01*
X0321949Y0320785D01*
X0322010Y0320794D01*
X0322071Y0320800D01*
X0322133Y0320802D01*
X0322195Y0320800D01*
X0322256Y0320794D01*
X0322317Y0320785D01*
X0322378Y0320771D01*
X0322437Y0320754D01*
X0322495Y0320733D01*
X0322552Y0320708D01*
X0322607Y0320680D01*
X0322660Y0320649D01*
X0322711Y0320614D01*
X0322760Y0320576D01*
X0322807Y0320535D01*
X0322850Y0320492D01*
X0322891Y0320445D01*
X0322929Y0320396D01*
X0322964Y0320345D01*
X0322995Y0320292D01*
X0323023Y0320237D01*
X0323048Y0320180D01*
X0323069Y0320122D01*
X0323086Y0320063D01*
X0323100Y0320002D01*
X0323109Y0319941D01*
X0323115Y0319880D01*
X0323117Y0319818D01*
X0323118Y0319818D02*
X0323118Y0316668D01*
X0322133Y0315684D02*
X0322071Y0315686D01*
X0322010Y0315692D01*
X0321949Y0315701D01*
X0321888Y0315715D01*
X0321829Y0315732D01*
X0321771Y0315753D01*
X0321714Y0315778D01*
X0321659Y0315806D01*
X0321606Y0315837D01*
X0321555Y0315872D01*
X0321506Y0315910D01*
X0321459Y0315951D01*
X0321416Y0315994D01*
X0321375Y0316041D01*
X0321337Y0316090D01*
X0321302Y0316141D01*
X0321271Y0316194D01*
X0321243Y0316249D01*
X0321218Y0316306D01*
X0321197Y0316364D01*
X0321180Y0316423D01*
X0321166Y0316484D01*
X0321157Y0316545D01*
X0321151Y0316606D01*
X0321149Y0316668D01*
X0322133Y0315684D02*
X0322195Y0315686D01*
X0322256Y0315692D01*
X0322317Y0315701D01*
X0322378Y0315715D01*
X0322437Y0315732D01*
X0322495Y0315753D01*
X0322552Y0315778D01*
X0322607Y0315806D01*
X0322660Y0315837D01*
X0322711Y0315872D01*
X0322760Y0315910D01*
X0322807Y0315951D01*
X0322850Y0315994D01*
X0322891Y0316041D01*
X0322929Y0316090D01*
X0322964Y0316141D01*
X0322995Y0316194D01*
X0323023Y0316249D01*
X0323048Y0316306D01*
X0323069Y0316364D01*
X0323086Y0316423D01*
X0323100Y0316484D01*
X0323109Y0316545D01*
X0323115Y0316606D01*
X0323117Y0316668D01*
X0349496Y0316668D02*
X0349496Y0319818D01*
X0349498Y0319880D01*
X0349504Y0319941D01*
X0349513Y0320002D01*
X0349527Y0320063D01*
X0349544Y0320122D01*
X0349565Y0320180D01*
X0349590Y0320237D01*
X0349618Y0320292D01*
X0349649Y0320345D01*
X0349684Y0320396D01*
X0349722Y0320445D01*
X0349763Y0320492D01*
X0349806Y0320535D01*
X0349853Y0320576D01*
X0349902Y0320614D01*
X0349953Y0320649D01*
X0350006Y0320680D01*
X0350061Y0320708D01*
X0350118Y0320733D01*
X0350176Y0320754D01*
X0350235Y0320771D01*
X0350296Y0320785D01*
X0350357Y0320794D01*
X0350418Y0320800D01*
X0350480Y0320802D01*
X0350542Y0320800D01*
X0350603Y0320794D01*
X0350664Y0320785D01*
X0350725Y0320771D01*
X0350784Y0320754D01*
X0350842Y0320733D01*
X0350899Y0320708D01*
X0350954Y0320680D01*
X0351007Y0320649D01*
X0351058Y0320614D01*
X0351107Y0320576D01*
X0351154Y0320535D01*
X0351197Y0320492D01*
X0351238Y0320445D01*
X0351276Y0320396D01*
X0351311Y0320345D01*
X0351342Y0320292D01*
X0351370Y0320237D01*
X0351395Y0320180D01*
X0351416Y0320122D01*
X0351433Y0320063D01*
X0351447Y0320002D01*
X0351456Y0319941D01*
X0351462Y0319880D01*
X0351464Y0319818D01*
X0351464Y0316668D01*
X0350480Y0315684D02*
X0350418Y0315686D01*
X0350357Y0315692D01*
X0350296Y0315701D01*
X0350235Y0315715D01*
X0350176Y0315732D01*
X0350118Y0315753D01*
X0350061Y0315778D01*
X0350006Y0315806D01*
X0349953Y0315837D01*
X0349902Y0315872D01*
X0349853Y0315910D01*
X0349806Y0315951D01*
X0349763Y0315994D01*
X0349722Y0316041D01*
X0349684Y0316090D01*
X0349649Y0316141D01*
X0349618Y0316194D01*
X0349590Y0316249D01*
X0349565Y0316306D01*
X0349544Y0316364D01*
X0349527Y0316423D01*
X0349513Y0316484D01*
X0349504Y0316545D01*
X0349498Y0316606D01*
X0349496Y0316668D01*
X0350480Y0315684D02*
X0350542Y0315686D01*
X0350603Y0315692D01*
X0350664Y0315701D01*
X0350725Y0315715D01*
X0350784Y0315732D01*
X0350842Y0315753D01*
X0350899Y0315778D01*
X0350954Y0315806D01*
X0351007Y0315837D01*
X0351058Y0315872D01*
X0351107Y0315910D01*
X0351154Y0315951D01*
X0351197Y0315994D01*
X0351238Y0316041D01*
X0351276Y0316090D01*
X0351311Y0316141D01*
X0351342Y0316194D01*
X0351370Y0316249D01*
X0351395Y0316306D01*
X0351416Y0316364D01*
X0351433Y0316423D01*
X0351447Y0316484D01*
X0351456Y0316545D01*
X0351462Y0316606D01*
X0351464Y0316668D01*
M02*
