%
T01C0.010000
X8290Y15175
X6985Y11935
X6670Y10810
X6085Y9640
X6490Y8920
X7120Y8470
X7750Y8650
X7975Y9325
X8110Y10900
X6220Y14140
X5173Y13579
X5950Y10765
X4960Y11485
X4105Y12340
X2980Y12565
X2339Y12717
X1984Y12437
X1585Y11395
X1984Y13579
X2350Y13915
X2890Y14455
X3385Y15355
X3160Y9865
X2980Y9415
X2890Y9055
X3295Y8470
X4060Y9100
X8290Y31137
X6985Y27897
X6670Y26772
X6085Y25602
X6490Y24882
X7120Y24432
X7750Y24612
X7975Y25287
X8110Y26862
X6220Y30102
X5173Y29541
X5950Y26727
X4960Y27447
X4105Y28302
X2980Y28527
X2339Y28679
X1984Y28399
X1585Y27357
X1984Y29541
X2350Y29877
X2890Y30417
X3385Y31317
X3160Y25827
X2980Y25377
X2890Y25017
X3295Y24432
X4060Y25062
X17658Y15175
X16353Y11935
X16038Y10810
X15453Y9640
X15858Y8920
X16488Y8470
X17118Y8650
X17343Y9325
X17478Y10900
X15588Y14140
X14541Y13579
X15318Y10765
X14328Y11485
X13473Y12340
X12348Y12565
X11707Y12717
X11352Y12437
X10953Y11395
X11352Y13579
X11718Y13915
X12258Y14455
X12753Y15355
X12528Y9865
X12348Y9415
X12258Y9055
X12663Y8470
X13428Y9100
X17658Y31137
X16353Y27897
X16038Y26772
X15453Y25602
X15858Y24882
X16488Y24432
X17118Y24612
X17343Y25287
X17478Y26862
X15588Y30102
X14541Y29541
X15318Y26727
X14328Y27447
X13473Y28302
X12348Y28527
X11707Y28679
X11352Y28399
X10953Y27357
X11352Y29541
X11718Y29877
X12258Y30417
X12753Y31317
X12528Y25827
X12348Y25377
X12258Y25017
X12663Y24432
X13428Y25062
X27025Y15175
X25720Y11935
X25405Y10810
X24820Y9640
X25225Y8920
X25855Y8470
X26485Y8650
X26710Y9325
X26845Y10900
X24955Y14140
X23908Y13579
X24685Y10765
X23695Y11485
X22840Y12340
X21715Y12565
X21074Y12717
X20719Y12437
X20320Y11395
X20719Y13579
X21085Y13915
X21625Y14455
X22120Y15355
X21895Y9865
X21715Y9415
X21625Y9055
X22030Y8470
X22795Y9100
X27025Y31137
X25720Y27897
X25405Y26772
X24820Y25602
X25225Y24882
X25855Y24432
X26485Y24612
X26710Y25287
X26845Y26862
X24955Y30102
X23908Y29541
X24685Y26727
X23695Y27447
X22840Y28302
X21715Y28527
X21074Y28679
X20719Y28399
X20320Y27357
X20719Y29541
X21085Y29877
X21625Y30417
X22120Y31317
X21895Y25827
X21715Y25377
X21625Y25017
X22030Y24432
X22795Y25062
X36393Y15175
X35088Y11935
X34773Y10810
X34188Y9640
X34593Y8920
X35223Y8470
X35853Y8650
X36078Y9325
X36213Y10900
X34323Y14140
X33276Y13579
X34053Y10765
X33063Y11485
X32208Y12340
X31083Y12565
X30442Y12717
X30087Y12437
X29688Y11395
X30087Y13579
X30453Y13915
X30993Y14455
X31488Y15355
X31263Y9865
X31083Y9415
X30993Y9055
X31398Y8470
X32163Y9100
X36393Y31137
X35088Y27897
X34773Y26772
X34188Y25602
X34593Y24882
X35223Y24432
X35853Y24612
X36078Y25287
X36213Y26862
X34323Y30102
X33276Y29541
X34053Y26727
X33063Y27447
X32208Y28302
X31083Y28527
X30442Y28679
X30087Y28399
X29688Y27357
X30087Y29541
X30453Y29877
X30993Y30417
X31488Y31317
X31263Y25827
X31083Y25377
X30993Y25017
X31398Y24432
X32163Y25062
T02C0.028750
X4780Y15272
X6276Y15272
X2652Y8507
X2652Y7720
X2652Y6932
X2652Y6145
X2652Y5357
X2652Y4570
X2652Y3783
X2652Y2995
X8360Y2995
X8360Y3783
X8360Y4570
X8360Y5357
X8360Y6145
X8360Y6932
X8360Y7720
X8360Y8507
X4780Y31234
X6276Y31234
X2652Y24469
X2652Y23682
X2652Y22894
X2652Y22107
X2652Y21319
X2652Y20532
X2652Y19745
X2652Y18957
X8360Y18957
X8360Y19745
X8360Y20532
X8360Y21319
X8360Y22107
X8360Y22894
X8360Y23682
X8360Y24469
X14148Y15272
X15644Y15272
X12020Y8507
X12020Y7720
X12020Y6932
X12020Y6145
X12020Y5357
X12020Y4570
X12020Y3783
X12020Y2995
X17728Y2995
X17728Y3783
X17728Y4570
X17728Y5357
X17728Y6145
X17728Y6932
X17728Y7720
X17728Y8507
X14148Y31234
X15644Y31234
X12020Y24469
X12020Y23682
X12020Y22894
X12020Y22107
X12020Y21319
X12020Y20532
X12020Y19745
X12020Y18957
X17728Y18957
X17728Y19745
X17728Y20532
X17728Y21319
X17728Y22107
X17728Y22894
X17728Y23682
X17728Y24469
X23515Y15272
X25011Y15272
X21387Y8507
X21387Y7720
X21387Y6932
X21387Y6145
X21387Y5357
X21387Y4570
X21387Y3783
X21387Y2995
X27095Y2995
X27095Y3783
X27095Y4570
X27095Y5357
X27095Y6145
X27095Y6932
X27095Y7720
X27095Y8507
X23515Y31234
X25011Y31234
X21387Y24469
X21387Y23682
X21387Y22894
X21387Y22107
X21387Y21319
X21387Y20532
X21387Y19745
X21387Y18957
X27095Y18957
X27095Y19745
X27095Y20532
X27095Y21319
X27095Y22107
X27095Y22894
X27095Y23682
X27095Y24469
X32883Y15272
X34379Y15272
X30755Y8507
X30755Y7720
X30755Y6932
X30755Y6145
X30755Y5357
X30755Y4570
X30755Y3783
X30755Y2995
X36463Y2995
X36463Y3783
X36463Y4570
X36463Y5357
X36463Y6145
X36463Y6932
X36463Y7720
X36463Y8507
X32883Y31234
X34379Y31234
X30755Y24469
X30755Y23682
X30755Y22894
X30755Y22107
X30755Y21319
X30755Y20532
X30755Y19745
X30755Y18957
X36463Y18957
X36463Y19745
X36463Y20532
X36463Y21319
X36463Y22107
X36463Y22894
X36463Y23682
X36463Y24469
T03C0.035200
X4110Y15862
X4228Y14917
X6827Y14917
X6945Y15862
X9500Y15425
X1500Y15425
X1500Y8425
X1500Y7425
X1500Y6425
X1500Y5425
X1500Y4425
X1500Y3425
X1500Y2425
X9500Y2425
X9500Y3425
X9500Y4425
X9500Y5425
X9500Y6425
X9500Y7425
X9500Y8425
X4110Y31824
X4228Y30879
X6827Y30879
X6945Y31824
X9500Y31387
X1500Y31387
X1500Y24387
X1500Y23387
X1500Y22387
X1500Y21387
X1500Y20387
X1500Y19387
X1500Y18387
X9500Y18387
X9500Y19387
X9500Y20387
X9500Y21387
X9500Y22387
X9500Y23387
X9500Y24387
X13478Y15862
X13596Y14917
X16195Y14917
X16313Y15862
X18868Y15425
X10868Y15425
X10868Y8425
X10868Y7425
X10868Y6425
X10868Y5425
X10868Y4425
X10868Y3425
X10868Y2425
X18868Y2425
X18868Y3425
X18868Y4425
X18868Y5425
X18868Y6425
X18868Y7425
X18868Y8425
X13478Y31824
X13596Y30879
X16195Y30879
X16313Y31824
X18868Y31387
X10868Y31387
X10868Y24387
X10868Y23387
X10868Y22387
X10868Y21387
X10868Y20387
X10868Y19387
X10868Y18387
X18868Y18387
X18868Y19387
X18868Y20387
X18868Y21387
X18868Y22387
X18868Y23387
X18868Y24387
X22845Y15862
X22963Y14917
X25562Y14917
X25680Y15862
X28235Y15425
X20235Y15425
X20235Y8425
X20235Y7425
X20235Y6425
X20235Y5425
X20235Y4425
X20235Y3425
X20235Y2425
X28235Y2425
X28235Y3425
X28235Y4425
X28235Y5425
X28235Y6425
X28235Y7425
X28235Y8425
X22845Y31824
X22963Y30879
X25562Y30879
X25680Y31824
X28235Y31387
X20235Y31387
X20235Y24387
X20235Y23387
X20235Y22387
X20235Y21387
X20235Y20387
X20235Y19387
X20235Y18387
X28235Y18387
X28235Y19387
X28235Y20387
X28235Y21387
X28235Y22387
X28235Y23387
X28235Y24387
X32213Y15862
X32331Y14917
X34930Y14917
X35048Y15862
X37603Y15425
X29603Y15425
X29603Y8425
X29603Y7425
X29603Y6425
X29603Y5425
X29603Y4425
X29603Y3425
X29603Y2425
X37603Y2425
X37603Y3425
X37603Y4425
X37603Y5425
X37603Y6425
X37603Y7425
X37603Y8425
X32213Y31824
X32331Y30879
X34930Y30879
X35048Y31824
X37603Y31387
X29603Y31387
X29603Y24387
X29603Y23387
X29603Y22387
X29603Y21387
X29603Y20387
X29603Y19387
X29603Y18387
X37603Y18387
X37603Y19387
X37603Y20387
X37603Y21387
X37603Y22387
X37603Y23387
X37603Y24387
M30
