G75*
G70*
%OFA0B0*%
%FSLAX25Y25*%
%IPPOS*%
%LPD*%
%AMOC8*
5,1,8,0,0,1.08239X$1,22.5*
%
%ADD38C,0.00000*%
X0010000Y0010000D02*
G75*
%LPD*%
D38*
X0010000Y0010000D02*
X0010000Y0166496D01*
X0046319Y0152717D02*
X0046321Y0152794D01*
X0046327Y0152870D01*
X0046337Y0152946D01*
X0046351Y0153021D01*
X0046368Y0153096D01*
X0046390Y0153169D01*
X0046415Y0153242D01*
X0046445Y0153313D01*
X0046477Y0153382D01*
X0046514Y0153449D01*
X0046553Y0153515D01*
X0046596Y0153578D01*
X0046643Y0153639D01*
X0046692Y0153698D01*
X0046745Y0153754D01*
X0046800Y0153807D01*
X0046858Y0153857D01*
X0046918Y0153904D01*
X0046981Y0153948D01*
X0047046Y0153989D01*
X0047113Y0154026D01*
X0047182Y0154060D01*
X0047252Y0154090D01*
X0047324Y0154116D01*
X0047398Y0154138D01*
X0047472Y0154157D01*
X0047547Y0154172D01*
X0047623Y0154183D01*
X0047699Y0154190D01*
X0047776Y0154193D01*
X0047852Y0154192D01*
X0047929Y0154187D01*
X0048005Y0154178D01*
X0048081Y0154165D01*
X0048155Y0154148D01*
X0048229Y0154128D01*
X0048302Y0154103D01*
X0048373Y0154075D01*
X0048443Y0154043D01*
X0048511Y0154008D01*
X0048577Y0153969D01*
X0048641Y0153927D01*
X0048702Y0153881D01*
X0048762Y0153832D01*
X0048818Y0153781D01*
X0048872Y0153726D01*
X0048923Y0153669D01*
X0048971Y0153609D01*
X0049016Y0153547D01*
X0049057Y0153482D01*
X0049095Y0153416D01*
X0049130Y0153348D01*
X0049160Y0153277D01*
X0049188Y0153206D01*
X0049211Y0153133D01*
X0049231Y0153059D01*
X0049247Y0152984D01*
X0049259Y0152908D01*
X0049267Y0152832D01*
X0049271Y0152755D01*
X0049271Y0152679D01*
X0049267Y0152602D01*
X0049259Y0152526D01*
X0049247Y0152450D01*
X0049231Y0152375D01*
X0049211Y0152301D01*
X0049188Y0152228D01*
X0049160Y0152157D01*
X0049130Y0152086D01*
X0049095Y0152018D01*
X0049057Y0151952D01*
X0049016Y0151887D01*
X0048971Y0151825D01*
X0048923Y0151765D01*
X0048872Y0151708D01*
X0048818Y0151653D01*
X0048762Y0151602D01*
X0048702Y0151553D01*
X0048641Y0151507D01*
X0048577Y0151465D01*
X0048511Y0151426D01*
X0048443Y0151391D01*
X0048373Y0151359D01*
X0048302Y0151331D01*
X0048229Y0151306D01*
X0048155Y0151286D01*
X0048081Y0151269D01*
X0048005Y0151256D01*
X0047929Y0151247D01*
X0047852Y0151242D01*
X0047776Y0151241D01*
X0047699Y0151244D01*
X0047623Y0151251D01*
X0047547Y0151262D01*
X0047472Y0151277D01*
X0047398Y0151296D01*
X0047324Y0151318D01*
X0047252Y0151344D01*
X0047182Y0151374D01*
X0047113Y0151408D01*
X0047046Y0151445D01*
X0046981Y0151486D01*
X0046918Y0151530D01*
X0046858Y0151577D01*
X0046800Y0151627D01*
X0046745Y0151680D01*
X0046692Y0151736D01*
X0046643Y0151795D01*
X0046596Y0151856D01*
X0046553Y0151919D01*
X0046514Y0151985D01*
X0046477Y0152052D01*
X0046445Y0152121D01*
X0046415Y0152192D01*
X0046390Y0152265D01*
X0046368Y0152338D01*
X0046351Y0152413D01*
X0046337Y0152488D01*
X0046327Y0152564D01*
X0046321Y0152640D01*
X0046319Y0152717D01*
X0010000Y0166495D02*
X0100552Y0166495D01*
X0100551Y0166496D02*
X0100551Y0010000D01*
X0010000Y0010000D01*
X0061280Y0152717D02*
X0061282Y0152794D01*
X0061288Y0152870D01*
X0061298Y0152946D01*
X0061312Y0153021D01*
X0061329Y0153096D01*
X0061351Y0153169D01*
X0061376Y0153242D01*
X0061406Y0153313D01*
X0061438Y0153382D01*
X0061475Y0153449D01*
X0061514Y0153515D01*
X0061557Y0153578D01*
X0061604Y0153639D01*
X0061653Y0153698D01*
X0061706Y0153754D01*
X0061761Y0153807D01*
X0061819Y0153857D01*
X0061879Y0153904D01*
X0061942Y0153948D01*
X0062007Y0153989D01*
X0062074Y0154026D01*
X0062143Y0154060D01*
X0062213Y0154090D01*
X0062285Y0154116D01*
X0062359Y0154138D01*
X0062433Y0154157D01*
X0062508Y0154172D01*
X0062584Y0154183D01*
X0062660Y0154190D01*
X0062737Y0154193D01*
X0062813Y0154192D01*
X0062890Y0154187D01*
X0062966Y0154178D01*
X0063042Y0154165D01*
X0063116Y0154148D01*
X0063190Y0154128D01*
X0063263Y0154103D01*
X0063334Y0154075D01*
X0063404Y0154043D01*
X0063472Y0154008D01*
X0063538Y0153969D01*
X0063602Y0153927D01*
X0063663Y0153881D01*
X0063723Y0153832D01*
X0063779Y0153781D01*
X0063833Y0153726D01*
X0063884Y0153669D01*
X0063932Y0153609D01*
X0063977Y0153547D01*
X0064018Y0153482D01*
X0064056Y0153416D01*
X0064091Y0153348D01*
X0064121Y0153277D01*
X0064149Y0153206D01*
X0064172Y0153133D01*
X0064192Y0153059D01*
X0064208Y0152984D01*
X0064220Y0152908D01*
X0064228Y0152832D01*
X0064232Y0152755D01*
X0064232Y0152679D01*
X0064228Y0152602D01*
X0064220Y0152526D01*
X0064208Y0152450D01*
X0064192Y0152375D01*
X0064172Y0152301D01*
X0064149Y0152228D01*
X0064121Y0152157D01*
X0064091Y0152086D01*
X0064056Y0152018D01*
X0064018Y0151952D01*
X0063977Y0151887D01*
X0063932Y0151825D01*
X0063884Y0151765D01*
X0063833Y0151708D01*
X0063779Y0151653D01*
X0063723Y0151602D01*
X0063663Y0151553D01*
X0063602Y0151507D01*
X0063538Y0151465D01*
X0063472Y0151426D01*
X0063404Y0151391D01*
X0063334Y0151359D01*
X0063263Y0151331D01*
X0063190Y0151306D01*
X0063116Y0151286D01*
X0063042Y0151269D01*
X0062966Y0151256D01*
X0062890Y0151247D01*
X0062813Y0151242D01*
X0062737Y0151241D01*
X0062660Y0151244D01*
X0062584Y0151251D01*
X0062508Y0151262D01*
X0062433Y0151277D01*
X0062359Y0151296D01*
X0062285Y0151318D01*
X0062213Y0151344D01*
X0062143Y0151374D01*
X0062074Y0151408D01*
X0062007Y0151445D01*
X0061942Y0151486D01*
X0061879Y0151530D01*
X0061819Y0151577D01*
X0061761Y0151627D01*
X0061706Y0151680D01*
X0061653Y0151736D01*
X0061604Y0151795D01*
X0061557Y0151856D01*
X0061514Y0151919D01*
X0061475Y0151985D01*
X0061438Y0152052D01*
X0061406Y0152121D01*
X0061376Y0152192D01*
X0061351Y0152265D01*
X0061329Y0152338D01*
X0061312Y0152413D01*
X0061298Y0152488D01*
X0061288Y0152564D01*
X0061282Y0152640D01*
X0061280Y0152717D01*
X0010000Y0169621D02*
G75*
%LPD*%
D38*
X0010000Y0169621D02*
X0010000Y0326117D01*
X0046319Y0312338D02*
X0046321Y0312415D01*
X0046327Y0312491D01*
X0046337Y0312567D01*
X0046351Y0312642D01*
X0046368Y0312717D01*
X0046390Y0312790D01*
X0046415Y0312863D01*
X0046445Y0312934D01*
X0046477Y0313003D01*
X0046514Y0313070D01*
X0046553Y0313136D01*
X0046596Y0313199D01*
X0046643Y0313260D01*
X0046692Y0313319D01*
X0046745Y0313375D01*
X0046800Y0313428D01*
X0046858Y0313478D01*
X0046918Y0313525D01*
X0046981Y0313569D01*
X0047046Y0313610D01*
X0047113Y0313647D01*
X0047182Y0313681D01*
X0047252Y0313711D01*
X0047324Y0313737D01*
X0047398Y0313759D01*
X0047472Y0313778D01*
X0047547Y0313793D01*
X0047623Y0313804D01*
X0047699Y0313811D01*
X0047776Y0313814D01*
X0047852Y0313813D01*
X0047929Y0313808D01*
X0048005Y0313799D01*
X0048081Y0313786D01*
X0048155Y0313769D01*
X0048229Y0313749D01*
X0048302Y0313724D01*
X0048373Y0313696D01*
X0048443Y0313664D01*
X0048511Y0313629D01*
X0048577Y0313590D01*
X0048641Y0313548D01*
X0048702Y0313502D01*
X0048762Y0313453D01*
X0048818Y0313402D01*
X0048872Y0313347D01*
X0048923Y0313290D01*
X0048971Y0313230D01*
X0049016Y0313168D01*
X0049057Y0313103D01*
X0049095Y0313037D01*
X0049130Y0312969D01*
X0049160Y0312898D01*
X0049188Y0312827D01*
X0049211Y0312754D01*
X0049231Y0312680D01*
X0049247Y0312605D01*
X0049259Y0312529D01*
X0049267Y0312453D01*
X0049271Y0312376D01*
X0049271Y0312300D01*
X0049267Y0312223D01*
X0049259Y0312147D01*
X0049247Y0312071D01*
X0049231Y0311996D01*
X0049211Y0311922D01*
X0049188Y0311849D01*
X0049160Y0311778D01*
X0049130Y0311707D01*
X0049095Y0311639D01*
X0049057Y0311573D01*
X0049016Y0311508D01*
X0048971Y0311446D01*
X0048923Y0311386D01*
X0048872Y0311329D01*
X0048818Y0311274D01*
X0048762Y0311223D01*
X0048702Y0311174D01*
X0048641Y0311128D01*
X0048577Y0311086D01*
X0048511Y0311047D01*
X0048443Y0311012D01*
X0048373Y0310980D01*
X0048302Y0310952D01*
X0048229Y0310927D01*
X0048155Y0310907D01*
X0048081Y0310890D01*
X0048005Y0310877D01*
X0047929Y0310868D01*
X0047852Y0310863D01*
X0047776Y0310862D01*
X0047699Y0310865D01*
X0047623Y0310872D01*
X0047547Y0310883D01*
X0047472Y0310898D01*
X0047398Y0310917D01*
X0047324Y0310939D01*
X0047252Y0310965D01*
X0047182Y0310995D01*
X0047113Y0311029D01*
X0047046Y0311066D01*
X0046981Y0311107D01*
X0046918Y0311151D01*
X0046858Y0311198D01*
X0046800Y0311248D01*
X0046745Y0311301D01*
X0046692Y0311357D01*
X0046643Y0311416D01*
X0046596Y0311477D01*
X0046553Y0311540D01*
X0046514Y0311606D01*
X0046477Y0311673D01*
X0046445Y0311742D01*
X0046415Y0311813D01*
X0046390Y0311886D01*
X0046368Y0311959D01*
X0046351Y0312034D01*
X0046337Y0312109D01*
X0046327Y0312185D01*
X0046321Y0312261D01*
X0046319Y0312338D01*
X0010000Y0326116D02*
X0100552Y0326116D01*
X0100551Y0326117D02*
X0100551Y0169621D01*
X0010000Y0169621D01*
X0061280Y0312338D02*
X0061282Y0312415D01*
X0061288Y0312491D01*
X0061298Y0312567D01*
X0061312Y0312642D01*
X0061329Y0312717D01*
X0061351Y0312790D01*
X0061376Y0312863D01*
X0061406Y0312934D01*
X0061438Y0313003D01*
X0061475Y0313070D01*
X0061514Y0313136D01*
X0061557Y0313199D01*
X0061604Y0313260D01*
X0061653Y0313319D01*
X0061706Y0313375D01*
X0061761Y0313428D01*
X0061819Y0313478D01*
X0061879Y0313525D01*
X0061942Y0313569D01*
X0062007Y0313610D01*
X0062074Y0313647D01*
X0062143Y0313681D01*
X0062213Y0313711D01*
X0062285Y0313737D01*
X0062359Y0313759D01*
X0062433Y0313778D01*
X0062508Y0313793D01*
X0062584Y0313804D01*
X0062660Y0313811D01*
X0062737Y0313814D01*
X0062813Y0313813D01*
X0062890Y0313808D01*
X0062966Y0313799D01*
X0063042Y0313786D01*
X0063116Y0313769D01*
X0063190Y0313749D01*
X0063263Y0313724D01*
X0063334Y0313696D01*
X0063404Y0313664D01*
X0063472Y0313629D01*
X0063538Y0313590D01*
X0063602Y0313548D01*
X0063663Y0313502D01*
X0063723Y0313453D01*
X0063779Y0313402D01*
X0063833Y0313347D01*
X0063884Y0313290D01*
X0063932Y0313230D01*
X0063977Y0313168D01*
X0064018Y0313103D01*
X0064056Y0313037D01*
X0064091Y0312969D01*
X0064121Y0312898D01*
X0064149Y0312827D01*
X0064172Y0312754D01*
X0064192Y0312680D01*
X0064208Y0312605D01*
X0064220Y0312529D01*
X0064228Y0312453D01*
X0064232Y0312376D01*
X0064232Y0312300D01*
X0064228Y0312223D01*
X0064220Y0312147D01*
X0064208Y0312071D01*
X0064192Y0311996D01*
X0064172Y0311922D01*
X0064149Y0311849D01*
X0064121Y0311778D01*
X0064091Y0311707D01*
X0064056Y0311639D01*
X0064018Y0311573D01*
X0063977Y0311508D01*
X0063932Y0311446D01*
X0063884Y0311386D01*
X0063833Y0311329D01*
X0063779Y0311274D01*
X0063723Y0311223D01*
X0063663Y0311174D01*
X0063602Y0311128D01*
X0063538Y0311086D01*
X0063472Y0311047D01*
X0063404Y0311012D01*
X0063334Y0310980D01*
X0063263Y0310952D01*
X0063190Y0310927D01*
X0063116Y0310907D01*
X0063042Y0310890D01*
X0062966Y0310877D01*
X0062890Y0310868D01*
X0062813Y0310863D01*
X0062737Y0310862D01*
X0062660Y0310865D01*
X0062584Y0310872D01*
X0062508Y0310883D01*
X0062433Y0310898D01*
X0062359Y0310917D01*
X0062285Y0310939D01*
X0062213Y0310965D01*
X0062143Y0310995D01*
X0062074Y0311029D01*
X0062007Y0311066D01*
X0061942Y0311107D01*
X0061879Y0311151D01*
X0061819Y0311198D01*
X0061761Y0311248D01*
X0061706Y0311301D01*
X0061653Y0311357D01*
X0061604Y0311416D01*
X0061557Y0311477D01*
X0061514Y0311540D01*
X0061475Y0311606D01*
X0061438Y0311673D01*
X0061406Y0311742D01*
X0061376Y0311813D01*
X0061351Y0311886D01*
X0061329Y0311959D01*
X0061312Y0312034D01*
X0061298Y0312109D01*
X0061288Y0312185D01*
X0061282Y0312261D01*
X0061280Y0312338D01*
X0103677Y0010000D02*
G75*
%LPD*%
D38*
X0103677Y0010000D02*
X0103677Y0166496D01*
X0139996Y0152717D02*
X0139998Y0152794D01*
X0140004Y0152870D01*
X0140014Y0152946D01*
X0140028Y0153021D01*
X0140045Y0153096D01*
X0140067Y0153169D01*
X0140092Y0153242D01*
X0140122Y0153313D01*
X0140154Y0153382D01*
X0140191Y0153449D01*
X0140230Y0153515D01*
X0140273Y0153578D01*
X0140320Y0153639D01*
X0140369Y0153698D01*
X0140422Y0153754D01*
X0140477Y0153807D01*
X0140535Y0153857D01*
X0140595Y0153904D01*
X0140658Y0153948D01*
X0140723Y0153989D01*
X0140790Y0154026D01*
X0140859Y0154060D01*
X0140929Y0154090D01*
X0141001Y0154116D01*
X0141075Y0154138D01*
X0141149Y0154157D01*
X0141224Y0154172D01*
X0141300Y0154183D01*
X0141376Y0154190D01*
X0141453Y0154193D01*
X0141529Y0154192D01*
X0141606Y0154187D01*
X0141682Y0154178D01*
X0141758Y0154165D01*
X0141832Y0154148D01*
X0141906Y0154128D01*
X0141979Y0154103D01*
X0142050Y0154075D01*
X0142120Y0154043D01*
X0142188Y0154008D01*
X0142254Y0153969D01*
X0142318Y0153927D01*
X0142379Y0153881D01*
X0142439Y0153832D01*
X0142495Y0153781D01*
X0142549Y0153726D01*
X0142600Y0153669D01*
X0142648Y0153609D01*
X0142693Y0153547D01*
X0142734Y0153482D01*
X0142772Y0153416D01*
X0142807Y0153348D01*
X0142837Y0153277D01*
X0142865Y0153206D01*
X0142888Y0153133D01*
X0142908Y0153059D01*
X0142924Y0152984D01*
X0142936Y0152908D01*
X0142944Y0152832D01*
X0142948Y0152755D01*
X0142948Y0152679D01*
X0142944Y0152602D01*
X0142936Y0152526D01*
X0142924Y0152450D01*
X0142908Y0152375D01*
X0142888Y0152301D01*
X0142865Y0152228D01*
X0142837Y0152157D01*
X0142807Y0152086D01*
X0142772Y0152018D01*
X0142734Y0151952D01*
X0142693Y0151887D01*
X0142648Y0151825D01*
X0142600Y0151765D01*
X0142549Y0151708D01*
X0142495Y0151653D01*
X0142439Y0151602D01*
X0142379Y0151553D01*
X0142318Y0151507D01*
X0142254Y0151465D01*
X0142188Y0151426D01*
X0142120Y0151391D01*
X0142050Y0151359D01*
X0141979Y0151331D01*
X0141906Y0151306D01*
X0141832Y0151286D01*
X0141758Y0151269D01*
X0141682Y0151256D01*
X0141606Y0151247D01*
X0141529Y0151242D01*
X0141453Y0151241D01*
X0141376Y0151244D01*
X0141300Y0151251D01*
X0141224Y0151262D01*
X0141149Y0151277D01*
X0141075Y0151296D01*
X0141001Y0151318D01*
X0140929Y0151344D01*
X0140859Y0151374D01*
X0140790Y0151408D01*
X0140723Y0151445D01*
X0140658Y0151486D01*
X0140595Y0151530D01*
X0140535Y0151577D01*
X0140477Y0151627D01*
X0140422Y0151680D01*
X0140369Y0151736D01*
X0140320Y0151795D01*
X0140273Y0151856D01*
X0140230Y0151919D01*
X0140191Y0151985D01*
X0140154Y0152052D01*
X0140122Y0152121D01*
X0140092Y0152192D01*
X0140067Y0152265D01*
X0140045Y0152338D01*
X0140028Y0152413D01*
X0140014Y0152488D01*
X0140004Y0152564D01*
X0139998Y0152640D01*
X0139996Y0152717D01*
X0103677Y0166495D02*
X0194229Y0166495D01*
X0194228Y0166496D02*
X0194228Y0010000D01*
X0103677Y0010000D01*
X0154957Y0152717D02*
X0154959Y0152794D01*
X0154965Y0152870D01*
X0154975Y0152946D01*
X0154989Y0153021D01*
X0155006Y0153096D01*
X0155028Y0153169D01*
X0155053Y0153242D01*
X0155083Y0153313D01*
X0155115Y0153382D01*
X0155152Y0153449D01*
X0155191Y0153515D01*
X0155234Y0153578D01*
X0155281Y0153639D01*
X0155330Y0153698D01*
X0155383Y0153754D01*
X0155438Y0153807D01*
X0155496Y0153857D01*
X0155556Y0153904D01*
X0155619Y0153948D01*
X0155684Y0153989D01*
X0155751Y0154026D01*
X0155820Y0154060D01*
X0155890Y0154090D01*
X0155962Y0154116D01*
X0156036Y0154138D01*
X0156110Y0154157D01*
X0156185Y0154172D01*
X0156261Y0154183D01*
X0156337Y0154190D01*
X0156414Y0154193D01*
X0156490Y0154192D01*
X0156567Y0154187D01*
X0156643Y0154178D01*
X0156719Y0154165D01*
X0156793Y0154148D01*
X0156867Y0154128D01*
X0156940Y0154103D01*
X0157011Y0154075D01*
X0157081Y0154043D01*
X0157149Y0154008D01*
X0157215Y0153969D01*
X0157279Y0153927D01*
X0157340Y0153881D01*
X0157400Y0153832D01*
X0157456Y0153781D01*
X0157510Y0153726D01*
X0157561Y0153669D01*
X0157609Y0153609D01*
X0157654Y0153547D01*
X0157695Y0153482D01*
X0157733Y0153416D01*
X0157768Y0153348D01*
X0157798Y0153277D01*
X0157826Y0153206D01*
X0157849Y0153133D01*
X0157869Y0153059D01*
X0157885Y0152984D01*
X0157897Y0152908D01*
X0157905Y0152832D01*
X0157909Y0152755D01*
X0157909Y0152679D01*
X0157905Y0152602D01*
X0157897Y0152526D01*
X0157885Y0152450D01*
X0157869Y0152375D01*
X0157849Y0152301D01*
X0157826Y0152228D01*
X0157798Y0152157D01*
X0157768Y0152086D01*
X0157733Y0152018D01*
X0157695Y0151952D01*
X0157654Y0151887D01*
X0157609Y0151825D01*
X0157561Y0151765D01*
X0157510Y0151708D01*
X0157456Y0151653D01*
X0157400Y0151602D01*
X0157340Y0151553D01*
X0157279Y0151507D01*
X0157215Y0151465D01*
X0157149Y0151426D01*
X0157081Y0151391D01*
X0157011Y0151359D01*
X0156940Y0151331D01*
X0156867Y0151306D01*
X0156793Y0151286D01*
X0156719Y0151269D01*
X0156643Y0151256D01*
X0156567Y0151247D01*
X0156490Y0151242D01*
X0156414Y0151241D01*
X0156337Y0151244D01*
X0156261Y0151251D01*
X0156185Y0151262D01*
X0156110Y0151277D01*
X0156036Y0151296D01*
X0155962Y0151318D01*
X0155890Y0151344D01*
X0155820Y0151374D01*
X0155751Y0151408D01*
X0155684Y0151445D01*
X0155619Y0151486D01*
X0155556Y0151530D01*
X0155496Y0151577D01*
X0155438Y0151627D01*
X0155383Y0151680D01*
X0155330Y0151736D01*
X0155281Y0151795D01*
X0155234Y0151856D01*
X0155191Y0151919D01*
X0155152Y0151985D01*
X0155115Y0152052D01*
X0155083Y0152121D01*
X0155053Y0152192D01*
X0155028Y0152265D01*
X0155006Y0152338D01*
X0154989Y0152413D01*
X0154975Y0152488D01*
X0154965Y0152564D01*
X0154959Y0152640D01*
X0154957Y0152717D01*
X0103677Y0169621D02*
G75*
%LPD*%
D38*
X0103677Y0169621D02*
X0103677Y0326117D01*
X0139996Y0312338D02*
X0139998Y0312415D01*
X0140004Y0312491D01*
X0140014Y0312567D01*
X0140028Y0312642D01*
X0140045Y0312717D01*
X0140067Y0312790D01*
X0140092Y0312863D01*
X0140122Y0312934D01*
X0140154Y0313003D01*
X0140191Y0313070D01*
X0140230Y0313136D01*
X0140273Y0313199D01*
X0140320Y0313260D01*
X0140369Y0313319D01*
X0140422Y0313375D01*
X0140477Y0313428D01*
X0140535Y0313478D01*
X0140595Y0313525D01*
X0140658Y0313569D01*
X0140723Y0313610D01*
X0140790Y0313647D01*
X0140859Y0313681D01*
X0140929Y0313711D01*
X0141001Y0313737D01*
X0141075Y0313759D01*
X0141149Y0313778D01*
X0141224Y0313793D01*
X0141300Y0313804D01*
X0141376Y0313811D01*
X0141453Y0313814D01*
X0141529Y0313813D01*
X0141606Y0313808D01*
X0141682Y0313799D01*
X0141758Y0313786D01*
X0141832Y0313769D01*
X0141906Y0313749D01*
X0141979Y0313724D01*
X0142050Y0313696D01*
X0142120Y0313664D01*
X0142188Y0313629D01*
X0142254Y0313590D01*
X0142318Y0313548D01*
X0142379Y0313502D01*
X0142439Y0313453D01*
X0142495Y0313402D01*
X0142549Y0313347D01*
X0142600Y0313290D01*
X0142648Y0313230D01*
X0142693Y0313168D01*
X0142734Y0313103D01*
X0142772Y0313037D01*
X0142807Y0312969D01*
X0142837Y0312898D01*
X0142865Y0312827D01*
X0142888Y0312754D01*
X0142908Y0312680D01*
X0142924Y0312605D01*
X0142936Y0312529D01*
X0142944Y0312453D01*
X0142948Y0312376D01*
X0142948Y0312300D01*
X0142944Y0312223D01*
X0142936Y0312147D01*
X0142924Y0312071D01*
X0142908Y0311996D01*
X0142888Y0311922D01*
X0142865Y0311849D01*
X0142837Y0311778D01*
X0142807Y0311707D01*
X0142772Y0311639D01*
X0142734Y0311573D01*
X0142693Y0311508D01*
X0142648Y0311446D01*
X0142600Y0311386D01*
X0142549Y0311329D01*
X0142495Y0311274D01*
X0142439Y0311223D01*
X0142379Y0311174D01*
X0142318Y0311128D01*
X0142254Y0311086D01*
X0142188Y0311047D01*
X0142120Y0311012D01*
X0142050Y0310980D01*
X0141979Y0310952D01*
X0141906Y0310927D01*
X0141832Y0310907D01*
X0141758Y0310890D01*
X0141682Y0310877D01*
X0141606Y0310868D01*
X0141529Y0310863D01*
X0141453Y0310862D01*
X0141376Y0310865D01*
X0141300Y0310872D01*
X0141224Y0310883D01*
X0141149Y0310898D01*
X0141075Y0310917D01*
X0141001Y0310939D01*
X0140929Y0310965D01*
X0140859Y0310995D01*
X0140790Y0311029D01*
X0140723Y0311066D01*
X0140658Y0311107D01*
X0140595Y0311151D01*
X0140535Y0311198D01*
X0140477Y0311248D01*
X0140422Y0311301D01*
X0140369Y0311357D01*
X0140320Y0311416D01*
X0140273Y0311477D01*
X0140230Y0311540D01*
X0140191Y0311606D01*
X0140154Y0311673D01*
X0140122Y0311742D01*
X0140092Y0311813D01*
X0140067Y0311886D01*
X0140045Y0311959D01*
X0140028Y0312034D01*
X0140014Y0312109D01*
X0140004Y0312185D01*
X0139998Y0312261D01*
X0139996Y0312338D01*
X0103677Y0326116D02*
X0194229Y0326116D01*
X0194228Y0326117D02*
X0194228Y0169621D01*
X0103677Y0169621D01*
X0154957Y0312338D02*
X0154959Y0312415D01*
X0154965Y0312491D01*
X0154975Y0312567D01*
X0154989Y0312642D01*
X0155006Y0312717D01*
X0155028Y0312790D01*
X0155053Y0312863D01*
X0155083Y0312934D01*
X0155115Y0313003D01*
X0155152Y0313070D01*
X0155191Y0313136D01*
X0155234Y0313199D01*
X0155281Y0313260D01*
X0155330Y0313319D01*
X0155383Y0313375D01*
X0155438Y0313428D01*
X0155496Y0313478D01*
X0155556Y0313525D01*
X0155619Y0313569D01*
X0155684Y0313610D01*
X0155751Y0313647D01*
X0155820Y0313681D01*
X0155890Y0313711D01*
X0155962Y0313737D01*
X0156036Y0313759D01*
X0156110Y0313778D01*
X0156185Y0313793D01*
X0156261Y0313804D01*
X0156337Y0313811D01*
X0156414Y0313814D01*
X0156490Y0313813D01*
X0156567Y0313808D01*
X0156643Y0313799D01*
X0156719Y0313786D01*
X0156793Y0313769D01*
X0156867Y0313749D01*
X0156940Y0313724D01*
X0157011Y0313696D01*
X0157081Y0313664D01*
X0157149Y0313629D01*
X0157215Y0313590D01*
X0157279Y0313548D01*
X0157340Y0313502D01*
X0157400Y0313453D01*
X0157456Y0313402D01*
X0157510Y0313347D01*
X0157561Y0313290D01*
X0157609Y0313230D01*
X0157654Y0313168D01*
X0157695Y0313103D01*
X0157733Y0313037D01*
X0157768Y0312969D01*
X0157798Y0312898D01*
X0157826Y0312827D01*
X0157849Y0312754D01*
X0157869Y0312680D01*
X0157885Y0312605D01*
X0157897Y0312529D01*
X0157905Y0312453D01*
X0157909Y0312376D01*
X0157909Y0312300D01*
X0157905Y0312223D01*
X0157897Y0312147D01*
X0157885Y0312071D01*
X0157869Y0311996D01*
X0157849Y0311922D01*
X0157826Y0311849D01*
X0157798Y0311778D01*
X0157768Y0311707D01*
X0157733Y0311639D01*
X0157695Y0311573D01*
X0157654Y0311508D01*
X0157609Y0311446D01*
X0157561Y0311386D01*
X0157510Y0311329D01*
X0157456Y0311274D01*
X0157400Y0311223D01*
X0157340Y0311174D01*
X0157279Y0311128D01*
X0157215Y0311086D01*
X0157149Y0311047D01*
X0157081Y0311012D01*
X0157011Y0310980D01*
X0156940Y0310952D01*
X0156867Y0310927D01*
X0156793Y0310907D01*
X0156719Y0310890D01*
X0156643Y0310877D01*
X0156567Y0310868D01*
X0156490Y0310863D01*
X0156414Y0310862D01*
X0156337Y0310865D01*
X0156261Y0310872D01*
X0156185Y0310883D01*
X0156110Y0310898D01*
X0156036Y0310917D01*
X0155962Y0310939D01*
X0155890Y0310965D01*
X0155820Y0310995D01*
X0155751Y0311029D01*
X0155684Y0311066D01*
X0155619Y0311107D01*
X0155556Y0311151D01*
X0155496Y0311198D01*
X0155438Y0311248D01*
X0155383Y0311301D01*
X0155330Y0311357D01*
X0155281Y0311416D01*
X0155234Y0311477D01*
X0155191Y0311540D01*
X0155152Y0311606D01*
X0155115Y0311673D01*
X0155083Y0311742D01*
X0155053Y0311813D01*
X0155028Y0311886D01*
X0155006Y0311959D01*
X0154989Y0312034D01*
X0154975Y0312109D01*
X0154965Y0312185D01*
X0154959Y0312261D01*
X0154957Y0312338D01*
X0197354Y0010000D02*
G75*
%LPD*%
D38*
X0197354Y0010000D02*
X0197354Y0166496D01*
X0233673Y0152717D02*
X0233675Y0152794D01*
X0233681Y0152870D01*
X0233691Y0152946D01*
X0233705Y0153021D01*
X0233722Y0153096D01*
X0233744Y0153169D01*
X0233769Y0153242D01*
X0233799Y0153313D01*
X0233831Y0153382D01*
X0233868Y0153449D01*
X0233907Y0153515D01*
X0233950Y0153578D01*
X0233997Y0153639D01*
X0234046Y0153698D01*
X0234099Y0153754D01*
X0234154Y0153807D01*
X0234212Y0153857D01*
X0234272Y0153904D01*
X0234335Y0153948D01*
X0234400Y0153989D01*
X0234467Y0154026D01*
X0234536Y0154060D01*
X0234606Y0154090D01*
X0234678Y0154116D01*
X0234752Y0154138D01*
X0234826Y0154157D01*
X0234901Y0154172D01*
X0234977Y0154183D01*
X0235053Y0154190D01*
X0235130Y0154193D01*
X0235206Y0154192D01*
X0235283Y0154187D01*
X0235359Y0154178D01*
X0235435Y0154165D01*
X0235509Y0154148D01*
X0235583Y0154128D01*
X0235656Y0154103D01*
X0235727Y0154075D01*
X0235797Y0154043D01*
X0235865Y0154008D01*
X0235931Y0153969D01*
X0235995Y0153927D01*
X0236056Y0153881D01*
X0236116Y0153832D01*
X0236172Y0153781D01*
X0236226Y0153726D01*
X0236277Y0153669D01*
X0236325Y0153609D01*
X0236370Y0153547D01*
X0236411Y0153482D01*
X0236449Y0153416D01*
X0236484Y0153348D01*
X0236514Y0153277D01*
X0236542Y0153206D01*
X0236565Y0153133D01*
X0236585Y0153059D01*
X0236601Y0152984D01*
X0236613Y0152908D01*
X0236621Y0152832D01*
X0236625Y0152755D01*
X0236625Y0152679D01*
X0236621Y0152602D01*
X0236613Y0152526D01*
X0236601Y0152450D01*
X0236585Y0152375D01*
X0236565Y0152301D01*
X0236542Y0152228D01*
X0236514Y0152157D01*
X0236484Y0152086D01*
X0236449Y0152018D01*
X0236411Y0151952D01*
X0236370Y0151887D01*
X0236325Y0151825D01*
X0236277Y0151765D01*
X0236226Y0151708D01*
X0236172Y0151653D01*
X0236116Y0151602D01*
X0236056Y0151553D01*
X0235995Y0151507D01*
X0235931Y0151465D01*
X0235865Y0151426D01*
X0235797Y0151391D01*
X0235727Y0151359D01*
X0235656Y0151331D01*
X0235583Y0151306D01*
X0235509Y0151286D01*
X0235435Y0151269D01*
X0235359Y0151256D01*
X0235283Y0151247D01*
X0235206Y0151242D01*
X0235130Y0151241D01*
X0235053Y0151244D01*
X0234977Y0151251D01*
X0234901Y0151262D01*
X0234826Y0151277D01*
X0234752Y0151296D01*
X0234678Y0151318D01*
X0234606Y0151344D01*
X0234536Y0151374D01*
X0234467Y0151408D01*
X0234400Y0151445D01*
X0234335Y0151486D01*
X0234272Y0151530D01*
X0234212Y0151577D01*
X0234154Y0151627D01*
X0234099Y0151680D01*
X0234046Y0151736D01*
X0233997Y0151795D01*
X0233950Y0151856D01*
X0233907Y0151919D01*
X0233868Y0151985D01*
X0233831Y0152052D01*
X0233799Y0152121D01*
X0233769Y0152192D01*
X0233744Y0152265D01*
X0233722Y0152338D01*
X0233705Y0152413D01*
X0233691Y0152488D01*
X0233681Y0152564D01*
X0233675Y0152640D01*
X0233673Y0152717D01*
X0197354Y0166495D02*
X0287906Y0166495D01*
X0287905Y0166496D02*
X0287905Y0010000D01*
X0197354Y0010000D01*
X0248634Y0152717D02*
X0248636Y0152794D01*
X0248642Y0152870D01*
X0248652Y0152946D01*
X0248666Y0153021D01*
X0248683Y0153096D01*
X0248705Y0153169D01*
X0248730Y0153242D01*
X0248760Y0153313D01*
X0248792Y0153382D01*
X0248829Y0153449D01*
X0248868Y0153515D01*
X0248911Y0153578D01*
X0248958Y0153639D01*
X0249007Y0153698D01*
X0249060Y0153754D01*
X0249115Y0153807D01*
X0249173Y0153857D01*
X0249233Y0153904D01*
X0249296Y0153948D01*
X0249361Y0153989D01*
X0249428Y0154026D01*
X0249497Y0154060D01*
X0249567Y0154090D01*
X0249639Y0154116D01*
X0249713Y0154138D01*
X0249787Y0154157D01*
X0249862Y0154172D01*
X0249938Y0154183D01*
X0250014Y0154190D01*
X0250091Y0154193D01*
X0250167Y0154192D01*
X0250244Y0154187D01*
X0250320Y0154178D01*
X0250396Y0154165D01*
X0250470Y0154148D01*
X0250544Y0154128D01*
X0250617Y0154103D01*
X0250688Y0154075D01*
X0250758Y0154043D01*
X0250826Y0154008D01*
X0250892Y0153969D01*
X0250956Y0153927D01*
X0251017Y0153881D01*
X0251077Y0153832D01*
X0251133Y0153781D01*
X0251187Y0153726D01*
X0251238Y0153669D01*
X0251286Y0153609D01*
X0251331Y0153547D01*
X0251372Y0153482D01*
X0251410Y0153416D01*
X0251445Y0153348D01*
X0251475Y0153277D01*
X0251503Y0153206D01*
X0251526Y0153133D01*
X0251546Y0153059D01*
X0251562Y0152984D01*
X0251574Y0152908D01*
X0251582Y0152832D01*
X0251586Y0152755D01*
X0251586Y0152679D01*
X0251582Y0152602D01*
X0251574Y0152526D01*
X0251562Y0152450D01*
X0251546Y0152375D01*
X0251526Y0152301D01*
X0251503Y0152228D01*
X0251475Y0152157D01*
X0251445Y0152086D01*
X0251410Y0152018D01*
X0251372Y0151952D01*
X0251331Y0151887D01*
X0251286Y0151825D01*
X0251238Y0151765D01*
X0251187Y0151708D01*
X0251133Y0151653D01*
X0251077Y0151602D01*
X0251017Y0151553D01*
X0250956Y0151507D01*
X0250892Y0151465D01*
X0250826Y0151426D01*
X0250758Y0151391D01*
X0250688Y0151359D01*
X0250617Y0151331D01*
X0250544Y0151306D01*
X0250470Y0151286D01*
X0250396Y0151269D01*
X0250320Y0151256D01*
X0250244Y0151247D01*
X0250167Y0151242D01*
X0250091Y0151241D01*
X0250014Y0151244D01*
X0249938Y0151251D01*
X0249862Y0151262D01*
X0249787Y0151277D01*
X0249713Y0151296D01*
X0249639Y0151318D01*
X0249567Y0151344D01*
X0249497Y0151374D01*
X0249428Y0151408D01*
X0249361Y0151445D01*
X0249296Y0151486D01*
X0249233Y0151530D01*
X0249173Y0151577D01*
X0249115Y0151627D01*
X0249060Y0151680D01*
X0249007Y0151736D01*
X0248958Y0151795D01*
X0248911Y0151856D01*
X0248868Y0151919D01*
X0248829Y0151985D01*
X0248792Y0152052D01*
X0248760Y0152121D01*
X0248730Y0152192D01*
X0248705Y0152265D01*
X0248683Y0152338D01*
X0248666Y0152413D01*
X0248652Y0152488D01*
X0248642Y0152564D01*
X0248636Y0152640D01*
X0248634Y0152717D01*
X0197354Y0169621D02*
G75*
%LPD*%
D38*
X0197354Y0169621D02*
X0197354Y0326117D01*
X0233673Y0312338D02*
X0233675Y0312415D01*
X0233681Y0312491D01*
X0233691Y0312567D01*
X0233705Y0312642D01*
X0233722Y0312717D01*
X0233744Y0312790D01*
X0233769Y0312863D01*
X0233799Y0312934D01*
X0233831Y0313003D01*
X0233868Y0313070D01*
X0233907Y0313136D01*
X0233950Y0313199D01*
X0233997Y0313260D01*
X0234046Y0313319D01*
X0234099Y0313375D01*
X0234154Y0313428D01*
X0234212Y0313478D01*
X0234272Y0313525D01*
X0234335Y0313569D01*
X0234400Y0313610D01*
X0234467Y0313647D01*
X0234536Y0313681D01*
X0234606Y0313711D01*
X0234678Y0313737D01*
X0234752Y0313759D01*
X0234826Y0313778D01*
X0234901Y0313793D01*
X0234977Y0313804D01*
X0235053Y0313811D01*
X0235130Y0313814D01*
X0235206Y0313813D01*
X0235283Y0313808D01*
X0235359Y0313799D01*
X0235435Y0313786D01*
X0235509Y0313769D01*
X0235583Y0313749D01*
X0235656Y0313724D01*
X0235727Y0313696D01*
X0235797Y0313664D01*
X0235865Y0313629D01*
X0235931Y0313590D01*
X0235995Y0313548D01*
X0236056Y0313502D01*
X0236116Y0313453D01*
X0236172Y0313402D01*
X0236226Y0313347D01*
X0236277Y0313290D01*
X0236325Y0313230D01*
X0236370Y0313168D01*
X0236411Y0313103D01*
X0236449Y0313037D01*
X0236484Y0312969D01*
X0236514Y0312898D01*
X0236542Y0312827D01*
X0236565Y0312754D01*
X0236585Y0312680D01*
X0236601Y0312605D01*
X0236613Y0312529D01*
X0236621Y0312453D01*
X0236625Y0312376D01*
X0236625Y0312300D01*
X0236621Y0312223D01*
X0236613Y0312147D01*
X0236601Y0312071D01*
X0236585Y0311996D01*
X0236565Y0311922D01*
X0236542Y0311849D01*
X0236514Y0311778D01*
X0236484Y0311707D01*
X0236449Y0311639D01*
X0236411Y0311573D01*
X0236370Y0311508D01*
X0236325Y0311446D01*
X0236277Y0311386D01*
X0236226Y0311329D01*
X0236172Y0311274D01*
X0236116Y0311223D01*
X0236056Y0311174D01*
X0235995Y0311128D01*
X0235931Y0311086D01*
X0235865Y0311047D01*
X0235797Y0311012D01*
X0235727Y0310980D01*
X0235656Y0310952D01*
X0235583Y0310927D01*
X0235509Y0310907D01*
X0235435Y0310890D01*
X0235359Y0310877D01*
X0235283Y0310868D01*
X0235206Y0310863D01*
X0235130Y0310862D01*
X0235053Y0310865D01*
X0234977Y0310872D01*
X0234901Y0310883D01*
X0234826Y0310898D01*
X0234752Y0310917D01*
X0234678Y0310939D01*
X0234606Y0310965D01*
X0234536Y0310995D01*
X0234467Y0311029D01*
X0234400Y0311066D01*
X0234335Y0311107D01*
X0234272Y0311151D01*
X0234212Y0311198D01*
X0234154Y0311248D01*
X0234099Y0311301D01*
X0234046Y0311357D01*
X0233997Y0311416D01*
X0233950Y0311477D01*
X0233907Y0311540D01*
X0233868Y0311606D01*
X0233831Y0311673D01*
X0233799Y0311742D01*
X0233769Y0311813D01*
X0233744Y0311886D01*
X0233722Y0311959D01*
X0233705Y0312034D01*
X0233691Y0312109D01*
X0233681Y0312185D01*
X0233675Y0312261D01*
X0233673Y0312338D01*
X0197354Y0326116D02*
X0287906Y0326116D01*
X0287905Y0326117D02*
X0287905Y0169621D01*
X0197354Y0169621D01*
X0248634Y0312338D02*
X0248636Y0312415D01*
X0248642Y0312491D01*
X0248652Y0312567D01*
X0248666Y0312642D01*
X0248683Y0312717D01*
X0248705Y0312790D01*
X0248730Y0312863D01*
X0248760Y0312934D01*
X0248792Y0313003D01*
X0248829Y0313070D01*
X0248868Y0313136D01*
X0248911Y0313199D01*
X0248958Y0313260D01*
X0249007Y0313319D01*
X0249060Y0313375D01*
X0249115Y0313428D01*
X0249173Y0313478D01*
X0249233Y0313525D01*
X0249296Y0313569D01*
X0249361Y0313610D01*
X0249428Y0313647D01*
X0249497Y0313681D01*
X0249567Y0313711D01*
X0249639Y0313737D01*
X0249713Y0313759D01*
X0249787Y0313778D01*
X0249862Y0313793D01*
X0249938Y0313804D01*
X0250014Y0313811D01*
X0250091Y0313814D01*
X0250167Y0313813D01*
X0250244Y0313808D01*
X0250320Y0313799D01*
X0250396Y0313786D01*
X0250470Y0313769D01*
X0250544Y0313749D01*
X0250617Y0313724D01*
X0250688Y0313696D01*
X0250758Y0313664D01*
X0250826Y0313629D01*
X0250892Y0313590D01*
X0250956Y0313548D01*
X0251017Y0313502D01*
X0251077Y0313453D01*
X0251133Y0313402D01*
X0251187Y0313347D01*
X0251238Y0313290D01*
X0251286Y0313230D01*
X0251331Y0313168D01*
X0251372Y0313103D01*
X0251410Y0313037D01*
X0251445Y0312969D01*
X0251475Y0312898D01*
X0251503Y0312827D01*
X0251526Y0312754D01*
X0251546Y0312680D01*
X0251562Y0312605D01*
X0251574Y0312529D01*
X0251582Y0312453D01*
X0251586Y0312376D01*
X0251586Y0312300D01*
X0251582Y0312223D01*
X0251574Y0312147D01*
X0251562Y0312071D01*
X0251546Y0311996D01*
X0251526Y0311922D01*
X0251503Y0311849D01*
X0251475Y0311778D01*
X0251445Y0311707D01*
X0251410Y0311639D01*
X0251372Y0311573D01*
X0251331Y0311508D01*
X0251286Y0311446D01*
X0251238Y0311386D01*
X0251187Y0311329D01*
X0251133Y0311274D01*
X0251077Y0311223D01*
X0251017Y0311174D01*
X0250956Y0311128D01*
X0250892Y0311086D01*
X0250826Y0311047D01*
X0250758Y0311012D01*
X0250688Y0310980D01*
X0250617Y0310952D01*
X0250544Y0310927D01*
X0250470Y0310907D01*
X0250396Y0310890D01*
X0250320Y0310877D01*
X0250244Y0310868D01*
X0250167Y0310863D01*
X0250091Y0310862D01*
X0250014Y0310865D01*
X0249938Y0310872D01*
X0249862Y0310883D01*
X0249787Y0310898D01*
X0249713Y0310917D01*
X0249639Y0310939D01*
X0249567Y0310965D01*
X0249497Y0310995D01*
X0249428Y0311029D01*
X0249361Y0311066D01*
X0249296Y0311107D01*
X0249233Y0311151D01*
X0249173Y0311198D01*
X0249115Y0311248D01*
X0249060Y0311301D01*
X0249007Y0311357D01*
X0248958Y0311416D01*
X0248911Y0311477D01*
X0248868Y0311540D01*
X0248829Y0311606D01*
X0248792Y0311673D01*
X0248760Y0311742D01*
X0248730Y0311813D01*
X0248705Y0311886D01*
X0248683Y0311959D01*
X0248666Y0312034D01*
X0248652Y0312109D01*
X0248642Y0312185D01*
X0248636Y0312261D01*
X0248634Y0312338D01*
X0291031Y0010000D02*
G75*
%LPD*%
D38*
X0291031Y0010000D02*
X0291031Y0166496D01*
X0327350Y0152717D02*
X0327352Y0152794D01*
X0327358Y0152870D01*
X0327368Y0152946D01*
X0327382Y0153021D01*
X0327399Y0153096D01*
X0327421Y0153169D01*
X0327446Y0153242D01*
X0327476Y0153313D01*
X0327508Y0153382D01*
X0327545Y0153449D01*
X0327584Y0153515D01*
X0327627Y0153578D01*
X0327674Y0153639D01*
X0327723Y0153698D01*
X0327776Y0153754D01*
X0327831Y0153807D01*
X0327889Y0153857D01*
X0327949Y0153904D01*
X0328012Y0153948D01*
X0328077Y0153989D01*
X0328144Y0154026D01*
X0328213Y0154060D01*
X0328283Y0154090D01*
X0328355Y0154116D01*
X0328429Y0154138D01*
X0328503Y0154157D01*
X0328578Y0154172D01*
X0328654Y0154183D01*
X0328730Y0154190D01*
X0328807Y0154193D01*
X0328883Y0154192D01*
X0328960Y0154187D01*
X0329036Y0154178D01*
X0329112Y0154165D01*
X0329186Y0154148D01*
X0329260Y0154128D01*
X0329333Y0154103D01*
X0329404Y0154075D01*
X0329474Y0154043D01*
X0329542Y0154008D01*
X0329608Y0153969D01*
X0329672Y0153927D01*
X0329733Y0153881D01*
X0329793Y0153832D01*
X0329849Y0153781D01*
X0329903Y0153726D01*
X0329954Y0153669D01*
X0330002Y0153609D01*
X0330047Y0153547D01*
X0330088Y0153482D01*
X0330126Y0153416D01*
X0330161Y0153348D01*
X0330191Y0153277D01*
X0330219Y0153206D01*
X0330242Y0153133D01*
X0330262Y0153059D01*
X0330278Y0152984D01*
X0330290Y0152908D01*
X0330298Y0152832D01*
X0330302Y0152755D01*
X0330302Y0152679D01*
X0330298Y0152602D01*
X0330290Y0152526D01*
X0330278Y0152450D01*
X0330262Y0152375D01*
X0330242Y0152301D01*
X0330219Y0152228D01*
X0330191Y0152157D01*
X0330161Y0152086D01*
X0330126Y0152018D01*
X0330088Y0151952D01*
X0330047Y0151887D01*
X0330002Y0151825D01*
X0329954Y0151765D01*
X0329903Y0151708D01*
X0329849Y0151653D01*
X0329793Y0151602D01*
X0329733Y0151553D01*
X0329672Y0151507D01*
X0329608Y0151465D01*
X0329542Y0151426D01*
X0329474Y0151391D01*
X0329404Y0151359D01*
X0329333Y0151331D01*
X0329260Y0151306D01*
X0329186Y0151286D01*
X0329112Y0151269D01*
X0329036Y0151256D01*
X0328960Y0151247D01*
X0328883Y0151242D01*
X0328807Y0151241D01*
X0328730Y0151244D01*
X0328654Y0151251D01*
X0328578Y0151262D01*
X0328503Y0151277D01*
X0328429Y0151296D01*
X0328355Y0151318D01*
X0328283Y0151344D01*
X0328213Y0151374D01*
X0328144Y0151408D01*
X0328077Y0151445D01*
X0328012Y0151486D01*
X0327949Y0151530D01*
X0327889Y0151577D01*
X0327831Y0151627D01*
X0327776Y0151680D01*
X0327723Y0151736D01*
X0327674Y0151795D01*
X0327627Y0151856D01*
X0327584Y0151919D01*
X0327545Y0151985D01*
X0327508Y0152052D01*
X0327476Y0152121D01*
X0327446Y0152192D01*
X0327421Y0152265D01*
X0327399Y0152338D01*
X0327382Y0152413D01*
X0327368Y0152488D01*
X0327358Y0152564D01*
X0327352Y0152640D01*
X0327350Y0152717D01*
X0291031Y0166495D02*
X0381583Y0166495D01*
X0381582Y0166496D02*
X0381582Y0010000D01*
X0291031Y0010000D01*
X0342311Y0152717D02*
X0342313Y0152794D01*
X0342319Y0152870D01*
X0342329Y0152946D01*
X0342343Y0153021D01*
X0342360Y0153096D01*
X0342382Y0153169D01*
X0342407Y0153242D01*
X0342437Y0153313D01*
X0342469Y0153382D01*
X0342506Y0153449D01*
X0342545Y0153515D01*
X0342588Y0153578D01*
X0342635Y0153639D01*
X0342684Y0153698D01*
X0342737Y0153754D01*
X0342792Y0153807D01*
X0342850Y0153857D01*
X0342910Y0153904D01*
X0342973Y0153948D01*
X0343038Y0153989D01*
X0343105Y0154026D01*
X0343174Y0154060D01*
X0343244Y0154090D01*
X0343316Y0154116D01*
X0343390Y0154138D01*
X0343464Y0154157D01*
X0343539Y0154172D01*
X0343615Y0154183D01*
X0343691Y0154190D01*
X0343768Y0154193D01*
X0343844Y0154192D01*
X0343921Y0154187D01*
X0343997Y0154178D01*
X0344073Y0154165D01*
X0344147Y0154148D01*
X0344221Y0154128D01*
X0344294Y0154103D01*
X0344365Y0154075D01*
X0344435Y0154043D01*
X0344503Y0154008D01*
X0344569Y0153969D01*
X0344633Y0153927D01*
X0344694Y0153881D01*
X0344754Y0153832D01*
X0344810Y0153781D01*
X0344864Y0153726D01*
X0344915Y0153669D01*
X0344963Y0153609D01*
X0345008Y0153547D01*
X0345049Y0153482D01*
X0345087Y0153416D01*
X0345122Y0153348D01*
X0345152Y0153277D01*
X0345180Y0153206D01*
X0345203Y0153133D01*
X0345223Y0153059D01*
X0345239Y0152984D01*
X0345251Y0152908D01*
X0345259Y0152832D01*
X0345263Y0152755D01*
X0345263Y0152679D01*
X0345259Y0152602D01*
X0345251Y0152526D01*
X0345239Y0152450D01*
X0345223Y0152375D01*
X0345203Y0152301D01*
X0345180Y0152228D01*
X0345152Y0152157D01*
X0345122Y0152086D01*
X0345087Y0152018D01*
X0345049Y0151952D01*
X0345008Y0151887D01*
X0344963Y0151825D01*
X0344915Y0151765D01*
X0344864Y0151708D01*
X0344810Y0151653D01*
X0344754Y0151602D01*
X0344694Y0151553D01*
X0344633Y0151507D01*
X0344569Y0151465D01*
X0344503Y0151426D01*
X0344435Y0151391D01*
X0344365Y0151359D01*
X0344294Y0151331D01*
X0344221Y0151306D01*
X0344147Y0151286D01*
X0344073Y0151269D01*
X0343997Y0151256D01*
X0343921Y0151247D01*
X0343844Y0151242D01*
X0343768Y0151241D01*
X0343691Y0151244D01*
X0343615Y0151251D01*
X0343539Y0151262D01*
X0343464Y0151277D01*
X0343390Y0151296D01*
X0343316Y0151318D01*
X0343244Y0151344D01*
X0343174Y0151374D01*
X0343105Y0151408D01*
X0343038Y0151445D01*
X0342973Y0151486D01*
X0342910Y0151530D01*
X0342850Y0151577D01*
X0342792Y0151627D01*
X0342737Y0151680D01*
X0342684Y0151736D01*
X0342635Y0151795D01*
X0342588Y0151856D01*
X0342545Y0151919D01*
X0342506Y0151985D01*
X0342469Y0152052D01*
X0342437Y0152121D01*
X0342407Y0152192D01*
X0342382Y0152265D01*
X0342360Y0152338D01*
X0342343Y0152413D01*
X0342329Y0152488D01*
X0342319Y0152564D01*
X0342313Y0152640D01*
X0342311Y0152717D01*
X0291031Y0169621D02*
G75*
%LPD*%
D38*
X0291031Y0169621D02*
X0291031Y0326117D01*
X0327350Y0312338D02*
X0327352Y0312415D01*
X0327358Y0312491D01*
X0327368Y0312567D01*
X0327382Y0312642D01*
X0327399Y0312717D01*
X0327421Y0312790D01*
X0327446Y0312863D01*
X0327476Y0312934D01*
X0327508Y0313003D01*
X0327545Y0313070D01*
X0327584Y0313136D01*
X0327627Y0313199D01*
X0327674Y0313260D01*
X0327723Y0313319D01*
X0327776Y0313375D01*
X0327831Y0313428D01*
X0327889Y0313478D01*
X0327949Y0313525D01*
X0328012Y0313569D01*
X0328077Y0313610D01*
X0328144Y0313647D01*
X0328213Y0313681D01*
X0328283Y0313711D01*
X0328355Y0313737D01*
X0328429Y0313759D01*
X0328503Y0313778D01*
X0328578Y0313793D01*
X0328654Y0313804D01*
X0328730Y0313811D01*
X0328807Y0313814D01*
X0328883Y0313813D01*
X0328960Y0313808D01*
X0329036Y0313799D01*
X0329112Y0313786D01*
X0329186Y0313769D01*
X0329260Y0313749D01*
X0329333Y0313724D01*
X0329404Y0313696D01*
X0329474Y0313664D01*
X0329542Y0313629D01*
X0329608Y0313590D01*
X0329672Y0313548D01*
X0329733Y0313502D01*
X0329793Y0313453D01*
X0329849Y0313402D01*
X0329903Y0313347D01*
X0329954Y0313290D01*
X0330002Y0313230D01*
X0330047Y0313168D01*
X0330088Y0313103D01*
X0330126Y0313037D01*
X0330161Y0312969D01*
X0330191Y0312898D01*
X0330219Y0312827D01*
X0330242Y0312754D01*
X0330262Y0312680D01*
X0330278Y0312605D01*
X0330290Y0312529D01*
X0330298Y0312453D01*
X0330302Y0312376D01*
X0330302Y0312300D01*
X0330298Y0312223D01*
X0330290Y0312147D01*
X0330278Y0312071D01*
X0330262Y0311996D01*
X0330242Y0311922D01*
X0330219Y0311849D01*
X0330191Y0311778D01*
X0330161Y0311707D01*
X0330126Y0311639D01*
X0330088Y0311573D01*
X0330047Y0311508D01*
X0330002Y0311446D01*
X0329954Y0311386D01*
X0329903Y0311329D01*
X0329849Y0311274D01*
X0329793Y0311223D01*
X0329733Y0311174D01*
X0329672Y0311128D01*
X0329608Y0311086D01*
X0329542Y0311047D01*
X0329474Y0311012D01*
X0329404Y0310980D01*
X0329333Y0310952D01*
X0329260Y0310927D01*
X0329186Y0310907D01*
X0329112Y0310890D01*
X0329036Y0310877D01*
X0328960Y0310868D01*
X0328883Y0310863D01*
X0328807Y0310862D01*
X0328730Y0310865D01*
X0328654Y0310872D01*
X0328578Y0310883D01*
X0328503Y0310898D01*
X0328429Y0310917D01*
X0328355Y0310939D01*
X0328283Y0310965D01*
X0328213Y0310995D01*
X0328144Y0311029D01*
X0328077Y0311066D01*
X0328012Y0311107D01*
X0327949Y0311151D01*
X0327889Y0311198D01*
X0327831Y0311248D01*
X0327776Y0311301D01*
X0327723Y0311357D01*
X0327674Y0311416D01*
X0327627Y0311477D01*
X0327584Y0311540D01*
X0327545Y0311606D01*
X0327508Y0311673D01*
X0327476Y0311742D01*
X0327446Y0311813D01*
X0327421Y0311886D01*
X0327399Y0311959D01*
X0327382Y0312034D01*
X0327368Y0312109D01*
X0327358Y0312185D01*
X0327352Y0312261D01*
X0327350Y0312338D01*
X0291031Y0326116D02*
X0381583Y0326116D01*
X0381582Y0326117D02*
X0381582Y0169621D01*
X0291031Y0169621D01*
X0342311Y0312338D02*
X0342313Y0312415D01*
X0342319Y0312491D01*
X0342329Y0312567D01*
X0342343Y0312642D01*
X0342360Y0312717D01*
X0342382Y0312790D01*
X0342407Y0312863D01*
X0342437Y0312934D01*
X0342469Y0313003D01*
X0342506Y0313070D01*
X0342545Y0313136D01*
X0342588Y0313199D01*
X0342635Y0313260D01*
X0342684Y0313319D01*
X0342737Y0313375D01*
X0342792Y0313428D01*
X0342850Y0313478D01*
X0342910Y0313525D01*
X0342973Y0313569D01*
X0343038Y0313610D01*
X0343105Y0313647D01*
X0343174Y0313681D01*
X0343244Y0313711D01*
X0343316Y0313737D01*
X0343390Y0313759D01*
X0343464Y0313778D01*
X0343539Y0313793D01*
X0343615Y0313804D01*
X0343691Y0313811D01*
X0343768Y0313814D01*
X0343844Y0313813D01*
X0343921Y0313808D01*
X0343997Y0313799D01*
X0344073Y0313786D01*
X0344147Y0313769D01*
X0344221Y0313749D01*
X0344294Y0313724D01*
X0344365Y0313696D01*
X0344435Y0313664D01*
X0344503Y0313629D01*
X0344569Y0313590D01*
X0344633Y0313548D01*
X0344694Y0313502D01*
X0344754Y0313453D01*
X0344810Y0313402D01*
X0344864Y0313347D01*
X0344915Y0313290D01*
X0344963Y0313230D01*
X0345008Y0313168D01*
X0345049Y0313103D01*
X0345087Y0313037D01*
X0345122Y0312969D01*
X0345152Y0312898D01*
X0345180Y0312827D01*
X0345203Y0312754D01*
X0345223Y0312680D01*
X0345239Y0312605D01*
X0345251Y0312529D01*
X0345259Y0312453D01*
X0345263Y0312376D01*
X0345263Y0312300D01*
X0345259Y0312223D01*
X0345251Y0312147D01*
X0345239Y0312071D01*
X0345223Y0311996D01*
X0345203Y0311922D01*
X0345180Y0311849D01*
X0345152Y0311778D01*
X0345122Y0311707D01*
X0345087Y0311639D01*
X0345049Y0311573D01*
X0345008Y0311508D01*
X0344963Y0311446D01*
X0344915Y0311386D01*
X0344864Y0311329D01*
X0344810Y0311274D01*
X0344754Y0311223D01*
X0344694Y0311174D01*
X0344633Y0311128D01*
X0344569Y0311086D01*
X0344503Y0311047D01*
X0344435Y0311012D01*
X0344365Y0310980D01*
X0344294Y0310952D01*
X0344221Y0310927D01*
X0344147Y0310907D01*
X0344073Y0310890D01*
X0343997Y0310877D01*
X0343921Y0310868D01*
X0343844Y0310863D01*
X0343768Y0310862D01*
X0343691Y0310865D01*
X0343615Y0310872D01*
X0343539Y0310883D01*
X0343464Y0310898D01*
X0343390Y0310917D01*
X0343316Y0310939D01*
X0343244Y0310965D01*
X0343174Y0310995D01*
X0343105Y0311029D01*
X0343038Y0311066D01*
X0342973Y0311107D01*
X0342910Y0311151D01*
X0342850Y0311198D01*
X0342792Y0311248D01*
X0342737Y0311301D01*
X0342684Y0311357D01*
X0342635Y0311416D01*
X0342588Y0311477D01*
X0342545Y0311540D01*
X0342506Y0311606D01*
X0342469Y0311673D01*
X0342437Y0311742D01*
X0342407Y0311813D01*
X0342382Y0311886D01*
X0342360Y0311959D01*
X0342343Y0312034D01*
X0342329Y0312109D01*
X0342319Y0312185D01*
X0342313Y0312261D01*
X0342311Y0312338D01*
M02*
