G75*
G70*
%OFA0B0*%
%FSLAX25Y25*%
%IPPOS*%
%LPD*%
%AMOC8*
5,1,8,0,0,1.08239X$1,22.5*
%
%ADD78C,0.00100*%
D78*
X0078900Y0147750D02*
X0086900Y0155750D01*
X0086900Y0147750D02*
X0078900Y0155750D01*
X0078900Y0151750D02*
X0086900Y0151750D01*
X0065850Y0115350D02*
X0073850Y0123350D01*
X0073850Y0115350D02*
X0065850Y0123350D01*
X0065850Y0119350D02*
X0073850Y0119350D01*
X0062700Y0104100D02*
X0070700Y0112100D01*
X0070700Y0104100D02*
X0062700Y0112100D01*
X0062700Y0108100D02*
X0070700Y0108100D01*
X0056850Y0092400D02*
X0064850Y0100400D01*
X0064850Y0092400D02*
X0056850Y0100400D01*
X0056850Y0096400D02*
X0064850Y0096400D01*
X0060900Y0085200D02*
X0068900Y0093200D01*
X0068900Y0085200D02*
X0060900Y0093200D01*
X0060900Y0089200D02*
X0068900Y0089200D01*
X0067200Y0080700D02*
X0075200Y0088700D01*
X0075200Y0080700D02*
X0067200Y0088700D01*
X0067200Y0084700D02*
X0075200Y0084700D01*
X0073500Y0082500D02*
X0081500Y0090500D01*
X0081500Y0082500D02*
X0073500Y0090500D01*
X0073500Y0086500D02*
X0081500Y0086500D01*
X0075750Y0089250D02*
X0083750Y0097250D01*
X0083750Y0089250D02*
X0075750Y0097250D01*
X0075750Y0093250D02*
X0083750Y0093250D01*
X0077100Y0105000D02*
X0085100Y0113000D01*
X0085100Y0105000D02*
X0077100Y0113000D01*
X0077100Y0109000D02*
X0085100Y0109000D01*
X0058200Y0137400D02*
X0066200Y0145400D01*
X0066200Y0137400D02*
X0058200Y0145400D01*
X0058200Y0141400D02*
X0066200Y0141400D01*
X0047730Y0131790D02*
X0055730Y0139790D01*
X0055730Y0131790D02*
X0047730Y0139790D01*
X0047730Y0135790D02*
X0055730Y0135790D01*
X0055500Y0103650D02*
X0063500Y0111650D01*
X0063500Y0103650D02*
X0055500Y0111650D01*
X0055500Y0107650D02*
X0063500Y0107650D01*
X0045600Y0110850D02*
X0053600Y0118850D01*
X0053600Y0110850D02*
X0045600Y0118850D01*
X0045600Y0114850D02*
X0053600Y0114850D01*
X0037050Y0119400D02*
X0045050Y0127400D01*
X0045050Y0119400D02*
X0037050Y0127400D01*
X0037050Y0123400D02*
X0045050Y0123400D01*
X0025800Y0121650D02*
X0033800Y0129650D01*
X0033800Y0121650D02*
X0025800Y0129650D01*
X0025800Y0125650D02*
X0033800Y0125650D01*
X0019390Y0123170D02*
X0027390Y0131170D01*
X0027390Y0123170D02*
X0019390Y0131170D01*
X0019390Y0127170D02*
X0027390Y0127170D01*
X0015840Y0120370D02*
X0023840Y0128370D01*
X0023840Y0120370D02*
X0015840Y0128370D01*
X0015840Y0124370D02*
X0023840Y0124370D01*
X0011850Y0109950D02*
X0019850Y0117950D01*
X0019850Y0109950D02*
X0011850Y0117950D01*
X0011850Y0113950D02*
X0019850Y0113950D01*
X0015840Y0131790D02*
X0023840Y0139790D01*
X0023840Y0131790D02*
X0015840Y0139790D01*
X0015840Y0135790D02*
X0023840Y0135790D01*
X0019500Y0135150D02*
X0027500Y0143150D01*
X0027500Y0135150D02*
X0019500Y0143150D01*
X0019500Y0139150D02*
X0027500Y0139150D01*
X0024900Y0140550D02*
X0032900Y0148550D01*
X0032900Y0140550D02*
X0024900Y0148550D01*
X0024900Y0144550D02*
X0032900Y0144550D01*
X0029850Y0149550D02*
X0037850Y0157550D01*
X0037850Y0149550D02*
X0029850Y0157550D01*
X0029850Y0153550D02*
X0037850Y0153550D01*
X0027600Y0094650D02*
X0035600Y0102650D01*
X0035600Y0094650D02*
X0027600Y0102650D01*
X0027600Y0098650D02*
X0035600Y0098650D01*
X0025800Y0090150D02*
X0033800Y0098150D01*
X0033800Y0090150D02*
X0025800Y0098150D01*
X0025800Y0094150D02*
X0033800Y0094150D01*
X0024900Y0086550D02*
X0032900Y0094550D01*
X0032900Y0086550D02*
X0024900Y0094550D01*
X0024900Y0090550D02*
X0032900Y0090550D01*
X0028950Y0080700D02*
X0036950Y0088700D01*
X0036950Y0080700D02*
X0028950Y0088700D01*
X0028950Y0084700D02*
X0036950Y0084700D01*
X0036600Y0087000D02*
X0044600Y0095000D01*
X0044600Y0087000D02*
X0036600Y0095000D01*
X0036600Y0091000D02*
X0044600Y0091000D01*
X0078900Y0307371D02*
X0086900Y0315371D01*
X0086900Y0307371D02*
X0078900Y0315371D01*
X0078900Y0311371D02*
X0086900Y0311371D01*
X0065850Y0274971D02*
X0073850Y0282971D01*
X0073850Y0274971D02*
X0065850Y0282971D01*
X0065850Y0278971D02*
X0073850Y0278971D01*
X0062700Y0263721D02*
X0070700Y0271721D01*
X0070700Y0263721D02*
X0062700Y0271721D01*
X0062700Y0267721D02*
X0070700Y0267721D01*
X0056850Y0252021D02*
X0064850Y0260021D01*
X0064850Y0252021D02*
X0056850Y0260021D01*
X0056850Y0256021D02*
X0064850Y0256021D01*
X0060900Y0244821D02*
X0068900Y0252821D01*
X0068900Y0244821D02*
X0060900Y0252821D01*
X0060900Y0248821D02*
X0068900Y0248821D01*
X0067200Y0240321D02*
X0075200Y0248321D01*
X0075200Y0240321D02*
X0067200Y0248321D01*
X0067200Y0244321D02*
X0075200Y0244321D01*
X0073500Y0242121D02*
X0081500Y0250121D01*
X0081500Y0242121D02*
X0073500Y0250121D01*
X0073500Y0246121D02*
X0081500Y0246121D01*
X0075750Y0248871D02*
X0083750Y0256871D01*
X0083750Y0248871D02*
X0075750Y0256871D01*
X0075750Y0252871D02*
X0083750Y0252871D01*
X0077100Y0264621D02*
X0085100Y0272621D01*
X0085100Y0264621D02*
X0077100Y0272621D01*
X0077100Y0268621D02*
X0085100Y0268621D01*
X0058200Y0297021D02*
X0066200Y0305021D01*
X0066200Y0297021D02*
X0058200Y0305021D01*
X0058200Y0301021D02*
X0066200Y0301021D01*
X0047730Y0291411D02*
X0055730Y0299411D01*
X0055730Y0291411D02*
X0047730Y0299411D01*
X0047730Y0295411D02*
X0055730Y0295411D01*
X0055500Y0263271D02*
X0063500Y0271271D01*
X0063500Y0263271D02*
X0055500Y0271271D01*
X0055500Y0267271D02*
X0063500Y0267271D01*
X0045600Y0270471D02*
X0053600Y0278471D01*
X0053600Y0270471D02*
X0045600Y0278471D01*
X0045600Y0274471D02*
X0053600Y0274471D01*
X0037050Y0279021D02*
X0045050Y0287021D01*
X0045050Y0279021D02*
X0037050Y0287021D01*
X0037050Y0283021D02*
X0045050Y0283021D01*
X0025800Y0281271D02*
X0033800Y0289271D01*
X0033800Y0281271D02*
X0025800Y0289271D01*
X0025800Y0285271D02*
X0033800Y0285271D01*
X0019390Y0282791D02*
X0027390Y0290791D01*
X0027390Y0282791D02*
X0019390Y0290791D01*
X0019390Y0286791D02*
X0027390Y0286791D01*
X0015840Y0279991D02*
X0023840Y0287991D01*
X0023840Y0279991D02*
X0015840Y0287991D01*
X0015840Y0283991D02*
X0023840Y0283991D01*
X0011850Y0269571D02*
X0019850Y0277571D01*
X0019850Y0269571D02*
X0011850Y0277571D01*
X0011850Y0273571D02*
X0019850Y0273571D01*
X0015840Y0291411D02*
X0023840Y0299411D01*
X0023840Y0291411D02*
X0015840Y0299411D01*
X0015840Y0295411D02*
X0023840Y0295411D01*
X0019500Y0294771D02*
X0027500Y0302771D01*
X0027500Y0294771D02*
X0019500Y0302771D01*
X0019500Y0298771D02*
X0027500Y0298771D01*
X0024900Y0300171D02*
X0032900Y0308171D01*
X0032900Y0300171D02*
X0024900Y0308171D01*
X0024900Y0304171D02*
X0032900Y0304171D01*
X0029850Y0309171D02*
X0037850Y0317171D01*
X0037850Y0309171D02*
X0029850Y0317171D01*
X0029850Y0313171D02*
X0037850Y0313171D01*
X0027600Y0254271D02*
X0035600Y0262271D01*
X0035600Y0254271D02*
X0027600Y0262271D01*
X0027600Y0258271D02*
X0035600Y0258271D01*
X0025800Y0249771D02*
X0033800Y0257771D01*
X0033800Y0249771D02*
X0025800Y0257771D01*
X0025800Y0253771D02*
X0033800Y0253771D01*
X0024900Y0246171D02*
X0032900Y0254171D01*
X0032900Y0246171D02*
X0024900Y0254171D01*
X0024900Y0250171D02*
X0032900Y0250171D01*
X0028950Y0240321D02*
X0036950Y0248321D01*
X0036950Y0240321D02*
X0028950Y0248321D01*
X0028950Y0244321D02*
X0036950Y0244321D01*
X0036600Y0246621D02*
X0044600Y0254621D01*
X0044600Y0246621D02*
X0036600Y0254621D01*
X0036600Y0250621D02*
X0044600Y0250621D01*
X0172577Y0147750D02*
X0180577Y0155750D01*
X0180577Y0147750D02*
X0172577Y0155750D01*
X0172577Y0151750D02*
X0180577Y0151750D01*
X0159527Y0115350D02*
X0167527Y0123350D01*
X0167527Y0115350D02*
X0159527Y0123350D01*
X0159527Y0119350D02*
X0167527Y0119350D01*
X0156377Y0104100D02*
X0164377Y0112100D01*
X0164377Y0104100D02*
X0156377Y0112100D01*
X0156377Y0108100D02*
X0164377Y0108100D01*
X0150527Y0092400D02*
X0158527Y0100400D01*
X0158527Y0092400D02*
X0150527Y0100400D01*
X0150527Y0096400D02*
X0158527Y0096400D01*
X0154577Y0085200D02*
X0162577Y0093200D01*
X0162577Y0085200D02*
X0154577Y0093200D01*
X0154577Y0089200D02*
X0162577Y0089200D01*
X0160877Y0080700D02*
X0168877Y0088700D01*
X0168877Y0080700D02*
X0160877Y0088700D01*
X0160877Y0084700D02*
X0168877Y0084700D01*
X0167177Y0082500D02*
X0175177Y0090500D01*
X0175177Y0082500D02*
X0167177Y0090500D01*
X0167177Y0086500D02*
X0175177Y0086500D01*
X0169427Y0089250D02*
X0177427Y0097250D01*
X0177427Y0089250D02*
X0169427Y0097250D01*
X0169427Y0093250D02*
X0177427Y0093250D01*
X0170777Y0105000D02*
X0178777Y0113000D01*
X0178777Y0105000D02*
X0170777Y0113000D01*
X0170777Y0109000D02*
X0178777Y0109000D01*
X0151877Y0137400D02*
X0159877Y0145400D01*
X0159877Y0137400D02*
X0151877Y0145400D01*
X0151877Y0141400D02*
X0159877Y0141400D01*
X0141407Y0131790D02*
X0149407Y0139790D01*
X0149407Y0131790D02*
X0141407Y0139790D01*
X0141407Y0135790D02*
X0149407Y0135790D01*
X0149177Y0103650D02*
X0157177Y0111650D01*
X0157177Y0103650D02*
X0149177Y0111650D01*
X0149177Y0107650D02*
X0157177Y0107650D01*
X0139277Y0110850D02*
X0147277Y0118850D01*
X0147277Y0110850D02*
X0139277Y0118850D01*
X0139277Y0114850D02*
X0147277Y0114850D01*
X0130727Y0119400D02*
X0138727Y0127400D01*
X0138727Y0119400D02*
X0130727Y0127400D01*
X0130727Y0123400D02*
X0138727Y0123400D01*
X0119477Y0121650D02*
X0127477Y0129650D01*
X0127477Y0121650D02*
X0119477Y0129650D01*
X0119477Y0125650D02*
X0127477Y0125650D01*
X0113067Y0123170D02*
X0121067Y0131170D01*
X0121067Y0123170D02*
X0113067Y0131170D01*
X0113067Y0127170D02*
X0121067Y0127170D01*
X0109517Y0120370D02*
X0117517Y0128370D01*
X0117517Y0120370D02*
X0109517Y0128370D01*
X0109517Y0124370D02*
X0117517Y0124370D01*
X0105527Y0109950D02*
X0113527Y0117950D01*
X0113527Y0109950D02*
X0105527Y0117950D01*
X0105527Y0113950D02*
X0113527Y0113950D01*
X0109517Y0131790D02*
X0117517Y0139790D01*
X0117517Y0131790D02*
X0109517Y0139790D01*
X0109517Y0135790D02*
X0117517Y0135790D01*
X0113177Y0135150D02*
X0121177Y0143150D01*
X0121177Y0135150D02*
X0113177Y0143150D01*
X0113177Y0139150D02*
X0121177Y0139150D01*
X0118577Y0140550D02*
X0126577Y0148550D01*
X0126577Y0140550D02*
X0118577Y0148550D01*
X0118577Y0144550D02*
X0126577Y0144550D01*
X0123527Y0149550D02*
X0131527Y0157550D01*
X0131527Y0149550D02*
X0123527Y0157550D01*
X0123527Y0153550D02*
X0131527Y0153550D01*
X0121277Y0094650D02*
X0129277Y0102650D01*
X0129277Y0094650D02*
X0121277Y0102650D01*
X0121277Y0098650D02*
X0129277Y0098650D01*
X0119477Y0090150D02*
X0127477Y0098150D01*
X0127477Y0090150D02*
X0119477Y0098150D01*
X0119477Y0094150D02*
X0127477Y0094150D01*
X0118577Y0086550D02*
X0126577Y0094550D01*
X0126577Y0086550D02*
X0118577Y0094550D01*
X0118577Y0090550D02*
X0126577Y0090550D01*
X0122627Y0080700D02*
X0130627Y0088700D01*
X0130627Y0080700D02*
X0122627Y0088700D01*
X0122627Y0084700D02*
X0130627Y0084700D01*
X0130277Y0087000D02*
X0138277Y0095000D01*
X0138277Y0087000D02*
X0130277Y0095000D01*
X0130277Y0091000D02*
X0138277Y0091000D01*
X0172577Y0307371D02*
X0180577Y0315371D01*
X0180577Y0307371D02*
X0172577Y0315371D01*
X0172577Y0311371D02*
X0180577Y0311371D01*
X0159527Y0274971D02*
X0167527Y0282971D01*
X0167527Y0274971D02*
X0159527Y0282971D01*
X0159527Y0278971D02*
X0167527Y0278971D01*
X0156377Y0263721D02*
X0164377Y0271721D01*
X0164377Y0263721D02*
X0156377Y0271721D01*
X0156377Y0267721D02*
X0164377Y0267721D01*
X0150527Y0252021D02*
X0158527Y0260021D01*
X0158527Y0252021D02*
X0150527Y0260021D01*
X0150527Y0256021D02*
X0158527Y0256021D01*
X0154577Y0244821D02*
X0162577Y0252821D01*
X0162577Y0244821D02*
X0154577Y0252821D01*
X0154577Y0248821D02*
X0162577Y0248821D01*
X0160877Y0240321D02*
X0168877Y0248321D01*
X0168877Y0240321D02*
X0160877Y0248321D01*
X0160877Y0244321D02*
X0168877Y0244321D01*
X0167177Y0242121D02*
X0175177Y0250121D01*
X0175177Y0242121D02*
X0167177Y0250121D01*
X0167177Y0246121D02*
X0175177Y0246121D01*
X0169427Y0248871D02*
X0177427Y0256871D01*
X0177427Y0248871D02*
X0169427Y0256871D01*
X0169427Y0252871D02*
X0177427Y0252871D01*
X0170777Y0264621D02*
X0178777Y0272621D01*
X0178777Y0264621D02*
X0170777Y0272621D01*
X0170777Y0268621D02*
X0178777Y0268621D01*
X0151877Y0297021D02*
X0159877Y0305021D01*
X0159877Y0297021D02*
X0151877Y0305021D01*
X0151877Y0301021D02*
X0159877Y0301021D01*
X0141407Y0291411D02*
X0149407Y0299411D01*
X0149407Y0291411D02*
X0141407Y0299411D01*
X0141407Y0295411D02*
X0149407Y0295411D01*
X0149177Y0263271D02*
X0157177Y0271271D01*
X0157177Y0263271D02*
X0149177Y0271271D01*
X0149177Y0267271D02*
X0157177Y0267271D01*
X0139277Y0270471D02*
X0147277Y0278471D01*
X0147277Y0270471D02*
X0139277Y0278471D01*
X0139277Y0274471D02*
X0147277Y0274471D01*
X0130727Y0279021D02*
X0138727Y0287021D01*
X0138727Y0279021D02*
X0130727Y0287021D01*
X0130727Y0283021D02*
X0138727Y0283021D01*
X0119477Y0281271D02*
X0127477Y0289271D01*
X0127477Y0281271D02*
X0119477Y0289271D01*
X0119477Y0285271D02*
X0127477Y0285271D01*
X0113067Y0282791D02*
X0121067Y0290791D01*
X0121067Y0282791D02*
X0113067Y0290791D01*
X0113067Y0286791D02*
X0121067Y0286791D01*
X0109517Y0279991D02*
X0117517Y0287991D01*
X0117517Y0279991D02*
X0109517Y0287991D01*
X0109517Y0283991D02*
X0117517Y0283991D01*
X0105527Y0269571D02*
X0113527Y0277571D01*
X0113527Y0269571D02*
X0105527Y0277571D01*
X0105527Y0273571D02*
X0113527Y0273571D01*
X0109517Y0291411D02*
X0117517Y0299411D01*
X0117517Y0291411D02*
X0109517Y0299411D01*
X0109517Y0295411D02*
X0117517Y0295411D01*
X0113177Y0294771D02*
X0121177Y0302771D01*
X0121177Y0294771D02*
X0113177Y0302771D01*
X0113177Y0298771D02*
X0121177Y0298771D01*
X0118577Y0300171D02*
X0126577Y0308171D01*
X0126577Y0300171D02*
X0118577Y0308171D01*
X0118577Y0304171D02*
X0126577Y0304171D01*
X0123527Y0309171D02*
X0131527Y0317171D01*
X0131527Y0309171D02*
X0123527Y0317171D01*
X0123527Y0313171D02*
X0131527Y0313171D01*
X0121277Y0254271D02*
X0129277Y0262271D01*
X0129277Y0254271D02*
X0121277Y0262271D01*
X0121277Y0258271D02*
X0129277Y0258271D01*
X0119477Y0249771D02*
X0127477Y0257771D01*
X0127477Y0249771D02*
X0119477Y0257771D01*
X0119477Y0253771D02*
X0127477Y0253771D01*
X0118577Y0246171D02*
X0126577Y0254171D01*
X0126577Y0246171D02*
X0118577Y0254171D01*
X0118577Y0250171D02*
X0126577Y0250171D01*
X0122627Y0240321D02*
X0130627Y0248321D01*
X0130627Y0240321D02*
X0122627Y0248321D01*
X0122627Y0244321D02*
X0130627Y0244321D01*
X0130277Y0246621D02*
X0138277Y0254621D01*
X0138277Y0246621D02*
X0130277Y0254621D01*
X0130277Y0250621D02*
X0138277Y0250621D01*
X0266254Y0147750D02*
X0274254Y0155750D01*
X0274254Y0147750D02*
X0266254Y0155750D01*
X0266254Y0151750D02*
X0274254Y0151750D01*
X0253204Y0115350D02*
X0261204Y0123350D01*
X0261204Y0115350D02*
X0253204Y0123350D01*
X0253204Y0119350D02*
X0261204Y0119350D01*
X0250054Y0104100D02*
X0258054Y0112100D01*
X0258054Y0104100D02*
X0250054Y0112100D01*
X0250054Y0108100D02*
X0258054Y0108100D01*
X0244204Y0092400D02*
X0252204Y0100400D01*
X0252204Y0092400D02*
X0244204Y0100400D01*
X0244204Y0096400D02*
X0252204Y0096400D01*
X0248254Y0085200D02*
X0256254Y0093200D01*
X0256254Y0085200D02*
X0248254Y0093200D01*
X0248254Y0089200D02*
X0256254Y0089200D01*
X0254554Y0080700D02*
X0262554Y0088700D01*
X0262554Y0080700D02*
X0254554Y0088700D01*
X0254554Y0084700D02*
X0262554Y0084700D01*
X0260854Y0082500D02*
X0268854Y0090500D01*
X0268854Y0082500D02*
X0260854Y0090500D01*
X0260854Y0086500D02*
X0268854Y0086500D01*
X0263104Y0089250D02*
X0271104Y0097250D01*
X0271104Y0089250D02*
X0263104Y0097250D01*
X0263104Y0093250D02*
X0271104Y0093250D01*
X0264454Y0105000D02*
X0272454Y0113000D01*
X0272454Y0105000D02*
X0264454Y0113000D01*
X0264454Y0109000D02*
X0272454Y0109000D01*
X0245554Y0137400D02*
X0253554Y0145400D01*
X0253554Y0137400D02*
X0245554Y0145400D01*
X0245554Y0141400D02*
X0253554Y0141400D01*
X0235084Y0131790D02*
X0243084Y0139790D01*
X0243084Y0131790D02*
X0235084Y0139790D01*
X0235084Y0135790D02*
X0243084Y0135790D01*
X0242854Y0103650D02*
X0250854Y0111650D01*
X0250854Y0103650D02*
X0242854Y0111650D01*
X0242854Y0107650D02*
X0250854Y0107650D01*
X0232954Y0110850D02*
X0240954Y0118850D01*
X0240954Y0110850D02*
X0232954Y0118850D01*
X0232954Y0114850D02*
X0240954Y0114850D01*
X0224404Y0119400D02*
X0232404Y0127400D01*
X0232404Y0119400D02*
X0224404Y0127400D01*
X0224404Y0123400D02*
X0232404Y0123400D01*
X0213154Y0121650D02*
X0221154Y0129650D01*
X0221154Y0121650D02*
X0213154Y0129650D01*
X0213154Y0125650D02*
X0221154Y0125650D01*
X0206744Y0123170D02*
X0214744Y0131170D01*
X0214744Y0123170D02*
X0206744Y0131170D01*
X0206744Y0127170D02*
X0214744Y0127170D01*
X0203194Y0120370D02*
X0211194Y0128370D01*
X0211194Y0120370D02*
X0203194Y0128370D01*
X0203194Y0124370D02*
X0211194Y0124370D01*
X0199204Y0109950D02*
X0207204Y0117950D01*
X0207204Y0109950D02*
X0199204Y0117950D01*
X0199204Y0113950D02*
X0207204Y0113950D01*
X0203194Y0131790D02*
X0211194Y0139790D01*
X0211194Y0131790D02*
X0203194Y0139790D01*
X0203194Y0135790D02*
X0211194Y0135790D01*
X0206854Y0135150D02*
X0214854Y0143150D01*
X0214854Y0135150D02*
X0206854Y0143150D01*
X0206854Y0139150D02*
X0214854Y0139150D01*
X0212254Y0140550D02*
X0220254Y0148550D01*
X0220254Y0140550D02*
X0212254Y0148550D01*
X0212254Y0144550D02*
X0220254Y0144550D01*
X0217204Y0149550D02*
X0225204Y0157550D01*
X0225204Y0149550D02*
X0217204Y0157550D01*
X0217204Y0153550D02*
X0225204Y0153550D01*
X0214954Y0094650D02*
X0222954Y0102650D01*
X0222954Y0094650D02*
X0214954Y0102650D01*
X0214954Y0098650D02*
X0222954Y0098650D01*
X0213154Y0090150D02*
X0221154Y0098150D01*
X0221154Y0090150D02*
X0213154Y0098150D01*
X0213154Y0094150D02*
X0221154Y0094150D01*
X0212254Y0086550D02*
X0220254Y0094550D01*
X0220254Y0086550D02*
X0212254Y0094550D01*
X0212254Y0090550D02*
X0220254Y0090550D01*
X0216304Y0080700D02*
X0224304Y0088700D01*
X0224304Y0080700D02*
X0216304Y0088700D01*
X0216304Y0084700D02*
X0224304Y0084700D01*
X0223954Y0087000D02*
X0231954Y0095000D01*
X0231954Y0087000D02*
X0223954Y0095000D01*
X0223954Y0091000D02*
X0231954Y0091000D01*
X0266254Y0307371D02*
X0274254Y0315371D01*
X0274254Y0307371D02*
X0266254Y0315371D01*
X0266254Y0311371D02*
X0274254Y0311371D01*
X0253204Y0274971D02*
X0261204Y0282971D01*
X0261204Y0274971D02*
X0253204Y0282971D01*
X0253204Y0278971D02*
X0261204Y0278971D01*
X0250054Y0263721D02*
X0258054Y0271721D01*
X0258054Y0263721D02*
X0250054Y0271721D01*
X0250054Y0267721D02*
X0258054Y0267721D01*
X0244204Y0252021D02*
X0252204Y0260021D01*
X0252204Y0252021D02*
X0244204Y0260021D01*
X0244204Y0256021D02*
X0252204Y0256021D01*
X0248254Y0244821D02*
X0256254Y0252821D01*
X0256254Y0244821D02*
X0248254Y0252821D01*
X0248254Y0248821D02*
X0256254Y0248821D01*
X0254554Y0240321D02*
X0262554Y0248321D01*
X0262554Y0240321D02*
X0254554Y0248321D01*
X0254554Y0244321D02*
X0262554Y0244321D01*
X0260854Y0242121D02*
X0268854Y0250121D01*
X0268854Y0242121D02*
X0260854Y0250121D01*
X0260854Y0246121D02*
X0268854Y0246121D01*
X0263104Y0248871D02*
X0271104Y0256871D01*
X0271104Y0248871D02*
X0263104Y0256871D01*
X0263104Y0252871D02*
X0271104Y0252871D01*
X0264454Y0264621D02*
X0272454Y0272621D01*
X0272454Y0264621D02*
X0264454Y0272621D01*
X0264454Y0268621D02*
X0272454Y0268621D01*
X0245554Y0297021D02*
X0253554Y0305021D01*
X0253554Y0297021D02*
X0245554Y0305021D01*
X0245554Y0301021D02*
X0253554Y0301021D01*
X0235084Y0291411D02*
X0243084Y0299411D01*
X0243084Y0291411D02*
X0235084Y0299411D01*
X0235084Y0295411D02*
X0243084Y0295411D01*
X0242854Y0263271D02*
X0250854Y0271271D01*
X0250854Y0263271D02*
X0242854Y0271271D01*
X0242854Y0267271D02*
X0250854Y0267271D01*
X0232954Y0270471D02*
X0240954Y0278471D01*
X0240954Y0270471D02*
X0232954Y0278471D01*
X0232954Y0274471D02*
X0240954Y0274471D01*
X0224404Y0279021D02*
X0232404Y0287021D01*
X0232404Y0279021D02*
X0224404Y0287021D01*
X0224404Y0283021D02*
X0232404Y0283021D01*
X0213154Y0281271D02*
X0221154Y0289271D01*
X0221154Y0281271D02*
X0213154Y0289271D01*
X0213154Y0285271D02*
X0221154Y0285271D01*
X0206744Y0282791D02*
X0214744Y0290791D01*
X0214744Y0282791D02*
X0206744Y0290791D01*
X0206744Y0286791D02*
X0214744Y0286791D01*
X0203194Y0279991D02*
X0211194Y0287991D01*
X0211194Y0279991D02*
X0203194Y0287991D01*
X0203194Y0283991D02*
X0211194Y0283991D01*
X0199204Y0269571D02*
X0207204Y0277571D01*
X0207204Y0269571D02*
X0199204Y0277571D01*
X0199204Y0273571D02*
X0207204Y0273571D01*
X0203194Y0291411D02*
X0211194Y0299411D01*
X0211194Y0291411D02*
X0203194Y0299411D01*
X0203194Y0295411D02*
X0211194Y0295411D01*
X0206854Y0294771D02*
X0214854Y0302771D01*
X0214854Y0294771D02*
X0206854Y0302771D01*
X0206854Y0298771D02*
X0214854Y0298771D01*
X0212254Y0300171D02*
X0220254Y0308171D01*
X0220254Y0300171D02*
X0212254Y0308171D01*
X0212254Y0304171D02*
X0220254Y0304171D01*
X0217204Y0309171D02*
X0225204Y0317171D01*
X0225204Y0309171D02*
X0217204Y0317171D01*
X0217204Y0313171D02*
X0225204Y0313171D01*
X0214954Y0254271D02*
X0222954Y0262271D01*
X0222954Y0254271D02*
X0214954Y0262271D01*
X0214954Y0258271D02*
X0222954Y0258271D01*
X0213154Y0249771D02*
X0221154Y0257771D01*
X0221154Y0249771D02*
X0213154Y0257771D01*
X0213154Y0253771D02*
X0221154Y0253771D01*
X0212254Y0246171D02*
X0220254Y0254171D01*
X0220254Y0246171D02*
X0212254Y0254171D01*
X0212254Y0250171D02*
X0220254Y0250171D01*
X0216304Y0240321D02*
X0224304Y0248321D01*
X0224304Y0240321D02*
X0216304Y0248321D01*
X0216304Y0244321D02*
X0224304Y0244321D01*
X0223954Y0246621D02*
X0231954Y0254621D01*
X0231954Y0246621D02*
X0223954Y0254621D01*
X0223954Y0250621D02*
X0231954Y0250621D01*
X0359931Y0147750D02*
X0367931Y0155750D01*
X0367931Y0147750D02*
X0359931Y0155750D01*
X0359931Y0151750D02*
X0367931Y0151750D01*
X0346881Y0115350D02*
X0354881Y0123350D01*
X0354881Y0115350D02*
X0346881Y0123350D01*
X0346881Y0119350D02*
X0354881Y0119350D01*
X0343731Y0104100D02*
X0351731Y0112100D01*
X0351731Y0104100D02*
X0343731Y0112100D01*
X0343731Y0108100D02*
X0351731Y0108100D01*
X0337881Y0092400D02*
X0345881Y0100400D01*
X0345881Y0092400D02*
X0337881Y0100400D01*
X0337881Y0096400D02*
X0345881Y0096400D01*
X0341931Y0085200D02*
X0349931Y0093200D01*
X0349931Y0085200D02*
X0341931Y0093200D01*
X0341931Y0089200D02*
X0349931Y0089200D01*
X0348231Y0080700D02*
X0356231Y0088700D01*
X0356231Y0080700D02*
X0348231Y0088700D01*
X0348231Y0084700D02*
X0356231Y0084700D01*
X0354531Y0082500D02*
X0362531Y0090500D01*
X0362531Y0082500D02*
X0354531Y0090500D01*
X0354531Y0086500D02*
X0362531Y0086500D01*
X0356781Y0089250D02*
X0364781Y0097250D01*
X0364781Y0089250D02*
X0356781Y0097250D01*
X0356781Y0093250D02*
X0364781Y0093250D01*
X0358131Y0105000D02*
X0366131Y0113000D01*
X0366131Y0105000D02*
X0358131Y0113000D01*
X0358131Y0109000D02*
X0366131Y0109000D01*
X0339231Y0137400D02*
X0347231Y0145400D01*
X0347231Y0137400D02*
X0339231Y0145400D01*
X0339231Y0141400D02*
X0347231Y0141400D01*
X0328761Y0131790D02*
X0336761Y0139790D01*
X0336761Y0131790D02*
X0328761Y0139790D01*
X0328761Y0135790D02*
X0336761Y0135790D01*
X0336531Y0103650D02*
X0344531Y0111650D01*
X0344531Y0103650D02*
X0336531Y0111650D01*
X0336531Y0107650D02*
X0344531Y0107650D01*
X0326631Y0110850D02*
X0334631Y0118850D01*
X0334631Y0110850D02*
X0326631Y0118850D01*
X0326631Y0114850D02*
X0334631Y0114850D01*
X0318081Y0119400D02*
X0326081Y0127400D01*
X0326081Y0119400D02*
X0318081Y0127400D01*
X0318081Y0123400D02*
X0326081Y0123400D01*
X0306831Y0121650D02*
X0314831Y0129650D01*
X0314831Y0121650D02*
X0306831Y0129650D01*
X0306831Y0125650D02*
X0314831Y0125650D01*
X0300421Y0123170D02*
X0308421Y0131170D01*
X0308421Y0123170D02*
X0300421Y0131170D01*
X0300421Y0127170D02*
X0308421Y0127170D01*
X0296871Y0120370D02*
X0304871Y0128370D01*
X0304871Y0120370D02*
X0296871Y0128370D01*
X0296871Y0124370D02*
X0304871Y0124370D01*
X0292881Y0109950D02*
X0300881Y0117950D01*
X0300881Y0109950D02*
X0292881Y0117950D01*
X0292881Y0113950D02*
X0300881Y0113950D01*
X0296871Y0131790D02*
X0304871Y0139790D01*
X0304871Y0131790D02*
X0296871Y0139790D01*
X0296871Y0135790D02*
X0304871Y0135790D01*
X0300531Y0135150D02*
X0308531Y0143150D01*
X0308531Y0135150D02*
X0300531Y0143150D01*
X0300531Y0139150D02*
X0308531Y0139150D01*
X0305931Y0140550D02*
X0313931Y0148550D01*
X0313931Y0140550D02*
X0305931Y0148550D01*
X0305931Y0144550D02*
X0313931Y0144550D01*
X0310881Y0149550D02*
X0318881Y0157550D01*
X0318881Y0149550D02*
X0310881Y0157550D01*
X0310881Y0153550D02*
X0318881Y0153550D01*
X0308631Y0094650D02*
X0316631Y0102650D01*
X0316631Y0094650D02*
X0308631Y0102650D01*
X0308631Y0098650D02*
X0316631Y0098650D01*
X0306831Y0090150D02*
X0314831Y0098150D01*
X0314831Y0090150D02*
X0306831Y0098150D01*
X0306831Y0094150D02*
X0314831Y0094150D01*
X0305931Y0086550D02*
X0313931Y0094550D01*
X0313931Y0086550D02*
X0305931Y0094550D01*
X0305931Y0090550D02*
X0313931Y0090550D01*
X0309981Y0080700D02*
X0317981Y0088700D01*
X0317981Y0080700D02*
X0309981Y0088700D01*
X0309981Y0084700D02*
X0317981Y0084700D01*
X0317631Y0087000D02*
X0325631Y0095000D01*
X0325631Y0087000D02*
X0317631Y0095000D01*
X0317631Y0091000D02*
X0325631Y0091000D01*
X0359931Y0307371D02*
X0367931Y0315371D01*
X0367931Y0307371D02*
X0359931Y0315371D01*
X0359931Y0311371D02*
X0367931Y0311371D01*
X0346881Y0274971D02*
X0354881Y0282971D01*
X0354881Y0274971D02*
X0346881Y0282971D01*
X0346881Y0278971D02*
X0354881Y0278971D01*
X0343731Y0263721D02*
X0351731Y0271721D01*
X0351731Y0263721D02*
X0343731Y0271721D01*
X0343731Y0267721D02*
X0351731Y0267721D01*
X0337881Y0252021D02*
X0345881Y0260021D01*
X0345881Y0252021D02*
X0337881Y0260021D01*
X0337881Y0256021D02*
X0345881Y0256021D01*
X0341931Y0244821D02*
X0349931Y0252821D01*
X0349931Y0244821D02*
X0341931Y0252821D01*
X0341931Y0248821D02*
X0349931Y0248821D01*
X0348231Y0240321D02*
X0356231Y0248321D01*
X0356231Y0240321D02*
X0348231Y0248321D01*
X0348231Y0244321D02*
X0356231Y0244321D01*
X0354531Y0242121D02*
X0362531Y0250121D01*
X0362531Y0242121D02*
X0354531Y0250121D01*
X0354531Y0246121D02*
X0362531Y0246121D01*
X0356781Y0248871D02*
X0364781Y0256871D01*
X0364781Y0248871D02*
X0356781Y0256871D01*
X0356781Y0252871D02*
X0364781Y0252871D01*
X0358131Y0264621D02*
X0366131Y0272621D01*
X0366131Y0264621D02*
X0358131Y0272621D01*
X0358131Y0268621D02*
X0366131Y0268621D01*
X0339231Y0297021D02*
X0347231Y0305021D01*
X0347231Y0297021D02*
X0339231Y0305021D01*
X0339231Y0301021D02*
X0347231Y0301021D01*
X0328761Y0291411D02*
X0336761Y0299411D01*
X0336761Y0291411D02*
X0328761Y0299411D01*
X0328761Y0295411D02*
X0336761Y0295411D01*
X0336531Y0263271D02*
X0344531Y0271271D01*
X0344531Y0263271D02*
X0336531Y0271271D01*
X0336531Y0267271D02*
X0344531Y0267271D01*
X0326631Y0270471D02*
X0334631Y0278471D01*
X0334631Y0270471D02*
X0326631Y0278471D01*
X0326631Y0274471D02*
X0334631Y0274471D01*
X0318081Y0279021D02*
X0326081Y0287021D01*
X0326081Y0279021D02*
X0318081Y0287021D01*
X0318081Y0283021D02*
X0326081Y0283021D01*
X0306831Y0281271D02*
X0314831Y0289271D01*
X0314831Y0281271D02*
X0306831Y0289271D01*
X0306831Y0285271D02*
X0314831Y0285271D01*
X0300421Y0282791D02*
X0308421Y0290791D01*
X0308421Y0282791D02*
X0300421Y0290791D01*
X0300421Y0286791D02*
X0308421Y0286791D01*
X0296871Y0279991D02*
X0304871Y0287991D01*
X0304871Y0279991D02*
X0296871Y0287991D01*
X0296871Y0283991D02*
X0304871Y0283991D01*
X0292881Y0269571D02*
X0300881Y0277571D01*
X0300881Y0269571D02*
X0292881Y0277571D01*
X0292881Y0273571D02*
X0300881Y0273571D01*
X0296871Y0291411D02*
X0304871Y0299411D01*
X0304871Y0291411D02*
X0296871Y0299411D01*
X0296871Y0295411D02*
X0304871Y0295411D01*
X0300531Y0294771D02*
X0308531Y0302771D01*
X0308531Y0294771D02*
X0300531Y0302771D01*
X0300531Y0298771D02*
X0308531Y0298771D01*
X0305931Y0300171D02*
X0313931Y0308171D01*
X0313931Y0300171D02*
X0305931Y0308171D01*
X0305931Y0304171D02*
X0313931Y0304171D01*
X0310881Y0309171D02*
X0318881Y0317171D01*
X0318881Y0309171D02*
X0310881Y0317171D01*
X0310881Y0313171D02*
X0318881Y0313171D01*
X0308631Y0254271D02*
X0316631Y0262271D01*
X0316631Y0254271D02*
X0308631Y0262271D01*
X0308631Y0258271D02*
X0316631Y0258271D01*
X0306831Y0249771D02*
X0314831Y0257771D01*
X0314831Y0249771D02*
X0306831Y0257771D01*
X0306831Y0253771D02*
X0314831Y0253771D01*
X0305931Y0246171D02*
X0313931Y0254171D01*
X0313931Y0246171D02*
X0305931Y0254171D01*
X0305931Y0250171D02*
X0313931Y0250171D01*
X0309981Y0240321D02*
X0317981Y0248321D01*
X0317981Y0240321D02*
X0309981Y0248321D01*
X0309981Y0244321D02*
X0317981Y0244321D01*
X0317631Y0246621D02*
X0325631Y0254621D01*
X0325631Y0246621D02*
X0317631Y0254621D01*
X0317631Y0250621D02*
X0325631Y0250621D01*
X0047800Y0152720D02*
X0043800Y0152720D01*
X0047800Y0152720D02*
X0051800Y0156720D01*
X0051800Y0148720D01*
X0047800Y0152720D01*
X0062760Y0152720D02*
X0058760Y0152720D01*
X0062760Y0152720D02*
X0066760Y0156720D01*
X0066760Y0148720D01*
X0062760Y0152720D01*
X0026520Y0085070D02*
X0022520Y0085070D01*
X0026520Y0085070D02*
X0030520Y0089070D01*
X0030520Y0081070D01*
X0026520Y0085070D01*
X0026520Y0077200D02*
X0022520Y0077200D01*
X0026520Y0077200D02*
X0030520Y0081200D01*
X0030520Y0073200D01*
X0026520Y0077200D01*
X0026520Y0069320D02*
X0022520Y0069320D01*
X0026520Y0069320D02*
X0030520Y0073320D01*
X0030520Y0065320D01*
X0026520Y0069320D01*
X0026520Y0061450D02*
X0022520Y0061450D01*
X0026520Y0061450D02*
X0030520Y0065450D01*
X0030520Y0057450D01*
X0026520Y0061450D01*
X0026520Y0053570D02*
X0022520Y0053570D01*
X0026520Y0053570D02*
X0030520Y0057570D01*
X0030520Y0049570D01*
X0026520Y0053570D01*
X0026520Y0045700D02*
X0022520Y0045700D01*
X0026520Y0045700D02*
X0030520Y0049700D01*
X0030520Y0041700D01*
X0026520Y0045700D01*
X0026520Y0037830D02*
X0022520Y0037830D01*
X0026520Y0037830D02*
X0030520Y0041830D01*
X0030520Y0033830D01*
X0026520Y0037830D01*
X0026520Y0029950D02*
X0022520Y0029950D01*
X0026520Y0029950D02*
X0030520Y0033950D01*
X0030520Y0025950D01*
X0026520Y0029950D01*
X0083600Y0029950D02*
X0079600Y0029950D01*
X0083600Y0029950D02*
X0087600Y0033950D01*
X0087600Y0025950D01*
X0083600Y0029950D01*
X0083600Y0037830D02*
X0079600Y0037830D01*
X0083600Y0037830D02*
X0087600Y0041830D01*
X0087600Y0033830D01*
X0083600Y0037830D01*
X0083600Y0045700D02*
X0079600Y0045700D01*
X0083600Y0045700D02*
X0087600Y0049700D01*
X0087600Y0041700D01*
X0083600Y0045700D01*
X0083600Y0053570D02*
X0079600Y0053570D01*
X0083600Y0053570D02*
X0087600Y0057570D01*
X0087600Y0049570D01*
X0083600Y0053570D01*
X0083600Y0061450D02*
X0079600Y0061450D01*
X0083600Y0061450D02*
X0087600Y0065450D01*
X0087600Y0057450D01*
X0083600Y0061450D01*
X0083600Y0069320D02*
X0079600Y0069320D01*
X0083600Y0069320D02*
X0087600Y0073320D01*
X0087600Y0065320D01*
X0083600Y0069320D01*
X0083600Y0077200D02*
X0079600Y0077200D01*
X0083600Y0077200D02*
X0087600Y0081200D01*
X0087600Y0073200D01*
X0083600Y0077200D01*
X0083600Y0085070D02*
X0079600Y0085070D01*
X0083600Y0085070D02*
X0087600Y0089070D01*
X0087600Y0081070D01*
X0083600Y0085070D01*
X0047800Y0312341D02*
X0043800Y0312341D01*
X0047800Y0312341D02*
X0051800Y0316341D01*
X0051800Y0308341D01*
X0047800Y0312341D01*
X0062760Y0312341D02*
X0058760Y0312341D01*
X0062760Y0312341D02*
X0066760Y0316341D01*
X0066760Y0308341D01*
X0062760Y0312341D01*
X0026520Y0244691D02*
X0022520Y0244691D01*
X0026520Y0244691D02*
X0030520Y0248691D01*
X0030520Y0240691D01*
X0026520Y0244691D01*
X0026520Y0236821D02*
X0022520Y0236821D01*
X0026520Y0236821D02*
X0030520Y0240821D01*
X0030520Y0232821D01*
X0026520Y0236821D01*
X0026520Y0228941D02*
X0022520Y0228941D01*
X0026520Y0228941D02*
X0030520Y0232941D01*
X0030520Y0224941D01*
X0026520Y0228941D01*
X0026520Y0221071D02*
X0022520Y0221071D01*
X0026520Y0221071D02*
X0030520Y0225071D01*
X0030520Y0217071D01*
X0026520Y0221071D01*
X0026520Y0213191D02*
X0022520Y0213191D01*
X0026520Y0213191D02*
X0030520Y0217191D01*
X0030520Y0209191D01*
X0026520Y0213191D01*
X0026520Y0205321D02*
X0022520Y0205321D01*
X0026520Y0205321D02*
X0030520Y0209321D01*
X0030520Y0201321D01*
X0026520Y0205321D01*
X0026520Y0197451D02*
X0022520Y0197451D01*
X0026520Y0197451D02*
X0030520Y0201451D01*
X0030520Y0193451D01*
X0026520Y0197451D01*
X0026520Y0189571D02*
X0022520Y0189571D01*
X0026520Y0189571D02*
X0030520Y0193571D01*
X0030520Y0185571D01*
X0026520Y0189571D01*
X0083600Y0189571D02*
X0079600Y0189571D01*
X0083600Y0189571D02*
X0087600Y0193571D01*
X0087600Y0185571D01*
X0083600Y0189571D01*
X0083600Y0197451D02*
X0079600Y0197451D01*
X0083600Y0197451D02*
X0087600Y0201451D01*
X0087600Y0193451D01*
X0083600Y0197451D01*
X0083600Y0205321D02*
X0079600Y0205321D01*
X0083600Y0205321D02*
X0087600Y0209321D01*
X0087600Y0201321D01*
X0083600Y0205321D01*
X0083600Y0213191D02*
X0079600Y0213191D01*
X0083600Y0213191D02*
X0087600Y0217191D01*
X0087600Y0209191D01*
X0083600Y0213191D01*
X0083600Y0221071D02*
X0079600Y0221071D01*
X0083600Y0221071D02*
X0087600Y0225071D01*
X0087600Y0217071D01*
X0083600Y0221071D01*
X0083600Y0228941D02*
X0079600Y0228941D01*
X0083600Y0228941D02*
X0087600Y0232941D01*
X0087600Y0224941D01*
X0083600Y0228941D01*
X0083600Y0236821D02*
X0079600Y0236821D01*
X0083600Y0236821D02*
X0087600Y0240821D01*
X0087600Y0232821D01*
X0083600Y0236821D01*
X0083600Y0244691D02*
X0079600Y0244691D01*
X0083600Y0244691D02*
X0087600Y0248691D01*
X0087600Y0240691D01*
X0083600Y0244691D01*
X0141477Y0152720D02*
X0137477Y0152720D01*
X0141477Y0152720D02*
X0145477Y0156720D01*
X0145477Y0148720D01*
X0141477Y0152720D01*
X0156437Y0152720D02*
X0152437Y0152720D01*
X0156437Y0152720D02*
X0160437Y0156720D01*
X0160437Y0148720D01*
X0156437Y0152720D01*
X0120197Y0085070D02*
X0116197Y0085070D01*
X0120197Y0085070D02*
X0124197Y0089070D01*
X0124197Y0081070D01*
X0120197Y0085070D01*
X0120197Y0077200D02*
X0116197Y0077200D01*
X0120197Y0077200D02*
X0124197Y0081200D01*
X0124197Y0073200D01*
X0120197Y0077200D01*
X0120197Y0069320D02*
X0116197Y0069320D01*
X0120197Y0069320D02*
X0124197Y0073320D01*
X0124197Y0065320D01*
X0120197Y0069320D01*
X0120197Y0061450D02*
X0116197Y0061450D01*
X0120197Y0061450D02*
X0124197Y0065450D01*
X0124197Y0057450D01*
X0120197Y0061450D01*
X0120197Y0053570D02*
X0116197Y0053570D01*
X0120197Y0053570D02*
X0124197Y0057570D01*
X0124197Y0049570D01*
X0120197Y0053570D01*
X0120197Y0045700D02*
X0116197Y0045700D01*
X0120197Y0045700D02*
X0124197Y0049700D01*
X0124197Y0041700D01*
X0120197Y0045700D01*
X0120197Y0037830D02*
X0116197Y0037830D01*
X0120197Y0037830D02*
X0124197Y0041830D01*
X0124197Y0033830D01*
X0120197Y0037830D01*
X0120197Y0029950D02*
X0116197Y0029950D01*
X0120197Y0029950D02*
X0124197Y0033950D01*
X0124197Y0025950D01*
X0120197Y0029950D01*
X0177277Y0029950D02*
X0173277Y0029950D01*
X0177277Y0029950D02*
X0181277Y0033950D01*
X0181277Y0025950D01*
X0177277Y0029950D01*
X0177277Y0037830D02*
X0173277Y0037830D01*
X0177277Y0037830D02*
X0181277Y0041830D01*
X0181277Y0033830D01*
X0177277Y0037830D01*
X0177277Y0045700D02*
X0173277Y0045700D01*
X0177277Y0045700D02*
X0181277Y0049700D01*
X0181277Y0041700D01*
X0177277Y0045700D01*
X0177277Y0053570D02*
X0173277Y0053570D01*
X0177277Y0053570D02*
X0181277Y0057570D01*
X0181277Y0049570D01*
X0177277Y0053570D01*
X0177277Y0061450D02*
X0173277Y0061450D01*
X0177277Y0061450D02*
X0181277Y0065450D01*
X0181277Y0057450D01*
X0177277Y0061450D01*
X0177277Y0069320D02*
X0173277Y0069320D01*
X0177277Y0069320D02*
X0181277Y0073320D01*
X0181277Y0065320D01*
X0177277Y0069320D01*
X0177277Y0077200D02*
X0173277Y0077200D01*
X0177277Y0077200D02*
X0181277Y0081200D01*
X0181277Y0073200D01*
X0177277Y0077200D01*
X0177277Y0085070D02*
X0173277Y0085070D01*
X0177277Y0085070D02*
X0181277Y0089070D01*
X0181277Y0081070D01*
X0177277Y0085070D01*
X0141477Y0312341D02*
X0137477Y0312341D01*
X0141477Y0312341D02*
X0145477Y0316341D01*
X0145477Y0308341D01*
X0141477Y0312341D01*
X0156437Y0312341D02*
X0152437Y0312341D01*
X0156437Y0312341D02*
X0160437Y0316341D01*
X0160437Y0308341D01*
X0156437Y0312341D01*
X0120197Y0244691D02*
X0116197Y0244691D01*
X0120197Y0244691D02*
X0124197Y0248691D01*
X0124197Y0240691D01*
X0120197Y0244691D01*
X0120197Y0236821D02*
X0116197Y0236821D01*
X0120197Y0236821D02*
X0124197Y0240821D01*
X0124197Y0232821D01*
X0120197Y0236821D01*
X0120197Y0228941D02*
X0116197Y0228941D01*
X0120197Y0228941D02*
X0124197Y0232941D01*
X0124197Y0224941D01*
X0120197Y0228941D01*
X0120197Y0221071D02*
X0116197Y0221071D01*
X0120197Y0221071D02*
X0124197Y0225071D01*
X0124197Y0217071D01*
X0120197Y0221071D01*
X0120197Y0213191D02*
X0116197Y0213191D01*
X0120197Y0213191D02*
X0124197Y0217191D01*
X0124197Y0209191D01*
X0120197Y0213191D01*
X0120197Y0205321D02*
X0116197Y0205321D01*
X0120197Y0205321D02*
X0124197Y0209321D01*
X0124197Y0201321D01*
X0120197Y0205321D01*
X0120197Y0197451D02*
X0116197Y0197451D01*
X0120197Y0197451D02*
X0124197Y0201451D01*
X0124197Y0193451D01*
X0120197Y0197451D01*
X0120197Y0189571D02*
X0116197Y0189571D01*
X0120197Y0189571D02*
X0124197Y0193571D01*
X0124197Y0185571D01*
X0120197Y0189571D01*
X0177277Y0189571D02*
X0173277Y0189571D01*
X0177277Y0189571D02*
X0181277Y0193571D01*
X0181277Y0185571D01*
X0177277Y0189571D01*
X0177277Y0197451D02*
X0173277Y0197451D01*
X0177277Y0197451D02*
X0181277Y0201451D01*
X0181277Y0193451D01*
X0177277Y0197451D01*
X0177277Y0205321D02*
X0173277Y0205321D01*
X0177277Y0205321D02*
X0181277Y0209321D01*
X0181277Y0201321D01*
X0177277Y0205321D01*
X0177277Y0213191D02*
X0173277Y0213191D01*
X0177277Y0213191D02*
X0181277Y0217191D01*
X0181277Y0209191D01*
X0177277Y0213191D01*
X0177277Y0221071D02*
X0173277Y0221071D01*
X0177277Y0221071D02*
X0181277Y0225071D01*
X0181277Y0217071D01*
X0177277Y0221071D01*
X0177277Y0228941D02*
X0173277Y0228941D01*
X0177277Y0228941D02*
X0181277Y0232941D01*
X0181277Y0224941D01*
X0177277Y0228941D01*
X0177277Y0236821D02*
X0173277Y0236821D01*
X0177277Y0236821D02*
X0181277Y0240821D01*
X0181277Y0232821D01*
X0177277Y0236821D01*
X0177277Y0244691D02*
X0173277Y0244691D01*
X0177277Y0244691D02*
X0181277Y0248691D01*
X0181277Y0240691D01*
X0177277Y0244691D01*
X0235154Y0152720D02*
X0231154Y0152720D01*
X0235154Y0152720D02*
X0239154Y0156720D01*
X0239154Y0148720D01*
X0235154Y0152720D01*
X0250114Y0152720D02*
X0246114Y0152720D01*
X0250114Y0152720D02*
X0254114Y0156720D01*
X0254114Y0148720D01*
X0250114Y0152720D01*
X0213874Y0085070D02*
X0209874Y0085070D01*
X0213874Y0085070D02*
X0217874Y0089070D01*
X0217874Y0081070D01*
X0213874Y0085070D01*
X0213874Y0077200D02*
X0209874Y0077200D01*
X0213874Y0077200D02*
X0217874Y0081200D01*
X0217874Y0073200D01*
X0213874Y0077200D01*
X0213874Y0069320D02*
X0209874Y0069320D01*
X0213874Y0069320D02*
X0217874Y0073320D01*
X0217874Y0065320D01*
X0213874Y0069320D01*
X0213874Y0061450D02*
X0209874Y0061450D01*
X0213874Y0061450D02*
X0217874Y0065450D01*
X0217874Y0057450D01*
X0213874Y0061450D01*
X0213874Y0053570D02*
X0209874Y0053570D01*
X0213874Y0053570D02*
X0217874Y0057570D01*
X0217874Y0049570D01*
X0213874Y0053570D01*
X0213874Y0045700D02*
X0209874Y0045700D01*
X0213874Y0045700D02*
X0217874Y0049700D01*
X0217874Y0041700D01*
X0213874Y0045700D01*
X0213874Y0037830D02*
X0209874Y0037830D01*
X0213874Y0037830D02*
X0217874Y0041830D01*
X0217874Y0033830D01*
X0213874Y0037830D01*
X0213874Y0029950D02*
X0209874Y0029950D01*
X0213874Y0029950D02*
X0217874Y0033950D01*
X0217874Y0025950D01*
X0213874Y0029950D01*
X0270954Y0029950D02*
X0266954Y0029950D01*
X0270954Y0029950D02*
X0274954Y0033950D01*
X0274954Y0025950D01*
X0270954Y0029950D01*
X0270954Y0037830D02*
X0266954Y0037830D01*
X0270954Y0037830D02*
X0274954Y0041830D01*
X0274954Y0033830D01*
X0270954Y0037830D01*
X0270954Y0045700D02*
X0266954Y0045700D01*
X0270954Y0045700D02*
X0274954Y0049700D01*
X0274954Y0041700D01*
X0270954Y0045700D01*
X0270954Y0053570D02*
X0266954Y0053570D01*
X0270954Y0053570D02*
X0274954Y0057570D01*
X0274954Y0049570D01*
X0270954Y0053570D01*
X0270954Y0061450D02*
X0266954Y0061450D01*
X0270954Y0061450D02*
X0274954Y0065450D01*
X0274954Y0057450D01*
X0270954Y0061450D01*
X0270954Y0069320D02*
X0266954Y0069320D01*
X0270954Y0069320D02*
X0274954Y0073320D01*
X0274954Y0065320D01*
X0270954Y0069320D01*
X0270954Y0077200D02*
X0266954Y0077200D01*
X0270954Y0077200D02*
X0274954Y0081200D01*
X0274954Y0073200D01*
X0270954Y0077200D01*
X0270954Y0085070D02*
X0266954Y0085070D01*
X0270954Y0085070D02*
X0274954Y0089070D01*
X0274954Y0081070D01*
X0270954Y0085070D01*
X0235154Y0312341D02*
X0231154Y0312341D01*
X0235154Y0312341D02*
X0239154Y0316341D01*
X0239154Y0308341D01*
X0235154Y0312341D01*
X0250114Y0312341D02*
X0246114Y0312341D01*
X0250114Y0312341D02*
X0254114Y0316341D01*
X0254114Y0308341D01*
X0250114Y0312341D01*
X0213874Y0244691D02*
X0209874Y0244691D01*
X0213874Y0244691D02*
X0217874Y0248691D01*
X0217874Y0240691D01*
X0213874Y0244691D01*
X0213874Y0236821D02*
X0209874Y0236821D01*
X0213874Y0236821D02*
X0217874Y0240821D01*
X0217874Y0232821D01*
X0213874Y0236821D01*
X0213874Y0228941D02*
X0209874Y0228941D01*
X0213874Y0228941D02*
X0217874Y0232941D01*
X0217874Y0224941D01*
X0213874Y0228941D01*
X0213874Y0221071D02*
X0209874Y0221071D01*
X0213874Y0221071D02*
X0217874Y0225071D01*
X0217874Y0217071D01*
X0213874Y0221071D01*
X0213874Y0213191D02*
X0209874Y0213191D01*
X0213874Y0213191D02*
X0217874Y0217191D01*
X0217874Y0209191D01*
X0213874Y0213191D01*
X0213874Y0205321D02*
X0209874Y0205321D01*
X0213874Y0205321D02*
X0217874Y0209321D01*
X0217874Y0201321D01*
X0213874Y0205321D01*
X0213874Y0197451D02*
X0209874Y0197451D01*
X0213874Y0197451D02*
X0217874Y0201451D01*
X0217874Y0193451D01*
X0213874Y0197451D01*
X0213874Y0189571D02*
X0209874Y0189571D01*
X0213874Y0189571D02*
X0217874Y0193571D01*
X0217874Y0185571D01*
X0213874Y0189571D01*
X0270954Y0189571D02*
X0266954Y0189571D01*
X0270954Y0189571D02*
X0274954Y0193571D01*
X0274954Y0185571D01*
X0270954Y0189571D01*
X0270954Y0197451D02*
X0266954Y0197451D01*
X0270954Y0197451D02*
X0274954Y0201451D01*
X0274954Y0193451D01*
X0270954Y0197451D01*
X0270954Y0205321D02*
X0266954Y0205321D01*
X0270954Y0205321D02*
X0274954Y0209321D01*
X0274954Y0201321D01*
X0270954Y0205321D01*
X0270954Y0213191D02*
X0266954Y0213191D01*
X0270954Y0213191D02*
X0274954Y0217191D01*
X0274954Y0209191D01*
X0270954Y0213191D01*
X0270954Y0221071D02*
X0266954Y0221071D01*
X0270954Y0221071D02*
X0274954Y0225071D01*
X0274954Y0217071D01*
X0270954Y0221071D01*
X0270954Y0228941D02*
X0266954Y0228941D01*
X0270954Y0228941D02*
X0274954Y0232941D01*
X0274954Y0224941D01*
X0270954Y0228941D01*
X0270954Y0236821D02*
X0266954Y0236821D01*
X0270954Y0236821D02*
X0274954Y0240821D01*
X0274954Y0232821D01*
X0270954Y0236821D01*
X0270954Y0244691D02*
X0266954Y0244691D01*
X0270954Y0244691D02*
X0274954Y0248691D01*
X0274954Y0240691D01*
X0270954Y0244691D01*
X0328831Y0152720D02*
X0324831Y0152720D01*
X0328831Y0152720D02*
X0332831Y0156720D01*
X0332831Y0148720D01*
X0328831Y0152720D01*
X0343791Y0152720D02*
X0339791Y0152720D01*
X0343791Y0152720D02*
X0347791Y0156720D01*
X0347791Y0148720D01*
X0343791Y0152720D01*
X0307551Y0085070D02*
X0303551Y0085070D01*
X0307551Y0085070D02*
X0311551Y0089070D01*
X0311551Y0081070D01*
X0307551Y0085070D01*
X0307551Y0077200D02*
X0303551Y0077200D01*
X0307551Y0077200D02*
X0311551Y0081200D01*
X0311551Y0073200D01*
X0307551Y0077200D01*
X0307551Y0069320D02*
X0303551Y0069320D01*
X0307551Y0069320D02*
X0311551Y0073320D01*
X0311551Y0065320D01*
X0307551Y0069320D01*
X0307551Y0061450D02*
X0303551Y0061450D01*
X0307551Y0061450D02*
X0311551Y0065450D01*
X0311551Y0057450D01*
X0307551Y0061450D01*
X0307551Y0053570D02*
X0303551Y0053570D01*
X0307551Y0053570D02*
X0311551Y0057570D01*
X0311551Y0049570D01*
X0307551Y0053570D01*
X0307551Y0045700D02*
X0303551Y0045700D01*
X0307551Y0045700D02*
X0311551Y0049700D01*
X0311551Y0041700D01*
X0307551Y0045700D01*
X0307551Y0037830D02*
X0303551Y0037830D01*
X0307551Y0037830D02*
X0311551Y0041830D01*
X0311551Y0033830D01*
X0307551Y0037830D01*
X0307551Y0029950D02*
X0303551Y0029950D01*
X0307551Y0029950D02*
X0311551Y0033950D01*
X0311551Y0025950D01*
X0307551Y0029950D01*
X0364631Y0029950D02*
X0360631Y0029950D01*
X0364631Y0029950D02*
X0368631Y0033950D01*
X0368631Y0025950D01*
X0364631Y0029950D01*
X0364631Y0037830D02*
X0360631Y0037830D01*
X0364631Y0037830D02*
X0368631Y0041830D01*
X0368631Y0033830D01*
X0364631Y0037830D01*
X0364631Y0045700D02*
X0360631Y0045700D01*
X0364631Y0045700D02*
X0368631Y0049700D01*
X0368631Y0041700D01*
X0364631Y0045700D01*
X0364631Y0053570D02*
X0360631Y0053570D01*
X0364631Y0053570D02*
X0368631Y0057570D01*
X0368631Y0049570D01*
X0364631Y0053570D01*
X0364631Y0061450D02*
X0360631Y0061450D01*
X0364631Y0061450D02*
X0368631Y0065450D01*
X0368631Y0057450D01*
X0364631Y0061450D01*
X0364631Y0069320D02*
X0360631Y0069320D01*
X0364631Y0069320D02*
X0368631Y0073320D01*
X0368631Y0065320D01*
X0364631Y0069320D01*
X0364631Y0077200D02*
X0360631Y0077200D01*
X0364631Y0077200D02*
X0368631Y0081200D01*
X0368631Y0073200D01*
X0364631Y0077200D01*
X0364631Y0085070D02*
X0360631Y0085070D01*
X0364631Y0085070D02*
X0368631Y0089070D01*
X0368631Y0081070D01*
X0364631Y0085070D01*
X0328831Y0312341D02*
X0324831Y0312341D01*
X0328831Y0312341D02*
X0332831Y0316341D01*
X0332831Y0308341D01*
X0328831Y0312341D01*
X0343791Y0312341D02*
X0339791Y0312341D01*
X0343791Y0312341D02*
X0347791Y0316341D01*
X0347791Y0308341D01*
X0343791Y0312341D01*
X0307551Y0244691D02*
X0303551Y0244691D01*
X0307551Y0244691D02*
X0311551Y0248691D01*
X0311551Y0240691D01*
X0307551Y0244691D01*
X0307551Y0236821D02*
X0303551Y0236821D01*
X0307551Y0236821D02*
X0311551Y0240821D01*
X0311551Y0232821D01*
X0307551Y0236821D01*
X0307551Y0228941D02*
X0303551Y0228941D01*
X0307551Y0228941D02*
X0311551Y0232941D01*
X0311551Y0224941D01*
X0307551Y0228941D01*
X0307551Y0221071D02*
X0303551Y0221071D01*
X0307551Y0221071D02*
X0311551Y0225071D01*
X0311551Y0217071D01*
X0307551Y0221071D01*
X0307551Y0213191D02*
X0303551Y0213191D01*
X0307551Y0213191D02*
X0311551Y0217191D01*
X0311551Y0209191D01*
X0307551Y0213191D01*
X0307551Y0205321D02*
X0303551Y0205321D01*
X0307551Y0205321D02*
X0311551Y0209321D01*
X0311551Y0201321D01*
X0307551Y0205321D01*
X0307551Y0197451D02*
X0303551Y0197451D01*
X0307551Y0197451D02*
X0311551Y0201451D01*
X0311551Y0193451D01*
X0307551Y0197451D01*
X0307551Y0189571D02*
X0303551Y0189571D01*
X0307551Y0189571D02*
X0311551Y0193571D01*
X0311551Y0185571D01*
X0307551Y0189571D01*
X0364631Y0189571D02*
X0360631Y0189571D01*
X0364631Y0189571D02*
X0368631Y0193571D01*
X0368631Y0185571D01*
X0364631Y0189571D01*
X0364631Y0197451D02*
X0360631Y0197451D01*
X0364631Y0197451D02*
X0368631Y0201451D01*
X0368631Y0193451D01*
X0364631Y0197451D01*
X0364631Y0205321D02*
X0360631Y0205321D01*
X0364631Y0205321D02*
X0368631Y0209321D01*
X0368631Y0201321D01*
X0364631Y0205321D01*
X0364631Y0213191D02*
X0360631Y0213191D01*
X0364631Y0213191D02*
X0368631Y0217191D01*
X0368631Y0209191D01*
X0364631Y0213191D01*
X0364631Y0221071D02*
X0360631Y0221071D01*
X0364631Y0221071D02*
X0368631Y0225071D01*
X0368631Y0217071D01*
X0364631Y0221071D01*
X0364631Y0228941D02*
X0360631Y0228941D01*
X0364631Y0228941D02*
X0368631Y0232941D01*
X0368631Y0224941D01*
X0364631Y0228941D01*
X0364631Y0236821D02*
X0360631Y0236821D01*
X0364631Y0236821D02*
X0368631Y0240821D01*
X0368631Y0232821D01*
X0364631Y0236821D01*
X0364631Y0244691D02*
X0360631Y0244691D01*
X0364631Y0244691D02*
X0368631Y0248691D01*
X0368631Y0240691D01*
X0364631Y0244691D01*
X0041100Y0158620D02*
X0045100Y0158620D01*
X0041100Y0158620D02*
X0037100Y0162620D01*
X0037100Y0154620D01*
X0041100Y0158620D01*
X0042280Y0149170D02*
X0046280Y0149170D01*
X0042280Y0149170D02*
X0038280Y0153170D01*
X0038280Y0145170D01*
X0042280Y0149170D01*
X0068270Y0149170D02*
X0072270Y0149170D01*
X0068270Y0149170D02*
X0064270Y0153170D01*
X0064270Y0145170D01*
X0068270Y0149170D01*
X0069450Y0158620D02*
X0073450Y0158620D01*
X0069450Y0158620D02*
X0065450Y0162620D01*
X0065450Y0154620D01*
X0069450Y0158620D01*
X0095000Y0154250D02*
X0099000Y0154250D01*
X0095000Y0154250D02*
X0091000Y0158250D01*
X0091000Y0150250D01*
X0095000Y0154250D01*
X0015000Y0154250D02*
X0019000Y0154250D01*
X0015000Y0154250D02*
X0011000Y0158250D01*
X0011000Y0150250D01*
X0015000Y0154250D01*
X0015000Y0084250D02*
X0019000Y0084250D01*
X0015000Y0084250D02*
X0011000Y0088250D01*
X0011000Y0080250D01*
X0015000Y0084250D01*
X0015000Y0074250D02*
X0019000Y0074250D01*
X0015000Y0074250D02*
X0011000Y0078250D01*
X0011000Y0070250D01*
X0015000Y0074250D01*
X0015000Y0064250D02*
X0019000Y0064250D01*
X0015000Y0064250D02*
X0011000Y0068250D01*
X0011000Y0060250D01*
X0015000Y0064250D01*
X0015000Y0054250D02*
X0019000Y0054250D01*
X0015000Y0054250D02*
X0011000Y0058250D01*
X0011000Y0050250D01*
X0015000Y0054250D01*
X0015000Y0044250D02*
X0019000Y0044250D01*
X0015000Y0044250D02*
X0011000Y0048250D01*
X0011000Y0040250D01*
X0015000Y0044250D01*
X0015000Y0034250D02*
X0019000Y0034250D01*
X0015000Y0034250D02*
X0011000Y0038250D01*
X0011000Y0030250D01*
X0015000Y0034250D01*
X0015000Y0024250D02*
X0019000Y0024250D01*
X0015000Y0024250D02*
X0011000Y0028250D01*
X0011000Y0020250D01*
X0015000Y0024250D01*
X0095000Y0024250D02*
X0099000Y0024250D01*
X0095000Y0024250D02*
X0091000Y0028250D01*
X0091000Y0020250D01*
X0095000Y0024250D01*
X0095000Y0034250D02*
X0099000Y0034250D01*
X0095000Y0034250D02*
X0091000Y0038250D01*
X0091000Y0030250D01*
X0095000Y0034250D01*
X0095000Y0044250D02*
X0099000Y0044250D01*
X0095000Y0044250D02*
X0091000Y0048250D01*
X0091000Y0040250D01*
X0095000Y0044250D01*
X0095000Y0054250D02*
X0099000Y0054250D01*
X0095000Y0054250D02*
X0091000Y0058250D01*
X0091000Y0050250D01*
X0095000Y0054250D01*
X0095000Y0064250D02*
X0099000Y0064250D01*
X0095000Y0064250D02*
X0091000Y0068250D01*
X0091000Y0060250D01*
X0095000Y0064250D01*
X0095000Y0074250D02*
X0099000Y0074250D01*
X0095000Y0074250D02*
X0091000Y0078250D01*
X0091000Y0070250D01*
X0095000Y0074250D01*
X0095000Y0084250D02*
X0099000Y0084250D01*
X0095000Y0084250D02*
X0091000Y0088250D01*
X0091000Y0080250D01*
X0095000Y0084250D01*
X0041100Y0318241D02*
X0045100Y0318241D01*
X0041100Y0318241D02*
X0037100Y0322241D01*
X0037100Y0314241D01*
X0041100Y0318241D01*
X0042280Y0308791D02*
X0046280Y0308791D01*
X0042280Y0308791D02*
X0038280Y0312791D01*
X0038280Y0304791D01*
X0042280Y0308791D01*
X0068270Y0308791D02*
X0072270Y0308791D01*
X0068270Y0308791D02*
X0064270Y0312791D01*
X0064270Y0304791D01*
X0068270Y0308791D01*
X0069450Y0318241D02*
X0073450Y0318241D01*
X0069450Y0318241D02*
X0065450Y0322241D01*
X0065450Y0314241D01*
X0069450Y0318241D01*
X0095000Y0313871D02*
X0099000Y0313871D01*
X0095000Y0313871D02*
X0091000Y0317871D01*
X0091000Y0309871D01*
X0095000Y0313871D01*
X0015000Y0313871D02*
X0019000Y0313871D01*
X0015000Y0313871D02*
X0011000Y0317871D01*
X0011000Y0309871D01*
X0015000Y0313871D01*
X0015000Y0243871D02*
X0019000Y0243871D01*
X0015000Y0243871D02*
X0011000Y0247871D01*
X0011000Y0239871D01*
X0015000Y0243871D01*
X0015000Y0233871D02*
X0019000Y0233871D01*
X0015000Y0233871D02*
X0011000Y0237871D01*
X0011000Y0229871D01*
X0015000Y0233871D01*
X0015000Y0223871D02*
X0019000Y0223871D01*
X0015000Y0223871D02*
X0011000Y0227871D01*
X0011000Y0219871D01*
X0015000Y0223871D01*
X0015000Y0213871D02*
X0019000Y0213871D01*
X0015000Y0213871D02*
X0011000Y0217871D01*
X0011000Y0209871D01*
X0015000Y0213871D01*
X0015000Y0203871D02*
X0019000Y0203871D01*
X0015000Y0203871D02*
X0011000Y0207871D01*
X0011000Y0199871D01*
X0015000Y0203871D01*
X0015000Y0193871D02*
X0019000Y0193871D01*
X0015000Y0193871D02*
X0011000Y0197871D01*
X0011000Y0189871D01*
X0015000Y0193871D01*
X0015000Y0183871D02*
X0019000Y0183871D01*
X0015000Y0183871D02*
X0011000Y0187871D01*
X0011000Y0179871D01*
X0015000Y0183871D01*
X0095000Y0183871D02*
X0099000Y0183871D01*
X0095000Y0183871D02*
X0091000Y0187871D01*
X0091000Y0179871D01*
X0095000Y0183871D01*
X0095000Y0193871D02*
X0099000Y0193871D01*
X0095000Y0193871D02*
X0091000Y0197871D01*
X0091000Y0189871D01*
X0095000Y0193871D01*
X0095000Y0203871D02*
X0099000Y0203871D01*
X0095000Y0203871D02*
X0091000Y0207871D01*
X0091000Y0199871D01*
X0095000Y0203871D01*
X0095000Y0213871D02*
X0099000Y0213871D01*
X0095000Y0213871D02*
X0091000Y0217871D01*
X0091000Y0209871D01*
X0095000Y0213871D01*
X0095000Y0223871D02*
X0099000Y0223871D01*
X0095000Y0223871D02*
X0091000Y0227871D01*
X0091000Y0219871D01*
X0095000Y0223871D01*
X0095000Y0233871D02*
X0099000Y0233871D01*
X0095000Y0233871D02*
X0091000Y0237871D01*
X0091000Y0229871D01*
X0095000Y0233871D01*
X0095000Y0243871D02*
X0099000Y0243871D01*
X0095000Y0243871D02*
X0091000Y0247871D01*
X0091000Y0239871D01*
X0095000Y0243871D01*
X0134777Y0158620D02*
X0138777Y0158620D01*
X0134777Y0158620D02*
X0130777Y0162620D01*
X0130777Y0154620D01*
X0134777Y0158620D01*
X0135957Y0149170D02*
X0139957Y0149170D01*
X0135957Y0149170D02*
X0131957Y0153170D01*
X0131957Y0145170D01*
X0135957Y0149170D01*
X0161947Y0149170D02*
X0165947Y0149170D01*
X0161947Y0149170D02*
X0157947Y0153170D01*
X0157947Y0145170D01*
X0161947Y0149170D01*
X0163127Y0158620D02*
X0167127Y0158620D01*
X0163127Y0158620D02*
X0159127Y0162620D01*
X0159127Y0154620D01*
X0163127Y0158620D01*
X0188677Y0154250D02*
X0192677Y0154250D01*
X0188677Y0154250D02*
X0184677Y0158250D01*
X0184677Y0150250D01*
X0188677Y0154250D01*
X0108677Y0154250D02*
X0112677Y0154250D01*
X0108677Y0154250D02*
X0104677Y0158250D01*
X0104677Y0150250D01*
X0108677Y0154250D01*
X0108677Y0084250D02*
X0112677Y0084250D01*
X0108677Y0084250D02*
X0104677Y0088250D01*
X0104677Y0080250D01*
X0108677Y0084250D01*
X0108677Y0074250D02*
X0112677Y0074250D01*
X0108677Y0074250D02*
X0104677Y0078250D01*
X0104677Y0070250D01*
X0108677Y0074250D01*
X0108677Y0064250D02*
X0112677Y0064250D01*
X0108677Y0064250D02*
X0104677Y0068250D01*
X0104677Y0060250D01*
X0108677Y0064250D01*
X0108677Y0054250D02*
X0112677Y0054250D01*
X0108677Y0054250D02*
X0104677Y0058250D01*
X0104677Y0050250D01*
X0108677Y0054250D01*
X0108677Y0044250D02*
X0112677Y0044250D01*
X0108677Y0044250D02*
X0104677Y0048250D01*
X0104677Y0040250D01*
X0108677Y0044250D01*
X0108677Y0034250D02*
X0112677Y0034250D01*
X0108677Y0034250D02*
X0104677Y0038250D01*
X0104677Y0030250D01*
X0108677Y0034250D01*
X0108677Y0024250D02*
X0112677Y0024250D01*
X0108677Y0024250D02*
X0104677Y0028250D01*
X0104677Y0020250D01*
X0108677Y0024250D01*
X0188677Y0024250D02*
X0192677Y0024250D01*
X0188677Y0024250D02*
X0184677Y0028250D01*
X0184677Y0020250D01*
X0188677Y0024250D01*
X0188677Y0034250D02*
X0192677Y0034250D01*
X0188677Y0034250D02*
X0184677Y0038250D01*
X0184677Y0030250D01*
X0188677Y0034250D01*
X0188677Y0044250D02*
X0192677Y0044250D01*
X0188677Y0044250D02*
X0184677Y0048250D01*
X0184677Y0040250D01*
X0188677Y0044250D01*
X0188677Y0054250D02*
X0192677Y0054250D01*
X0188677Y0054250D02*
X0184677Y0058250D01*
X0184677Y0050250D01*
X0188677Y0054250D01*
X0188677Y0064250D02*
X0192677Y0064250D01*
X0188677Y0064250D02*
X0184677Y0068250D01*
X0184677Y0060250D01*
X0188677Y0064250D01*
X0188677Y0074250D02*
X0192677Y0074250D01*
X0188677Y0074250D02*
X0184677Y0078250D01*
X0184677Y0070250D01*
X0188677Y0074250D01*
X0188677Y0084250D02*
X0192677Y0084250D01*
X0188677Y0084250D02*
X0184677Y0088250D01*
X0184677Y0080250D01*
X0188677Y0084250D01*
X0134777Y0318241D02*
X0138777Y0318241D01*
X0134777Y0318241D02*
X0130777Y0322241D01*
X0130777Y0314241D01*
X0134777Y0318241D01*
X0135957Y0308791D02*
X0139957Y0308791D01*
X0135957Y0308791D02*
X0131957Y0312791D01*
X0131957Y0304791D01*
X0135957Y0308791D01*
X0161947Y0308791D02*
X0165947Y0308791D01*
X0161947Y0308791D02*
X0157947Y0312791D01*
X0157947Y0304791D01*
X0161947Y0308791D01*
X0163127Y0318241D02*
X0167127Y0318241D01*
X0163127Y0318241D02*
X0159127Y0322241D01*
X0159127Y0314241D01*
X0163127Y0318241D01*
X0188677Y0313871D02*
X0192677Y0313871D01*
X0188677Y0313871D02*
X0184677Y0317871D01*
X0184677Y0309871D01*
X0188677Y0313871D01*
X0108677Y0313871D02*
X0112677Y0313871D01*
X0108677Y0313871D02*
X0104677Y0317871D01*
X0104677Y0309871D01*
X0108677Y0313871D01*
X0108677Y0243871D02*
X0112677Y0243871D01*
X0108677Y0243871D02*
X0104677Y0247871D01*
X0104677Y0239871D01*
X0108677Y0243871D01*
X0108677Y0233871D02*
X0112677Y0233871D01*
X0108677Y0233871D02*
X0104677Y0237871D01*
X0104677Y0229871D01*
X0108677Y0233871D01*
X0108677Y0223871D02*
X0112677Y0223871D01*
X0108677Y0223871D02*
X0104677Y0227871D01*
X0104677Y0219871D01*
X0108677Y0223871D01*
X0108677Y0213871D02*
X0112677Y0213871D01*
X0108677Y0213871D02*
X0104677Y0217871D01*
X0104677Y0209871D01*
X0108677Y0213871D01*
X0108677Y0203871D02*
X0112677Y0203871D01*
X0108677Y0203871D02*
X0104677Y0207871D01*
X0104677Y0199871D01*
X0108677Y0203871D01*
X0108677Y0193871D02*
X0112677Y0193871D01*
X0108677Y0193871D02*
X0104677Y0197871D01*
X0104677Y0189871D01*
X0108677Y0193871D01*
X0108677Y0183871D02*
X0112677Y0183871D01*
X0108677Y0183871D02*
X0104677Y0187871D01*
X0104677Y0179871D01*
X0108677Y0183871D01*
X0188677Y0183871D02*
X0192677Y0183871D01*
X0188677Y0183871D02*
X0184677Y0187871D01*
X0184677Y0179871D01*
X0188677Y0183871D01*
X0188677Y0193871D02*
X0192677Y0193871D01*
X0188677Y0193871D02*
X0184677Y0197871D01*
X0184677Y0189871D01*
X0188677Y0193871D01*
X0188677Y0203871D02*
X0192677Y0203871D01*
X0188677Y0203871D02*
X0184677Y0207871D01*
X0184677Y0199871D01*
X0188677Y0203871D01*
X0188677Y0213871D02*
X0192677Y0213871D01*
X0188677Y0213871D02*
X0184677Y0217871D01*
X0184677Y0209871D01*
X0188677Y0213871D01*
X0188677Y0223871D02*
X0192677Y0223871D01*
X0188677Y0223871D02*
X0184677Y0227871D01*
X0184677Y0219871D01*
X0188677Y0223871D01*
X0188677Y0233871D02*
X0192677Y0233871D01*
X0188677Y0233871D02*
X0184677Y0237871D01*
X0184677Y0229871D01*
X0188677Y0233871D01*
X0188677Y0243871D02*
X0192677Y0243871D01*
X0188677Y0243871D02*
X0184677Y0247871D01*
X0184677Y0239871D01*
X0188677Y0243871D01*
X0228454Y0158620D02*
X0232454Y0158620D01*
X0228454Y0158620D02*
X0224454Y0162620D01*
X0224454Y0154620D01*
X0228454Y0158620D01*
X0229634Y0149170D02*
X0233634Y0149170D01*
X0229634Y0149170D02*
X0225634Y0153170D01*
X0225634Y0145170D01*
X0229634Y0149170D01*
X0255624Y0149170D02*
X0259624Y0149170D01*
X0255624Y0149170D02*
X0251624Y0153170D01*
X0251624Y0145170D01*
X0255624Y0149170D01*
X0256804Y0158620D02*
X0260804Y0158620D01*
X0256804Y0158620D02*
X0252804Y0162620D01*
X0252804Y0154620D01*
X0256804Y0158620D01*
X0282354Y0154250D02*
X0286354Y0154250D01*
X0282354Y0154250D02*
X0278354Y0158250D01*
X0278354Y0150250D01*
X0282354Y0154250D01*
X0202354Y0154250D02*
X0206354Y0154250D01*
X0202354Y0154250D02*
X0198354Y0158250D01*
X0198354Y0150250D01*
X0202354Y0154250D01*
X0202354Y0084250D02*
X0206354Y0084250D01*
X0202354Y0084250D02*
X0198354Y0088250D01*
X0198354Y0080250D01*
X0202354Y0084250D01*
X0202354Y0074250D02*
X0206354Y0074250D01*
X0202354Y0074250D02*
X0198354Y0078250D01*
X0198354Y0070250D01*
X0202354Y0074250D01*
X0202354Y0064250D02*
X0206354Y0064250D01*
X0202354Y0064250D02*
X0198354Y0068250D01*
X0198354Y0060250D01*
X0202354Y0064250D01*
X0202354Y0054250D02*
X0206354Y0054250D01*
X0202354Y0054250D02*
X0198354Y0058250D01*
X0198354Y0050250D01*
X0202354Y0054250D01*
X0202354Y0044250D02*
X0206354Y0044250D01*
X0202354Y0044250D02*
X0198354Y0048250D01*
X0198354Y0040250D01*
X0202354Y0044250D01*
X0202354Y0034250D02*
X0206354Y0034250D01*
X0202354Y0034250D02*
X0198354Y0038250D01*
X0198354Y0030250D01*
X0202354Y0034250D01*
X0202354Y0024250D02*
X0206354Y0024250D01*
X0202354Y0024250D02*
X0198354Y0028250D01*
X0198354Y0020250D01*
X0202354Y0024250D01*
X0282354Y0024250D02*
X0286354Y0024250D01*
X0282354Y0024250D02*
X0278354Y0028250D01*
X0278354Y0020250D01*
X0282354Y0024250D01*
X0282354Y0034250D02*
X0286354Y0034250D01*
X0282354Y0034250D02*
X0278354Y0038250D01*
X0278354Y0030250D01*
X0282354Y0034250D01*
X0282354Y0044250D02*
X0286354Y0044250D01*
X0282354Y0044250D02*
X0278354Y0048250D01*
X0278354Y0040250D01*
X0282354Y0044250D01*
X0282354Y0054250D02*
X0286354Y0054250D01*
X0282354Y0054250D02*
X0278354Y0058250D01*
X0278354Y0050250D01*
X0282354Y0054250D01*
X0282354Y0064250D02*
X0286354Y0064250D01*
X0282354Y0064250D02*
X0278354Y0068250D01*
X0278354Y0060250D01*
X0282354Y0064250D01*
X0282354Y0074250D02*
X0286354Y0074250D01*
X0282354Y0074250D02*
X0278354Y0078250D01*
X0278354Y0070250D01*
X0282354Y0074250D01*
X0282354Y0084250D02*
X0286354Y0084250D01*
X0282354Y0084250D02*
X0278354Y0088250D01*
X0278354Y0080250D01*
X0282354Y0084250D01*
X0228454Y0318241D02*
X0232454Y0318241D01*
X0228454Y0318241D02*
X0224454Y0322241D01*
X0224454Y0314241D01*
X0228454Y0318241D01*
X0229634Y0308791D02*
X0233634Y0308791D01*
X0229634Y0308791D02*
X0225634Y0312791D01*
X0225634Y0304791D01*
X0229634Y0308791D01*
X0255624Y0308791D02*
X0259624Y0308791D01*
X0255624Y0308791D02*
X0251624Y0312791D01*
X0251624Y0304791D01*
X0255624Y0308791D01*
X0256804Y0318241D02*
X0260804Y0318241D01*
X0256804Y0318241D02*
X0252804Y0322241D01*
X0252804Y0314241D01*
X0256804Y0318241D01*
X0282354Y0313871D02*
X0286354Y0313871D01*
X0282354Y0313871D02*
X0278354Y0317871D01*
X0278354Y0309871D01*
X0282354Y0313871D01*
X0202354Y0313871D02*
X0206354Y0313871D01*
X0202354Y0313871D02*
X0198354Y0317871D01*
X0198354Y0309871D01*
X0202354Y0313871D01*
X0202354Y0243871D02*
X0206354Y0243871D01*
X0202354Y0243871D02*
X0198354Y0247871D01*
X0198354Y0239871D01*
X0202354Y0243871D01*
X0202354Y0233871D02*
X0206354Y0233871D01*
X0202354Y0233871D02*
X0198354Y0237871D01*
X0198354Y0229871D01*
X0202354Y0233871D01*
X0202354Y0223871D02*
X0206354Y0223871D01*
X0202354Y0223871D02*
X0198354Y0227871D01*
X0198354Y0219871D01*
X0202354Y0223871D01*
X0202354Y0213871D02*
X0206354Y0213871D01*
X0202354Y0213871D02*
X0198354Y0217871D01*
X0198354Y0209871D01*
X0202354Y0213871D01*
X0202354Y0203871D02*
X0206354Y0203871D01*
X0202354Y0203871D02*
X0198354Y0207871D01*
X0198354Y0199871D01*
X0202354Y0203871D01*
X0202354Y0193871D02*
X0206354Y0193871D01*
X0202354Y0193871D02*
X0198354Y0197871D01*
X0198354Y0189871D01*
X0202354Y0193871D01*
X0202354Y0183871D02*
X0206354Y0183871D01*
X0202354Y0183871D02*
X0198354Y0187871D01*
X0198354Y0179871D01*
X0202354Y0183871D01*
X0282354Y0183871D02*
X0286354Y0183871D01*
X0282354Y0183871D02*
X0278354Y0187871D01*
X0278354Y0179871D01*
X0282354Y0183871D01*
X0282354Y0193871D02*
X0286354Y0193871D01*
X0282354Y0193871D02*
X0278354Y0197871D01*
X0278354Y0189871D01*
X0282354Y0193871D01*
X0282354Y0203871D02*
X0286354Y0203871D01*
X0282354Y0203871D02*
X0278354Y0207871D01*
X0278354Y0199871D01*
X0282354Y0203871D01*
X0282354Y0213871D02*
X0286354Y0213871D01*
X0282354Y0213871D02*
X0278354Y0217871D01*
X0278354Y0209871D01*
X0282354Y0213871D01*
X0282354Y0223871D02*
X0286354Y0223871D01*
X0282354Y0223871D02*
X0278354Y0227871D01*
X0278354Y0219871D01*
X0282354Y0223871D01*
X0282354Y0233871D02*
X0286354Y0233871D01*
X0282354Y0233871D02*
X0278354Y0237871D01*
X0278354Y0229871D01*
X0282354Y0233871D01*
X0282354Y0243871D02*
X0286354Y0243871D01*
X0282354Y0243871D02*
X0278354Y0247871D01*
X0278354Y0239871D01*
X0282354Y0243871D01*
X0322131Y0158620D02*
X0326131Y0158620D01*
X0322131Y0158620D02*
X0318131Y0162620D01*
X0318131Y0154620D01*
X0322131Y0158620D01*
X0323311Y0149170D02*
X0327311Y0149170D01*
X0323311Y0149170D02*
X0319311Y0153170D01*
X0319311Y0145170D01*
X0323311Y0149170D01*
X0349301Y0149170D02*
X0353301Y0149170D01*
X0349301Y0149170D02*
X0345301Y0153170D01*
X0345301Y0145170D01*
X0349301Y0149170D01*
X0350481Y0158620D02*
X0354481Y0158620D01*
X0350481Y0158620D02*
X0346481Y0162620D01*
X0346481Y0154620D01*
X0350481Y0158620D01*
X0376031Y0154250D02*
X0380031Y0154250D01*
X0376031Y0154250D02*
X0372031Y0158250D01*
X0372031Y0150250D01*
X0376031Y0154250D01*
X0296031Y0154250D02*
X0300031Y0154250D01*
X0296031Y0154250D02*
X0292031Y0158250D01*
X0292031Y0150250D01*
X0296031Y0154250D01*
X0296031Y0084250D02*
X0300031Y0084250D01*
X0296031Y0084250D02*
X0292031Y0088250D01*
X0292031Y0080250D01*
X0296031Y0084250D01*
X0296031Y0074250D02*
X0300031Y0074250D01*
X0296031Y0074250D02*
X0292031Y0078250D01*
X0292031Y0070250D01*
X0296031Y0074250D01*
X0296031Y0064250D02*
X0300031Y0064250D01*
X0296031Y0064250D02*
X0292031Y0068250D01*
X0292031Y0060250D01*
X0296031Y0064250D01*
X0296031Y0054250D02*
X0300031Y0054250D01*
X0296031Y0054250D02*
X0292031Y0058250D01*
X0292031Y0050250D01*
X0296031Y0054250D01*
X0296031Y0044250D02*
X0300031Y0044250D01*
X0296031Y0044250D02*
X0292031Y0048250D01*
X0292031Y0040250D01*
X0296031Y0044250D01*
X0296031Y0034250D02*
X0300031Y0034250D01*
X0296031Y0034250D02*
X0292031Y0038250D01*
X0292031Y0030250D01*
X0296031Y0034250D01*
X0296031Y0024250D02*
X0300031Y0024250D01*
X0296031Y0024250D02*
X0292031Y0028250D01*
X0292031Y0020250D01*
X0296031Y0024250D01*
X0376031Y0024250D02*
X0380031Y0024250D01*
X0376031Y0024250D02*
X0372031Y0028250D01*
X0372031Y0020250D01*
X0376031Y0024250D01*
X0376031Y0034250D02*
X0380031Y0034250D01*
X0376031Y0034250D02*
X0372031Y0038250D01*
X0372031Y0030250D01*
X0376031Y0034250D01*
X0376031Y0044250D02*
X0380031Y0044250D01*
X0376031Y0044250D02*
X0372031Y0048250D01*
X0372031Y0040250D01*
X0376031Y0044250D01*
X0376031Y0054250D02*
X0380031Y0054250D01*
X0376031Y0054250D02*
X0372031Y0058250D01*
X0372031Y0050250D01*
X0376031Y0054250D01*
X0376031Y0064250D02*
X0380031Y0064250D01*
X0376031Y0064250D02*
X0372031Y0068250D01*
X0372031Y0060250D01*
X0376031Y0064250D01*
X0376031Y0074250D02*
X0380031Y0074250D01*
X0376031Y0074250D02*
X0372031Y0078250D01*
X0372031Y0070250D01*
X0376031Y0074250D01*
X0376031Y0084250D02*
X0380031Y0084250D01*
X0376031Y0084250D02*
X0372031Y0088250D01*
X0372031Y0080250D01*
X0376031Y0084250D01*
X0322131Y0318241D02*
X0326131Y0318241D01*
X0322131Y0318241D02*
X0318131Y0322241D01*
X0318131Y0314241D01*
X0322131Y0318241D01*
X0323311Y0308791D02*
X0327311Y0308791D01*
X0323311Y0308791D02*
X0319311Y0312791D01*
X0319311Y0304791D01*
X0323311Y0308791D01*
X0349301Y0308791D02*
X0353301Y0308791D01*
X0349301Y0308791D02*
X0345301Y0312791D01*
X0345301Y0304791D01*
X0349301Y0308791D01*
X0350481Y0318241D02*
X0354481Y0318241D01*
X0350481Y0318241D02*
X0346481Y0322241D01*
X0346481Y0314241D01*
X0350481Y0318241D01*
X0376031Y0313871D02*
X0380031Y0313871D01*
X0376031Y0313871D02*
X0372031Y0317871D01*
X0372031Y0309871D01*
X0376031Y0313871D01*
X0296031Y0313871D02*
X0300031Y0313871D01*
X0296031Y0313871D02*
X0292031Y0317871D01*
X0292031Y0309871D01*
X0296031Y0313871D01*
X0296031Y0243871D02*
X0300031Y0243871D01*
X0296031Y0243871D02*
X0292031Y0247871D01*
X0292031Y0239871D01*
X0296031Y0243871D01*
X0296031Y0233871D02*
X0300031Y0233871D01*
X0296031Y0233871D02*
X0292031Y0237871D01*
X0292031Y0229871D01*
X0296031Y0233871D01*
X0296031Y0223871D02*
X0300031Y0223871D01*
X0296031Y0223871D02*
X0292031Y0227871D01*
X0292031Y0219871D01*
X0296031Y0223871D01*
X0296031Y0213871D02*
X0300031Y0213871D01*
X0296031Y0213871D02*
X0292031Y0217871D01*
X0292031Y0209871D01*
X0296031Y0213871D01*
X0296031Y0203871D02*
X0300031Y0203871D01*
X0296031Y0203871D02*
X0292031Y0207871D01*
X0292031Y0199871D01*
X0296031Y0203871D01*
X0296031Y0193871D02*
X0300031Y0193871D01*
X0296031Y0193871D02*
X0292031Y0197871D01*
X0292031Y0189871D01*
X0296031Y0193871D01*
X0296031Y0183871D02*
X0300031Y0183871D01*
X0296031Y0183871D02*
X0292031Y0187871D01*
X0292031Y0179871D01*
X0296031Y0183871D01*
X0376031Y0183871D02*
X0380031Y0183871D01*
X0376031Y0183871D02*
X0372031Y0187871D01*
X0372031Y0179871D01*
X0376031Y0183871D01*
X0376031Y0193871D02*
X0380031Y0193871D01*
X0376031Y0193871D02*
X0372031Y0197871D01*
X0372031Y0189871D01*
X0376031Y0193871D01*
X0376031Y0203871D02*
X0380031Y0203871D01*
X0376031Y0203871D02*
X0372031Y0207871D01*
X0372031Y0199871D01*
X0376031Y0203871D01*
X0376031Y0213871D02*
X0380031Y0213871D01*
X0376031Y0213871D02*
X0372031Y0217871D01*
X0372031Y0209871D01*
X0376031Y0213871D01*
X0376031Y0223871D02*
X0380031Y0223871D01*
X0376031Y0223871D02*
X0372031Y0227871D01*
X0372031Y0219871D01*
X0376031Y0223871D01*
X0376031Y0233871D02*
X0380031Y0233871D01*
X0376031Y0233871D02*
X0372031Y0237871D01*
X0372031Y0229871D01*
X0376031Y0233871D01*
X0376031Y0243871D02*
X0380031Y0243871D01*
X0376031Y0243871D02*
X0372031Y0247871D01*
X0372031Y0239871D01*
X0376031Y0243871D01*
X0010000Y0010000D02*
X0381583Y0010000D01*
X0381583Y0326117D01*
X0010000Y0326117D01*
X0010000Y0010000D01*
X0431583Y0013500D02*
X0435583Y0013500D01*
X0431583Y0013500D02*
X0427583Y0017500D01*
X0427583Y0009500D01*
X0431583Y0013500D01*
X0443083Y0010000D02*
X0442083Y0011000D01*
X0446083Y0015000D01*
X0446083Y0011000D01*
X0445083Y0010000D01*
X0443083Y0010000D01*
X0442083Y0011000D02*
X0442083Y0015000D01*
X0443083Y0016000D01*
X0445083Y0016000D01*
X0446083Y0015000D01*
X0449583Y0011000D02*
X0450583Y0011000D01*
X0450583Y0010000D01*
X0449583Y0010000D01*
X0449583Y0011000D01*
X0455083Y0010000D02*
X0454083Y0011000D01*
X0458083Y0015000D01*
X0458083Y0011000D01*
X0457083Y0010000D01*
X0455083Y0010000D01*
X0454083Y0011000D02*
X0454083Y0015000D01*
X0455083Y0016000D01*
X0457083Y0016000D01*
X0458083Y0015000D01*
X0460083Y0011000D02*
X0461083Y0010000D01*
X0463083Y0010000D01*
X0464083Y0011000D01*
X0464083Y0012000D01*
X0463083Y0013000D01*
X0462083Y0013000D01*
X0463083Y0013000D02*
X0464083Y0014000D01*
X0464083Y0015000D01*
X0463083Y0016000D01*
X0461083Y0016000D01*
X0460083Y0015000D01*
X0466083Y0013000D02*
X0468083Y0014000D01*
X0469083Y0014000D01*
X0470083Y0013000D01*
X0470083Y0011000D01*
X0469083Y0010000D01*
X0467083Y0010000D01*
X0466083Y0011000D01*
X0466083Y0013000D02*
X0466083Y0016000D01*
X0470083Y0016000D01*
X0475583Y0015000D02*
X0474583Y0014000D01*
X0475583Y0015000D02*
X0475583Y0017000D01*
X0473583Y0017000D02*
X0473583Y0015000D01*
X0472583Y0014000D01*
X0431583Y0024000D02*
X0427583Y0024000D01*
X0431583Y0024000D02*
X0435583Y0028000D01*
X0435583Y0020000D01*
X0431583Y0024000D01*
X0443083Y0020500D02*
X0442083Y0021500D01*
X0446083Y0025500D01*
X0446083Y0021500D01*
X0445083Y0020500D01*
X0443083Y0020500D01*
X0442083Y0021500D02*
X0442083Y0025500D01*
X0443083Y0026500D01*
X0445083Y0026500D01*
X0446083Y0025500D01*
X0449583Y0021500D02*
X0450583Y0021500D01*
X0450583Y0020500D01*
X0449583Y0020500D01*
X0449583Y0021500D01*
X0455083Y0020500D02*
X0454083Y0021500D01*
X0458083Y0025500D01*
X0458083Y0021500D01*
X0457083Y0020500D01*
X0455083Y0020500D01*
X0454083Y0021500D02*
X0454083Y0025500D01*
X0455083Y0026500D01*
X0457083Y0026500D01*
X0458083Y0025500D01*
X0460083Y0020500D02*
X0464083Y0024500D01*
X0464083Y0025500D01*
X0463083Y0026500D01*
X0461083Y0026500D01*
X0460083Y0025500D01*
X0460083Y0020500D02*
X0464083Y0020500D01*
X0466083Y0024500D02*
X0467083Y0023500D01*
X0470083Y0023500D01*
X0470083Y0021500D02*
X0470083Y0025500D01*
X0469083Y0026500D01*
X0467083Y0026500D01*
X0466083Y0025500D01*
X0466083Y0024500D01*
X0466083Y0021500D02*
X0467083Y0020500D01*
X0469083Y0020500D01*
X0470083Y0021500D01*
X0475583Y0025500D02*
X0474583Y0024500D01*
X0475583Y0025500D02*
X0475583Y0027500D01*
X0473583Y0027500D02*
X0473583Y0025500D01*
X0472583Y0024500D01*
X0427583Y0030500D02*
X0435583Y0038500D01*
X0435583Y0030500D02*
X0427583Y0038500D01*
X0427583Y0034500D02*
X0435583Y0034500D01*
X0443083Y0031000D02*
X0442083Y0032000D01*
X0446083Y0036000D01*
X0446083Y0032000D01*
X0445083Y0031000D01*
X0443083Y0031000D01*
X0442083Y0032000D02*
X0442083Y0036000D01*
X0443083Y0037000D01*
X0445083Y0037000D01*
X0446083Y0036000D01*
X0449583Y0032000D02*
X0450583Y0032000D01*
X0450583Y0031000D01*
X0449583Y0031000D01*
X0449583Y0032000D01*
X0455083Y0031000D02*
X0454083Y0032000D01*
X0458083Y0036000D01*
X0458083Y0032000D01*
X0457083Y0031000D01*
X0455083Y0031000D01*
X0454083Y0032000D02*
X0454083Y0036000D01*
X0455083Y0037000D01*
X0457083Y0037000D01*
X0458083Y0036000D01*
X0461083Y0036000D02*
X0462083Y0037000D01*
X0462083Y0031000D01*
X0461083Y0031000D02*
X0463083Y0031000D01*
X0467083Y0031000D02*
X0466083Y0032000D01*
X0470083Y0036000D01*
X0470083Y0032000D01*
X0469083Y0031000D01*
X0467083Y0031000D01*
X0466083Y0032000D02*
X0466083Y0036000D01*
X0467083Y0037000D01*
X0469083Y0037000D01*
X0470083Y0036000D01*
X0475583Y0036000D02*
X0474583Y0035000D01*
X0475583Y0036000D02*
X0475583Y0038000D01*
X0473583Y0038000D02*
X0473583Y0036000D01*
X0472583Y0035000D01*
X0010000Y0338617D02*
X0010000Y0353617D01*
X0017500Y0349867D02*
X0010000Y0346117D01*
X0017500Y0342367D01*
X0010000Y0346117D02*
X0022500Y0346117D01*
X0381583Y0353617D02*
X0381583Y0338617D01*
X0374083Y0342367D02*
X0381583Y0346117D01*
X0374083Y0349867D01*
X0381583Y0346117D02*
X0369083Y0346117D01*
X0394083Y0326117D02*
X0409083Y0326117D01*
X0405333Y0318617D02*
X0401583Y0326117D01*
X0397833Y0318617D01*
X0401583Y0326117D02*
X0401583Y0313617D01*
X0409083Y0010000D02*
X0394083Y0010000D01*
X0397833Y0017500D02*
X0401583Y0010000D01*
X0405333Y0017500D01*
X0401583Y0010000D02*
X0401583Y0022500D01*
X0188791Y0343617D02*
X0189791Y0342617D01*
X0191791Y0342617D01*
X0192791Y0343617D01*
X0192791Y0344617D01*
X0191791Y0345617D01*
X0190791Y0345617D01*
X0191791Y0345617D02*
X0192791Y0346617D01*
X0192791Y0347617D01*
X0191791Y0348617D01*
X0189791Y0348617D01*
X0188791Y0347617D01*
X0196291Y0343617D02*
X0197291Y0343617D01*
X0197291Y0342617D01*
X0196291Y0342617D01*
X0196291Y0343617D01*
X0200791Y0348617D02*
X0204791Y0348617D01*
X0204791Y0347617D01*
X0200791Y0343617D01*
X0200791Y0342617D01*
X0207791Y0347617D02*
X0208791Y0348617D01*
X0208791Y0342617D01*
X0207791Y0342617D02*
X0209791Y0342617D01*
X0212791Y0345617D02*
X0212791Y0343617D01*
X0213791Y0342617D01*
X0215791Y0342617D01*
X0216791Y0343617D01*
X0216791Y0344617D01*
X0215791Y0345617D01*
X0212791Y0345617D01*
X0214791Y0347617D01*
X0216791Y0348617D01*
X0222291Y0347617D02*
X0221291Y0346617D01*
X0222291Y0347617D02*
X0222291Y0349617D01*
X0220291Y0349617D02*
X0220291Y0347617D01*
X0219291Y0346617D01*
X0010000Y0346117D02*
X0178291Y0346117D01*
X0233291Y0346117D02*
X0381583Y0346117D01*
X0399083Y0195058D02*
X0398083Y0194058D01*
X0398083Y0192058D01*
X0399083Y0191058D01*
X0400083Y0191058D01*
X0401083Y0192058D01*
X0401083Y0193058D01*
X0401083Y0192058D02*
X0402083Y0191058D01*
X0403083Y0191058D01*
X0404083Y0192058D01*
X0404083Y0194058D01*
X0403083Y0195058D01*
X0399083Y0187558D02*
X0399083Y0186558D01*
X0398083Y0186558D01*
X0398083Y0187558D01*
X0399083Y0187558D01*
X0403083Y0182058D02*
X0404083Y0181058D01*
X0398083Y0181058D01*
X0398083Y0182058D02*
X0398083Y0180058D01*
X0401083Y0177058D02*
X0399083Y0177058D01*
X0398083Y0176058D01*
X0398083Y0174058D01*
X0399083Y0173058D01*
X0400083Y0173058D01*
X0401083Y0174058D01*
X0401083Y0177058D01*
X0403083Y0175058D01*
X0404083Y0173058D01*
X0403083Y0170058D02*
X0404083Y0169058D01*
X0398083Y0169058D01*
X0398083Y0170058D02*
X0398083Y0168058D01*
X0403083Y0161558D02*
X0402083Y0162558D01*
X0403083Y0161558D02*
X0405083Y0161558D01*
X0405083Y0163558D02*
X0403083Y0163558D01*
X0402083Y0164558D01*
X0401583Y0326117D02*
X0401583Y0205558D01*
X0401583Y0150558D02*
X0401583Y0010000D01*
M02*
