G75*
%MOIN*%
%OFA0B0*%
%FSLAX25Y25*%
%IPPOS*%
%LPD*%
%AMOC8*
5,1,8,0,0,1.08239X$1,22.5*
%
%ADD10C,0.00500*%
D10*
X0043384Y0100475D02*
X0046991Y0100475D01*
X0048794Y0102279D01*
X0046991Y0104082D01*
X0043384Y0104082D01*
X0046089Y0105913D02*
X0046089Y0109520D01*
X0044286Y0111351D02*
X0047892Y0111351D01*
X0048794Y0112252D01*
X0048794Y0114056D01*
X0047892Y0114957D01*
X0047892Y0116788D02*
X0043384Y0116788D01*
X0044286Y0114957D02*
X0043384Y0114056D01*
X0043384Y0112252D01*
X0044286Y0111351D01*
X0047892Y0116788D02*
X0048794Y0117690D01*
X0048794Y0119493D01*
X0047892Y0120395D01*
X0043384Y0120395D01*
X0043384Y0122226D02*
X0043384Y0125833D01*
X0043384Y0124029D02*
X0048794Y0124029D01*
X0046089Y0133101D02*
X0046089Y0136708D01*
X0046089Y0138539D02*
X0046089Y0142146D01*
X0043384Y0143977D02*
X0046089Y0147584D01*
X0048794Y0143977D01*
X0045289Y0254019D02*
X0045289Y0259429D01*
X0043486Y0259429D02*
X0047093Y0259429D01*
X0041655Y0259429D02*
X0041655Y0254920D01*
X0040753Y0254019D01*
X0038950Y0254019D01*
X0038048Y0254920D01*
X0038048Y0259429D01*
X0036217Y0258527D02*
X0035316Y0259429D01*
X0033512Y0259429D01*
X0032610Y0258527D01*
X0032610Y0254920D01*
X0033512Y0254019D01*
X0035316Y0254019D01*
X0036217Y0254920D01*
X0030780Y0256724D02*
X0027173Y0256724D01*
X0025342Y0255822D02*
X0023538Y0254019D01*
X0021735Y0255822D01*
X0021735Y0259429D01*
X0025342Y0259429D02*
X0025342Y0255822D01*
X0054361Y0256724D02*
X0057968Y0256724D01*
X0059799Y0256724D02*
X0063406Y0256724D01*
X0065237Y0259429D02*
X0068843Y0256724D01*
X0065237Y0254019D01*
X0116223Y0255822D02*
X0118027Y0254019D01*
X0119830Y0255822D01*
X0119830Y0259429D01*
X0121661Y0256724D02*
X0125268Y0256724D01*
X0127099Y0258527D02*
X0127099Y0254920D01*
X0128000Y0254019D01*
X0129804Y0254019D01*
X0130705Y0254920D01*
X0132536Y0254920D02*
X0133438Y0254019D01*
X0135241Y0254019D01*
X0136143Y0254920D01*
X0136143Y0259429D01*
X0137974Y0259429D02*
X0141581Y0259429D01*
X0139777Y0259429D02*
X0139777Y0254019D01*
X0132536Y0254920D02*
X0132536Y0259429D01*
X0130705Y0258527D02*
X0129804Y0259429D01*
X0128000Y0259429D01*
X0127099Y0258527D01*
X0116223Y0259429D02*
X0116223Y0255822D01*
X0148849Y0256724D02*
X0152456Y0256724D01*
X0154287Y0256724D02*
X0157894Y0256724D01*
X0159725Y0259429D02*
X0163332Y0256724D01*
X0159725Y0254019D01*
X0214648Y0255822D02*
X0216452Y0254019D01*
X0218255Y0255822D01*
X0218255Y0259429D01*
X0220086Y0256724D02*
X0223693Y0256724D01*
X0225524Y0258527D02*
X0225524Y0254920D01*
X0226426Y0254019D01*
X0228229Y0254019D01*
X0229131Y0254920D01*
X0230962Y0254920D02*
X0231863Y0254019D01*
X0233667Y0254019D01*
X0234568Y0254920D01*
X0234568Y0259429D01*
X0236399Y0259429D02*
X0240006Y0259429D01*
X0238203Y0259429D02*
X0238203Y0254019D01*
X0230962Y0254920D02*
X0230962Y0259429D01*
X0229131Y0258527D02*
X0228229Y0259429D01*
X0226426Y0259429D01*
X0225524Y0258527D01*
X0214648Y0259429D02*
X0214648Y0255822D01*
X0247275Y0256724D02*
X0250881Y0256724D01*
X0252712Y0256724D02*
X0256319Y0256724D01*
X0258150Y0259429D02*
X0261757Y0256724D01*
X0258150Y0254019D01*
X0329554Y0147584D02*
X0332259Y0143977D01*
X0329554Y0142146D02*
X0329554Y0138539D01*
X0329554Y0136708D02*
X0329554Y0133101D01*
X0326849Y0125833D02*
X0326849Y0122226D01*
X0326849Y0124029D02*
X0332259Y0124029D01*
X0331357Y0120395D02*
X0326849Y0120395D01*
X0326849Y0116788D02*
X0331357Y0116788D01*
X0332259Y0117690D01*
X0332259Y0119493D01*
X0331357Y0120395D01*
X0331357Y0114957D02*
X0332259Y0114056D01*
X0332259Y0112252D01*
X0331357Y0111351D01*
X0327750Y0111351D01*
X0326849Y0112252D01*
X0326849Y0114056D01*
X0327750Y0114957D01*
X0329554Y0109520D02*
X0329554Y0105913D01*
X0330455Y0104082D02*
X0326849Y0104082D01*
X0330455Y0104082D02*
X0332259Y0102279D01*
X0330455Y0100475D01*
X0326849Y0100475D01*
X0326849Y0143977D02*
X0329554Y0147584D01*
M02*
